%FSLAX34Y34*%
G04 Gerber Fmt 3.4, Leading zero omitted, Abs format*
G04 (created by PCBNEW (2014-06-16 BZR 4947)-product) date Tue 01 Jul 2014 11:52:39 PM EDT*
%MOIN*%
G01*
G70*
G90*
G04 APERTURE LIST*
%ADD10C,0.003937*%
%ADD11C,0.015000*%
%ADD12C,0.074000*%
%ADD13R,0.055000X0.055000*%
%ADD14C,0.055000*%
%ADD15R,0.055100X0.090600*%
%ADD16O,0.118110X0.074000*%
%ADD17C,0.058300*%
%ADD18R,0.068000X0.068000*%
%ADD19O,0.068000X0.068000*%
%ADD20R,0.080000X0.068000*%
%ADD21O,0.080000X0.068000*%
%ADD22C,0.047244*%
%ADD23C,0.031496*%
%ADD24C,0.039370*%
%ADD25C,0.019685*%
G04 APERTURE END LIST*
G54D10*
X7856Y1600D02*
G75*
G03X7856Y1600I-656J0D01*
G74*
G01*
X6215Y1600D02*
X8184Y1600D01*
X7200Y2584D02*
X7200Y615D01*
X14656Y21200D02*
G75*
G03X14656Y21200I-656J0D01*
G74*
G01*
X13015Y21200D02*
X14984Y21200D01*
X14000Y22184D02*
X14000Y20215D01*
X0Y0D02*
X0Y23200D01*
X16800Y0D02*
X0Y0D01*
X16800Y23200D02*
X16800Y0D01*
X0Y23200D02*
X16800Y23200D01*
X0Y0D02*
X16500Y0D01*
G54D11*
X7670Y5985D02*
X7788Y5985D01*
X7670Y5985D02*
X7670Y6103D01*
X7670Y5867D02*
X7670Y5985D01*
X7670Y5985D02*
X7552Y5985D01*
X2430Y6115D02*
X2312Y6115D01*
X2430Y6115D02*
X2430Y5997D01*
X2430Y6233D02*
X2430Y6115D01*
X2430Y6115D02*
X2548Y6115D01*
G54D12*
X12800Y11300D03*
X11800Y11300D03*
X13300Y4800D03*
X12300Y4800D03*
X11300Y4800D03*
G54D13*
X12800Y17300D03*
G54D14*
X11800Y17300D03*
X11800Y16300D03*
G54D15*
X10300Y12394D03*
X10300Y14206D03*
X11300Y8706D03*
X11300Y6894D03*
G54D16*
X2300Y19300D03*
X2300Y18300D03*
X2300Y17300D03*
X2300Y16300D03*
X2300Y15300D03*
X2300Y14300D03*
X2300Y13300D03*
X2300Y12300D03*
X2300Y11300D03*
X2300Y10300D03*
X2300Y9300D03*
X2300Y8300D03*
X8300Y8300D03*
X8300Y9300D03*
X8300Y10300D03*
X8300Y11300D03*
X8300Y12300D03*
X8300Y13300D03*
X8300Y14300D03*
X8300Y15300D03*
X8300Y16300D03*
X8300Y17300D03*
X8300Y18300D03*
X8300Y19300D03*
G54D17*
X8300Y5906D03*
X8300Y6694D03*
X1800Y6194D03*
X1800Y5406D03*
G54D18*
X800Y16300D03*
G54D19*
X800Y17300D03*
G54D20*
X800Y15100D03*
G54D21*
X800Y14100D03*
X800Y13100D03*
X800Y12100D03*
X800Y11100D03*
X800Y10100D03*
X800Y9100D03*
X800Y8100D03*
G54D22*
X10700Y21300D03*
X10200Y22300D03*
X10200Y20200D03*
X5200Y1800D03*
X5400Y1800D03*
G54D23*
X800Y16300D02*
X2300Y16300D01*
X800Y17300D02*
X2300Y17300D01*
G54D24*
X13800Y4800D02*
X13800Y4800D01*
X13300Y4359D02*
X13800Y3359D01*
X13800Y4800D02*
X13300Y4359D01*
X11800Y10300D02*
X12300Y9800D01*
X12300Y9800D02*
X12300Y4800D01*
X11800Y11300D02*
X11800Y10300D01*
X12300Y2800D02*
X12859Y2241D01*
X12859Y2241D02*
X13800Y2241D01*
X12300Y4800D02*
X12300Y2800D01*
X11300Y6894D02*
X11300Y4800D01*
X10300Y10300D02*
X10300Y12394D01*
X8300Y10300D02*
X10300Y10300D01*
X9300Y8300D02*
X9706Y8706D01*
X9706Y8706D02*
X11300Y8706D01*
X8300Y8300D02*
X9300Y8300D01*
G54D23*
X1700Y19900D02*
X2300Y19300D01*
X1700Y20300D02*
X1700Y19900D01*
X2200Y21800D02*
X1700Y20300D01*
X10200Y21800D02*
X2200Y21800D01*
X10700Y21300D02*
X10200Y21800D01*
X1200Y18300D02*
X2300Y18300D01*
X1200Y21300D02*
X1200Y18300D01*
X1700Y22400D02*
X1200Y21300D01*
X9700Y22400D02*
X1700Y22400D01*
X10200Y22300D02*
X9700Y22400D01*
X2300Y15300D02*
X1000Y15300D01*
X1000Y15300D02*
X800Y15100D01*
X2300Y14300D02*
X1000Y14300D01*
X1000Y14300D02*
X800Y14100D01*
X2300Y13300D02*
X1000Y13300D01*
X1000Y13300D02*
X800Y13100D01*
X2300Y12300D02*
X1000Y12300D01*
X1000Y12300D02*
X800Y12100D01*
X4100Y12300D02*
X4800Y13000D01*
X4800Y13000D02*
X4800Y19600D01*
X4800Y19600D02*
X5400Y20200D01*
X5400Y20200D02*
X10200Y20200D01*
X2300Y12300D02*
X4100Y12300D01*
X2300Y11300D02*
X1000Y11300D01*
X1000Y11300D02*
X800Y11100D01*
X2300Y10300D02*
X1000Y10300D01*
X1000Y10300D02*
X800Y10100D01*
X2300Y9300D02*
X1000Y9300D01*
X1000Y9300D02*
X800Y9100D01*
X2300Y8300D02*
X1000Y8300D01*
X1000Y8300D02*
X800Y8100D01*
X1800Y6194D02*
X1194Y6194D01*
X1194Y6194D02*
X1000Y6000D01*
X1000Y6000D02*
X1000Y2400D01*
X1000Y2400D02*
X1600Y1800D01*
X1600Y1800D02*
X5200Y1800D01*
X1800Y6300D02*
X1300Y6300D01*
X1400Y1800D02*
X5200Y1800D01*
X1000Y2200D02*
X1400Y1800D01*
X1000Y6000D02*
X1000Y2200D01*
X1300Y6300D02*
X1000Y6000D01*
X5400Y15600D02*
X5400Y1800D01*
X6100Y16300D02*
X5400Y15600D01*
X8300Y16300D02*
X6100Y16300D01*
G54D25*
X13300Y4900D02*
X13300Y4800D01*
G54D23*
X13600Y5800D02*
X13300Y4900D01*
X13600Y13800D02*
X13600Y5800D01*
X11800Y16200D02*
X13600Y13800D01*
G54D25*
X11800Y16300D02*
X11800Y16200D01*
G54D24*
X10300Y17300D02*
X11800Y17300D01*
X10300Y14206D02*
X10300Y17300D01*
X13300Y18300D02*
X13300Y17800D01*
X13300Y17800D02*
X12800Y17300D01*
X8300Y18300D02*
X13300Y18300D01*
M02*
