M48
;DRILL file {kicad (2014-06-16 BZR 4947)-product} date Tue 01 Jul 2014 11:49:30 PM EDT
;FORMAT={3:3/ absolute / metric / keep zeros}
FMAT,2
METRIC,TZ
T1C0.635
T2C0.800
T3C0.813
T4C1.016
%
G90
G05
M71
T1
X013208Y004572
X013716Y004572
X025908Y056642
X025908Y051308
X027178Y054102
T2
X004572Y015733
X004572Y013731
X021082Y017003
X021082Y015001
T3
X029972Y043942
X029972Y041402
X032512Y043942
T4
X002032Y043942
X002032Y041402
X002032Y038354
X002032Y035814
X002032Y033274
X002032Y030734
X002032Y028194
X002032Y025654
X002032Y023114
X002032Y020574
X028702Y012192
X029972Y028702
X031242Y012192
X032512Y028702
X033782Y012192
T0
M30
