%FSLAX34Y34*%
G04 Gerber Fmt 3.4, Leading zero omitted, Abs format*
G04 (created by PCBNEW (2014-06-16 BZR 4947)-product) date Tue 01 Jul 2014 11:52:39 PM EDT*
%MOIN*%
G01*
G70*
G90*
G04 APERTURE LIST*
%ADD10C,0.003937*%
%ADD11C,0.074000*%
%ADD12R,0.055000X0.055000*%
%ADD13C,0.055000*%
%ADD14R,0.144000X0.080000*%
%ADD15R,0.040000X0.080000*%
%ADD16R,0.066900X0.047200*%
%ADD17R,0.047200X0.062900*%
%ADD18R,0.047200X0.066900*%
%ADD19C,0.058300*%
%ADD20R,0.068000X0.068000*%
%ADD21O,0.068000X0.068000*%
%ADD22R,0.080000X0.068000*%
%ADD23O,0.080000X0.068000*%
%ADD24C,0.047244*%
%ADD25C,0.039370*%
%ADD26C,0.031496*%
%ADD27C,0.019685*%
G04 APERTURE END LIST*
G54D10*
X7856Y1600D02*
G75*
G03X7856Y1600I-656J0D01*
G74*
G01*
X6215Y1600D02*
X8184Y1600D01*
X7200Y2584D02*
X7200Y615D01*
X14656Y21200D02*
G75*
G03X14656Y21200I-656J0D01*
G74*
G01*
X13015Y21200D02*
X14984Y21200D01*
X14000Y22184D02*
X14000Y20215D01*
X0Y0D02*
X0Y23200D01*
X16800Y0D02*
X0Y0D01*
X16800Y23200D02*
X16800Y0D01*
X0Y23200D02*
X16800Y23200D01*
X0Y0D02*
X16500Y0D01*
G54D11*
X12800Y11300D03*
X11800Y11300D03*
X13300Y4800D03*
X12300Y4800D03*
X11300Y4800D03*
G54D12*
X12800Y17300D03*
G54D13*
X11800Y17300D03*
X11800Y16300D03*
G54D14*
X5300Y3000D03*
G54D15*
X5300Y5600D03*
X6200Y5600D03*
X4400Y5600D03*
G54D16*
X8759Y16257D03*
X8759Y15666D03*
X8759Y15076D03*
X8759Y16847D03*
X8759Y17438D03*
X8759Y18028D03*
X8759Y18619D03*
X8759Y19209D03*
X8759Y19800D03*
X8759Y20391D03*
X8759Y20981D03*
X8759Y21572D03*
X8759Y22162D03*
G54D17*
X8267Y14408D03*
G54D18*
X7675Y14426D03*
X7085Y14426D03*
X6495Y14426D03*
X5905Y14426D03*
X5315Y14426D03*
X4725Y14426D03*
G54D17*
X4135Y14407D03*
G54D16*
X3641Y15076D03*
X3641Y15666D03*
X3641Y16258D03*
X3641Y16847D03*
X3641Y17438D03*
X3641Y18028D03*
X3641Y18619D03*
X3641Y19209D03*
X3641Y19800D03*
X3641Y20391D03*
X3641Y20981D03*
X3641Y21572D03*
X3641Y22162D03*
G54D19*
X8300Y5906D03*
X8300Y6694D03*
X1800Y6194D03*
X1800Y5406D03*
G54D20*
X800Y16300D03*
G54D21*
X800Y17300D03*
G54D22*
X800Y15100D03*
G54D23*
X800Y14100D03*
X800Y13100D03*
X800Y12100D03*
X800Y11100D03*
X800Y10100D03*
X800Y9100D03*
X800Y8100D03*
G54D24*
X10700Y21300D03*
X10200Y22300D03*
X10200Y20200D03*
X5200Y1800D03*
X5400Y1800D03*
G54D25*
X6400Y5800D02*
X6200Y5600D01*
X8300Y5800D02*
X6400Y5800D01*
X12300Y2300D02*
X12300Y4800D01*
X11800Y1800D02*
X12300Y2300D01*
X9300Y1800D02*
X11800Y1800D01*
X8300Y2800D02*
X9300Y1800D01*
X8300Y5800D02*
X8300Y2800D01*
G54D26*
X10428Y21572D02*
X10700Y21300D01*
X8759Y21572D02*
X10428Y21572D01*
X10062Y22162D02*
X10200Y22300D01*
X8759Y22162D02*
X10062Y22162D01*
X8825Y15600D02*
X8759Y15666D01*
X10200Y20200D02*
X10400Y20000D01*
X10400Y20000D02*
X10400Y18000D01*
X10400Y18000D02*
X9600Y17200D01*
X9600Y17200D02*
X9600Y15800D01*
X9600Y15800D02*
X9400Y15600D01*
X9400Y15600D02*
X8825Y15600D01*
X5300Y5600D02*
X5300Y3000D01*
X5300Y1900D02*
X5300Y3000D01*
X5200Y1800D02*
X5300Y1900D01*
X5300Y1900D02*
X5300Y3000D01*
X5400Y1800D02*
X5300Y1900D01*
G54D25*
X8300Y6800D02*
X12800Y6800D01*
G54D26*
X4200Y6800D02*
X4700Y6800D01*
X4200Y6800D02*
X8300Y6800D01*
X4400Y6800D02*
X4700Y6800D01*
X8759Y7259D02*
X8300Y6800D01*
G54D25*
X3500Y5600D02*
X4400Y5600D01*
X12800Y6800D02*
X12800Y11300D01*
X12800Y17300D02*
X12800Y11300D01*
G54D27*
X4200Y5800D02*
X4400Y5600D01*
X4200Y6300D02*
X4200Y5800D01*
G54D26*
X4400Y5600D02*
X4400Y6800D01*
X8759Y15076D02*
X8759Y7259D01*
G54D25*
X3300Y5300D02*
X3300Y5800D01*
X3300Y5800D02*
X3500Y5600D01*
X1800Y5300D02*
X3300Y5300D01*
M02*
