G04 (created by PCBNEW (2013-07-07 BZR 4022)-stable) date 6/17/2014 11:35:24 PM*
%MOIN*%
G04 Gerber Fmt 3.4, Leading zero omitted, Abs format*
%FSLAX34Y34*%
G01*
G70*
G90*
G04 APERTURE LIST*
%ADD10C,0.00590551*%
%ADD11R,0.0669X0.0472*%
%ADD12R,0.0472X0.0629*%
%ADD13R,0.0472X0.0669*%
%ADD14R,0.063X0.071*%
%ADD15R,0.0709X0.0512*%
%ADD16R,0.0709X0.1496*%
%ADD17R,0.06X0.0866*%
%ADD18O,0.06X0.0866*%
%ADD19C,0.019685*%
%ADD20C,0.01*%
G04 APERTURE END LIST*
G54D10*
G54D11*
X17941Y-15043D03*
X17941Y-15634D03*
X17941Y-16224D03*
X17941Y-14453D03*
X17941Y-13862D03*
X17941Y-13272D03*
X17941Y-12681D03*
X17941Y-12091D03*
X17941Y-11500D03*
X17941Y-10909D03*
X17941Y-10319D03*
X17941Y-9728D03*
X17941Y-9138D03*
G54D12*
X18433Y-16892D03*
G54D13*
X19025Y-16874D03*
X19615Y-16874D03*
X20205Y-16874D03*
X20795Y-16874D03*
X21385Y-16874D03*
X21975Y-16874D03*
G54D12*
X22565Y-16893D03*
G54D11*
X23059Y-16224D03*
X23059Y-15634D03*
X23059Y-15042D03*
X23059Y-14453D03*
X23059Y-13862D03*
X23059Y-13272D03*
X23059Y-12681D03*
X23059Y-12091D03*
X23059Y-11500D03*
X23059Y-10909D03*
X23059Y-10319D03*
X23059Y-9728D03*
X23059Y-9138D03*
G54D14*
X16450Y-24500D03*
X17550Y-24500D03*
X15950Y-18500D03*
X17050Y-18500D03*
G54D15*
X18819Y-20094D03*
X18819Y-21000D03*
X18819Y-21906D03*
G54D16*
X21181Y-21000D03*
G54D17*
X17500Y-26500D03*
G54D18*
X18500Y-26500D03*
X19500Y-26500D03*
X20500Y-26500D03*
X21500Y-26500D03*
X22500Y-26500D03*
G54D19*
X15000Y-10000D02*
X15000Y-27500D01*
X17941Y-9728D02*
X15272Y-9728D01*
X15000Y-10000D02*
X15272Y-9728D01*
X19500Y-27500D02*
X19500Y-26500D01*
X19000Y-28000D02*
X19500Y-27500D01*
X15500Y-28000D02*
X19000Y-28000D01*
X15000Y-27500D02*
X15500Y-28000D01*
X17941Y-9138D02*
X14862Y-9138D01*
X14862Y-9138D02*
X14500Y-9500D01*
X14500Y-9500D02*
X14500Y-28000D01*
X14500Y-28000D02*
X15000Y-28500D01*
X15000Y-28500D02*
X20500Y-28500D01*
X20500Y-28500D02*
X20500Y-26500D01*
X18500Y-27500D02*
X18500Y-26500D01*
X17550Y-24500D02*
X17550Y-23950D01*
X17550Y-23950D02*
X18000Y-23500D01*
X18000Y-23500D02*
X22000Y-23500D01*
X22000Y-23500D02*
X22500Y-23000D01*
X22500Y-23000D02*
X22500Y-19000D01*
X22500Y-19000D02*
X18500Y-19000D01*
X18500Y-19000D02*
X18500Y-20000D01*
X18500Y-20000D02*
X18594Y-20094D01*
X18594Y-20094D02*
X18819Y-20094D01*
X17500Y-26500D02*
X17500Y-25950D01*
X17500Y-25950D02*
X17550Y-24500D01*
X18819Y-21906D02*
X16594Y-21906D01*
X16594Y-21906D02*
X16500Y-22000D01*
X16500Y-22000D02*
X16500Y-27500D01*
X16500Y-27500D02*
X17000Y-27500D01*
X17000Y-27500D02*
X18500Y-27500D01*
G54D20*
X18500Y-27500D02*
X18500Y-27500D01*
G54D19*
X18819Y-21000D02*
X17000Y-21000D01*
X17000Y-21000D02*
X16000Y-20000D01*
X16000Y-20000D02*
X16000Y-16000D01*
X16000Y-16000D02*
X16134Y-15634D01*
X16134Y-15634D02*
X17941Y-15634D01*
X17941Y-16224D02*
X17276Y-16224D01*
X17594Y-20094D02*
X18819Y-20094D01*
X17000Y-19500D02*
X17594Y-20094D01*
X17000Y-16500D02*
X17000Y-19500D01*
X17276Y-16224D02*
X17000Y-16500D01*
M02*
