  0
SECTION
  2
HEADER
  9
$ANGBASE
  50
0.0
  9
$ANGDIR
  70
  1
  9
$MEASUREMENT
  70
0
  0
ENDSEC
  0
SECTION
  2
TABLES
  0
TABLE
  2
LTYPE
  70
1
  0
LTYPE
  2
CONTINUOUS
  70
0
  3
Solid line
  72
65
  73
0
  40
0.0
  0
ENDTAB
  0
TABLE
  2
STYLE
  70
4
  0
STYLE
  2
KICAD
  70
0
  40
0
  41
1
  42
1
  50
0
  71
0
  3
isocp.shx
  0
STYLE
  2
KICADB
  70
0
  40
0
  41
1
  42
1
  50
0
  71
0
  3
isocp.shx
  0
STYLE
  2
KICADI
  70
0
  40
0
  41
1
  42
1
  50
15
  71
0
  3
isocp.shx
  0
STYLE
  2
KICADBI
  70
0
  40
0
  41
1
  42
1
  50
15
  71
0
  3
isocp.shx
  0
ENDTAB
  0
TABLE
  2
LAYER
  70
24
  0
LAYER
  2
BLACK
  70
0
  62
250
  6
CONTINUOUS
  0
LAYER
  2
BLUE
  70
0
  62
5
  6
CONTINUOUS
  0
LAYER
  2
GREEN
  70
0
  62
3
  6
CONTINUOUS
  0
LAYER
  2
CYAN
  70
0
  62
4
  6
CONTINUOUS
  0
LAYER
  2
RED
  70
0
  62
1
  6
CONTINUOUS
  0
LAYER
  2
MAGENTA
  70
0
  62
6
  6
CONTINUOUS
  0
LAYER
  2
BROWN
  70
0
  62
54
  6
CONTINUOUS
  0
LAYER
  2
LIGHTGRAY
  70
0
  62
9
  6
CONTINUOUS
  0
LAYER
  2
DARKGRAY
  70
0
  62
8
  6
CONTINUOUS
  0
LAYER
  2
LIGHTBLUE
  70
0
  62
171
  6
CONTINUOUS
  0
LAYER
  2
LIGHTGREEN
  70
0
  62
91
  6
CONTINUOUS
  0
LAYER
  2
LIGHTCYAN
  70
0
  62
131
  6
CONTINUOUS
  0
LAYER
  2
LIGHTRED
  70
0
  62
11
  6
CONTINUOUS
  0
LAYER
  2
LIGHTMAGENTA
  70
0
  62
221
  6
CONTINUOUS
  0
LAYER
  2
YELLOW
  70
0
  62
2
  6
CONTINUOUS
  0
LAYER
  2
WHITE
  70
0
  62
7
  6
CONTINUOUS
  0
LAYER
  2
DARKDARKGRAY
  70
0
  62
251
  6
CONTINUOUS
  0
LAYER
  2
DARKBLUE
  70
0
  62
178
  6
CONTINUOUS
  0
LAYER
  2
DARKGREEN
  70
0
  62
98
  6
CONTINUOUS
  0
LAYER
  2
DARKCYAN
  70
0
  62
138
  6
CONTINUOUS
  0
LAYER
  2
DARKRED
  70
0
  62
18
  6
CONTINUOUS
  0
LAYER
  2
DARKMAGENTA
  70
0
  62
228
  6
CONTINUOUS
  0
LAYER
  2
DARKBROWN
  70
0
  62
58
  6
CONTINUOUS
  0
LAYER
  2
LIGHTYELLOW
  70
0
  62
51
  6
CONTINUOUS
  0
ENDTAB
  0
ENDSEC
  0
SECTION
  2
ENTITIES
0
CIRCLE
8
BLACK
10
60.96
20
-72.39
40
0.001666
0
LINE
8
BLACK
10
60.9575
20
-72.44
11
60.9625
21
-72.44
0
LINE
8
BLACK
10
60.9575
20
-72.34
11
60.9625
21
-72.34
0
ARC
8
BLACK
10
60.9625
20
-72.39
40
0.05
50
270
51
450
0
ARC
8
BLACK
10
60.9575
20
-72.39
40
0.05
50
90
51
270
0
LINE
8
BLACK
10
61.01
20
-72.3925
11
61.01
21
-72.3875
0
LINE
8
BLACK
10
60.91
20
-72.3925
11
60.91
21
-72.3875
0
ARC
8
BLACK
10
60.96
20
-72.3875
40
0.05
50
360
51
540
0
ARC
8
BLACK
10
60.96
20
-72.3925
40
0.05
50
180
51
360
0
CIRCLE
8
BLACK
10
60.96
20
-72.39
40
0.001666
0
LINE
8
BLACK
10
60.9575
20
-72.44
11
60.9625
21
-72.44
0
LINE
8
BLACK
10
60.9575
20
-72.34
11
60.9625
21
-72.34
0
ARC
8
BLACK
10
60.9625
20
-72.39
40
0.05
50
270
51
450
0
ARC
8
BLACK
10
60.9575
20
-72.39
40
0.05
50
90
51
270
0
LINE
8
BLACK
10
61.01
20
-72.3925
11
61.01
21
-72.3875
0
LINE
8
BLACK
10
60.91
20
-72.3925
11
60.91
21
-72.3875
0
ARC
8
BLACK
10
60.96
20
-72.3875
40
0.05
50
360
51
540
0
ARC
8
BLACK
10
60.96
20
-72.3925
40
0.05
50
180
51
360
0
CIRCLE
8
BLACK
10
60.96
20
-72.39
40
0.001666
0
LINE
8
BLACK
10
60.9575
20
-72.44
11
60.9625
21
-72.44
0
LINE
8
BLACK
10
60.9575
20
-72.34
11
60.9625
21
-72.34
0
ARC
8
BLACK
10
60.9625
20
-72.39
40
0.05
50
270
51
450
0
ARC
8
BLACK
10
60.9575
20
-72.39
40
0.05
50
90
51
270
0
LINE
8
BLACK
10
61.01
20
-72.3925
11
61.01
21
-72.3875
0
LINE
8
BLACK
10
60.91
20
-72.3925
11
60.91
21
-72.3875
0
ARC
8
BLACK
10
60.96
20
-72.3875
40
0.05
50
360
51
540
0
ARC
8
BLACK
10
60.96
20
-72.3925
40
0.05
50
180
51
360
0
LINE
8
BLACK
10
38.1
20
-20.37
11
39.37
21
-20.37
0
LINE
8
BLACK
10
38.1
20
-20.27
11
39.37
21
-20.27
0
ARC
8
BLACK
10
39.37
20
-20.32
40
0.05
50
270
51
450
0
ARC
8
BLACK
10
38.1
20
-20.32
40
0.05
50
90
51
270
0
LINE
8
BLACK
10
33.07
20
-73.66
11
33.07
21
-20.32
0
LINE
8
BLACK
10
32.97
20
-73.66
11
32.97
21
-20.32
0
ARC
8
BLACK
10
33.02
20
-20.32
40
0.05
50
360
51
540
0
ARC
8
BLACK
10
33.02
20
-73.66
40
0.05
50
180
51
360
0
LINE
8
BLACK
10
33.02
20
-73.71
11
62.23
21
-73.71
0
LINE
8
BLACK
10
33.02
20
-73.61
11
62.23
21
-73.61
0
ARC
8
BLACK
10
62.23
20
-73.66
40
0.05
50
270
51
450
0
ARC
8
BLACK
10
33.02
20
-73.66
40
0.05
50
90
51
270
0
LINE
8
BLACK
10
62.28
20
-73.66
11
62.28
21
-20.32
0
LINE
8
BLACK
10
62.18
20
-73.66
11
62.18
21
-20.32
0
ARC
8
BLACK
10
62.23
20
-20.32
40
0.05
50
360
51
540
0
ARC
8
BLACK
10
62.23
20
-73.66
40
0.05
50
180
51
360
0
LINE
8
BLACK
10
33.02
20
-20.37
11
62.23
21
-20.37
0
LINE
8
BLACK
10
33.02
20
-20.27
11
62.23
21
-20.27
0
ARC
8
BLACK
10
62.23
20
-20.32
40
0.05
50
270
51
450
0
ARC
8
BLACK
10
33.02
20
-20.32
40
0.05
50
90
51
270
  0
ENDSEC
  0
EOF
