G04 (created by PCBNEW (2013-07-07 BZR 4022)-stable) date 6/22/2014 4:32:44 PM*
%MOIN*%
G04 Gerber Fmt 3.4, Leading zero omitted, Abs format*
%FSLAX34Y34*%
G01*
G70*
G90*
G04 APERTURE LIST*
%ADD10C,0.00393701*%
%ADD11C,0.061*%
%ADD12C,0.1102*%
%ADD13C,0.0733*%
%ADD14C,0.067*%
%ADD15C,0.0394*%
%ADD16C,0.01*%
G04 APERTURE END LIST*
G54D10*
G54D11*
X18094Y-16181D03*
X19000Y-16181D03*
X19906Y-16181D03*
G54D12*
X19000Y-13819D03*
G54D13*
X13000Y-15000D03*
X13000Y-16000D03*
X24000Y-15000D03*
X24000Y-16000D03*
G54D14*
X15500Y-14950D03*
X15500Y-16050D03*
X22000Y-14950D03*
X22000Y-16050D03*
G54D15*
X22000Y-16050D02*
X21450Y-16050D01*
X21450Y-16050D02*
X21000Y-16500D01*
X21000Y-16500D02*
X21000Y-17000D01*
X21000Y-17000D02*
X20000Y-17000D01*
X20000Y-17000D02*
X19906Y-16906D01*
X19906Y-16906D02*
X19906Y-16181D01*
X24000Y-16000D02*
X22050Y-16000D01*
G54D16*
X22050Y-16000D02*
X22000Y-16050D01*
G54D15*
X22000Y-14950D02*
X22000Y-13000D01*
X15500Y-12500D02*
X15500Y-14950D01*
X21500Y-12500D02*
X15500Y-12500D01*
X22000Y-13000D02*
X21500Y-12500D01*
X24000Y-15000D02*
X22050Y-15000D01*
G54D16*
X22050Y-15000D02*
X22000Y-14950D01*
G54D15*
X15500Y-16050D02*
X15500Y-17000D01*
X15500Y-17000D02*
X16000Y-17500D01*
X16000Y-17500D02*
X18500Y-17500D01*
X18500Y-17500D02*
X19000Y-17000D01*
X19000Y-17000D02*
X19000Y-16181D01*
X15500Y-14950D02*
X16950Y-14950D01*
G54D16*
X16950Y-14950D02*
X17000Y-15000D01*
G54D15*
X17000Y-15000D02*
X17000Y-16500D01*
X17000Y-16500D02*
X18000Y-16500D01*
G54D16*
X18000Y-16500D02*
X18094Y-16181D01*
G54D15*
X13000Y-16000D02*
X15450Y-16000D01*
X15450Y-16000D02*
X15500Y-16050D01*
X13000Y-15000D02*
X15450Y-15000D01*
G54D16*
X15450Y-15000D02*
X15500Y-14950D01*
M02*
