solid OpenSCAD_Model
  facet normal 0 -1 0
    outer loop
      vertex 0 0 6
      vertex 0 0 0
      vertex 32 0 0
    endloop
  endfacet
  facet normal 0 -1 0
    outer loop
      vertex 32 0 6
      vertex 0 0 6
      vertex 32 0 0
    endloop
  endfacet
  facet normal 0 0 -1
    outer loop
      vertex 16.803 10.373 0
      vertex 0 15.8 0
      vertex 32 15.8 0
    endloop
  endfacet
  facet normal 0 0 -1
    outer loop
      vertex 0 0 0
      vertex 0 15.8 0
      vertex 13.4 7.9 0
    endloop
  endfacet
  facet normal 0 0 -1
    outer loop
      vertex 13.583 8.857 0
      vertex 0 15.8 0
      vertex 13.647 9.007 0
    endloop
  endfacet
  facet normal 0 0 -1
    outer loop
      vertex 0 0 0
      vertex 13.4 7.9 0
      vertex 13.405 7.737 0
    endloop
  endfacet
  facet normal 0 0 -1
    outer loop
      vertex 0 0 0
      vertex 13.405 7.737 0
      vertex 13.421 7.574 0
    endloop
  endfacet
  facet normal 0 0 -1
    outer loop
      vertex 0 0 0
      vertex 13.421 7.574 0
      vertex 13.446 7.413 0
    endloop
  endfacet
  facet normal 0 0 -1
    outer loop
      vertex 0 0 0
      vertex 13.446 7.413 0
      vertex 13.482 7.253 0
    endloop
  endfacet
  facet normal 0 0 -1
    outer loop
      vertex 0 0 0
      vertex 13.482 7.253 0
      vertex 13.527 7.097 0
    endloop
  endfacet
  facet normal 0 0 -1
    outer loop
      vertex 0 0 0
      vertex 13.527 7.097 0
      vertex 13.583 6.943 0
    endloop
  endfacet
  facet normal 0 0 -1
    outer loop
      vertex 0 0 0
      vertex 13.583 6.943 0
      vertex 13.647 6.793 0
    endloop
  endfacet
  facet normal 0 0 -1
    outer loop
      vertex 0 0 0
      vertex 13.647 6.793 0
      vertex 13.722 6.647 0
    endloop
  endfacet
  facet normal 0 0 -1
    outer loop
      vertex 0 0 0
      vertex 13.722 6.647 0
      vertex 13.805 6.507 0
    endloop
  endfacet
  facet normal 0 0 -1
    outer loop
      vertex 0 0 0
      vertex 13.805 6.507 0
      vertex 13.897 6.372 0
    endloop
  endfacet
  facet normal 0 0 -1
    outer loop
      vertex 0 0 0
      vertex 13.897 6.372 0
      vertex 13.997 6.243 0
    endloop
  endfacet
  facet normal 0 0 -1
    outer loop
      vertex 0 0 0
      vertex 13.997 6.243 0
      vertex 14.105 6.12 0
    endloop
  endfacet
  facet normal 0 0 -1
    outer loop
      vertex 0 0 0
      vertex 14.105 6.12 0
      vertex 14.22 6.005 0
    endloop
  endfacet
  facet normal 0 0 -1
    outer loop
      vertex 0 0 0
      vertex 14.22 6.005 0
      vertex 14.343 5.897 0
    endloop
  endfacet
  facet normal 0 0 -1
    outer loop
      vertex 0 0 0
      vertex 14.343 5.897 0
      vertex 14.472 5.797 0
    endloop
  endfacet
  facet normal 0 0 -1
    outer loop
      vertex 0 0 0
      vertex 14.472 5.797 0
      vertex 14.607 5.705 0
    endloop
  endfacet
  facet normal 0 0 -1
    outer loop
      vertex 0 0 0
      vertex 14.607 5.705 0
      vertex 14.747 5.622 0
    endloop
  endfacet
  facet normal 0 0 -1
    outer loop
      vertex 0 0 0
      vertex 14.747 5.622 0
      vertex 14.893 5.547 0
    endloop
  endfacet
  facet normal 0 0 -1
    outer loop
      vertex 0 0 0
      vertex 14.893 5.547 0
      vertex 15.043 5.483 0
    endloop
  endfacet
  facet normal 0 0 -1
    outer loop
      vertex 0 0 0
      vertex 15.043 5.483 0
      vertex 15.197 5.427 0
    endloop
  endfacet
  facet normal 0 0 -1
    outer loop
      vertex 0 0 0
      vertex 15.197 5.427 0
      vertex 32 0 0
    endloop
  endfacet
  facet normal 0 0 -1
    outer loop
      vertex 15.197 5.427 0
      vertex 15.353 5.382 0
      vertex 32 0 0
    endloop
  endfacet
  facet normal 0 0 -1
    outer loop
      vertex 15.674 5.321 0
      vertex 32 0 0
      vertex 15.513 5.346 0
    endloop
  endfacet
  facet normal 0 0 -1
    outer loop
      vertex 15.837 5.305 0
      vertex 32 0 0
      vertex 15.674 5.321 0
    endloop
  endfacet
  facet normal 0 0 -1
    outer loop
      vertex 16 5.3 0
      vertex 32 0 0
      vertex 15.837 5.305 0
    endloop
  endfacet
  facet normal 0 0 -1
    outer loop
      vertex 16.163 5.305 0
      vertex 32 0 0
      vertex 16 5.3 0
    endloop
  endfacet
  facet normal 0 0 -1
    outer loop
      vertex 16.326 5.321 0
      vertex 32 0 0
      vertex 16.163 5.305 0
    endloop
  endfacet
  facet normal 0 0 -1
    outer loop
      vertex 16.487 5.346 0
      vertex 32 0 0
      vertex 16.326 5.321 0
    endloop
  endfacet
  facet normal 0 0 -1
    outer loop
      vertex 16.647 5.382 0
      vertex 32 0 0
      vertex 16.487 5.346 0
    endloop
  endfacet
  facet normal 0 0 -1
    outer loop
      vertex 16.803 5.427 0
      vertex 32 0 0
      vertex 16.647 5.382 0
    endloop
  endfacet
  facet normal 0 0 -1
    outer loop
      vertex 16.957 5.483 0
      vertex 32 0 0
      vertex 16.803 5.427 0
    endloop
  endfacet
  facet normal 0 0 -1
    outer loop
      vertex 17.107 5.547 0
      vertex 32 0 0
      vertex 16.957 5.483 0
    endloop
  endfacet
  facet normal 0 0 -1
    outer loop
      vertex 17.253 5.622 0
      vertex 32 0 0
      vertex 17.107 5.547 0
    endloop
  endfacet
  facet normal 0 0 -1
    outer loop
      vertex 17.393 5.705 0
      vertex 32 0 0
      vertex 17.253 5.622 0
    endloop
  endfacet
  facet normal 0 0 -1
    outer loop
      vertex 17.528 5.797 0
      vertex 32 0 0
      vertex 17.393 5.705 0
    endloop
  endfacet
  facet normal 0 0 -1
    outer loop
      vertex 17.657 5.897 0
      vertex 32 0 0
      vertex 17.528 5.797 0
    endloop
  endfacet
  facet normal 0 0 -1
    outer loop
      vertex 17.78 6.005 0
      vertex 32 0 0
      vertex 17.657 5.897 0
    endloop
  endfacet
  facet normal 0 0 -1
    outer loop
      vertex 17.895 6.12 0
      vertex 32 0 0
      vertex 17.78 6.005 0
    endloop
  endfacet
  facet normal 0 0 -1
    outer loop
      vertex 18.353 6.793 0
      vertex 32 0 0
      vertex 18.278 6.647 0
    endloop
  endfacet
  facet normal 0 0 -1
    outer loop
      vertex 13.446 8.387 0
      vertex 0 15.8 0
      vertex 13.482 8.547 0
    endloop
  endfacet
  facet normal 0 0 -1
    outer loop
      vertex 17.895 6.12 0
      vertex 18.003 6.243 0
      vertex 32 0 0
    endloop
  endfacet
  facet normal 0 0 -1
    outer loop
      vertex 13.482 8.547 0
      vertex 0 15.8 0
      vertex 13.527 8.703 0
    endloop
  endfacet
  facet normal 0 0 -1
    outer loop
      vertex 18.003 6.243 0
      vertex 18.103 6.372 0
      vertex 32 0 0
    endloop
  endfacet
  facet normal 0 0 -1
    outer loop
      vertex 13.527 8.703 0
      vertex 0 15.8 0
      vertex 13.583 8.857 0
    endloop
  endfacet
  facet normal 0 0 -1
    outer loop
      vertex 18.103 6.372 0
      vertex 18.195 6.507 0
      vertex 32 0 0
    endloop
  endfacet
  facet normal 0 0 -1
    outer loop
      vertex 18.195 6.507 0
      vertex 18.278 6.647 0
      vertex 32 0 0
    endloop
  endfacet
  facet normal 0 0 -1
    outer loop
      vertex 16.487 10.454 0
      vertex 0 15.8 0
      vertex 16.647 10.418 0
    endloop
  endfacet
  facet normal 0 0 -1
    outer loop
      vertex 32 0 0
      vertex 18.353 6.793 0
      vertex 32 15.8 0
    endloop
  endfacet
  facet normal 0 0 -1
    outer loop
      vertex 13.647 9.007 0
      vertex 0 15.8 0
      vertex 13.722 9.153 0
    endloop
  endfacet
  facet normal 0 0 -1
    outer loop
      vertex 18.353 6.793 0
      vertex 18.417 6.943 0
      vertex 32 15.8 0
    endloop
  endfacet
  facet normal 0 0 -1
    outer loop
      vertex 13.722 9.153 0
      vertex 0 15.8 0
      vertex 13.805 9.293 0
    endloop
  endfacet
  facet normal 0 0 -1
    outer loop
      vertex 18.417 6.943 0
      vertex 18.473 7.097 0
      vertex 32 15.8 0
    endloop
  endfacet
  facet normal 0 0 -1
    outer loop
      vertex 18.473 7.097 0
      vertex 18.518 7.253 0
      vertex 32 15.8 0
    endloop
  endfacet
  facet normal 0 0 -1
    outer loop
      vertex 13.805 9.293 0
      vertex 0 15.8 0
      vertex 13.897 9.428 0
    endloop
  endfacet
  facet normal 0 0 -1
    outer loop
      vertex 18.518 7.253 0
      vertex 18.554 7.413 0
      vertex 32 15.8 0
    endloop
  endfacet
  facet normal 0 0 -1
    outer loop
      vertex 13.897 9.428 0
      vertex 0 15.8 0
      vertex 13.997 9.557 0
    endloop
  endfacet
  facet normal 0 0 -1
    outer loop
      vertex 18.554 7.413 0
      vertex 18.579 7.574 0
      vertex 32 15.8 0
    endloop
  endfacet
  facet normal 0 0 -1
    outer loop
      vertex 13.997 9.557 0
      vertex 0 15.8 0
      vertex 14.105 9.68 0
    endloop
  endfacet
  facet normal 0 0 -1
    outer loop
      vertex 18.579 7.574 0
      vertex 18.595 7.737 0
      vertex 32 15.8 0
    endloop
  endfacet
  facet normal 0 0 -1
    outer loop
      vertex 18.595 7.737 0
      vertex 18.6 7.9 0
      vertex 32 15.8 0
    endloop
  endfacet
  facet normal 0 0 -1
    outer loop
      vertex 14.105 9.68 0
      vertex 0 15.8 0
      vertex 14.22 9.795 0
    endloop
  endfacet
  facet normal 0 0 -1
    outer loop
      vertex 18.6 7.9 0
      vertex 18.595 8.063 0
      vertex 32 15.8 0
    endloop
  endfacet
  facet normal 0 0 -1
    outer loop
      vertex 14.22 9.795 0
      vertex 0 15.8 0
      vertex 14.343 9.903 0
    endloop
  endfacet
  facet normal 0 0 -1
    outer loop
      vertex 18.595 8.063 0
      vertex 18.579 8.226 0
      vertex 32 15.8 0
    endloop
  endfacet
  facet normal 0 0 -1
    outer loop
      vertex 14.343 9.903 0
      vertex 0 15.8 0
      vertex 14.472 10.003 0
    endloop
  endfacet
  facet normal 0 0 -1
    outer loop
      vertex 18.579 8.226 0
      vertex 18.554 8.387 0
      vertex 32 15.8 0
    endloop
  endfacet
  facet normal 0 0 -1
    outer loop
      vertex 18.554 8.387 0
      vertex 18.518 8.547 0
      vertex 32 15.8 0
    endloop
  endfacet
  facet normal 0 0 -1
    outer loop
      vertex 14.472 10.003 0
      vertex 0 15.8 0
      vertex 14.607 10.095 0
    endloop
  endfacet
  facet normal 0 0 -1
    outer loop
      vertex 18.518 8.547 0
      vertex 18.473 8.703 0
      vertex 32 15.8 0
    endloop
  endfacet
  facet normal 0 0 -1
    outer loop
      vertex 14.607 10.095 0
      vertex 0 15.8 0
      vertex 14.747 10.178 0
    endloop
  endfacet
  facet normal 0 0 -1
    outer loop
      vertex 18.473 8.703 0
      vertex 18.417 8.857 0
      vertex 32 15.8 0
    endloop
  endfacet
  facet normal 0 0 -1
    outer loop
      vertex 14.747 10.178 0
      vertex 0 15.8 0
      vertex 14.893 10.253 0
    endloop
  endfacet
  facet normal 0 0 -1
    outer loop
      vertex 18.417 8.857 0
      vertex 18.353 9.007 0
      vertex 32 15.8 0
    endloop
  endfacet
  facet normal 0 0 -1
    outer loop
      vertex 14.893 10.253 0
      vertex 0 15.8 0
      vertex 15.043 10.317 0
    endloop
  endfacet
  facet normal 0 0 -1
    outer loop
      vertex 18.353 9.007 0
      vertex 18.278 9.153 0
      vertex 32 15.8 0
    endloop
  endfacet
  facet normal 0 0 -1
    outer loop
      vertex 18.278 9.153 0
      vertex 18.195 9.293 0
      vertex 32 15.8 0
    endloop
  endfacet
  facet normal 0 0 -1
    outer loop
      vertex 15.043 10.317 0
      vertex 0 15.8 0
      vertex 15.197 10.373 0
    endloop
  endfacet
  facet normal 0 0 -1
    outer loop
      vertex 18.195 9.293 0
      vertex 18.103 9.428 0
      vertex 32 15.8 0
    endloop
  endfacet
  facet normal 0 0 -1
    outer loop
      vertex 15.197 10.373 0
      vertex 0 15.8 0
      vertex 15.353 10.418 0
    endloop
  endfacet
  facet normal 0 0 -1
    outer loop
      vertex 18.103 9.428 0
      vertex 18.003 9.557 0
      vertex 32 15.8 0
    endloop
  endfacet
  facet normal 0 0 -1
    outer loop
      vertex 15.353 10.418 0
      vertex 0 15.8 0
      vertex 15.513 10.454 0
    endloop
  endfacet
  facet normal 0 0 -1
    outer loop
      vertex 18.003 9.557 0
      vertex 17.895 9.68 0
      vertex 32 15.8 0
    endloop
  endfacet
  facet normal 0 0 -1
    outer loop
      vertex 15.513 10.454 0
      vertex 0 15.8 0
      vertex 15.674 10.479 0
    endloop
  endfacet
  facet normal 0 0 -1
    outer loop
      vertex 17.895 9.68 0
      vertex 17.78 9.795 0
      vertex 32 15.8 0
    endloop
  endfacet
  facet normal 0 0 -1
    outer loop
      vertex 15.674 10.479 0
      vertex 0 15.8 0
      vertex 15.837 10.495 0
    endloop
  endfacet
  facet normal 0 0 -1
    outer loop
      vertex 17.78 9.795 0
      vertex 17.657 9.903 0
      vertex 32 15.8 0
    endloop
  endfacet
  facet normal 0 0 -1
    outer loop
      vertex 15.837 10.495 0
      vertex 0 15.8 0
      vertex 16 10.5 0
    endloop
  endfacet
  facet normal 0 0 -1
    outer loop
      vertex 17.657 9.903 0
      vertex 17.528 10.003 0
      vertex 32 15.8 0
    endloop
  endfacet
  facet normal 0 0 -1
    outer loop
      vertex 16 10.5 0
      vertex 0 15.8 0
      vertex 16.163 10.495 0
    endloop
  endfacet
  facet normal 0 0 -1
    outer loop
      vertex 17.528 10.003 0
      vertex 17.393 10.095 0
      vertex 32 15.8 0
    endloop
  endfacet
  facet normal 0 0 -1
    outer loop
      vertex 16.163 10.495 0
      vertex 0 15.8 0
      vertex 16.326 10.479 0
    endloop
  endfacet
  facet normal 0 0 -1
    outer loop
      vertex 17.393 10.095 0
      vertex 17.253 10.178 0
      vertex 32 15.8 0
    endloop
  endfacet
  facet normal 0 0 -1
    outer loop
      vertex 16.326 10.479 0
      vertex 0 15.8 0
      vertex 16.487 10.454 0
    endloop
  endfacet
  facet normal 0 0 -1
    outer loop
      vertex 17.253 10.178 0
      vertex 17.107 10.253 0
      vertex 32 15.8 0
    endloop
  endfacet
  facet normal 0 0 -1
    outer loop
      vertex 17.107 10.253 0
      vertex 16.957 10.317 0
      vertex 32 15.8 0
    endloop
  endfacet
  facet normal 0 0 -1
    outer loop
      vertex 16.647 10.418 0
      vertex 0 15.8 0
      vertex 16.803 10.373 0
    endloop
  endfacet
  facet normal 0 0 -1
    outer loop
      vertex 16.957 10.317 0
      vertex 16.803 10.373 0
      vertex 32 15.8 0
    endloop
  endfacet
  facet normal 0 0 -1
    outer loop
      vertex 13.421 8.226 0
      vertex 0 15.8 0
      vertex 13.446 8.387 0
    endloop
  endfacet
  facet normal 0 0 -1
    outer loop
      vertex 13.405 8.063 0
      vertex 0 15.8 0
      vertex 13.421 8.226 0
    endloop
  endfacet
  facet normal 0 0 -1
    outer loop
      vertex 13.4 7.9 0
      vertex 0 15.8 0
      vertex 13.405 8.063 0
    endloop
  endfacet
  facet normal 0 0 -1
    outer loop
      vertex 15.513 5.346 0
      vertex 32 0 0
      vertex 15.353 5.382 0
    endloop
  endfacet
  facet normal -1 0 0
    outer loop
      vertex 0 13.4 4
      vertex 0 15.8 0
      vertex 0 2.4 4
    endloop
  endfacet
  facet normal -1 0 0
    outer loop
      vertex 0 0 0
      vertex 0 0 6
      vertex 0 2.4 4
    endloop
  endfacet
  facet normal -1 0 0
    outer loop
      vertex 0 0 0
      vertex 0 2.4 4
      vertex 0 15.8 0
    endloop
  endfacet
  facet normal -1 0 0
    outer loop
      vertex 0 15.8 0
      vertex 0 13.4 4
      vertex 0 13.4 6
    endloop
  endfacet
  facet normal -1 0 0
    outer loop
      vertex 0 15.8 0
      vertex 0 13.4 6
      vertex 0 15.8 6
    endloop
  endfacet
  facet normal -1 0 0
    outer loop
      vertex 0 2.4 4
      vertex 0 0 6
      vertex 0 2.4 6
    endloop
  endfacet
  facet normal 0 0 1
    outer loop
      vertex 0 2.4 6
      vertex 0 0 6
      vertex 32 0 6
    endloop
  endfacet
  facet normal 0 0 1
    outer loop
      vertex 32 3.1 6
      vertex 0 2.4 6
      vertex 32 0 6
    endloop
  endfacet
  facet normal 1 0 0
    outer loop
      vertex 32 3.1 4
      vertex 32 0 0
      vertex 32 15.8 0
    endloop
  endfacet
  facet normal 1 0 0
    outer loop
      vertex 32 3.1 4
      vertex 32 3.1 6
      vertex 32 0 6
    endloop
  endfacet
  facet normal 1 0 0
    outer loop
      vertex 32 15.8 6
      vertex 32 12.7 6
      vertex 32 15.8 0
    endloop
  endfacet
  facet normal 1 0 0
    outer loop
      vertex 32 12.7 6
      vertex 32 12.7 4
      vertex 32 15.8 0
    endloop
  endfacet
  facet normal 1 0 0
    outer loop
      vertex 32 0 6
      vertex 32 0 0
      vertex 32 3.1 4
    endloop
  endfacet
  facet normal 1 0 0
    outer loop
      vertex 32 12.7 4
      vertex 32 3.1 4
      vertex 32 15.8 0
    endloop
  endfacet
  facet normal 0 1 0
    outer loop
      vertex 0 15.8 0
      vertex 0 15.8 6
      vertex 32 15.8 0
    endloop
  endfacet
  facet normal 0 1 0
    outer loop
      vertex 32 15.8 0
      vertex 0 15.8 6
      vertex 32 15.8 6
    endloop
  endfacet
  facet normal 0.99953 0.0306604 0
    outer loop
      vertex 13.4 7.9 4
      vertex 13.405 7.737 4
      vertex 13.405 7.737 0
    endloop
  endfacet
  facet normal 0.99953 0.0306604 0
    outer loop
      vertex 13.4 7.9 0
      vertex 13.4 7.9 4
      vertex 13.405 7.737 0
    endloop
  endfacet
  facet normal 0.99953 -0.0306604 0
    outer loop
      vertex 13.405 8.063 0
      vertex 13.405 8.063 4
      vertex 13.4 7.9 4
    endloop
  endfacet
  facet normal 0.99953 -0.0306604 0
    outer loop
      vertex 13.4 7.9 0
      vertex 13.405 8.063 0
      vertex 13.4 7.9 4
    endloop
  endfacet
  facet normal 0.995217 -0.09769 0
    outer loop
      vertex 13.421 8.226 0
      vertex 13.421 8.226 4
      vertex 13.405 8.063 4
    endloop
  endfacet
  facet normal 0.995217 -0.09769 0
    outer loop
      vertex 13.405 8.063 0
      vertex 13.421 8.226 0
      vertex 13.405 8.063 4
    endloop
  endfacet
  facet normal 0.988158 -0.153441 0
    outer loop
      vertex 13.446 8.387 0
      vertex 13.446 8.387 4
      vertex 13.421 8.226 4
    endloop
  endfacet
  facet normal 0.988158 -0.153441 0
    outer loop
      vertex 13.421 8.226 0
      vertex 13.446 8.387 0
      vertex 13.421 8.226 4
    endloop
  endfacet
  facet normal 0.97561 -0.219512 0
    outer loop
      vertex 13.482 8.547 0
      vertex 13.482 8.547 4
      vertex 13.446 8.387 4
    endloop
  endfacet
  facet normal 0.97561 -0.219512 0
    outer loop
      vertex 13.446 8.387 0
      vertex 13.482 8.547 0
      vertex 13.446 8.387 4
    endloop
  endfacet
  facet normal 0.960824 -0.277161 0
    outer loop
      vertex 13.527 8.703 0
      vertex 13.527 8.703 4
      vertex 13.482 8.547 4
    endloop
  endfacet
  facet normal 0.960824 -0.277161 0
    outer loop
      vertex 13.482 8.547 0
      vertex 13.527 8.703 0
      vertex 13.482 8.547 4
    endloop
  endfacet
  facet normal 0.939793 -0.341743 0
    outer loop
      vertex 13.583 8.857 0
      vertex 13.583 8.857 4
      vertex 13.527 8.703 4
    endloop
  endfacet
  facet normal 0.939793 -0.341743 0
    outer loop
      vertex 13.527 8.703 0
      vertex 13.583 8.857 0
      vertex 13.527 8.703 4
    endloop
  endfacet
  facet normal 0.919778 -0.392439 0
    outer loop
      vertex 13.647 9.007 0
      vertex 13.647 9.007 4
      vertex 13.583 8.857 4
    endloop
  endfacet
  facet normal 0.919778 -0.392439 0
    outer loop
      vertex 13.583 8.857 0
      vertex 13.647 9.007 0
      vertex 13.583 8.857 4
    endloop
  endfacet
  facet normal 0.8895 -0.456935 0
    outer loop
      vertex 13.722 9.153 0
      vertex 13.722 9.153 4
      vertex 13.647 9.007 4
    endloop
  endfacet
  facet normal 0.8895 -0.456935 0
    outer loop
      vertex 13.647 9.007 0
      vertex 13.722 9.153 0
      vertex 13.647 9.007 4
    endloop
  endfacet
  facet normal 0.860192 -0.509971 0
    outer loop
      vertex 13.805 9.293 0
      vertex 13.805 9.293 4
      vertex 13.722 9.153 4
    endloop
  endfacet
  facet normal 0.860192 -0.509971 0
    outer loop
      vertex 13.722 9.153 0
      vertex 13.805 9.293 0
      vertex 13.722 9.153 4
    endloop
  endfacet
  facet normal 0.826357 -0.563147 0
    outer loop
      vertex 13.897 9.428 0
      vertex 13.897 9.428 4
      vertex 13.805 9.293 4
    endloop
  endfacet
  facet normal 0.826357 -0.563147 0
    outer loop
      vertex 13.805 9.293 0
      vertex 13.897 9.428 0
      vertex 13.805 9.293 4
    endloop
  endfacet
  facet normal 0.790341 -0.612667 0
    outer loop
      vertex 13.997 9.557 0
      vertex 13.997 9.557 4
      vertex 13.897 9.428 4
    endloop
  endfacet
  facet normal 0.790341 -0.612667 0
    outer loop
      vertex 13.897 9.428 0
      vertex 13.997 9.557 0
      vertex 13.897 9.428 4
    endloop
  endfacet
  facet normal 0.75144 -0.659801 0
    outer loop
      vertex 14.105 9.68 0
      vertex 14.105 9.68 4
      vertex 13.997 9.557 4
    endloop
  endfacet
  facet normal 0.75144 -0.659801 0
    outer loop
      vertex 13.997 9.557 0
      vertex 14.105 9.68 0
      vertex 13.997 9.557 4
    endloop
  endfacet
  facet normal 0.707107 -0.707107 0
    outer loop
      vertex 14.22 9.795 0
      vertex 14.22 9.795 4
      vertex 14.105 9.68 4
    endloop
  endfacet
  facet normal 0.707107 -0.707107 0
    outer loop
      vertex 14.105 9.68 0
      vertex 14.22 9.795 0
      vertex 14.105 9.68 4
    endloop
  endfacet
  facet normal 0.659801 -0.75144 0
    outer loop
      vertex 14.343 9.903 0
      vertex 14.343 9.903 4
      vertex 14.22 9.795 4
    endloop
  endfacet
  facet normal 0.659801 -0.75144 0
    outer loop
      vertex 14.22 9.795 0
      vertex 14.343 9.903 0
      vertex 14.22 9.795 4
    endloop
  endfacet
  facet normal 0.612667 -0.790341 0
    outer loop
      vertex 14.472 10.003 0
      vertex 14.472 10.003 4
      vertex 14.343 9.903 4
    endloop
  endfacet
  facet normal 0.612667 -0.790341 0
    outer loop
      vertex 14.343 9.903 0
      vertex 14.472 10.003 0
      vertex 14.343 9.903 4
    endloop
  endfacet
  facet normal 0.563147 -0.826357 0
    outer loop
      vertex 14.607 10.095 0
      vertex 14.607 10.095 4
      vertex 14.472 10.003 4
    endloop
  endfacet
  facet normal 0.563147 -0.826357 0
    outer loop
      vertex 14.472 10.003 0
      vertex 14.607 10.095 0
      vertex 14.472 10.003 4
    endloop
  endfacet
  facet normal 0.509971 -0.860192 0
    outer loop
      vertex 14.747 10.178 0
      vertex 14.747 10.178 4
      vertex 14.607 10.095 4
    endloop
  endfacet
  facet normal 0.509971 -0.860192 0
    outer loop
      vertex 14.607 10.095 0
      vertex 14.747 10.178 0
      vertex 14.607 10.095 4
    endloop
  endfacet
  facet normal 0.456935 -0.8895 0
    outer loop
      vertex 14.893 10.253 0
      vertex 14.893 10.253 4
      vertex 14.747 10.178 4
    endloop
  endfacet
  facet normal 0.456935 -0.8895 0
    outer loop
      vertex 14.747 10.178 0
      vertex 14.893 10.253 0
      vertex 14.747 10.178 4
    endloop
  endfacet
  facet normal 0.392439 -0.919778 0
    outer loop
      vertex 15.043 10.317 0
      vertex 15.043 10.317 4
      vertex 14.893 10.253 4
    endloop
  endfacet
  facet normal 0.392439 -0.919778 0
    outer loop
      vertex 14.893 10.253 0
      vertex 15.043 10.317 0
      vertex 14.893 10.253 4
    endloop
  endfacet
  facet normal 0.341743 -0.939793 0
    outer loop
      vertex 15.197 10.373 0
      vertex 15.197 10.373 4
      vertex 15.043 10.317 4
    endloop
  endfacet
  facet normal 0.341743 -0.939793 0
    outer loop
      vertex 15.043 10.317 0
      vertex 15.197 10.373 0
      vertex 15.043 10.317 4
    endloop
  endfacet
  facet normal 0.277161 -0.960824 0
    outer loop
      vertex 15.353 10.418 0
      vertex 15.353 10.418 4
      vertex 15.197 10.373 4
    endloop
  endfacet
  facet normal 0.277161 -0.960824 0
    outer loop
      vertex 15.197 10.373 0
      vertex 15.353 10.418 0
      vertex 15.197 10.373 4
    endloop
  endfacet
  facet normal 0.219512 -0.97561 0
    outer loop
      vertex 15.513 10.454 0
      vertex 15.513 10.454 4
      vertex 15.353 10.418 4
    endloop
  endfacet
  facet normal 0.219512 -0.97561 0
    outer loop
      vertex 15.353 10.418 0
      vertex 15.513 10.454 0
      vertex 15.353 10.418 4
    endloop
  endfacet
  facet normal 0.153441 -0.988158 0
    outer loop
      vertex 15.674 10.479 0
      vertex 15.674 10.479 4
      vertex 15.513 10.454 4
    endloop
  endfacet
  facet normal 0.153441 -0.988158 0
    outer loop
      vertex 15.513 10.454 0
      vertex 15.674 10.479 0
      vertex 15.513 10.454 4
    endloop
  endfacet
  facet normal 0.09769 -0.995217 0
    outer loop
      vertex 15.837 10.495 0
      vertex 15.837 10.495 4
      vertex 15.674 10.479 4
    endloop
  endfacet
  facet normal 0.09769 -0.995217 0
    outer loop
      vertex 15.674 10.479 0
      vertex 15.837 10.495 0
      vertex 15.674 10.479 4
    endloop
  endfacet
  facet normal 0.0306604 -0.99953 0
    outer loop
      vertex 16 10.5 0
      vertex 16 10.5 4
      vertex 15.837 10.495 4
    endloop
  endfacet
  facet normal 0.0306604 -0.99953 0
    outer loop
      vertex 15.837 10.495 0
      vertex 16 10.5 0
      vertex 15.837 10.495 4
    endloop
  endfacet
  facet normal -0.0306604 -0.99953 0
    outer loop
      vertex 16.163 10.495 0
      vertex 16.163 10.495 4
      vertex 16 10.5 4
    endloop
  endfacet
  facet normal -0.0306604 -0.99953 0
    outer loop
      vertex 16 10.5 0
      vertex 16.163 10.495 0
      vertex 16 10.5 4
    endloop
  endfacet
  facet normal -0.09769 -0.995217 0
    outer loop
      vertex 16.326 10.479 0
      vertex 16.326 10.479 4
      vertex 16.163 10.495 4
    endloop
  endfacet
  facet normal -0.09769 -0.995217 0
    outer loop
      vertex 16.163 10.495 0
      vertex 16.326 10.479 0
      vertex 16.163 10.495 4
    endloop
  endfacet
  facet normal -0.153441 -0.988158 0
    outer loop
      vertex 16.487 10.454 0
      vertex 16.487 10.454 4
      vertex 16.326 10.479 4
    endloop
  endfacet
  facet normal -0.153441 -0.988158 0
    outer loop
      vertex 16.326 10.479 0
      vertex 16.487 10.454 0
      vertex 16.326 10.479 4
    endloop
  endfacet
  facet normal -0.219512 -0.97561 0
    outer loop
      vertex 16.647 10.418 0
      vertex 16.647 10.418 4
      vertex 16.487 10.454 4
    endloop
  endfacet
  facet normal -0.219512 -0.97561 0
    outer loop
      vertex 16.487 10.454 0
      vertex 16.647 10.418 0
      vertex 16.487 10.454 4
    endloop
  endfacet
  facet normal -0.277161 -0.960824 0
    outer loop
      vertex 16.803 10.373 0
      vertex 16.803 10.373 4
      vertex 16.647 10.418 4
    endloop
  endfacet
  facet normal -0.277161 -0.960824 0
    outer loop
      vertex 16.647 10.418 0
      vertex 16.803 10.373 0
      vertex 16.647 10.418 4
    endloop
  endfacet
  facet normal -0.341743 -0.939793 0
    outer loop
      vertex 16.957 10.317 0
      vertex 16.957 10.317 4
      vertex 16.803 10.373 4
    endloop
  endfacet
  facet normal -0.341743 -0.939793 0
    outer loop
      vertex 16.803 10.373 0
      vertex 16.957 10.317 0
      vertex 16.803 10.373 4
    endloop
  endfacet
  facet normal -0.392439 -0.919778 0
    outer loop
      vertex 17.107 10.253 0
      vertex 17.107 10.253 4
      vertex 16.957 10.317 4
    endloop
  endfacet
  facet normal -0.392439 -0.919778 0
    outer loop
      vertex 16.957 10.317 0
      vertex 17.107 10.253 0
      vertex 16.957 10.317 4
    endloop
  endfacet
  facet normal -0.456935 -0.8895 0
    outer loop
      vertex 17.253 10.178 0
      vertex 17.253 10.178 4
      vertex 17.107 10.253 4
    endloop
  endfacet
  facet normal -0.456935 -0.8895 0
    outer loop
      vertex 17.107 10.253 0
      vertex 17.253 10.178 0
      vertex 17.107 10.253 4
    endloop
  endfacet
  facet normal -0.509971 -0.860192 0
    outer loop
      vertex 17.393 10.095 0
      vertex 17.393 10.095 4
      vertex 17.253 10.178 4
    endloop
  endfacet
  facet normal -0.509971 -0.860192 0
    outer loop
      vertex 17.253 10.178 0
      vertex 17.393 10.095 0
      vertex 17.253 10.178 4
    endloop
  endfacet
  facet normal -0.563147 -0.826357 0
    outer loop
      vertex 17.528 10.003 0
      vertex 17.528 10.003 4
      vertex 17.393 10.095 4
    endloop
  endfacet
  facet normal -0.563147 -0.826357 0
    outer loop
      vertex 17.393 10.095 0
      vertex 17.528 10.003 0
      vertex 17.393 10.095 4
    endloop
  endfacet
  facet normal -0.612667 -0.790341 0
    outer loop
      vertex 17.657 9.903 0
      vertex 17.657 9.903 4
      vertex 17.528 10.003 4
    endloop
  endfacet
  facet normal -0.612667 -0.790341 0
    outer loop
      vertex 17.528 10.003 0
      vertex 17.657 9.903 0
      vertex 17.528 10.003 4
    endloop
  endfacet
  facet normal -0.659801 -0.75144 0
    outer loop
      vertex 17.78 9.795 0
      vertex 17.78 9.795 4
      vertex 17.657 9.903 4
    endloop
  endfacet
  facet normal -0.659801 -0.75144 0
    outer loop
      vertex 17.657 9.903 0
      vertex 17.78 9.795 0
      vertex 17.657 9.903 4
    endloop
  endfacet
  facet normal -0.707107 -0.707107 0
    outer loop
      vertex 17.895 9.68 0
      vertex 17.895 9.68 4
      vertex 17.78 9.795 4
    endloop
  endfacet
  facet normal -0.707107 -0.707107 0
    outer loop
      vertex 17.78 9.795 0
      vertex 17.895 9.68 0
      vertex 17.78 9.795 4
    endloop
  endfacet
  facet normal -0.75144 -0.659801 0
    outer loop
      vertex 18.003 9.557 4
      vertex 17.895 9.68 4
      vertex 18.003 9.557 0
    endloop
  endfacet
  facet normal -0.75144 -0.659801 0
    outer loop
      vertex 18.003 9.557 0
      vertex 17.895 9.68 4
      vertex 17.895 9.68 0
    endloop
  endfacet
  facet normal -0.790341 -0.612667 0
    outer loop
      vertex 18.103 9.428 4
      vertex 18.003 9.557 4
      vertex 18.103 9.428 0
    endloop
  endfacet
  facet normal -0.790341 -0.612667 0
    outer loop
      vertex 18.103 9.428 0
      vertex 18.003 9.557 4
      vertex 18.003 9.557 0
    endloop
  endfacet
  facet normal -0.826357 -0.563147 0
    outer loop
      vertex 18.195 9.293 4
      vertex 18.103 9.428 4
      vertex 18.195 9.293 0
    endloop
  endfacet
  facet normal -0.826357 -0.563147 0
    outer loop
      vertex 18.195 9.293 0
      vertex 18.103 9.428 4
      vertex 18.103 9.428 0
    endloop
  endfacet
  facet normal -0.860192 -0.509971 0
    outer loop
      vertex 18.278 9.153 4
      vertex 18.195 9.293 4
      vertex 18.278 9.153 0
    endloop
  endfacet
  facet normal -0.860192 -0.509971 0
    outer loop
      vertex 18.278 9.153 0
      vertex 18.195 9.293 4
      vertex 18.195 9.293 0
    endloop
  endfacet
  facet normal -0.8895 -0.456935 0
    outer loop
      vertex 18.353 9.007 4
      vertex 18.278 9.153 4
      vertex 18.353 9.007 0
    endloop
  endfacet
  facet normal -0.8895 -0.456935 0
    outer loop
      vertex 18.353 9.007 0
      vertex 18.278 9.153 4
      vertex 18.278 9.153 0
    endloop
  endfacet
  facet normal -0.919778 -0.392439 0
    outer loop
      vertex 18.417 8.857 4
      vertex 18.353 9.007 4
      vertex 18.417 8.857 0
    endloop
  endfacet
  facet normal -0.919778 -0.392439 0
    outer loop
      vertex 18.417 8.857 0
      vertex 18.353 9.007 4
      vertex 18.353 9.007 0
    endloop
  endfacet
  facet normal -0.939793 -0.341743 0
    outer loop
      vertex 18.473 8.703 4
      vertex 18.417 8.857 4
      vertex 18.473 8.703 0
    endloop
  endfacet
  facet normal -0.939793 -0.341743 0
    outer loop
      vertex 18.473 8.703 0
      vertex 18.417 8.857 4
      vertex 18.417 8.857 0
    endloop
  endfacet
  facet normal -0.960824 -0.277161 0
    outer loop
      vertex 18.518 8.547 4
      vertex 18.473 8.703 4
      vertex 18.518 8.547 0
    endloop
  endfacet
  facet normal -0.960824 -0.277161 0
    outer loop
      vertex 18.518 8.547 0
      vertex 18.473 8.703 4
      vertex 18.473 8.703 0
    endloop
  endfacet
  facet normal -0.97561 -0.219512 0
    outer loop
      vertex 18.554 8.387 4
      vertex 18.518 8.547 4
      vertex 18.554 8.387 0
    endloop
  endfacet
  facet normal -0.97561 -0.219512 0
    outer loop
      vertex 18.554 8.387 0
      vertex 18.518 8.547 4
      vertex 18.518 8.547 0
    endloop
  endfacet
  facet normal -0.988158 -0.153441 0
    outer loop
      vertex 18.579 8.226 4
      vertex 18.554 8.387 4
      vertex 18.579 8.226 0
    endloop
  endfacet
  facet normal -0.988158 -0.153441 0
    outer loop
      vertex 18.579 8.226 0
      vertex 18.554 8.387 4
      vertex 18.554 8.387 0
    endloop
  endfacet
  facet normal -0.995217 -0.09769 0
    outer loop
      vertex 18.595 8.063 4
      vertex 18.579 8.226 4
      vertex 18.595 8.063 0
    endloop
  endfacet
  facet normal -0.995217 -0.09769 0
    outer loop
      vertex 18.595 8.063 0
      vertex 18.579 8.226 4
      vertex 18.579 8.226 0
    endloop
  endfacet
  facet normal -0.99953 -0.0306604 0
    outer loop
      vertex 18.6 7.9 4
      vertex 18.595 8.063 4
      vertex 18.6 7.9 0
    endloop
  endfacet
  facet normal -0.99953 -0.0306604 0
    outer loop
      vertex 18.6 7.9 0
      vertex 18.595 8.063 4
      vertex 18.595 8.063 0
    endloop
  endfacet
  facet normal -0.99953 0.0306604 0
    outer loop
      vertex 18.6 7.9 4
      vertex 18.6 7.9 0
      vertex 18.595 7.737 4
    endloop
  endfacet
  facet normal -0.99953 0.0306604 0
    outer loop
      vertex 18.595 7.737 4
      vertex 18.6 7.9 0
      vertex 18.595 7.737 0
    endloop
  endfacet
  facet normal -0.995217 0.09769 0
    outer loop
      vertex 18.595 7.737 4
      vertex 18.595 7.737 0
      vertex 18.579 7.574 4
    endloop
  endfacet
  facet normal -0.995217 0.09769 0
    outer loop
      vertex 18.579 7.574 4
      vertex 18.595 7.737 0
      vertex 18.579 7.574 0
    endloop
  endfacet
  facet normal -0.988158 0.153441 0
    outer loop
      vertex 18.579 7.574 4
      vertex 18.579 7.574 0
      vertex 18.554 7.413 4
    endloop
  endfacet
  facet normal -0.988158 0.153441 0
    outer loop
      vertex 18.554 7.413 4
      vertex 18.579 7.574 0
      vertex 18.554 7.413 0
    endloop
  endfacet
  facet normal -0.97561 0.219512 0
    outer loop
      vertex 18.554 7.413 4
      vertex 18.554 7.413 0
      vertex 18.518 7.253 4
    endloop
  endfacet
  facet normal -0.97561 0.219512 0
    outer loop
      vertex 18.518 7.253 4
      vertex 18.554 7.413 0
      vertex 18.518 7.253 0
    endloop
  endfacet
  facet normal -0.960824 0.277161 0
    outer loop
      vertex 18.518 7.253 4
      vertex 18.518 7.253 0
      vertex 18.473 7.097 4
    endloop
  endfacet
  facet normal -0.960824 0.277161 0
    outer loop
      vertex 18.473 7.097 4
      vertex 18.518 7.253 0
      vertex 18.473 7.097 0
    endloop
  endfacet
  facet normal -0.939793 0.341743 0
    outer loop
      vertex 18.473 7.097 4
      vertex 18.473 7.097 0
      vertex 18.417 6.943 4
    endloop
  endfacet
  facet normal -0.939793 0.341743 0
    outer loop
      vertex 18.417 6.943 4
      vertex 18.473 7.097 0
      vertex 18.417 6.943 0
    endloop
  endfacet
  facet normal -0.919778 0.392439 0
    outer loop
      vertex 18.417 6.943 4
      vertex 18.417 6.943 0
      vertex 18.353 6.793 4
    endloop
  endfacet
  facet normal -0.919778 0.392439 0
    outer loop
      vertex 18.353 6.793 4
      vertex 18.417 6.943 0
      vertex 18.353 6.793 0
    endloop
  endfacet
  facet normal -0.8895 0.456935 0
    outer loop
      vertex 18.353 6.793 4
      vertex 18.353 6.793 0
      vertex 18.278 6.647 4
    endloop
  endfacet
  facet normal -0.8895 0.456935 0
    outer loop
      vertex 18.278 6.647 4
      vertex 18.353 6.793 0
      vertex 18.278 6.647 0
    endloop
  endfacet
  facet normal -0.860192 0.509971 0
    outer loop
      vertex 18.278 6.647 4
      vertex 18.278 6.647 0
      vertex 18.195 6.507 4
    endloop
  endfacet
  facet normal -0.860192 0.509971 0
    outer loop
      vertex 18.195 6.507 4
      vertex 18.278 6.647 0
      vertex 18.195 6.507 0
    endloop
  endfacet
  facet normal -0.826357 0.563147 0
    outer loop
      vertex 18.195 6.507 4
      vertex 18.195 6.507 0
      vertex 18.103 6.372 4
    endloop
  endfacet
  facet normal -0.826357 0.563147 0
    outer loop
      vertex 18.103 6.372 4
      vertex 18.195 6.507 0
      vertex 18.103 6.372 0
    endloop
  endfacet
  facet normal -0.790341 0.612667 0
    outer loop
      vertex 18.103 6.372 4
      vertex 18.103 6.372 0
      vertex 18.003 6.243 4
    endloop
  endfacet
  facet normal -0.790341 0.612667 0
    outer loop
      vertex 18.003 6.243 4
      vertex 18.103 6.372 0
      vertex 18.003 6.243 0
    endloop
  endfacet
  facet normal -0.75144 0.659801 0
    outer loop
      vertex 18.003 6.243 4
      vertex 18.003 6.243 0
      vertex 17.895 6.12 4
    endloop
  endfacet
  facet normal -0.75144 0.659801 0
    outer loop
      vertex 17.895 6.12 4
      vertex 18.003 6.243 0
      vertex 17.895 6.12 0
    endloop
  endfacet
  facet normal -0.707107 0.707107 0
    outer loop
      vertex 17.895 6.12 4
      vertex 17.895 6.12 0
      vertex 17.78 6.005 4
    endloop
  endfacet
  facet normal -0.707107 0.707107 0
    outer loop
      vertex 17.78 6.005 4
      vertex 17.895 6.12 0
      vertex 17.78 6.005 0
    endloop
  endfacet
  facet normal -0.659801 0.75144 0
    outer loop
      vertex 17.78 6.005 4
      vertex 17.78 6.005 0
      vertex 17.657 5.897 4
    endloop
  endfacet
  facet normal -0.659801 0.75144 0
    outer loop
      vertex 17.657 5.897 4
      vertex 17.78 6.005 0
      vertex 17.657 5.897 0
    endloop
  endfacet
  facet normal -0.612667 0.790341 0
    outer loop
      vertex 17.657 5.897 4
      vertex 17.657 5.897 0
      vertex 17.528 5.797 4
    endloop
  endfacet
  facet normal -0.612667 0.790341 0
    outer loop
      vertex 17.528 5.797 4
      vertex 17.657 5.897 0
      vertex 17.528 5.797 0
    endloop
  endfacet
  facet normal -0.563147 0.826357 0
    outer loop
      vertex 17.528 5.797 4
      vertex 17.528 5.797 0
      vertex 17.393 5.705 4
    endloop
  endfacet
  facet normal -0.563147 0.826357 0
    outer loop
      vertex 17.393 5.705 4
      vertex 17.528 5.797 0
      vertex 17.393 5.705 0
    endloop
  endfacet
  facet normal -0.509971 0.860192 0
    outer loop
      vertex 17.393 5.705 4
      vertex 17.393 5.705 0
      vertex 17.253 5.622 4
    endloop
  endfacet
  facet normal -0.509971 0.860192 0
    outer loop
      vertex 17.253 5.622 4
      vertex 17.393 5.705 0
      vertex 17.253 5.622 0
    endloop
  endfacet
  facet normal -0.456935 0.8895 0
    outer loop
      vertex 17.253 5.622 4
      vertex 17.253 5.622 0
      vertex 17.107 5.547 4
    endloop
  endfacet
  facet normal -0.456935 0.8895 0
    outer loop
      vertex 17.107 5.547 4
      vertex 17.253 5.622 0
      vertex 17.107 5.547 0
    endloop
  endfacet
  facet normal -0.392439 0.919778 0
    outer loop
      vertex 17.107 5.547 4
      vertex 17.107 5.547 0
      vertex 16.957 5.483 4
    endloop
  endfacet
  facet normal -0.392439 0.919778 0
    outer loop
      vertex 16.957 5.483 4
      vertex 17.107 5.547 0
      vertex 16.957 5.483 0
    endloop
  endfacet
  facet normal -0.341743 0.939793 0
    outer loop
      vertex 16.957 5.483 4
      vertex 16.957 5.483 0
      vertex 16.803 5.427 4
    endloop
  endfacet
  facet normal -0.341743 0.939793 0
    outer loop
      vertex 16.803 5.427 4
      vertex 16.957 5.483 0
      vertex 16.803 5.427 0
    endloop
  endfacet
  facet normal -0.277161 0.960824 0
    outer loop
      vertex 16.803 5.427 4
      vertex 16.803 5.427 0
      vertex 16.647 5.382 4
    endloop
  endfacet
  facet normal -0.277161 0.960824 0
    outer loop
      vertex 16.647 5.382 4
      vertex 16.803 5.427 0
      vertex 16.647 5.382 0
    endloop
  endfacet
  facet normal -0.219512 0.97561 0
    outer loop
      vertex 16.647 5.382 4
      vertex 16.647 5.382 0
      vertex 16.487 5.346 4
    endloop
  endfacet
  facet normal -0.219512 0.97561 0
    outer loop
      vertex 16.487 5.346 4
      vertex 16.647 5.382 0
      vertex 16.487 5.346 0
    endloop
  endfacet
  facet normal -0.153441 0.988158 0
    outer loop
      vertex 16.487 5.346 4
      vertex 16.487 5.346 0
      vertex 16.326 5.321 4
    endloop
  endfacet
  facet normal -0.153441 0.988158 0
    outer loop
      vertex 16.326 5.321 4
      vertex 16.487 5.346 0
      vertex 16.326 5.321 0
    endloop
  endfacet
  facet normal -0.09769 0.995217 0
    outer loop
      vertex 16.326 5.321 4
      vertex 16.326 5.321 0
      vertex 16.163 5.305 4
    endloop
  endfacet
  facet normal -0.09769 0.995217 0
    outer loop
      vertex 16.163 5.305 4
      vertex 16.326 5.321 0
      vertex 16.163 5.305 0
    endloop
  endfacet
  facet normal -0.0306604 0.99953 0
    outer loop
      vertex 16.163 5.305 4
      vertex 16.163 5.305 0
      vertex 16 5.3 4
    endloop
  endfacet
  facet normal -0.0306604 0.99953 0
    outer loop
      vertex 16 5.3 4
      vertex 16.163 5.305 0
      vertex 16 5.3 0
    endloop
  endfacet
  facet normal 0.0306604 0.99953 0
    outer loop
      vertex 16 5.3 4
      vertex 16 5.3 0
      vertex 15.837 5.305 4
    endloop
  endfacet
  facet normal 0.0306604 0.99953 0
    outer loop
      vertex 15.837 5.305 4
      vertex 16 5.3 0
      vertex 15.837 5.305 0
    endloop
  endfacet
  facet normal 0.09769 0.995217 0
    outer loop
      vertex 15.837 5.305 4
      vertex 15.837 5.305 0
      vertex 15.674 5.321 4
    endloop
  endfacet
  facet normal 0.09769 0.995217 0
    outer loop
      vertex 15.674 5.321 4
      vertex 15.837 5.305 0
      vertex 15.674 5.321 0
    endloop
  endfacet
  facet normal 0.153441 0.988158 0
    outer loop
      vertex 15.674 5.321 4
      vertex 15.674 5.321 0
      vertex 15.513 5.346 4
    endloop
  endfacet
  facet normal 0.153441 0.988158 0
    outer loop
      vertex 15.513 5.346 4
      vertex 15.674 5.321 0
      vertex 15.513 5.346 0
    endloop
  endfacet
  facet normal 0.219512 0.97561 0
    outer loop
      vertex 15.513 5.346 4
      vertex 15.513 5.346 0
      vertex 15.353 5.382 4
    endloop
  endfacet
  facet normal 0.219512 0.97561 0
    outer loop
      vertex 15.353 5.382 4
      vertex 15.513 5.346 0
      vertex 15.353 5.382 0
    endloop
  endfacet
  facet normal 0.277161 0.960824 0
    outer loop
      vertex 15.353 5.382 4
      vertex 15.353 5.382 0
      vertex 15.197 5.427 4
    endloop
  endfacet
  facet normal 0.277161 0.960824 0
    outer loop
      vertex 15.197 5.427 4
      vertex 15.353 5.382 0
      vertex 15.197 5.427 0
    endloop
  endfacet
  facet normal 0.341743 0.939793 0
    outer loop
      vertex 15.197 5.427 4
      vertex 15.197 5.427 0
      vertex 15.043 5.483 4
    endloop
  endfacet
  facet normal 0.341743 0.939793 0
    outer loop
      vertex 15.043 5.483 4
      vertex 15.197 5.427 0
      vertex 15.043 5.483 0
    endloop
  endfacet
  facet normal 0.392439 0.919778 0
    outer loop
      vertex 15.043 5.483 4
      vertex 15.043 5.483 0
      vertex 14.893 5.547 4
    endloop
  endfacet
  facet normal 0.392439 0.919778 0
    outer loop
      vertex 14.893 5.547 4
      vertex 15.043 5.483 0
      vertex 14.893 5.547 0
    endloop
  endfacet
  facet normal 0.456935 0.8895 0
    outer loop
      vertex 14.893 5.547 4
      vertex 14.893 5.547 0
      vertex 14.747 5.622 4
    endloop
  endfacet
  facet normal 0.456935 0.8895 0
    outer loop
      vertex 14.747 5.622 4
      vertex 14.893 5.547 0
      vertex 14.747 5.622 0
    endloop
  endfacet
  facet normal 0.509971 0.860192 0
    outer loop
      vertex 14.747 5.622 4
      vertex 14.747 5.622 0
      vertex 14.607 5.705 4
    endloop
  endfacet
  facet normal 0.509971 0.860192 0
    outer loop
      vertex 14.607 5.705 4
      vertex 14.747 5.622 0
      vertex 14.607 5.705 0
    endloop
  endfacet
  facet normal 0.563147 0.826357 0
    outer loop
      vertex 14.607 5.705 4
      vertex 14.607 5.705 0
      vertex 14.472 5.797 4
    endloop
  endfacet
  facet normal 0.563147 0.826357 0
    outer loop
      vertex 14.472 5.797 4
      vertex 14.607 5.705 0
      vertex 14.472 5.797 0
    endloop
  endfacet
  facet normal 0.612667 0.790341 0
    outer loop
      vertex 14.472 5.797 4
      vertex 14.472 5.797 0
      vertex 14.343 5.897 4
    endloop
  endfacet
  facet normal 0.612667 0.790341 0
    outer loop
      vertex 14.343 5.897 4
      vertex 14.472 5.797 0
      vertex 14.343 5.897 0
    endloop
  endfacet
  facet normal 0.659801 0.75144 0
    outer loop
      vertex 14.343 5.897 4
      vertex 14.343 5.897 0
      vertex 14.22 6.005 4
    endloop
  endfacet
  facet normal 0.659801 0.75144 0
    outer loop
      vertex 14.22 6.005 4
      vertex 14.343 5.897 0
      vertex 14.22 6.005 0
    endloop
  endfacet
  facet normal 0.707107 0.707107 0
    outer loop
      vertex 14.22 6.005 4
      vertex 14.22 6.005 0
      vertex 14.105 6.12 4
    endloop
  endfacet
  facet normal 0.707107 0.707107 0
    outer loop
      vertex 14.105 6.12 4
      vertex 14.22 6.005 0
      vertex 14.105 6.12 0
    endloop
  endfacet
  facet normal 0.75144 0.659801 0
    outer loop
      vertex 13.997 6.243 4
      vertex 14.105 6.12 4
      vertex 14.105 6.12 0
    endloop
  endfacet
  facet normal 0.75144 0.659801 0
    outer loop
      vertex 13.997 6.243 0
      vertex 13.997 6.243 4
      vertex 14.105 6.12 0
    endloop
  endfacet
  facet normal 0.790341 0.612667 0
    outer loop
      vertex 13.897 6.372 4
      vertex 13.997 6.243 4
      vertex 13.997 6.243 0
    endloop
  endfacet
  facet normal 0.790341 0.612667 0
    outer loop
      vertex 13.897 6.372 0
      vertex 13.897 6.372 4
      vertex 13.997 6.243 0
    endloop
  endfacet
  facet normal 0.826357 0.563147 0
    outer loop
      vertex 13.805 6.507 4
      vertex 13.897 6.372 4
      vertex 13.897 6.372 0
    endloop
  endfacet
  facet normal 0.826357 0.563147 0
    outer loop
      vertex 13.805 6.507 0
      vertex 13.805 6.507 4
      vertex 13.897 6.372 0
    endloop
  endfacet
  facet normal 0.860192 0.509971 0
    outer loop
      vertex 13.722 6.647 4
      vertex 13.805 6.507 4
      vertex 13.805 6.507 0
    endloop
  endfacet
  facet normal 0.860192 0.509971 0
    outer loop
      vertex 13.722 6.647 0
      vertex 13.722 6.647 4
      vertex 13.805 6.507 0
    endloop
  endfacet
  facet normal 0.8895 0.456935 0
    outer loop
      vertex 13.647 6.793 4
      vertex 13.722 6.647 4
      vertex 13.722 6.647 0
    endloop
  endfacet
  facet normal 0.8895 0.456935 0
    outer loop
      vertex 13.647 6.793 0
      vertex 13.647 6.793 4
      vertex 13.722 6.647 0
    endloop
  endfacet
  facet normal 0.919778 0.392439 0
    outer loop
      vertex 13.583 6.943 4
      vertex 13.647 6.793 4
      vertex 13.647 6.793 0
    endloop
  endfacet
  facet normal 0.919778 0.392439 0
    outer loop
      vertex 13.583 6.943 0
      vertex 13.583 6.943 4
      vertex 13.647 6.793 0
    endloop
  endfacet
  facet normal 0.939793 0.341743 0
    outer loop
      vertex 13.527 7.097 4
      vertex 13.583 6.943 4
      vertex 13.583 6.943 0
    endloop
  endfacet
  facet normal 0.939793 0.341743 0
    outer loop
      vertex 13.527 7.097 0
      vertex 13.527 7.097 4
      vertex 13.583 6.943 0
    endloop
  endfacet
  facet normal 0.960824 0.277161 0
    outer loop
      vertex 13.482 7.253 4
      vertex 13.527 7.097 4
      vertex 13.527 7.097 0
    endloop
  endfacet
  facet normal 0.960824 0.277161 0
    outer loop
      vertex 13.482 7.253 0
      vertex 13.482 7.253 4
      vertex 13.527 7.097 0
    endloop
  endfacet
  facet normal 0.97561 0.219512 0
    outer loop
      vertex 13.446 7.413 4
      vertex 13.482 7.253 4
      vertex 13.482 7.253 0
    endloop
  endfacet
  facet normal 0.97561 0.219512 0
    outer loop
      vertex 13.446 7.413 0
      vertex 13.446 7.413 4
      vertex 13.482 7.253 0
    endloop
  endfacet
  facet normal 0.988158 0.153441 0
    outer loop
      vertex 13.421 7.574 4
      vertex 13.446 7.413 4
      vertex 13.446 7.413 0
    endloop
  endfacet
  facet normal 0.988158 0.153441 0
    outer loop
      vertex 13.421 7.574 0
      vertex 13.421 7.574 4
      vertex 13.446 7.413 0
    endloop
  endfacet
  facet normal 0.995217 0.09769 0
    outer loop
      vertex 13.405 7.737 4
      vertex 13.421 7.574 4
      vertex 13.421 7.574 0
    endloop
  endfacet
  facet normal 0.995217 0.09769 0
    outer loop
      vertex 13.405 7.737 0
      vertex 13.405 7.737 4
      vertex 13.421 7.574 0
    endloop
  endfacet
  facet normal 0 0 1
    outer loop
      vertex 0 15.8 6
      vertex 0 13.4 6
      vertex 32 12.7 6
    endloop
  endfacet
  facet normal 0 0 1
    outer loop
      vertex 32 15.8 6
      vertex 0 15.8 6
      vertex 32 12.7 6
    endloop
  endfacet
  facet normal -0.0218698 -0.999761 0
    outer loop
      vertex 32 12.7 4
      vertex 32 12.7 6
      vertex 0 13.4 6
    endloop
  endfacet
  facet normal -0.0218698 -0.999761 0
    outer loop
      vertex 0 13.4 4
      vertex 32 12.7 4
      vertex 0 13.4 6
    endloop
  endfacet
  facet normal 0 0 1
    outer loop
      vertex 15.674 10.479 4
      vertex 32 12.7 4
      vertex 0 13.4 4
    endloop
  endfacet
  facet normal 0 0 1
    outer loop
      vertex 15.674 10.479 4
      vertex 15.837 10.495 4
      vertex 32 12.7 4
    endloop
  endfacet
  facet normal 0 0 1
    outer loop
      vertex 0 2.4 4
      vertex 13.4 7.9 4
      vertex 0 13.4 4
    endloop
  endfacet
  facet normal 0 0 1
    outer loop
      vertex 13.4 7.9 4
      vertex 13.405 8.063 4
      vertex 0 13.4 4
    endloop
  endfacet
  facet normal 0 0 1
    outer loop
      vertex 13.405 8.063 4
      vertex 13.421 8.226 4
      vertex 0 13.4 4
    endloop
  endfacet
  facet normal 0 0 1
    outer loop
      vertex 13.421 8.226 4
      vertex 13.446 8.387 4
      vertex 0 13.4 4
    endloop
  endfacet
  facet normal 0 0 1
    outer loop
      vertex 13.446 8.387 4
      vertex 13.482 8.547 4
      vertex 0 13.4 4
    endloop
  endfacet
  facet normal 0 0 1
    outer loop
      vertex 18.417 6.943 4
      vertex 18.353 6.793 4
      vertex 32 3.1 4
    endloop
  endfacet
  facet normal 0 0 1
    outer loop
      vertex 13.482 8.547 4
      vertex 13.527 8.703 4
      vertex 0 13.4 4
    endloop
  endfacet
  facet normal 0 0 1
    outer loop
      vertex 13.527 8.703 4
      vertex 13.583 8.857 4
      vertex 0 13.4 4
    endloop
  endfacet
  facet normal 0 0 1
    outer loop
      vertex 13.583 8.857 4
      vertex 13.647 9.007 4
      vertex 0 13.4 4
    endloop
  endfacet
  facet normal 0 0 1
    outer loop
      vertex 13.722 9.153 4
      vertex 13.805 9.293 4
      vertex 0 13.4 4
    endloop
  endfacet
  facet normal 0 0 1
    outer loop
      vertex 13.805 9.293 4
      vertex 13.897 9.428 4
      vertex 0 13.4 4
    endloop
  endfacet
  facet normal 0 0 1
    outer loop
      vertex 13.897 9.428 4
      vertex 13.997 9.557 4
      vertex 0 13.4 4
    endloop
  endfacet
  facet normal 0 0 1
    outer loop
      vertex 13.997 9.557 4
      vertex 14.105 9.68 4
      vertex 0 13.4 4
    endloop
  endfacet
  facet normal 0 0 1
    outer loop
      vertex 14.105 9.68 4
      vertex 14.22 9.795 4
      vertex 0 13.4 4
    endloop
  endfacet
  facet normal 0 0 1
    outer loop
      vertex 14.22 9.795 4
      vertex 14.343 9.903 4
      vertex 0 13.4 4
    endloop
  endfacet
  facet normal 0 0 1
    outer loop
      vertex 14.343 9.903 4
      vertex 14.472 10.003 4
      vertex 0 13.4 4
    endloop
  endfacet
  facet normal 0 0 1
    outer loop
      vertex 16.957 10.317 4
      vertex 17.107 10.253 4
      vertex 32 12.7 4
    endloop
  endfacet
  facet normal 0 0 1
    outer loop
      vertex 14.472 10.003 4
      vertex 14.607 10.095 4
      vertex 0 13.4 4
    endloop
  endfacet
  facet normal 0 0 1
    outer loop
      vertex 14.607 10.095 4
      vertex 14.747 10.178 4
      vertex 0 13.4 4
    endloop
  endfacet
  facet normal 0 0 1
    outer loop
      vertex 14.747 10.178 4
      vertex 14.893 10.253 4
      vertex 0 13.4 4
    endloop
  endfacet
  facet normal 0 0 1
    outer loop
      vertex 14.893 10.253 4
      vertex 15.043 10.317 4
      vertex 0 13.4 4
    endloop
  endfacet
  facet normal 0 0 1
    outer loop
      vertex 15.043 10.317 4
      vertex 15.197 10.373 4
      vertex 0 13.4 4
    endloop
  endfacet
  facet normal 0 0 1
    outer loop
      vertex 15.197 10.373 4
      vertex 15.353 10.418 4
      vertex 0 13.4 4
    endloop
  endfacet
  facet normal 0 0 1
    outer loop
      vertex 15.353 10.418 4
      vertex 15.513 10.454 4
      vertex 0 13.4 4
    endloop
  endfacet
  facet normal 0 0 1
    outer loop
      vertex 15.513 10.454 4
      vertex 15.674 10.479 4
      vertex 0 13.4 4
    endloop
  endfacet
  facet normal 0 0 1
    outer loop
      vertex 15.837 10.495 4
      vertex 16 10.5 4
      vertex 32 12.7 4
    endloop
  endfacet
  facet normal 0 0 1
    outer loop
      vertex 16 10.5 4
      vertex 16.163 10.495 4
      vertex 32 12.7 4
    endloop
  endfacet
  facet normal 0 0 1
    outer loop
      vertex 16.163 10.495 4
      vertex 16.326 10.479 4
      vertex 32 12.7 4
    endloop
  endfacet
  facet normal 0 0 1
    outer loop
      vertex 16.326 10.479 4
      vertex 16.487 10.454 4
      vertex 32 12.7 4
    endloop
  endfacet
  facet normal 0 0 1
    outer loop
      vertex 16.487 10.454 4
      vertex 16.647 10.418 4
      vertex 32 12.7 4
    endloop
  endfacet
  facet normal 0 0 1
    outer loop
      vertex 16.647 10.418 4
      vertex 16.803 10.373 4
      vertex 32 12.7 4
    endloop
  endfacet
  facet normal 0 0 1
    outer loop
      vertex 17.528 10.003 4
      vertex 17.657 9.903 4
      vertex 32 12.7 4
    endloop
  endfacet
  facet normal 0 0 1
    outer loop
      vertex 17.107 10.253 4
      vertex 17.253 10.178 4
      vertex 32 12.7 4
    endloop
  endfacet
  facet normal 0 0 1
    outer loop
      vertex 17.253 10.178 4
      vertex 17.393 10.095 4
      vertex 32 12.7 4
    endloop
  endfacet
  facet normal 0 0 1
    outer loop
      vertex 17.393 10.095 4
      vertex 17.528 10.003 4
      vertex 32 12.7 4
    endloop
  endfacet
  facet normal 0 0 1
    outer loop
      vertex 18.579 7.574 4
      vertex 18.554 7.413 4
      vertex 32 3.1 4
    endloop
  endfacet
  facet normal 0 0 1
    outer loop
      vertex 32 3.1 4
      vertex 32 12.7 4
      vertex 17.657 9.903 4
    endloop
  endfacet
  facet normal 0 0 1
    outer loop
      vertex 32 3.1 4
      vertex 17.657 9.903 4
      vertex 17.78 9.795 4
    endloop
  endfacet
  facet normal 0 0 1
    outer loop
      vertex 32 3.1 4
      vertex 17.78 9.795 4
      vertex 17.895 9.68 4
    endloop
  endfacet
  facet normal 0 0 1
    outer loop
      vertex 32 3.1 4
      vertex 17.895 9.68 4
      vertex 18.003 9.557 4
    endloop
  endfacet
  facet normal 0 0 1
    outer loop
      vertex 32 3.1 4
      vertex 18.003 9.557 4
      vertex 18.103 9.428 4
    endloop
  endfacet
  facet normal 0 0 1
    outer loop
      vertex 32 3.1 4
      vertex 18.103 9.428 4
      vertex 18.195 9.293 4
    endloop
  endfacet
  facet normal 0 0 1
    outer loop
      vertex 32 3.1 4
      vertex 18.195 9.293 4
      vertex 18.278 9.153 4
    endloop
  endfacet
  facet normal 0 0 1
    outer loop
      vertex 32 3.1 4
      vertex 18.278 9.153 4
      vertex 18.353 9.007 4
    endloop
  endfacet
  facet normal 0 0 1
    outer loop
      vertex 32 3.1 4
      vertex 18.353 9.007 4
      vertex 18.417 8.857 4
    endloop
  endfacet
  facet normal 0 0 1
    outer loop
      vertex 32 3.1 4
      vertex 18.417 8.857 4
      vertex 18.473 8.703 4
    endloop
  endfacet
  facet normal 0 0 1
    outer loop
      vertex 32 3.1 4
      vertex 18.473 8.703 4
      vertex 18.518 8.547 4
    endloop
  endfacet
  facet normal 0 0 1
    outer loop
      vertex 32 3.1 4
      vertex 18.518 8.547 4
      vertex 18.554 8.387 4
    endloop
  endfacet
  facet normal 0 0 1
    outer loop
      vertex 32 3.1 4
      vertex 18.554 8.387 4
      vertex 18.579 8.226 4
    endloop
  endfacet
  facet normal 0 0 1
    outer loop
      vertex 32 3.1 4
      vertex 18.579 8.226 4
      vertex 18.595 8.063 4
    endloop
  endfacet
  facet normal 0 0 1
    outer loop
      vertex 32 3.1 4
      vertex 18.595 8.063 4
      vertex 18.6 7.9 4
    endloop
  endfacet
  facet normal 0 0 1
    outer loop
      vertex 32 3.1 4
      vertex 18.6 7.9 4
      vertex 18.595 7.737 4
    endloop
  endfacet
  facet normal 0 0 1
    outer loop
      vertex 18.473 7.097 4
      vertex 18.417 6.943 4
      vertex 32 3.1 4
    endloop
  endfacet
  facet normal 0 0 1
    outer loop
      vertex 32 3.1 4
      vertex 18.595 7.737 4
      vertex 18.579 7.574 4
    endloop
  endfacet
  facet normal 0 0 1
    outer loop
      vertex 18.518 7.253 4
      vertex 18.473 7.097 4
      vertex 32 3.1 4
    endloop
  endfacet
  facet normal 0 0 1
    outer loop
      vertex 15.513 5.346 4
      vertex 15.353 5.382 4
      vertex 0 2.4 4
    endloop
  endfacet
  facet normal 0 0 1
    outer loop
      vertex 18.353 6.793 4
      vertex 18.278 6.647 4
      vertex 32 3.1 4
    endloop
  endfacet
  facet normal 0 0 1
    outer loop
      vertex 18.278 6.647 4
      vertex 18.195 6.507 4
      vertex 32 3.1 4
    endloop
  endfacet
  facet normal 0 0 1
    outer loop
      vertex 16.326 5.321 4
      vertex 16.163 5.305 4
      vertex 0 2.4 4
    endloop
  endfacet
  facet normal 0 0 1
    outer loop
      vertex 18.103 6.372 4
      vertex 32 3.1 4
      vertex 18.195 6.507 4
    endloop
  endfacet
  facet normal 0 0 1
    outer loop
      vertex 18.003 6.243 4
      vertex 32 3.1 4
      vertex 18.103 6.372 4
    endloop
  endfacet
  facet normal 0 0 1
    outer loop
      vertex 17.895 6.12 4
      vertex 32 3.1 4
      vertex 18.003 6.243 4
    endloop
  endfacet
  facet normal 0 0 1
    outer loop
      vertex 17.78 6.005 4
      vertex 32 3.1 4
      vertex 17.895 6.12 4
    endloop
  endfacet
  facet normal 0 0 1
    outer loop
      vertex 17.657 5.897 4
      vertex 32 3.1 4
      vertex 17.78 6.005 4
    endloop
  endfacet
  facet normal 0 0 1
    outer loop
      vertex 17.528 5.797 4
      vertex 32 3.1 4
      vertex 17.657 5.897 4
    endloop
  endfacet
  facet normal 0 0 1
    outer loop
      vertex 17.393 5.705 4
      vertex 32 3.1 4
      vertex 17.528 5.797 4
    endloop
  endfacet
  facet normal 0 0 1
    outer loop
      vertex 15.353 5.382 4
      vertex 15.197 5.427 4
      vertex 0 2.4 4
    endloop
  endfacet
  facet normal 0 0 1
    outer loop
      vertex 17.253 5.622 4
      vertex 32 3.1 4
      vertex 17.393 5.705 4
    endloop
  endfacet
  facet normal 0 0 1
    outer loop
      vertex 17.107 5.547 4
      vertex 32 3.1 4
      vertex 17.253 5.622 4
    endloop
  endfacet
  facet normal 0 0 1
    outer loop
      vertex 16.957 5.483 4
      vertex 32 3.1 4
      vertex 17.107 5.547 4
    endloop
  endfacet
  facet normal 0 0 1
    outer loop
      vertex 16.803 5.427 4
      vertex 32 3.1 4
      vertex 16.957 5.483 4
    endloop
  endfacet
  facet normal 0 0 1
    outer loop
      vertex 16.647 5.382 4
      vertex 32 3.1 4
      vertex 16.803 5.427 4
    endloop
  endfacet
  facet normal 0 0 1
    outer loop
      vertex 16.487 5.346 4
      vertex 32 3.1 4
      vertex 16.647 5.382 4
    endloop
  endfacet
  facet normal 0 0 1
    outer loop
      vertex 0 2.4 4
      vertex 32 3.1 4
      vertex 16.487 5.346 4
    endloop
  endfacet
  facet normal 0 0 1
    outer loop
      vertex 16.163 5.305 4
      vertex 16 5.3 4
      vertex 0 2.4 4
    endloop
  endfacet
  facet normal 0 0 1
    outer loop
      vertex 0 2.4 4
      vertex 16.487 5.346 4
      vertex 16.326 5.321 4
    endloop
  endfacet
  facet normal 0 0 1
    outer loop
      vertex 16 5.3 4
      vertex 15.837 5.305 4
      vertex 0 2.4 4
    endloop
  endfacet
  facet normal 0 0 1
    outer loop
      vertex 15.837 5.305 4
      vertex 15.674 5.321 4
      vertex 0 2.4 4
    endloop
  endfacet
  facet normal 0 0 1
    outer loop
      vertex 15.674 5.321 4
      vertex 15.513 5.346 4
      vertex 0 2.4 4
    endloop
  endfacet
  facet normal 0 0 1
    outer loop
      vertex 14.747 5.622 4
      vertex 14.607 5.705 4
      vertex 0 2.4 4
    endloop
  endfacet
  facet normal 0 0 1
    outer loop
      vertex 15.197 5.427 4
      vertex 15.043 5.483 4
      vertex 0 2.4 4
    endloop
  endfacet
  facet normal 0 0 1
    outer loop
      vertex 15.043 5.483 4
      vertex 14.893 5.547 4
      vertex 0 2.4 4
    endloop
  endfacet
  facet normal 0 0 1
    outer loop
      vertex 14.893 5.547 4
      vertex 14.747 5.622 4
      vertex 0 2.4 4
    endloop
  endfacet
  facet normal 0 0 1
    outer loop
      vertex 0 2.4 4
      vertex 14.607 5.705 4
      vertex 14.472 5.797 4
    endloop
  endfacet
  facet normal 0 0 1
    outer loop
      vertex 0 2.4 4
      vertex 14.472 5.797 4
      vertex 14.343 5.897 4
    endloop
  endfacet
  facet normal 0 0 1
    outer loop
      vertex 0 2.4 4
      vertex 14.343 5.897 4
      vertex 14.22 6.005 4
    endloop
  endfacet
  facet normal 0 0 1
    outer loop
      vertex 0 2.4 4
      vertex 14.22 6.005 4
      vertex 14.105 6.12 4
    endloop
  endfacet
  facet normal 0 0 1
    outer loop
      vertex 0 2.4 4
      vertex 14.105 6.12 4
      vertex 13.997 6.243 4
    endloop
  endfacet
  facet normal 0 0 1
    outer loop
      vertex 0 2.4 4
      vertex 13.997 6.243 4
      vertex 13.897 6.372 4
    endloop
  endfacet
  facet normal 0 0 1
    outer loop
      vertex 0 2.4 4
      vertex 13.897 6.372 4
      vertex 13.805 6.507 4
    endloop
  endfacet
  facet normal 0 0 1
    outer loop
      vertex 0 2.4 4
      vertex 13.805 6.507 4
      vertex 13.722 6.647 4
    endloop
  endfacet
  facet normal 0 0 1
    outer loop
      vertex 0 2.4 4
      vertex 13.722 6.647 4
      vertex 13.647 6.793 4
    endloop
  endfacet
  facet normal 0 0 1
    outer loop
      vertex 0 2.4 4
      vertex 13.647 6.793 4
      vertex 13.583 6.943 4
    endloop
  endfacet
  facet normal 0 0 1
    outer loop
      vertex 0 2.4 4
      vertex 13.583 6.943 4
      vertex 13.527 7.097 4
    endloop
  endfacet
  facet normal 0 0 1
    outer loop
      vertex 0 2.4 4
      vertex 13.527 7.097 4
      vertex 13.482 7.253 4
    endloop
  endfacet
  facet normal 0 0 1
    outer loop
      vertex 0 2.4 4
      vertex 13.482 7.253 4
      vertex 13.446 7.413 4
    endloop
  endfacet
  facet normal 0 0 1
    outer loop
      vertex 0 2.4 4
      vertex 13.446 7.413 4
      vertex 13.421 7.574 4
    endloop
  endfacet
  facet normal 0 0 1
    outer loop
      vertex 0 2.4 4
      vertex 13.405 7.737 4
      vertex 13.4 7.9 4
    endloop
  endfacet
  facet normal 0 0 1
    outer loop
      vertex 0 2.4 4
      vertex 13.421 7.574 4
      vertex 13.405 7.737 4
    endloop
  endfacet
  facet normal 0 0 1
    outer loop
      vertex 18.554 7.413 4
      vertex 18.518 7.253 4
      vertex 32 3.1 4
    endloop
  endfacet
  facet normal 0 0 1
    outer loop
      vertex 13.647 9.007 4
      vertex 13.722 9.153 4
      vertex 0 13.4 4
    endloop
  endfacet
  facet normal 0 0 1
    outer loop
      vertex 16.803 10.373 4
      vertex 16.957 10.317 4
      vertex 32 12.7 4
    endloop
  endfacet
  facet normal -0.0218698 0.999761 0
    outer loop
      vertex 32 3.1 6
      vertex 32 3.1 4
      vertex 0 2.4 6
    endloop
  endfacet
  facet normal -0.0218698 0.999761 0
    outer loop
      vertex 0 2.4 6
      vertex 32 3.1 4
      vertex 0 2.4 4
    endloop
  endfacet
endsolid OpenSCAD_Model
