solid OpenSCAD_Model
  facet normal 0 -1 0
    outer loop
      vertex 0 0 3.5
      vertex 0 0 0
      vertex 36 0 0
    endloop
  endfacet
  facet normal 0 -1 0
    outer loop
      vertex 36 0 3.5
      vertex 0 0 3.5
      vertex 36 0 0
    endloop
  endfacet
  facet normal 0 0 -1
    outer loop
      vertex 18.742 10.283 0
      vertex 0 16 0
      vertex 36 16 0
    endloop
  endfacet
  facet normal 0 0 -1
    outer loop
      vertex 0 0 0
      vertex 0 16 0
      vertex 15.6 8 0
    endloop
  endfacet
  facet normal 0 0 -1
    outer loop
      vertex 0 0 0
      vertex 15.6 8 0
      vertex 15.605 7.849 0
    endloop
  endfacet
  facet normal 0 0 -1
    outer loop
      vertex 0 0 0
      vertex 15.605 7.849 0
      vertex 15.619 7.699 0
    endloop
  endfacet
  facet normal 0 0 -1
    outer loop
      vertex 0 0 0
      vertex 15.619 7.699 0
      vertex 15.643 7.55 0
    endloop
  endfacet
  facet normal 0 0 -1
    outer loop
      vertex 0 0 0
      vertex 15.643 7.55 0
      vertex 15.675 7.403 0
    endloop
  endfacet
  facet normal 0 0 -1
    outer loop
      vertex 0 0 0
      vertex 15.675 7.403 0
      vertex 15.717 7.258 0
    endloop
  endfacet
  facet normal 0 0 -1
    outer loop
      vertex 0 0 0
      vertex 15.717 7.258 0
      vertex 15.769 7.117 0
    endloop
  endfacet
  facet normal 0 0 -1
    outer loop
      vertex 0 0 0
      vertex 15.769 7.117 0
      vertex 15.828 6.978 0
    endloop
  endfacet
  facet normal 0 0 -1
    outer loop
      vertex 0 0 0
      vertex 15.828 6.978 0
      vertex 15.897 6.844 0
    endloop
  endfacet
  facet normal 0 0 -1
    outer loop
      vertex 0 0 0
      vertex 15.897 6.844 0
      vertex 15.974 6.714 0
    endloop
  endfacet
  facet normal 0 0 -1
    outer loop
      vertex 0 0 0
      vertex 15.974 6.714 0
      vertex 16.058 6.589 0
    endloop
  endfacet
  facet normal 0 0 -1
    outer loop
      vertex 0 0 0
      vertex 16.058 6.589 0
      vertex 16.151 6.47 0
    endloop
  endfacet
  facet normal 0 0 -1
    outer loop
      vertex 0 0 0
      vertex 16.151 6.47 0
      vertex 16.25 6.357 0
    endloop
  endfacet
  facet normal 0 0 -1
    outer loop
      vertex 0 0 0
      vertex 16.25 6.357 0
      vertex 16.357 6.25 0
    endloop
  endfacet
  facet normal 0 0 -1
    outer loop
      vertex 0 0 0
      vertex 16.357 6.25 0
      vertex 16.47 6.151 0
    endloop
  endfacet
  facet normal 0 0 -1
    outer loop
      vertex 0 0 0
      vertex 16.47 6.151 0
      vertex 16.589 6.058 0
    endloop
  endfacet
  facet normal 0 0 -1
    outer loop
      vertex 0 0 0
      vertex 16.589 6.058 0
      vertex 16.714 5.974 0
    endloop
  endfacet
  facet normal 0 0 -1
    outer loop
      vertex 0 0 0
      vertex 16.714 5.974 0
      vertex 16.844 5.897 0
    endloop
  endfacet
  facet normal 0 0 -1
    outer loop
      vertex 0 0 0
      vertex 16.844 5.897 0
      vertex 16.978 5.828 0
    endloop
  endfacet
  facet normal 0 0 -1
    outer loop
      vertex 0 0 0
      vertex 16.978 5.828 0
      vertex 17.117 5.769 0
    endloop
  endfacet
  facet normal 0 0 -1
    outer loop
      vertex 0 0 0
      vertex 17.117 5.769 0
      vertex 17.258 5.717 0
    endloop
  endfacet
  facet normal 0 0 -1
    outer loop
      vertex 0 0 0
      vertex 17.258 5.717 0
      vertex 36 0 0
    endloop
  endfacet
  facet normal 0 0 -1
    outer loop
      vertex 17.258 5.717 0
      vertex 17.403 5.675 0
      vertex 36 0 0
    endloop
  endfacet
  facet normal 0 0 -1
    outer loop
      vertex 17.699 5.619 0
      vertex 36 0 0
      vertex 17.55 5.643 0
    endloop
  endfacet
  facet normal 0 0 -1
    outer loop
      vertex 17.849 5.605 0
      vertex 36 0 0
      vertex 17.699 5.619 0
    endloop
  endfacet
  facet normal 0 0 -1
    outer loop
      vertex 18 5.6 0
      vertex 36 0 0
      vertex 17.849 5.605 0
    endloop
  endfacet
  facet normal 0 0 -1
    outer loop
      vertex 18.151 5.605 0
      vertex 36 0 0
      vertex 18 5.6 0
    endloop
  endfacet
  facet normal 0 0 -1
    outer loop
      vertex 18.301 5.619 0
      vertex 36 0 0
      vertex 18.151 5.605 0
    endloop
  endfacet
  facet normal 0 0 -1
    outer loop
      vertex 18.45 5.643 0
      vertex 36 0 0
      vertex 18.301 5.619 0
    endloop
  endfacet
  facet normal 0 0 -1
    outer loop
      vertex 18.597 5.675 0
      vertex 36 0 0
      vertex 18.45 5.643 0
    endloop
  endfacet
  facet normal 0 0 -1
    outer loop
      vertex 18.742 5.717 0
      vertex 36 0 0
      vertex 18.597 5.675 0
    endloop
  endfacet
  facet normal 0 0 -1
    outer loop
      vertex 18.883 5.769 0
      vertex 36 0 0
      vertex 18.742 5.717 0
    endloop
  endfacet
  facet normal 0 0 -1
    outer loop
      vertex 19.022 5.828 0
      vertex 36 0 0
      vertex 18.883 5.769 0
    endloop
  endfacet
  facet normal 0 0 -1
    outer loop
      vertex 19.156 5.897 0
      vertex 36 0 0
      vertex 19.022 5.828 0
    endloop
  endfacet
  facet normal 0 0 -1
    outer loop
      vertex 19.286 5.974 0
      vertex 36 0 0
      vertex 19.156 5.897 0
    endloop
  endfacet
  facet normal 0 0 -1
    outer loop
      vertex 19.411 6.058 0
      vertex 36 0 0
      vertex 19.286 5.974 0
    endloop
  endfacet
  facet normal 0 0 -1
    outer loop
      vertex 19.53 6.151 0
      vertex 36 0 0
      vertex 19.411 6.058 0
    endloop
  endfacet
  facet normal 0 0 -1
    outer loop
      vertex 19.643 6.25 0
      vertex 36 0 0
      vertex 19.53 6.151 0
    endloop
  endfacet
  facet normal 0 0 -1
    outer loop
      vertex 19.75 6.357 0
      vertex 36 0 0
      vertex 19.643 6.25 0
    endloop
  endfacet
  facet normal 0 0 -1
    outer loop
      vertex 19.849 6.47 0
      vertex 36 0 0
      vertex 19.75 6.357 0
    endloop
  endfacet
  facet normal 0 0 -1
    outer loop
      vertex 20.231 7.117 0
      vertex 36 0 0
      vertex 20.172 6.978 0
    endloop
  endfacet
  facet normal 0 0 -1
    outer loop
      vertex 15.643 8.45 0
      vertex 0 16 0
      vertex 15.675 8.597 0
    endloop
  endfacet
  facet normal 0 0 -1
    outer loop
      vertex 19.849 6.47 0
      vertex 19.942 6.589 0
      vertex 36 0 0
    endloop
  endfacet
  facet normal 0 0 -1
    outer loop
      vertex 19.942 6.589 0
      vertex 20.026 6.714 0
      vertex 36 0 0
    endloop
  endfacet
  facet normal 0 0 -1
    outer loop
      vertex 15.675 8.597 0
      vertex 0 16 0
      vertex 15.717 8.742 0
    endloop
  endfacet
  facet normal 0 0 -1
    outer loop
      vertex 20.026 6.714 0
      vertex 20.103 6.844 0
      vertex 36 0 0
    endloop
  endfacet
  facet normal 0 0 -1
    outer loop
      vertex 15.717 8.742 0
      vertex 0 16 0
      vertex 15.769 8.883 0
    endloop
  endfacet
  facet normal 0 0 -1
    outer loop
      vertex 20.103 6.844 0
      vertex 20.172 6.978 0
      vertex 36 0 0
    endloop
  endfacet
  facet normal 0 0 -1
    outer loop
      vertex 15.769 8.883 0
      vertex 0 16 0
      vertex 15.828 9.022 0
    endloop
  endfacet
  facet normal 0 0 -1
    outer loop
      vertex 36 0 0
      vertex 20.231 7.117 0
      vertex 36 16 0
    endloop
  endfacet
  facet normal 0 0 -1
    outer loop
      vertex 20.231 7.117 0
      vertex 20.283 7.258 0
      vertex 36 16 0
    endloop
  endfacet
  facet normal 0 0 -1
    outer loop
      vertex 15.828 9.022 0
      vertex 0 16 0
      vertex 15.897 9.156 0
    endloop
  endfacet
  facet normal 0 0 -1
    outer loop
      vertex 20.283 7.258 0
      vertex 20.325 7.403 0
      vertex 36 16 0
    endloop
  endfacet
  facet normal 0 0 -1
    outer loop
      vertex 15.897 9.156 0
      vertex 0 16 0
      vertex 15.974 9.286 0
    endloop
  endfacet
  facet normal 0 0 -1
    outer loop
      vertex 20.325 7.403 0
      vertex 20.357 7.55 0
      vertex 36 16 0
    endloop
  endfacet
  facet normal 0 0 -1
    outer loop
      vertex 15.974 9.286 0
      vertex 0 16 0
      vertex 16.058 9.411 0
    endloop
  endfacet
  facet normal 0 0 -1
    outer loop
      vertex 20.357 7.55 0
      vertex 20.381 7.699 0
      vertex 36 16 0
    endloop
  endfacet
  facet normal 0 0 -1
    outer loop
      vertex 16.058 9.411 0
      vertex 0 16 0
      vertex 16.151 9.53 0
    endloop
  endfacet
  facet normal 0 0 -1
    outer loop
      vertex 20.381 7.699 0
      vertex 20.395 7.849 0
      vertex 36 16 0
    endloop
  endfacet
  facet normal 0 0 -1
    outer loop
      vertex 20.395 7.849 0
      vertex 20.4 8 0
      vertex 36 16 0
    endloop
  endfacet
  facet normal 0 0 -1
    outer loop
      vertex 16.151 9.53 0
      vertex 0 16 0
      vertex 16.25 9.643 0
    endloop
  endfacet
  facet normal 0 0 -1
    outer loop
      vertex 20.4 8 0
      vertex 20.395 8.151 0
      vertex 36 16 0
    endloop
  endfacet
  facet normal 0 0 -1
    outer loop
      vertex 16.25 9.643 0
      vertex 0 16 0
      vertex 16.357 9.75 0
    endloop
  endfacet
  facet normal 0 0 -1
    outer loop
      vertex 20.395 8.151 0
      vertex 20.381 8.301 0
      vertex 36 16 0
    endloop
  endfacet
  facet normal 0 0 -1
    outer loop
      vertex 16.357 9.75 0
      vertex 0 16 0
      vertex 16.47 9.849 0
    endloop
  endfacet
  facet normal 0 0 -1
    outer loop
      vertex 20.381 8.301 0
      vertex 20.357 8.45 0
      vertex 36 16 0
    endloop
  endfacet
  facet normal 0 0 -1
    outer loop
      vertex 16.47 9.849 0
      vertex 0 16 0
      vertex 16.589 9.942 0
    endloop
  endfacet
  facet normal 0 0 -1
    outer loop
      vertex 20.357 8.45 0
      vertex 20.325 8.597 0
      vertex 36 16 0
    endloop
  endfacet
  facet normal 0 0 -1
    outer loop
      vertex 20.325 8.597 0
      vertex 20.283 8.742 0
      vertex 36 16 0
    endloop
  endfacet
  facet normal 0 0 -1
    outer loop
      vertex 16.589 9.942 0
      vertex 0 16 0
      vertex 16.714 10.026 0
    endloop
  endfacet
  facet normal 0 0 -1
    outer loop
      vertex 20.283 8.742 0
      vertex 20.231 8.883 0
      vertex 36 16 0
    endloop
  endfacet
  facet normal 0 0 -1
    outer loop
      vertex 16.714 10.026 0
      vertex 0 16 0
      vertex 16.844 10.103 0
    endloop
  endfacet
  facet normal 0 0 -1
    outer loop
      vertex 20.231 8.883 0
      vertex 20.172 9.022 0
      vertex 36 16 0
    endloop
  endfacet
  facet normal 0 0 -1
    outer loop
      vertex 16.844 10.103 0
      vertex 0 16 0
      vertex 16.978 10.172 0
    endloop
  endfacet
  facet normal 0 0 -1
    outer loop
      vertex 20.172 9.022 0
      vertex 20.103 9.156 0
      vertex 36 16 0
    endloop
  endfacet
  facet normal 0 0 -1
    outer loop
      vertex 16.978 10.172 0
      vertex 0 16 0
      vertex 17.117 10.231 0
    endloop
  endfacet
  facet normal 0 0 -1
    outer loop
      vertex 20.103 9.156 0
      vertex 20.026 9.286 0
      vertex 36 16 0
    endloop
  endfacet
  facet normal 0 0 -1
    outer loop
      vertex 17.117 10.231 0
      vertex 0 16 0
      vertex 17.258 10.283 0
    endloop
  endfacet
  facet normal 0 0 -1
    outer loop
      vertex 20.026 9.286 0
      vertex 19.942 9.411 0
      vertex 36 16 0
    endloop
  endfacet
  facet normal 0 0 -1
    outer loop
      vertex 17.258 10.283 0
      vertex 0 16 0
      vertex 17.403 10.325 0
    endloop
  endfacet
  facet normal 0 0 -1
    outer loop
      vertex 19.942 9.411 0
      vertex 19.849 9.53 0
      vertex 36 16 0
    endloop
  endfacet
  facet normal 0 0 -1
    outer loop
      vertex 19.849 9.53 0
      vertex 19.75 9.643 0
      vertex 36 16 0
    endloop
  endfacet
  facet normal 0 0 -1
    outer loop
      vertex 17.403 10.325 0
      vertex 0 16 0
      vertex 17.55 10.357 0
    endloop
  endfacet
  facet normal 0 0 -1
    outer loop
      vertex 19.75 9.643 0
      vertex 19.643 9.75 0
      vertex 36 16 0
    endloop
  endfacet
  facet normal 0 0 -1
    outer loop
      vertex 17.55 10.357 0
      vertex 0 16 0
      vertex 17.699 10.381 0
    endloop
  endfacet
  facet normal 0 0 -1
    outer loop
      vertex 19.643 9.75 0
      vertex 19.53 9.849 0
      vertex 36 16 0
    endloop
  endfacet
  facet normal 0 0 -1
    outer loop
      vertex 17.699 10.381 0
      vertex 0 16 0
      vertex 17.849 10.395 0
    endloop
  endfacet
  facet normal 0 0 -1
    outer loop
      vertex 19.53 9.849 0
      vertex 19.411 9.942 0
      vertex 36 16 0
    endloop
  endfacet
  facet normal 0 0 -1
    outer loop
      vertex 17.849 10.395 0
      vertex 0 16 0
      vertex 18 10.4 0
    endloop
  endfacet
  facet normal 0 0 -1
    outer loop
      vertex 19.411 9.942 0
      vertex 19.286 10.026 0
      vertex 36 16 0
    endloop
  endfacet
  facet normal 0 0 -1
    outer loop
      vertex 18 10.4 0
      vertex 0 16 0
      vertex 18.151 10.395 0
    endloop
  endfacet
  facet normal 0 0 -1
    outer loop
      vertex 19.286 10.026 0
      vertex 19.156 10.103 0
      vertex 36 16 0
    endloop
  endfacet
  facet normal 0 0 -1
    outer loop
      vertex 18.151 10.395 0
      vertex 0 16 0
      vertex 18.301 10.381 0
    endloop
  endfacet
  facet normal 0 0 -1
    outer loop
      vertex 19.156 10.103 0
      vertex 19.022 10.172 0
      vertex 36 16 0
    endloop
  endfacet
  facet normal 0 0 -1
    outer loop
      vertex 18.301 10.381 0
      vertex 0 16 0
      vertex 18.45 10.357 0
    endloop
  endfacet
  facet normal 0 0 -1
    outer loop
      vertex 19.022 10.172 0
      vertex 18.883 10.231 0
      vertex 36 16 0
    endloop
  endfacet
  facet normal 0 0 -1
    outer loop
      vertex 18.597 10.325 0
      vertex 0 16 0
      vertex 18.742 10.283 0
    endloop
  endfacet
  facet normal 0 0 -1
    outer loop
      vertex 18.883 10.231 0
      vertex 18.742 10.283 0
      vertex 36 16 0
    endloop
  endfacet
  facet normal 0 0 -1
    outer loop
      vertex 18.45 10.357 0
      vertex 0 16 0
      vertex 18.597 10.325 0
    endloop
  endfacet
  facet normal 0 0 -1
    outer loop
      vertex 15.619 8.301 0
      vertex 0 16 0
      vertex 15.643 8.45 0
    endloop
  endfacet
  facet normal 0 0 -1
    outer loop
      vertex 15.605 8.151 0
      vertex 0 16 0
      vertex 15.619 8.301 0
    endloop
  endfacet
  facet normal 0 0 -1
    outer loop
      vertex 15.6 8 0
      vertex 0 16 0
      vertex 15.605 8.151 0
    endloop
  endfacet
  facet normal 0 0 -1
    outer loop
      vertex 17.55 5.643 0
      vertex 36 0 0
      vertex 17.403 5.675 0
    endloop
  endfacet
  facet normal -1 0 0
    outer loop
      vertex 0 13.6 1.1
      vertex 0 16 0
      vertex 0 2.4 1.1
    endloop
  endfacet
  facet normal -1 0 0
    outer loop
      vertex 0 0 0
      vertex 0 0 3.5
      vertex 0 2.4 1.1
    endloop
  endfacet
  facet normal -1 0 0
    outer loop
      vertex 0 0 0
      vertex 0 2.4 1.1
      vertex 0 16 0
    endloop
  endfacet
  facet normal -1 0 0
    outer loop
      vertex 0 16 0
      vertex 0 13.6 1.1
      vertex 0 13.6 3.5
    endloop
  endfacet
  facet normal -1 0 0
    outer loop
      vertex 0 16 0
      vertex 0 13.6 3.5
      vertex 0 16 3.5
    endloop
  endfacet
  facet normal -1 0 0
    outer loop
      vertex 0 2.4 1.1
      vertex 0 0 3.5
      vertex 0 2.4 3.5
    endloop
  endfacet
  facet normal 0 0 1
    outer loop
      vertex 0 2.4 3.5
      vertex 0 0 3.5
      vertex 36 0 3.5
    endloop
  endfacet
  facet normal 0 0 1
    outer loop
      vertex 36 3.2 3.5
      vertex 0 2.4 3.5
      vertex 36 0 3.5
    endloop
  endfacet
  facet normal 1 0 0
    outer loop
      vertex 36 3.2 1.1
      vertex 36 0 0
      vertex 36 16 0
    endloop
  endfacet
  facet normal 1 0 0
    outer loop
      vertex 36 3.2 1.1
      vertex 36 3.2 3.5
      vertex 36 0 3.5
    endloop
  endfacet
  facet normal 1 0 0
    outer loop
      vertex 36 16 3.5
      vertex 36 12.8 3.5
      vertex 36 16 0
    endloop
  endfacet
  facet normal 1 0 0
    outer loop
      vertex 36 12.8 3.5
      vertex 36 12.8 1.1
      vertex 36 16 0
    endloop
  endfacet
  facet normal 1 0 0
    outer loop
      vertex 36 0 3.5
      vertex 36 0 0
      vertex 36 3.2 1.1
    endloop
  endfacet
  facet normal 1 0 0
    outer loop
      vertex 36 12.8 1.1
      vertex 36 3.2 1.1
      vertex 36 16 0
    endloop
  endfacet
  facet normal 0 1 0
    outer loop
      vertex 0 16 0
      vertex 0 16 3.5
      vertex 36 16 0
    endloop
  endfacet
  facet normal 0 1 0
    outer loop
      vertex 36 16 0
      vertex 0 16 3.5
      vertex 36 16 3.5
    endloop
  endfacet
  facet normal 0.999452 0.0330944 0
    outer loop
      vertex 15.6 8 1.1
      vertex 15.605 7.849 1.1
      vertex 15.605 7.849 0
    endloop
  endfacet
  facet normal 0.999452 0.0330944 0
    outer loop
      vertex 15.6 8 0
      vertex 15.6 8 1.1
      vertex 15.605 7.849 0
    endloop
  endfacet
  facet normal 0.999452 -0.0330944 0
    outer loop
      vertex 15.605 8.151 0
      vertex 15.605 8.151 1.1
      vertex 15.6 8 1.1
    endloop
  endfacet
  facet normal 0.999452 -0.0330944 0
    outer loop
      vertex 15.6 8 0
      vertex 15.605 8.151 0
      vertex 15.6 8 1.1
    endloop
  endfacet
  facet normal 0.995673 -0.0929295 0
    outer loop
      vertex 15.619 8.301 0
      vertex 15.619 8.301 1.1
      vertex 15.605 8.151 1.1
    endloop
  endfacet
  facet normal 0.995673 -0.0929295 0
    outer loop
      vertex 15.605 8.151 0
      vertex 15.619 8.301 0
      vertex 15.605 8.151 1.1
    endloop
  endfacet
  facet normal 0.987275 -0.159024 0
    outer loop
      vertex 15.643 8.45 0
      vertex 15.643 8.45 1.1
      vertex 15.619 8.301 1.1
    endloop
  endfacet
  facet normal 0.987275 -0.159024 0
    outer loop
      vertex 15.619 8.301 0
      vertex 15.643 8.45 0
      vertex 15.619 8.301 1.1
    endloop
  endfacet
  facet normal 0.977116 -0.212706 0
    outer loop
      vertex 15.675 8.597 0
      vertex 15.675 8.597 1.1
      vertex 15.643 8.45 1.1
    endloop
  endfacet
  facet normal 0.977116 -0.212706 0
    outer loop
      vertex 15.643 8.45 0
      vertex 15.675 8.597 0
      vertex 15.643 8.45 1.1
    endloop
  endfacet
  facet normal 0.960518 -0.278219 0
    outer loop
      vertex 15.717 8.742 0
      vertex 15.717 8.742 1.1
      vertex 15.675 8.597 1.1
    endloop
  endfacet
  facet normal 0.960518 -0.278219 0
    outer loop
      vertex 15.675 8.597 0
      vertex 15.717 8.742 0
      vertex 15.675 8.597 1.1
    endloop
  endfacet
  facet normal 0.938229 -0.346014 0
    outer loop
      vertex 15.769 8.883 0
      vertex 15.769 8.883 1.1
      vertex 15.717 8.742 1.1
    endloop
  endfacet
  facet normal 0.938229 -0.346014 0
    outer loop
      vertex 15.717 8.742 0
      vertex 15.769 8.883 0
      vertex 15.717 8.742 1.1
    endloop
  endfacet
  facet normal 0.92051 -0.39072 0
    outer loop
      vertex 15.828 9.022 0
      vertex 15.828 9.022 1.1
      vertex 15.769 8.883 1.1
    endloop
  endfacet
  facet normal 0.92051 -0.39072 0
    outer loop
      vertex 15.769 8.883 0
      vertex 15.828 9.022 0
      vertex 15.769 8.883 1.1
    endloop
  endfacet
  facet normal 0.889056 -0.457798 0
    outer loop
      vertex 15.897 9.156 0
      vertex 15.897 9.156 1.1
      vertex 15.828 9.022 1.1
    endloop
  endfacet
  facet normal 0.889056 -0.457798 0
    outer loop
      vertex 15.828 9.022 0
      vertex 15.897 9.156 0
      vertex 15.828 9.022 1.1
    endloop
  endfacet
  facet normal 0.860399 -0.509621 0
    outer loop
      vertex 15.974 9.286 0
      vertex 15.974 9.286 1.1
      vertex 15.897 9.156 1.1
    endloop
  endfacet
  facet normal 0.860399 -0.509621 0
    outer loop
      vertex 15.897 9.156 0
      vertex 15.974 9.286 0
      vertex 15.897 9.156 1.1
    endloop
  endfacet
  facet normal 0.830002 -0.557761 0
    outer loop
      vertex 16.058 9.411 0
      vertex 16.058 9.411 1.1
      vertex 15.974 9.286 1.1
    endloop
  endfacet
  facet normal 0.830002 -0.557761 0
    outer loop
      vertex 15.974 9.286 0
      vertex 16.058 9.411 0
      vertex 15.974 9.286 1.1
    endloop
  endfacet
  facet normal 0.787924 -0.615773 0
    outer loop
      vertex 16.151 9.53 0
      vertex 16.151 9.53 1.1
      vertex 16.058 9.411 1.1
    endloop
  endfacet
  facet normal 0.787924 -0.615773 0
    outer loop
      vertex 16.058 9.411 0
      vertex 16.151 9.53 0
      vertex 16.058 9.411 1.1
    endloop
  endfacet
  facet normal 0.752164 -0.658976 0
    outer loop
      vertex 16.25 9.643 0
      vertex 16.25 9.643 1.1
      vertex 16.151 9.53 1.1
    endloop
  endfacet
  facet normal 0.752164 -0.658976 0
    outer loop
      vertex 16.151 9.53 0
      vertex 16.25 9.643 0
      vertex 16.151 9.53 1.1
    endloop
  endfacet
  facet normal 0.707107 -0.707107 0
    outer loop
      vertex 16.357 9.75 0
      vertex 16.357 9.75 1.1
      vertex 16.25 9.643 1.1
    endloop
  endfacet
  facet normal 0.707107 -0.707107 0
    outer loop
      vertex 16.25 9.643 0
      vertex 16.357 9.75 0
      vertex 16.25 9.643 1.1
    endloop
  endfacet
  facet normal 0.658976 -0.752164 0
    outer loop
      vertex 16.47 9.849 0
      vertex 16.47 9.849 1.1
      vertex 16.357 9.75 1.1
    endloop
  endfacet
  facet normal 0.658976 -0.752164 0
    outer loop
      vertex 16.357 9.75 0
      vertex 16.47 9.849 0
      vertex 16.357 9.75 1.1
    endloop
  endfacet
  facet normal 0.615773 -0.787924 0
    outer loop
      vertex 16.589 9.942 0
      vertex 16.589 9.942 1.1
      vertex 16.47 9.849 1.1
    endloop
  endfacet
  facet normal 0.615773 -0.787924 0
    outer loop
      vertex 16.47 9.849 0
      vertex 16.589 9.942 0
      vertex 16.47 9.849 1.1
    endloop
  endfacet
  facet normal 0.557761 -0.830002 0
    outer loop
      vertex 16.714 10.026 0
      vertex 16.714 10.026 1.1
      vertex 16.589 9.942 1.1
    endloop
  endfacet
  facet normal 0.557761 -0.830002 0
    outer loop
      vertex 16.589 9.942 0
      vertex 16.714 10.026 0
      vertex 16.589 9.942 1.1
    endloop
  endfacet
  facet normal 0.509621 -0.860399 0
    outer loop
      vertex 16.844 10.103 0
      vertex 16.844 10.103 1.1
      vertex 16.714 10.026 1.1
    endloop
  endfacet
  facet normal 0.509621 -0.860399 0
    outer loop
      vertex 16.714 10.026 0
      vertex 16.844 10.103 0
      vertex 16.714 10.026 1.1
    endloop
  endfacet
  facet normal 0.457798 -0.889056 0
    outer loop
      vertex 16.978 10.172 0
      vertex 16.978 10.172 1.1
      vertex 16.844 10.103 1.1
    endloop
  endfacet
  facet normal 0.457798 -0.889056 0
    outer loop
      vertex 16.844 10.103 0
      vertex 16.978 10.172 0
      vertex 16.844 10.103 1.1
    endloop
  endfacet
  facet normal 0.39072 -0.92051 0
    outer loop
      vertex 17.117 10.231 0
      vertex 17.117 10.231 1.1
      vertex 16.978 10.172 1.1
    endloop
  endfacet
  facet normal 0.39072 -0.92051 0
    outer loop
      vertex 16.978 10.172 0
      vertex 17.117 10.231 0
      vertex 16.978 10.172 1.1
    endloop
  endfacet
  facet normal 0.346014 -0.938229 0
    outer loop
      vertex 17.258 10.283 0
      vertex 17.258 10.283 1.1
      vertex 17.117 10.231 1.1
    endloop
  endfacet
  facet normal 0.346014 -0.938229 0
    outer loop
      vertex 17.117 10.231 0
      vertex 17.258 10.283 0
      vertex 17.117 10.231 1.1
    endloop
  endfacet
  facet normal 0.278219 -0.960518 0
    outer loop
      vertex 17.403 10.325 0
      vertex 17.403 10.325 1.1
      vertex 17.258 10.283 1.1
    endloop
  endfacet
  facet normal 0.278219 -0.960518 0
    outer loop
      vertex 17.258 10.283 0
      vertex 17.403 10.325 0
      vertex 17.258 10.283 1.1
    endloop
  endfacet
  facet normal 0.212706 -0.977116 0
    outer loop
      vertex 17.55 10.357 0
      vertex 17.55 10.357 1.1
      vertex 17.403 10.325 1.1
    endloop
  endfacet
  facet normal 0.212706 -0.977116 0
    outer loop
      vertex 17.403 10.325 0
      vertex 17.55 10.357 0
      vertex 17.403 10.325 1.1
    endloop
  endfacet
  facet normal 0.159024 -0.987275 0
    outer loop
      vertex 17.699 10.381 0
      vertex 17.699 10.381 1.1
      vertex 17.55 10.357 1.1
    endloop
  endfacet
  facet normal 0.159024 -0.987275 0
    outer loop
      vertex 17.55 10.357 0
      vertex 17.699 10.381 0
      vertex 17.55 10.357 1.1
    endloop
  endfacet
  facet normal 0.0929295 -0.995673 0
    outer loop
      vertex 17.849 10.395 0
      vertex 17.849 10.395 1.1
      vertex 17.699 10.381 1.1
    endloop
  endfacet
  facet normal 0.0929295 -0.995673 0
    outer loop
      vertex 17.699 10.381 0
      vertex 17.849 10.395 0
      vertex 17.699 10.381 1.1
    endloop
  endfacet
  facet normal 0.0330944 -0.999452 0
    outer loop
      vertex 18 10.4 0
      vertex 18 10.4 1.1
      vertex 17.849 10.395 1.1
    endloop
  endfacet
  facet normal 0.0330944 -0.999452 0
    outer loop
      vertex 17.849 10.395 0
      vertex 18 10.4 0
      vertex 17.849 10.395 1.1
    endloop
  endfacet
  facet normal -0.0330944 -0.999452 0
    outer loop
      vertex 18.151 10.395 0
      vertex 18.151 10.395 1.1
      vertex 18 10.4 1.1
    endloop
  endfacet
  facet normal -0.0330944 -0.999452 0
    outer loop
      vertex 18 10.4 0
      vertex 18.151 10.395 0
      vertex 18 10.4 1.1
    endloop
  endfacet
  facet normal -0.0929295 -0.995673 0
    outer loop
      vertex 18.301 10.381 0
      vertex 18.301 10.381 1.1
      vertex 18.151 10.395 1.1
    endloop
  endfacet
  facet normal -0.0929295 -0.995673 0
    outer loop
      vertex 18.151 10.395 0
      vertex 18.301 10.381 0
      vertex 18.151 10.395 1.1
    endloop
  endfacet
  facet normal -0.159024 -0.987275 0
    outer loop
      vertex 18.45 10.357 0
      vertex 18.45 10.357 1.1
      vertex 18.301 10.381 1.1
    endloop
  endfacet
  facet normal -0.159024 -0.987275 0
    outer loop
      vertex 18.301 10.381 0
      vertex 18.45 10.357 0
      vertex 18.301 10.381 1.1
    endloop
  endfacet
  facet normal -0.212706 -0.977116 0
    outer loop
      vertex 18.597 10.325 0
      vertex 18.597 10.325 1.1
      vertex 18.45 10.357 1.1
    endloop
  endfacet
  facet normal -0.212706 -0.977116 0
    outer loop
      vertex 18.45 10.357 0
      vertex 18.597 10.325 0
      vertex 18.45 10.357 1.1
    endloop
  endfacet
  facet normal -0.278219 -0.960518 0
    outer loop
      vertex 18.742 10.283 0
      vertex 18.742 10.283 1.1
      vertex 18.597 10.325 1.1
    endloop
  endfacet
  facet normal -0.278219 -0.960518 0
    outer loop
      vertex 18.597 10.325 0
      vertex 18.742 10.283 0
      vertex 18.597 10.325 1.1
    endloop
  endfacet
  facet normal -0.346014 -0.938229 0
    outer loop
      vertex 18.883 10.231 0
      vertex 18.883 10.231 1.1
      vertex 18.742 10.283 1.1
    endloop
  endfacet
  facet normal -0.346014 -0.938229 0
    outer loop
      vertex 18.742 10.283 0
      vertex 18.883 10.231 0
      vertex 18.742 10.283 1.1
    endloop
  endfacet
  facet normal -0.39072 -0.92051 0
    outer loop
      vertex 19.022 10.172 0
      vertex 19.022 10.172 1.1
      vertex 18.883 10.231 1.1
    endloop
  endfacet
  facet normal -0.39072 -0.92051 0
    outer loop
      vertex 18.883 10.231 0
      vertex 19.022 10.172 0
      vertex 18.883 10.231 1.1
    endloop
  endfacet
  facet normal -0.457798 -0.889056 0
    outer loop
      vertex 19.156 10.103 0
      vertex 19.156 10.103 1.1
      vertex 19.022 10.172 1.1
    endloop
  endfacet
  facet normal -0.457798 -0.889056 0
    outer loop
      vertex 19.022 10.172 0
      vertex 19.156 10.103 0
      vertex 19.022 10.172 1.1
    endloop
  endfacet
  facet normal -0.509621 -0.860399 0
    outer loop
      vertex 19.286 10.026 0
      vertex 19.286 10.026 1.1
      vertex 19.156 10.103 1.1
    endloop
  endfacet
  facet normal -0.509621 -0.860399 0
    outer loop
      vertex 19.156 10.103 0
      vertex 19.286 10.026 0
      vertex 19.156 10.103 1.1
    endloop
  endfacet
  facet normal -0.557761 -0.830002 0
    outer loop
      vertex 19.411 9.942 0
      vertex 19.411 9.942 1.1
      vertex 19.286 10.026 1.1
    endloop
  endfacet
  facet normal -0.557761 -0.830002 0
    outer loop
      vertex 19.286 10.026 0
      vertex 19.411 9.942 0
      vertex 19.286 10.026 1.1
    endloop
  endfacet
  facet normal -0.615773 -0.787924 0
    outer loop
      vertex 19.53 9.849 0
      vertex 19.53 9.849 1.1
      vertex 19.411 9.942 1.1
    endloop
  endfacet
  facet normal -0.615773 -0.787924 0
    outer loop
      vertex 19.411 9.942 0
      vertex 19.53 9.849 0
      vertex 19.411 9.942 1.1
    endloop
  endfacet
  facet normal -0.658976 -0.752164 0
    outer loop
      vertex 19.643 9.75 0
      vertex 19.643 9.75 1.1
      vertex 19.53 9.849 1.1
    endloop
  endfacet
  facet normal -0.658976 -0.752164 0
    outer loop
      vertex 19.53 9.849 0
      vertex 19.643 9.75 0
      vertex 19.53 9.849 1.1
    endloop
  endfacet
  facet normal -0.707107 -0.707107 0
    outer loop
      vertex 19.75 9.643 0
      vertex 19.75 9.643 1.1
      vertex 19.643 9.75 1.1
    endloop
  endfacet
  facet normal -0.707107 -0.707107 0
    outer loop
      vertex 19.643 9.75 0
      vertex 19.75 9.643 0
      vertex 19.643 9.75 1.1
    endloop
  endfacet
  facet normal -0.752164 -0.658976 0
    outer loop
      vertex 19.849 9.53 1.1
      vertex 19.75 9.643 1.1
      vertex 19.849 9.53 0
    endloop
  endfacet
  facet normal -0.752164 -0.658976 0
    outer loop
      vertex 19.849 9.53 0
      vertex 19.75 9.643 1.1
      vertex 19.75 9.643 0
    endloop
  endfacet
  facet normal -0.787924 -0.615773 0
    outer loop
      vertex 19.942 9.411 1.1
      vertex 19.849 9.53 1.1
      vertex 19.942 9.411 0
    endloop
  endfacet
  facet normal -0.787924 -0.615773 0
    outer loop
      vertex 19.942 9.411 0
      vertex 19.849 9.53 1.1
      vertex 19.849 9.53 0
    endloop
  endfacet
  facet normal -0.830002 -0.557761 0
    outer loop
      vertex 20.026 9.286 1.1
      vertex 19.942 9.411 1.1
      vertex 20.026 9.286 0
    endloop
  endfacet
  facet normal -0.830002 -0.557761 0
    outer loop
      vertex 20.026 9.286 0
      vertex 19.942 9.411 1.1
      vertex 19.942 9.411 0
    endloop
  endfacet
  facet normal -0.860399 -0.509621 0
    outer loop
      vertex 20.103 9.156 1.1
      vertex 20.026 9.286 1.1
      vertex 20.103 9.156 0
    endloop
  endfacet
  facet normal -0.860399 -0.509621 0
    outer loop
      vertex 20.103 9.156 0
      vertex 20.026 9.286 1.1
      vertex 20.026 9.286 0
    endloop
  endfacet
  facet normal -0.889056 -0.457798 0
    outer loop
      vertex 20.172 9.022 1.1
      vertex 20.103 9.156 1.1
      vertex 20.172 9.022 0
    endloop
  endfacet
  facet normal -0.889056 -0.457798 0
    outer loop
      vertex 20.172 9.022 0
      vertex 20.103 9.156 1.1
      vertex 20.103 9.156 0
    endloop
  endfacet
  facet normal -0.92051 -0.39072 0
    outer loop
      vertex 20.231 8.883 1.1
      vertex 20.172 9.022 1.1
      vertex 20.231 8.883 0
    endloop
  endfacet
  facet normal -0.92051 -0.39072 0
    outer loop
      vertex 20.231 8.883 0
      vertex 20.172 9.022 1.1
      vertex 20.172 9.022 0
    endloop
  endfacet
  facet normal -0.938229 -0.346014 0
    outer loop
      vertex 20.283 8.742 1.1
      vertex 20.231 8.883 1.1
      vertex 20.283 8.742 0
    endloop
  endfacet
  facet normal -0.938229 -0.346014 0
    outer loop
      vertex 20.283 8.742 0
      vertex 20.231 8.883 1.1
      vertex 20.231 8.883 0
    endloop
  endfacet
  facet normal -0.960518 -0.278219 0
    outer loop
      vertex 20.325 8.597 1.1
      vertex 20.283 8.742 1.1
      vertex 20.325 8.597 0
    endloop
  endfacet
  facet normal -0.960518 -0.278219 0
    outer loop
      vertex 20.325 8.597 0
      vertex 20.283 8.742 1.1
      vertex 20.283 8.742 0
    endloop
  endfacet
  facet normal -0.977116 -0.212706 0
    outer loop
      vertex 20.357 8.45 1.1
      vertex 20.325 8.597 1.1
      vertex 20.357 8.45 0
    endloop
  endfacet
  facet normal -0.977116 -0.212706 0
    outer loop
      vertex 20.357 8.45 0
      vertex 20.325 8.597 1.1
      vertex 20.325 8.597 0
    endloop
  endfacet
  facet normal -0.987275 -0.159024 0
    outer loop
      vertex 20.381 8.301 1.1
      vertex 20.357 8.45 1.1
      vertex 20.381 8.301 0
    endloop
  endfacet
  facet normal -0.987275 -0.159024 0
    outer loop
      vertex 20.381 8.301 0
      vertex 20.357 8.45 1.1
      vertex 20.357 8.45 0
    endloop
  endfacet
  facet normal -0.995673 -0.0929295 0
    outer loop
      vertex 20.395 8.151 1.1
      vertex 20.381 8.301 1.1
      vertex 20.395 8.151 0
    endloop
  endfacet
  facet normal -0.995673 -0.0929295 0
    outer loop
      vertex 20.395 8.151 0
      vertex 20.381 8.301 1.1
      vertex 20.381 8.301 0
    endloop
  endfacet
  facet normal -0.999452 -0.0330944 0
    outer loop
      vertex 20.4 8 1.1
      vertex 20.395 8.151 1.1
      vertex 20.4 8 0
    endloop
  endfacet
  facet normal -0.999452 -0.0330944 0
    outer loop
      vertex 20.4 8 0
      vertex 20.395 8.151 1.1
      vertex 20.395 8.151 0
    endloop
  endfacet
  facet normal -0.999452 0.0330944 0
    outer loop
      vertex 20.4 8 1.1
      vertex 20.4 8 0
      vertex 20.395 7.849 1.1
    endloop
  endfacet
  facet normal -0.999452 0.0330944 0
    outer loop
      vertex 20.395 7.849 1.1
      vertex 20.4 8 0
      vertex 20.395 7.849 0
    endloop
  endfacet
  facet normal -0.995673 0.0929295 0
    outer loop
      vertex 20.395 7.849 1.1
      vertex 20.395 7.849 0
      vertex 20.381 7.699 1.1
    endloop
  endfacet
  facet normal -0.995673 0.0929295 0
    outer loop
      vertex 20.381 7.699 1.1
      vertex 20.395 7.849 0
      vertex 20.381 7.699 0
    endloop
  endfacet
  facet normal -0.987275 0.159024 0
    outer loop
      vertex 20.381 7.699 1.1
      vertex 20.381 7.699 0
      vertex 20.357 7.55 1.1
    endloop
  endfacet
  facet normal -0.987275 0.159024 0
    outer loop
      vertex 20.357 7.55 1.1
      vertex 20.381 7.699 0
      vertex 20.357 7.55 0
    endloop
  endfacet
  facet normal -0.977116 0.212706 0
    outer loop
      vertex 20.357 7.55 1.1
      vertex 20.357 7.55 0
      vertex 20.325 7.403 1.1
    endloop
  endfacet
  facet normal -0.977116 0.212706 0
    outer loop
      vertex 20.325 7.403 1.1
      vertex 20.357 7.55 0
      vertex 20.325 7.403 0
    endloop
  endfacet
  facet normal -0.960518 0.278219 0
    outer loop
      vertex 20.325 7.403 1.1
      vertex 20.325 7.403 0
      vertex 20.283 7.258 1.1
    endloop
  endfacet
  facet normal -0.960518 0.278219 0
    outer loop
      vertex 20.283 7.258 1.1
      vertex 20.325 7.403 0
      vertex 20.283 7.258 0
    endloop
  endfacet
  facet normal -0.938229 0.346014 0
    outer loop
      vertex 20.283 7.258 1.1
      vertex 20.283 7.258 0
      vertex 20.231 7.117 1.1
    endloop
  endfacet
  facet normal -0.938229 0.346014 0
    outer loop
      vertex 20.231 7.117 1.1
      vertex 20.283 7.258 0
      vertex 20.231 7.117 0
    endloop
  endfacet
  facet normal -0.92051 0.39072 0
    outer loop
      vertex 20.231 7.117 1.1
      vertex 20.231 7.117 0
      vertex 20.172 6.978 1.1
    endloop
  endfacet
  facet normal -0.92051 0.39072 0
    outer loop
      vertex 20.172 6.978 1.1
      vertex 20.231 7.117 0
      vertex 20.172 6.978 0
    endloop
  endfacet
  facet normal -0.889056 0.457798 0
    outer loop
      vertex 20.172 6.978 1.1
      vertex 20.172 6.978 0
      vertex 20.103 6.844 1.1
    endloop
  endfacet
  facet normal -0.889056 0.457798 0
    outer loop
      vertex 20.103 6.844 1.1
      vertex 20.172 6.978 0
      vertex 20.103 6.844 0
    endloop
  endfacet
  facet normal -0.860399 0.509621 0
    outer loop
      vertex 20.103 6.844 1.1
      vertex 20.103 6.844 0
      vertex 20.026 6.714 1.1
    endloop
  endfacet
  facet normal -0.860399 0.509621 0
    outer loop
      vertex 20.026 6.714 1.1
      vertex 20.103 6.844 0
      vertex 20.026 6.714 0
    endloop
  endfacet
  facet normal -0.830002 0.557761 0
    outer loop
      vertex 20.026 6.714 1.1
      vertex 20.026 6.714 0
      vertex 19.942 6.589 1.1
    endloop
  endfacet
  facet normal -0.830002 0.557761 0
    outer loop
      vertex 19.942 6.589 1.1
      vertex 20.026 6.714 0
      vertex 19.942 6.589 0
    endloop
  endfacet
  facet normal -0.787924 0.615773 0
    outer loop
      vertex 19.942 6.589 1.1
      vertex 19.942 6.589 0
      vertex 19.849 6.47 1.1
    endloop
  endfacet
  facet normal -0.787924 0.615773 0
    outer loop
      vertex 19.849 6.47 1.1
      vertex 19.942 6.589 0
      vertex 19.849 6.47 0
    endloop
  endfacet
  facet normal -0.752164 0.658976 0
    outer loop
      vertex 19.849 6.47 1.1
      vertex 19.849 6.47 0
      vertex 19.75 6.357 1.1
    endloop
  endfacet
  facet normal -0.752164 0.658976 0
    outer loop
      vertex 19.75 6.357 1.1
      vertex 19.849 6.47 0
      vertex 19.75 6.357 0
    endloop
  endfacet
  facet normal -0.707107 0.707107 0
    outer loop
      vertex 19.75 6.357 1.1
      vertex 19.75 6.357 0
      vertex 19.643 6.25 1.1
    endloop
  endfacet
  facet normal -0.707107 0.707107 0
    outer loop
      vertex 19.643 6.25 1.1
      vertex 19.75 6.357 0
      vertex 19.643 6.25 0
    endloop
  endfacet
  facet normal -0.658976 0.752164 0
    outer loop
      vertex 19.643 6.25 1.1
      vertex 19.643 6.25 0
      vertex 19.53 6.151 1.1
    endloop
  endfacet
  facet normal -0.658976 0.752164 0
    outer loop
      vertex 19.53 6.151 1.1
      vertex 19.643 6.25 0
      vertex 19.53 6.151 0
    endloop
  endfacet
  facet normal -0.615773 0.787924 0
    outer loop
      vertex 19.53 6.151 1.1
      vertex 19.53 6.151 0
      vertex 19.411 6.058 1.1
    endloop
  endfacet
  facet normal -0.615773 0.787924 0
    outer loop
      vertex 19.411 6.058 1.1
      vertex 19.53 6.151 0
      vertex 19.411 6.058 0
    endloop
  endfacet
  facet normal -0.557761 0.830002 0
    outer loop
      vertex 19.411 6.058 1.1
      vertex 19.411 6.058 0
      vertex 19.286 5.974 1.1
    endloop
  endfacet
  facet normal -0.557761 0.830002 0
    outer loop
      vertex 19.286 5.974 1.1
      vertex 19.411 6.058 0
      vertex 19.286 5.974 0
    endloop
  endfacet
  facet normal -0.509621 0.860399 0
    outer loop
      vertex 19.286 5.974 1.1
      vertex 19.286 5.974 0
      vertex 19.156 5.897 1.1
    endloop
  endfacet
  facet normal -0.509621 0.860399 0
    outer loop
      vertex 19.156 5.897 1.1
      vertex 19.286 5.974 0
      vertex 19.156 5.897 0
    endloop
  endfacet
  facet normal -0.457798 0.889056 0
    outer loop
      vertex 19.156 5.897 1.1
      vertex 19.156 5.897 0
      vertex 19.022 5.828 1.1
    endloop
  endfacet
  facet normal -0.457798 0.889056 0
    outer loop
      vertex 19.022 5.828 1.1
      vertex 19.156 5.897 0
      vertex 19.022 5.828 0
    endloop
  endfacet
  facet normal -0.39072 0.92051 0
    outer loop
      vertex 19.022 5.828 1.1
      vertex 19.022 5.828 0
      vertex 18.883 5.769 1.1
    endloop
  endfacet
  facet normal -0.39072 0.92051 0
    outer loop
      vertex 18.883 5.769 1.1
      vertex 19.022 5.828 0
      vertex 18.883 5.769 0
    endloop
  endfacet
  facet normal -0.346014 0.938229 0
    outer loop
      vertex 18.883 5.769 1.1
      vertex 18.883 5.769 0
      vertex 18.742 5.717 1.1
    endloop
  endfacet
  facet normal -0.346014 0.938229 0
    outer loop
      vertex 18.742 5.717 1.1
      vertex 18.883 5.769 0
      vertex 18.742 5.717 0
    endloop
  endfacet
  facet normal -0.278219 0.960518 0
    outer loop
      vertex 18.742 5.717 1.1
      vertex 18.742 5.717 0
      vertex 18.597 5.675 1.1
    endloop
  endfacet
  facet normal -0.278219 0.960518 0
    outer loop
      vertex 18.597 5.675 1.1
      vertex 18.742 5.717 0
      vertex 18.597 5.675 0
    endloop
  endfacet
  facet normal -0.212706 0.977116 0
    outer loop
      vertex 18.597 5.675 1.1
      vertex 18.597 5.675 0
      vertex 18.45 5.643 1.1
    endloop
  endfacet
  facet normal -0.212706 0.977116 0
    outer loop
      vertex 18.45 5.643 1.1
      vertex 18.597 5.675 0
      vertex 18.45 5.643 0
    endloop
  endfacet
  facet normal -0.159024 0.987275 0
    outer loop
      vertex 18.45 5.643 1.1
      vertex 18.45 5.643 0
      vertex 18.301 5.619 1.1
    endloop
  endfacet
  facet normal -0.159024 0.987275 0
    outer loop
      vertex 18.301 5.619 1.1
      vertex 18.45 5.643 0
      vertex 18.301 5.619 0
    endloop
  endfacet
  facet normal -0.0929295 0.995673 0
    outer loop
      vertex 18.301 5.619 1.1
      vertex 18.301 5.619 0
      vertex 18.151 5.605 1.1
    endloop
  endfacet
  facet normal -0.0929295 0.995673 0
    outer loop
      vertex 18.151 5.605 1.1
      vertex 18.301 5.619 0
      vertex 18.151 5.605 0
    endloop
  endfacet
  facet normal -0.0330944 0.999452 0
    outer loop
      vertex 18.151 5.605 1.1
      vertex 18.151 5.605 0
      vertex 18 5.6 1.1
    endloop
  endfacet
  facet normal -0.0330944 0.999452 0
    outer loop
      vertex 18 5.6 1.1
      vertex 18.151 5.605 0
      vertex 18 5.6 0
    endloop
  endfacet
  facet normal 0.0330944 0.999452 0
    outer loop
      vertex 18 5.6 1.1
      vertex 18 5.6 0
      vertex 17.849 5.605 1.1
    endloop
  endfacet
  facet normal 0.0330944 0.999452 0
    outer loop
      vertex 17.849 5.605 1.1
      vertex 18 5.6 0
      vertex 17.849 5.605 0
    endloop
  endfacet
  facet normal 0.0929295 0.995673 0
    outer loop
      vertex 17.849 5.605 1.1
      vertex 17.849 5.605 0
      vertex 17.699 5.619 1.1
    endloop
  endfacet
  facet normal 0.0929295 0.995673 0
    outer loop
      vertex 17.699 5.619 1.1
      vertex 17.849 5.605 0
      vertex 17.699 5.619 0
    endloop
  endfacet
  facet normal 0.159024 0.987275 0
    outer loop
      vertex 17.699 5.619 1.1
      vertex 17.699 5.619 0
      vertex 17.55 5.643 1.1
    endloop
  endfacet
  facet normal 0.159024 0.987275 0
    outer loop
      vertex 17.55 5.643 1.1
      vertex 17.699 5.619 0
      vertex 17.55 5.643 0
    endloop
  endfacet
  facet normal 0.212706 0.977116 0
    outer loop
      vertex 17.55 5.643 1.1
      vertex 17.55 5.643 0
      vertex 17.403 5.675 1.1
    endloop
  endfacet
  facet normal 0.212706 0.977116 0
    outer loop
      vertex 17.403 5.675 1.1
      vertex 17.55 5.643 0
      vertex 17.403 5.675 0
    endloop
  endfacet
  facet normal 0.278219 0.960518 0
    outer loop
      vertex 17.403 5.675 1.1
      vertex 17.403 5.675 0
      vertex 17.258 5.717 1.1
    endloop
  endfacet
  facet normal 0.278219 0.960518 0
    outer loop
      vertex 17.258 5.717 1.1
      vertex 17.403 5.675 0
      vertex 17.258 5.717 0
    endloop
  endfacet
  facet normal 0.346014 0.938229 0
    outer loop
      vertex 17.258 5.717 1.1
      vertex 17.258 5.717 0
      vertex 17.117 5.769 1.1
    endloop
  endfacet
  facet normal 0.346014 0.938229 0
    outer loop
      vertex 17.117 5.769 1.1
      vertex 17.258 5.717 0
      vertex 17.117 5.769 0
    endloop
  endfacet
  facet normal 0.39072 0.92051 0
    outer loop
      vertex 17.117 5.769 1.1
      vertex 17.117 5.769 0
      vertex 16.978 5.828 1.1
    endloop
  endfacet
  facet normal 0.39072 0.92051 0
    outer loop
      vertex 16.978 5.828 1.1
      vertex 17.117 5.769 0
      vertex 16.978 5.828 0
    endloop
  endfacet
  facet normal 0.457798 0.889056 0
    outer loop
      vertex 16.978 5.828 1.1
      vertex 16.978 5.828 0
      vertex 16.844 5.897 1.1
    endloop
  endfacet
  facet normal 0.457798 0.889056 0
    outer loop
      vertex 16.844 5.897 1.1
      vertex 16.978 5.828 0
      vertex 16.844 5.897 0
    endloop
  endfacet
  facet normal 0.509621 0.860399 0
    outer loop
      vertex 16.844 5.897 1.1
      vertex 16.844 5.897 0
      vertex 16.714 5.974 1.1
    endloop
  endfacet
  facet normal 0.509621 0.860399 0
    outer loop
      vertex 16.714 5.974 1.1
      vertex 16.844 5.897 0
      vertex 16.714 5.974 0
    endloop
  endfacet
  facet normal 0.557761 0.830002 0
    outer loop
      vertex 16.714 5.974 1.1
      vertex 16.714 5.974 0
      vertex 16.589 6.058 1.1
    endloop
  endfacet
  facet normal 0.557761 0.830002 0
    outer loop
      vertex 16.589 6.058 1.1
      vertex 16.714 5.974 0
      vertex 16.589 6.058 0
    endloop
  endfacet
  facet normal 0.615773 0.787924 0
    outer loop
      vertex 16.589 6.058 1.1
      vertex 16.589 6.058 0
      vertex 16.47 6.151 1.1
    endloop
  endfacet
  facet normal 0.615773 0.787924 0
    outer loop
      vertex 16.47 6.151 1.1
      vertex 16.589 6.058 0
      vertex 16.47 6.151 0
    endloop
  endfacet
  facet normal 0.658976 0.752164 0
    outer loop
      vertex 16.47 6.151 1.1
      vertex 16.47 6.151 0
      vertex 16.357 6.25 1.1
    endloop
  endfacet
  facet normal 0.658976 0.752164 0
    outer loop
      vertex 16.357 6.25 1.1
      vertex 16.47 6.151 0
      vertex 16.357 6.25 0
    endloop
  endfacet
  facet normal 0.707107 0.707107 0
    outer loop
      vertex 16.357 6.25 1.1
      vertex 16.357 6.25 0
      vertex 16.25 6.357 1.1
    endloop
  endfacet
  facet normal 0.707107 0.707107 0
    outer loop
      vertex 16.25 6.357 1.1
      vertex 16.357 6.25 0
      vertex 16.25 6.357 0
    endloop
  endfacet
  facet normal 0.752164 0.658976 0
    outer loop
      vertex 16.151 6.47 1.1
      vertex 16.25 6.357 1.1
      vertex 16.25 6.357 0
    endloop
  endfacet
  facet normal 0.752164 0.658976 0
    outer loop
      vertex 16.151 6.47 0
      vertex 16.151 6.47 1.1
      vertex 16.25 6.357 0
    endloop
  endfacet
  facet normal 0.787924 0.615773 0
    outer loop
      vertex 16.058 6.589 1.1
      vertex 16.151 6.47 1.1
      vertex 16.151 6.47 0
    endloop
  endfacet
  facet normal 0.787924 0.615773 0
    outer loop
      vertex 16.058 6.589 0
      vertex 16.058 6.589 1.1
      vertex 16.151 6.47 0
    endloop
  endfacet
  facet normal 0.830002 0.557761 0
    outer loop
      vertex 15.974 6.714 1.1
      vertex 16.058 6.589 1.1
      vertex 16.058 6.589 0
    endloop
  endfacet
  facet normal 0.830002 0.557761 0
    outer loop
      vertex 15.974 6.714 0
      vertex 15.974 6.714 1.1
      vertex 16.058 6.589 0
    endloop
  endfacet
  facet normal 0.860399 0.509621 0
    outer loop
      vertex 15.897 6.844 1.1
      vertex 15.974 6.714 1.1
      vertex 15.974 6.714 0
    endloop
  endfacet
  facet normal 0.860399 0.509621 0
    outer loop
      vertex 15.897 6.844 0
      vertex 15.897 6.844 1.1
      vertex 15.974 6.714 0
    endloop
  endfacet
  facet normal 0.889056 0.457798 0
    outer loop
      vertex 15.828 6.978 1.1
      vertex 15.897 6.844 1.1
      vertex 15.897 6.844 0
    endloop
  endfacet
  facet normal 0.889056 0.457798 0
    outer loop
      vertex 15.828 6.978 0
      vertex 15.828 6.978 1.1
      vertex 15.897 6.844 0
    endloop
  endfacet
  facet normal 0.92051 0.39072 0
    outer loop
      vertex 15.769 7.117 1.1
      vertex 15.828 6.978 1.1
      vertex 15.828 6.978 0
    endloop
  endfacet
  facet normal 0.92051 0.39072 0
    outer loop
      vertex 15.769 7.117 0
      vertex 15.769 7.117 1.1
      vertex 15.828 6.978 0
    endloop
  endfacet
  facet normal 0.938229 0.346014 0
    outer loop
      vertex 15.717 7.258 1.1
      vertex 15.769 7.117 1.1
      vertex 15.769 7.117 0
    endloop
  endfacet
  facet normal 0.938229 0.346014 0
    outer loop
      vertex 15.717 7.258 0
      vertex 15.717 7.258 1.1
      vertex 15.769 7.117 0
    endloop
  endfacet
  facet normal 0.960518 0.278219 0
    outer loop
      vertex 15.675 7.403 1.1
      vertex 15.717 7.258 1.1
      vertex 15.717 7.258 0
    endloop
  endfacet
  facet normal 0.960518 0.278219 0
    outer loop
      vertex 15.675 7.403 0
      vertex 15.675 7.403 1.1
      vertex 15.717 7.258 0
    endloop
  endfacet
  facet normal 0.977116 0.212706 0
    outer loop
      vertex 15.643 7.55 1.1
      vertex 15.675 7.403 1.1
      vertex 15.675 7.403 0
    endloop
  endfacet
  facet normal 0.977116 0.212706 0
    outer loop
      vertex 15.643 7.55 0
      vertex 15.643 7.55 1.1
      vertex 15.675 7.403 0
    endloop
  endfacet
  facet normal 0.987275 0.159024 0
    outer loop
      vertex 15.619 7.699 1.1
      vertex 15.643 7.55 1.1
      vertex 15.643 7.55 0
    endloop
  endfacet
  facet normal 0.987275 0.159024 0
    outer loop
      vertex 15.619 7.699 0
      vertex 15.619 7.699 1.1
      vertex 15.643 7.55 0
    endloop
  endfacet
  facet normal 0.995673 0.0929295 0
    outer loop
      vertex 15.605 7.849 1.1
      vertex 15.619 7.699 1.1
      vertex 15.619 7.699 0
    endloop
  endfacet
  facet normal 0.995673 0.0929295 0
    outer loop
      vertex 15.605 7.849 0
      vertex 15.605 7.849 1.1
      vertex 15.619 7.699 0
    endloop
  endfacet
  facet normal 0 0 1
    outer loop
      vertex 0 16 3.5
      vertex 0 13.6 3.5
      vertex 36 12.8 3.5
    endloop
  endfacet
  facet normal 0 0 1
    outer loop
      vertex 36 16 3.5
      vertex 0 16 3.5
      vertex 36 12.8 3.5
    endloop
  endfacet
  facet normal -0.0222167 -0.999753 0
    outer loop
      vertex 36 12.8 1.1
      vertex 36 12.8 3.5
      vertex 0 13.6 3.5
    endloop
  endfacet
  facet normal -0.0222167 -0.999753 0
    outer loop
      vertex 0 13.6 1.1
      vertex 36 12.8 1.1
      vertex 0 13.6 3.5
    endloop
  endfacet
  facet normal 0 0 1
    outer loop
      vertex 17.699 10.381 1.1
      vertex 36 12.8 1.1
      vertex 0 13.6 1.1
    endloop
  endfacet
  facet normal 0 0 1
    outer loop
      vertex 17.699 10.381 1.1
      vertex 17.849 10.395 1.1
      vertex 36 12.8 1.1
    endloop
  endfacet
  facet normal 0 0 1
    outer loop
      vertex 0 2.4 1.1
      vertex 15.6 8 1.1
      vertex 0 13.6 1.1
    endloop
  endfacet
  facet normal 0 0 1
    outer loop
      vertex 15.6 8 1.1
      vertex 15.605 8.151 1.1
      vertex 0 13.6 1.1
    endloop
  endfacet
  facet normal 0 0 1
    outer loop
      vertex 15.605 8.151 1.1
      vertex 15.619 8.301 1.1
      vertex 0 13.6 1.1
    endloop
  endfacet
  facet normal 0 0 1
    outer loop
      vertex 15.619 8.301 1.1
      vertex 15.643 8.45 1.1
      vertex 0 13.6 1.1
    endloop
  endfacet
  facet normal 0 0 1
    outer loop
      vertex 20.231 7.117 1.1
      vertex 20.172 6.978 1.1
      vertex 36 3.2 1.1
    endloop
  endfacet
  facet normal 0 0 1
    outer loop
      vertex 15.643 8.45 1.1
      vertex 15.675 8.597 1.1
      vertex 0 13.6 1.1
    endloop
  endfacet
  facet normal 0 0 1
    outer loop
      vertex 15.675 8.597 1.1
      vertex 15.717 8.742 1.1
      vertex 0 13.6 1.1
    endloop
  endfacet
  facet normal 0 0 1
    outer loop
      vertex 15.717 8.742 1.1
      vertex 15.769 8.883 1.1
      vertex 0 13.6 1.1
    endloop
  endfacet
  facet normal 0 0 1
    outer loop
      vertex 15.769 8.883 1.1
      vertex 15.828 9.022 1.1
      vertex 0 13.6 1.1
    endloop
  endfacet
  facet normal 0 0 1
    outer loop
      vertex 15.897 9.156 1.1
      vertex 15.974 9.286 1.1
      vertex 0 13.6 1.1
    endloop
  endfacet
  facet normal 0 0 1
    outer loop
      vertex 15.974 9.286 1.1
      vertex 16.058 9.411 1.1
      vertex 0 13.6 1.1
    endloop
  endfacet
  facet normal 0 0 1
    outer loop
      vertex 16.058 9.411 1.1
      vertex 16.151 9.53 1.1
      vertex 0 13.6 1.1
    endloop
  endfacet
  facet normal 0 0 1
    outer loop
      vertex 16.151 9.53 1.1
      vertex 16.25 9.643 1.1
      vertex 0 13.6 1.1
    endloop
  endfacet
  facet normal 0 0 1
    outer loop
      vertex 16.25 9.643 1.1
      vertex 16.357 9.75 1.1
      vertex 0 13.6 1.1
    endloop
  endfacet
  facet normal 0 0 1
    outer loop
      vertex 19.156 10.103 1.1
      vertex 19.286 10.026 1.1
      vertex 36 12.8 1.1
    endloop
  endfacet
  facet normal 0 0 1
    outer loop
      vertex 16.357 9.75 1.1
      vertex 16.47 9.849 1.1
      vertex 0 13.6 1.1
    endloop
  endfacet
  facet normal 0 0 1
    outer loop
      vertex 16.47 9.849 1.1
      vertex 16.589 9.942 1.1
      vertex 0 13.6 1.1
    endloop
  endfacet
  facet normal 0 0 1
    outer loop
      vertex 16.589 9.942 1.1
      vertex 16.714 10.026 1.1
      vertex 0 13.6 1.1
    endloop
  endfacet
  facet normal 0 0 1
    outer loop
      vertex 16.714 10.026 1.1
      vertex 16.844 10.103 1.1
      vertex 0 13.6 1.1
    endloop
  endfacet
  facet normal 0 0 1
    outer loop
      vertex 16.844 10.103 1.1
      vertex 16.978 10.172 1.1
      vertex 0 13.6 1.1
    endloop
  endfacet
  facet normal 0 0 1
    outer loop
      vertex 16.978 10.172 1.1
      vertex 17.117 10.231 1.1
      vertex 0 13.6 1.1
    endloop
  endfacet
  facet normal 0 0 1
    outer loop
      vertex 17.117 10.231 1.1
      vertex 17.258 10.283 1.1
      vertex 0 13.6 1.1
    endloop
  endfacet
  facet normal 0 0 1
    outer loop
      vertex 17.258 10.283 1.1
      vertex 17.403 10.325 1.1
      vertex 0 13.6 1.1
    endloop
  endfacet
  facet normal 0 0 1
    outer loop
      vertex 17.403 10.325 1.1
      vertex 17.55 10.357 1.1
      vertex 0 13.6 1.1
    endloop
  endfacet
  facet normal 0 0 1
    outer loop
      vertex 17.55 10.357 1.1
      vertex 17.699 10.381 1.1
      vertex 0 13.6 1.1
    endloop
  endfacet
  facet normal 0 0 1
    outer loop
      vertex 17.849 10.395 1.1
      vertex 18 10.4 1.1
      vertex 36 12.8 1.1
    endloop
  endfacet
  facet normal 0 0 1
    outer loop
      vertex 18 10.4 1.1
      vertex 18.151 10.395 1.1
      vertex 36 12.8 1.1
    endloop
  endfacet
  facet normal 0 0 1
    outer loop
      vertex 18.151 10.395 1.1
      vertex 18.301 10.381 1.1
      vertex 36 12.8 1.1
    endloop
  endfacet
  facet normal 0 0 1
    outer loop
      vertex 18.301 10.381 1.1
      vertex 18.45 10.357 1.1
      vertex 36 12.8 1.1
    endloop
  endfacet
  facet normal 0 0 1
    outer loop
      vertex 18.45 10.357 1.1
      vertex 18.597 10.325 1.1
      vertex 36 12.8 1.1
    endloop
  endfacet
  facet normal 0 0 1
    outer loop
      vertex 18.597 10.325 1.1
      vertex 18.742 10.283 1.1
      vertex 36 12.8 1.1
    endloop
  endfacet
  facet normal 0 0 1
    outer loop
      vertex 18.742 10.283 1.1
      vertex 18.883 10.231 1.1
      vertex 36 12.8 1.1
    endloop
  endfacet
  facet normal 0 0 1
    outer loop
      vertex 18.883 10.231 1.1
      vertex 19.022 10.172 1.1
      vertex 36 12.8 1.1
    endloop
  endfacet
  facet normal 0 0 1
    outer loop
      vertex 20.395 7.849 1.1
      vertex 20.381 7.699 1.1
      vertex 36 3.2 1.1
    endloop
  endfacet
  facet normal 0 0 1
    outer loop
      vertex 19.286 10.026 1.1
      vertex 19.411 9.942 1.1
      vertex 36 12.8 1.1
    endloop
  endfacet
  facet normal 0 0 1
    outer loop
      vertex 19.411 9.942 1.1
      vertex 19.53 9.849 1.1
      vertex 36 12.8 1.1
    endloop
  endfacet
  facet normal 0 0 1
    outer loop
      vertex 19.53 9.849 1.1
      vertex 19.643 9.75 1.1
      vertex 36 12.8 1.1
    endloop
  endfacet
  facet normal 0 0 1
    outer loop
      vertex 36 3.2 1.1
      vertex 36 12.8 1.1
      vertex 19.643 9.75 1.1
    endloop
  endfacet
  facet normal 0 0 1
    outer loop
      vertex 36 3.2 1.1
      vertex 19.643 9.75 1.1
      vertex 19.75 9.643 1.1
    endloop
  endfacet
  facet normal 0 0 1
    outer loop
      vertex 36 3.2 1.1
      vertex 19.75 9.643 1.1
      vertex 19.849 9.53 1.1
    endloop
  endfacet
  facet normal 0 0 1
    outer loop
      vertex 36 3.2 1.1
      vertex 19.849 9.53 1.1
      vertex 19.942 9.411 1.1
    endloop
  endfacet
  facet normal 0 0 1
    outer loop
      vertex 36 3.2 1.1
      vertex 19.942 9.411 1.1
      vertex 20.026 9.286 1.1
    endloop
  endfacet
  facet normal 0 0 1
    outer loop
      vertex 36 3.2 1.1
      vertex 20.026 9.286 1.1
      vertex 20.103 9.156 1.1
    endloop
  endfacet
  facet normal 0 0 1
    outer loop
      vertex 36 3.2 1.1
      vertex 20.103 9.156 1.1
      vertex 20.172 9.022 1.1
    endloop
  endfacet
  facet normal 0 0 1
    outer loop
      vertex 36 3.2 1.1
      vertex 20.172 9.022 1.1
      vertex 20.231 8.883 1.1
    endloop
  endfacet
  facet normal 0 0 1
    outer loop
      vertex 36 3.2 1.1
      vertex 20.231 8.883 1.1
      vertex 20.283 8.742 1.1
    endloop
  endfacet
  facet normal 0 0 1
    outer loop
      vertex 36 3.2 1.1
      vertex 20.283 8.742 1.1
      vertex 20.325 8.597 1.1
    endloop
  endfacet
  facet normal 0 0 1
    outer loop
      vertex 36 3.2 1.1
      vertex 20.325 8.597 1.1
      vertex 20.357 8.45 1.1
    endloop
  endfacet
  facet normal 0 0 1
    outer loop
      vertex 36 3.2 1.1
      vertex 20.357 8.45 1.1
      vertex 20.381 8.301 1.1
    endloop
  endfacet
  facet normal 0 0 1
    outer loop
      vertex 36 3.2 1.1
      vertex 20.381 8.301 1.1
      vertex 20.395 8.151 1.1
    endloop
  endfacet
  facet normal 0 0 1
    outer loop
      vertex 36 3.2 1.1
      vertex 20.395 8.151 1.1
      vertex 20.4 8 1.1
    endloop
  endfacet
  facet normal 0 0 1
    outer loop
      vertex 20.283 7.258 1.1
      vertex 20.231 7.117 1.1
      vertex 36 3.2 1.1
    endloop
  endfacet
  facet normal 0 0 1
    outer loop
      vertex 36 3.2 1.1
      vertex 20.4 8 1.1
      vertex 20.395 7.849 1.1
    endloop
  endfacet
  facet normal 0 0 1
    outer loop
      vertex 20.357 7.55 1.1
      vertex 20.325 7.403 1.1
      vertex 36 3.2 1.1
    endloop
  endfacet
  facet normal 0 0 1
    outer loop
      vertex 20.325 7.403 1.1
      vertex 20.283 7.258 1.1
      vertex 36 3.2 1.1
    endloop
  endfacet
  facet normal 0 0 1
    outer loop
      vertex 17.403 5.675 1.1
      vertex 17.258 5.717 1.1
      vertex 0 2.4 1.1
    endloop
  endfacet
  facet normal 0 0 1
    outer loop
      vertex 20.172 6.978 1.1
      vertex 20.103 6.844 1.1
      vertex 36 3.2 1.1
    endloop
  endfacet
  facet normal 0 0 1
    outer loop
      vertex 18.301 5.619 1.1
      vertex 18.151 5.605 1.1
      vertex 0 2.4 1.1
    endloop
  endfacet
  facet normal 0 0 1
    outer loop
      vertex 20.026 6.714 1.1
      vertex 36 3.2 1.1
      vertex 20.103 6.844 1.1
    endloop
  endfacet
  facet normal 0 0 1
    outer loop
      vertex 19.942 6.589 1.1
      vertex 36 3.2 1.1
      vertex 20.026 6.714 1.1
    endloop
  endfacet
  facet normal 0 0 1
    outer loop
      vertex 19.849 6.47 1.1
      vertex 36 3.2 1.1
      vertex 19.942 6.589 1.1
    endloop
  endfacet
  facet normal 0 0 1
    outer loop
      vertex 19.75 6.357 1.1
      vertex 36 3.2 1.1
      vertex 19.849 6.47 1.1
    endloop
  endfacet
  facet normal 0 0 1
    outer loop
      vertex 19.643 6.25 1.1
      vertex 36 3.2 1.1
      vertex 19.75 6.357 1.1
    endloop
  endfacet
  facet normal 0 0 1
    outer loop
      vertex 19.53 6.151 1.1
      vertex 36 3.2 1.1
      vertex 19.643 6.25 1.1
    endloop
  endfacet
  facet normal 0 0 1
    outer loop
      vertex 19.411 6.058 1.1
      vertex 36 3.2 1.1
      vertex 19.53 6.151 1.1
    endloop
  endfacet
  facet normal 0 0 1
    outer loop
      vertex 17.258 5.717 1.1
      vertex 17.117 5.769 1.1
      vertex 0 2.4 1.1
    endloop
  endfacet
  facet normal 0 0 1
    outer loop
      vertex 19.286 5.974 1.1
      vertex 36 3.2 1.1
      vertex 19.411 6.058 1.1
    endloop
  endfacet
  facet normal 0 0 1
    outer loop
      vertex 19.156 5.897 1.1
      vertex 36 3.2 1.1
      vertex 19.286 5.974 1.1
    endloop
  endfacet
  facet normal 0 0 1
    outer loop
      vertex 19.022 5.828 1.1
      vertex 36 3.2 1.1
      vertex 19.156 5.897 1.1
    endloop
  endfacet
  facet normal 0 0 1
    outer loop
      vertex 18.883 5.769 1.1
      vertex 36 3.2 1.1
      vertex 19.022 5.828 1.1
    endloop
  endfacet
  facet normal 0 0 1
    outer loop
      vertex 18.742 5.717 1.1
      vertex 36 3.2 1.1
      vertex 18.883 5.769 1.1
    endloop
  endfacet
  facet normal 0 0 1
    outer loop
      vertex 18.597 5.675 1.1
      vertex 36 3.2 1.1
      vertex 18.742 5.717 1.1
    endloop
  endfacet
  facet normal 0 0 1
    outer loop
      vertex 18.45 5.643 1.1
      vertex 36 3.2 1.1
      vertex 18.597 5.675 1.1
    endloop
  endfacet
  facet normal 0 0 1
    outer loop
      vertex 0 2.4 1.1
      vertex 36 3.2 1.1
      vertex 18.45 5.643 1.1
    endloop
  endfacet
  facet normal 0 0 1
    outer loop
      vertex 18.151 5.605 1.1
      vertex 18 5.6 1.1
      vertex 0 2.4 1.1
    endloop
  endfacet
  facet normal 0 0 1
    outer loop
      vertex 0 2.4 1.1
      vertex 18.45 5.643 1.1
      vertex 18.301 5.619 1.1
    endloop
  endfacet
  facet normal 0 0 1
    outer loop
      vertex 18 5.6 1.1
      vertex 17.849 5.605 1.1
      vertex 0 2.4 1.1
    endloop
  endfacet
  facet normal 0 0 1
    outer loop
      vertex 17.849 5.605 1.1
      vertex 17.699 5.619 1.1
      vertex 0 2.4 1.1
    endloop
  endfacet
  facet normal 0 0 1
    outer loop
      vertex 17.699 5.619 1.1
      vertex 17.55 5.643 1.1
      vertex 0 2.4 1.1
    endloop
  endfacet
  facet normal 0 0 1
    outer loop
      vertex 17.55 5.643 1.1
      vertex 17.403 5.675 1.1
      vertex 0 2.4 1.1
    endloop
  endfacet
  facet normal 0 0 1
    outer loop
      vertex 17.117 5.769 1.1
      vertex 16.978 5.828 1.1
      vertex 0 2.4 1.1
    endloop
  endfacet
  facet normal 0 0 1
    outer loop
      vertex 16.978 5.828 1.1
      vertex 16.844 5.897 1.1
      vertex 0 2.4 1.1
    endloop
  endfacet
  facet normal 0 0 1
    outer loop
      vertex 16.844 5.897 1.1
      vertex 16.714 5.974 1.1
      vertex 0 2.4 1.1
    endloop
  endfacet
  facet normal 0 0 1
    outer loop
      vertex 16.714 5.974 1.1
      vertex 16.589 6.058 1.1
      vertex 0 2.4 1.1
    endloop
  endfacet
  facet normal 0 0 1
    outer loop
      vertex 16.589 6.058 1.1
      vertex 16.47 6.151 1.1
      vertex 0 2.4 1.1
    endloop
  endfacet
  facet normal 0 0 1
    outer loop
      vertex 0 2.4 1.1
      vertex 16.47 6.151 1.1
      vertex 16.357 6.25 1.1
    endloop
  endfacet
  facet normal 0 0 1
    outer loop
      vertex 0 2.4 1.1
      vertex 16.357 6.25 1.1
      vertex 16.25 6.357 1.1
    endloop
  endfacet
  facet normal 0 0 1
    outer loop
      vertex 0 2.4 1.1
      vertex 16.25 6.357 1.1
      vertex 16.151 6.47 1.1
    endloop
  endfacet
  facet normal 0 0 1
    outer loop
      vertex 0 2.4 1.1
      vertex 16.151 6.47 1.1
      vertex 16.058 6.589 1.1
    endloop
  endfacet
  facet normal 0 0 1
    outer loop
      vertex 0 2.4 1.1
      vertex 16.058 6.589 1.1
      vertex 15.974 6.714 1.1
    endloop
  endfacet
  facet normal 0 0 1
    outer loop
      vertex 0 2.4 1.1
      vertex 15.974 6.714 1.1
      vertex 15.897 6.844 1.1
    endloop
  endfacet
  facet normal 0 0 1
    outer loop
      vertex 0 2.4 1.1
      vertex 15.897 6.844 1.1
      vertex 15.828 6.978 1.1
    endloop
  endfacet
  facet normal 0 0 1
    outer loop
      vertex 0 2.4 1.1
      vertex 15.828 6.978 1.1
      vertex 15.769 7.117 1.1
    endloop
  endfacet
  facet normal 0 0 1
    outer loop
      vertex 0 2.4 1.1
      vertex 15.769 7.117 1.1
      vertex 15.717 7.258 1.1
    endloop
  endfacet
  facet normal 0 0 1
    outer loop
      vertex 0 2.4 1.1
      vertex 15.717 7.258 1.1
      vertex 15.675 7.403 1.1
    endloop
  endfacet
  facet normal 0 0 1
    outer loop
      vertex 0 2.4 1.1
      vertex 15.675 7.403 1.1
      vertex 15.643 7.55 1.1
    endloop
  endfacet
  facet normal 0 0 1
    outer loop
      vertex 0 2.4 1.1
      vertex 15.643 7.55 1.1
      vertex 15.619 7.699 1.1
    endloop
  endfacet
  facet normal 0 0 1
    outer loop
      vertex 0 2.4 1.1
      vertex 15.605 7.849 1.1
      vertex 15.6 8 1.1
    endloop
  endfacet
  facet normal 0 0 1
    outer loop
      vertex 0 2.4 1.1
      vertex 15.619 7.699 1.1
      vertex 15.605 7.849 1.1
    endloop
  endfacet
  facet normal 0 0 1
    outer loop
      vertex 20.381 7.699 1.1
      vertex 20.357 7.55 1.1
      vertex 36 3.2 1.1
    endloop
  endfacet
  facet normal 0 0 1
    outer loop
      vertex 15.828 9.022 1.1
      vertex 15.897 9.156 1.1
      vertex 0 13.6 1.1
    endloop
  endfacet
  facet normal 0 0 1
    outer loop
      vertex 19.022 10.172 1.1
      vertex 19.156 10.103 1.1
      vertex 36 12.8 1.1
    endloop
  endfacet
  facet normal -0.0222167 0.999753 0
    outer loop
      vertex 36 3.2 3.5
      vertex 36 3.2 1.1
      vertex 0 2.4 3.5
    endloop
  endfacet
  facet normal -0.0222167 0.999753 0
    outer loop
      vertex 0 2.4 3.5
      vertex 36 3.2 1.1
      vertex 0 2.4 1.1
    endloop
  endfacet
endsolid OpenSCAD_Model
