  0
SECTION
  2
BLOCKS
  0
ENDSEC
  0
SECTION
  2
ENTITIES
  0
LINE
  8
0
 10
0
 11
0
 20
0
 21
16
  0
LINE
  8
0
 10
0
 11
36
 20
16
 21
16
  0
LINE
  8
0
 10
36
 11
36
 20
16
 21
0
  0
LINE
  8
0
 10
36
 11
0
 20
0
 21
0
  0
LINE
  8
0
 10
2
 11
2.004
 20
8
 21
8.126
  0
LINE
  8
0
 10
2.004
 11
2.016
 20
8.126
 21
8.251
  0
LINE
  8
0
 10
2.016
 11
2.035
 20
8.251
 21
8.375
  0
LINE
  8
0
 10
2.035
 11
2.063
 20
8.375
 21
8.497
  0
LINE
  8
0
 10
2.063
 11
2.098
 20
8.497
 21
8.618
  0
LINE
  8
0
 10
2.098
 11
2.14
 20
8.618
 21
8.736
  0
LINE
  8
0
 10
2.14
 11
2.19
 20
8.736
 21
8.852
  0
LINE
  8
0
 10
2.19
 11
2.247
 20
8.852
 21
8.964
  0
LINE
  8
0
 10
2.247
 11
2.311
 20
8.964
 21
9.072
  0
LINE
  8
0
 10
2.311
 11
2.382
 20
9.072
 21
9.176
  0
LINE
  8
0
 10
2.382
 11
2.459
 20
9.176
 21
9.275
  0
LINE
  8
0
 10
2.459
 11
2.542
 20
9.275
 21
9.369
  0
LINE
  8
0
 10
2.542
 11
2.631
 20
9.369
 21
9.458
  0
LINE
  8
0
 10
2.631
 11
2.725
 20
9.458
 21
9.541
  0
LINE
  8
0
 10
2.725
 11
2.824
 20
9.541
 21
9.618
  0
LINE
  8
0
 10
2.824
 11
2.928
 20
9.618
 21
9.689
  0
LINE
  8
0
 10
2.928
 11
3.036
 20
9.689
 21
9.753
  0
LINE
  8
0
 10
3.036
 11
3.148
 20
9.753
 21
9.81
  0
LINE
  8
0
 10
3.148
 11
3.264
 20
9.81
 21
9.86
  0
LINE
  8
0
 10
3.264
 11
3.382
 20
9.86
 21
9.902
  0
LINE
  8
0
 10
3.382
 11
3.503
 20
9.902
 21
9.937
  0
LINE
  8
0
 10
3.503
 11
3.625
 20
9.937
 21
9.965
  0
LINE
  8
0
 10
3.625
 11
3.749
 20
9.965
 21
9.984
  0
LINE
  8
0
 10
3.749
 11
3.874
 20
9.984
 21
9.996
  0
LINE
  8
0
 10
3.874
 11
15.437
 20
9.996
 21
10.737
  0
LINE
  8
0
 10
15.437
 11
15.61
 20
10.737
 21
10.889
  0
LINE
  8
0
 10
15.61
 11
15.796
 20
10.889
 21
11.034
  0
LINE
  8
0
 10
15.796
 11
15.991
 20
11.034
 21
11.166
  0
LINE
  8
0
 10
15.991
 11
16.193
 20
11.166
 21
11.286
  0
LINE
  8
0
 10
16.193
 11
16.403
 20
11.286
 21
11.393
  0
LINE
  8
0
 10
16.403
 11
16.62
 20
11.393
 21
11.487
  0
LINE
  8
0
 10
16.62
 11
16.841
 20
11.487
 21
11.566
  0
LINE
  8
0
 10
16.841
 11
17.067
 20
11.566
 21
11.632
  0
LINE
  8
0
 10
17.067
 11
17.297
 20
11.632
 21
11.684
  0
LINE
  8
0
 10
17.297
 11
17.53
 20
11.684
 21
11.72
  0
LINE
  8
0
 10
17.53
 11
17.765
 20
11.72
 21
11.743
  0
LINE
  8
0
 10
17.765
 11
18
 20
11.743
 21
11.75
  0
LINE
  8
0
 10
18
 11
18.235
 20
11.75
 21
11.743
  0
LINE
  8
0
 10
18.235
 11
18.47
 20
11.743
 21
11.72
  0
LINE
  8
0
 10
18.47
 11
18.703
 20
11.72
 21
11.684
  0
LINE
  8
0
 10
18.703
 11
18.933
 20
11.684
 21
11.632
  0
LINE
  8
0
 10
18.933
 11
19.159
 20
11.632
 21
11.566
  0
LINE
  8
0
 10
19.159
 11
19.38
 20
11.566
 21
11.487
  0
LINE
  8
0
 10
19.38
 11
19.597
 20
11.487
 21
11.393
  0
LINE
  8
0
 10
19.597
 11
19.807
 20
11.393
 21
11.286
  0
LINE
  8
0
 10
19.807
 11
20.009
 20
11.286
 21
11.166
  0
LINE
  8
0
 10
20.009
 11
20.204
 20
11.166
 21
11.034
  0
LINE
  8
0
 10
20.204
 11
20.39
 20
11.034
 21
10.889
  0
LINE
  8
0
 10
20.39
 11
20.563
 20
10.889
 21
10.737
  0
LINE
  8
0
 10
20.563
 11
32.126
 20
10.737
 21
9.996
  0
LINE
  8
0
 10
32.126
 11
32.251
 20
9.996
 21
9.984
  0
LINE
  8
0
 10
32.251
 11
32.375
 20
9.984
 21
9.965
  0
LINE
  8
0
 10
32.375
 11
32.497
 20
9.965
 21
9.937
  0
LINE
  8
0
 10
32.497
 11
32.618
 20
9.937
 21
9.902
  0
LINE
  8
0
 10
32.618
 11
32.736
 20
9.902
 21
9.86
  0
LINE
  8
0
 10
32.736
 11
32.852
 20
9.86
 21
9.81
  0
LINE
  8
0
 10
32.852
 11
32.964
 20
9.81
 21
9.753
  0
LINE
  8
0
 10
32.964
 11
33.072
 20
9.753
 21
9.689
  0
LINE
  8
0
 10
33.072
 11
33.176
 20
9.689
 21
9.618
  0
LINE
  8
0
 10
33.176
 11
33.275
 20
9.618
 21
9.541
  0
LINE
  8
0
 10
33.275
 11
33.369
 20
9.541
 21
9.458
  0
LINE
  8
0
 10
33.369
 11
33.458
 20
9.458
 21
9.369
  0
LINE
  8
0
 10
33.458
 11
33.541
 20
9.369
 21
9.275
  0
LINE
  8
0
 10
33.541
 11
33.618
 20
9.275
 21
9.176
  0
LINE
  8
0
 10
33.618
 11
33.689
 20
9.176
 21
9.072
  0
LINE
  8
0
 10
33.689
 11
33.753
 20
9.072
 21
8.964
  0
LINE
  8
0
 10
33.753
 11
33.81
 20
8.964
 21
8.852
  0
LINE
  8
0
 10
33.81
 11
33.86
 20
8.852
 21
8.736
  0
LINE
  8
0
 10
33.86
 11
33.902
 20
8.736
 21
8.618
  0
LINE
  8
0
 10
33.902
 11
33.937
 20
8.618
 21
8.497
  0
LINE
  8
0
 10
33.937
 11
33.965
 20
8.497
 21
8.375
  0
LINE
  8
0
 10
33.965
 11
33.984
 20
8.375
 21
8.251
  0
LINE
  8
0
 10
33.984
 11
33.996
 20
8.251
 21
8.126
  0
LINE
  8
0
 10
33.996
 11
34
 20
8.126
 21
8
  0
LINE
  8
0
 10
34
 11
33.996
 20
8
 21
7.874
  0
LINE
  8
0
 10
33.996
 11
33.984
 20
7.874
 21
7.749
  0
LINE
  8
0
 10
33.984
 11
33.965
 20
7.749
 21
7.625
  0
LINE
  8
0
 10
33.965
 11
33.937
 20
7.625
 21
7.503
  0
LINE
  8
0
 10
33.937
 11
33.902
 20
7.503
 21
7.382
  0
LINE
  8
0
 10
33.902
 11
33.86
 20
7.382
 21
7.264
  0
LINE
  8
0
 10
33.86
 11
33.81
 20
7.264
 21
7.148
  0
LINE
  8
0
 10
33.81
 11
33.753
 20
7.148
 21
7.036
  0
LINE
  8
0
 10
33.753
 11
33.689
 20
7.036
 21
6.928
  0
LINE
  8
0
 10
33.689
 11
33.618
 20
6.928
 21
6.824
  0
LINE
  8
0
 10
33.618
 11
33.541
 20
6.824
 21
6.725
  0
LINE
  8
0
 10
33.541
 11
33.458
 20
6.725
 21
6.631
  0
LINE
  8
0
 10
33.458
 11
33.369
 20
6.631
 21
6.542
  0
LINE
  8
0
 10
33.369
 11
33.275
 20
6.542
 21
6.459
  0
LINE
  8
0
 10
33.275
 11
33.176
 20
6.459
 21
6.382
  0
LINE
  8
0
 10
33.176
 11
33.072
 20
6.382
 21
6.311
  0
LINE
  8
0
 10
33.072
 11
32.964
 20
6.311
 21
6.247
  0
LINE
  8
0
 10
32.964
 11
32.852
 20
6.247
 21
6.19
  0
LINE
  8
0
 10
32.852
 11
32.736
 20
6.19
 21
6.14
  0
LINE
  8
0
 10
32.736
 11
32.618
 20
6.14
 21
6.098
  0
LINE
  8
0
 10
32.618
 11
32.497
 20
6.098
 21
6.063
  0
LINE
  8
0
 10
32.497
 11
32.375
 20
6.063
 21
6.035
  0
LINE
  8
0
 10
32.375
 11
32.251
 20
6.035
 21
6.016
  0
LINE
  8
0
 10
32.251
 11
32.126
 20
6.016
 21
6.004
  0
LINE
  8
0
 10
32.126
 11
20.563
 20
6.004
 21
5.263
  0
LINE
  8
0
 10
20.563
 11
20.39
 20
5.263
 21
5.111
  0
LINE
  8
0
 10
20.39
 11
20.204
 20
5.111
 21
4.966
  0
LINE
  8
0
 10
20.204
 11
20.009
 20
4.966
 21
4.834
  0
LINE
  8
0
 10
20.009
 11
19.807
 20
4.834
 21
4.714
  0
LINE
  8
0
 10
19.807
 11
19.597
 20
4.714
 21
4.607
  0
LINE
  8
0
 10
19.597
 11
19.38
 20
4.607
 21
4.513
  0
LINE
  8
0
 10
19.38
 11
19.159
 20
4.513
 21
4.434
  0
LINE
  8
0
 10
19.159
 11
18.933
 20
4.434
 21
4.368
  0
LINE
  8
0
 10
18.933
 11
18.703
 20
4.368
 21
4.316
  0
LINE
  8
0
 10
18.703
 11
18.47
 20
4.316
 21
4.28
  0
LINE
  8
0
 10
18.47
 11
18.235
 20
4.28
 21
4.257
  0
LINE
  8
0
 10
18.235
 11
18
 20
4.257
 21
4.25
  0
LINE
  8
0
 10
18
 11
17.765
 20
4.25
 21
4.257
  0
LINE
  8
0
 10
17.765
 11
17.53
 20
4.257
 21
4.28
  0
LINE
  8
0
 10
17.53
 11
17.297
 20
4.28
 21
4.316
  0
LINE
  8
0
 10
17.297
 11
17.067
 20
4.316
 21
4.368
  0
LINE
  8
0
 10
17.067
 11
16.841
 20
4.368
 21
4.434
  0
LINE
  8
0
 10
16.841
 11
16.62
 20
4.434
 21
4.513
  0
LINE
  8
0
 10
16.62
 11
16.403
 20
4.513
 21
4.607
  0
LINE
  8
0
 10
16.403
 11
16.193
 20
4.607
 21
4.714
  0
LINE
  8
0
 10
16.193
 11
15.991
 20
4.714
 21
4.834
  0
LINE
  8
0
 10
15.991
 11
15.796
 20
4.834
 21
4.966
  0
LINE
  8
0
 10
15.796
 11
15.61
 20
4.966
 21
5.111
  0
LINE
  8
0
 10
15.61
 11
15.437
 20
5.111
 21
5.263
  0
LINE
  8
0
 10
15.437
 11
3.874
 20
5.263
 21
6.004
  0
LINE
  8
0
 10
3.874
 11
3.749
 20
6.004
 21
6.016
  0
LINE
  8
0
 10
3.749
 11
3.625
 20
6.016
 21
6.035
  0
LINE
  8
0
 10
3.625
 11
3.503
 20
6.035
 21
6.063
  0
LINE
  8
0
 10
3.503
 11
3.382
 20
6.063
 21
6.098
  0
LINE
  8
0
 10
3.382
 11
3.264
 20
6.098
 21
6.14
  0
LINE
  8
0
 10
3.264
 11
3.148
 20
6.14
 21
6.19
  0
LINE
  8
0
 10
3.148
 11
3.036
 20
6.19
 21
6.247
  0
LINE
  8
0
 10
3.036
 11
2.928
 20
6.247
 21
6.311
  0
LINE
  8
0
 10
2.928
 11
2.824
 20
6.311
 21
6.382
  0
LINE
  8
0
 10
2.824
 11
2.725
 20
6.382
 21
6.459
  0
LINE
  8
0
 10
2.725
 11
2.631
 20
6.459
 21
6.542
  0
LINE
  8
0
 10
2.631
 11
2.542
 20
6.542
 21
6.631
  0
LINE
  8
0
 10
2.542
 11
2.459
 20
6.631
 21
6.725
  0
LINE
  8
0
 10
2.459
 11
2.382
 20
6.725
 21
6.824
  0
LINE
  8
0
 10
2.382
 11
2.311
 20
6.824
 21
6.928
  0
LINE
  8
0
 10
2.311
 11
2.247
 20
6.928
 21
7.036
  0
LINE
  8
0
 10
2.247
 11
2.19
 20
7.036
 21
7.148
  0
LINE
  8
0
 10
2.19
 11
2.14
 20
7.148
 21
7.264
  0
LINE
  8
0
 10
2.14
 11
2.098
 20
7.264
 21
7.382
  0
LINE
  8
0
 10
2.098
 11
2.063
 20
7.382
 21
7.503
  0
LINE
  8
0
 10
2.063
 11
2.035
 20
7.503
 21
7.625
  0
LINE
  8
0
 10
2.035
 11
2.016
 20
7.625
 21
7.749
  0
LINE
  8
0
 10
2.016
 11
2.004
 20
7.749
 21
7.874
  0
LINE
  8
0
 10
2.004
 11
2
 20
7.874
 21
8
  0
ENDSEC
  0
SECTION
  2
OBJECTS
  0
DICTIONARY
  0
ENDSEC
  0
EOF
