solid OpenSCAD_Model
  facet normal 0 -1 0
    outer loop
      vertex 0 0 3.5
      vertex 0 0 0
      vertex 36 0 0
    endloop
  endfacet
  facet normal 0 -1 0
    outer loop
      vertex 36 0 3.5
      vertex 0 0 3.5
      vertex 36 0 0
    endloop
  endfacet
  facet normal 0 0 -1
    outer loop
      vertex 18.803 10.473 0
      vertex 0 16 0
      vertex 36 16 0
    endloop
  endfacet
  facet normal 0 0 -1
    outer loop
      vertex 0 0 0
      vertex 0 16 0
      vertex 15.4 8 0
    endloop
  endfacet
  facet normal 0 0 -1
    outer loop
      vertex 0 0 0
      vertex 15.4 8 0
      vertex 15.405 7.837 0
    endloop
  endfacet
  facet normal 0 0 -1
    outer loop
      vertex 0 0 0
      vertex 15.405 7.837 0
      vertex 15.421 7.674 0
    endloop
  endfacet
  facet normal 0 0 -1
    outer loop
      vertex 0 0 0
      vertex 15.421 7.674 0
      vertex 15.446 7.513 0
    endloop
  endfacet
  facet normal 0 0 -1
    outer loop
      vertex 0 0 0
      vertex 15.446 7.513 0
      vertex 15.482 7.353 0
    endloop
  endfacet
  facet normal 0 0 -1
    outer loop
      vertex 0 0 0
      vertex 15.482 7.353 0
      vertex 15.527 7.197 0
    endloop
  endfacet
  facet normal 0 0 -1
    outer loop
      vertex 0 0 0
      vertex 15.527 7.197 0
      vertex 15.583 7.043 0
    endloop
  endfacet
  facet normal 0 0 -1
    outer loop
      vertex 0 0 0
      vertex 15.583 7.043 0
      vertex 15.647 6.893 0
    endloop
  endfacet
  facet normal 0 0 -1
    outer loop
      vertex 0 0 0
      vertex 15.647 6.893 0
      vertex 15.722 6.747 0
    endloop
  endfacet
  facet normal 0 0 -1
    outer loop
      vertex 0 0 0
      vertex 15.722 6.747 0
      vertex 15.805 6.607 0
    endloop
  endfacet
  facet normal 0 0 -1
    outer loop
      vertex 0 0 0
      vertex 15.805 6.607 0
      vertex 15.897 6.472 0
    endloop
  endfacet
  facet normal 0 0 -1
    outer loop
      vertex 0 0 0
      vertex 15.897 6.472 0
      vertex 15.997 6.343 0
    endloop
  endfacet
  facet normal 0 0 -1
    outer loop
      vertex 0 0 0
      vertex 15.997 6.343 0
      vertex 16.105 6.22 0
    endloop
  endfacet
  facet normal 0 0 -1
    outer loop
      vertex 0 0 0
      vertex 16.105 6.22 0
      vertex 16.22 6.105 0
    endloop
  endfacet
  facet normal 0 0 -1
    outer loop
      vertex 0 0 0
      vertex 16.22 6.105 0
      vertex 16.343 5.997 0
    endloop
  endfacet
  facet normal 0 0 -1
    outer loop
      vertex 0 0 0
      vertex 16.343 5.997 0
      vertex 16.472 5.897 0
    endloop
  endfacet
  facet normal 0 0 -1
    outer loop
      vertex 0 0 0
      vertex 16.472 5.897 0
      vertex 16.607 5.805 0
    endloop
  endfacet
  facet normal 0 0 -1
    outer loop
      vertex 0 0 0
      vertex 16.607 5.805 0
      vertex 16.747 5.722 0
    endloop
  endfacet
  facet normal 0 0 -1
    outer loop
      vertex 0 0 0
      vertex 16.747 5.722 0
      vertex 16.893 5.647 0
    endloop
  endfacet
  facet normal 0 0 -1
    outer loop
      vertex 0 0 0
      vertex 16.893 5.647 0
      vertex 17.043 5.583 0
    endloop
  endfacet
  facet normal 0 0 -1
    outer loop
      vertex 0 0 0
      vertex 17.043 5.583 0
      vertex 17.197 5.527 0
    endloop
  endfacet
  facet normal 0 0 -1
    outer loop
      vertex 0 0 0
      vertex 17.197 5.527 0
      vertex 36 0 0
    endloop
  endfacet
  facet normal 0 0 -1
    outer loop
      vertex 17.197 5.527 0
      vertex 17.353 5.482 0
      vertex 36 0 0
    endloop
  endfacet
  facet normal 0 0 -1
    outer loop
      vertex 17.674 5.421 0
      vertex 36 0 0
      vertex 17.513 5.446 0
    endloop
  endfacet
  facet normal 0 0 -1
    outer loop
      vertex 17.837 5.405 0
      vertex 36 0 0
      vertex 17.674 5.421 0
    endloop
  endfacet
  facet normal 0 0 -1
    outer loop
      vertex 18 5.4 0
      vertex 36 0 0
      vertex 17.837 5.405 0
    endloop
  endfacet
  facet normal 0 0 -1
    outer loop
      vertex 18.163 5.405 0
      vertex 36 0 0
      vertex 18 5.4 0
    endloop
  endfacet
  facet normal 0 0 -1
    outer loop
      vertex 18.326 5.421 0
      vertex 36 0 0
      vertex 18.163 5.405 0
    endloop
  endfacet
  facet normal 0 0 -1
    outer loop
      vertex 18.487 5.446 0
      vertex 36 0 0
      vertex 18.326 5.421 0
    endloop
  endfacet
  facet normal 0 0 -1
    outer loop
      vertex 18.647 5.482 0
      vertex 36 0 0
      vertex 18.487 5.446 0
    endloop
  endfacet
  facet normal 0 0 -1
    outer loop
      vertex 18.803 5.527 0
      vertex 36 0 0
      vertex 18.647 5.482 0
    endloop
  endfacet
  facet normal 0 0 -1
    outer loop
      vertex 18.957 5.583 0
      vertex 36 0 0
      vertex 18.803 5.527 0
    endloop
  endfacet
  facet normal 0 0 -1
    outer loop
      vertex 19.107 5.647 0
      vertex 36 0 0
      vertex 18.957 5.583 0
    endloop
  endfacet
  facet normal 0 0 -1
    outer loop
      vertex 19.253 5.722 0
      vertex 36 0 0
      vertex 19.107 5.647 0
    endloop
  endfacet
  facet normal 0 0 -1
    outer loop
      vertex 19.393 5.805 0
      vertex 36 0 0
      vertex 19.253 5.722 0
    endloop
  endfacet
  facet normal 0 0 -1
    outer loop
      vertex 19.528 5.897 0
      vertex 36 0 0
      vertex 19.393 5.805 0
    endloop
  endfacet
  facet normal 0 0 -1
    outer loop
      vertex 19.657 5.997 0
      vertex 36 0 0
      vertex 19.528 5.897 0
    endloop
  endfacet
  facet normal 0 0 -1
    outer loop
      vertex 19.78 6.105 0
      vertex 36 0 0
      vertex 19.657 5.997 0
    endloop
  endfacet
  facet normal 0 0 -1
    outer loop
      vertex 19.895 6.22 0
      vertex 36 0 0
      vertex 19.78 6.105 0
    endloop
  endfacet
  facet normal 0 0 -1
    outer loop
      vertex 20.003 6.343 0
      vertex 36 0 0
      vertex 19.895 6.22 0
    endloop
  endfacet
  facet normal 0 0 -1
    outer loop
      vertex 20.417 7.043 0
      vertex 36 0 0
      vertex 20.353 6.893 0
    endloop
  endfacet
  facet normal 0 0 -1
    outer loop
      vertex 15.446 8.487 0
      vertex 0 16 0
      vertex 15.482 8.647 0
    endloop
  endfacet
  facet normal 0 0 -1
    outer loop
      vertex 20.003 6.343 0
      vertex 20.103 6.472 0
      vertex 36 0 0
    endloop
  endfacet
  facet normal 0 0 -1
    outer loop
      vertex 20.103 6.472 0
      vertex 20.195 6.607 0
      vertex 36 0 0
    endloop
  endfacet
  facet normal 0 0 -1
    outer loop
      vertex 15.482 8.647 0
      vertex 0 16 0
      vertex 15.527 8.803 0
    endloop
  endfacet
  facet normal 0 0 -1
    outer loop
      vertex 20.195 6.607 0
      vertex 20.278 6.747 0
      vertex 36 0 0
    endloop
  endfacet
  facet normal 0 0 -1
    outer loop
      vertex 15.527 8.803 0
      vertex 0 16 0
      vertex 15.583 8.957 0
    endloop
  endfacet
  facet normal 0 0 -1
    outer loop
      vertex 20.278 6.747 0
      vertex 20.353 6.893 0
      vertex 36 0 0
    endloop
  endfacet
  facet normal 0 0 -1
    outer loop
      vertex 15.583 8.957 0
      vertex 0 16 0
      vertex 15.647 9.107 0
    endloop
  endfacet
  facet normal 0 0 -1
    outer loop
      vertex 36 0 0
      vertex 20.417 7.043 0
      vertex 36 16 0
    endloop
  endfacet
  facet normal 0 0 -1
    outer loop
      vertex 20.417 7.043 0
      vertex 20.473 7.197 0
      vertex 36 16 0
    endloop
  endfacet
  facet normal 0 0 -1
    outer loop
      vertex 15.647 9.107 0
      vertex 0 16 0
      vertex 15.722 9.253 0
    endloop
  endfacet
  facet normal 0 0 -1
    outer loop
      vertex 20.473 7.197 0
      vertex 20.518 7.353 0
      vertex 36 16 0
    endloop
  endfacet
  facet normal 0 0 -1
    outer loop
      vertex 15.722 9.253 0
      vertex 0 16 0
      vertex 15.805 9.393 0
    endloop
  endfacet
  facet normal 0 0 -1
    outer loop
      vertex 20.518 7.353 0
      vertex 20.554 7.513 0
      vertex 36 16 0
    endloop
  endfacet
  facet normal 0 0 -1
    outer loop
      vertex 15.805 9.393 0
      vertex 0 16 0
      vertex 15.897 9.528 0
    endloop
  endfacet
  facet normal 0 0 -1
    outer loop
      vertex 20.554 7.513 0
      vertex 20.579 7.674 0
      vertex 36 16 0
    endloop
  endfacet
  facet normal 0 0 -1
    outer loop
      vertex 15.897 9.528 0
      vertex 0 16 0
      vertex 15.997 9.657 0
    endloop
  endfacet
  facet normal 0 0 -1
    outer loop
      vertex 20.579 7.674 0
      vertex 20.595 7.837 0
      vertex 36 16 0
    endloop
  endfacet
  facet normal 0 0 -1
    outer loop
      vertex 20.595 7.837 0
      vertex 20.6 8 0
      vertex 36 16 0
    endloop
  endfacet
  facet normal 0 0 -1
    outer loop
      vertex 15.997 9.657 0
      vertex 0 16 0
      vertex 16.105 9.78 0
    endloop
  endfacet
  facet normal 0 0 -1
    outer loop
      vertex 20.6 8 0
      vertex 20.595 8.163 0
      vertex 36 16 0
    endloop
  endfacet
  facet normal 0 0 -1
    outer loop
      vertex 16.105 9.78 0
      vertex 0 16 0
      vertex 16.22 9.895 0
    endloop
  endfacet
  facet normal 0 0 -1
    outer loop
      vertex 20.595 8.163 0
      vertex 20.579 8.326 0
      vertex 36 16 0
    endloop
  endfacet
  facet normal 0 0 -1
    outer loop
      vertex 16.22 9.895 0
      vertex 0 16 0
      vertex 16.343 10.003 0
    endloop
  endfacet
  facet normal 0 0 -1
    outer loop
      vertex 20.579 8.326 0
      vertex 20.554 8.487 0
      vertex 36 16 0
    endloop
  endfacet
  facet normal 0 0 -1
    outer loop
      vertex 20.554 8.487 0
      vertex 20.518 8.647 0
      vertex 36 16 0
    endloop
  endfacet
  facet normal 0 0 -1
    outer loop
      vertex 16.343 10.003 0
      vertex 0 16 0
      vertex 16.472 10.103 0
    endloop
  endfacet
  facet normal 0 0 -1
    outer loop
      vertex 20.518 8.647 0
      vertex 20.473 8.803 0
      vertex 36 16 0
    endloop
  endfacet
  facet normal 0 0 -1
    outer loop
      vertex 16.472 10.103 0
      vertex 0 16 0
      vertex 16.607 10.195 0
    endloop
  endfacet
  facet normal 0 0 -1
    outer loop
      vertex 20.473 8.803 0
      vertex 20.417 8.957 0
      vertex 36 16 0
    endloop
  endfacet
  facet normal 0 0 -1
    outer loop
      vertex 16.607 10.195 0
      vertex 0 16 0
      vertex 16.747 10.278 0
    endloop
  endfacet
  facet normal 0 0 -1
    outer loop
      vertex 20.417 8.957 0
      vertex 20.353 9.107 0
      vertex 36 16 0
    endloop
  endfacet
  facet normal 0 0 -1
    outer loop
      vertex 16.747 10.278 0
      vertex 0 16 0
      vertex 16.893 10.353 0
    endloop
  endfacet
  facet normal 0 0 -1
    outer loop
      vertex 20.353 9.107 0
      vertex 20.278 9.253 0
      vertex 36 16 0
    endloop
  endfacet
  facet normal 0 0 -1
    outer loop
      vertex 16.893 10.353 0
      vertex 0 16 0
      vertex 17.043 10.417 0
    endloop
  endfacet
  facet normal 0 0 -1
    outer loop
      vertex 20.278 9.253 0
      vertex 20.195 9.393 0
      vertex 36 16 0
    endloop
  endfacet
  facet normal 0 0 -1
    outer loop
      vertex 20.195 9.393 0
      vertex 20.103 9.528 0
      vertex 36 16 0
    endloop
  endfacet
  facet normal 0 0 -1
    outer loop
      vertex 17.043 10.417 0
      vertex 0 16 0
      vertex 17.197 10.473 0
    endloop
  endfacet
  facet normal 0 0 -1
    outer loop
      vertex 20.103 9.528 0
      vertex 20.003 9.657 0
      vertex 36 16 0
    endloop
  endfacet
  facet normal 0 0 -1
    outer loop
      vertex 17.197 10.473 0
      vertex 0 16 0
      vertex 17.353 10.518 0
    endloop
  endfacet
  facet normal 0 0 -1
    outer loop
      vertex 20.003 9.657 0
      vertex 19.895 9.78 0
      vertex 36 16 0
    endloop
  endfacet
  facet normal 0 0 -1
    outer loop
      vertex 17.353 10.518 0
      vertex 0 16 0
      vertex 17.513 10.554 0
    endloop
  endfacet
  facet normal 0 0 -1
    outer loop
      vertex 19.895 9.78 0
      vertex 19.78 9.895 0
      vertex 36 16 0
    endloop
  endfacet
  facet normal 0 0 -1
    outer loop
      vertex 17.513 10.554 0
      vertex 0 16 0
      vertex 17.674 10.579 0
    endloop
  endfacet
  facet normal 0 0 -1
    outer loop
      vertex 19.78 9.895 0
      vertex 19.657 10.003 0
      vertex 36 16 0
    endloop
  endfacet
  facet normal 0 0 -1
    outer loop
      vertex 17.674 10.579 0
      vertex 0 16 0
      vertex 17.837 10.595 0
    endloop
  endfacet
  facet normal 0 0 -1
    outer loop
      vertex 19.657 10.003 0
      vertex 19.528 10.103 0
      vertex 36 16 0
    endloop
  endfacet
  facet normal 0 0 -1
    outer loop
      vertex 17.837 10.595 0
      vertex 0 16 0
      vertex 18 10.6 0
    endloop
  endfacet
  facet normal 0 0 -1
    outer loop
      vertex 19.528 10.103 0
      vertex 19.393 10.195 0
      vertex 36 16 0
    endloop
  endfacet
  facet normal 0 0 -1
    outer loop
      vertex 18 10.6 0
      vertex 0 16 0
      vertex 18.163 10.595 0
    endloop
  endfacet
  facet normal 0 0 -1
    outer loop
      vertex 19.393 10.195 0
      vertex 19.253 10.278 0
      vertex 36 16 0
    endloop
  endfacet
  facet normal 0 0 -1
    outer loop
      vertex 18.163 10.595 0
      vertex 0 16 0
      vertex 18.326 10.579 0
    endloop
  endfacet
  facet normal 0 0 -1
    outer loop
      vertex 19.253 10.278 0
      vertex 19.107 10.353 0
      vertex 36 16 0
    endloop
  endfacet
  facet normal 0 0 -1
    outer loop
      vertex 18.326 10.579 0
      vertex 0 16 0
      vertex 18.487 10.554 0
    endloop
  endfacet
  facet normal 0 0 -1
    outer loop
      vertex 19.107 10.353 0
      vertex 18.957 10.417 0
      vertex 36 16 0
    endloop
  endfacet
  facet normal 0 0 -1
    outer loop
      vertex 18.647 10.518 0
      vertex 0 16 0
      vertex 18.803 10.473 0
    endloop
  endfacet
  facet normal 0 0 -1
    outer loop
      vertex 18.957 10.417 0
      vertex 18.803 10.473 0
      vertex 36 16 0
    endloop
  endfacet
  facet normal 0 0 -1
    outer loop
      vertex 18.487 10.554 0
      vertex 0 16 0
      vertex 18.647 10.518 0
    endloop
  endfacet
  facet normal 0 0 -1
    outer loop
      vertex 15.421 8.326 0
      vertex 0 16 0
      vertex 15.446 8.487 0
    endloop
  endfacet
  facet normal 0 0 -1
    outer loop
      vertex 15.405 8.163 0
      vertex 0 16 0
      vertex 15.421 8.326 0
    endloop
  endfacet
  facet normal 0 0 -1
    outer loop
      vertex 15.4 8 0
      vertex 0 16 0
      vertex 15.405 8.163 0
    endloop
  endfacet
  facet normal 0 0 -1
    outer loop
      vertex 17.513 5.446 0
      vertex 36 0 0
      vertex 17.353 5.482 0
    endloop
  endfacet
  facet normal -1 0 0
    outer loop
      vertex 0 13.6 1.1
      vertex 0 16 0
      vertex 0 2.4 1.1
    endloop
  endfacet
  facet normal -1 0 0
    outer loop
      vertex 0 0 0
      vertex 0 0 3.5
      vertex 0 2.4 1.1
    endloop
  endfacet
  facet normal -1 0 0
    outer loop
      vertex 0 0 0
      vertex 0 2.4 1.1
      vertex 0 16 0
    endloop
  endfacet
  facet normal -1 0 0
    outer loop
      vertex 0 16 0
      vertex 0 13.6 1.1
      vertex 0 13.6 3.5
    endloop
  endfacet
  facet normal -1 0 0
    outer loop
      vertex 0 16 0
      vertex 0 13.6 3.5
      vertex 0 16 3.5
    endloop
  endfacet
  facet normal -1 0 0
    outer loop
      vertex 0 2.4 1.1
      vertex 0 0 3.5
      vertex 0 2.4 3.5
    endloop
  endfacet
  facet normal 0 0 1
    outer loop
      vertex 0 2.4 3.5
      vertex 0 0 3.5
      vertex 36 0 3.5
    endloop
  endfacet
  facet normal 0 0 1
    outer loop
      vertex 36 3.2 3.5
      vertex 0 2.4 3.5
      vertex 36 0 3.5
    endloop
  endfacet
  facet normal 1 0 0
    outer loop
      vertex 36 3.2 1.1
      vertex 36 0 0
      vertex 36 16 0
    endloop
  endfacet
  facet normal 1 0 0
    outer loop
      vertex 36 3.2 1.1
      vertex 36 3.2 3.5
      vertex 36 0 3.5
    endloop
  endfacet
  facet normal 1 0 0
    outer loop
      vertex 36 16 3.5
      vertex 36 12.8 3.5
      vertex 36 16 0
    endloop
  endfacet
  facet normal 1 0 0
    outer loop
      vertex 36 12.8 3.5
      vertex 36 12.8 1.1
      vertex 36 16 0
    endloop
  endfacet
  facet normal 1 0 0
    outer loop
      vertex 36 0 3.5
      vertex 36 0 0
      vertex 36 3.2 1.1
    endloop
  endfacet
  facet normal 1 0 0
    outer loop
      vertex 36 12.8 1.1
      vertex 36 3.2 1.1
      vertex 36 16 0
    endloop
  endfacet
  facet normal 0 1 0
    outer loop
      vertex 0 16 0
      vertex 0 16 3.5
      vertex 36 16 0
    endloop
  endfacet
  facet normal 0 1 0
    outer loop
      vertex 36 16 0
      vertex 0 16 3.5
      vertex 36 16 3.5
    endloop
  endfacet
  facet normal 0.99953 0.0306604 0
    outer loop
      vertex 15.4 8 1.1
      vertex 15.405 7.837 1.1
      vertex 15.405 7.837 0
    endloop
  endfacet
  facet normal 0.99953 0.0306604 0
    outer loop
      vertex 15.4 8 0
      vertex 15.4 8 1.1
      vertex 15.405 7.837 0
    endloop
  endfacet
  facet normal 0.99953 -0.0306604 0
    outer loop
      vertex 15.405 8.163 0
      vertex 15.405 8.163 1.1
      vertex 15.4 8 1.1
    endloop
  endfacet
  facet normal 0.99953 -0.0306604 0
    outer loop
      vertex 15.4 8 0
      vertex 15.405 8.163 0
      vertex 15.4 8 1.1
    endloop
  endfacet
  facet normal 0.995217 -0.09769 0
    outer loop
      vertex 15.421 8.326 0
      vertex 15.421 8.326 1.1
      vertex 15.405 8.163 1.1
    endloop
  endfacet
  facet normal 0.995217 -0.09769 0
    outer loop
      vertex 15.405 8.163 0
      vertex 15.421 8.326 0
      vertex 15.405 8.163 1.1
    endloop
  endfacet
  facet normal 0.988158 -0.153441 0
    outer loop
      vertex 15.446 8.487 0
      vertex 15.446 8.487 1.1
      vertex 15.421 8.326 1.1
    endloop
  endfacet
  facet normal 0.988158 -0.153441 0
    outer loop
      vertex 15.421 8.326 0
      vertex 15.446 8.487 0
      vertex 15.421 8.326 1.1
    endloop
  endfacet
  facet normal 0.97561 -0.219512 0
    outer loop
      vertex 15.482 8.647 0
      vertex 15.482 8.647 1.1
      vertex 15.446 8.487 1.1
    endloop
  endfacet
  facet normal 0.97561 -0.219512 0
    outer loop
      vertex 15.446 8.487 0
      vertex 15.482 8.647 0
      vertex 15.446 8.487 1.1
    endloop
  endfacet
  facet normal 0.960824 -0.277161 0
    outer loop
      vertex 15.527 8.803 0
      vertex 15.527 8.803 1.1
      vertex 15.482 8.647 1.1
    endloop
  endfacet
  facet normal 0.960824 -0.277161 0
    outer loop
      vertex 15.482 8.647 0
      vertex 15.527 8.803 0
      vertex 15.482 8.647 1.1
    endloop
  endfacet
  facet normal 0.939793 -0.341743 0
    outer loop
      vertex 15.583 8.957 0
      vertex 15.583 8.957 1.1
      vertex 15.527 8.803 1.1
    endloop
  endfacet
  facet normal 0.939793 -0.341743 0
    outer loop
      vertex 15.527 8.803 0
      vertex 15.583 8.957 0
      vertex 15.527 8.803 1.1
    endloop
  endfacet
  facet normal 0.919778 -0.392439 0
    outer loop
      vertex 15.647 9.107 0
      vertex 15.647 9.107 1.1
      vertex 15.583 8.957 1.1
    endloop
  endfacet
  facet normal 0.919778 -0.392439 0
    outer loop
      vertex 15.583 8.957 0
      vertex 15.647 9.107 0
      vertex 15.583 8.957 1.1
    endloop
  endfacet
  facet normal 0.8895 -0.456935 0
    outer loop
      vertex 15.722 9.253 0
      vertex 15.722 9.253 1.1
      vertex 15.647 9.107 1.1
    endloop
  endfacet
  facet normal 0.8895 -0.456935 0
    outer loop
      vertex 15.647 9.107 0
      vertex 15.722 9.253 0
      vertex 15.647 9.107 1.1
    endloop
  endfacet
  facet normal 0.860192 -0.509971 0
    outer loop
      vertex 15.805 9.393 0
      vertex 15.805 9.393 1.1
      vertex 15.722 9.253 1.1
    endloop
  endfacet
  facet normal 0.860192 -0.509971 0
    outer loop
      vertex 15.722 9.253 0
      vertex 15.805 9.393 0
      vertex 15.722 9.253 1.1
    endloop
  endfacet
  facet normal 0.826357 -0.563147 0
    outer loop
      vertex 15.897 9.528 0
      vertex 15.897 9.528 1.1
      vertex 15.805 9.393 1.1
    endloop
  endfacet
  facet normal 0.826357 -0.563147 0
    outer loop
      vertex 15.805 9.393 0
      vertex 15.897 9.528 0
      vertex 15.805 9.393 1.1
    endloop
  endfacet
  facet normal 0.790341 -0.612667 0
    outer loop
      vertex 15.997 9.657 0
      vertex 15.997 9.657 1.1
      vertex 15.897 9.528 1.1
    endloop
  endfacet
  facet normal 0.790341 -0.612667 0
    outer loop
      vertex 15.897 9.528 0
      vertex 15.997 9.657 0
      vertex 15.897 9.528 1.1
    endloop
  endfacet
  facet normal 0.75144 -0.659801 0
    outer loop
      vertex 16.105 9.78 0
      vertex 16.105 9.78 1.1
      vertex 15.997 9.657 1.1
    endloop
  endfacet
  facet normal 0.75144 -0.659801 0
    outer loop
      vertex 15.997 9.657 0
      vertex 16.105 9.78 0
      vertex 15.997 9.657 1.1
    endloop
  endfacet
  facet normal 0.707107 -0.707107 0
    outer loop
      vertex 16.22 9.895 0
      vertex 16.22 9.895 1.1
      vertex 16.105 9.78 1.1
    endloop
  endfacet
  facet normal 0.707107 -0.707107 0
    outer loop
      vertex 16.105 9.78 0
      vertex 16.22 9.895 0
      vertex 16.105 9.78 1.1
    endloop
  endfacet
  facet normal 0.659801 -0.75144 0
    outer loop
      vertex 16.343 10.003 0
      vertex 16.343 10.003 1.1
      vertex 16.22 9.895 1.1
    endloop
  endfacet
  facet normal 0.659801 -0.75144 0
    outer loop
      vertex 16.22 9.895 0
      vertex 16.343 10.003 0
      vertex 16.22 9.895 1.1
    endloop
  endfacet
  facet normal 0.612667 -0.790341 0
    outer loop
      vertex 16.472 10.103 0
      vertex 16.472 10.103 1.1
      vertex 16.343 10.003 1.1
    endloop
  endfacet
  facet normal 0.612667 -0.790341 0
    outer loop
      vertex 16.343 10.003 0
      vertex 16.472 10.103 0
      vertex 16.343 10.003 1.1
    endloop
  endfacet
  facet normal 0.563147 -0.826357 0
    outer loop
      vertex 16.607 10.195 0
      vertex 16.607 10.195 1.1
      vertex 16.472 10.103 1.1
    endloop
  endfacet
  facet normal 0.563147 -0.826357 0
    outer loop
      vertex 16.472 10.103 0
      vertex 16.607 10.195 0
      vertex 16.472 10.103 1.1
    endloop
  endfacet
  facet normal 0.509971 -0.860192 0
    outer loop
      vertex 16.747 10.278 0
      vertex 16.747 10.278 1.1
      vertex 16.607 10.195 1.1
    endloop
  endfacet
  facet normal 0.509971 -0.860192 0
    outer loop
      vertex 16.607 10.195 0
      vertex 16.747 10.278 0
      vertex 16.607 10.195 1.1
    endloop
  endfacet
  facet normal 0.456935 -0.8895 0
    outer loop
      vertex 16.893 10.353 0
      vertex 16.893 10.353 1.1
      vertex 16.747 10.278 1.1
    endloop
  endfacet
  facet normal 0.456935 -0.8895 0
    outer loop
      vertex 16.747 10.278 0
      vertex 16.893 10.353 0
      vertex 16.747 10.278 1.1
    endloop
  endfacet
  facet normal 0.392439 -0.919778 0
    outer loop
      vertex 17.043 10.417 0
      vertex 17.043 10.417 1.1
      vertex 16.893 10.353 1.1
    endloop
  endfacet
  facet normal 0.392439 -0.919778 0
    outer loop
      vertex 16.893 10.353 0
      vertex 17.043 10.417 0
      vertex 16.893 10.353 1.1
    endloop
  endfacet
  facet normal 0.341743 -0.939793 0
    outer loop
      vertex 17.197 10.473 0
      vertex 17.197 10.473 1.1
      vertex 17.043 10.417 1.1
    endloop
  endfacet
  facet normal 0.341743 -0.939793 0
    outer loop
      vertex 17.043 10.417 0
      vertex 17.197 10.473 0
      vertex 17.043 10.417 1.1
    endloop
  endfacet
  facet normal 0.277161 -0.960824 0
    outer loop
      vertex 17.353 10.518 0
      vertex 17.353 10.518 1.1
      vertex 17.197 10.473 1.1
    endloop
  endfacet
  facet normal 0.277161 -0.960824 0
    outer loop
      vertex 17.197 10.473 0
      vertex 17.353 10.518 0
      vertex 17.197 10.473 1.1
    endloop
  endfacet
  facet normal 0.219512 -0.97561 0
    outer loop
      vertex 17.513 10.554 0
      vertex 17.513 10.554 1.1
      vertex 17.353 10.518 1.1
    endloop
  endfacet
  facet normal 0.219512 -0.97561 0
    outer loop
      vertex 17.353 10.518 0
      vertex 17.513 10.554 0
      vertex 17.353 10.518 1.1
    endloop
  endfacet
  facet normal 0.153441 -0.988158 0
    outer loop
      vertex 17.674 10.579 0
      vertex 17.674 10.579 1.1
      vertex 17.513 10.554 1.1
    endloop
  endfacet
  facet normal 0.153441 -0.988158 0
    outer loop
      vertex 17.513 10.554 0
      vertex 17.674 10.579 0
      vertex 17.513 10.554 1.1
    endloop
  endfacet
  facet normal 0.09769 -0.995217 0
    outer loop
      vertex 17.837 10.595 0
      vertex 17.837 10.595 1.1
      vertex 17.674 10.579 1.1
    endloop
  endfacet
  facet normal 0.09769 -0.995217 0
    outer loop
      vertex 17.674 10.579 0
      vertex 17.837 10.595 0
      vertex 17.674 10.579 1.1
    endloop
  endfacet
  facet normal 0.0306604 -0.99953 0
    outer loop
      vertex 18 10.6 0
      vertex 18 10.6 1.1
      vertex 17.837 10.595 1.1
    endloop
  endfacet
  facet normal 0.0306604 -0.99953 0
    outer loop
      vertex 17.837 10.595 0
      vertex 18 10.6 0
      vertex 17.837 10.595 1.1
    endloop
  endfacet
  facet normal -0.0306604 -0.99953 0
    outer loop
      vertex 18.163 10.595 0
      vertex 18.163 10.595 1.1
      vertex 18 10.6 1.1
    endloop
  endfacet
  facet normal -0.0306604 -0.99953 0
    outer loop
      vertex 18 10.6 0
      vertex 18.163 10.595 0
      vertex 18 10.6 1.1
    endloop
  endfacet
  facet normal -0.09769 -0.995217 0
    outer loop
      vertex 18.326 10.579 0
      vertex 18.326 10.579 1.1
      vertex 18.163 10.595 1.1
    endloop
  endfacet
  facet normal -0.09769 -0.995217 0
    outer loop
      vertex 18.163 10.595 0
      vertex 18.326 10.579 0
      vertex 18.163 10.595 1.1
    endloop
  endfacet
  facet normal -0.153441 -0.988158 0
    outer loop
      vertex 18.487 10.554 0
      vertex 18.487 10.554 1.1
      vertex 18.326 10.579 1.1
    endloop
  endfacet
  facet normal -0.153441 -0.988158 0
    outer loop
      vertex 18.326 10.579 0
      vertex 18.487 10.554 0
      vertex 18.326 10.579 1.1
    endloop
  endfacet
  facet normal -0.219512 -0.97561 0
    outer loop
      vertex 18.647 10.518 0
      vertex 18.647 10.518 1.1
      vertex 18.487 10.554 1.1
    endloop
  endfacet
  facet normal -0.219512 -0.97561 0
    outer loop
      vertex 18.487 10.554 0
      vertex 18.647 10.518 0
      vertex 18.487 10.554 1.1
    endloop
  endfacet
  facet normal -0.277161 -0.960824 0
    outer loop
      vertex 18.803 10.473 0
      vertex 18.803 10.473 1.1
      vertex 18.647 10.518 1.1
    endloop
  endfacet
  facet normal -0.277161 -0.960824 0
    outer loop
      vertex 18.647 10.518 0
      vertex 18.803 10.473 0
      vertex 18.647 10.518 1.1
    endloop
  endfacet
  facet normal -0.341743 -0.939793 0
    outer loop
      vertex 18.957 10.417 0
      vertex 18.957 10.417 1.1
      vertex 18.803 10.473 1.1
    endloop
  endfacet
  facet normal -0.341743 -0.939793 0
    outer loop
      vertex 18.803 10.473 0
      vertex 18.957 10.417 0
      vertex 18.803 10.473 1.1
    endloop
  endfacet
  facet normal -0.392439 -0.919778 0
    outer loop
      vertex 19.107 10.353 0
      vertex 19.107 10.353 1.1
      vertex 18.957 10.417 1.1
    endloop
  endfacet
  facet normal -0.392439 -0.919778 0
    outer loop
      vertex 18.957 10.417 0
      vertex 19.107 10.353 0
      vertex 18.957 10.417 1.1
    endloop
  endfacet
  facet normal -0.456935 -0.8895 0
    outer loop
      vertex 19.253 10.278 0
      vertex 19.253 10.278 1.1
      vertex 19.107 10.353 1.1
    endloop
  endfacet
  facet normal -0.456935 -0.8895 0
    outer loop
      vertex 19.107 10.353 0
      vertex 19.253 10.278 0
      vertex 19.107 10.353 1.1
    endloop
  endfacet
  facet normal -0.509971 -0.860192 0
    outer loop
      vertex 19.393 10.195 0
      vertex 19.393 10.195 1.1
      vertex 19.253 10.278 1.1
    endloop
  endfacet
  facet normal -0.509971 -0.860192 0
    outer loop
      vertex 19.253 10.278 0
      vertex 19.393 10.195 0
      vertex 19.253 10.278 1.1
    endloop
  endfacet
  facet normal -0.563147 -0.826357 0
    outer loop
      vertex 19.528 10.103 0
      vertex 19.528 10.103 1.1
      vertex 19.393 10.195 1.1
    endloop
  endfacet
  facet normal -0.563147 -0.826357 0
    outer loop
      vertex 19.393 10.195 0
      vertex 19.528 10.103 0
      vertex 19.393 10.195 1.1
    endloop
  endfacet
  facet normal -0.612667 -0.790341 0
    outer loop
      vertex 19.657 10.003 0
      vertex 19.657 10.003 1.1
      vertex 19.528 10.103 1.1
    endloop
  endfacet
  facet normal -0.612667 -0.790341 0
    outer loop
      vertex 19.528 10.103 0
      vertex 19.657 10.003 0
      vertex 19.528 10.103 1.1
    endloop
  endfacet
  facet normal -0.659801 -0.75144 0
    outer loop
      vertex 19.78 9.895 0
      vertex 19.78 9.895 1.1
      vertex 19.657 10.003 1.1
    endloop
  endfacet
  facet normal -0.659801 -0.75144 0
    outer loop
      vertex 19.657 10.003 0
      vertex 19.78 9.895 0
      vertex 19.657 10.003 1.1
    endloop
  endfacet
  facet normal -0.707107 -0.707107 0
    outer loop
      vertex 19.895 9.78 0
      vertex 19.895 9.78 1.1
      vertex 19.78 9.895 1.1
    endloop
  endfacet
  facet normal -0.707107 -0.707107 0
    outer loop
      vertex 19.78 9.895 0
      vertex 19.895 9.78 0
      vertex 19.78 9.895 1.1
    endloop
  endfacet
  facet normal -0.75144 -0.659801 0
    outer loop
      vertex 20.003 9.657 1.1
      vertex 19.895 9.78 1.1
      vertex 20.003 9.657 0
    endloop
  endfacet
  facet normal -0.75144 -0.659801 0
    outer loop
      vertex 20.003 9.657 0
      vertex 19.895 9.78 1.1
      vertex 19.895 9.78 0
    endloop
  endfacet
  facet normal -0.790341 -0.612667 0
    outer loop
      vertex 20.103 9.528 1.1
      vertex 20.003 9.657 1.1
      vertex 20.103 9.528 0
    endloop
  endfacet
  facet normal -0.790341 -0.612667 0
    outer loop
      vertex 20.103 9.528 0
      vertex 20.003 9.657 1.1
      vertex 20.003 9.657 0
    endloop
  endfacet
  facet normal -0.826357 -0.563147 0
    outer loop
      vertex 20.195 9.393 1.1
      vertex 20.103 9.528 1.1
      vertex 20.195 9.393 0
    endloop
  endfacet
  facet normal -0.826357 -0.563147 0
    outer loop
      vertex 20.195 9.393 0
      vertex 20.103 9.528 1.1
      vertex 20.103 9.528 0
    endloop
  endfacet
  facet normal -0.860192 -0.509971 0
    outer loop
      vertex 20.278 9.253 1.1
      vertex 20.195 9.393 1.1
      vertex 20.278 9.253 0
    endloop
  endfacet
  facet normal -0.860192 -0.509971 0
    outer loop
      vertex 20.278 9.253 0
      vertex 20.195 9.393 1.1
      vertex 20.195 9.393 0
    endloop
  endfacet
  facet normal -0.8895 -0.456935 0
    outer loop
      vertex 20.353 9.107 1.1
      vertex 20.278 9.253 1.1
      vertex 20.353 9.107 0
    endloop
  endfacet
  facet normal -0.8895 -0.456935 0
    outer loop
      vertex 20.353 9.107 0
      vertex 20.278 9.253 1.1
      vertex 20.278 9.253 0
    endloop
  endfacet
  facet normal -0.919778 -0.392439 0
    outer loop
      vertex 20.417 8.957 1.1
      vertex 20.353 9.107 1.1
      vertex 20.417 8.957 0
    endloop
  endfacet
  facet normal -0.919778 -0.392439 0
    outer loop
      vertex 20.417 8.957 0
      vertex 20.353 9.107 1.1
      vertex 20.353 9.107 0
    endloop
  endfacet
  facet normal -0.939793 -0.341743 0
    outer loop
      vertex 20.473 8.803 1.1
      vertex 20.417 8.957 1.1
      vertex 20.473 8.803 0
    endloop
  endfacet
  facet normal -0.939793 -0.341743 0
    outer loop
      vertex 20.473 8.803 0
      vertex 20.417 8.957 1.1
      vertex 20.417 8.957 0
    endloop
  endfacet
  facet normal -0.960824 -0.277161 0
    outer loop
      vertex 20.518 8.647 1.1
      vertex 20.473 8.803 1.1
      vertex 20.518 8.647 0
    endloop
  endfacet
  facet normal -0.960824 -0.277161 0
    outer loop
      vertex 20.518 8.647 0
      vertex 20.473 8.803 1.1
      vertex 20.473 8.803 0
    endloop
  endfacet
  facet normal -0.97561 -0.219512 0
    outer loop
      vertex 20.554 8.487 1.1
      vertex 20.518 8.647 1.1
      vertex 20.554 8.487 0
    endloop
  endfacet
  facet normal -0.97561 -0.219512 0
    outer loop
      vertex 20.554 8.487 0
      vertex 20.518 8.647 1.1
      vertex 20.518 8.647 0
    endloop
  endfacet
  facet normal -0.988158 -0.153441 0
    outer loop
      vertex 20.579 8.326 1.1
      vertex 20.554 8.487 1.1
      vertex 20.579 8.326 0
    endloop
  endfacet
  facet normal -0.988158 -0.153441 0
    outer loop
      vertex 20.579 8.326 0
      vertex 20.554 8.487 1.1
      vertex 20.554 8.487 0
    endloop
  endfacet
  facet normal -0.995217 -0.09769 0
    outer loop
      vertex 20.595 8.163 1.1
      vertex 20.579 8.326 1.1
      vertex 20.595 8.163 0
    endloop
  endfacet
  facet normal -0.995217 -0.09769 0
    outer loop
      vertex 20.595 8.163 0
      vertex 20.579 8.326 1.1
      vertex 20.579 8.326 0
    endloop
  endfacet
  facet normal -0.99953 -0.0306604 0
    outer loop
      vertex 20.6 8 1.1
      vertex 20.595 8.163 1.1
      vertex 20.6 8 0
    endloop
  endfacet
  facet normal -0.99953 -0.0306604 0
    outer loop
      vertex 20.6 8 0
      vertex 20.595 8.163 1.1
      vertex 20.595 8.163 0
    endloop
  endfacet
  facet normal -0.99953 0.0306604 0
    outer loop
      vertex 20.6 8 1.1
      vertex 20.6 8 0
      vertex 20.595 7.837 1.1
    endloop
  endfacet
  facet normal -0.99953 0.0306604 0
    outer loop
      vertex 20.595 7.837 1.1
      vertex 20.6 8 0
      vertex 20.595 7.837 0
    endloop
  endfacet
  facet normal -0.995217 0.09769 0
    outer loop
      vertex 20.595 7.837 1.1
      vertex 20.595 7.837 0
      vertex 20.579 7.674 1.1
    endloop
  endfacet
  facet normal -0.995217 0.09769 0
    outer loop
      vertex 20.579 7.674 1.1
      vertex 20.595 7.837 0
      vertex 20.579 7.674 0
    endloop
  endfacet
  facet normal -0.988158 0.153441 0
    outer loop
      vertex 20.579 7.674 1.1
      vertex 20.579 7.674 0
      vertex 20.554 7.513 1.1
    endloop
  endfacet
  facet normal -0.988158 0.153441 0
    outer loop
      vertex 20.554 7.513 1.1
      vertex 20.579 7.674 0
      vertex 20.554 7.513 0
    endloop
  endfacet
  facet normal -0.97561 0.219512 0
    outer loop
      vertex 20.554 7.513 1.1
      vertex 20.554 7.513 0
      vertex 20.518 7.353 1.1
    endloop
  endfacet
  facet normal -0.97561 0.219512 0
    outer loop
      vertex 20.518 7.353 1.1
      vertex 20.554 7.513 0
      vertex 20.518 7.353 0
    endloop
  endfacet
  facet normal -0.960824 0.277161 0
    outer loop
      vertex 20.518 7.353 1.1
      vertex 20.518 7.353 0
      vertex 20.473 7.197 1.1
    endloop
  endfacet
  facet normal -0.960824 0.277161 0
    outer loop
      vertex 20.473 7.197 1.1
      vertex 20.518 7.353 0
      vertex 20.473 7.197 0
    endloop
  endfacet
  facet normal -0.939793 0.341743 0
    outer loop
      vertex 20.473 7.197 1.1
      vertex 20.473 7.197 0
      vertex 20.417 7.043 1.1
    endloop
  endfacet
  facet normal -0.939793 0.341743 0
    outer loop
      vertex 20.417 7.043 1.1
      vertex 20.473 7.197 0
      vertex 20.417 7.043 0
    endloop
  endfacet
  facet normal -0.919778 0.392439 0
    outer loop
      vertex 20.417 7.043 1.1
      vertex 20.417 7.043 0
      vertex 20.353 6.893 1.1
    endloop
  endfacet
  facet normal -0.919778 0.392439 0
    outer loop
      vertex 20.353 6.893 1.1
      vertex 20.417 7.043 0
      vertex 20.353 6.893 0
    endloop
  endfacet
  facet normal -0.8895 0.456935 0
    outer loop
      vertex 20.353 6.893 1.1
      vertex 20.353 6.893 0
      vertex 20.278 6.747 1.1
    endloop
  endfacet
  facet normal -0.8895 0.456935 0
    outer loop
      vertex 20.278 6.747 1.1
      vertex 20.353 6.893 0
      vertex 20.278 6.747 0
    endloop
  endfacet
  facet normal -0.860192 0.509971 0
    outer loop
      vertex 20.278 6.747 1.1
      vertex 20.278 6.747 0
      vertex 20.195 6.607 1.1
    endloop
  endfacet
  facet normal -0.860192 0.509971 0
    outer loop
      vertex 20.195 6.607 1.1
      vertex 20.278 6.747 0
      vertex 20.195 6.607 0
    endloop
  endfacet
  facet normal -0.826357 0.563147 0
    outer loop
      vertex 20.195 6.607 1.1
      vertex 20.195 6.607 0
      vertex 20.103 6.472 1.1
    endloop
  endfacet
  facet normal -0.826357 0.563147 0
    outer loop
      vertex 20.103 6.472 1.1
      vertex 20.195 6.607 0
      vertex 20.103 6.472 0
    endloop
  endfacet
  facet normal -0.790341 0.612667 0
    outer loop
      vertex 20.103 6.472 1.1
      vertex 20.103 6.472 0
      vertex 20.003 6.343 1.1
    endloop
  endfacet
  facet normal -0.790341 0.612667 0
    outer loop
      vertex 20.003 6.343 1.1
      vertex 20.103 6.472 0
      vertex 20.003 6.343 0
    endloop
  endfacet
  facet normal -0.75144 0.659801 0
    outer loop
      vertex 20.003 6.343 1.1
      vertex 20.003 6.343 0
      vertex 19.895 6.22 1.1
    endloop
  endfacet
  facet normal -0.75144 0.659801 0
    outer loop
      vertex 19.895 6.22 1.1
      vertex 20.003 6.343 0
      vertex 19.895 6.22 0
    endloop
  endfacet
  facet normal -0.707107 0.707107 0
    outer loop
      vertex 19.895 6.22 1.1
      vertex 19.895 6.22 0
      vertex 19.78 6.105 1.1
    endloop
  endfacet
  facet normal -0.707107 0.707107 0
    outer loop
      vertex 19.78 6.105 1.1
      vertex 19.895 6.22 0
      vertex 19.78 6.105 0
    endloop
  endfacet
  facet normal -0.659801 0.75144 0
    outer loop
      vertex 19.78 6.105 1.1
      vertex 19.78 6.105 0
      vertex 19.657 5.997 1.1
    endloop
  endfacet
  facet normal -0.659801 0.75144 0
    outer loop
      vertex 19.657 5.997 1.1
      vertex 19.78 6.105 0
      vertex 19.657 5.997 0
    endloop
  endfacet
  facet normal -0.612667 0.790341 0
    outer loop
      vertex 19.657 5.997 1.1
      vertex 19.657 5.997 0
      vertex 19.528 5.897 1.1
    endloop
  endfacet
  facet normal -0.612667 0.790341 0
    outer loop
      vertex 19.528 5.897 1.1
      vertex 19.657 5.997 0
      vertex 19.528 5.897 0
    endloop
  endfacet
  facet normal -0.563147 0.826357 0
    outer loop
      vertex 19.528 5.897 1.1
      vertex 19.528 5.897 0
      vertex 19.393 5.805 1.1
    endloop
  endfacet
  facet normal -0.563147 0.826357 0
    outer loop
      vertex 19.393 5.805 1.1
      vertex 19.528 5.897 0
      vertex 19.393 5.805 0
    endloop
  endfacet
  facet normal -0.509971 0.860192 0
    outer loop
      vertex 19.393 5.805 1.1
      vertex 19.393 5.805 0
      vertex 19.253 5.722 1.1
    endloop
  endfacet
  facet normal -0.509971 0.860192 0
    outer loop
      vertex 19.253 5.722 1.1
      vertex 19.393 5.805 0
      vertex 19.253 5.722 0
    endloop
  endfacet
  facet normal -0.456935 0.8895 0
    outer loop
      vertex 19.253 5.722 1.1
      vertex 19.253 5.722 0
      vertex 19.107 5.647 1.1
    endloop
  endfacet
  facet normal -0.456935 0.8895 0
    outer loop
      vertex 19.107 5.647 1.1
      vertex 19.253 5.722 0
      vertex 19.107 5.647 0
    endloop
  endfacet
  facet normal -0.392439 0.919778 0
    outer loop
      vertex 19.107 5.647 1.1
      vertex 19.107 5.647 0
      vertex 18.957 5.583 1.1
    endloop
  endfacet
  facet normal -0.392439 0.919778 0
    outer loop
      vertex 18.957 5.583 1.1
      vertex 19.107 5.647 0
      vertex 18.957 5.583 0
    endloop
  endfacet
  facet normal -0.341743 0.939793 0
    outer loop
      vertex 18.957 5.583 1.1
      vertex 18.957 5.583 0
      vertex 18.803 5.527 1.1
    endloop
  endfacet
  facet normal -0.341743 0.939793 0
    outer loop
      vertex 18.803 5.527 1.1
      vertex 18.957 5.583 0
      vertex 18.803 5.527 0
    endloop
  endfacet
  facet normal -0.277161 0.960824 0
    outer loop
      vertex 18.803 5.527 1.1
      vertex 18.803 5.527 0
      vertex 18.647 5.482 1.1
    endloop
  endfacet
  facet normal -0.277161 0.960824 0
    outer loop
      vertex 18.647 5.482 1.1
      vertex 18.803 5.527 0
      vertex 18.647 5.482 0
    endloop
  endfacet
  facet normal -0.219512 0.97561 0
    outer loop
      vertex 18.647 5.482 1.1
      vertex 18.647 5.482 0
      vertex 18.487 5.446 1.1
    endloop
  endfacet
  facet normal -0.219512 0.97561 0
    outer loop
      vertex 18.487 5.446 1.1
      vertex 18.647 5.482 0
      vertex 18.487 5.446 0
    endloop
  endfacet
  facet normal -0.153441 0.988158 0
    outer loop
      vertex 18.487 5.446 1.1
      vertex 18.487 5.446 0
      vertex 18.326 5.421 1.1
    endloop
  endfacet
  facet normal -0.153441 0.988158 0
    outer loop
      vertex 18.326 5.421 1.1
      vertex 18.487 5.446 0
      vertex 18.326 5.421 0
    endloop
  endfacet
  facet normal -0.09769 0.995217 0
    outer loop
      vertex 18.326 5.421 1.1
      vertex 18.326 5.421 0
      vertex 18.163 5.405 1.1
    endloop
  endfacet
  facet normal -0.09769 0.995217 0
    outer loop
      vertex 18.163 5.405 1.1
      vertex 18.326 5.421 0
      vertex 18.163 5.405 0
    endloop
  endfacet
  facet normal -0.0306604 0.99953 0
    outer loop
      vertex 18.163 5.405 1.1
      vertex 18.163 5.405 0
      vertex 18 5.4 1.1
    endloop
  endfacet
  facet normal -0.0306604 0.99953 0
    outer loop
      vertex 18 5.4 1.1
      vertex 18.163 5.405 0
      vertex 18 5.4 0
    endloop
  endfacet
  facet normal 0.0306604 0.99953 0
    outer loop
      vertex 18 5.4 1.1
      vertex 18 5.4 0
      vertex 17.837 5.405 1.1
    endloop
  endfacet
  facet normal 0.0306604 0.99953 0
    outer loop
      vertex 17.837 5.405 1.1
      vertex 18 5.4 0
      vertex 17.837 5.405 0
    endloop
  endfacet
  facet normal 0.09769 0.995217 0
    outer loop
      vertex 17.837 5.405 1.1
      vertex 17.837 5.405 0
      vertex 17.674 5.421 1.1
    endloop
  endfacet
  facet normal 0.09769 0.995217 0
    outer loop
      vertex 17.674 5.421 1.1
      vertex 17.837 5.405 0
      vertex 17.674 5.421 0
    endloop
  endfacet
  facet normal 0.153441 0.988158 0
    outer loop
      vertex 17.674 5.421 1.1
      vertex 17.674 5.421 0
      vertex 17.513 5.446 1.1
    endloop
  endfacet
  facet normal 0.153441 0.988158 0
    outer loop
      vertex 17.513 5.446 1.1
      vertex 17.674 5.421 0
      vertex 17.513 5.446 0
    endloop
  endfacet
  facet normal 0.219512 0.97561 0
    outer loop
      vertex 17.513 5.446 1.1
      vertex 17.513 5.446 0
      vertex 17.353 5.482 1.1
    endloop
  endfacet
  facet normal 0.219512 0.97561 0
    outer loop
      vertex 17.353 5.482 1.1
      vertex 17.513 5.446 0
      vertex 17.353 5.482 0
    endloop
  endfacet
  facet normal 0.277161 0.960824 0
    outer loop
      vertex 17.353 5.482 1.1
      vertex 17.353 5.482 0
      vertex 17.197 5.527 1.1
    endloop
  endfacet
  facet normal 0.277161 0.960824 0
    outer loop
      vertex 17.197 5.527 1.1
      vertex 17.353 5.482 0
      vertex 17.197 5.527 0
    endloop
  endfacet
  facet normal 0.341743 0.939793 0
    outer loop
      vertex 17.197 5.527 1.1
      vertex 17.197 5.527 0
      vertex 17.043 5.583 1.1
    endloop
  endfacet
  facet normal 0.341743 0.939793 0
    outer loop
      vertex 17.043 5.583 1.1
      vertex 17.197 5.527 0
      vertex 17.043 5.583 0
    endloop
  endfacet
  facet normal 0.392439 0.919778 0
    outer loop
      vertex 17.043 5.583 1.1
      vertex 17.043 5.583 0
      vertex 16.893 5.647 1.1
    endloop
  endfacet
  facet normal 0.392439 0.919778 0
    outer loop
      vertex 16.893 5.647 1.1
      vertex 17.043 5.583 0
      vertex 16.893 5.647 0
    endloop
  endfacet
  facet normal 0.456935 0.8895 0
    outer loop
      vertex 16.893 5.647 1.1
      vertex 16.893 5.647 0
      vertex 16.747 5.722 1.1
    endloop
  endfacet
  facet normal 0.456935 0.8895 0
    outer loop
      vertex 16.747 5.722 1.1
      vertex 16.893 5.647 0
      vertex 16.747 5.722 0
    endloop
  endfacet
  facet normal 0.509971 0.860192 0
    outer loop
      vertex 16.747 5.722 1.1
      vertex 16.747 5.722 0
      vertex 16.607 5.805 1.1
    endloop
  endfacet
  facet normal 0.509971 0.860192 0
    outer loop
      vertex 16.607 5.805 1.1
      vertex 16.747 5.722 0
      vertex 16.607 5.805 0
    endloop
  endfacet
  facet normal 0.563147 0.826357 0
    outer loop
      vertex 16.607 5.805 1.1
      vertex 16.607 5.805 0
      vertex 16.472 5.897 1.1
    endloop
  endfacet
  facet normal 0.563147 0.826357 0
    outer loop
      vertex 16.472 5.897 1.1
      vertex 16.607 5.805 0
      vertex 16.472 5.897 0
    endloop
  endfacet
  facet normal 0.612667 0.790341 0
    outer loop
      vertex 16.472 5.897 1.1
      vertex 16.472 5.897 0
      vertex 16.343 5.997 1.1
    endloop
  endfacet
  facet normal 0.612667 0.790341 0
    outer loop
      vertex 16.343 5.997 1.1
      vertex 16.472 5.897 0
      vertex 16.343 5.997 0
    endloop
  endfacet
  facet normal 0.659801 0.75144 0
    outer loop
      vertex 16.343 5.997 1.1
      vertex 16.343 5.997 0
      vertex 16.22 6.105 1.1
    endloop
  endfacet
  facet normal 0.659801 0.75144 0
    outer loop
      vertex 16.22 6.105 1.1
      vertex 16.343 5.997 0
      vertex 16.22 6.105 0
    endloop
  endfacet
  facet normal 0.707107 0.707107 0
    outer loop
      vertex 16.22 6.105 1.1
      vertex 16.22 6.105 0
      vertex 16.105 6.22 1.1
    endloop
  endfacet
  facet normal 0.707107 0.707107 0
    outer loop
      vertex 16.105 6.22 1.1
      vertex 16.22 6.105 0
      vertex 16.105 6.22 0
    endloop
  endfacet
  facet normal 0.75144 0.659801 0
    outer loop
      vertex 15.997 6.343 1.1
      vertex 16.105 6.22 1.1
      vertex 16.105 6.22 0
    endloop
  endfacet
  facet normal 0.75144 0.659801 0
    outer loop
      vertex 15.997 6.343 0
      vertex 15.997 6.343 1.1
      vertex 16.105 6.22 0
    endloop
  endfacet
  facet normal 0.790341 0.612667 0
    outer loop
      vertex 15.897 6.472 1.1
      vertex 15.997 6.343 1.1
      vertex 15.997 6.343 0
    endloop
  endfacet
  facet normal 0.790341 0.612667 0
    outer loop
      vertex 15.897 6.472 0
      vertex 15.897 6.472 1.1
      vertex 15.997 6.343 0
    endloop
  endfacet
  facet normal 0.826357 0.563147 0
    outer loop
      vertex 15.805 6.607 1.1
      vertex 15.897 6.472 1.1
      vertex 15.897 6.472 0
    endloop
  endfacet
  facet normal 0.826357 0.563147 0
    outer loop
      vertex 15.805 6.607 0
      vertex 15.805 6.607 1.1
      vertex 15.897 6.472 0
    endloop
  endfacet
  facet normal 0.860192 0.509971 0
    outer loop
      vertex 15.722 6.747 1.1
      vertex 15.805 6.607 1.1
      vertex 15.805 6.607 0
    endloop
  endfacet
  facet normal 0.860192 0.509971 0
    outer loop
      vertex 15.722 6.747 0
      vertex 15.722 6.747 1.1
      vertex 15.805 6.607 0
    endloop
  endfacet
  facet normal 0.8895 0.456935 0
    outer loop
      vertex 15.647 6.893 1.1
      vertex 15.722 6.747 1.1
      vertex 15.722 6.747 0
    endloop
  endfacet
  facet normal 0.8895 0.456935 0
    outer loop
      vertex 15.647 6.893 0
      vertex 15.647 6.893 1.1
      vertex 15.722 6.747 0
    endloop
  endfacet
  facet normal 0.919778 0.392439 0
    outer loop
      vertex 15.583 7.043 1.1
      vertex 15.647 6.893 1.1
      vertex 15.647 6.893 0
    endloop
  endfacet
  facet normal 0.919778 0.392439 0
    outer loop
      vertex 15.583 7.043 0
      vertex 15.583 7.043 1.1
      vertex 15.647 6.893 0
    endloop
  endfacet
  facet normal 0.939793 0.341743 0
    outer loop
      vertex 15.527 7.197 1.1
      vertex 15.583 7.043 1.1
      vertex 15.583 7.043 0
    endloop
  endfacet
  facet normal 0.939793 0.341743 0
    outer loop
      vertex 15.527 7.197 0
      vertex 15.527 7.197 1.1
      vertex 15.583 7.043 0
    endloop
  endfacet
  facet normal 0.960824 0.277161 0
    outer loop
      vertex 15.482 7.353 1.1
      vertex 15.527 7.197 1.1
      vertex 15.527 7.197 0
    endloop
  endfacet
  facet normal 0.960824 0.277161 0
    outer loop
      vertex 15.482 7.353 0
      vertex 15.482 7.353 1.1
      vertex 15.527 7.197 0
    endloop
  endfacet
  facet normal 0.97561 0.219512 0
    outer loop
      vertex 15.446 7.513 1.1
      vertex 15.482 7.353 1.1
      vertex 15.482 7.353 0
    endloop
  endfacet
  facet normal 0.97561 0.219512 0
    outer loop
      vertex 15.446 7.513 0
      vertex 15.446 7.513 1.1
      vertex 15.482 7.353 0
    endloop
  endfacet
  facet normal 0.988158 0.153441 0
    outer loop
      vertex 15.421 7.674 1.1
      vertex 15.446 7.513 1.1
      vertex 15.446 7.513 0
    endloop
  endfacet
  facet normal 0.988158 0.153441 0
    outer loop
      vertex 15.421 7.674 0
      vertex 15.421 7.674 1.1
      vertex 15.446 7.513 0
    endloop
  endfacet
  facet normal 0.995217 0.09769 0
    outer loop
      vertex 15.405 7.837 1.1
      vertex 15.421 7.674 1.1
      vertex 15.421 7.674 0
    endloop
  endfacet
  facet normal 0.995217 0.09769 0
    outer loop
      vertex 15.405 7.837 0
      vertex 15.405 7.837 1.1
      vertex 15.421 7.674 0
    endloop
  endfacet
  facet normal 0 0 1
    outer loop
      vertex 0 16 3.5
      vertex 0 13.6 3.5
      vertex 36 12.8 3.5
    endloop
  endfacet
  facet normal 0 0 1
    outer loop
      vertex 36 16 3.5
      vertex 0 16 3.5
      vertex 36 12.8 3.5
    endloop
  endfacet
  facet normal -0.0222167 -0.999753 0
    outer loop
      vertex 36 12.8 1.1
      vertex 36 12.8 3.5
      vertex 0 13.6 3.5
    endloop
  endfacet
  facet normal -0.0222167 -0.999753 0
    outer loop
      vertex 0 13.6 1.1
      vertex 36 12.8 1.1
      vertex 0 13.6 3.5
    endloop
  endfacet
  facet normal 0 0 1
    outer loop
      vertex 17.674 10.579 1.1
      vertex 36 12.8 1.1
      vertex 0 13.6 1.1
    endloop
  endfacet
  facet normal 0 0 1
    outer loop
      vertex 18.326 10.579 1.1
      vertex 18.487 10.554 1.1
      vertex 36 12.8 1.1
    endloop
  endfacet
  facet normal 0 0 1
    outer loop
      vertex 0 2.4 1.1
      vertex 15.4 8 1.1
      vertex 0 13.6 1.1
    endloop
  endfacet
  facet normal 0 0 1
    outer loop
      vertex 15.4 8 1.1
      vertex 15.405 8.163 1.1
      vertex 0 13.6 1.1
    endloop
  endfacet
  facet normal 0 0 1
    outer loop
      vertex 15.405 8.163 1.1
      vertex 15.421 8.326 1.1
      vertex 0 13.6 1.1
    endloop
  endfacet
  facet normal 0 0 1
    outer loop
      vertex 15.421 8.326 1.1
      vertex 15.446 8.487 1.1
      vertex 0 13.6 1.1
    endloop
  endfacet
  facet normal 0 0 1
    outer loop
      vertex 20.417 7.043 1.1
      vertex 20.353 6.893 1.1
      vertex 36 3.2 1.1
    endloop
  endfacet
  facet normal 0 0 1
    outer loop
      vertex 15.446 8.487 1.1
      vertex 15.482 8.647 1.1
      vertex 0 13.6 1.1
    endloop
  endfacet
  facet normal 0 0 1
    outer loop
      vertex 15.482 8.647 1.1
      vertex 15.527 8.803 1.1
      vertex 0 13.6 1.1
    endloop
  endfacet
  facet normal 0 0 1
    outer loop
      vertex 15.527 8.803 1.1
      vertex 15.583 8.957 1.1
      vertex 0 13.6 1.1
    endloop
  endfacet
  facet normal 0 0 1
    outer loop
      vertex 15.647 9.107 1.1
      vertex 15.722 9.253 1.1
      vertex 0 13.6 1.1
    endloop
  endfacet
  facet normal 0 0 1
    outer loop
      vertex 15.722 9.253 1.1
      vertex 15.805 9.393 1.1
      vertex 0 13.6 1.1
    endloop
  endfacet
  facet normal 0 0 1
    outer loop
      vertex 15.805 9.393 1.1
      vertex 15.897 9.528 1.1
      vertex 0 13.6 1.1
    endloop
  endfacet
  facet normal 0 0 1
    outer loop
      vertex 15.897 9.528 1.1
      vertex 15.997 9.657 1.1
      vertex 0 13.6 1.1
    endloop
  endfacet
  facet normal 0 0 1
    outer loop
      vertex 19.528 10.103 1.1
      vertex 19.657 10.003 1.1
      vertex 36 12.8 1.1
    endloop
  endfacet
  facet normal 0 0 1
    outer loop
      vertex 15.997 9.657 1.1
      vertex 16.105 9.78 1.1
      vertex 0 13.6 1.1
    endloop
  endfacet
  facet normal 0 0 1
    outer loop
      vertex 16.105 9.78 1.1
      vertex 16.22 9.895 1.1
      vertex 0 13.6 1.1
    endloop
  endfacet
  facet normal 0 0 1
    outer loop
      vertex 16.22 9.895 1.1
      vertex 16.343 10.003 1.1
      vertex 0 13.6 1.1
    endloop
  endfacet
  facet normal 0 0 1
    outer loop
      vertex 16.343 10.003 1.1
      vertex 16.472 10.103 1.1
      vertex 0 13.6 1.1
    endloop
  endfacet
  facet normal 0 0 1
    outer loop
      vertex 16.472 10.103 1.1
      vertex 16.607 10.195 1.1
      vertex 0 13.6 1.1
    endloop
  endfacet
  facet normal 0 0 1
    outer loop
      vertex 16.607 10.195 1.1
      vertex 16.747 10.278 1.1
      vertex 0 13.6 1.1
    endloop
  endfacet
  facet normal 0 0 1
    outer loop
      vertex 16.747 10.278 1.1
      vertex 16.893 10.353 1.1
      vertex 0 13.6 1.1
    endloop
  endfacet
  facet normal 0 0 1
    outer loop
      vertex 16.893 10.353 1.1
      vertex 17.043 10.417 1.1
      vertex 0 13.6 1.1
    endloop
  endfacet
  facet normal 0 0 1
    outer loop
      vertex 18.487 10.554 1.1
      vertex 18.647 10.518 1.1
      vertex 36 12.8 1.1
    endloop
  endfacet
  facet normal 0 0 1
    outer loop
      vertex 17.043 10.417 1.1
      vertex 17.197 10.473 1.1
      vertex 0 13.6 1.1
    endloop
  endfacet
  facet normal 0 0 1
    outer loop
      vertex 17.197 10.473 1.1
      vertex 17.353 10.518 1.1
      vertex 0 13.6 1.1
    endloop
  endfacet
  facet normal 0 0 1
    outer loop
      vertex 17.353 10.518 1.1
      vertex 17.513 10.554 1.1
      vertex 0 13.6 1.1
    endloop
  endfacet
  facet normal 0 0 1
    outer loop
      vertex 17.513 10.554 1.1
      vertex 17.674 10.579 1.1
      vertex 0 13.6 1.1
    endloop
  endfacet
  facet normal 0 0 1
    outer loop
      vertex 17.837 10.595 1.1
      vertex 36 12.8 1.1
      vertex 17.674 10.579 1.1
    endloop
  endfacet
  facet normal 0 0 1
    outer loop
      vertex 18 10.6 1.1
      vertex 18.163 10.595 1.1
      vertex 36 12.8 1.1
    endloop
  endfacet
  facet normal 0 0 1
    outer loop
      vertex 18.163 10.595 1.1
      vertex 18.326 10.579 1.1
      vertex 36 12.8 1.1
    endloop
  endfacet
  facet normal 0 0 1
    outer loop
      vertex 19.393 10.195 1.1
      vertex 19.528 10.103 1.1
      vertex 36 12.8 1.1
    endloop
  endfacet
  facet normal 0 0 1
    outer loop
      vertex 18.647 10.518 1.1
      vertex 18.803 10.473 1.1
      vertex 36 12.8 1.1
    endloop
  endfacet
  facet normal 0 0 1
    outer loop
      vertex 18.803 10.473 1.1
      vertex 18.957 10.417 1.1
      vertex 36 12.8 1.1
    endloop
  endfacet
  facet normal 0 0 1
    outer loop
      vertex 18.957 10.417 1.1
      vertex 19.107 10.353 1.1
      vertex 36 12.8 1.1
    endloop
  endfacet
  facet normal 0 0 1
    outer loop
      vertex 19.107 10.353 1.1
      vertex 19.253 10.278 1.1
      vertex 36 12.8 1.1
    endloop
  endfacet
  facet normal 0 0 1
    outer loop
      vertex 19.253 10.278 1.1
      vertex 19.393 10.195 1.1
      vertex 36 12.8 1.1
    endloop
  endfacet
  facet normal 0 0 1
    outer loop
      vertex 20.473 7.197 1.1
      vertex 20.417 7.043 1.1
      vertex 36 3.2 1.1
    endloop
  endfacet
  facet normal 0 0 1
    outer loop
      vertex 19.657 10.003 1.1
      vertex 19.78 9.895 1.1
      vertex 36 12.8 1.1
    endloop
  endfacet
  facet normal 0 0 1
    outer loop
      vertex 19.78 9.895 1.1
      vertex 19.895 9.78 1.1
      vertex 36 12.8 1.1
    endloop
  endfacet
  facet normal 0 0 1
    outer loop
      vertex 20.595 7.837 1.1
      vertex 20.579 7.674 1.1
      vertex 36 3.2 1.1
    endloop
  endfacet
  facet normal 0 0 1
    outer loop
      vertex 36 3.2 1.1
      vertex 36 12.8 1.1
      vertex 19.895 9.78 1.1
    endloop
  endfacet
  facet normal 0 0 1
    outer loop
      vertex 36 3.2 1.1
      vertex 19.895 9.78 1.1
      vertex 20.003 9.657 1.1
    endloop
  endfacet
  facet normal 0 0 1
    outer loop
      vertex 36 3.2 1.1
      vertex 20.003 9.657 1.1
      vertex 20.103 9.528 1.1
    endloop
  endfacet
  facet normal 0 0 1
    outer loop
      vertex 36 3.2 1.1
      vertex 20.103 9.528 1.1
      vertex 20.195 9.393 1.1
    endloop
  endfacet
  facet normal 0 0 1
    outer loop
      vertex 36 3.2 1.1
      vertex 20.195 9.393 1.1
      vertex 20.278 9.253 1.1
    endloop
  endfacet
  facet normal 0 0 1
    outer loop
      vertex 36 3.2 1.1
      vertex 20.278 9.253 1.1
      vertex 20.353 9.107 1.1
    endloop
  endfacet
  facet normal 0 0 1
    outer loop
      vertex 36 3.2 1.1
      vertex 20.353 9.107 1.1
      vertex 20.417 8.957 1.1
    endloop
  endfacet
  facet normal 0 0 1
    outer loop
      vertex 36 3.2 1.1
      vertex 20.417 8.957 1.1
      vertex 20.473 8.803 1.1
    endloop
  endfacet
  facet normal 0 0 1
    outer loop
      vertex 36 3.2 1.1
      vertex 20.473 8.803 1.1
      vertex 20.518 8.647 1.1
    endloop
  endfacet
  facet normal 0 0 1
    outer loop
      vertex 36 3.2 1.1
      vertex 20.518 8.647 1.1
      vertex 20.554 8.487 1.1
    endloop
  endfacet
  facet normal 0 0 1
    outer loop
      vertex 36 3.2 1.1
      vertex 20.554 8.487 1.1
      vertex 20.579 8.326 1.1
    endloop
  endfacet
  facet normal 0 0 1
    outer loop
      vertex 36 3.2 1.1
      vertex 20.579 8.326 1.1
      vertex 20.595 8.163 1.1
    endloop
  endfacet
  facet normal 0 0 1
    outer loop
      vertex 36 3.2 1.1
      vertex 20.595 8.163 1.1
      vertex 20.6 8 1.1
    endloop
  endfacet
  facet normal 0 0 1
    outer loop
      vertex 20.579 7.674 1.1
      vertex 20.554 7.513 1.1
      vertex 36 3.2 1.1
    endloop
  endfacet
  facet normal 0 0 1
    outer loop
      vertex 36 3.2 1.1
      vertex 20.6 8 1.1
      vertex 20.595 7.837 1.1
    endloop
  endfacet
  facet normal 0 0 1
    outer loop
      vertex 17.837 10.595 1.1
      vertex 18 10.6 1.1
      vertex 36 12.8 1.1
    endloop
  endfacet
  facet normal 0 0 1
    outer loop
      vertex 20.518 7.353 1.1
      vertex 20.473 7.197 1.1
      vertex 36 3.2 1.1
    endloop
  endfacet
  facet normal 0 0 1
    outer loop
      vertex 17.043 5.583 1.1
      vertex 16.893 5.647 1.1
      vertex 0 2.4 1.1
    endloop
  endfacet
  facet normal 0 0 1
    outer loop
      vertex 20.353 6.893 1.1
      vertex 20.278 6.747 1.1
      vertex 36 3.2 1.1
    endloop
  endfacet
  facet normal 0 0 1
    outer loop
      vertex 18.326 5.421 1.1
      vertex 18.163 5.405 1.1
      vertex 0 2.4 1.1
    endloop
  endfacet
  facet normal 0 0 1
    outer loop
      vertex 20.195 6.607 1.1
      vertex 36 3.2 1.1
      vertex 20.278 6.747 1.1
    endloop
  endfacet
  facet normal 0 0 1
    outer loop
      vertex 20.103 6.472 1.1
      vertex 36 3.2 1.1
      vertex 20.195 6.607 1.1
    endloop
  endfacet
  facet normal 0 0 1
    outer loop
      vertex 20.003 6.343 1.1
      vertex 36 3.2 1.1
      vertex 20.103 6.472 1.1
    endloop
  endfacet
  facet normal 0 0 1
    outer loop
      vertex 19.895 6.22 1.1
      vertex 36 3.2 1.1
      vertex 20.003 6.343 1.1
    endloop
  endfacet
  facet normal 0 0 1
    outer loop
      vertex 19.78 6.105 1.1
      vertex 36 3.2 1.1
      vertex 19.895 6.22 1.1
    endloop
  endfacet
  facet normal 0 0 1
    outer loop
      vertex 16.893 5.647 1.1
      vertex 16.747 5.722 1.1
      vertex 0 2.4 1.1
    endloop
  endfacet
  facet normal 0 0 1
    outer loop
      vertex 19.657 5.997 1.1
      vertex 36 3.2 1.1
      vertex 19.78 6.105 1.1
    endloop
  endfacet
  facet normal 0 0 1
    outer loop
      vertex 19.528 5.897 1.1
      vertex 36 3.2 1.1
      vertex 19.657 5.997 1.1
    endloop
  endfacet
  facet normal 0 0 1
    outer loop
      vertex 19.393 5.805 1.1
      vertex 36 3.2 1.1
      vertex 19.528 5.897 1.1
    endloop
  endfacet
  facet normal 0 0 1
    outer loop
      vertex 19.253 5.722 1.1
      vertex 36 3.2 1.1
      vertex 19.393 5.805 1.1
    endloop
  endfacet
  facet normal 0 0 1
    outer loop
      vertex 19.107 5.647 1.1
      vertex 36 3.2 1.1
      vertex 19.253 5.722 1.1
    endloop
  endfacet
  facet normal 0 0 1
    outer loop
      vertex 18.957 5.583 1.1
      vertex 36 3.2 1.1
      vertex 19.107 5.647 1.1
    endloop
  endfacet
  facet normal 0 0 1
    outer loop
      vertex 18.803 5.527 1.1
      vertex 36 3.2 1.1
      vertex 18.957 5.583 1.1
    endloop
  endfacet
  facet normal 0 0 1
    outer loop
      vertex 18.647 5.482 1.1
      vertex 36 3.2 1.1
      vertex 18.803 5.527 1.1
    endloop
  endfacet
  facet normal 0 0 1
    outer loop
      vertex 18.487 5.446 1.1
      vertex 36 3.2 1.1
      vertex 18.647 5.482 1.1
    endloop
  endfacet
  facet normal 0 0 1
    outer loop
      vertex 0 2.4 1.1
      vertex 36 3.2 1.1
      vertex 18.487 5.446 1.1
    endloop
  endfacet
  facet normal 0 0 1
    outer loop
      vertex 18.163 5.405 1.1
      vertex 18 5.4 1.1
      vertex 0 2.4 1.1
    endloop
  endfacet
  facet normal 0 0 1
    outer loop
      vertex 0 2.4 1.1
      vertex 18.487 5.446 1.1
      vertex 18.326 5.421 1.1
    endloop
  endfacet
  facet normal 0 0 1
    outer loop
      vertex 18 5.4 1.1
      vertex 17.837 5.405 1.1
      vertex 0 2.4 1.1
    endloop
  endfacet
  facet normal 0 0 1
    outer loop
      vertex 17.837 5.405 1.1
      vertex 17.674 5.421 1.1
      vertex 0 2.4 1.1
    endloop
  endfacet
  facet normal 0 0 1
    outer loop
      vertex 17.674 5.421 1.1
      vertex 17.513 5.446 1.1
      vertex 0 2.4 1.1
    endloop
  endfacet
  facet normal 0 0 1
    outer loop
      vertex 17.513 5.446 1.1
      vertex 17.353 5.482 1.1
      vertex 0 2.4 1.1
    endloop
  endfacet
  facet normal 0 0 1
    outer loop
      vertex 17.353 5.482 1.1
      vertex 17.197 5.527 1.1
      vertex 0 2.4 1.1
    endloop
  endfacet
  facet normal 0 0 1
    outer loop
      vertex 17.197 5.527 1.1
      vertex 17.043 5.583 1.1
      vertex 0 2.4 1.1
    endloop
  endfacet
  facet normal 0 0 1
    outer loop
      vertex 16.747 5.722 1.1
      vertex 16.607 5.805 1.1
      vertex 0 2.4 1.1
    endloop
  endfacet
  facet normal 0 0 1
    outer loop
      vertex 16.607 5.805 1.1
      vertex 16.472 5.897 1.1
      vertex 0 2.4 1.1
    endloop
  endfacet
  facet normal 0 0 1
    outer loop
      vertex 16.472 5.897 1.1
      vertex 16.343 5.997 1.1
      vertex 0 2.4 1.1
    endloop
  endfacet
  facet normal 0 0 1
    outer loop
      vertex 0 2.4 1.1
      vertex 16.343 5.997 1.1
      vertex 16.22 6.105 1.1
    endloop
  endfacet
  facet normal 0 0 1
    outer loop
      vertex 0 2.4 1.1
      vertex 16.22 6.105 1.1
      vertex 16.105 6.22 1.1
    endloop
  endfacet
  facet normal 0 0 1
    outer loop
      vertex 0 2.4 1.1
      vertex 16.105 6.22 1.1
      vertex 15.997 6.343 1.1
    endloop
  endfacet
  facet normal 0 0 1
    outer loop
      vertex 0 2.4 1.1
      vertex 15.997 6.343 1.1
      vertex 15.897 6.472 1.1
    endloop
  endfacet
  facet normal 0 0 1
    outer loop
      vertex 0 2.4 1.1
      vertex 15.897 6.472 1.1
      vertex 15.805 6.607 1.1
    endloop
  endfacet
  facet normal 0 0 1
    outer loop
      vertex 0 2.4 1.1
      vertex 15.805 6.607 1.1
      vertex 15.722 6.747 1.1
    endloop
  endfacet
  facet normal 0 0 1
    outer loop
      vertex 0 2.4 1.1
      vertex 15.722 6.747 1.1
      vertex 15.647 6.893 1.1
    endloop
  endfacet
  facet normal 0 0 1
    outer loop
      vertex 0 2.4 1.1
      vertex 15.647 6.893 1.1
      vertex 15.583 7.043 1.1
    endloop
  endfacet
  facet normal 0 0 1
    outer loop
      vertex 0 2.4 1.1
      vertex 15.583 7.043 1.1
      vertex 15.527 7.197 1.1
    endloop
  endfacet
  facet normal 0 0 1
    outer loop
      vertex 0 2.4 1.1
      vertex 15.527 7.197 1.1
      vertex 15.482 7.353 1.1
    endloop
  endfacet
  facet normal 0 0 1
    outer loop
      vertex 0 2.4 1.1
      vertex 15.482 7.353 1.1
      vertex 15.446 7.513 1.1
    endloop
  endfacet
  facet normal 0 0 1
    outer loop
      vertex 0 2.4 1.1
      vertex 15.446 7.513 1.1
      vertex 15.421 7.674 1.1
    endloop
  endfacet
  facet normal 0 0 1
    outer loop
      vertex 0 2.4 1.1
      vertex 15.405 7.837 1.1
      vertex 15.4 8 1.1
    endloop
  endfacet
  facet normal 0 0 1
    outer loop
      vertex 0 2.4 1.1
      vertex 15.421 7.674 1.1
      vertex 15.405 7.837 1.1
    endloop
  endfacet
  facet normal 0 0 1
    outer loop
      vertex 20.554 7.513 1.1
      vertex 20.518 7.353 1.1
      vertex 36 3.2 1.1
    endloop
  endfacet
  facet normal 0 0 1
    outer loop
      vertex 15.583 8.957 1.1
      vertex 15.647 9.107 1.1
      vertex 0 13.6 1.1
    endloop
  endfacet
  facet normal -0.0222167 0.999753 0
    outer loop
      vertex 36 3.2 3.5
      vertex 36 3.2 1.1
      vertex 0 2.4 3.5
    endloop
  endfacet
  facet normal -0.0222167 0.999753 0
    outer loop
      vertex 0 2.4 3.5
      vertex 36 3.2 1.1
      vertex 0 2.4 1.1
    endloop
  endfacet
endsolid OpenSCAD_Model
