solid OpenSCAD_Model
  facet normal 0 -1 0
    outer loop
      vertex 0 0 6
      vertex 0 0 0
      vertex 43 0 0
    endloop
  endfacet
  facet normal 0 -1 0
    outer loop
      vertex 43 0 6
      vertex 0 0 6
      vertex 43 0 0
    endloop
  endfacet
  facet normal 0 0 -1
    outer loop
      vertex 0 0 0
      vertex 0 64.5 0
      vertex 43 0 0
    endloop
  endfacet
  facet normal 0 0 -1
    outer loop
      vertex 43 0 0
      vertex 0 64.5 0
      vertex 43 64.5 0
    endloop
  endfacet
  facet normal -1 0 0
    outer loop
      vertex 0 0 0
      vertex 0 0 6
      vertex 0 64.5 0
    endloop
  endfacet
  facet normal -1 0 0
    outer loop
      vertex 0 64.5 0
      vertex 0 0 6
      vertex 0 64.5 6
    endloop
  endfacet
  facet normal 0 0 1
    outer loop
      vertex 1 1 6
      vertex 0 0 6
      vertex 43 0 6
    endloop
  endfacet
  facet normal 0 0 1
    outer loop
      vertex 1 58.5 6
      vertex 1 63.5 6
      vertex 0 64.5 6
    endloop
  endfacet
  facet normal 0 0 1
    outer loop
      vertex 42 5 6
      vertex 42 1 6
      vertex 43 0 6
    endloop
  endfacet
  facet normal 0 0 1
    outer loop
      vertex 0 64.5 6
      vertex 0 0 6
      vertex 1 1 6
    endloop
  endfacet
  facet normal 0 0 1
    outer loop
      vertex 0 64.5 6
      vertex 1 1 6
      vertex 1 5 6
    endloop
  endfacet
  facet normal 0 0 1
    outer loop
      vertex 43 64.5 6
      vertex 42 5 6
      vertex 43 0 6
    endloop
  endfacet
  facet normal 0 0 1
    outer loop
      vertex 1 37.5 6
      vertex 42 37.5 6
      vertex 1 58.5 6
    endloop
  endfacet
  facet normal 0 0 1
    outer loop
      vertex 42 58.5 6
      vertex 1 58.5 6
      vertex 42 37.5 6
    endloop
  endfacet
  facet normal 0 0 1
    outer loop
      vertex 42 30 6
      vertex 1 30 6
      vertex 42 5 6
    endloop
  endfacet
  facet normal 0 0 1
    outer loop
      vertex 0 64.5 6
      vertex 1 5 6
      vertex 1 30 6
    endloop
  endfacet
  facet normal 0 0 1
    outer loop
      vertex 0 64.5 6
      vertex 1 30 6
      vertex 1 37.5 6
    endloop
  endfacet
  facet normal 0 0 1
    outer loop
      vertex 43 64.5 6
      vertex 42 30 6
      vertex 42 5 6
    endloop
  endfacet
  facet normal 0 0 1
    outer loop
      vertex 43 64.5 6
      vertex 42 37.5 6
      vertex 42 30 6
    endloop
  endfacet
  facet normal 0 0 1
    outer loop
      vertex 0 64.5 6
      vertex 1 37.5 6
      vertex 1 58.5 6
    endloop
  endfacet
  facet normal 0 0 1
    outer loop
      vertex 43 64.5 6
      vertex 0 64.5 6
      vertex 42 63.5 6
    endloop
  endfacet
  facet normal 0 0 1
    outer loop
      vertex 43 64.5 6
      vertex 42 58.5 6
      vertex 42 37.5 6
    endloop
  endfacet
  facet normal 0 0 1
    outer loop
      vertex 43 64.5 6
      vertex 42 63.5 6
      vertex 42 58.5 6
    endloop
  endfacet
  facet normal 0 0 1
    outer loop
      vertex 42 1 6
      vertex 1 1 6
      vertex 43 0 6
    endloop
  endfacet
  facet normal 0 0 1
    outer loop
      vertex 1 63.5 6
      vertex 42 63.5 6
      vertex 0 64.5 6
    endloop
  endfacet
  facet normal 0 0 1
    outer loop
      vertex 1 5 6
      vertex 42 5 6
      vertex 1 30 6
    endloop
  endfacet
  facet normal 1 0 0
    outer loop
      vertex 43 0 6
      vertex 43 0 0
      vertex 43 64.5 0
    endloop
  endfacet
  facet normal 1 0 0
    outer loop
      vertex 43 64.5 6
      vertex 43 0 6
      vertex 43 64.5 0
    endloop
  endfacet
  facet normal 0 1 0
    outer loop
      vertex 0 64.5 0
      vertex 0 64.5 6
      vertex 43 64.5 0
    endloop
  endfacet
  facet normal 0 1 0
    outer loop
      vertex 43 64.5 0
      vertex 0 64.5 6
      vertex 43 64.5 6
    endloop
  endfacet
  facet normal 1 0 0
    outer loop
      vertex 1 5 2
      vertex 1 5 6
      vertex 1 1 6
    endloop
  endfacet
  facet normal 1 0 0
    outer loop
      vertex 1 1 2
      vertex 1 5 2
      vertex 1 1 6
    endloop
  endfacet
  facet normal 0 1 0
    outer loop
      vertex 42 1 6
      vertex 42 1 2
      vertex 1 1 6
    endloop
  endfacet
  facet normal 0 1 0
    outer loop
      vertex 1 1 6
      vertex 42 1 2
      vertex 1 1 2
    endloop
  endfacet
  facet normal -1 0 0
    outer loop
      vertex 42 5 6
      vertex 42 5 2
      vertex 42 1 6
    endloop
  endfacet
  facet normal -1 0 0
    outer loop
      vertex 42 1 6
      vertex 42 5 2
      vertex 42 1 2
    endloop
  endfacet
  facet normal 0 -1 0
    outer loop
      vertex 42 5 2
      vertex 42 5 6
      vertex 1 5 6
    endloop
  endfacet
  facet normal 0 -1 0
    outer loop
      vertex 1 5 2
      vertex 42 5 2
      vertex 1 5 6
    endloop
  endfacet
  facet normal 1 0 0
    outer loop
      vertex 1 37.5 2
      vertex 1 37.5 6
      vertex 1 30 6
    endloop
  endfacet
  facet normal 1 0 0
    outer loop
      vertex 1 30 2
      vertex 1 37.5 2
      vertex 1 30 6
    endloop
  endfacet
  facet normal 0 1 0
    outer loop
      vertex 42 30 6
      vertex 42 30 2
      vertex 1 30 6
    endloop
  endfacet
  facet normal 0 1 0
    outer loop
      vertex 1 30 6
      vertex 42 30 2
      vertex 1 30 2
    endloop
  endfacet
  facet normal -1 0 0
    outer loop
      vertex 42 37.5 6
      vertex 42 37.5 2
      vertex 42 30 6
    endloop
  endfacet
  facet normal -1 0 0
    outer loop
      vertex 42 30 6
      vertex 42 37.5 2
      vertex 42 30 2
    endloop
  endfacet
  facet normal 0 -1 0
    outer loop
      vertex 42 37.5 2
      vertex 42 37.5 6
      vertex 1 37.5 6
    endloop
  endfacet
  facet normal 0 -1 0
    outer loop
      vertex 1 37.5 2
      vertex 42 37.5 2
      vertex 1 37.5 6
    endloop
  endfacet
  facet normal 1 0 0
    outer loop
      vertex 1 63.5 2
      vertex 1 63.5 6
      vertex 1 58.5 6
    endloop
  endfacet
  facet normal 1 0 0
    outer loop
      vertex 1 58.5 2
      vertex 1 63.5 2
      vertex 1 58.5 6
    endloop
  endfacet
  facet normal 0 1 0
    outer loop
      vertex 42 58.5 6
      vertex 42 58.5 2
      vertex 1 58.5 6
    endloop
  endfacet
  facet normal 0 1 0
    outer loop
      vertex 1 58.5 6
      vertex 42 58.5 2
      vertex 1 58.5 2
    endloop
  endfacet
  facet normal -1 0 0
    outer loop
      vertex 42 63.5 6
      vertex 42 63.5 2
      vertex 42 58.5 6
    endloop
  endfacet
  facet normal -1 0 0
    outer loop
      vertex 42 58.5 6
      vertex 42 63.5 2
      vertex 42 58.5 2
    endloop
  endfacet
  facet normal 0 -1 0
    outer loop
      vertex 42 63.5 2
      vertex 42 63.5 6
      vertex 1 63.5 6
    endloop
  endfacet
  facet normal 0 -1 0
    outer loop
      vertex 1 63.5 2
      vertex 42 63.5 2
      vertex 1 63.5 6
    endloop
  endfacet
  facet normal 0 0 1
    outer loop
      vertex 42 1 2
      vertex 42 5 2
      vertex 1 5 2
    endloop
  endfacet
  facet normal 0 0 1
    outer loop
      vertex 1 1 2
      vertex 42 1 2
      vertex 1 5 2
    endloop
  endfacet
  facet normal 0 0 1
    outer loop
      vertex 42 30 2
      vertex 42 37.5 2
      vertex 1 37.5 2
    endloop
  endfacet
  facet normal 0 0 1
    outer loop
      vertex 1 30 2
      vertex 42 30 2
      vertex 1 37.5 2
    endloop
  endfacet
  facet normal 0 0 1
    outer loop
      vertex 42 58.5 2
      vertex 42 63.5 2
      vertex 1 63.5 2
    endloop
  endfacet
  facet normal 0 0 1
    outer loop
      vertex 1 58.5 2
      vertex 42 58.5 2
      vertex 1 63.5 2
    endloop
  endfacet
endsolid OpenSCAD_Model
