solid OpenSCAD_Model
  facet normal 0 -1 0
    outer loop
      vertex 0 0 6
      vertex 0 0 0
      vertex 42 0 0
    endloop
  endfacet
  facet normal 0 -1 0
    outer loop
      vertex 42 0 6
      vertex 0 0 6
      vertex 42 0 0
    endloop
  endfacet
  facet normal 0 0 -1
    outer loop
      vertex 0 0 0
      vertex 0 61.5 0
      vertex 42 0 0
    endloop
  endfacet
  facet normal 0 0 -1
    outer loop
      vertex 42 0 0
      vertex 0 61.5 0
      vertex 42 61.5 0
    endloop
  endfacet
  facet normal -1 0 0
    outer loop
      vertex 0 0 0
      vertex 0 0 6
      vertex 0 61.5 0
    endloop
  endfacet
  facet normal -1 0 0
    outer loop
      vertex 0 61.5 0
      vertex 0 0 6
      vertex 0 61.5 6
    endloop
  endfacet
  facet normal 0 0 1
    outer loop
      vertex 1 1 6
      vertex 0 0 6
      vertex 42 0 6
    endloop
  endfacet
  facet normal 0 0 1
    outer loop
      vertex 1 56.5 6
      vertex 1 60.5 6
      vertex 0 61.5 6
    endloop
  endfacet
  facet normal 0 0 1
    outer loop
      vertex 41 4 6
      vertex 41 1 6
      vertex 42 0 6
    endloop
  endfacet
  facet normal 0 0 1
    outer loop
      vertex 0 61.5 6
      vertex 0 0 6
      vertex 1 1 6
    endloop
  endfacet
  facet normal 0 0 1
    outer loop
      vertex 0 61.5 6
      vertex 1 1 6
      vertex 1 4 6
    endloop
  endfacet
  facet normal 0 0 1
    outer loop
      vertex 42 61.5 6
      vertex 41 4 6
      vertex 42 0 6
    endloop
  endfacet
  facet normal 0 0 1
    outer loop
      vertex 1 35.5 6
      vertex 41 35.5 6
      vertex 1 56.5 6
    endloop
  endfacet
  facet normal 0 0 1
    outer loop
      vertex 41 56.5 6
      vertex 1 56.5 6
      vertex 41 35.5 6
    endloop
  endfacet
  facet normal 0 0 1
    outer loop
      vertex 41 29 6
      vertex 1 29 6
      vertex 41 4 6
    endloop
  endfacet
  facet normal 0 0 1
    outer loop
      vertex 0 61.5 6
      vertex 1 4 6
      vertex 1 29 6
    endloop
  endfacet
  facet normal 0 0 1
    outer loop
      vertex 0 61.5 6
      vertex 1 29 6
      vertex 1 35.5 6
    endloop
  endfacet
  facet normal 0 0 1
    outer loop
      vertex 42 61.5 6
      vertex 41 29 6
      vertex 41 4 6
    endloop
  endfacet
  facet normal 0 0 1
    outer loop
      vertex 42 61.5 6
      vertex 41 35.5 6
      vertex 41 29 6
    endloop
  endfacet
  facet normal 0 0 1
    outer loop
      vertex 0 61.5 6
      vertex 1 35.5 6
      vertex 1 56.5 6
    endloop
  endfacet
  facet normal 0 0 1
    outer loop
      vertex 42 61.5 6
      vertex 0 61.5 6
      vertex 41 60.5 6
    endloop
  endfacet
  facet normal 0 0 1
    outer loop
      vertex 42 61.5 6
      vertex 41 56.5 6
      vertex 41 35.5 6
    endloop
  endfacet
  facet normal 0 0 1
    outer loop
      vertex 42 61.5 6
      vertex 41 60.5 6
      vertex 41 56.5 6
    endloop
  endfacet
  facet normal 0 0 1
    outer loop
      vertex 41 1 6
      vertex 1 1 6
      vertex 42 0 6
    endloop
  endfacet
  facet normal 0 0 1
    outer loop
      vertex 1 60.5 6
      vertex 41 60.5 6
      vertex 0 61.5 6
    endloop
  endfacet
  facet normal 0 0 1
    outer loop
      vertex 1 4 6
      vertex 41 4 6
      vertex 1 29 6
    endloop
  endfacet
  facet normal 1 0 0
    outer loop
      vertex 42 0 6
      vertex 42 0 0
      vertex 42 61.5 0
    endloop
  endfacet
  facet normal 1 0 0
    outer loop
      vertex 42 61.5 6
      vertex 42 0 6
      vertex 42 61.5 0
    endloop
  endfacet
  facet normal 0 1 0
    outer loop
      vertex 0 61.5 0
      vertex 0 61.5 6
      vertex 42 61.5 0
    endloop
  endfacet
  facet normal 0 1 0
    outer loop
      vertex 42 61.5 0
      vertex 0 61.5 6
      vertex 42 61.5 6
    endloop
  endfacet
  facet normal 1 0 0
    outer loop
      vertex 1 4 2
      vertex 1 4 6
      vertex 1 1 6
    endloop
  endfacet
  facet normal 1 0 0
    outer loop
      vertex 1 1 2
      vertex 1 4 2
      vertex 1 1 6
    endloop
  endfacet
  facet normal 0 1 0
    outer loop
      vertex 41 1 6
      vertex 41 1 2
      vertex 1 1 6
    endloop
  endfacet
  facet normal 0 1 0
    outer loop
      vertex 1 1 6
      vertex 41 1 2
      vertex 1 1 2
    endloop
  endfacet
  facet normal -1 0 0
    outer loop
      vertex 41 4 6
      vertex 41 4 2
      vertex 41 1 6
    endloop
  endfacet
  facet normal -1 0 0
    outer loop
      vertex 41 1 6
      vertex 41 4 2
      vertex 41 1 2
    endloop
  endfacet
  facet normal 0 -1 0
    outer loop
      vertex 41 4 2
      vertex 41 4 6
      vertex 1 4 6
    endloop
  endfacet
  facet normal 0 -1 0
    outer loop
      vertex 1 4 2
      vertex 41 4 2
      vertex 1 4 6
    endloop
  endfacet
  facet normal 1 0 0
    outer loop
      vertex 1 35.5 2
      vertex 1 35.5 6
      vertex 1 29 6
    endloop
  endfacet
  facet normal 1 0 0
    outer loop
      vertex 1 29 2
      vertex 1 35.5 2
      vertex 1 29 6
    endloop
  endfacet
  facet normal 0 1 0
    outer loop
      vertex 41 29 6
      vertex 41 29 2
      vertex 1 29 6
    endloop
  endfacet
  facet normal 0 1 0
    outer loop
      vertex 1 29 6
      vertex 41 29 2
      vertex 1 29 2
    endloop
  endfacet
  facet normal -1 0 0
    outer loop
      vertex 41 35.5 6
      vertex 41 35.5 2
      vertex 41 29 6
    endloop
  endfacet
  facet normal -1 0 0
    outer loop
      vertex 41 29 6
      vertex 41 35.5 2
      vertex 41 29 2
    endloop
  endfacet
  facet normal 0 -1 0
    outer loop
      vertex 41 35.5 2
      vertex 41 35.5 6
      vertex 1 35.5 6
    endloop
  endfacet
  facet normal 0 -1 0
    outer loop
      vertex 1 35.5 2
      vertex 41 35.5 2
      vertex 1 35.5 6
    endloop
  endfacet
  facet normal 1 0 0
    outer loop
      vertex 1 60.5 2
      vertex 1 60.5 6
      vertex 1 56.5 6
    endloop
  endfacet
  facet normal 1 0 0
    outer loop
      vertex 1 56.5 2
      vertex 1 60.5 2
      vertex 1 56.5 6
    endloop
  endfacet
  facet normal 0 1 0
    outer loop
      vertex 41 56.5 6
      vertex 41 56.5 2
      vertex 1 56.5 6
    endloop
  endfacet
  facet normal 0 1 0
    outer loop
      vertex 1 56.5 6
      vertex 41 56.5 2
      vertex 1 56.5 2
    endloop
  endfacet
  facet normal -1 0 0
    outer loop
      vertex 41 60.5 6
      vertex 41 60.5 2
      vertex 41 56.5 6
    endloop
  endfacet
  facet normal -1 0 0
    outer loop
      vertex 41 56.5 6
      vertex 41 60.5 2
      vertex 41 56.5 2
    endloop
  endfacet
  facet normal 0 -1 0
    outer loop
      vertex 41 60.5 2
      vertex 41 60.5 6
      vertex 1 60.5 6
    endloop
  endfacet
  facet normal 0 -1 0
    outer loop
      vertex 1 60.5 2
      vertex 41 60.5 2
      vertex 1 60.5 6
    endloop
  endfacet
  facet normal 0 0 1
    outer loop
      vertex 41 1 2
      vertex 41 4 2
      vertex 1 4 2
    endloop
  endfacet
  facet normal 0 0 1
    outer loop
      vertex 1 1 2
      vertex 41 1 2
      vertex 1 4 2
    endloop
  endfacet
  facet normal 0 0 1
    outer loop
      vertex 41 29 2
      vertex 41 35.5 2
      vertex 1 35.5 2
    endloop
  endfacet
  facet normal 0 0 1
    outer loop
      vertex 1 29 2
      vertex 41 29 2
      vertex 1 35.5 2
    endloop
  endfacet
  facet normal 0 0 1
    outer loop
      vertex 41 56.5 2
      vertex 41 60.5 2
      vertex 1 60.5 2
    endloop
  endfacet
  facet normal 0 0 1
    outer loop
      vertex 1 56.5 2
      vertex 41 56.5 2
      vertex 1 60.5 2
    endloop
  endfacet
endsolid OpenSCAD_Model
