solid OpenSCAD_Model
  facet normal 0 -1 0
    outer loop
      vertex 0 0 6
      vertex 0 0 0
      vertex 42.3 0 0
    endloop
  endfacet
  facet normal 0 -1 0
    outer loop
      vertex 42.3 0 6
      vertex 0 0 6
      vertex 42.3 0 0
    endloop
  endfacet
  facet normal 0 0 -1
    outer loop
      vertex 0 0 0
      vertex 0 70.1 0
      vertex 42.3 0 0
    endloop
  endfacet
  facet normal 0 0 -1
    outer loop
      vertex 42.3 0 0
      vertex 0 70.1 0
      vertex 42.3 70.1 0
    endloop
  endfacet
  facet normal -1 0 0
    outer loop
      vertex 0 0 0
      vertex 0 0 6
      vertex 0 70.1 0
    endloop
  endfacet
  facet normal -1 0 0
    outer loop
      vertex 0 70.1 0
      vertex 0 0 6
      vertex 0 70.1 6
    endloop
  endfacet
  facet normal 0 0 1
    outer loop
      vertex 1 1 6
      vertex 0 0 6
      vertex 42.3 0 6
    endloop
  endfacet
  facet normal 0 0 1
    outer loop
      vertex 1 64.9 6
      vertex 1 69.1 6
      vertex 0 70.1 6
    endloop
  endfacet
  facet normal 0 0 1
    outer loop
      vertex 41.3 4.2 6
      vertex 41.3 1 6
      vertex 42.3 0 6
    endloop
  endfacet
  facet normal 0 0 1
    outer loop
      vertex 0 70.1 6
      vertex 0 0 6
      vertex 1 1 6
    endloop
  endfacet
  facet normal 0 0 1
    outer loop
      vertex 0 70.1 6
      vertex 1 1 6
      vertex 1 4.2 6
    endloop
  endfacet
  facet normal 0 0 1
    outer loop
      vertex 42.3 70.1 6
      vertex 41.3 4.2 6
      vertex 42.3 0 6
    endloop
  endfacet
  facet normal 0 0 1
    outer loop
      vertex 1 40.9 6
      vertex 41.3 40.9 6
      vertex 1 64.9 6
    endloop
  endfacet
  facet normal 0 0 1
    outer loop
      vertex 41.3 64.9 6
      vertex 1 64.9 6
      vertex 41.3 40.9 6
    endloop
  endfacet
  facet normal 0 0 1
    outer loop
      vertex 41.3 34.2 6
      vertex 1 34.2 6
      vertex 41.3 4.2 6
    endloop
  endfacet
  facet normal 0 0 1
    outer loop
      vertex 0 70.1 6
      vertex 1 4.2 6
      vertex 1 34.2 6
    endloop
  endfacet
  facet normal 0 0 1
    outer loop
      vertex 0 70.1 6
      vertex 1 34.2 6
      vertex 1 40.9 6
    endloop
  endfacet
  facet normal 0 0 1
    outer loop
      vertex 42.3 70.1 6
      vertex 41.3 34.2 6
      vertex 41.3 4.2 6
    endloop
  endfacet
  facet normal 0 0 1
    outer loop
      vertex 42.3 70.1 6
      vertex 41.3 40.9 6
      vertex 41.3 34.2 6
    endloop
  endfacet
  facet normal 0 0 1
    outer loop
      vertex 0 70.1 6
      vertex 1 40.9 6
      vertex 1 64.9 6
    endloop
  endfacet
  facet normal 0 0 1
    outer loop
      vertex 42.3 70.1 6
      vertex 0 70.1 6
      vertex 41.3 69.1 6
    endloop
  endfacet
  facet normal 0 0 1
    outer loop
      vertex 42.3 70.1 6
      vertex 41.3 64.9 6
      vertex 41.3 40.9 6
    endloop
  endfacet
  facet normal 0 0 1
    outer loop
      vertex 42.3 70.1 6
      vertex 41.3 69.1 6
      vertex 41.3 64.9 6
    endloop
  endfacet
  facet normal 0 0 1
    outer loop
      vertex 41.3 1 6
      vertex 1 1 6
      vertex 42.3 0 6
    endloop
  endfacet
  facet normal 0 0 1
    outer loop
      vertex 1 69.1 6
      vertex 41.3 69.1 6
      vertex 0 70.1 6
    endloop
  endfacet
  facet normal 0 0 1
    outer loop
      vertex 1 4.2 6
      vertex 41.3 4.2 6
      vertex 1 34.2 6
    endloop
  endfacet
  facet normal 1 0 0
    outer loop
      vertex 42.3 0 6
      vertex 42.3 0 0
      vertex 42.3 70.1 0
    endloop
  endfacet
  facet normal 1 0 0
    outer loop
      vertex 42.3 70.1 6
      vertex 42.3 0 6
      vertex 42.3 70.1 0
    endloop
  endfacet
  facet normal 0 1 0
    outer loop
      vertex 0 70.1 0
      vertex 0 70.1 6
      vertex 42.3 70.1 0
    endloop
  endfacet
  facet normal 0 1 0
    outer loop
      vertex 42.3 70.1 0
      vertex 0 70.1 6
      vertex 42.3 70.1 6
    endloop
  endfacet
  facet normal 1 0 0
    outer loop
      vertex 1 4.2 2
      vertex 1 4.2 6
      vertex 1 1 6
    endloop
  endfacet
  facet normal 1 0 0
    outer loop
      vertex 1 1 2
      vertex 1 4.2 2
      vertex 1 1 6
    endloop
  endfacet
  facet normal 0 1 0
    outer loop
      vertex 41.3 1 6
      vertex 41.3 1 2
      vertex 1 1 6
    endloop
  endfacet
  facet normal 0 1 0
    outer loop
      vertex 1 1 6
      vertex 41.3 1 2
      vertex 1 1 2
    endloop
  endfacet
  facet normal -1 0 0
    outer loop
      vertex 41.3 4.2 6
      vertex 41.3 4.2 2
      vertex 41.3 1 6
    endloop
  endfacet
  facet normal -1 0 0
    outer loop
      vertex 41.3 1 6
      vertex 41.3 4.2 2
      vertex 41.3 1 2
    endloop
  endfacet
  facet normal 0 -1 0
    outer loop
      vertex 41.3 4.2 2
      vertex 41.3 4.2 6
      vertex 1 4.2 6
    endloop
  endfacet
  facet normal 0 -1 0
    outer loop
      vertex 1 4.2 2
      vertex 41.3 4.2 2
      vertex 1 4.2 6
    endloop
  endfacet
  facet normal 1 0 0
    outer loop
      vertex 1 40.9 2
      vertex 1 40.9 6
      vertex 1 34.2 6
    endloop
  endfacet
  facet normal 1 0 0
    outer loop
      vertex 1 34.2 2
      vertex 1 40.9 2
      vertex 1 34.2 6
    endloop
  endfacet
  facet normal 0 1 0
    outer loop
      vertex 41.3 34.2 6
      vertex 41.3 34.2 2
      vertex 1 34.2 6
    endloop
  endfacet
  facet normal 0 1 0
    outer loop
      vertex 1 34.2 6
      vertex 41.3 34.2 2
      vertex 1 34.2 2
    endloop
  endfacet
  facet normal -1 0 0
    outer loop
      vertex 41.3 40.9 6
      vertex 41.3 40.9 2
      vertex 41.3 34.2 6
    endloop
  endfacet
  facet normal -1 0 0
    outer loop
      vertex 41.3 34.2 6
      vertex 41.3 40.9 2
      vertex 41.3 34.2 2
    endloop
  endfacet
  facet normal 0 -1 0
    outer loop
      vertex 41.3 40.9 2
      vertex 41.3 40.9 6
      vertex 1 40.9 6
    endloop
  endfacet
  facet normal 0 -1 0
    outer loop
      vertex 1 40.9 2
      vertex 41.3 40.9 2
      vertex 1 40.9 6
    endloop
  endfacet
  facet normal 1 0 0
    outer loop
      vertex 1 69.1 2
      vertex 1 69.1 6
      vertex 1 64.9 6
    endloop
  endfacet
  facet normal 1 0 0
    outer loop
      vertex 1 64.9 2
      vertex 1 69.1 2
      vertex 1 64.9 6
    endloop
  endfacet
  facet normal 0 1 0
    outer loop
      vertex 41.3 64.9 6
      vertex 41.3 64.9 2
      vertex 1 64.9 6
    endloop
  endfacet
  facet normal 0 1 0
    outer loop
      vertex 1 64.9 6
      vertex 41.3 64.9 2
      vertex 1 64.9 2
    endloop
  endfacet
  facet normal -1 0 0
    outer loop
      vertex 41.3 69.1 6
      vertex 41.3 69.1 2
      vertex 41.3 64.9 6
    endloop
  endfacet
  facet normal -1 0 0
    outer loop
      vertex 41.3 64.9 6
      vertex 41.3 69.1 2
      vertex 41.3 64.9 2
    endloop
  endfacet
  facet normal 0 -1 0
    outer loop
      vertex 41.3 69.1 2
      vertex 41.3 69.1 6
      vertex 1 69.1 6
    endloop
  endfacet
  facet normal 0 -1 0
    outer loop
      vertex 1 69.1 2
      vertex 41.3 69.1 2
      vertex 1 69.1 6
    endloop
  endfacet
  facet normal 0 0 1
    outer loop
      vertex 41.3 1 2
      vertex 41.3 4.2 2
      vertex 1 4.2 2
    endloop
  endfacet
  facet normal 0 0 1
    outer loop
      vertex 1 1 2
      vertex 41.3 1 2
      vertex 1 4.2 2
    endloop
  endfacet
  facet normal 0 0 1
    outer loop
      vertex 41.3 34.2 2
      vertex 41.3 40.9 2
      vertex 1 40.9 2
    endloop
  endfacet
  facet normal 0 0 1
    outer loop
      vertex 1 34.2 2
      vertex 41.3 34.2 2
      vertex 1 40.9 2
    endloop
  endfacet
  facet normal 0 0 1
    outer loop
      vertex 41.3 64.9 2
      vertex 41.3 69.1 2
      vertex 1 69.1 2
    endloop
  endfacet
  facet normal 0 0 1
    outer loop
      vertex 1 64.9 2
      vertex 41.3 64.9 2
      vertex 1 69.1 2
    endloop
  endfacet
endsolid OpenSCAD_Model
