solid OpenSCAD_Model
  facet normal -0.999496 -0.03173 0
    outer loop
      vertex 0 2 0
      vertex 0.004 1.874 0
      vertex 0 2 6
    endloop
  endfacet
  facet normal -0.999496 -0.03173 0
    outer loop
      vertex 0 2 6
      vertex 0.004 1.874 0
      vertex 0.004 1.874 6
    endloop
  endfacet
  facet normal 0 0 -1
    outer loop
      vertex 0 2 0
      vertex 0 76.86 0
      vertex 0.004 1.874 0
    endloop
  endfacet
  facet normal 0 0 -1
    outer loop
      vertex 0.004 1.874 0
      vertex 0 76.86 0
      vertex 0.004 76.986 0
    endloop
  endfacet
  facet normal 0 0 -1
    outer loop
      vertex 0.004 1.874 0
      vertex 0.004 76.986 0
      vertex 0.016 77.111 0
    endloop
  endfacet
  facet normal 0 0 -1
    outer loop
      vertex 0.004 1.874 0
      vertex 0.016 77.111 0
      vertex 0.035 77.235 0
    endloop
  endfacet
  facet normal 0 0 -1
    outer loop
      vertex 0.004 1.874 0
      vertex 0.035 77.235 0
      vertex 0.063 77.357 0
    endloop
  endfacet
  facet normal 0 0 -1
    outer loop
      vertex 0.004 1.874 0
      vertex 0.063 77.357 0
      vertex 0.098 77.478 0
    endloop
  endfacet
  facet normal 0 0 -1
    outer loop
      vertex 0.004 1.874 0
      vertex 0.098 77.478 0
      vertex 0.14 77.596 0
    endloop
  endfacet
  facet normal 0 0 -1
    outer loop
      vertex 0.004 1.874 0
      vertex 0.14 77.596 0
      vertex 0.19 77.712 0
    endloop
  endfacet
  facet normal 0 0 -1
    outer loop
      vertex 0.004 1.874 0
      vertex 0.19 77.712 0
      vertex 0.247 77.824 0
    endloop
  endfacet
  facet normal 0 0 -1
    outer loop
      vertex 0.004 1.874 0
      vertex 0.247 77.824 0
      vertex 0.311 77.932 0
    endloop
  endfacet
  facet normal 0 0 -1
    outer loop
      vertex 0.004 1.874 0
      vertex 0.311 77.932 0
      vertex 0.382 78.036 0
    endloop
  endfacet
  facet normal 0 0 -1
    outer loop
      vertex 0.004 1.874 0
      vertex 0.382 78.036 0
      vertex 0.459 78.135 0
    endloop
  endfacet
  facet normal 0 0 -1
    outer loop
      vertex 0.004 1.874 0
      vertex 0.459 78.135 0
      vertex 0.542 78.229 0
    endloop
  endfacet
  facet normal 0 0 -1
    outer loop
      vertex 0.004 1.874 0
      vertex 0.542 78.229 0
      vertex 0.631 78.318 0
    endloop
  endfacet
  facet normal 0 0 -1
    outer loop
      vertex 0.004 1.874 0
      vertex 0.631 78.318 0
      vertex 0.725 78.401 0
    endloop
  endfacet
  facet normal 0 0 -1
    outer loop
      vertex 0.004 1.874 0
      vertex 0.725 78.401 0
      vertex 0.824 78.478 0
    endloop
  endfacet
  facet normal 0 0 -1
    outer loop
      vertex 0.004 1.874 0
      vertex 0.824 78.478 0
      vertex 0.928 78.549 0
    endloop
  endfacet
  facet normal 0 0 -1
    outer loop
      vertex 0.004 1.874 0
      vertex 0.928 78.549 0
      vertex 1.036 78.613 0
    endloop
  endfacet
  facet normal 0 0 -1
    outer loop
      vertex 0.004 1.874 0
      vertex 1.036 78.613 0
      vertex 1.148 78.67 0
    endloop
  endfacet
  facet normal 0 0 -1
    outer loop
      vertex 0.004 1.874 0
      vertex 1.148 78.67 0
      vertex 1.264 78.72 0
    endloop
  endfacet
  facet normal 0 0 -1
    outer loop
      vertex 0.004 1.874 0
      vertex 1.264 78.72 0
      vertex 1.382 78.762 0
    endloop
  endfacet
  facet normal 0 0 -1
    outer loop
      vertex 0.004 1.874 0
      vertex 1.382 78.762 0
      vertex 1.503 78.797 0
    endloop
  endfacet
  facet normal 0 0 -1
    outer loop
      vertex 0.004 1.874 0
      vertex 1.503 78.797 0
      vertex 1.625 78.825 0
    endloop
  endfacet
  facet normal 0 0 -1
    outer loop
      vertex 0.004 1.874 0
      vertex 1.625 78.825 0
      vertex 1.749 78.844 0
    endloop
  endfacet
  facet normal 0 0 -1
    outer loop
      vertex 0.004 1.874 0
      vertex 1.749 78.844 0
      vertex 1.874 78.856 0
    endloop
  endfacet
  facet normal 0 0 -1
    outer loop
      vertex 0.004 1.874 0
      vertex 1.874 78.856 0
      vertex 2 78.86 0
    endloop
  endfacet
  facet normal 0 0 -1
    outer loop
      vertex 0.004 1.874 0
      vertex 2 78.86 0
      vertex 42.2 78.86 0
    endloop
  endfacet
  facet normal 0 0 -1
    outer loop
      vertex 0.004 1.874 0
      vertex 42.2 78.86 0
      vertex 42.326 78.856 0
    endloop
  endfacet
  facet normal 0 0 -1
    outer loop
      vertex 0.004 1.874 0
      vertex 42.326 78.856 0
      vertex 42.451 78.844 0
    endloop
  endfacet
  facet normal 0 0 -1
    outer loop
      vertex 0.004 1.874 0
      vertex 42.451 78.844 0
      vertex 42.575 78.825 0
    endloop
  endfacet
  facet normal 0 0 -1
    outer loop
      vertex 0.004 1.874 0
      vertex 42.575 78.825 0
      vertex 42.697 78.797 0
    endloop
  endfacet
  facet normal 0 0 -1
    outer loop
      vertex 0.004 1.874 0
      vertex 42.697 78.797 0
      vertex 42.818 78.762 0
    endloop
  endfacet
  facet normal 0 0 -1
    outer loop
      vertex 0.004 1.874 0
      vertex 42.818 78.762 0
      vertex 42.936 78.72 0
    endloop
  endfacet
  facet normal 0 0 -1
    outer loop
      vertex 0.004 1.874 0
      vertex 42.936 78.72 0
      vertex 43.052 78.67 0
    endloop
  endfacet
  facet normal 0 0 -1
    outer loop
      vertex 0.004 1.874 0
      vertex 43.052 78.67 0
      vertex 43.164 78.613 0
    endloop
  endfacet
  facet normal 0 0 -1
    outer loop
      vertex 0.004 1.874 0
      vertex 43.164 78.613 0
      vertex 43.272 78.549 0
    endloop
  endfacet
  facet normal 0 0 -1
    outer loop
      vertex 0.004 1.874 0
      vertex 43.272 78.549 0
      vertex 43.376 78.478 0
    endloop
  endfacet
  facet normal 0 0 -1
    outer loop
      vertex 0.004 1.874 0
      vertex 43.376 78.478 0
      vertex 43.475 78.401 0
    endloop
  endfacet
  facet normal 0 0 -1
    outer loop
      vertex 0.004 1.874 0
      vertex 43.475 78.401 0
      vertex 43.569 78.318 0
    endloop
  endfacet
  facet normal 0 0 -1
    outer loop
      vertex 0.004 1.874 0
      vertex 43.569 78.318 0
      vertex 43.658 78.229 0
    endloop
  endfacet
  facet normal 0 0 -1
    outer loop
      vertex 0.004 1.874 0
      vertex 43.658 78.229 0
      vertex 43.741 78.135 0
    endloop
  endfacet
  facet normal 0 0 -1
    outer loop
      vertex 0.004 1.874 0
      vertex 43.741 78.135 0
      vertex 43.818 78.036 0
    endloop
  endfacet
  facet normal 0 0 -1
    outer loop
      vertex 0.004 1.874 0
      vertex 43.818 78.036 0
      vertex 43.889 77.932 0
    endloop
  endfacet
  facet normal 0 0 -1
    outer loop
      vertex 0.004 1.874 0
      vertex 43.889 77.932 0
      vertex 43.953 77.824 0
    endloop
  endfacet
  facet normal 0 0 -1
    outer loop
      vertex 0.004 1.874 0
      vertex 43.953 77.824 0
      vertex 44.01 77.712 0
    endloop
  endfacet
  facet normal 0 0 -1
    outer loop
      vertex 0.004 1.874 0
      vertex 44.01 77.712 0
      vertex 44.06 77.596 0
    endloop
  endfacet
  facet normal 0 0 -1
    outer loop
      vertex 0.004 1.874 0
      vertex 44.06 77.596 0
      vertex 44.102 77.478 0
    endloop
  endfacet
  facet normal 0 0 -1
    outer loop
      vertex 0.004 1.874 0
      vertex 44.102 77.478 0
      vertex 44.137 77.357 0
    endloop
  endfacet
  facet normal 0 0 -1
    outer loop
      vertex 0.004 1.874 0
      vertex 44.137 77.357 0
      vertex 44.165 77.235 0
    endloop
  endfacet
  facet normal 0 0 -1
    outer loop
      vertex 0.004 1.874 0
      vertex 44.165 77.235 0
      vertex 44.184 77.111 0
    endloop
  endfacet
  facet normal 0 0 -1
    outer loop
      vertex 0.004 1.874 0
      vertex 44.184 77.111 0
      vertex 44.196 76.986 0
    endloop
  endfacet
  facet normal 0 0 -1
    outer loop
      vertex 0.004 1.874 0
      vertex 44.196 76.986 0
      vertex 44.2 76.86 0
    endloop
  endfacet
  facet normal 0 0 -1
    outer loop
      vertex 0.004 1.874 0
      vertex 44.2 76.86 0
      vertex 44.2 2 0
    endloop
  endfacet
  facet normal 0 0 -1
    outer loop
      vertex 0.004 1.874 0
      vertex 44.2 2 0
      vertex 44.196 1.874 0
    endloop
  endfacet
  facet normal 0 0 -1
    outer loop
      vertex 0.004 1.874 0
      vertex 44.196 1.874 0
      vertex 44.184 1.749 0
    endloop
  endfacet
  facet normal 0 0 -1
    outer loop
      vertex 0.004 1.874 0
      vertex 44.184 1.749 0
      vertex 44.165 1.625 0
    endloop
  endfacet
  facet normal 0 0 -1
    outer loop
      vertex 0.004 1.874 0
      vertex 44.165 1.625 0
      vertex 44.137 1.503 0
    endloop
  endfacet
  facet normal 0 0 -1
    outer loop
      vertex 0.004 1.874 0
      vertex 44.137 1.503 0
      vertex 44.102 1.382 0
    endloop
  endfacet
  facet normal 0 0 -1
    outer loop
      vertex 0.004 1.874 0
      vertex 44.102 1.382 0
      vertex 44.06 1.264 0
    endloop
  endfacet
  facet normal 0 0 -1
    outer loop
      vertex 0.004 1.874 0
      vertex 44.06 1.264 0
      vertex 44.01 1.148 0
    endloop
  endfacet
  facet normal 0 0 -1
    outer loop
      vertex 0.004 1.874 0
      vertex 44.01 1.148 0
      vertex 43.953 1.036 0
    endloop
  endfacet
  facet normal 0 0 -1
    outer loop
      vertex 0.004 1.874 0
      vertex 43.953 1.036 0
      vertex 43.889 0.928 0
    endloop
  endfacet
  facet normal 0 0 -1
    outer loop
      vertex 0.004 1.874 0
      vertex 43.889 0.928 0
      vertex 43.818 0.824 0
    endloop
  endfacet
  facet normal 0 0 -1
    outer loop
      vertex 0.004 1.874 0
      vertex 43.818 0.824 0
      vertex 43.741 0.725 0
    endloop
  endfacet
  facet normal 0 0 -1
    outer loop
      vertex 0.004 1.874 0
      vertex 43.741 0.725 0
      vertex 43.658 0.631 0
    endloop
  endfacet
  facet normal 0 0 -1
    outer loop
      vertex 0.004 1.874 0
      vertex 43.658 0.631 0
      vertex 43.569 0.542 0
    endloop
  endfacet
  facet normal 0 0 -1
    outer loop
      vertex 0.004 1.874 0
      vertex 43.569 0.542 0
      vertex 43.475 0.459 0
    endloop
  endfacet
  facet normal 0 0 -1
    outer loop
      vertex 0.004 1.874 0
      vertex 43.475 0.459 0
      vertex 43.376 0.382 0
    endloop
  endfacet
  facet normal 0 0 -1
    outer loop
      vertex 0.004 1.874 0
      vertex 43.376 0.382 0
      vertex 43.272 0.311 0
    endloop
  endfacet
  facet normal 0 0 -1
    outer loop
      vertex 0.004 1.874 0
      vertex 43.272 0.311 0
      vertex 43.164 0.247 0
    endloop
  endfacet
  facet normal 0 0 -1
    outer loop
      vertex 0.004 1.874 0
      vertex 43.164 0.247 0
      vertex 43.052 0.19 0
    endloop
  endfacet
  facet normal 0 0 -1
    outer loop
      vertex 0.004 1.874 0
      vertex 43.052 0.19 0
      vertex 42.936 0.14 0
    endloop
  endfacet
  facet normal 0 0 -1
    outer loop
      vertex 0.004 1.874 0
      vertex 42.936 0.14 0
      vertex 42.818 0.098 0
    endloop
  endfacet
  facet normal 0 0 -1
    outer loop
      vertex 0.004 1.874 0
      vertex 42.818 0.098 0
      vertex 42.697 0.063 0
    endloop
  endfacet
  facet normal 0 0 -1
    outer loop
      vertex 0.004 1.874 0
      vertex 42.697 0.063 0
      vertex 42.575 0.035 0
    endloop
  endfacet
  facet normal 0 0 -1
    outer loop
      vertex 0.004 1.874 0
      vertex 42.575 0.035 0
      vertex 42.451 0.016 0
    endloop
  endfacet
  facet normal 0 0 -1
    outer loop
      vertex 0.004 1.874 0
      vertex 42.451 0.016 0
      vertex 42.326 0.004 0
    endloop
  endfacet
  facet normal 0 0 -1
    outer loop
      vertex 0.004 1.874 0
      vertex 42.326 0.004 0
      vertex 42.2 0 0
    endloop
  endfacet
  facet normal 0 0 -1
    outer loop
      vertex 0.004 1.874 0
      vertex 42.2 0 0
      vertex 2 0 0
    endloop
  endfacet
  facet normal 0 0 -1
    outer loop
      vertex 0.004 1.874 0
      vertex 2 0 0
      vertex 1.874 0.004 0
    endloop
  endfacet
  facet normal 0 0 -1
    outer loop
      vertex 0.004 1.874 0
      vertex 1.874 0.004 0
      vertex 1.749 0.016 0
    endloop
  endfacet
  facet normal 0 0 -1
    outer loop
      vertex 0.004 1.874 0
      vertex 1.749 0.016 0
      vertex 1.625 0.035 0
    endloop
  endfacet
  facet normal 0 0 -1
    outer loop
      vertex 0.004 1.874 0
      vertex 1.625 0.035 0
      vertex 1.503 0.063 0
    endloop
  endfacet
  facet normal 0 0 -1
    outer loop
      vertex 0.004 1.874 0
      vertex 1.503 0.063 0
      vertex 1.382 0.098 0
    endloop
  endfacet
  facet normal 0 0 -1
    outer loop
      vertex 0.004 1.874 0
      vertex 1.382 0.098 0
      vertex 1.264 0.14 0
    endloop
  endfacet
  facet normal 0 0 -1
    outer loop
      vertex 0.004 1.874 0
      vertex 1.264 0.14 0
      vertex 1.148 0.19 0
    endloop
  endfacet
  facet normal 0 0 -1
    outer loop
      vertex 0.004 1.874 0
      vertex 1.148 0.19 0
      vertex 1.036 0.247 0
    endloop
  endfacet
  facet normal 0 0 -1
    outer loop
      vertex 0.004 1.874 0
      vertex 1.036 0.247 0
      vertex 0.928 0.311 0
    endloop
  endfacet
  facet normal 0 0 -1
    outer loop
      vertex 0.004 1.874 0
      vertex 0.928 0.311 0
      vertex 0.824 0.382 0
    endloop
  endfacet
  facet normal 0 0 -1
    outer loop
      vertex 0.004 1.874 0
      vertex 0.824 0.382 0
      vertex 0.725 0.459 0
    endloop
  endfacet
  facet normal 0 0 -1
    outer loop
      vertex 0.004 1.874 0
      vertex 0.725 0.459 0
      vertex 0.631 0.542 0
    endloop
  endfacet
  facet normal 0 0 -1
    outer loop
      vertex 0.004 1.874 0
      vertex 0.631 0.542 0
      vertex 0.542 0.631 0
    endloop
  endfacet
  facet normal 0 0 -1
    outer loop
      vertex 0.004 1.874 0
      vertex 0.542 0.631 0
      vertex 0.459 0.725 0
    endloop
  endfacet
  facet normal 0 0 -1
    outer loop
      vertex 0.004 1.874 0
      vertex 0.459 0.725 0
      vertex 0.382 0.824 0
    endloop
  endfacet
  facet normal 0 0 -1
    outer loop
      vertex 0.004 1.874 0
      vertex 0.382 0.824 0
      vertex 0.311 0.928 0
    endloop
  endfacet
  facet normal 0 0 -1
    outer loop
      vertex 0.004 1.874 0
      vertex 0.311 0.928 0
      vertex 0.247 1.036 0
    endloop
  endfacet
  facet normal 0 0 -1
    outer loop
      vertex 0.004 1.874 0
      vertex 0.247 1.036 0
      vertex 0.19 1.148 0
    endloop
  endfacet
  facet normal 0 0 -1
    outer loop
      vertex 0.004 1.874 0
      vertex 0.19 1.148 0
      vertex 0.14 1.264 0
    endloop
  endfacet
  facet normal 0 0 -1
    outer loop
      vertex 0.004 1.874 0
      vertex 0.14 1.264 0
      vertex 0.098 1.382 0
    endloop
  endfacet
  facet normal 0 0 -1
    outer loop
      vertex 0.004 1.874 0
      vertex 0.098 1.382 0
      vertex 0.063 1.503 0
    endloop
  endfacet
  facet normal 0 0 -1
    outer loop
      vertex 0.004 1.874 0
      vertex 0.063 1.503 0
      vertex 0.035 1.625 0
    endloop
  endfacet
  facet normal 0 0 -1
    outer loop
      vertex 0.004 1.874 0
      vertex 0.035 1.625 0
      vertex 0.016 1.749 0
    endloop
  endfacet
  facet normal -1 0 0
    outer loop
      vertex 0 2 0
      vertex 0 2 6
      vertex 0 76.86 0
    endloop
  endfacet
  facet normal -1 0 0
    outer loop
      vertex 0 76.86 0
      vertex 0 2 6
      vertex 0 76.86 6
    endloop
  endfacet
  facet normal 0 0 1
    outer loop
      vertex 0 76.86 6
      vertex 0 2 6
      vertex 0.004 1.874 6
    endloop
  endfacet
  facet normal 0 0 1
    outer loop
      vertex 0.035 1.625 6
      vertex 0 76.86 6
      vertex 0.016 1.749 6
    endloop
  endfacet
  facet normal 0 0 1
    outer loop
      vertex 0.016 1.749 6
      vertex 0 76.86 6
      vertex 0.004 1.874 6
    endloop
  endfacet
  facet normal 0 0 1
    outer loop
      vertex 0.063 1.503 6
      vertex 0 76.86 6
      vertex 0.035 1.625 6
    endloop
  endfacet
  facet normal 0 0 1
    outer loop
      vertex 0.098 1.382 6
      vertex 0 76.86 6
      vertex 0.063 1.503 6
    endloop
  endfacet
  facet normal 0 0 1
    outer loop
      vertex 0.14 1.264 6
      vertex 0 76.86 6
      vertex 0.098 1.382 6
    endloop
  endfacet
  facet normal 0 0 1
    outer loop
      vertex 0.19 1.148 6
      vertex 0 76.86 6
      vertex 0.14 1.264 6
    endloop
  endfacet
  facet normal 0 0 1
    outer loop
      vertex 0.247 1.036 6
      vertex 0 76.86 6
      vertex 0.19 1.148 6
    endloop
  endfacet
  facet normal 0 0 1
    outer loop
      vertex 0.311 0.928 6
      vertex 0 76.86 6
      vertex 0.247 1.036 6
    endloop
  endfacet
  facet normal 0 0 1
    outer loop
      vertex 0.382 0.824 6
      vertex 0 76.86 6
      vertex 0.311 0.928 6
    endloop
  endfacet
  facet normal 0 0 1
    outer loop
      vertex 0.459 0.725 6
      vertex 0 76.86 6
      vertex 0.382 0.824 6
    endloop
  endfacet
  facet normal 0 0 1
    outer loop
      vertex 0.542 0.631 6
      vertex 0 76.86 6
      vertex 0.459 0.725 6
    endloop
  endfacet
  facet normal 0 0 1
    outer loop
      vertex 0.631 0.542 6
      vertex 0 76.86 6
      vertex 0.542 0.631 6
    endloop
  endfacet
  facet normal 0 0 1
    outer loop
      vertex 0.725 0.459 6
      vertex 0 76.86 6
      vertex 0.631 0.542 6
    endloop
  endfacet
  facet normal 0 0 1
    outer loop
      vertex 0.824 0.382 6
      vertex 0 76.86 6
      vertex 0.725 0.459 6
    endloop
  endfacet
  facet normal 0 0 1
    outer loop
      vertex 0.928 0.311 6
      vertex 0 76.86 6
      vertex 0.824 0.382 6
    endloop
  endfacet
  facet normal 0 0 1
    outer loop
      vertex 1 1 6
      vertex 0 76.86 6
      vertex 0.928 0.311 6
    endloop
  endfacet
  facet normal 0 0 1
    outer loop
      vertex 43.2 9.12 6
      vertex 44.184 1.749 6
      vertex 44.196 1.874 6
    endloop
  endfacet
  facet normal 0 0 1
    outer loop
      vertex 43.2 9.12 6
      vertex 44.102 1.382 6
      vertex 44.137 1.503 6
    endloop
  endfacet
  facet normal 0 0 1
    outer loop
      vertex 43.2 9.12 6
      vertex 44.06 1.264 6
      vertex 44.102 1.382 6
    endloop
  endfacet
  facet normal 0 0 1
    outer loop
      vertex 43.2 9.12 6
      vertex 44.01 1.148 6
      vertex 44.06 1.264 6
    endloop
  endfacet
  facet normal 0 0 1
    outer loop
      vertex 43.2 9.12 6
      vertex 43.953 1.036 6
      vertex 44.01 1.148 6
    endloop
  endfacet
  facet normal 0 0 1
    outer loop
      vertex 43.2 9.12 6
      vertex 43.889 0.928 6
      vertex 43.953 1.036 6
    endloop
  endfacet
  facet normal 0 0 1
    outer loop
      vertex 43.2 9.12 6
      vertex 43.818 0.824 6
      vertex 43.889 0.928 6
    endloop
  endfacet
  facet normal 0 0 1
    outer loop
      vertex 43.2 9.12 6
      vertex 43.741 0.725 6
      vertex 43.818 0.824 6
    endloop
  endfacet
  facet normal 0 0 1
    outer loop
      vertex 43.2 9.12 6
      vertex 43.658 0.631 6
      vertex 43.741 0.725 6
    endloop
  endfacet
  facet normal 0 0 1
    outer loop
      vertex 1 77.86 6
      vertex 42.326 78.856 6
      vertex 42.2 78.86 6
    endloop
  endfacet
  facet normal 0 0 1
    outer loop
      vertex 1 9.12 6
      vertex 43.2 9.12 6
      vertex 1 39.12 6
    endloop
  endfacet
  facet normal 0 0 1
    outer loop
      vertex 1 77.86 6
      vertex 43.741 78.135 6
      vertex 43.658 78.229 6
    endloop
  endfacet
  facet normal 0 0 1
    outer loop
      vertex 1 77.86 6
      vertex 43.658 78.229 6
      vertex 43.569 78.318 6
    endloop
  endfacet
  facet normal 0 0 1
    outer loop
      vertex 1 77.86 6
      vertex 43.569 78.318 6
      vertex 43.475 78.401 6
    endloop
  endfacet
  facet normal 0 0 1
    outer loop
      vertex 1 77.86 6
      vertex 43.475 78.401 6
      vertex 43.376 78.478 6
    endloop
  endfacet
  facet normal 0 0 1
    outer loop
      vertex 1 77.86 6
      vertex 43.376 78.478 6
      vertex 43.272 78.549 6
    endloop
  endfacet
  facet normal 0 0 1
    outer loop
      vertex 1 77.86 6
      vertex 43.272 78.549 6
      vertex 43.164 78.613 6
    endloop
  endfacet
  facet normal 0 0 1
    outer loop
      vertex 1 77.86 6
      vertex 43.164 78.613 6
      vertex 43.052 78.67 6
    endloop
  endfacet
  facet normal 0 0 1
    outer loop
      vertex 1 77.86 6
      vertex 43.052 78.67 6
      vertex 42.936 78.72 6
    endloop
  endfacet
  facet normal 0 0 1
    outer loop
      vertex 1 77.86 6
      vertex 42.936 78.72 6
      vertex 42.818 78.762 6
    endloop
  endfacet
  facet normal 0 0 1
    outer loop
      vertex 1 77.86 6
      vertex 42.818 78.762 6
      vertex 42.697 78.797 6
    endloop
  endfacet
  facet normal 0 0 1
    outer loop
      vertex 43.2 39.12 6
      vertex 1 39.12 6
      vertex 43.2 9.12 6
    endloop
  endfacet
  facet normal 0 0 1
    outer loop
      vertex 1 77.86 6
      vertex 42.575 78.825 6
      vertex 42.451 78.844 6
    endloop
  endfacet
  facet normal 0 0 1
    outer loop
      vertex 43.2 73.74 6
      vertex 1 73.74 6
      vertex 43.2 45.74 6
    endloop
  endfacet
  facet normal 0 0 1
    outer loop
      vertex 43.2 77.86 6
      vertex 43.2 73.74 6
      vertex 44.2 76.86 6
    endloop
  endfacet
  facet normal 0 0 1
    outer loop
      vertex 43.2 77.86 6
      vertex 44.2 76.86 6
      vertex 44.196 76.986 6
    endloop
  endfacet
  facet normal 0 0 1
    outer loop
      vertex 43.2 77.86 6
      vertex 44.196 76.986 6
      vertex 44.184 77.111 6
    endloop
  endfacet
  facet normal 0 0 1
    outer loop
      vertex 43.2 77.86 6
      vertex 44.184 77.111 6
      vertex 44.165 77.235 6
    endloop
  endfacet
  facet normal 0 0 1
    outer loop
      vertex 43.2 77.86 6
      vertex 44.165 77.235 6
      vertex 44.137 77.357 6
    endloop
  endfacet
  facet normal 0 0 1
    outer loop
      vertex 43.2 77.86 6
      vertex 44.137 77.357 6
      vertex 44.102 77.478 6
    endloop
  endfacet
  facet normal 0 0 1
    outer loop
      vertex 43.2 77.86 6
      vertex 44.102 77.478 6
      vertex 44.06 77.596 6
    endloop
  endfacet
  facet normal 0 0 1
    outer loop
      vertex 43.2 77.86 6
      vertex 44.06 77.596 6
      vertex 44.01 77.712 6
    endloop
  endfacet
  facet normal 0 0 1
    outer loop
      vertex 43.2 77.86 6
      vertex 44.01 77.712 6
      vertex 43.953 77.824 6
    endloop
  endfacet
  facet normal 0 0 1
    outer loop
      vertex 2 78.86 6
      vertex 1 77.86 6
      vertex 42.2 78.86 6
    endloop
  endfacet
  facet normal 0 0 1
    outer loop
      vertex 1.749 78.844 6
      vertex 0 76.86 6
      vertex 1.874 78.856 6
    endloop
  endfacet
  facet normal 0 0 1
    outer loop
      vertex 1.625 78.825 6
      vertex 0 76.86 6
      vertex 1.749 78.844 6
    endloop
  endfacet
  facet normal 0 0 1
    outer loop
      vertex 1.503 78.797 6
      vertex 0 76.86 6
      vertex 1.625 78.825 6
    endloop
  endfacet
  facet normal 0 0 1
    outer loop
      vertex 1.382 78.762 6
      vertex 0 76.86 6
      vertex 1.503 78.797 6
    endloop
  endfacet
  facet normal 0 0 1
    outer loop
      vertex 1.264 78.72 6
      vertex 0 76.86 6
      vertex 1.382 78.762 6
    endloop
  endfacet
  facet normal 0 0 1
    outer loop
      vertex 1.148 78.67 6
      vertex 0 76.86 6
      vertex 1.264 78.72 6
    endloop
  endfacet
  facet normal 0 0 1
    outer loop
      vertex 1.036 78.613 6
      vertex 0 76.86 6
      vertex 1.148 78.67 6
    endloop
  endfacet
  facet normal 0 0 1
    outer loop
      vertex 0.928 78.549 6
      vertex 0 76.86 6
      vertex 1.036 78.613 6
    endloop
  endfacet
  facet normal 0 0 1
    outer loop
      vertex 0.824 78.478 6
      vertex 0 76.86 6
      vertex 0.928 78.549 6
    endloop
  endfacet
  facet normal 0 0 1
    outer loop
      vertex 0.725 78.401 6
      vertex 0 76.86 6
      vertex 0.824 78.478 6
    endloop
  endfacet
  facet normal 0 0 1
    outer loop
      vertex 0.631 78.318 6
      vertex 0 76.86 6
      vertex 0.725 78.401 6
    endloop
  endfacet
  facet normal 0 0 1
    outer loop
      vertex 0.542 78.229 6
      vertex 0 76.86 6
      vertex 0.631 78.318 6
    endloop
  endfacet
  facet normal 0 0 1
    outer loop
      vertex 0.459 78.135 6
      vertex 0 76.86 6
      vertex 0.542 78.229 6
    endloop
  endfacet
  facet normal 0 0 1
    outer loop
      vertex 0.382 78.036 6
      vertex 0 76.86 6
      vertex 0.459 78.135 6
    endloop
  endfacet
  facet normal 0 0 1
    outer loop
      vertex 0.311 77.932 6
      vertex 0 76.86 6
      vertex 0.382 78.036 6
    endloop
  endfacet
  facet normal 0 0 1
    outer loop
      vertex 0.247 77.824 6
      vertex 0 76.86 6
      vertex 0.311 77.932 6
    endloop
  endfacet
  facet normal 0 0 1
    outer loop
      vertex 0.19 77.712 6
      vertex 0 76.86 6
      vertex 0.247 77.824 6
    endloop
  endfacet
  facet normal 0 0 1
    outer loop
      vertex 0.14 77.596 6
      vertex 0 76.86 6
      vertex 0.19 77.712 6
    endloop
  endfacet
  facet normal 0 0 1
    outer loop
      vertex 0.098 77.478 6
      vertex 0 76.86 6
      vertex 0.14 77.596 6
    endloop
  endfacet
  facet normal 0 0 1
    outer loop
      vertex 0.063 77.357 6
      vertex 0 76.86 6
      vertex 0.098 77.478 6
    endloop
  endfacet
  facet normal 0 0 1
    outer loop
      vertex 0.035 77.235 6
      vertex 0 76.86 6
      vertex 0.063 77.357 6
    endloop
  endfacet
  facet normal 0 0 1
    outer loop
      vertex 0.016 77.111 6
      vertex 0 76.86 6
      vertex 0.035 77.235 6
    endloop
  endfacet
  facet normal 0 0 1
    outer loop
      vertex 0.004 76.986 6
      vertex 0 76.86 6
      vertex 0.016 77.111 6
    endloop
  endfacet
  facet normal 0 0 1
    outer loop
      vertex 1.036 0.247 6
      vertex 1 1 6
      vertex 0.928 0.311 6
    endloop
  endfacet
  facet normal 0 0 1
    outer loop
      vertex 43.2 9.12 6
      vertex 44.196 1.874 6
      vertex 44.2 2 6
    endloop
  endfacet
  facet normal 0 0 1
    outer loop
      vertex 43.2 9.12 6
      vertex 44.165 1.625 6
      vertex 44.184 1.749 6
    endloop
  endfacet
  facet normal 0 0 1
    outer loop
      vertex 43.2 9.12 6
      vertex 44.137 1.503 6
      vertex 44.165 1.625 6
    endloop
  endfacet
  facet normal 0 0 1
    outer loop
      vertex 44.2 76.86 6
      vertex 43.2 9.12 6
      vertex 44.2 2 6
    endloop
  endfacet
  facet normal 0 0 1
    outer loop
      vertex 1 77.86 6
      vertex 42.697 78.797 6
      vertex 42.575 78.825 6
    endloop
  endfacet
  facet normal 0 0 1
    outer loop
      vertex 43.569 0.542 6
      vertex 43.2 1 6
      vertex 43.475 0.459 6
    endloop
  endfacet
  facet normal 0 0 1
    outer loop
      vertex 1 77.86 6
      vertex 43.818 78.036 6
      vertex 43.741 78.135 6
    endloop
  endfacet
  facet normal 0 0 1
    outer loop
      vertex 43.2 9.12 6
      vertex 43.569 0.542 6
      vertex 43.658 0.631 6
    endloop
  endfacet
  facet normal 0 0 1
    outer loop
      vertex 1 45.74 6
      vertex 0 76.86 6
      vertex 1 39.12 6
    endloop
  endfacet
  facet normal 0 0 1
    outer loop
      vertex 43.2 9.12 6
      vertex 43.2 1 6
      vertex 43.569 0.542 6
    endloop
  endfacet
  facet normal 0 0 1
    outer loop
      vertex 1 73.74 6
      vertex 0 76.86 6
      vertex 1 45.74 6
    endloop
  endfacet
  facet normal 0 0 1
    outer loop
      vertex 1 77.86 6
      vertex 42.451 78.844 6
      vertex 42.326 78.856 6
    endloop
  endfacet
  facet normal 0 0 1
    outer loop
      vertex 44.2 76.86 6
      vertex 43.2 39.12 6
      vertex 43.2 9.12 6
    endloop
  endfacet
  facet normal 0 0 1
    outer loop
      vertex 44.2 76.86 6
      vertex 43.2 45.74 6
      vertex 43.2 39.12 6
    endloop
  endfacet
  facet normal 0 0 1
    outer loop
      vertex 1 45.74 6
      vertex 43.2 45.74 6
      vertex 1 73.74 6
    endloop
  endfacet
  facet normal 0 0 1
    outer loop
      vertex 1.874 78.856 6
      vertex 1 77.86 6
      vertex 2 78.86 6
    endloop
  endfacet
  facet normal 0 0 1
    outer loop
      vertex 1.874 78.856 6
      vertex 0 76.86 6
      vertex 1 77.86 6
    endloop
  endfacet
  facet normal 0 0 1
    outer loop
      vertex 43.889 77.932 6
      vertex 43.2 77.86 6
      vertex 43.953 77.824 6
    endloop
  endfacet
  facet normal 0 0 1
    outer loop
      vertex 44.2 76.86 6
      vertex 43.2 73.74 6
      vertex 43.2 45.74 6
    endloop
  endfacet
  facet normal 0 0 1
    outer loop
      vertex 1 1 6
      vertex 1 9.12 6
      vertex 0 76.86 6
    endloop
  endfacet
  facet normal 0 0 1
    outer loop
      vertex 1 9.12 6
      vertex 1 39.12 6
      vertex 0 76.86 6
    endloop
  endfacet
  facet normal 0 0 1
    outer loop
      vertex 1 77.86 6
      vertex 43.889 77.932 6
      vertex 43.818 78.036 6
    endloop
  endfacet
  facet normal 0 0 1
    outer loop
      vertex 1 77.86 6
      vertex 43.2 77.86 6
      vertex 43.889 77.932 6
    endloop
  endfacet
  facet normal 0 0 1
    outer loop
      vertex 43.2 1 6
      vertex 43.376 0.382 6
      vertex 43.475 0.459 6
    endloop
  endfacet
  facet normal 0 0 1
    outer loop
      vertex 43.2 1 6
      vertex 43.272 0.311 6
      vertex 43.376 0.382 6
    endloop
  endfacet
  facet normal 0 0 1
    outer loop
      vertex 43.2 1 6
      vertex 43.164 0.247 6
      vertex 43.272 0.311 6
    endloop
  endfacet
  facet normal 0 0 1
    outer loop
      vertex 43.2 1 6
      vertex 43.052 0.19 6
      vertex 43.164 0.247 6
    endloop
  endfacet
  facet normal 0 0 1
    outer loop
      vertex 43.2 1 6
      vertex 42.936 0.14 6
      vertex 43.052 0.19 6
    endloop
  endfacet
  facet normal 0 0 1
    outer loop
      vertex 43.2 1 6
      vertex 42.818 0.098 6
      vertex 42.936 0.14 6
    endloop
  endfacet
  facet normal 0 0 1
    outer loop
      vertex 43.2 1 6
      vertex 42.697 0.063 6
      vertex 42.818 0.098 6
    endloop
  endfacet
  facet normal 0 0 1
    outer loop
      vertex 43.2 1 6
      vertex 42.575 0.035 6
      vertex 42.697 0.063 6
    endloop
  endfacet
  facet normal 0 0 1
    outer loop
      vertex 43.2 1 6
      vertex 42.451 0.016 6
      vertex 42.575 0.035 6
    endloop
  endfacet
  facet normal 0 0 1
    outer loop
      vertex 43.2 1 6
      vertex 42.326 0.004 6
      vertex 42.451 0.016 6
    endloop
  endfacet
  facet normal 0 0 1
    outer loop
      vertex 43.2 1 6
      vertex 42.2 0 6
      vertex 42.326 0.004 6
    endloop
  endfacet
  facet normal 0 0 1
    outer loop
      vertex 43.2 1 6
      vertex 2 0 6
      vertex 42.2 0 6
    endloop
  endfacet
  facet normal 0 0 1
    outer loop
      vertex 43.2 1 6
      vertex 1.874 0.004 6
      vertex 2 0 6
    endloop
  endfacet
  facet normal 0 0 1
    outer loop
      vertex 43.2 1 6
      vertex 1.749 0.016 6
      vertex 1.874 0.004 6
    endloop
  endfacet
  facet normal 0 0 1
    outer loop
      vertex 43.2 1 6
      vertex 1.625 0.035 6
      vertex 1.749 0.016 6
    endloop
  endfacet
  facet normal 0 0 1
    outer loop
      vertex 43.2 1 6
      vertex 1.503 0.063 6
      vertex 1.625 0.035 6
    endloop
  endfacet
  facet normal 0 0 1
    outer loop
      vertex 43.2 1 6
      vertex 1.382 0.098 6
      vertex 1.503 0.063 6
    endloop
  endfacet
  facet normal 0 0 1
    outer loop
      vertex 43.2 1 6
      vertex 1.264 0.14 6
      vertex 1.382 0.098 6
    endloop
  endfacet
  facet normal 0 0 1
    outer loop
      vertex 43.2 1 6
      vertex 1.148 0.19 6
      vertex 1.264 0.14 6
    endloop
  endfacet
  facet normal 0 0 1
    outer loop
      vertex 43.2 1 6
      vertex 1.036 0.247 6
      vertex 1.148 0.19 6
    endloop
  endfacet
  facet normal 0 0 1
    outer loop
      vertex 43.2 1 6
      vertex 1 1 6
      vertex 1.036 0.247 6
    endloop
  endfacet
  facet normal 0 0 1
    outer loop
      vertex 1 73.74 6
      vertex 1 77.86 6
      vertex 0 76.86 6
    endloop
  endfacet
  facet normal -0.995424 -0.0955607 0
    outer loop
      vertex 0.004 1.874 0
      vertex 0.016 1.749 0
      vertex 0.004 1.874 6
    endloop
  endfacet
  facet normal -0.995424 -0.0955607 0
    outer loop
      vertex 0.004 1.874 6
      vertex 0.016 1.749 0
      vertex 0.016 1.749 6
    endloop
  endfacet
  facet normal -0.988464 -0.151458 0
    outer loop
      vertex 0.016 1.749 0
      vertex 0.035 1.625 0
      vertex 0.016 1.749 6
    endloop
  endfacet
  facet normal -0.988464 -0.151458 0
    outer loop
      vertex 0.016 1.749 6
      vertex 0.035 1.625 0
      vertex 0.035 1.625 6
    endloop
  endfacet
  facet normal -0.97466 -0.223692 0
    outer loop
      vertex 0.035 1.625 0
      vertex 0.063 1.503 0
      vertex 0.035 1.625 6
    endloop
  endfacet
  facet normal -0.97466 -0.223692 0
    outer loop
      vertex 0.035 1.625 6
      vertex 0.063 1.503 0
      vertex 0.063 1.503 6
    endloop
  endfacet
  facet normal -0.96062 -0.277865 0
    outer loop
      vertex 0.063 1.503 0
      vertex 0.098 1.382 0
      vertex 0.063 1.503 6
    endloop
  endfacet
  facet normal -0.96062 -0.277865 0
    outer loop
      vertex 0.063 1.503 6
      vertex 0.098 1.382 0
      vertex 0.098 1.382 6
    endloop
  endfacet
  facet normal -0.942103 -0.335325 0
    outer loop
      vertex 0.098 1.382 0
      vertex 0.14 1.264 0
      vertex 0.098 1.382 6
    endloop
  endfacet
  facet normal -0.942103 -0.335325 0
    outer loop
      vertex 0.098 1.382 6
      vertex 0.14 1.264 0
      vertex 0.14 1.264 6
    endloop
  endfacet
  facet normal -0.918324 -0.395829 0
    outer loop
      vertex 0.14 1.264 0
      vertex 0.19 1.148 0
      vertex 0.14 1.264 6
    endloop
  endfacet
  facet normal -0.918324 -0.395829 0
    outer loop
      vertex 0.14 1.264 6
      vertex 0.19 1.148 0
      vertex 0.19 1.148 6
    endloop
  endfacet
  facet normal -0.891222 -0.453568 0
    outer loop
      vertex 0.19 1.148 0
      vertex 0.247 1.036 0
      vertex 0.19 1.148 6
    endloop
  endfacet
  facet normal -0.891222 -0.453568 0
    outer loop
      vertex 0.19 1.148 6
      vertex 0.247 1.036 0
      vertex 0.247 1.036 6
    endloop
  endfacet
  facet normal -0.860292 -0.509802 0
    outer loop
      vertex 0.247 1.036 0
      vertex 0.311 0.928 0
      vertex 0.247 1.036 6
    endloop
  endfacet
  facet normal -0.860292 -0.509802 0
    outer loop
      vertex 0.247 1.036 6
      vertex 0.311 0.928 0
      vertex 0.311 0.928 6
    endloop
  endfacet
  facet normal -0.825891 -0.56383 0
    outer loop
      vertex 0.311 0.928 0
      vertex 0.382 0.824 0
      vertex 0.311 0.928 6
    endloop
  endfacet
  facet normal -0.825891 -0.56383 0
    outer loop
      vertex 0.311 0.928 6
      vertex 0.382 0.824 0
      vertex 0.382 0.824 6
    endloop
  endfacet
  facet normal -0.789352 -0.613941 0
    outer loop
      vertex 0.382 0.824 0
      vertex 0.459 0.725 0
      vertex 0.382 0.824 6
    endloop
  endfacet
  facet normal -0.789352 -0.613941 0
    outer loop
      vertex 0.382 0.824 6
      vertex 0.459 0.725 0
      vertex 0.459 0.725 6
    endloop
  endfacet
  facet normal -0.749605 -0.661885 0
    outer loop
      vertex 0.459 0.725 0
      vertex 0.542 0.631 0
      vertex 0.459 0.725 6
    endloop
  endfacet
  facet normal -0.749605 -0.661885 0
    outer loop
      vertex 0.459 0.725 6
      vertex 0.542 0.631 0
      vertex 0.542 0.631 6
    endloop
  endfacet
  facet normal -0.707107 -0.707107 0
    outer loop
      vertex 0.542 0.631 6
      vertex 0.542 0.631 0
      vertex 0.631 0.542 0
    endloop
  endfacet
  facet normal -0.707107 -0.707107 0
    outer loop
      vertex 0.631 0.542 6
      vertex 0.542 0.631 6
      vertex 0.631 0.542 0
    endloop
  endfacet
  facet normal -0.661885 -0.749605 0
    outer loop
      vertex 0.631 0.542 6
      vertex 0.631 0.542 0
      vertex 0.725 0.459 0
    endloop
  endfacet
  facet normal -0.661885 -0.749605 0
    outer loop
      vertex 0.725 0.459 6
      vertex 0.631 0.542 6
      vertex 0.725 0.459 0
    endloop
  endfacet
  facet normal -0.613941 -0.789352 0
    outer loop
      vertex 0.725 0.459 6
      vertex 0.725 0.459 0
      vertex 0.824 0.382 0
    endloop
  endfacet
  facet normal -0.613941 -0.789352 0
    outer loop
      vertex 0.824 0.382 6
      vertex 0.725 0.459 6
      vertex 0.824 0.382 0
    endloop
  endfacet
  facet normal -0.56383 -0.825891 0
    outer loop
      vertex 0.824 0.382 6
      vertex 0.824 0.382 0
      vertex 0.928 0.311 0
    endloop
  endfacet
  facet normal -0.56383 -0.825891 0
    outer loop
      vertex 0.928 0.311 6
      vertex 0.824 0.382 6
      vertex 0.928 0.311 0
    endloop
  endfacet
  facet normal -0.509802 -0.860292 0
    outer loop
      vertex 0.928 0.311 6
      vertex 0.928 0.311 0
      vertex 1.036 0.247 0
    endloop
  endfacet
  facet normal -0.509802 -0.860292 0
    outer loop
      vertex 1.036 0.247 6
      vertex 0.928 0.311 6
      vertex 1.036 0.247 0
    endloop
  endfacet
  facet normal -0.453568 -0.891222 0
    outer loop
      vertex 1.036 0.247 6
      vertex 1.036 0.247 0
      vertex 1.148 0.19 0
    endloop
  endfacet
  facet normal -0.453568 -0.891222 0
    outer loop
      vertex 1.148 0.19 6
      vertex 1.036 0.247 6
      vertex 1.148 0.19 0
    endloop
  endfacet
  facet normal -0.395829 -0.918324 0
    outer loop
      vertex 1.148 0.19 6
      vertex 1.148 0.19 0
      vertex 1.264 0.14 0
    endloop
  endfacet
  facet normal -0.395829 -0.918324 0
    outer loop
      vertex 1.264 0.14 6
      vertex 1.148 0.19 6
      vertex 1.264 0.14 0
    endloop
  endfacet
  facet normal -0.335325 -0.942103 0
    outer loop
      vertex 1.264 0.14 6
      vertex 1.264 0.14 0
      vertex 1.382 0.098 0
    endloop
  endfacet
  facet normal -0.335325 -0.942103 0
    outer loop
      vertex 1.382 0.098 6
      vertex 1.264 0.14 6
      vertex 1.382 0.098 0
    endloop
  endfacet
  facet normal -0.277865 -0.96062 0
    outer loop
      vertex 1.382 0.098 6
      vertex 1.382 0.098 0
      vertex 1.503 0.063 0
    endloop
  endfacet
  facet normal -0.277865 -0.96062 0
    outer loop
      vertex 1.503 0.063 6
      vertex 1.382 0.098 6
      vertex 1.503 0.063 0
    endloop
  endfacet
  facet normal -0.223692 -0.97466 0
    outer loop
      vertex 1.503 0.063 6
      vertex 1.503 0.063 0
      vertex 1.625 0.035 0
    endloop
  endfacet
  facet normal -0.223692 -0.97466 0
    outer loop
      vertex 1.625 0.035 6
      vertex 1.503 0.063 6
      vertex 1.625 0.035 0
    endloop
  endfacet
  facet normal -0.151458 -0.988464 0
    outer loop
      vertex 1.625 0.035 6
      vertex 1.625 0.035 0
      vertex 1.749 0.016 0
    endloop
  endfacet
  facet normal -0.151458 -0.988464 0
    outer loop
      vertex 1.749 0.016 6
      vertex 1.625 0.035 6
      vertex 1.749 0.016 0
    endloop
  endfacet
  facet normal -0.0955607 -0.995424 0
    outer loop
      vertex 1.749 0.016 6
      vertex 1.749 0.016 0
      vertex 1.874 0.004 0
    endloop
  endfacet
  facet normal -0.0955607 -0.995424 0
    outer loop
      vertex 1.874 0.004 6
      vertex 1.749 0.016 6
      vertex 1.874 0.004 0
    endloop
  endfacet
  facet normal -0.03173 -0.999496 0
    outer loop
      vertex 1.874 0.004 6
      vertex 1.874 0.004 0
      vertex 2 0 0
    endloop
  endfacet
  facet normal -0.03173 -0.999496 0
    outer loop
      vertex 2 0 6
      vertex 1.874 0.004 6
      vertex 2 0 0
    endloop
  endfacet
  facet normal 0 -1 0
    outer loop
      vertex 2 0 6
      vertex 2 0 0
      vertex 42.2 0 0
    endloop
  endfacet
  facet normal 0 -1 0
    outer loop
      vertex 42.2 0 6
      vertex 2 0 6
      vertex 42.2 0 0
    endloop
  endfacet
  facet normal 0.03173 -0.999496 0
    outer loop
      vertex 42.2 0 6
      vertex 42.2 0 0
      vertex 42.326 0.004 0
    endloop
  endfacet
  facet normal 0.03173 -0.999496 0
    outer loop
      vertex 42.326 0.004 6
      vertex 42.2 0 6
      vertex 42.326 0.004 0
    endloop
  endfacet
  facet normal 0.0955607 -0.995424 0
    outer loop
      vertex 42.326 0.004 6
      vertex 42.326 0.004 0
      vertex 42.451 0.016 0
    endloop
  endfacet
  facet normal 0.0955607 -0.995424 0
    outer loop
      vertex 42.451 0.016 6
      vertex 42.326 0.004 6
      vertex 42.451 0.016 0
    endloop
  endfacet
  facet normal 0.151458 -0.988464 0
    outer loop
      vertex 42.451 0.016 6
      vertex 42.451 0.016 0
      vertex 42.575 0.035 0
    endloop
  endfacet
  facet normal 0.151458 -0.988464 0
    outer loop
      vertex 42.575 0.035 6
      vertex 42.451 0.016 6
      vertex 42.575 0.035 0
    endloop
  endfacet
  facet normal 0.223692 -0.97466 0
    outer loop
      vertex 42.575 0.035 6
      vertex 42.575 0.035 0
      vertex 42.697 0.063 0
    endloop
  endfacet
  facet normal 0.223692 -0.97466 0
    outer loop
      vertex 42.697 0.063 6
      vertex 42.575 0.035 6
      vertex 42.697 0.063 0
    endloop
  endfacet
  facet normal 0.277865 -0.96062 0
    outer loop
      vertex 42.697 0.063 6
      vertex 42.697 0.063 0
      vertex 42.818 0.098 0
    endloop
  endfacet
  facet normal 0.277865 -0.96062 0
    outer loop
      vertex 42.818 0.098 6
      vertex 42.697 0.063 6
      vertex 42.818 0.098 0
    endloop
  endfacet
  facet normal 0.335325 -0.942103 0
    outer loop
      vertex 42.818 0.098 6
      vertex 42.818 0.098 0
      vertex 42.936 0.14 0
    endloop
  endfacet
  facet normal 0.335325 -0.942103 0
    outer loop
      vertex 42.936 0.14 6
      vertex 42.818 0.098 6
      vertex 42.936 0.14 0
    endloop
  endfacet
  facet normal 0.395829 -0.918324 0
    outer loop
      vertex 42.936 0.14 6
      vertex 42.936 0.14 0
      vertex 43.052 0.19 0
    endloop
  endfacet
  facet normal 0.395829 -0.918324 0
    outer loop
      vertex 43.052 0.19 6
      vertex 42.936 0.14 6
      vertex 43.052 0.19 0
    endloop
  endfacet
  facet normal 0.453568 -0.891222 0
    outer loop
      vertex 43.052 0.19 6
      vertex 43.052 0.19 0
      vertex 43.164 0.247 0
    endloop
  endfacet
  facet normal 0.453568 -0.891222 0
    outer loop
      vertex 43.164 0.247 6
      vertex 43.052 0.19 6
      vertex 43.164 0.247 0
    endloop
  endfacet
  facet normal 0.509802 -0.860292 0
    outer loop
      vertex 43.164 0.247 6
      vertex 43.164 0.247 0
      vertex 43.272 0.311 0
    endloop
  endfacet
  facet normal 0.509802 -0.860292 0
    outer loop
      vertex 43.272 0.311 6
      vertex 43.164 0.247 6
      vertex 43.272 0.311 0
    endloop
  endfacet
  facet normal 0.56383 -0.825891 0
    outer loop
      vertex 43.272 0.311 6
      vertex 43.272 0.311 0
      vertex 43.376 0.382 0
    endloop
  endfacet
  facet normal 0.56383 -0.825891 0
    outer loop
      vertex 43.376 0.382 6
      vertex 43.272 0.311 6
      vertex 43.376 0.382 0
    endloop
  endfacet
  facet normal 0.613941 -0.789352 0
    outer loop
      vertex 43.376 0.382 6
      vertex 43.376 0.382 0
      vertex 43.475 0.459 0
    endloop
  endfacet
  facet normal 0.613941 -0.789352 0
    outer loop
      vertex 43.475 0.459 6
      vertex 43.376 0.382 6
      vertex 43.475 0.459 0
    endloop
  endfacet
  facet normal 0.661885 -0.749605 0
    outer loop
      vertex 43.475 0.459 6
      vertex 43.475 0.459 0
      vertex 43.569 0.542 0
    endloop
  endfacet
  facet normal 0.661885 -0.749605 0
    outer loop
      vertex 43.569 0.542 6
      vertex 43.475 0.459 6
      vertex 43.569 0.542 0
    endloop
  endfacet
  facet normal 0.707107 -0.707107 0
    outer loop
      vertex 43.569 0.542 6
      vertex 43.569 0.542 0
      vertex 43.658 0.631 0
    endloop
  endfacet
  facet normal 0.707107 -0.707107 0
    outer loop
      vertex 43.658 0.631 6
      vertex 43.569 0.542 6
      vertex 43.658 0.631 0
    endloop
  endfacet
  facet normal 0.749605 -0.661885 0
    outer loop
      vertex 43.658 0.631 6
      vertex 43.658 0.631 0
      vertex 43.741 0.725 0
    endloop
  endfacet
  facet normal 0.749605 -0.661885 0
    outer loop
      vertex 43.741 0.725 6
      vertex 43.658 0.631 6
      vertex 43.741 0.725 0
    endloop
  endfacet
  facet normal 0.789352 -0.613941 0
    outer loop
      vertex 43.741 0.725 6
      vertex 43.741 0.725 0
      vertex 43.818 0.824 0
    endloop
  endfacet
  facet normal 0.789352 -0.613941 0
    outer loop
      vertex 43.818 0.824 6
      vertex 43.741 0.725 6
      vertex 43.818 0.824 0
    endloop
  endfacet
  facet normal 0.825891 -0.56383 0
    outer loop
      vertex 43.818 0.824 6
      vertex 43.818 0.824 0
      vertex 43.889 0.928 0
    endloop
  endfacet
  facet normal 0.825891 -0.56383 0
    outer loop
      vertex 43.889 0.928 6
      vertex 43.818 0.824 6
      vertex 43.889 0.928 0
    endloop
  endfacet
  facet normal 0.860292 -0.509802 0
    outer loop
      vertex 43.889 0.928 6
      vertex 43.889 0.928 0
      vertex 43.953 1.036 0
    endloop
  endfacet
  facet normal 0.860292 -0.509802 0
    outer loop
      vertex 43.953 1.036 6
      vertex 43.889 0.928 6
      vertex 43.953 1.036 0
    endloop
  endfacet
  facet normal 0.891222 -0.453568 0
    outer loop
      vertex 43.953 1.036 6
      vertex 43.953 1.036 0
      vertex 44.01 1.148 0
    endloop
  endfacet
  facet normal 0.891222 -0.453568 0
    outer loop
      vertex 44.01 1.148 6
      vertex 43.953 1.036 6
      vertex 44.01 1.148 0
    endloop
  endfacet
  facet normal 0.918324 -0.395829 0
    outer loop
      vertex 44.01 1.148 6
      vertex 44.01 1.148 0
      vertex 44.06 1.264 0
    endloop
  endfacet
  facet normal 0.918324 -0.395829 0
    outer loop
      vertex 44.06 1.264 6
      vertex 44.01 1.148 6
      vertex 44.06 1.264 0
    endloop
  endfacet
  facet normal 0.942103 -0.335325 0
    outer loop
      vertex 44.06 1.264 6
      vertex 44.06 1.264 0
      vertex 44.102 1.382 0
    endloop
  endfacet
  facet normal 0.942103 -0.335325 0
    outer loop
      vertex 44.102 1.382 6
      vertex 44.06 1.264 6
      vertex 44.102 1.382 0
    endloop
  endfacet
  facet normal 0.96062 -0.277865 0
    outer loop
      vertex 44.102 1.382 6
      vertex 44.102 1.382 0
      vertex 44.137 1.503 0
    endloop
  endfacet
  facet normal 0.96062 -0.277865 0
    outer loop
      vertex 44.137 1.503 6
      vertex 44.102 1.382 6
      vertex 44.137 1.503 0
    endloop
  endfacet
  facet normal 0.97466 -0.223692 0
    outer loop
      vertex 44.137 1.503 6
      vertex 44.137 1.503 0
      vertex 44.165 1.625 0
    endloop
  endfacet
  facet normal 0.97466 -0.223692 0
    outer loop
      vertex 44.165 1.625 6
      vertex 44.137 1.503 6
      vertex 44.165 1.625 0
    endloop
  endfacet
  facet normal 0.988464 -0.151458 0
    outer loop
      vertex 44.165 1.625 6
      vertex 44.165 1.625 0
      vertex 44.184 1.749 0
    endloop
  endfacet
  facet normal 0.988464 -0.151458 0
    outer loop
      vertex 44.184 1.749 6
      vertex 44.165 1.625 6
      vertex 44.184 1.749 0
    endloop
  endfacet
  facet normal 0.995424 -0.0955607 0
    outer loop
      vertex 44.184 1.749 6
      vertex 44.184 1.749 0
      vertex 44.196 1.874 0
    endloop
  endfacet
  facet normal 0.995424 -0.0955607 0
    outer loop
      vertex 44.196 1.874 6
      vertex 44.184 1.749 6
      vertex 44.196 1.874 0
    endloop
  endfacet
  facet normal 0.999496 -0.03173 0
    outer loop
      vertex 44.196 1.874 6
      vertex 44.196 1.874 0
      vertex 44.2 2 0
    endloop
  endfacet
  facet normal 0.999496 -0.03173 0
    outer loop
      vertex 44.2 2 6
      vertex 44.196 1.874 6
      vertex 44.2 2 0
    endloop
  endfacet
  facet normal 1 0 0
    outer loop
      vertex 44.2 2 6
      vertex 44.2 2 0
      vertex 44.2 76.86 0
    endloop
  endfacet
  facet normal 1 0 0
    outer loop
      vertex 44.2 76.86 6
      vertex 44.2 2 6
      vertex 44.2 76.86 0
    endloop
  endfacet
  facet normal 0.999496 0.03173 0
    outer loop
      vertex 44.2 76.86 0
      vertex 44.196 76.986 0
      vertex 44.196 76.986 6
    endloop
  endfacet
  facet normal 0.999496 0.03173 0
    outer loop
      vertex 44.2 76.86 6
      vertex 44.2 76.86 0
      vertex 44.196 76.986 6
    endloop
  endfacet
  facet normal 0.995424 0.0955607 0
    outer loop
      vertex 44.196 76.986 0
      vertex 44.184 77.111 0
      vertex 44.184 77.111 6
    endloop
  endfacet
  facet normal 0.995424 0.0955607 0
    outer loop
      vertex 44.196 76.986 6
      vertex 44.196 76.986 0
      vertex 44.184 77.111 6
    endloop
  endfacet
  facet normal 0.988464 0.151458 0
    outer loop
      vertex 44.184 77.111 0
      vertex 44.165 77.235 0
      vertex 44.165 77.235 6
    endloop
  endfacet
  facet normal 0.988464 0.151458 0
    outer loop
      vertex 44.184 77.111 6
      vertex 44.184 77.111 0
      vertex 44.165 77.235 6
    endloop
  endfacet
  facet normal 0.97466 0.223692 0
    outer loop
      vertex 44.165 77.235 0
      vertex 44.137 77.357 0
      vertex 44.137 77.357 6
    endloop
  endfacet
  facet normal 0.97466 0.223692 0
    outer loop
      vertex 44.165 77.235 6
      vertex 44.165 77.235 0
      vertex 44.137 77.357 6
    endloop
  endfacet
  facet normal 0.96062 0.277865 0
    outer loop
      vertex 44.137 77.357 0
      vertex 44.102 77.478 0
      vertex 44.102 77.478 6
    endloop
  endfacet
  facet normal 0.96062 0.277865 0
    outer loop
      vertex 44.137 77.357 6
      vertex 44.137 77.357 0
      vertex 44.102 77.478 6
    endloop
  endfacet
  facet normal 0.942103 0.335325 0
    outer loop
      vertex 44.102 77.478 0
      vertex 44.06 77.596 0
      vertex 44.06 77.596 6
    endloop
  endfacet
  facet normal 0.942103 0.335325 0
    outer loop
      vertex 44.102 77.478 6
      vertex 44.102 77.478 0
      vertex 44.06 77.596 6
    endloop
  endfacet
  facet normal 0.918324 0.395829 0
    outer loop
      vertex 44.06 77.596 0
      vertex 44.01 77.712 0
      vertex 44.01 77.712 6
    endloop
  endfacet
  facet normal 0.918324 0.395829 0
    outer loop
      vertex 44.06 77.596 6
      vertex 44.06 77.596 0
      vertex 44.01 77.712 6
    endloop
  endfacet
  facet normal 0.891222 0.453568 0
    outer loop
      vertex 44.01 77.712 0
      vertex 43.953 77.824 0
      vertex 43.953 77.824 6
    endloop
  endfacet
  facet normal 0.891222 0.453568 0
    outer loop
      vertex 44.01 77.712 6
      vertex 44.01 77.712 0
      vertex 43.953 77.824 6
    endloop
  endfacet
  facet normal 0.860292 0.509802 0
    outer loop
      vertex 43.953 77.824 0
      vertex 43.889 77.932 0
      vertex 43.889 77.932 6
    endloop
  endfacet
  facet normal 0.860292 0.509802 0
    outer loop
      vertex 43.953 77.824 6
      vertex 43.953 77.824 0
      vertex 43.889 77.932 6
    endloop
  endfacet
  facet normal 0.825891 0.56383 0
    outer loop
      vertex 43.889 77.932 0
      vertex 43.818 78.036 0
      vertex 43.818 78.036 6
    endloop
  endfacet
  facet normal 0.825891 0.56383 0
    outer loop
      vertex 43.889 77.932 6
      vertex 43.889 77.932 0
      vertex 43.818 78.036 6
    endloop
  endfacet
  facet normal 0.789352 0.613941 0
    outer loop
      vertex 43.818 78.036 0
      vertex 43.741 78.135 0
      vertex 43.741 78.135 6
    endloop
  endfacet
  facet normal 0.789352 0.613941 0
    outer loop
      vertex 43.818 78.036 6
      vertex 43.818 78.036 0
      vertex 43.741 78.135 6
    endloop
  endfacet
  facet normal 0.749605 0.661885 0
    outer loop
      vertex 43.741 78.135 0
      vertex 43.658 78.229 0
      vertex 43.658 78.229 6
    endloop
  endfacet
  facet normal 0.749605 0.661885 0
    outer loop
      vertex 43.741 78.135 6
      vertex 43.741 78.135 0
      vertex 43.658 78.229 6
    endloop
  endfacet
  facet normal 0.707107 0.707107 0
    outer loop
      vertex 43.569 78.318 0
      vertex 43.569 78.318 6
      vertex 43.658 78.229 0
    endloop
  endfacet
  facet normal 0.707107 0.707107 0
    outer loop
      vertex 43.658 78.229 0
      vertex 43.569 78.318 6
      vertex 43.658 78.229 6
    endloop
  endfacet
  facet normal 0.661885 0.749605 0
    outer loop
      vertex 43.475 78.401 0
      vertex 43.475 78.401 6
      vertex 43.569 78.318 0
    endloop
  endfacet
  facet normal 0.661885 0.749605 0
    outer loop
      vertex 43.569 78.318 0
      vertex 43.475 78.401 6
      vertex 43.569 78.318 6
    endloop
  endfacet
  facet normal 0.613941 0.789352 0
    outer loop
      vertex 43.376 78.478 0
      vertex 43.376 78.478 6
      vertex 43.475 78.401 0
    endloop
  endfacet
  facet normal 0.613941 0.789352 0
    outer loop
      vertex 43.475 78.401 0
      vertex 43.376 78.478 6
      vertex 43.475 78.401 6
    endloop
  endfacet
  facet normal 0.56383 0.825891 0
    outer loop
      vertex 43.272 78.549 0
      vertex 43.272 78.549 6
      vertex 43.376 78.478 0
    endloop
  endfacet
  facet normal 0.56383 0.825891 0
    outer loop
      vertex 43.376 78.478 0
      vertex 43.272 78.549 6
      vertex 43.376 78.478 6
    endloop
  endfacet
  facet normal 0.509802 0.860292 0
    outer loop
      vertex 43.164 78.613 0
      vertex 43.164 78.613 6
      vertex 43.272 78.549 0
    endloop
  endfacet
  facet normal 0.509802 0.860292 0
    outer loop
      vertex 43.272 78.549 0
      vertex 43.164 78.613 6
      vertex 43.272 78.549 6
    endloop
  endfacet
  facet normal 0.453568 0.891222 0
    outer loop
      vertex 43.052 78.67 0
      vertex 43.052 78.67 6
      vertex 43.164 78.613 0
    endloop
  endfacet
  facet normal 0.453568 0.891222 0
    outer loop
      vertex 43.164 78.613 0
      vertex 43.052 78.67 6
      vertex 43.164 78.613 6
    endloop
  endfacet
  facet normal 0.395829 0.918324 0
    outer loop
      vertex 42.936 78.72 0
      vertex 42.936 78.72 6
      vertex 43.052 78.67 0
    endloop
  endfacet
  facet normal 0.395829 0.918324 0
    outer loop
      vertex 43.052 78.67 0
      vertex 42.936 78.72 6
      vertex 43.052 78.67 6
    endloop
  endfacet
  facet normal 0.335325 0.942103 0
    outer loop
      vertex 42.818 78.762 0
      vertex 42.818 78.762 6
      vertex 42.936 78.72 0
    endloop
  endfacet
  facet normal 0.335325 0.942103 0
    outer loop
      vertex 42.936 78.72 0
      vertex 42.818 78.762 6
      vertex 42.936 78.72 6
    endloop
  endfacet
  facet normal 0.277865 0.96062 0
    outer loop
      vertex 42.697 78.797 0
      vertex 42.697 78.797 6
      vertex 42.818 78.762 0
    endloop
  endfacet
  facet normal 0.277865 0.96062 0
    outer loop
      vertex 42.818 78.762 0
      vertex 42.697 78.797 6
      vertex 42.818 78.762 6
    endloop
  endfacet
  facet normal 0.223692 0.97466 0
    outer loop
      vertex 42.575 78.825 0
      vertex 42.575 78.825 6
      vertex 42.697 78.797 0
    endloop
  endfacet
  facet normal 0.223692 0.97466 0
    outer loop
      vertex 42.697 78.797 0
      vertex 42.575 78.825 6
      vertex 42.697 78.797 6
    endloop
  endfacet
  facet normal 0.151458 0.988464 0
    outer loop
      vertex 42.451 78.844 0
      vertex 42.451 78.844 6
      vertex 42.575 78.825 0
    endloop
  endfacet
  facet normal 0.151458 0.988464 0
    outer loop
      vertex 42.575 78.825 0
      vertex 42.451 78.844 6
      vertex 42.575 78.825 6
    endloop
  endfacet
  facet normal 0.0955607 0.995424 0
    outer loop
      vertex 42.326 78.856 0
      vertex 42.326 78.856 6
      vertex 42.451 78.844 0
    endloop
  endfacet
  facet normal 0.0955607 0.995424 0
    outer loop
      vertex 42.451 78.844 0
      vertex 42.326 78.856 6
      vertex 42.451 78.844 6
    endloop
  endfacet
  facet normal 0.03173 0.999496 0
    outer loop
      vertex 42.2 78.86 0
      vertex 42.2 78.86 6
      vertex 42.326 78.856 0
    endloop
  endfacet
  facet normal 0.03173 0.999496 0
    outer loop
      vertex 42.326 78.856 0
      vertex 42.2 78.86 6
      vertex 42.326 78.856 6
    endloop
  endfacet
  facet normal 0 1 0
    outer loop
      vertex 2 78.86 0
      vertex 2 78.86 6
      vertex 42.2 78.86 0
    endloop
  endfacet
  facet normal 0 1 0
    outer loop
      vertex 42.2 78.86 0
      vertex 2 78.86 6
      vertex 42.2 78.86 6
    endloop
  endfacet
  facet normal -0.03173 0.999496 0
    outer loop
      vertex 1.874 78.856 0
      vertex 1.874 78.856 6
      vertex 2 78.86 0
    endloop
  endfacet
  facet normal -0.03173 0.999496 0
    outer loop
      vertex 2 78.86 0
      vertex 1.874 78.856 6
      vertex 2 78.86 6
    endloop
  endfacet
  facet normal -0.0955607 0.995424 0
    outer loop
      vertex 1.749 78.844 0
      vertex 1.749 78.844 6
      vertex 1.874 78.856 0
    endloop
  endfacet
  facet normal -0.0955607 0.995424 0
    outer loop
      vertex 1.874 78.856 0
      vertex 1.749 78.844 6
      vertex 1.874 78.856 6
    endloop
  endfacet
  facet normal -0.151458 0.988464 0
    outer loop
      vertex 1.625 78.825 0
      vertex 1.625 78.825 6
      vertex 1.749 78.844 0
    endloop
  endfacet
  facet normal -0.151458 0.988464 0
    outer loop
      vertex 1.749 78.844 0
      vertex 1.625 78.825 6
      vertex 1.749 78.844 6
    endloop
  endfacet
  facet normal -0.223692 0.97466 0
    outer loop
      vertex 1.503 78.797 0
      vertex 1.503 78.797 6
      vertex 1.625 78.825 0
    endloop
  endfacet
  facet normal -0.223692 0.97466 0
    outer loop
      vertex 1.625 78.825 0
      vertex 1.503 78.797 6
      vertex 1.625 78.825 6
    endloop
  endfacet
  facet normal -0.277865 0.96062 0
    outer loop
      vertex 1.382 78.762 0
      vertex 1.382 78.762 6
      vertex 1.503 78.797 0
    endloop
  endfacet
  facet normal -0.277865 0.96062 0
    outer loop
      vertex 1.503 78.797 0
      vertex 1.382 78.762 6
      vertex 1.503 78.797 6
    endloop
  endfacet
  facet normal -0.335325 0.942103 0
    outer loop
      vertex 1.264 78.72 0
      vertex 1.264 78.72 6
      vertex 1.382 78.762 0
    endloop
  endfacet
  facet normal -0.335325 0.942103 0
    outer loop
      vertex 1.382 78.762 0
      vertex 1.264 78.72 6
      vertex 1.382 78.762 6
    endloop
  endfacet
  facet normal -0.395829 0.918324 0
    outer loop
      vertex 1.148 78.67 0
      vertex 1.148 78.67 6
      vertex 1.264 78.72 0
    endloop
  endfacet
  facet normal -0.395829 0.918324 0
    outer loop
      vertex 1.264 78.72 0
      vertex 1.148 78.67 6
      vertex 1.264 78.72 6
    endloop
  endfacet
  facet normal -0.453568 0.891222 0
    outer loop
      vertex 1.036 78.613 0
      vertex 1.036 78.613 6
      vertex 1.148 78.67 0
    endloop
  endfacet
  facet normal -0.453568 0.891222 0
    outer loop
      vertex 1.148 78.67 0
      vertex 1.036 78.613 6
      vertex 1.148 78.67 6
    endloop
  endfacet
  facet normal -0.509802 0.860292 0
    outer loop
      vertex 0.928 78.549 0
      vertex 0.928 78.549 6
      vertex 1.036 78.613 0
    endloop
  endfacet
  facet normal -0.509802 0.860292 0
    outer loop
      vertex 1.036 78.613 0
      vertex 0.928 78.549 6
      vertex 1.036 78.613 6
    endloop
  endfacet
  facet normal -0.56383 0.825891 0
    outer loop
      vertex 0.824 78.478 0
      vertex 0.824 78.478 6
      vertex 0.928 78.549 0
    endloop
  endfacet
  facet normal -0.56383 0.825891 0
    outer loop
      vertex 0.928 78.549 0
      vertex 0.824 78.478 6
      vertex 0.928 78.549 6
    endloop
  endfacet
  facet normal -0.613941 0.789352 0
    outer loop
      vertex 0.725 78.401 0
      vertex 0.725 78.401 6
      vertex 0.824 78.478 0
    endloop
  endfacet
  facet normal -0.613941 0.789352 0
    outer loop
      vertex 0.824 78.478 0
      vertex 0.725 78.401 6
      vertex 0.824 78.478 6
    endloop
  endfacet
  facet normal -0.661885 0.749605 0
    outer loop
      vertex 0.631 78.318 0
      vertex 0.631 78.318 6
      vertex 0.725 78.401 0
    endloop
  endfacet
  facet normal -0.661885 0.749605 0
    outer loop
      vertex 0.725 78.401 0
      vertex 0.631 78.318 6
      vertex 0.725 78.401 6
    endloop
  endfacet
  facet normal -0.707107 0.707107 0
    outer loop
      vertex 0.542 78.229 0
      vertex 0.542 78.229 6
      vertex 0.631 78.318 0
    endloop
  endfacet
  facet normal -0.707107 0.707107 0
    outer loop
      vertex 0.631 78.318 0
      vertex 0.542 78.229 6
      vertex 0.631 78.318 6
    endloop
  endfacet
  facet normal -0.749605 0.661885 0
    outer loop
      vertex 0.459 78.135 0
      vertex 0.459 78.135 6
      vertex 0.542 78.229 0
    endloop
  endfacet
  facet normal -0.749605 0.661885 0
    outer loop
      vertex 0.542 78.229 0
      vertex 0.459 78.135 6
      vertex 0.542 78.229 6
    endloop
  endfacet
  facet normal -0.789352 0.613941 0
    outer loop
      vertex 0.382 78.036 0
      vertex 0.382 78.036 6
      vertex 0.459 78.135 0
    endloop
  endfacet
  facet normal -0.789352 0.613941 0
    outer loop
      vertex 0.459 78.135 0
      vertex 0.382 78.036 6
      vertex 0.459 78.135 6
    endloop
  endfacet
  facet normal -0.825891 0.56383 0
    outer loop
      vertex 0.311 77.932 0
      vertex 0.311 77.932 6
      vertex 0.382 78.036 0
    endloop
  endfacet
  facet normal -0.825891 0.56383 0
    outer loop
      vertex 0.382 78.036 0
      vertex 0.311 77.932 6
      vertex 0.382 78.036 6
    endloop
  endfacet
  facet normal -0.860292 0.509802 0
    outer loop
      vertex 0.247 77.824 0
      vertex 0.247 77.824 6
      vertex 0.311 77.932 0
    endloop
  endfacet
  facet normal -0.860292 0.509802 0
    outer loop
      vertex 0.311 77.932 0
      vertex 0.247 77.824 6
      vertex 0.311 77.932 6
    endloop
  endfacet
  facet normal -0.891222 0.453568 0
    outer loop
      vertex 0.19 77.712 0
      vertex 0.19 77.712 6
      vertex 0.247 77.824 0
    endloop
  endfacet
  facet normal -0.891222 0.453568 0
    outer loop
      vertex 0.247 77.824 0
      vertex 0.19 77.712 6
      vertex 0.247 77.824 6
    endloop
  endfacet
  facet normal -0.918324 0.395829 0
    outer loop
      vertex 0.14 77.596 0
      vertex 0.14 77.596 6
      vertex 0.19 77.712 0
    endloop
  endfacet
  facet normal -0.918324 0.395829 0
    outer loop
      vertex 0.19 77.712 0
      vertex 0.14 77.596 6
      vertex 0.19 77.712 6
    endloop
  endfacet
  facet normal -0.942103 0.335325 0
    outer loop
      vertex 0.098 77.478 0
      vertex 0.098 77.478 6
      vertex 0.14 77.596 0
    endloop
  endfacet
  facet normal -0.942103 0.335325 0
    outer loop
      vertex 0.14 77.596 0
      vertex 0.098 77.478 6
      vertex 0.14 77.596 6
    endloop
  endfacet
  facet normal -0.96062 0.277865 0
    outer loop
      vertex 0.063 77.357 0
      vertex 0.063 77.357 6
      vertex 0.098 77.478 0
    endloop
  endfacet
  facet normal -0.96062 0.277865 0
    outer loop
      vertex 0.098 77.478 0
      vertex 0.063 77.357 6
      vertex 0.098 77.478 6
    endloop
  endfacet
  facet normal -0.97466 0.223692 0
    outer loop
      vertex 0.035 77.235 0
      vertex 0.035 77.235 6
      vertex 0.063 77.357 0
    endloop
  endfacet
  facet normal -0.97466 0.223692 0
    outer loop
      vertex 0.063 77.357 0
      vertex 0.035 77.235 6
      vertex 0.063 77.357 6
    endloop
  endfacet
  facet normal -0.988464 0.151458 0
    outer loop
      vertex 0.016 77.111 0
      vertex 0.016 77.111 6
      vertex 0.035 77.235 0
    endloop
  endfacet
  facet normal -0.988464 0.151458 0
    outer loop
      vertex 0.035 77.235 0
      vertex 0.016 77.111 6
      vertex 0.035 77.235 6
    endloop
  endfacet
  facet normal -0.995424 0.0955607 0
    outer loop
      vertex 0.004 76.986 0
      vertex 0.004 76.986 6
      vertex 0.016 77.111 0
    endloop
  endfacet
  facet normal -0.995424 0.0955607 0
    outer loop
      vertex 0.016 77.111 0
      vertex 0.004 76.986 6
      vertex 0.016 77.111 6
    endloop
  endfacet
  facet normal -0.999496 0.03173 0
    outer loop
      vertex 0 76.86 0
      vertex 0 76.86 6
      vertex 0.004 76.986 0
    endloop
  endfacet
  facet normal -0.999496 0.03173 0
    outer loop
      vertex 0.004 76.986 0
      vertex 0 76.86 6
      vertex 0.004 76.986 6
    endloop
  endfacet
  facet normal 1 0 0
    outer loop
      vertex 1 9.12 2
      vertex 1 9.12 6
      vertex 1 1 6
    endloop
  endfacet
  facet normal 1 0 0
    outer loop
      vertex 1 1 2
      vertex 1 9.12 2
      vertex 1 1 6
    endloop
  endfacet
  facet normal 0 1 0
    outer loop
      vertex 43.2 1 6
      vertex 43.2 1 2
      vertex 1 1 6
    endloop
  endfacet
  facet normal 0 1 0
    outer loop
      vertex 1 1 6
      vertex 43.2 1 2
      vertex 1 1 2
    endloop
  endfacet
  facet normal -1 0 0
    outer loop
      vertex 43.2 9.12 6
      vertex 43.2 9.12 2
      vertex 43.2 1 6
    endloop
  endfacet
  facet normal -1 0 0
    outer loop
      vertex 43.2 1 6
      vertex 43.2 9.12 2
      vertex 43.2 1 2
    endloop
  endfacet
  facet normal 0 -1 0
    outer loop
      vertex 43.2 9.12 2
      vertex 43.2 9.12 6
      vertex 1 9.12 6
    endloop
  endfacet
  facet normal 0 -1 0
    outer loop
      vertex 1 9.12 2
      vertex 43.2 9.12 2
      vertex 1 9.12 6
    endloop
  endfacet
  facet normal 1 0 0
    outer loop
      vertex 1 45.74 2
      vertex 1 45.74 6
      vertex 1 39.12 6
    endloop
  endfacet
  facet normal 1 0 0
    outer loop
      vertex 1 39.12 2
      vertex 1 45.74 2
      vertex 1 39.12 6
    endloop
  endfacet
  facet normal 0 1 0
    outer loop
      vertex 43.2 39.12 6
      vertex 43.2 39.12 2
      vertex 1 39.12 6
    endloop
  endfacet
  facet normal 0 1 0
    outer loop
      vertex 1 39.12 6
      vertex 43.2 39.12 2
      vertex 1 39.12 2
    endloop
  endfacet
  facet normal -1 0 0
    outer loop
      vertex 43.2 45.74 6
      vertex 43.2 45.74 2
      vertex 43.2 39.12 6
    endloop
  endfacet
  facet normal -1 0 0
    outer loop
      vertex 43.2 39.12 6
      vertex 43.2 45.74 2
      vertex 43.2 39.12 2
    endloop
  endfacet
  facet normal 0 -1 0
    outer loop
      vertex 43.2 45.74 2
      vertex 43.2 45.74 6
      vertex 1 45.74 6
    endloop
  endfacet
  facet normal 0 -1 0
    outer loop
      vertex 1 45.74 2
      vertex 43.2 45.74 2
      vertex 1 45.74 6
    endloop
  endfacet
  facet normal 1 0 0
    outer loop
      vertex 1 77.86 2
      vertex 1 77.86 6
      vertex 1 73.74 6
    endloop
  endfacet
  facet normal 1 0 0
    outer loop
      vertex 1 73.74 2
      vertex 1 77.86 2
      vertex 1 73.74 6
    endloop
  endfacet
  facet normal 0 1 0
    outer loop
      vertex 43.2 73.74 6
      vertex 43.2 73.74 2
      vertex 1 73.74 6
    endloop
  endfacet
  facet normal 0 1 0
    outer loop
      vertex 1 73.74 6
      vertex 43.2 73.74 2
      vertex 1 73.74 2
    endloop
  endfacet
  facet normal -1 0 0
    outer loop
      vertex 43.2 77.86 6
      vertex 43.2 77.86 2
      vertex 43.2 73.74 6
    endloop
  endfacet
  facet normal -1 0 0
    outer loop
      vertex 43.2 73.74 6
      vertex 43.2 77.86 2
      vertex 43.2 73.74 2
    endloop
  endfacet
  facet normal 0 -1 0
    outer loop
      vertex 43.2 77.86 2
      vertex 43.2 77.86 6
      vertex 1 77.86 6
    endloop
  endfacet
  facet normal 0 -1 0
    outer loop
      vertex 1 77.86 2
      vertex 43.2 77.86 2
      vertex 1 77.86 6
    endloop
  endfacet
  facet normal 0 0 1
    outer loop
      vertex 43.2 1 2
      vertex 43.2 9.12 2
      vertex 1 9.12 2
    endloop
  endfacet
  facet normal 0 0 1
    outer loop
      vertex 1 1 2
      vertex 43.2 1 2
      vertex 1 9.12 2
    endloop
  endfacet
  facet normal 0 0 1
    outer loop
      vertex 43.2 39.12 2
      vertex 43.2 45.74 2
      vertex 1 45.74 2
    endloop
  endfacet
  facet normal 0 0 1
    outer loop
      vertex 1 39.12 2
      vertex 43.2 39.12 2
      vertex 1 45.74 2
    endloop
  endfacet
  facet normal 0 0 1
    outer loop
      vertex 43.2 73.74 2
      vertex 43.2 77.86 2
      vertex 1 77.86 2
    endloop
  endfacet
  facet normal 0 0 1
    outer loop
      vertex 1 73.74 2
      vertex 43.2 73.74 2
      vertex 1 77.86 2
    endloop
  endfacet
endsolid OpenSCAD_Model
