solid OpenSCAD_Model
  facet normal 0 -1 0
    outer loop
      vertex 0 0 4
      vertex 0 0 0
      vertex 42 0 0
    endloop
  endfacet
  facet normal 0 -1 0
    outer loop
      vertex 42 0 4
      vertex 0 0 4
      vertex 42 0 0
    endloop
  endfacet
  facet normal 0 0 -1
    outer loop
      vertex 0 0 0
      vertex 0 44 0
      vertex 42 0 0
    endloop
  endfacet
  facet normal 0 0 -1
    outer loop
      vertex 42 0 0
      vertex 0 44 0
      vertex 42 44 0
    endloop
  endfacet
  facet normal -1 0 0
    outer loop
      vertex 0 0 0
      vertex 0 0 4
      vertex 0 44 0
    endloop
  endfacet
  facet normal -1 0 0
    outer loop
      vertex 0 25.97 2
      vertex 0 0 4
      vertex 0 25.97 4
    endloop
  endfacet
  facet normal -1 0 0
    outer loop
      vertex 0 44 0
      vertex 0 0 4
      vertex 0 25.97 2
    endloop
  endfacet
  facet normal -1 0 0
    outer loop
      vertex 0 44 0
      vertex 0 42.03 2
      vertex 0 42.03 4
    endloop
  endfacet
  facet normal -1 0 0
    outer loop
      vertex 0 44 0
      vertex 0 42.03 4
      vertex 0 44 4
    endloop
  endfacet
  facet normal -1 0 0
    outer loop
      vertex 0 42.03 2
      vertex 0 44 0
      vertex 0 25.97 2
    endloop
  endfacet
  facet normal 0 0 1
    outer loop
      vertex 0 25.97 4
      vertex 0 0 4
      vertex 42 0 4
    endloop
  endfacet
  facet normal 0 0 1
    outer loop
      vertex 37 25.97 4
      vertex 0 25.97 4
      vertex 42 0 4
    endloop
  endfacet
  facet normal 0 0 1
    outer loop
      vertex 0 44 4
      vertex 0 42.03 4
      vertex 42 44 4
    endloop
  endfacet
  facet normal 0 0 1
    outer loop
      vertex 0 42.03 4
      vertex 37 42.03 4
      vertex 42 44 4
    endloop
  endfacet
  facet normal 0 0 1
    outer loop
      vertex 42 44 4
      vertex 37 25.97 4
      vertex 42 0 4
    endloop
  endfacet
  facet normal 0 0 1
    outer loop
      vertex 37 42.03 4
      vertex 37 25.97 4
      vertex 42 44 4
    endloop
  endfacet
  facet normal 1 0 0
    outer loop
      vertex 42 0 4
      vertex 42 0 0
      vertex 42 44 0
    endloop
  endfacet
  facet normal 1 0 0
    outer loop
      vertex 42 44 4
      vertex 42 0 4
      vertex 42 44 0
    endloop
  endfacet
  facet normal 0 1 0
    outer loop
      vertex 0 44 0
      vertex 0 44 4
      vertex 42 44 0
    endloop
  endfacet
  facet normal 0 1 0
    outer loop
      vertex 42 44 0
      vertex 0 44 4
      vertex 42 44 4
    endloop
  endfacet
  facet normal 0 -1 0
    outer loop
      vertex 37 42.03 2
      vertex 37 42.03 4
      vertex 0 42.03 4
    endloop
  endfacet
  facet normal 0 -1 0
    outer loop
      vertex 0 42.03 2
      vertex 37 42.03 2
      vertex 0 42.03 4
    endloop
  endfacet
  facet normal 0 0 1
    outer loop
      vertex 37 25.97 2
      vertex 37 42.03 2
      vertex 0 42.03 2
    endloop
  endfacet
  facet normal 0 0 1
    outer loop
      vertex 0 25.97 2
      vertex 37 25.97 2
      vertex 0 42.03 2
    endloop
  endfacet
  facet normal 0 1 0
    outer loop
      vertex 37 25.97 4
      vertex 37 25.97 2
      vertex 0 25.97 4
    endloop
  endfacet
  facet normal 0 1 0
    outer loop
      vertex 0 25.97 4
      vertex 37 25.97 2
      vertex 0 25.97 2
    endloop
  endfacet
  facet normal -1 0 0
    outer loop
      vertex 37 42.03 4
      vertex 37 42.03 2
      vertex 37 25.97 4
    endloop
  endfacet
  facet normal -1 0 0
    outer loop
      vertex 37 25.97 4
      vertex 37 42.03 2
      vertex 37 25.97 2
    endloop
  endfacet
endsolid OpenSCAD_Model
