solid OpenSCAD_Model
  facet normal 0.587607 -0.809146 0
    outer loop
      vertex 2.654 11.705 0
      vertex 4.104 12.758 0
      vertex 4.104 12.758 1
    endloop
  endfacet
  facet normal 0.587607 -0.809146 0
    outer loop
      vertex 2.654 11.705 1
      vertex 2.654 11.705 0
      vertex 4.104 12.758 1
    endloop
  endfacet
  facet normal 0 0 -1
    outer loop
      vertex 16.486 8.117 0
      vertex 20 20 0
      vertex 20 0 0
    endloop
  endfacet
  facet normal 0 0 -1
    outer loop
      vertex 0 20 0
      vertex 2.1 10 0
      vertex 0 0 0
    endloop
  endfacet
  facet normal 0 0 -1
    outer loop
      vertex 10.521 15.78 0
      vertex 20 20 0
      vertex 12.424 15.623 0
    endloop
  endfacet
  facet normal 0 0 -1
    outer loop
      vertex 2.1 10 0
      vertex 2.654 8.295 0
      vertex 0 0 0
    endloop
  endfacet
  facet normal 0 0 -1
    outer loop
      vertex 2.654 8.295 0
      vertex 4.104 7.242 0
      vertex 0 0 0
    endloop
  endfacet
  facet normal 0 0 -1
    outer loop
      vertex 4.104 7.242 0
      vertex 5 7.242 0
      vertex 0 0 0
    endloop
  endfacet
  facet normal 0 0 -1
    outer loop
      vertex 5 7.242 0
      vertex 5 7.1 0
      vertex 0 0 0
    endloop
  endfacet
  facet normal 0 0 -1
    outer loop
      vertex 12.424 15.623 0
      vertex 20 20 0
      vertex 14.172 14.856 0
    endloop
  endfacet
  facet normal 0 0 -1
    outer loop
      vertex 5 7.1 0
      vertex 6.021 7.083 0
      vertex 0 0 0
    endloop
  endfacet
  facet normal 0 0 -1
    outer loop
      vertex 10.521 4.22 0
      vertex 20 0 0
      vertex 8.67 4.689 0
    endloop
  endfacet
  facet normal 0 0 -1
    outer loop
      vertex 0 0 0
      vertex 7.072 5.733 0
      vertex 8.67 4.689 0
    endloop
  endfacet
  facet normal 0 0 -1
    outer loop
      vertex 0 0 0
      vertex 8.67 4.689 0
      vertex 20 0 0
    endloop
  endfacet
  facet normal 0 0 -1
    outer loop
      vertex 14.172 14.856 0
      vertex 20 20 0
      vertex 15.577 13.562 0
    endloop
  endfacet
  facet normal 0 0 -1
    outer loop
      vertex 16.486 11.883 0
      vertex 20 20 0
      vertex 16.8 10 0
    endloop
  endfacet
  facet normal 0 0 -1
    outer loop
      vertex 10.521 4.22 0
      vertex 12.424 4.377 0
      vertex 20 0 0
    endloop
  endfacet
  facet normal 0 0 -1
    outer loop
      vertex 15.577 13.562 0
      vertex 20 20 0
      vertex 16.486 11.883 0
    endloop
  endfacet
  facet normal 0 0 -1
    outer loop
      vertex 12.424 4.377 0
      vertex 14.172 5.144 0
      vertex 20 0 0
    endloop
  endfacet
  facet normal 0 0 -1
    outer loop
      vertex 14.172 5.144 0
      vertex 15.577 6.438 0
      vertex 20 0 0
    endloop
  endfacet
  facet normal 0 0 -1
    outer loop
      vertex 16.8 10 0
      vertex 20 20 0
      vertex 16.486 8.117 0
    endloop
  endfacet
  facet normal 0 0 -1
    outer loop
      vertex 15.577 6.438 0
      vertex 16.486 8.117 0
      vertex 20 0 0
    endloop
  endfacet
  facet normal 0 0 -1
    outer loop
      vertex 0 20 0
      vertex 20 20 0
      vertex 10.521 15.78 0
    endloop
  endfacet
  facet normal 0 0 -1
    outer loop
      vertex 0 20 0
      vertex 10.521 15.78 0
      vertex 8.67 15.311 0
    endloop
  endfacet
  facet normal 0 0 -1
    outer loop
      vertex 0 20 0
      vertex 8.67 15.311 0
      vertex 7.072 14.267 0
    endloop
  endfacet
  facet normal 0 0 -1
    outer loop
      vertex 5 12.9 0
      vertex 7.072 14.267 0
      vertex 6.021 12.917 0
    endloop
  endfacet
  facet normal 0 0 -1
    outer loop
      vertex 0 20 0
      vertex 7.072 14.267 0
      vertex 5 12.9 0
    endloop
  endfacet
  facet normal 0 0 -1
    outer loop
      vertex 4.104 12.758 0
      vertex 5 12.9 0
      vertex 5 12.758 0
    endloop
  endfacet
  facet normal 0 0 -1
    outer loop
      vertex 0 20 0
      vertex 5 12.9 0
      vertex 4.104 12.758 0
    endloop
  endfacet
  facet normal 0 0 -1
    outer loop
      vertex 0 20 0
      vertex 4.104 12.758 0
      vertex 2.654 11.705 0
    endloop
  endfacet
  facet normal 0 0 -1
    outer loop
      vertex 0 20 0
      vertex 2.654 11.705 0
      vertex 2.1 10 0
    endloop
  endfacet
  facet normal 0 0 -1
    outer loop
      vertex 7.072 5.733 0
      vertex 0 0 0
      vertex 6.021 7.083 0
    endloop
  endfacet
  facet normal 0.951055 -0.309023 0
    outer loop
      vertex 2.1 10 0
      vertex 2.654 11.705 0
      vertex 2.654 11.705 1
    endloop
  endfacet
  facet normal 0.951055 -0.309023 0
    outer loop
      vertex 2.1 10 1
      vertex 2.1 10 0
      vertex 2.654 11.705 1
    endloop
  endfacet
  facet normal 0 0 1
    outer loop
      vertex 16.486 11.883 1
      vertex 20 0 1
      vertex 20 20 1
    endloop
  endfacet
  facet normal 0 0 1
    outer loop
      vertex 16.8 10 1
      vertex 16.486 8.117 1
      vertex 20 0 1
    endloop
  endfacet
  facet normal 0 0 1
    outer loop
      vertex 14.172 14.856 1
      vertex 15.577 13.562 1
      vertex 20 20 1
    endloop
  endfacet
  facet normal 0 0 1
    outer loop
      vertex 0 20 1
      vertex 0 0 1
      vertex 2.1 10 1
    endloop
  endfacet
  facet normal 0 0 1
    outer loop
      vertex 0 20 1
      vertex 2.1 10 1
      vertex 2.654 11.705 1
    endloop
  endfacet
  facet normal 0 0 1
    outer loop
      vertex 8.67 15.311 1
      vertex 10.521 15.78 1
      vertex 20 20 1
    endloop
  endfacet
  facet normal 0 0 1
    outer loop
      vertex 0 20 1
      vertex 2.654 11.705 1
      vertex 4.104 12.758 1
    endloop
  endfacet
  facet normal 0 0 1
    outer loop
      vertex 10.521 15.78 1
      vertex 12.424 15.623 1
      vertex 20 20 1
    endloop
  endfacet
  facet normal 0 0 1
    outer loop
      vertex 5 12.9 1
      vertex 7.072 14.267 1
      vertex 4.104 12.758 1
    endloop
  endfacet
  facet normal 0 0 1
    outer loop
      vertex 10.521 4.22 1
      vertex 8.67 4.689 1
      vertex 0 0 1
    endloop
  endfacet
  facet normal 0 0 1
    outer loop
      vertex 0 20 1
      vertex 4.104 12.758 1
      vertex 7.072 14.267 1
    endloop
  endfacet
  facet normal 0 0 1
    outer loop
      vertex 0 20 1
      vertex 8.67 15.311 1
      vertex 20 20 1
    endloop
  endfacet
  facet normal 0 0 1
    outer loop
      vertex 0 20 1
      vertex 7.072 14.267 1
      vertex 8.67 15.311 1
    endloop
  endfacet
  facet normal 0 0 1
    outer loop
      vertex 6.021 7.083 1
      vertex 5 7.1 1
      vertex 0 0 1
    endloop
  endfacet
  facet normal 0 0 1
    outer loop
      vertex 12.424 15.623 1
      vertex 14.172 14.856 1
      vertex 20 20 1
    endloop
  endfacet
  facet normal 0 0 1
    outer loop
      vertex 15.577 13.562 1
      vertex 16.486 11.883 1
      vertex 20 20 1
    endloop
  endfacet
  facet normal 0 0 1
    outer loop
      vertex 16.8 10 1
      vertex 20 0 1
      vertex 16.486 11.883 1
    endloop
  endfacet
  facet normal 0 0 1
    outer loop
      vertex 12.424 4.377 1
      vertex 10.521 4.22 1
      vertex 0 0 1
    endloop
  endfacet
  facet normal 0 0 1
    outer loop
      vertex 15.577 6.438 1
      vertex 20 0 1
      vertex 16.486 8.117 1
    endloop
  endfacet
  facet normal 0 0 1
    outer loop
      vertex 14.172 5.144 1
      vertex 20 0 1
      vertex 15.577 6.438 1
    endloop
  endfacet
  facet normal 0 0 1
    outer loop
      vertex 12.424 4.377 1
      vertex 20 0 1
      vertex 14.172 5.144 1
    endloop
  endfacet
  facet normal 0 0 1
    outer loop
      vertex 0 0 1
      vertex 20 0 1
      vertex 12.424 4.377 1
    endloop
  endfacet
  facet normal 0 0 1
    outer loop
      vertex 7.072 5.733 1
      vertex 6.021 7.083 1
      vertex 0 0 1
    endloop
  endfacet
  facet normal 0 0 1
    outer loop
      vertex 0 0 1
      vertex 8.67 4.689 1
      vertex 7.072 5.733 1
    endloop
  endfacet
  facet normal 0 0 1
    outer loop
      vertex 5 7.242 1
      vertex 4.104 7.242 1
      vertex 5 7.1 1
    endloop
  endfacet
  facet normal 0 0 1
    outer loop
      vertex 4.104 7.242 1
      vertex 0 0 1
      vertex 5 7.1 1
    endloop
  endfacet
  facet normal 0 0 1
    outer loop
      vertex 2.654 8.295 1
      vertex 0 0 1
      vertex 4.104 7.242 1
    endloop
  endfacet
  facet normal 0 0 1
    outer loop
      vertex 2.1 10 1
      vertex 0 0 1
      vertex 2.654 8.295 1
    endloop
  endfacet
  facet normal 0 0 1
    outer loop
      vertex 4.104 12.758 1
      vertex 5 12.758 1
      vertex 5 12.9 1
    endloop
  endfacet
  facet normal 0 0 1
    outer loop
      vertex 6.021 12.917 1
      vertex 7.072 14.267 1
      vertex 5 12.9 1
    endloop
  endfacet
  facet normal 0 -1 0
    outer loop
      vertex 4.104 12.758 0
      vertex 5 12.758 0
      vertex 5 12.758 1
    endloop
  endfacet
  facet normal 0 -1 0
    outer loop
      vertex 4.104 12.758 1
      vertex 4.104 12.758 0
      vertex 5 12.758 1
    endloop
  endfacet
  facet normal 0 -1 0
    outer loop
      vertex 0 0 0
      vertex 20 0 0
      vertex 20 0 1
    endloop
  endfacet
  facet normal 0 -1 0
    outer loop
      vertex 0 0 1
      vertex 0 0 0
      vertex 20 0 1
    endloop
  endfacet
  facet normal -1 0 0
    outer loop
      vertex 0 0 1
      vertex 0 20 1
      vertex 0 0 0
    endloop
  endfacet
  facet normal -1 0 0
    outer loop
      vertex 0 0 0
      vertex 0 20 1
      vertex 0 20 0
    endloop
  endfacet
  facet normal 1 0 0
    outer loop
      vertex 20 0 0
      vertex 20 20 0
      vertex 20 20 1
    endloop
  endfacet
  facet normal 1 0 0
    outer loop
      vertex 20 0 1
      vertex 20 0 0
      vertex 20 20 1
    endloop
  endfacet
  facet normal 0 1 0
    outer loop
      vertex 0 20 1
      vertex 20 20 1
      vertex 0 20 0
    endloop
  endfacet
  facet normal 0 1 0
    outer loop
      vertex 0 20 0
      vertex 20 20 1
      vertex 20 20 0
    endloop
  endfacet
  facet normal 0.951055 0.309023 0
    outer loop
      vertex 2.1 10 0
      vertex 2.1 10 1
      vertex 2.654 8.295 1
    endloop
  endfacet
  facet normal 0.951055 0.309023 0
    outer loop
      vertex 2.654 8.295 0
      vertex 2.1 10 0
      vertex 2.654 8.295 1
    endloop
  endfacet
  facet normal 1 0 0
    outer loop
      vertex 5 12.758 0
      vertex 5 12.9 0
      vertex 5 12.9 1
    endloop
  endfacet
  facet normal 1 0 0
    outer loop
      vertex 5 12.758 1
      vertex 5 12.758 0
      vertex 5 12.9 1
    endloop
  endfacet
  facet normal 0.016648 -0.999861 0
    outer loop
      vertex 5 12.9 0
      vertex 6.021 12.917 0
      vertex 6.021 12.917 1
    endloop
  endfacet
  facet normal 0.016648 -0.999861 0
    outer loop
      vertex 5 12.9 1
      vertex 5 12.9 0
      vertex 6.021 12.917 1
    endloop
  endfacet
  facet normal 0.789069 -0.614305 0
    outer loop
      vertex 6.021 12.917 0
      vertex 7.072 14.267 0
      vertex 7.072 14.267 1
    endloop
  endfacet
  facet normal 0.789069 -0.614305 0
    outer loop
      vertex 6.021 12.917 1
      vertex 6.021 12.917 0
      vertex 7.072 14.267 1
    endloop
  endfacet
  facet normal 0.546939 -0.837173 0
    outer loop
      vertex 7.072 14.267 0
      vertex 8.67 15.311 0
      vertex 8.67 15.311 1
    endloop
  endfacet
  facet normal 0.546939 -0.837173 0
    outer loop
      vertex 7.072 14.267 1
      vertex 7.072 14.267 0
      vertex 8.67 15.311 1
    endloop
  endfacet
  facet normal 0.245615 -0.969367 0
    outer loop
      vertex 8.67 15.311 0
      vertex 10.521 15.78 0
      vertex 10.521 15.78 1
    endloop
  endfacet
  facet normal 0.245615 -0.969367 0
    outer loop
      vertex 8.67 15.311 1
      vertex 8.67 15.311 0
      vertex 10.521 15.78 1
    endloop
  endfacet
  facet normal -0.082222 -0.996614 0
    outer loop
      vertex 10.521 15.78 0
      vertex 12.424 15.623 0
      vertex 12.424 15.623 1
    endloop
  endfacet
  facet normal -0.082222 -0.996614 0
    outer loop
      vertex 10.521 15.78 1
      vertex 10.521 15.78 0
      vertex 12.424 15.623 1
    endloop
  endfacet
  facet normal -0.401808 -0.915724 0
    outer loop
      vertex 12.424 15.623 0
      vertex 14.172 14.856 0
      vertex 14.172 14.856 1
    endloop
  endfacet
  facet normal -0.401808 -0.915724 0
    outer loop
      vertex 12.424 15.623 1
      vertex 12.424 15.623 0
      vertex 14.172 14.856 1
    endloop
  endfacet
  facet normal -0.677453 -0.735566 0
    outer loop
      vertex 14.172 14.856 0
      vertex 15.577 13.562 0
      vertex 15.577 13.562 1
    endloop
  endfacet
  facet normal -0.677453 -0.735566 0
    outer loop
      vertex 14.172 14.856 1
      vertex 14.172 14.856 0
      vertex 15.577 13.562 1
    endloop
  endfacet
  facet normal -0.879392 -0.476098 0
    outer loop
      vertex 16.486 11.883 0
      vertex 16.486 11.883 1
      vertex 15.577 13.562 0
    endloop
  endfacet
  facet normal -0.879392 -0.476098 0
    outer loop
      vertex 15.577 13.562 0
      vertex 16.486 11.883 1
      vertex 15.577 13.562 1
    endloop
  endfacet
  facet normal -0.98638 -0.164484 0
    outer loop
      vertex 16.8 10 0
      vertex 16.8 10 1
      vertex 16.486 11.883 0
    endloop
  endfacet
  facet normal -0.98638 -0.164484 0
    outer loop
      vertex 16.486 11.883 0
      vertex 16.8 10 1
      vertex 16.486 11.883 1
    endloop
  endfacet
  facet normal -0.98638 0.164484 0
    outer loop
      vertex 16.486 8.117 1
      vertex 16.8 10 1
      vertex 16.486 8.117 0
    endloop
  endfacet
  facet normal -0.98638 0.164484 0
    outer loop
      vertex 16.486 8.117 0
      vertex 16.8 10 1
      vertex 16.8 10 0
    endloop
  endfacet
  facet normal -0.879392 0.476098 0
    outer loop
      vertex 15.577 6.438 1
      vertex 16.486 8.117 1
      vertex 15.577 6.438 0
    endloop
  endfacet
  facet normal -0.879392 0.476098 0
    outer loop
      vertex 15.577 6.438 0
      vertex 16.486 8.117 1
      vertex 16.486 8.117 0
    endloop
  endfacet
  facet normal -0.677453 0.735566 0
    outer loop
      vertex 14.172 5.144 1
      vertex 15.577 6.438 1
      vertex 14.172 5.144 0
    endloop
  endfacet
  facet normal -0.677453 0.735566 0
    outer loop
      vertex 14.172 5.144 0
      vertex 15.577 6.438 1
      vertex 15.577 6.438 0
    endloop
  endfacet
  facet normal -0.401808 0.915724 0
    outer loop
      vertex 12.424 4.377 1
      vertex 14.172 5.144 1
      vertex 12.424 4.377 0
    endloop
  endfacet
  facet normal -0.401808 0.915724 0
    outer loop
      vertex 12.424 4.377 0
      vertex 14.172 5.144 1
      vertex 14.172 5.144 0
    endloop
  endfacet
  facet normal -0.082222 0.996614 0
    outer loop
      vertex 10.521 4.22 1
      vertex 12.424 4.377 1
      vertex 10.521 4.22 0
    endloop
  endfacet
  facet normal -0.082222 0.996614 0
    outer loop
      vertex 10.521 4.22 0
      vertex 12.424 4.377 1
      vertex 12.424 4.377 0
    endloop
  endfacet
  facet normal 0.245615 0.969367 0
    outer loop
      vertex 8.67 4.689 1
      vertex 10.521 4.22 1
      vertex 8.67 4.689 0
    endloop
  endfacet
  facet normal 0.245615 0.969367 0
    outer loop
      vertex 8.67 4.689 0
      vertex 10.521 4.22 1
      vertex 10.521 4.22 0
    endloop
  endfacet
  facet normal 0.546939 0.837173 0
    outer loop
      vertex 7.072 5.733 1
      vertex 8.67 4.689 1
      vertex 7.072 5.733 0
    endloop
  endfacet
  facet normal 0.546939 0.837173 0
    outer loop
      vertex 7.072 5.733 0
      vertex 8.67 4.689 1
      vertex 8.67 4.689 0
    endloop
  endfacet
  facet normal 0.789069 0.614305 0
    outer loop
      vertex 6.021 7.083 0
      vertex 6.021 7.083 1
      vertex 7.072 5.733 1
    endloop
  endfacet
  facet normal 0.789069 0.614305 0
    outer loop
      vertex 7.072 5.733 0
      vertex 6.021 7.083 0
      vertex 7.072 5.733 1
    endloop
  endfacet
  facet normal 0.016648 0.999861 0
    outer loop
      vertex 5 7.1 1
      vertex 6.021 7.083 1
      vertex 5 7.1 0
    endloop
  endfacet
  facet normal 0.016648 0.999861 0
    outer loop
      vertex 5 7.1 0
      vertex 6.021 7.083 1
      vertex 6.021 7.083 0
    endloop
  endfacet
  facet normal 1 0 0
    outer loop
      vertex 5 7.1 0
      vertex 5 7.242 0
      vertex 5 7.242 1
    endloop
  endfacet
  facet normal 1 0 0
    outer loop
      vertex 5 7.1 1
      vertex 5 7.1 0
      vertex 5 7.242 1
    endloop
  endfacet
  facet normal 0 1 0
    outer loop
      vertex 4.104 7.242 1
      vertex 5 7.242 1
      vertex 4.104 7.242 0
    endloop
  endfacet
  facet normal 0 1 0
    outer loop
      vertex 4.104 7.242 0
      vertex 5 7.242 1
      vertex 5 7.242 0
    endloop
  endfacet
  facet normal 0.587607 0.809146 0
    outer loop
      vertex 2.654 8.295 1
      vertex 4.104 7.242 1
      vertex 2.654 8.295 0
    endloop
  endfacet
  facet normal 0.587607 0.809146 0
    outer loop
      vertex 2.654 8.295 0
      vertex 4.104 7.242 1
      vertex 4.104 7.242 0
    endloop
  endfacet
endsolid OpenSCAD_Model
