solid OpenSCAD_Model
  facet normal 0 -1 0
    outer loop
      vertex 0 0 0
      vertex 40 0 0
      vertex 40 0 6.5
    endloop
  endfacet
  facet normal 0 -1 0
    outer loop
      vertex 0 0 6.5
      vertex 0 0 0
      vertex 40 0 6.5
    endloop
  endfacet
  facet normal 0 0 -1
    outer loop
      vertex 28.739 30.08 0
      vertex 40 44 0
      vertex 40 0 0
    endloop
  endfacet
  facet normal 0 0 -1
    outer loop
      vertex 24.386 40.138 0
      vertex 0 44 0
      vertex 24.771 40.102 0
    endloop
  endfacet
  facet normal 0 0 -1
    outer loop
      vertex 0 44 0
      vertex 14.7 34 0
      vertex 0 0 0
    endloop
  endfacet
  facet normal 0 0 -1
    outer loop
      vertex 14.7 34 0
      vertex 14.707 33.793 0
      vertex 0 0 0
    endloop
  endfacet
  facet normal 0 0 -1
    outer loop
      vertex 27.295 39.193 0
      vertex 40 44 0
      vertex 27.615 38.975 0
    endloop
  endfacet
  facet normal 0 0 -1
    outer loop
      vertex 14.707 33.793 0
      vertex 14.726 33.586 0
      vertex 0 0 0
    endloop
  endfacet
  facet normal 0 0 -1
    outer loop
      vertex 14.726 33.586 0
      vertex 14.758 33.382 0
      vertex 0 0 0
    endloop
  endfacet
  facet normal 0 0 -1
    outer loop
      vertex 14.758 33.382 0
      vertex 14.804 33.179 0
      vertex 0 0 0
    endloop
  endfacet
  facet normal 0 0 -1
    outer loop
      vertex 27.615 38.975 0
      vertex 40 44 0
      vertex 27.92 38.739 0
    endloop
  endfacet
  facet normal 0 0 -1
    outer loop
      vertex 14.804 33.179 0
      vertex 14.862 32.98 0
      vertex 0 0 0
    endloop
  endfacet
  facet normal 0 0 -1
    outer loop
      vertex 14.862 32.98 0
      vertex 14.932 32.785 0
      vertex 0 0 0
    endloop
  endfacet
  facet normal 0 0 -1
    outer loop
      vertex 14.932 32.785 0
      vertex 15.014 32.595 0
      vertex 0 0 0
    endloop
  endfacet
  facet normal 0 0 -1
    outer loop
      vertex 15.014 32.595 0
      vertex 15.108 32.41 0
      vertex 0 0 0
    endloop
  endfacet
  facet normal 0 0 -1
    outer loop
      vertex 27.92 38.739 0
      vertex 40 44 0
      vertex 28.21 38.483 0
    endloop
  endfacet
  facet normal 0 0 -1
    outer loop
      vertex 15.108 32.41 0
      vertex 15.214 32.232 0
      vertex 0 0 0
    endloop
  endfacet
  facet normal 0 0 -1
    outer loop
      vertex 15.214 32.232 0
      vertex 15.33 32.06 0
      vertex 0 0 0
    endloop
  endfacet
  facet normal 0 0 -1
    outer loop
      vertex 15.33 32.06 0
      vertex 15.457 31.897 0
      vertex 0 0 0
    endloop
  endfacet
  facet normal 0 0 -1
    outer loop
      vertex 15.457 31.897 0
      vertex 15.594 31.741 0
      vertex 0 0 0
    endloop
  endfacet
  facet normal 0 0 -1
    outer loop
      vertex 28.21 38.483 0
      vertex 40 44 0
      vertex 28.483 38.21 0
    endloop
  endfacet
  facet normal 0 0 -1
    outer loop
      vertex 15.594 31.741 0
      vertex 15.741 31.594 0
      vertex 0 0 0
    endloop
  endfacet
  facet normal 0 0 -1
    outer loop
      vertex 15.741 31.594 0
      vertex 15.897 31.457 0
      vertex 0 0 0
    endloop
  endfacet
  facet normal 0 0 -1
    outer loop
      vertex 15.897 31.457 0
      vertex 16.06 31.33 0
      vertex 0 0 0
    endloop
  endfacet
  facet normal 0 0 -1
    outer loop
      vertex 16.06 31.33 0
      vertex 16.232 31.214 0
      vertex 0 0 0
    endloop
  endfacet
  facet normal 0 0 -1
    outer loop
      vertex 28.483 38.21 0
      vertex 40 44 0
      vertex 28.739 37.92 0
    endloop
  endfacet
  facet normal 0 0 -1
    outer loop
      vertex 16.232 31.214 0
      vertex 16.41 31.108 0
      vertex 0 0 0
    endloop
  endfacet
  facet normal 0 0 -1
    outer loop
      vertex 16.41 31.108 0
      vertex 16.595 31.014 0
      vertex 0 0 0
    endloop
  endfacet
  facet normal 0 0 -1
    outer loop
      vertex 16.595 31.014 0
      vertex 16.785 30.932 0
      vertex 0 0 0
    endloop
  endfacet
  facet normal 0 0 -1
    outer loop
      vertex 16.785 30.932 0
      vertex 16.98 30.862 0
      vertex 0 0 0
    endloop
  endfacet
  facet normal 0 0 -1
    outer loop
      vertex 16.98 30.862 0
      vertex 17.179 30.804 0
      vertex 0 0 0
    endloop
  endfacet
  facet normal 0 0 -1
    outer loop
      vertex 28.739 37.92 0
      vertex 40 44 0
      vertex 28.975 37.615 0
    endloop
  endfacet
  facet normal 0 0 -1
    outer loop
      vertex 17.179 30.804 0
      vertex 17.382 30.758 0
      vertex 0 0 0
    endloop
  endfacet
  facet normal 0 0 -1
    outer loop
      vertex 17.382 30.758 0
      vertex 17.586 30.726 0
      vertex 0 0 0
    endloop
  endfacet
  facet normal 0 0 -1
    outer loop
      vertex 17.586 30.726 0
      vertex 17.793 30.707 0
      vertex 0 0 0
    endloop
  endfacet
  facet normal 0 0 -1
    outer loop
      vertex 17.793 30.707 0
      vertex 18 30.7 0
      vertex 0 0 0
    endloop
  endfacet
  facet normal 0 0 -1
    outer loop
      vertex 28.975 37.615 0
      vertex 40 44 0
      vertex 29.193 37.295 0
    endloop
  endfacet
  facet normal 0 0 -1
    outer loop
      vertex 18 30.7 0
      vertex 18.82 30.686 0
      vertex 0 0 0
    endloop
  endfacet
  facet normal 0 0 -1
    outer loop
      vertex 18.82 30.686 0
      vertex 19.025 30.385 0
      vertex 0 0 0
    endloop
  endfacet
  facet normal 0 0 -1
    outer loop
      vertex 29.193 37.295 0
      vertex 40 44 0
      vertex 29.389 36.963 0
    endloop
  endfacet
  facet normal 0 0 -1
    outer loop
      vertex 19.025 30.385 0
      vertex 19.261 30.08 0
      vertex 0 0 0
    endloop
  endfacet
  facet normal 0 0 -1
    outer loop
      vertex 19.261 30.08 0
      vertex 19.517 29.79 0
      vertex 0 0 0
    endloop
  endfacet
  facet normal 0 0 -1
    outer loop
      vertex 29.389 36.963 0
      vertex 40 44 0
      vertex 29.565 36.619 0
    endloop
  endfacet
  facet normal 0 0 -1
    outer loop
      vertex 19.517 29.79 0
      vertex 19.79 29.517 0
      vertex 0 0 0
    endloop
  endfacet
  facet normal 0 0 -1
    outer loop
      vertex 19.79 29.517 0
      vertex 20.08 29.261 0
      vertex 0 0 0
    endloop
  endfacet
  facet normal 0 0 -1
    outer loop
      vertex 29.565 36.619 0
      vertex 40 44 0
      vertex 29.718 36.264 0
    endloop
  endfacet
  facet normal 0 0 -1
    outer loop
      vertex 20.08 29.261 0
      vertex 20.385 29.025 0
      vertex 0 0 0
    endloop
  endfacet
  facet normal 0 0 -1
    outer loop
      vertex 20.385 29.025 0
      vertex 20.705 28.807 0
      vertex 0 0 0
    endloop
  endfacet
  facet normal 0 0 -1
    outer loop
      vertex 29.718 36.264 0
      vertex 40 44 0
      vertex 29.849 35.9 0
    endloop
  endfacet
  facet normal 0 0 -1
    outer loop
      vertex 20.705 28.807 0
      vertex 21.037 28.611 0
      vertex 0 0 0
    endloop
  endfacet
  facet normal 0 0 -1
    outer loop
      vertex 21.037 28.611 0
      vertex 21.381 28.435 0
      vertex 0 0 0
    endloop
  endfacet
  facet normal 0 0 -1
    outer loop
      vertex 29.849 35.9 0
      vertex 40 44 0
      vertex 29.957 35.529 0
    endloop
  endfacet
  facet normal 0 0 -1
    outer loop
      vertex 21.381 28.435 0
      vertex 21.736 28.282 0
      vertex 0 0 0
    endloop
  endfacet
  facet normal 0 0 -1
    outer loop
      vertex 21.736 28.282 0
      vertex 22.1 28.151 0
      vertex 0 0 0
    endloop
  endfacet
  facet normal 0 0 -1
    outer loop
      vertex 29.957 35.529 0
      vertex 40 44 0
      vertex 30.041 35.152 0
    endloop
  endfacet
  facet normal 0 0 -1
    outer loop
      vertex 22.1 28.151 0
      vertex 22.471 28.043 0
      vertex 0 0 0
    endloop
  endfacet
  facet normal 0 0 -1
    outer loop
      vertex 30.041 35.152 0
      vertex 40 44 0
      vertex 30.102 34.771 0
    endloop
  endfacet
  facet normal 0 0 -1
    outer loop
      vertex 22.471 28.043 0
      vertex 22.848 27.959 0
      vertex 0 0 0
    endloop
  endfacet
  facet normal 0 0 -1
    outer loop
      vertex 22.848 27.959 0
      vertex 23.229 27.898 0
      vertex 0 0 0
    endloop
  endfacet
  facet normal 0 0 -1
    outer loop
      vertex 30.102 34.771 0
      vertex 40 44 0
      vertex 30.138 34.386 0
    endloop
  endfacet
  facet normal 0 0 -1
    outer loop
      vertex 23.229 27.898 0
      vertex 23.614 27.862 0
      vertex 0 0 0
    endloop
  endfacet
  facet normal 0 0 -1
    outer loop
      vertex 23.614 27.862 0
      vertex 24 27.85 0
      vertex 0 0 0
    endloop
  endfacet
  facet normal 0 0 -1
    outer loop
      vertex 30.138 34.386 0
      vertex 40 44 0
      vertex 30.15 34 0
    endloop
  endfacet
  facet normal 0 0 -1
    outer loop
      vertex 24 27.85 0
      vertex 24.386 27.862 0
      vertex 0 0 0
    endloop
  endfacet
  facet normal 0 0 -1
    outer loop
      vertex 30.15 34 0
      vertex 40 44 0
      vertex 30.138 33.614 0
    endloop
  endfacet
  facet normal 0 0 -1
    outer loop
      vertex 24.386 27.862 0
      vertex 24.771 27.898 0
      vertex 0 0 0
    endloop
  endfacet
  facet normal 0 0 -1
    outer loop
      vertex 24.771 27.898 0
      vertex 25.152 27.959 0
      vertex 0 0 0
    endloop
  endfacet
  facet normal 0 0 -1
    outer loop
      vertex 29.193 30.705 0
      vertex 40 44 0
      vertex 28.975 30.385 0
    endloop
  endfacet
  facet normal 0 0 -1
    outer loop
      vertex 0 0 0
      vertex 25.529 28.043 0
      vertex 40 0 0
    endloop
  endfacet
  facet normal 0 0 -1
    outer loop
      vertex 30.102 33.229 0
      vertex 40 44 0
      vertex 30.041 32.848 0
    endloop
  endfacet
  facet normal 0 0 -1
    outer loop
      vertex 25.529 28.043 0
      vertex 25.9 28.151 0
      vertex 40 0 0
    endloop
  endfacet
  facet normal 0 0 -1
    outer loop
      vertex 25.9 28.151 0
      vertex 26.264 28.282 0
      vertex 40 0 0
    endloop
  endfacet
  facet normal 0 0 -1
    outer loop
      vertex 30.041 32.848 0
      vertex 40 44 0
      vertex 29.957 32.471 0
    endloop
  endfacet
  facet normal 0 0 -1
    outer loop
      vertex 26.264 28.282 0
      vertex 26.619 28.435 0
      vertex 40 0 0
    endloop
  endfacet
  facet normal 0 0 -1
    outer loop
      vertex 29.957 32.471 0
      vertex 40 44 0
      vertex 29.849 32.1 0
    endloop
  endfacet
  facet normal 0 0 -1
    outer loop
      vertex 26.619 28.435 0
      vertex 26.963 28.611 0
      vertex 40 0 0
    endloop
  endfacet
  facet normal 0 0 -1
    outer loop
      vertex 29.849 32.1 0
      vertex 40 44 0
      vertex 29.718 31.736 0
    endloop
  endfacet
  facet normal 0 0 -1
    outer loop
      vertex 26.963 28.611 0
      vertex 27.295 28.807 0
      vertex 40 0 0
    endloop
  endfacet
  facet normal 0 0 -1
    outer loop
      vertex 27.295 28.807 0
      vertex 27.615 29.025 0
      vertex 40 0 0
    endloop
  endfacet
  facet normal 0 0 -1
    outer loop
      vertex 29.718 31.736 0
      vertex 40 44 0
      vertex 29.565 31.381 0
    endloop
  endfacet
  facet normal 0 0 -1
    outer loop
      vertex 27.615 29.025 0
      vertex 27.92 29.261 0
      vertex 40 0 0
    endloop
  endfacet
  facet normal 0 0 -1
    outer loop
      vertex 29.565 31.381 0
      vertex 40 44 0
      vertex 29.389 31.037 0
    endloop
  endfacet
  facet normal 0 0 -1
    outer loop
      vertex 27.92 29.261 0
      vertex 28.21 29.517 0
      vertex 40 0 0
    endloop
  endfacet
  facet normal 0 0 -1
    outer loop
      vertex 29.389 31.037 0
      vertex 40 44 0
      vertex 29.193 30.705 0
    endloop
  endfacet
  facet normal 0 0 -1
    outer loop
      vertex 28.21 29.517 0
      vertex 28.483 29.79 0
      vertex 40 0 0
    endloop
  endfacet
  facet normal 0 0 -1
    outer loop
      vertex 28.975 30.385 0
      vertex 40 44 0
      vertex 28.739 30.08 0
    endloop
  endfacet
  facet normal 0 0 -1
    outer loop
      vertex 28.483 29.79 0
      vertex 28.739 30.08 0
      vertex 40 0 0
    endloop
  endfacet
  facet normal 0 0 -1
    outer loop
      vertex 18 37.3 0
      vertex 19.025 37.615 0
      vertex 18.82 37.314 0
    endloop
  endfacet
  facet normal 0 0 -1
    outer loop
      vertex 18 37.3 0
      vertex 19.261 37.92 0
      vertex 19.025 37.615 0
    endloop
  endfacet
  facet normal 0 0 -1
    outer loop
      vertex 26.963 39.389 0
      vertex 40 44 0
      vertex 27.295 39.193 0
    endloop
  endfacet
  facet normal 0 0 -1
    outer loop
      vertex 26.619 39.565 0
      vertex 40 44 0
      vertex 26.963 39.389 0
    endloop
  endfacet
  facet normal 0 0 -1
    outer loop
      vertex 26.264 39.718 0
      vertex 40 44 0
      vertex 26.619 39.565 0
    endloop
  endfacet
  facet normal 0 0 -1
    outer loop
      vertex 25.9 39.849 0
      vertex 40 44 0
      vertex 26.264 39.718 0
    endloop
  endfacet
  facet normal 0 0 -1
    outer loop
      vertex 25.529 39.957 0
      vertex 40 44 0
      vertex 25.9 39.849 0
    endloop
  endfacet
  facet normal 0 0 -1
    outer loop
      vertex 25.152 40.041 0
      vertex 40 44 0
      vertex 25.529 39.957 0
    endloop
  endfacet
  facet normal 0 0 -1
    outer loop
      vertex 24.771 40.102 0
      vertex 40 44 0
      vertex 25.152 40.041 0
    endloop
  endfacet
  facet normal 0 0 -1
    outer loop
      vertex 0 44 0
      vertex 40 44 0
      vertex 24.771 40.102 0
    endloop
  endfacet
  facet normal 0 0 -1
    outer loop
      vertex 24 40.15 0
      vertex 0 44 0
      vertex 24.386 40.138 0
    endloop
  endfacet
  facet normal 0 0 -1
    outer loop
      vertex 23.614 40.138 0
      vertex 0 44 0
      vertex 24 40.15 0
    endloop
  endfacet
  facet normal 0 0 -1
    outer loop
      vertex 23.229 40.102 0
      vertex 0 44 0
      vertex 23.614 40.138 0
    endloop
  endfacet
  facet normal 0 0 -1
    outer loop
      vertex 22.848 40.041 0
      vertex 0 44 0
      vertex 23.229 40.102 0
    endloop
  endfacet
  facet normal 0 0 -1
    outer loop
      vertex 22.471 39.957 0
      vertex 0 44 0
      vertex 22.848 40.041 0
    endloop
  endfacet
  facet normal 0 0 -1
    outer loop
      vertex 0 44 0
      vertex 22.471 39.957 0
      vertex 22.1 39.849 0
    endloop
  endfacet
  facet normal 0 0 -1
    outer loop
      vertex 0 44 0
      vertex 22.1 39.849 0
      vertex 21.736 39.718 0
    endloop
  endfacet
  facet normal 0 0 -1
    outer loop
      vertex 18 37.3 0
      vertex 19.79 38.483 0
      vertex 19.517 38.21 0
    endloop
  endfacet
  facet normal 0 0 -1
    outer loop
      vertex 0 44 0
      vertex 21.736 39.718 0
      vertex 21.381 39.565 0
    endloop
  endfacet
  facet normal 0 0 -1
    outer loop
      vertex 18 37.3 0
      vertex 19.517 38.21 0
      vertex 19.261 37.92 0
    endloop
  endfacet
  facet normal 0 0 -1
    outer loop
      vertex 0 44 0
      vertex 21.381 39.565 0
      vertex 21.037 39.389 0
    endloop
  endfacet
  facet normal 0 0 -1
    outer loop
      vertex 0 44 0
      vertex 21.037 39.389 0
      vertex 20.705 39.193 0
    endloop
  endfacet
  facet normal 0 0 -1
    outer loop
      vertex 0 44 0
      vertex 20.705 39.193 0
      vertex 20.385 38.975 0
    endloop
  endfacet
  facet normal 0 0 -1
    outer loop
      vertex 0 44 0
      vertex 20.385 38.975 0
      vertex 20.08 38.739 0
    endloop
  endfacet
  facet normal 0 0 -1
    outer loop
      vertex 18 37.3 0
      vertex 20.08 38.739 0
      vertex 19.79 38.483 0
    endloop
  endfacet
  facet normal 0 0 -1
    outer loop
      vertex 0 44 0
      vertex 20.08 38.739 0
      vertex 18 37.3 0
    endloop
  endfacet
  facet normal 0 0 -1
    outer loop
      vertex 0 44 0
      vertex 18 37.3 0
      vertex 17.793 37.293 0
    endloop
  endfacet
  facet normal 0 0 -1
    outer loop
      vertex 0 44 0
      vertex 17.793 37.293 0
      vertex 17.586 37.274 0
    endloop
  endfacet
  facet normal 0 0 -1
    outer loop
      vertex 0 44 0
      vertex 17.586 37.274 0
      vertex 17.382 37.242 0
    endloop
  endfacet
  facet normal 0 0 -1
    outer loop
      vertex 0 44 0
      vertex 17.382 37.242 0
      vertex 17.179 37.196 0
    endloop
  endfacet
  facet normal 0 0 -1
    outer loop
      vertex 0 44 0
      vertex 17.179 37.196 0
      vertex 16.98 37.138 0
    endloop
  endfacet
  facet normal 0 0 -1
    outer loop
      vertex 0 44 0
      vertex 16.98 37.138 0
      vertex 16.785 37.068 0
    endloop
  endfacet
  facet normal 0 0 -1
    outer loop
      vertex 0 44 0
      vertex 16.785 37.068 0
      vertex 16.595 36.986 0
    endloop
  endfacet
  facet normal 0 0 -1
    outer loop
      vertex 0 44 0
      vertex 16.595 36.986 0
      vertex 16.41 36.892 0
    endloop
  endfacet
  facet normal 0 0 -1
    outer loop
      vertex 0 44 0
      vertex 16.41 36.892 0
      vertex 16.232 36.786 0
    endloop
  endfacet
  facet normal 0 0 -1
    outer loop
      vertex 0 44 0
      vertex 16.232 36.786 0
      vertex 16.06 36.67 0
    endloop
  endfacet
  facet normal 0 0 -1
    outer loop
      vertex 0 44 0
      vertex 16.06 36.67 0
      vertex 15.897 36.543 0
    endloop
  endfacet
  facet normal 0 0 -1
    outer loop
      vertex 0 44 0
      vertex 15.897 36.543 0
      vertex 15.741 36.406 0
    endloop
  endfacet
  facet normal 0 0 -1
    outer loop
      vertex 0 44 0
      vertex 15.741 36.406 0
      vertex 15.594 36.259 0
    endloop
  endfacet
  facet normal 0 0 -1
    outer loop
      vertex 0 44 0
      vertex 15.594 36.259 0
      vertex 15.457 36.103 0
    endloop
  endfacet
  facet normal 0 0 -1
    outer loop
      vertex 0 44 0
      vertex 15.457 36.103 0
      vertex 15.33 35.94 0
    endloop
  endfacet
  facet normal 0 0 -1
    outer loop
      vertex 0 44 0
      vertex 15.33 35.94 0
      vertex 15.214 35.768 0
    endloop
  endfacet
  facet normal 0 0 -1
    outer loop
      vertex 0 44 0
      vertex 15.214 35.768 0
      vertex 15.108 35.59 0
    endloop
  endfacet
  facet normal 0 0 -1
    outer loop
      vertex 0 44 0
      vertex 15.108 35.59 0
      vertex 15.014 35.405 0
    endloop
  endfacet
  facet normal 0 0 -1
    outer loop
      vertex 0 44 0
      vertex 15.014 35.405 0
      vertex 14.932 35.215 0
    endloop
  endfacet
  facet normal 0 0 -1
    outer loop
      vertex 0 44 0
      vertex 14.932 35.215 0
      vertex 14.862 35.02 0
    endloop
  endfacet
  facet normal 0 0 -1
    outer loop
      vertex 0 44 0
      vertex 14.862 35.02 0
      vertex 14.804 34.821 0
    endloop
  endfacet
  facet normal 0 0 -1
    outer loop
      vertex 0 44 0
      vertex 14.804 34.821 0
      vertex 14.758 34.618 0
    endloop
  endfacet
  facet normal 0 0 -1
    outer loop
      vertex 0 44 0
      vertex 14.758 34.618 0
      vertex 14.726 34.414 0
    endloop
  endfacet
  facet normal 0 0 -1
    outer loop
      vertex 0 44 0
      vertex 14.726 34.414 0
      vertex 14.707 34.207 0
    endloop
  endfacet
  facet normal 0 0 -1
    outer loop
      vertex 0 44 0
      vertex 14.707 34.207 0
      vertex 14.7 34 0
    endloop
  endfacet
  facet normal 0 0 -1
    outer loop
      vertex 25.529 28.043 0
      vertex 0 0 0
      vertex 25.152 27.959 0
    endloop
  endfacet
  facet normal 0 0 -1
    outer loop
      vertex 30.138 33.614 0
      vertex 40 44 0
      vertex 30.102 33.229 0
    endloop
  endfacet
  facet normal -1 0 0
    outer loop
      vertex 0 0 6.5
      vertex 0 44 6.5
      vertex 0 0 0
    endloop
  endfacet
  facet normal -1 0 0
    outer loop
      vertex 0 0 0
      vertex 0 44 6.5
      vertex 0 44 0
    endloop
  endfacet
  facet normal 0 0 1
    outer loop
      vertex 30.041 32.848 6.5
      vertex 40 0 6.5
      vertex 40 44 6.5
    endloop
  endfacet
  facet normal 0 0 1
    outer loop
      vertex 26.963 28.611 6.5
      vertex 26.619 28.435 6.5
      vertex 0 0 6.5
    endloop
  endfacet
  facet normal 0 0 1
    outer loop
      vertex 0 44 6.5
      vertex 0 0 6.5
      vertex 14.7 34 6.5
    endloop
  endfacet
  facet normal 0 0 1
    outer loop
      vertex 30.102 33.229 6.5
      vertex 30.041 32.848 6.5
      vertex 40 44 6.5
    endloop
  endfacet
  facet normal 0 0 1
    outer loop
      vertex 0 44 6.5
      vertex 14.7 34 6.5
      vertex 14.707 34.207 6.5
    endloop
  endfacet
  facet normal 0 0 1
    outer loop
      vertex 19.261 30.08 6.5
      vertex 18 30.7 6.5
      vertex 19.517 29.79 6.5
    endloop
  endfacet
  facet normal 0 0 1
    outer loop
      vertex 0 44 6.5
      vertex 14.707 34.207 6.5
      vertex 14.726 34.414 6.5
    endloop
  endfacet
  facet normal 0 0 1
    outer loop
      vertex 0 44 6.5
      vertex 14.726 34.414 6.5
      vertex 14.758 34.618 6.5
    endloop
  endfacet
  facet normal 0 0 1
    outer loop
      vertex 0 44 6.5
      vertex 14.758 34.618 6.5
      vertex 14.804 34.821 6.5
    endloop
  endfacet
  facet normal 0 0 1
    outer loop
      vertex 27.295 39.193 6.5
      vertex 27.615 38.975 6.5
      vertex 40 44 6.5
    endloop
  endfacet
  facet normal 0 0 1
    outer loop
      vertex 0 44 6.5
      vertex 14.804 34.821 6.5
      vertex 14.862 35.02 6.5
    endloop
  endfacet
  facet normal 0 0 1
    outer loop
      vertex 0 44 6.5
      vertex 14.862 35.02 6.5
      vertex 14.932 35.215 6.5
    endloop
  endfacet
  facet normal 0 0 1
    outer loop
      vertex 0 44 6.5
      vertex 14.932 35.215 6.5
      vertex 15.014 35.405 6.5
    endloop
  endfacet
  facet normal 0 0 1
    outer loop
      vertex 26.963 39.389 6.5
      vertex 27.295 39.193 6.5
      vertex 40 44 6.5
    endloop
  endfacet
  facet normal 0 0 1
    outer loop
      vertex 0 44 6.5
      vertex 15.014 35.405 6.5
      vertex 15.108 35.59 6.5
    endloop
  endfacet
  facet normal 0 0 1
    outer loop
      vertex 19.025 30.385 6.5
      vertex 18 30.7 6.5
      vertex 19.261 30.08 6.5
    endloop
  endfacet
  facet normal 0 0 1
    outer loop
      vertex 0 44 6.5
      vertex 15.108 35.59 6.5
      vertex 15.214 35.768 6.5
    endloop
  endfacet
  facet normal 0 0 1
    outer loop
      vertex 0 44 6.5
      vertex 15.214 35.768 6.5
      vertex 15.33 35.94 6.5
    endloop
  endfacet
  facet normal 0 0 1
    outer loop
      vertex 0 44 6.5
      vertex 15.33 35.94 6.5
      vertex 15.457 36.103 6.5
    endloop
  endfacet
  facet normal 0 0 1
    outer loop
      vertex 0 44 6.5
      vertex 15.457 36.103 6.5
      vertex 15.594 36.259 6.5
    endloop
  endfacet
  facet normal 0 0 1
    outer loop
      vertex 0 44 6.5
      vertex 15.594 36.259 6.5
      vertex 15.741 36.406 6.5
    endloop
  endfacet
  facet normal 0 0 1
    outer loop
      vertex 19.025 37.615 6.5
      vertex 17.179 37.196 6.5
      vertex 17.382 37.242 6.5
    endloop
  endfacet
  facet normal 0 0 1
    outer loop
      vertex 0 44 6.5
      vertex 15.741 36.406 6.5
      vertex 15.897 36.543 6.5
    endloop
  endfacet
  facet normal 0 0 1
    outer loop
      vertex 17.179 37.196 6.5
      vertex 19.261 37.92 6.5
      vertex 16.98 37.138 6.5
    endloop
  endfacet
  facet normal 0 0 1
    outer loop
      vertex 0 44 6.5
      vertex 15.897 36.543 6.5
      vertex 16.06 36.67 6.5
    endloop
  endfacet
  facet normal 0 0 1
    outer loop
      vertex 0 44 6.5
      vertex 16.06 36.67 6.5
      vertex 16.232 36.786 6.5
    endloop
  endfacet
  facet normal 0 0 1
    outer loop
      vertex 0 44 6.5
      vertex 16.232 36.786 6.5
      vertex 16.41 36.892 6.5
    endloop
  endfacet
  facet normal 0 0 1
    outer loop
      vertex 18.82 30.686 6.5
      vertex 18 30.7 6.5
      vertex 19.025 30.385 6.5
    endloop
  endfacet
  facet normal 0 0 1
    outer loop
      vertex 0 44 6.5
      vertex 16.41 36.892 6.5
      vertex 16.595 36.986 6.5
    endloop
  endfacet
  facet normal 0 0 1
    outer loop
      vertex 26.264 39.718 6.5
      vertex 26.619 39.565 6.5
      vertex 40 44 6.5
    endloop
  endfacet
  facet normal 0 0 1
    outer loop
      vertex 0 44 6.5
      vertex 16.595 36.986 6.5
      vertex 16.785 37.068 6.5
    endloop
  endfacet
  facet normal 0 0 1
    outer loop
      vertex 22.848 40.041 6.5
      vertex 23.229 40.102 6.5
      vertex 40 44 6.5
    endloop
  endfacet
  facet normal 0 0 1
    outer loop
      vertex 0 44 6.5
      vertex 16.785 37.068 6.5
      vertex 16.98 37.138 6.5
    endloop
  endfacet
  facet normal 0 0 1
    outer loop
      vertex 24.771 40.102 6.5
      vertex 25.152 40.041 6.5
      vertex 40 44 6.5
    endloop
  endfacet
  facet normal 0 0 1
    outer loop
      vertex 25.9 39.849 6.5
      vertex 26.264 39.718 6.5
      vertex 40 44 6.5
    endloop
  endfacet
  facet normal 0 0 1
    outer loop
      vertex 0 44 6.5
      vertex 16.98 37.138 6.5
      vertex 19.261 37.92 6.5
    endloop
  endfacet
  facet normal 0 0 1
    outer loop
      vertex 0 44 6.5
      vertex 19.261 37.92 6.5
      vertex 19.517 38.21 6.5
    endloop
  endfacet
  facet normal 0 0 1
    outer loop
      vertex 0 44 6.5
      vertex 19.517 38.21 6.5
      vertex 19.79 38.483 6.5
    endloop
  endfacet
  facet normal 0 0 1
    outer loop
      vertex 25.152 40.041 6.5
      vertex 25.529 39.957 6.5
      vertex 40 44 6.5
    endloop
  endfacet
  facet normal 0 0 1
    outer loop
      vertex 0 44 6.5
      vertex 19.79 38.483 6.5
      vertex 20.08 38.739 6.5
    endloop
  endfacet
  facet normal 0 0 1
    outer loop
      vertex 25.529 39.957 6.5
      vertex 25.9 39.849 6.5
      vertex 40 44 6.5
    endloop
  endfacet
  facet normal 0 0 1
    outer loop
      vertex 0 44 6.5
      vertex 20.08 38.739 6.5
      vertex 20.385 38.975 6.5
    endloop
  endfacet
  facet normal 0 0 1
    outer loop
      vertex 0 44 6.5
      vertex 20.385 38.975 6.5
      vertex 20.705 39.193 6.5
    endloop
  endfacet
  facet normal 0 0 1
    outer loop
      vertex 24.386 40.138 6.5
      vertex 24.771 40.102 6.5
      vertex 40 44 6.5
    endloop
  endfacet
  facet normal 0 0 1
    outer loop
      vertex 0 44 6.5
      vertex 20.705 39.193 6.5
      vertex 21.037 39.389 6.5
    endloop
  endfacet
  facet normal 0 0 1
    outer loop
      vertex 24 40.15 6.5
      vertex 24.386 40.138 6.5
      vertex 40 44 6.5
    endloop
  endfacet
  facet normal 0 0 1
    outer loop
      vertex 0 44 6.5
      vertex 21.037 39.389 6.5
      vertex 21.381 39.565 6.5
    endloop
  endfacet
  facet normal 0 0 1
    outer loop
      vertex 23.614 40.138 6.5
      vertex 24 40.15 6.5
      vertex 40 44 6.5
    endloop
  endfacet
  facet normal 0 0 1
    outer loop
      vertex 0 44 6.5
      vertex 21.381 39.565 6.5
      vertex 21.736 39.718 6.5
    endloop
  endfacet
  facet normal 0 0 1
    outer loop
      vertex 23.229 40.102 6.5
      vertex 23.614 40.138 6.5
      vertex 40 44 6.5
    endloop
  endfacet
  facet normal 0 0 1
    outer loop
      vertex 0 44 6.5
      vertex 21.736 39.718 6.5
      vertex 22.1 39.849 6.5
    endloop
  endfacet
  facet normal 0 0 1
    outer loop
      vertex 0 44 6.5
      vertex 22.471 39.957 6.5
      vertex 40 44 6.5
    endloop
  endfacet
  facet normal 0 0 1
    outer loop
      vertex 0 44 6.5
      vertex 22.1 39.849 6.5
      vertex 22.471 39.957 6.5
    endloop
  endfacet
  facet normal 0 0 1
    outer loop
      vertex 22.471 39.957 6.5
      vertex 22.848 40.041 6.5
      vertex 40 44 6.5
    endloop
  endfacet
  facet normal 0 0 1
    outer loop
      vertex 19.025 37.615 6.5
      vertex 17.382 37.242 6.5
      vertex 17.586 37.274 6.5
    endloop
  endfacet
  facet normal 0 0 1
    outer loop
      vertex 18.82 37.314 6.5
      vertex 19.025 37.615 6.5
      vertex 18 37.3 6.5
    endloop
  endfacet
  facet normal 0 0 1
    outer loop
      vertex 25.152 27.959 6.5
      vertex 24.771 27.898 6.5
      vertex 0 0 6.5
    endloop
  endfacet
  facet normal 0 0 1
    outer loop
      vertex 27.615 38.975 6.5
      vertex 27.92 38.739 6.5
      vertex 40 44 6.5
    endloop
  endfacet
  facet normal 0 0 1
    outer loop
      vertex 27.92 38.739 6.5
      vertex 28.21 38.483 6.5
      vertex 40 44 6.5
    endloop
  endfacet
  facet normal 0 0 1
    outer loop
      vertex 20.705 28.807 6.5
      vertex 20.385 29.025 6.5
      vertex 0 0 6.5
    endloop
  endfacet
  facet normal 0 0 1
    outer loop
      vertex 28.21 38.483 6.5
      vertex 28.483 38.21 6.5
      vertex 40 44 6.5
    endloop
  endfacet
  facet normal 0 0 1
    outer loop
      vertex 28.483 38.21 6.5
      vertex 28.739 37.92 6.5
      vertex 40 44 6.5
    endloop
  endfacet
  facet normal 0 0 1
    outer loop
      vertex 28.739 37.92 6.5
      vertex 28.975 37.615 6.5
      vertex 40 44 6.5
    endloop
  endfacet
  facet normal 0 0 1
    outer loop
      vertex 28.975 37.615 6.5
      vertex 29.193 37.295 6.5
      vertex 40 44 6.5
    endloop
  endfacet
  facet normal 0 0 1
    outer loop
      vertex 21.736 28.282 6.5
      vertex 21.381 28.435 6.5
      vertex 0 0 6.5
    endloop
  endfacet
  facet normal 0 0 1
    outer loop
      vertex 29.193 37.295 6.5
      vertex 29.389 36.963 6.5
      vertex 40 44 6.5
    endloop
  endfacet
  facet normal 0 0 1
    outer loop
      vertex 29.389 36.963 6.5
      vertex 29.565 36.619 6.5
      vertex 40 44 6.5
    endloop
  endfacet
  facet normal 0 0 1
    outer loop
      vertex 29.565 36.619 6.5
      vertex 29.718 36.264 6.5
      vertex 40 44 6.5
    endloop
  endfacet
  facet normal 0 0 1
    outer loop
      vertex 29.718 36.264 6.5
      vertex 29.849 35.9 6.5
      vertex 40 44 6.5
    endloop
  endfacet
  facet normal 0 0 1
    outer loop
      vertex 22.848 27.959 6.5
      vertex 22.471 28.043 6.5
      vertex 0 0 6.5
    endloop
  endfacet
  facet normal 0 0 1
    outer loop
      vertex 29.849 35.9 6.5
      vertex 29.957 35.529 6.5
      vertex 40 44 6.5
    endloop
  endfacet
  facet normal 0 0 1
    outer loop
      vertex 29.957 35.529 6.5
      vertex 30.041 35.152 6.5
      vertex 40 44 6.5
    endloop
  endfacet
  facet normal 0 0 1
    outer loop
      vertex 30.041 35.152 6.5
      vertex 30.102 34.771 6.5
      vertex 40 44 6.5
    endloop
  endfacet
  facet normal 0 0 1
    outer loop
      vertex 30.102 34.771 6.5
      vertex 30.138 34.386 6.5
      vertex 40 44 6.5
    endloop
  endfacet
  facet normal 0 0 1
    outer loop
      vertex 30.138 34.386 6.5
      vertex 30.15 34 6.5
      vertex 40 44 6.5
    endloop
  endfacet
  facet normal 0 0 1
    outer loop
      vertex 24.386 27.862 6.5
      vertex 24 27.85 6.5
      vertex 0 0 6.5
    endloop
  endfacet
  facet normal 0 0 1
    outer loop
      vertex 30.15 34 6.5
      vertex 30.138 33.614 6.5
      vertex 40 44 6.5
    endloop
  endfacet
  facet normal 0 0 1
    outer loop
      vertex 30.138 33.614 6.5
      vertex 30.102 33.229 6.5
      vertex 40 44 6.5
    endloop
  endfacet
  facet normal 0 0 1
    outer loop
      vertex 29.957 32.471 6.5
      vertex 40 0 6.5
      vertex 30.041 32.848 6.5
    endloop
  endfacet
  facet normal 0 0 1
    outer loop
      vertex 29.849 32.1 6.5
      vertex 40 0 6.5
      vertex 29.957 32.471 6.5
    endloop
  endfacet
  facet normal 0 0 1
    outer loop
      vertex 29.718 31.736 6.5
      vertex 40 0 6.5
      vertex 29.849 32.1 6.5
    endloop
  endfacet
  facet normal 0 0 1
    outer loop
      vertex 29.565 31.381 6.5
      vertex 40 0 6.5
      vertex 29.718 31.736 6.5
    endloop
  endfacet
  facet normal 0 0 1
    outer loop
      vertex 26.619 28.435 6.5
      vertex 26.264 28.282 6.5
      vertex 0 0 6.5
    endloop
  endfacet
  facet normal 0 0 1
    outer loop
      vertex 29.389 31.037 6.5
      vertex 40 0 6.5
      vertex 29.565 31.381 6.5
    endloop
  endfacet
  facet normal 0 0 1
    outer loop
      vertex 29.193 30.705 6.5
      vertex 40 0 6.5
      vertex 29.389 31.037 6.5
    endloop
  endfacet
  facet normal 0 0 1
    outer loop
      vertex 28.975 30.385 6.5
      vertex 40 0 6.5
      vertex 29.193 30.705 6.5
    endloop
  endfacet
  facet normal 0 0 1
    outer loop
      vertex 28.739 30.08 6.5
      vertex 40 0 6.5
      vertex 28.975 30.385 6.5
    endloop
  endfacet
  facet normal 0 0 1
    outer loop
      vertex 28.483 29.79 6.5
      vertex 40 0 6.5
      vertex 28.739 30.08 6.5
    endloop
  endfacet
  facet normal 0 0 1
    outer loop
      vertex 0 0 6.5
      vertex 40 0 6.5
      vertex 28.483 29.79 6.5
    endloop
  endfacet
  facet normal 0 0 1
    outer loop
      vertex 27.92 29.261 6.5
      vertex 27.615 29.025 6.5
      vertex 0 0 6.5
    endloop
  endfacet
  facet normal 0 0 1
    outer loop
      vertex 0 0 6.5
      vertex 28.483 29.79 6.5
      vertex 28.21 29.517 6.5
    endloop
  endfacet
  facet normal 0 0 1
    outer loop
      vertex 27.615 29.025 6.5
      vertex 27.295 28.807 6.5
      vertex 0 0 6.5
    endloop
  endfacet
  facet normal 0 0 1
    outer loop
      vertex 27.295 28.807 6.5
      vertex 26.963 28.611 6.5
      vertex 0 0 6.5
    endloop
  endfacet
  facet normal 0 0 1
    outer loop
      vertex 24.771 27.898 6.5
      vertex 24.386 27.862 6.5
      vertex 0 0 6.5
    endloop
  endfacet
  facet normal 0 0 1
    outer loop
      vertex 26.264 28.282 6.5
      vertex 25.9 28.151 6.5
      vertex 0 0 6.5
    endloop
  endfacet
  facet normal 0 0 1
    outer loop
      vertex 25.9 28.151 6.5
      vertex 25.529 28.043 6.5
      vertex 0 0 6.5
    endloop
  endfacet
  facet normal 0 0 1
    outer loop
      vertex 25.529 28.043 6.5
      vertex 25.152 27.959 6.5
      vertex 0 0 6.5
    endloop
  endfacet
  facet normal 0 0 1
    outer loop
      vertex 28.21 29.517 6.5
      vertex 27.92 29.261 6.5
      vertex 0 0 6.5
    endloop
  endfacet
  facet normal 0 0 1
    outer loop
      vertex 23.229 27.898 6.5
      vertex 22.848 27.959 6.5
      vertex 0 0 6.5
    endloop
  endfacet
  facet normal 0 0 1
    outer loop
      vertex 24 27.85 6.5
      vertex 23.614 27.862 6.5
      vertex 0 0 6.5
    endloop
  endfacet
  facet normal 0 0 1
    outer loop
      vertex 23.614 27.862 6.5
      vertex 23.229 27.898 6.5
      vertex 0 0 6.5
    endloop
  endfacet
  facet normal 0 0 1
    outer loop
      vertex 22.1 28.151 6.5
      vertex 21.736 28.282 6.5
      vertex 0 0 6.5
    endloop
  endfacet
  facet normal 0 0 1
    outer loop
      vertex 22.471 28.043 6.5
      vertex 22.1 28.151 6.5
      vertex 0 0 6.5
    endloop
  endfacet
  facet normal 0 0 1
    outer loop
      vertex 21.037 28.611 6.5
      vertex 20.705 28.807 6.5
      vertex 0 0 6.5
    endloop
  endfacet
  facet normal 0 0 1
    outer loop
      vertex 21.381 28.435 6.5
      vertex 21.037 28.611 6.5
      vertex 0 0 6.5
    endloop
  endfacet
  facet normal 0 0 1
    outer loop
      vertex 19.517 29.79 6.5
      vertex 18 30.7 6.5
      vertex 19.79 29.517 6.5
    endloop
  endfacet
  facet normal 0 0 1
    outer loop
      vertex 20.08 29.261 6.5
      vertex 0 0 6.5
      vertex 20.385 29.025 6.5
    endloop
  endfacet
  facet normal 0 0 1
    outer loop
      vertex 18 30.7 6.5
      vertex 0 0 6.5
      vertex 20.08 29.261 6.5
    endloop
  endfacet
  facet normal 0 0 1
    outer loop
      vertex 19.79 29.517 6.5
      vertex 18 30.7 6.5
      vertex 20.08 29.261 6.5
    endloop
  endfacet
  facet normal 0 0 1
    outer loop
      vertex 17.793 30.707 6.5
      vertex 0 0 6.5
      vertex 18 30.7 6.5
    endloop
  endfacet
  facet normal 0 0 1
    outer loop
      vertex 17.586 30.726 6.5
      vertex 0 0 6.5
      vertex 17.793 30.707 6.5
    endloop
  endfacet
  facet normal 0 0 1
    outer loop
      vertex 17.382 30.758 6.5
      vertex 0 0 6.5
      vertex 17.586 30.726 6.5
    endloop
  endfacet
  facet normal 0 0 1
    outer loop
      vertex 17.179 30.804 6.5
      vertex 0 0 6.5
      vertex 17.382 30.758 6.5
    endloop
  endfacet
  facet normal 0 0 1
    outer loop
      vertex 16.98 30.862 6.5
      vertex 0 0 6.5
      vertex 17.179 30.804 6.5
    endloop
  endfacet
  facet normal 0 0 1
    outer loop
      vertex 16.785 30.932 6.5
      vertex 0 0 6.5
      vertex 16.98 30.862 6.5
    endloop
  endfacet
  facet normal 0 0 1
    outer loop
      vertex 16.595 31.014 6.5
      vertex 0 0 6.5
      vertex 16.785 30.932 6.5
    endloop
  endfacet
  facet normal 0 0 1
    outer loop
      vertex 16.41 31.108 6.5
      vertex 0 0 6.5
      vertex 16.595 31.014 6.5
    endloop
  endfacet
  facet normal 0 0 1
    outer loop
      vertex 16.232 31.214 6.5
      vertex 0 0 6.5
      vertex 16.41 31.108 6.5
    endloop
  endfacet
  facet normal 0 0 1
    outer loop
      vertex 16.06 31.33 6.5
      vertex 0 0 6.5
      vertex 16.232 31.214 6.5
    endloop
  endfacet
  facet normal 0 0 1
    outer loop
      vertex 15.897 31.457 6.5
      vertex 0 0 6.5
      vertex 16.06 31.33 6.5
    endloop
  endfacet
  facet normal 0 0 1
    outer loop
      vertex 15.741 31.594 6.5
      vertex 0 0 6.5
      vertex 15.897 31.457 6.5
    endloop
  endfacet
  facet normal 0 0 1
    outer loop
      vertex 15.594 31.741 6.5
      vertex 0 0 6.5
      vertex 15.741 31.594 6.5
    endloop
  endfacet
  facet normal 0 0 1
    outer loop
      vertex 15.457 31.897 6.5
      vertex 0 0 6.5
      vertex 15.594 31.741 6.5
    endloop
  endfacet
  facet normal 0 0 1
    outer loop
      vertex 15.33 32.06 6.5
      vertex 0 0 6.5
      vertex 15.457 31.897 6.5
    endloop
  endfacet
  facet normal 0 0 1
    outer loop
      vertex 15.214 32.232 6.5
      vertex 0 0 6.5
      vertex 15.33 32.06 6.5
    endloop
  endfacet
  facet normal 0 0 1
    outer loop
      vertex 15.108 32.41 6.5
      vertex 0 0 6.5
      vertex 15.214 32.232 6.5
    endloop
  endfacet
  facet normal 0 0 1
    outer loop
      vertex 15.014 32.595 6.5
      vertex 0 0 6.5
      vertex 15.108 32.41 6.5
    endloop
  endfacet
  facet normal 0 0 1
    outer loop
      vertex 14.932 32.785 6.5
      vertex 0 0 6.5
      vertex 15.014 32.595 6.5
    endloop
  endfacet
  facet normal 0 0 1
    outer loop
      vertex 14.862 32.98 6.5
      vertex 0 0 6.5
      vertex 14.932 32.785 6.5
    endloop
  endfacet
  facet normal 0 0 1
    outer loop
      vertex 14.804 33.179 6.5
      vertex 0 0 6.5
      vertex 14.862 32.98 6.5
    endloop
  endfacet
  facet normal 0 0 1
    outer loop
      vertex 14.758 33.382 6.5
      vertex 0 0 6.5
      vertex 14.804 33.179 6.5
    endloop
  endfacet
  facet normal 0 0 1
    outer loop
      vertex 14.726 33.586 6.5
      vertex 0 0 6.5
      vertex 14.758 33.382 6.5
    endloop
  endfacet
  facet normal 0 0 1
    outer loop
      vertex 14.707 33.793 6.5
      vertex 0 0 6.5
      vertex 14.726 33.586 6.5
    endloop
  endfacet
  facet normal 0 0 1
    outer loop
      vertex 14.7 34 6.5
      vertex 0 0 6.5
      vertex 14.707 33.793 6.5
    endloop
  endfacet
  facet normal 0 0 1
    outer loop
      vertex 17.793 37.293 6.5
      vertex 18 37.3 6.5
      vertex 19.025 37.615 6.5
    endloop
  endfacet
  facet normal 0 0 1
    outer loop
      vertex 26.619 39.565 6.5
      vertex 26.963 39.389 6.5
      vertex 40 44 6.5
    endloop
  endfacet
  facet normal 0 0 1
    outer loop
      vertex 19.025 37.615 6.5
      vertex 17.586 37.274 6.5
      vertex 17.793 37.293 6.5
    endloop
  endfacet
  facet normal 0 0 1
    outer loop
      vertex 19.025 37.615 6.5
      vertex 19.261 37.92 6.5
      vertex 17.179 37.196 6.5
    endloop
  endfacet
  facet normal 1 0 0
    outer loop
      vertex 40 0 0
      vertex 40 44 0
      vertex 40 44 6.5
    endloop
  endfacet
  facet normal 1 0 0
    outer loop
      vertex 40 0 6.5
      vertex 40 0 0
      vertex 40 44 6.5
    endloop
  endfacet
  facet normal 0 1 0
    outer loop
      vertex 0 44 6.5
      vertex 40 44 6.5
      vertex 0 44 0
    endloop
  endfacet
  facet normal 0 1 0
    outer loop
      vertex 0 44 0
      vertex 40 44 6.5
      vertex 40 44 0
    endloop
  endfacet
  facet normal 0.999429 0.0337971 0
    outer loop
      vertex 14.7 34 0
      vertex 14.7 34 6.5
      vertex 14.707 33.793 6.5
    endloop
  endfacet
  facet normal 0.999429 0.0337971 0
    outer loop
      vertex 14.707 33.793 0
      vertex 14.7 34 0
      vertex 14.707 33.793 6.5
    endloop
  endfacet
  facet normal 0.999429 -0.0337971 0
    outer loop
      vertex 14.7 34 0
      vertex 14.707 34.207 0
      vertex 14.707 34.207 6.5
    endloop
  endfacet
  facet normal 0.999429 -0.0337971 0
    outer loop
      vertex 14.7 34 6.5
      vertex 14.7 34 0
      vertex 14.707 34.207 6.5
    endloop
  endfacet
  facet normal 0.995814 -0.0914032 0
    outer loop
      vertex 14.707 34.207 0
      vertex 14.726 34.414 0
      vertex 14.726 34.414 6.5
    endloop
  endfacet
  facet normal 0.995814 -0.0914032 0
    outer loop
      vertex 14.707 34.207 6.5
      vertex 14.707 34.207 0
      vertex 14.726 34.414 6.5
    endloop
  endfacet
  facet normal 0.98792 -0.154968 0
    outer loop
      vertex 14.726 34.414 0
      vertex 14.758 34.618 0
      vertex 14.758 34.618 6.5
    endloop
  endfacet
  facet normal 0.98792 -0.154968 0
    outer loop
      vertex 14.726 34.414 6.5
      vertex 14.726 34.414 0
      vertex 14.758 34.618 6.5
    endloop
  endfacet
  facet normal 0.975274 -0.220998 0
    outer loop
      vertex 14.758 34.618 0
      vertex 14.804 34.821 0
      vertex 14.804 34.821 6.5
    endloop
  endfacet
  facet normal 0.975274 -0.220998 0
    outer loop
      vertex 14.758 34.618 6.5
      vertex 14.758 34.618 0
      vertex 14.804 34.821 6.5
    endloop
  endfacet
  facet normal 0.960054 -0.279815 0
    outer loop
      vertex 14.804 34.821 0
      vertex 14.862 35.02 0
      vertex 14.862 35.02 6.5
    endloop
  endfacet
  facet normal 0.960054 -0.279815 0
    outer loop
      vertex 14.804 34.821 6.5
      vertex 14.804 34.821 0
      vertex 14.862 35.02 6.5
    endloop
  endfacet
  facet normal 0.941195 -0.337865 0
    outer loop
      vertex 14.862 35.02 0
      vertex 14.932 35.215 0
      vertex 14.932 35.215 6.5
    endloop
  endfacet
  facet normal 0.941195 -0.337865 0
    outer loop
      vertex 14.862 35.02 6.5
      vertex 14.862 35.02 0
      vertex 14.932 35.215 6.5
    endloop
  endfacet
  facet normal 0.918142 -0.396251 0
    outer loop
      vertex 14.932 35.215 0
      vertex 15.014 35.405 0
      vertex 15.014 35.405 6.5
    endloop
  endfacet
  facet normal 0.918142 -0.396251 0
    outer loop
      vertex 14.932 35.215 6.5
      vertex 14.932 35.215 0
      vertex 15.014 35.405 6.5
    endloop
  endfacet
  facet normal 0.891517 -0.452987 0
    outer loop
      vertex 15.014 35.405 0
      vertex 15.108 35.59 0
      vertex 15.108 35.59 6.5
    endloop
  endfacet
  facet normal 0.891517 -0.452987 0
    outer loop
      vertex 15.014 35.405 6.5
      vertex 15.014 35.405 0
      vertex 15.108 35.59 6.5
    endloop
  endfacet
  facet normal 0.859192 -0.511654 0
    outer loop
      vertex 15.108 35.59 0
      vertex 15.214 35.768 0
      vertex 15.214 35.768 6.5
    endloop
  endfacet
  facet normal 0.859192 -0.511654 0
    outer loop
      vertex 15.108 35.59 6.5
      vertex 15.108 35.59 0
      vertex 15.214 35.768 6.5
    endloop
  endfacet
  facet normal 0.829072 -0.559142 0
    outer loop
      vertex 15.214 35.768 0
      vertex 15.33 35.94 0
      vertex 15.33 35.94 6.5
    endloop
  endfacet
  facet normal 0.829072 -0.559142 0
    outer loop
      vertex 15.214 35.768 6.5
      vertex 15.214 35.768 0
      vertex 15.33 35.94 6.5
    endloop
  endfacet
  facet normal 0.788831 -0.61461 0
    outer loop
      vertex 15.33 35.94 0
      vertex 15.457 36.103 0
      vertex 15.457 36.103 6.5
    endloop
  endfacet
  facet normal 0.788831 -0.61461 0
    outer loop
      vertex 15.33 35.94 6.5
      vertex 15.33 35.94 0
      vertex 15.457 36.103 6.5
    endloop
  endfacet
  facet normal 0.751382 -0.659868 0
    outer loop
      vertex 15.457 36.103 0
      vertex 15.594 36.259 0
      vertex 15.594 36.259 6.5
    endloop
  endfacet
  facet normal 0.751382 -0.659868 0
    outer loop
      vertex 15.457 36.103 6.5
      vertex 15.457 36.103 0
      vertex 15.594 36.259 6.5
    endloop
  endfacet
  facet normal 0.707107 -0.707107 0
    outer loop
      vertex 15.594 36.259 0
      vertex 15.741 36.406 0
      vertex 15.741 36.406 6.5
    endloop
  endfacet
  facet normal 0.707107 -0.707107 0
    outer loop
      vertex 15.594 36.259 6.5
      vertex 15.594 36.259 0
      vertex 15.741 36.406 6.5
    endloop
  endfacet
  facet normal 0.659868 -0.751382 0
    outer loop
      vertex 15.741 36.406 0
      vertex 15.897 36.543 0
      vertex 15.897 36.543 6.5
    endloop
  endfacet
  facet normal 0.659868 -0.751382 0
    outer loop
      vertex 15.741 36.406 6.5
      vertex 15.741 36.406 0
      vertex 15.897 36.543 6.5
    endloop
  endfacet
  facet normal 0.61461 -0.788831 0
    outer loop
      vertex 15.897 36.543 0
      vertex 16.06 36.67 0
      vertex 16.06 36.67 6.5
    endloop
  endfacet
  facet normal 0.61461 -0.788831 0
    outer loop
      vertex 15.897 36.543 6.5
      vertex 15.897 36.543 0
      vertex 16.06 36.67 6.5
    endloop
  endfacet
  facet normal 0.559142 -0.829072 0
    outer loop
      vertex 16.06 36.67 0
      vertex 16.232 36.786 0
      vertex 16.232 36.786 6.5
    endloop
  endfacet
  facet normal 0.559142 -0.829072 0
    outer loop
      vertex 16.06 36.67 6.5
      vertex 16.06 36.67 0
      vertex 16.232 36.786 6.5
    endloop
  endfacet
  facet normal 0.511654 -0.859192 0
    outer loop
      vertex 16.232 36.786 0
      vertex 16.41 36.892 0
      vertex 16.41 36.892 6.5
    endloop
  endfacet
  facet normal 0.511654 -0.859192 0
    outer loop
      vertex 16.232 36.786 6.5
      vertex 16.232 36.786 0
      vertex 16.41 36.892 6.5
    endloop
  endfacet
  facet normal 0.452987 -0.891517 0
    outer loop
      vertex 16.41 36.892 0
      vertex 16.595 36.986 0
      vertex 16.595 36.986 6.5
    endloop
  endfacet
  facet normal 0.452987 -0.891517 0
    outer loop
      vertex 16.41 36.892 6.5
      vertex 16.41 36.892 0
      vertex 16.595 36.986 6.5
    endloop
  endfacet
  facet normal 0.396251 -0.918142 0
    outer loop
      vertex 16.595 36.986 0
      vertex 16.785 37.068 0
      vertex 16.785 37.068 6.5
    endloop
  endfacet
  facet normal 0.396251 -0.918142 0
    outer loop
      vertex 16.595 36.986 6.5
      vertex 16.595 36.986 0
      vertex 16.785 37.068 6.5
    endloop
  endfacet
  facet normal 0.337865 -0.941195 0
    outer loop
      vertex 16.785 37.068 0
      vertex 16.98 37.138 0
      vertex 16.98 37.138 6.5
    endloop
  endfacet
  facet normal 0.337865 -0.941195 0
    outer loop
      vertex 16.785 37.068 6.5
      vertex 16.785 37.068 0
      vertex 16.98 37.138 6.5
    endloop
  endfacet
  facet normal 0.279815 -0.960054 0
    outer loop
      vertex 16.98 37.138 0
      vertex 17.179 37.196 0
      vertex 17.179 37.196 6.5
    endloop
  endfacet
  facet normal 0.279815 -0.960054 0
    outer loop
      vertex 16.98 37.138 6.5
      vertex 16.98 37.138 0
      vertex 17.179 37.196 6.5
    endloop
  endfacet
  facet normal 0.220998 -0.975274 0
    outer loop
      vertex 17.179 37.196 0
      vertex 17.382 37.242 0
      vertex 17.382 37.242 6.5
    endloop
  endfacet
  facet normal 0.220998 -0.975274 0
    outer loop
      vertex 17.179 37.196 6.5
      vertex 17.179 37.196 0
      vertex 17.382 37.242 6.5
    endloop
  endfacet
  facet normal 0.154968 -0.98792 0
    outer loop
      vertex 17.382 37.242 0
      vertex 17.586 37.274 0
      vertex 17.586 37.274 6.5
    endloop
  endfacet
  facet normal 0.154968 -0.98792 0
    outer loop
      vertex 17.382 37.242 6.5
      vertex 17.382 37.242 0
      vertex 17.586 37.274 6.5
    endloop
  endfacet
  facet normal 0.0914032 -0.995814 0
    outer loop
      vertex 17.586 37.274 0
      vertex 17.793 37.293 0
      vertex 17.793 37.293 6.5
    endloop
  endfacet
  facet normal 0.0914032 -0.995814 0
    outer loop
      vertex 17.586 37.274 6.5
      vertex 17.586 37.274 0
      vertex 17.793 37.293 6.5
    endloop
  endfacet
  facet normal 0.0337971 -0.999429 0
    outer loop
      vertex 17.793 37.293 0
      vertex 18 37.3 0
      vertex 18 37.3 6.5
    endloop
  endfacet
  facet normal 0.0337971 -0.999429 0
    outer loop
      vertex 17.793 37.293 6.5
      vertex 17.793 37.293 0
      vertex 18 37.3 6.5
    endloop
  endfacet
  facet normal 0.0170707 -0.999854 0
    outer loop
      vertex 18 37.3 0
      vertex 18.82 37.314 0
      vertex 18.82 37.314 6.5
    endloop
  endfacet
  facet normal 0.0170707 -0.999854 0
    outer loop
      vertex 18 37.3 6.5
      vertex 18 37.3 0
      vertex 18.82 37.314 6.5
    endloop
  endfacet
  facet normal 0.826518 -0.562911 0
    outer loop
      vertex 18.82 37.314 0
      vertex 19.025 37.615 0
      vertex 19.025 37.615 6.5
    endloop
  endfacet
  facet normal 0.826518 -0.562911 0
    outer loop
      vertex 18.82 37.314 6.5
      vertex 18.82 37.314 0
      vertex 19.025 37.615 6.5
    endloop
  endfacet
  facet normal 0.790886 -0.611964 0
    outer loop
      vertex 19.025 37.615 0
      vertex 19.261 37.92 0
      vertex 19.261 37.92 6.5
    endloop
  endfacet
  facet normal 0.790886 -0.611964 0
    outer loop
      vertex 19.025 37.615 6.5
      vertex 19.025 37.615 0
      vertex 19.261 37.92 6.5
    endloop
  endfacet
  facet normal 0.749687 -0.661793 0
    outer loop
      vertex 19.261 37.92 0
      vertex 19.517 38.21 0
      vertex 19.517 38.21 6.5
    endloop
  endfacet
  facet normal 0.749687 -0.661793 0
    outer loop
      vertex 19.261 37.92 6.5
      vertex 19.261 37.92 0
      vertex 19.517 38.21 6.5
    endloop
  endfacet
  facet normal 0.707107 -0.707107 0
    outer loop
      vertex 19.517 38.21 0
      vertex 19.79 38.483 0
      vertex 19.79 38.483 6.5
    endloop
  endfacet
  facet normal 0.707107 -0.707107 0
    outer loop
      vertex 19.517 38.21 6.5
      vertex 19.517 38.21 0
      vertex 19.79 38.483 6.5
    endloop
  endfacet
  facet normal 0.661793 -0.749687 0
    outer loop
      vertex 19.79 38.483 0
      vertex 20.08 38.739 0
      vertex 20.08 38.739 6.5
    endloop
  endfacet
  facet normal 0.661793 -0.749687 0
    outer loop
      vertex 19.79 38.483 6.5
      vertex 19.79 38.483 0
      vertex 20.08 38.739 6.5
    endloop
  endfacet
  facet normal 0.611964 -0.790886 0
    outer loop
      vertex 20.08 38.739 0
      vertex 20.385 38.975 0
      vertex 20.385 38.975 6.5
    endloop
  endfacet
  facet normal 0.611964 -0.790886 0
    outer loop
      vertex 20.08 38.739 6.5
      vertex 20.08 38.739 0
      vertex 20.385 38.975 6.5
    endloop
  endfacet
  facet normal 0.563016 -0.826446 0
    outer loop
      vertex 20.385 38.975 0
      vertex 20.705 39.193 0
      vertex 20.705 39.193 6.5
    endloop
  endfacet
  facet normal 0.563016 -0.826446 0
    outer loop
      vertex 20.385 38.975 6.5
      vertex 20.385 38.975 0
      vertex 20.705 39.193 6.5
    endloop
  endfacet
  facet normal 0.50838 -0.861133 0
    outer loop
      vertex 20.705 39.193 0
      vertex 21.037 39.389 0
      vertex 21.037 39.389 6.5
    endloop
  endfacet
  facet normal 0.50838 -0.861133 0
    outer loop
      vertex 20.705 39.193 6.5
      vertex 20.705 39.193 0
      vertex 21.037 39.389 6.5
    endloop
  endfacet
  facet normal 0.455476 -0.890248 0
    outer loop
      vertex 21.037 39.389 0
      vertex 21.381 39.565 0
      vertex 21.381 39.565 6.5
    endloop
  endfacet
  facet normal 0.455476 -0.890248 0
    outer loop
      vertex 21.037 39.389 6.5
      vertex 21.037 39.389 0
      vertex 21.381 39.565 6.5
    endloop
  endfacet
  facet normal 0.395792 -0.91834 0
    outer loop
      vertex 21.381 39.565 0
      vertex 21.736 39.718 0
      vertex 21.736 39.718 6.5
    endloop
  endfacet
  facet normal 0.395792 -0.91834 0
    outer loop
      vertex 21.381 39.565 6.5
      vertex 21.381 39.565 0
      vertex 21.736 39.718 6.5
    endloop
  endfacet
  facet normal 0.338628 -0.94092 0
    outer loop
      vertex 21.736 39.718 0
      vertex 22.1 39.849 0
      vertex 22.1 39.849 6.5
    endloop
  endfacet
  facet normal 0.338628 -0.94092 0
    outer loop
      vertex 21.736 39.718 6.5
      vertex 21.736 39.718 0
      vertex 22.1 39.849 6.5
    endloop
  endfacet
  facet normal 0.279503 -0.960145 0
    outer loop
      vertex 22.1 39.849 0
      vertex 22.471 39.957 0
      vertex 22.471 39.957 6.5
    endloop
  endfacet
  facet normal 0.279503 -0.960145 0
    outer loop
      vertex 22.1 39.849 6.5
      vertex 22.1 39.849 0
      vertex 22.471 39.957 6.5
    endloop
  endfacet
  facet normal 0.217479 -0.976065 0
    outer loop
      vertex 22.471 39.957 0
      vertex 22.848 40.041 0
      vertex 22.848 40.041 6.5
    endloop
  endfacet
  facet normal 0.217479 -0.976065 0
    outer loop
      vertex 22.471 39.957 6.5
      vertex 22.471 39.957 0
      vertex 22.848 40.041 6.5
    endloop
  endfacet
  facet normal 0.158092 -0.987424 0
    outer loop
      vertex 22.848 40.041 0
      vertex 23.229 40.102 0
      vertex 23.229 40.102 6.5
    endloop
  endfacet
  facet normal 0.158092 -0.987424 0
    outer loop
      vertex 22.848 40.041 6.5
      vertex 22.848 40.041 0
      vertex 23.229 40.102 6.5
    endloop
  endfacet
  facet normal 0.0931004 -0.995657 0
    outer loop
      vertex 23.229 40.102 0
      vertex 23.614 40.138 0
      vertex 23.614 40.138 6.5
    endloop
  endfacet
  facet normal 0.0931004 -0.995657 0
    outer loop
      vertex 23.229 40.102 6.5
      vertex 23.229 40.102 0
      vertex 23.614 40.138 6.5
    endloop
  endfacet
  facet normal 0.0310731 -0.999517 0
    outer loop
      vertex 23.614 40.138 0
      vertex 24 40.15 0
      vertex 24 40.15 6.5
    endloop
  endfacet
  facet normal 0.0310731 -0.999517 0
    outer loop
      vertex 23.614 40.138 6.5
      vertex 23.614 40.138 0
      vertex 24 40.15 6.5
    endloop
  endfacet
  facet normal -0.0310731 -0.999517 0
    outer loop
      vertex 24 40.15 0
      vertex 24.386 40.138 0
      vertex 24.386 40.138 6.5
    endloop
  endfacet
  facet normal -0.0310731 -0.999517 0
    outer loop
      vertex 24 40.15 6.5
      vertex 24 40.15 0
      vertex 24.386 40.138 6.5
    endloop
  endfacet
  facet normal -0.0931004 -0.995657 0
    outer loop
      vertex 24.386 40.138 0
      vertex 24.771 40.102 0
      vertex 24.771 40.102 6.5
    endloop
  endfacet
  facet normal -0.0931004 -0.995657 0
    outer loop
      vertex 24.386 40.138 6.5
      vertex 24.386 40.138 0
      vertex 24.771 40.102 6.5
    endloop
  endfacet
  facet normal -0.158092 -0.987424 0
    outer loop
      vertex 24.771 40.102 0
      vertex 25.152 40.041 0
      vertex 25.152 40.041 6.5
    endloop
  endfacet
  facet normal -0.158092 -0.987424 0
    outer loop
      vertex 24.771 40.102 6.5
      vertex 24.771 40.102 0
      vertex 25.152 40.041 6.5
    endloop
  endfacet
  facet normal -0.217479 -0.976065 0
    outer loop
      vertex 25.152 40.041 0
      vertex 25.529 39.957 0
      vertex 25.529 39.957 6.5
    endloop
  endfacet
  facet normal -0.217479 -0.976065 0
    outer loop
      vertex 25.152 40.041 6.5
      vertex 25.152 40.041 0
      vertex 25.529 39.957 6.5
    endloop
  endfacet
  facet normal -0.279503 -0.960145 0
    outer loop
      vertex 25.529 39.957 0
      vertex 25.9 39.849 0
      vertex 25.9 39.849 6.5
    endloop
  endfacet
  facet normal -0.279503 -0.960145 0
    outer loop
      vertex 25.529 39.957 6.5
      vertex 25.529 39.957 0
      vertex 25.9 39.849 6.5
    endloop
  endfacet
  facet normal -0.338628 -0.94092 0
    outer loop
      vertex 25.9 39.849 0
      vertex 26.264 39.718 0
      vertex 26.264 39.718 6.5
    endloop
  endfacet
  facet normal -0.338628 -0.94092 0
    outer loop
      vertex 25.9 39.849 6.5
      vertex 25.9 39.849 0
      vertex 26.264 39.718 6.5
    endloop
  endfacet
  facet normal -0.395792 -0.91834 0
    outer loop
      vertex 26.264 39.718 0
      vertex 26.619 39.565 0
      vertex 26.619 39.565 6.5
    endloop
  endfacet
  facet normal -0.395792 -0.91834 0
    outer loop
      vertex 26.264 39.718 6.5
      vertex 26.264 39.718 0
      vertex 26.619 39.565 6.5
    endloop
  endfacet
  facet normal -0.455476 -0.890248 0
    outer loop
      vertex 26.619 39.565 0
      vertex 26.963 39.389 0
      vertex 26.963 39.389 6.5
    endloop
  endfacet
  facet normal -0.455476 -0.890248 0
    outer loop
      vertex 26.619 39.565 6.5
      vertex 26.619 39.565 0
      vertex 26.963 39.389 6.5
    endloop
  endfacet
  facet normal -0.50838 -0.861133 0
    outer loop
      vertex 26.963 39.389 0
      vertex 27.295 39.193 0
      vertex 27.295 39.193 6.5
    endloop
  endfacet
  facet normal -0.50838 -0.861133 0
    outer loop
      vertex 26.963 39.389 6.5
      vertex 26.963 39.389 0
      vertex 27.295 39.193 6.5
    endloop
  endfacet
  facet normal -0.563016 -0.826446 0
    outer loop
      vertex 27.295 39.193 0
      vertex 27.615 38.975 0
      vertex 27.615 38.975 6.5
    endloop
  endfacet
  facet normal -0.563016 -0.826446 0
    outer loop
      vertex 27.295 39.193 6.5
      vertex 27.295 39.193 0
      vertex 27.615 38.975 6.5
    endloop
  endfacet
  facet normal -0.611964 -0.790886 0
    outer loop
      vertex 27.615 38.975 0
      vertex 27.92 38.739 0
      vertex 27.92 38.739 6.5
    endloop
  endfacet
  facet normal -0.611964 -0.790886 0
    outer loop
      vertex 27.615 38.975 6.5
      vertex 27.615 38.975 0
      vertex 27.92 38.739 6.5
    endloop
  endfacet
  facet normal -0.661793 -0.749687 0
    outer loop
      vertex 27.92 38.739 0
      vertex 28.21 38.483 0
      vertex 28.21 38.483 6.5
    endloop
  endfacet
  facet normal -0.661793 -0.749687 0
    outer loop
      vertex 27.92 38.739 6.5
      vertex 27.92 38.739 0
      vertex 28.21 38.483 6.5
    endloop
  endfacet
  facet normal -0.707107 -0.707107 0
    outer loop
      vertex 28.21 38.483 0
      vertex 28.483 38.21 0
      vertex 28.483 38.21 6.5
    endloop
  endfacet
  facet normal -0.707107 -0.707107 0
    outer loop
      vertex 28.21 38.483 6.5
      vertex 28.21 38.483 0
      vertex 28.483 38.21 6.5
    endloop
  endfacet
  facet normal -0.749687 -0.661793 0
    outer loop
      vertex 28.739 37.92 0
      vertex 28.739 37.92 6.5
      vertex 28.483 38.21 0
    endloop
  endfacet
  facet normal -0.749687 -0.661793 0
    outer loop
      vertex 28.483 38.21 0
      vertex 28.739 37.92 6.5
      vertex 28.483 38.21 6.5
    endloop
  endfacet
  facet normal -0.790886 -0.611964 0
    outer loop
      vertex 28.975 37.615 0
      vertex 28.975 37.615 6.5
      vertex 28.739 37.92 0
    endloop
  endfacet
  facet normal -0.790886 -0.611964 0
    outer loop
      vertex 28.739 37.92 0
      vertex 28.975 37.615 6.5
      vertex 28.739 37.92 6.5
    endloop
  endfacet
  facet normal -0.826446 -0.563016 0
    outer loop
      vertex 29.193 37.295 0
      vertex 29.193 37.295 6.5
      vertex 28.975 37.615 0
    endloop
  endfacet
  facet normal -0.826446 -0.563016 0
    outer loop
      vertex 28.975 37.615 0
      vertex 29.193 37.295 6.5
      vertex 28.975 37.615 6.5
    endloop
  endfacet
  facet normal -0.861133 -0.50838 0
    outer loop
      vertex 29.389 36.963 0
      vertex 29.389 36.963 6.5
      vertex 29.193 37.295 0
    endloop
  endfacet
  facet normal -0.861133 -0.50838 0
    outer loop
      vertex 29.193 37.295 0
      vertex 29.389 36.963 6.5
      vertex 29.193 37.295 6.5
    endloop
  endfacet
  facet normal -0.890248 -0.455476 0
    outer loop
      vertex 29.565 36.619 0
      vertex 29.565 36.619 6.5
      vertex 29.389 36.963 0
    endloop
  endfacet
  facet normal -0.890248 -0.455476 0
    outer loop
      vertex 29.389 36.963 0
      vertex 29.565 36.619 6.5
      vertex 29.389 36.963 6.5
    endloop
  endfacet
  facet normal -0.91834 -0.395792 0
    outer loop
      vertex 29.718 36.264 0
      vertex 29.718 36.264 6.5
      vertex 29.565 36.619 0
    endloop
  endfacet
  facet normal -0.91834 -0.395792 0
    outer loop
      vertex 29.565 36.619 0
      vertex 29.718 36.264 6.5
      vertex 29.565 36.619 6.5
    endloop
  endfacet
  facet normal -0.94092 -0.338628 0
    outer loop
      vertex 29.849 35.9 0
      vertex 29.849 35.9 6.5
      vertex 29.718 36.264 0
    endloop
  endfacet
  facet normal -0.94092 -0.338628 0
    outer loop
      vertex 29.718 36.264 0
      vertex 29.849 35.9 6.5
      vertex 29.718 36.264 6.5
    endloop
  endfacet
  facet normal -0.960145 -0.279503 0
    outer loop
      vertex 29.957 35.529 0
      vertex 29.957 35.529 6.5
      vertex 29.849 35.9 0
    endloop
  endfacet
  facet normal -0.960145 -0.279503 0
    outer loop
      vertex 29.849 35.9 0
      vertex 29.957 35.529 6.5
      vertex 29.849 35.9 6.5
    endloop
  endfacet
  facet normal -0.976065 -0.217479 0
    outer loop
      vertex 30.041 35.152 0
      vertex 30.041 35.152 6.5
      vertex 29.957 35.529 0
    endloop
  endfacet
  facet normal -0.976065 -0.217479 0
    outer loop
      vertex 29.957 35.529 0
      vertex 30.041 35.152 6.5
      vertex 29.957 35.529 6.5
    endloop
  endfacet
  facet normal -0.987424 -0.158092 0
    outer loop
      vertex 30.102 34.771 0
      vertex 30.102 34.771 6.5
      vertex 30.041 35.152 0
    endloop
  endfacet
  facet normal -0.987424 -0.158092 0
    outer loop
      vertex 30.041 35.152 0
      vertex 30.102 34.771 6.5
      vertex 30.041 35.152 6.5
    endloop
  endfacet
  facet normal -0.995657 -0.0931004 0
    outer loop
      vertex 30.138 34.386 0
      vertex 30.138 34.386 6.5
      vertex 30.102 34.771 0
    endloop
  endfacet
  facet normal -0.995657 -0.0931004 0
    outer loop
      vertex 30.102 34.771 0
      vertex 30.138 34.386 6.5
      vertex 30.102 34.771 6.5
    endloop
  endfacet
  facet normal -0.999517 -0.0310731 0
    outer loop
      vertex 30.15 34 0
      vertex 30.15 34 6.5
      vertex 30.138 34.386 0
    endloop
  endfacet
  facet normal -0.999517 -0.0310731 0
    outer loop
      vertex 30.138 34.386 0
      vertex 30.15 34 6.5
      vertex 30.138 34.386 6.5
    endloop
  endfacet
  facet normal -0.999517 0.0310731 0
    outer loop
      vertex 30.138 33.614 6.5
      vertex 30.15 34 6.5
      vertex 30.138 33.614 0
    endloop
  endfacet
  facet normal -0.999517 0.0310731 0
    outer loop
      vertex 30.138 33.614 0
      vertex 30.15 34 6.5
      vertex 30.15 34 0
    endloop
  endfacet
  facet normal -0.995657 0.0931004 0
    outer loop
      vertex 30.102 33.229 6.5
      vertex 30.138 33.614 6.5
      vertex 30.102 33.229 0
    endloop
  endfacet
  facet normal -0.995657 0.0931004 0
    outer loop
      vertex 30.102 33.229 0
      vertex 30.138 33.614 6.5
      vertex 30.138 33.614 0
    endloop
  endfacet
  facet normal -0.987424 0.158092 0
    outer loop
      vertex 30.041 32.848 6.5
      vertex 30.102 33.229 6.5
      vertex 30.041 32.848 0
    endloop
  endfacet
  facet normal -0.987424 0.158092 0
    outer loop
      vertex 30.041 32.848 0
      vertex 30.102 33.229 6.5
      vertex 30.102 33.229 0
    endloop
  endfacet
  facet normal -0.976065 0.217479 0
    outer loop
      vertex 29.957 32.471 6.5
      vertex 30.041 32.848 6.5
      vertex 29.957 32.471 0
    endloop
  endfacet
  facet normal -0.976065 0.217479 0
    outer loop
      vertex 29.957 32.471 0
      vertex 30.041 32.848 6.5
      vertex 30.041 32.848 0
    endloop
  endfacet
  facet normal -0.960145 0.279503 0
    outer loop
      vertex 29.849 32.1 6.5
      vertex 29.957 32.471 6.5
      vertex 29.849 32.1 0
    endloop
  endfacet
  facet normal -0.960145 0.279503 0
    outer loop
      vertex 29.849 32.1 0
      vertex 29.957 32.471 6.5
      vertex 29.957 32.471 0
    endloop
  endfacet
  facet normal -0.94092 0.338628 0
    outer loop
      vertex 29.718 31.736 6.5
      vertex 29.849 32.1 6.5
      vertex 29.718 31.736 0
    endloop
  endfacet
  facet normal -0.94092 0.338628 0
    outer loop
      vertex 29.718 31.736 0
      vertex 29.849 32.1 6.5
      vertex 29.849 32.1 0
    endloop
  endfacet
  facet normal -0.91834 0.395792 0
    outer loop
      vertex 29.565 31.381 6.5
      vertex 29.718 31.736 6.5
      vertex 29.565 31.381 0
    endloop
  endfacet
  facet normal -0.91834 0.395792 0
    outer loop
      vertex 29.565 31.381 0
      vertex 29.718 31.736 6.5
      vertex 29.718 31.736 0
    endloop
  endfacet
  facet normal -0.890248 0.455476 0
    outer loop
      vertex 29.389 31.037 6.5
      vertex 29.565 31.381 6.5
      vertex 29.389 31.037 0
    endloop
  endfacet
  facet normal -0.890248 0.455476 0
    outer loop
      vertex 29.389 31.037 0
      vertex 29.565 31.381 6.5
      vertex 29.565 31.381 0
    endloop
  endfacet
  facet normal -0.861133 0.50838 0
    outer loop
      vertex 29.193 30.705 6.5
      vertex 29.389 31.037 6.5
      vertex 29.193 30.705 0
    endloop
  endfacet
  facet normal -0.861133 0.50838 0
    outer loop
      vertex 29.193 30.705 0
      vertex 29.389 31.037 6.5
      vertex 29.389 31.037 0
    endloop
  endfacet
  facet normal -0.826446 0.563016 0
    outer loop
      vertex 28.975 30.385 6.5
      vertex 29.193 30.705 6.5
      vertex 28.975 30.385 0
    endloop
  endfacet
  facet normal -0.826446 0.563016 0
    outer loop
      vertex 28.975 30.385 0
      vertex 29.193 30.705 6.5
      vertex 29.193 30.705 0
    endloop
  endfacet
  facet normal -0.790886 0.611964 0
    outer loop
      vertex 28.739 30.08 6.5
      vertex 28.975 30.385 6.5
      vertex 28.739 30.08 0
    endloop
  endfacet
  facet normal -0.790886 0.611964 0
    outer loop
      vertex 28.739 30.08 0
      vertex 28.975 30.385 6.5
      vertex 28.975 30.385 0
    endloop
  endfacet
  facet normal -0.749687 0.661793 0
    outer loop
      vertex 28.483 29.79 6.5
      vertex 28.739 30.08 6.5
      vertex 28.483 29.79 0
    endloop
  endfacet
  facet normal -0.749687 0.661793 0
    outer loop
      vertex 28.483 29.79 0
      vertex 28.739 30.08 6.5
      vertex 28.739 30.08 0
    endloop
  endfacet
  facet normal -0.707107 0.707107 0
    outer loop
      vertex 28.21 29.517 6.5
      vertex 28.483 29.79 6.5
      vertex 28.21 29.517 0
    endloop
  endfacet
  facet normal -0.707107 0.707107 0
    outer loop
      vertex 28.21 29.517 0
      vertex 28.483 29.79 6.5
      vertex 28.483 29.79 0
    endloop
  endfacet
  facet normal -0.661793 0.749687 0
    outer loop
      vertex 27.92 29.261 6.5
      vertex 28.21 29.517 6.5
      vertex 27.92 29.261 0
    endloop
  endfacet
  facet normal -0.661793 0.749687 0
    outer loop
      vertex 27.92 29.261 0
      vertex 28.21 29.517 6.5
      vertex 28.21 29.517 0
    endloop
  endfacet
  facet normal -0.611964 0.790886 0
    outer loop
      vertex 27.615 29.025 6.5
      vertex 27.92 29.261 6.5
      vertex 27.615 29.025 0
    endloop
  endfacet
  facet normal -0.611964 0.790886 0
    outer loop
      vertex 27.615 29.025 0
      vertex 27.92 29.261 6.5
      vertex 27.92 29.261 0
    endloop
  endfacet
  facet normal -0.563016 0.826446 0
    outer loop
      vertex 27.295 28.807 6.5
      vertex 27.615 29.025 6.5
      vertex 27.295 28.807 0
    endloop
  endfacet
  facet normal -0.563016 0.826446 0
    outer loop
      vertex 27.295 28.807 0
      vertex 27.615 29.025 6.5
      vertex 27.615 29.025 0
    endloop
  endfacet
  facet normal -0.50838 0.861133 0
    outer loop
      vertex 26.963 28.611 6.5
      vertex 27.295 28.807 6.5
      vertex 26.963 28.611 0
    endloop
  endfacet
  facet normal -0.50838 0.861133 0
    outer loop
      vertex 26.963 28.611 0
      vertex 27.295 28.807 6.5
      vertex 27.295 28.807 0
    endloop
  endfacet
  facet normal -0.455476 0.890248 0
    outer loop
      vertex 26.619 28.435 6.5
      vertex 26.963 28.611 6.5
      vertex 26.619 28.435 0
    endloop
  endfacet
  facet normal -0.455476 0.890248 0
    outer loop
      vertex 26.619 28.435 0
      vertex 26.963 28.611 6.5
      vertex 26.963 28.611 0
    endloop
  endfacet
  facet normal -0.395792 0.91834 0
    outer loop
      vertex 26.264 28.282 6.5
      vertex 26.619 28.435 6.5
      vertex 26.264 28.282 0
    endloop
  endfacet
  facet normal -0.395792 0.91834 0
    outer loop
      vertex 26.264 28.282 0
      vertex 26.619 28.435 6.5
      vertex 26.619 28.435 0
    endloop
  endfacet
  facet normal -0.338628 0.94092 0
    outer loop
      vertex 25.9 28.151 6.5
      vertex 26.264 28.282 6.5
      vertex 25.9 28.151 0
    endloop
  endfacet
  facet normal -0.338628 0.94092 0
    outer loop
      vertex 25.9 28.151 0
      vertex 26.264 28.282 6.5
      vertex 26.264 28.282 0
    endloop
  endfacet
  facet normal -0.279503 0.960145 0
    outer loop
      vertex 25.529 28.043 6.5
      vertex 25.9 28.151 6.5
      vertex 25.529 28.043 0
    endloop
  endfacet
  facet normal -0.279503 0.960145 0
    outer loop
      vertex 25.529 28.043 0
      vertex 25.9 28.151 6.5
      vertex 25.9 28.151 0
    endloop
  endfacet
  facet normal -0.217479 0.976065 0
    outer loop
      vertex 25.152 27.959 6.5
      vertex 25.529 28.043 6.5
      vertex 25.152 27.959 0
    endloop
  endfacet
  facet normal -0.217479 0.976065 0
    outer loop
      vertex 25.152 27.959 0
      vertex 25.529 28.043 6.5
      vertex 25.529 28.043 0
    endloop
  endfacet
  facet normal -0.158092 0.987424 0
    outer loop
      vertex 24.771 27.898 6.5
      vertex 25.152 27.959 6.5
      vertex 24.771 27.898 0
    endloop
  endfacet
  facet normal -0.158092 0.987424 0
    outer loop
      vertex 24.771 27.898 0
      vertex 25.152 27.959 6.5
      vertex 25.152 27.959 0
    endloop
  endfacet
  facet normal -0.0931004 0.995657 0
    outer loop
      vertex 24.386 27.862 6.5
      vertex 24.771 27.898 6.5
      vertex 24.386 27.862 0
    endloop
  endfacet
  facet normal -0.0931004 0.995657 0
    outer loop
      vertex 24.386 27.862 0
      vertex 24.771 27.898 6.5
      vertex 24.771 27.898 0
    endloop
  endfacet
  facet normal -0.0310731 0.999517 0
    outer loop
      vertex 24 27.85 6.5
      vertex 24.386 27.862 6.5
      vertex 24 27.85 0
    endloop
  endfacet
  facet normal -0.0310731 0.999517 0
    outer loop
      vertex 24 27.85 0
      vertex 24.386 27.862 6.5
      vertex 24.386 27.862 0
    endloop
  endfacet
  facet normal 0.0310731 0.999517 0
    outer loop
      vertex 23.614 27.862 6.5
      vertex 24 27.85 6.5
      vertex 23.614 27.862 0
    endloop
  endfacet
  facet normal 0.0310731 0.999517 0
    outer loop
      vertex 23.614 27.862 0
      vertex 24 27.85 6.5
      vertex 24 27.85 0
    endloop
  endfacet
  facet normal 0.0931004 0.995657 0
    outer loop
      vertex 23.229 27.898 6.5
      vertex 23.614 27.862 6.5
      vertex 23.229 27.898 0
    endloop
  endfacet
  facet normal 0.0931004 0.995657 0
    outer loop
      vertex 23.229 27.898 0
      vertex 23.614 27.862 6.5
      vertex 23.614 27.862 0
    endloop
  endfacet
  facet normal 0.158092 0.987424 0
    outer loop
      vertex 22.848 27.959 6.5
      vertex 23.229 27.898 6.5
      vertex 22.848 27.959 0
    endloop
  endfacet
  facet normal 0.158092 0.987424 0
    outer loop
      vertex 22.848 27.959 0
      vertex 23.229 27.898 6.5
      vertex 23.229 27.898 0
    endloop
  endfacet
  facet normal 0.217479 0.976065 0
    outer loop
      vertex 22.471 28.043 6.5
      vertex 22.848 27.959 6.5
      vertex 22.471 28.043 0
    endloop
  endfacet
  facet normal 0.217479 0.976065 0
    outer loop
      vertex 22.471 28.043 0
      vertex 22.848 27.959 6.5
      vertex 22.848 27.959 0
    endloop
  endfacet
  facet normal 0.279503 0.960145 0
    outer loop
      vertex 22.1 28.151 6.5
      vertex 22.471 28.043 6.5
      vertex 22.1 28.151 0
    endloop
  endfacet
  facet normal 0.279503 0.960145 0
    outer loop
      vertex 22.1 28.151 0
      vertex 22.471 28.043 6.5
      vertex 22.471 28.043 0
    endloop
  endfacet
  facet normal 0.338628 0.94092 0
    outer loop
      vertex 21.736 28.282 6.5
      vertex 22.1 28.151 6.5
      vertex 21.736 28.282 0
    endloop
  endfacet
  facet normal 0.338628 0.94092 0
    outer loop
      vertex 21.736 28.282 0
      vertex 22.1 28.151 6.5
      vertex 22.1 28.151 0
    endloop
  endfacet
  facet normal 0.395792 0.91834 0
    outer loop
      vertex 21.381 28.435 6.5
      vertex 21.736 28.282 6.5
      vertex 21.381 28.435 0
    endloop
  endfacet
  facet normal 0.395792 0.91834 0
    outer loop
      vertex 21.381 28.435 0
      vertex 21.736 28.282 6.5
      vertex 21.736 28.282 0
    endloop
  endfacet
  facet normal 0.455476 0.890248 0
    outer loop
      vertex 21.037 28.611 6.5
      vertex 21.381 28.435 6.5
      vertex 21.037 28.611 0
    endloop
  endfacet
  facet normal 0.455476 0.890248 0
    outer loop
      vertex 21.037 28.611 0
      vertex 21.381 28.435 6.5
      vertex 21.381 28.435 0
    endloop
  endfacet
  facet normal 0.50838 0.861133 0
    outer loop
      vertex 20.705 28.807 6.5
      vertex 21.037 28.611 6.5
      vertex 20.705 28.807 0
    endloop
  endfacet
  facet normal 0.50838 0.861133 0
    outer loop
      vertex 20.705 28.807 0
      vertex 21.037 28.611 6.5
      vertex 21.037 28.611 0
    endloop
  endfacet
  facet normal 0.563016 0.826446 0
    outer loop
      vertex 20.385 29.025 6.5
      vertex 20.705 28.807 6.5
      vertex 20.385 29.025 0
    endloop
  endfacet
  facet normal 0.563016 0.826446 0
    outer loop
      vertex 20.385 29.025 0
      vertex 20.705 28.807 6.5
      vertex 20.705 28.807 0
    endloop
  endfacet
  facet normal 0.611964 0.790886 0
    outer loop
      vertex 20.08 29.261 6.5
      vertex 20.385 29.025 6.5
      vertex 20.08 29.261 0
    endloop
  endfacet
  facet normal 0.611964 0.790886 0
    outer loop
      vertex 20.08 29.261 0
      vertex 20.385 29.025 6.5
      vertex 20.385 29.025 0
    endloop
  endfacet
  facet normal 0.661793 0.749687 0
    outer loop
      vertex 19.79 29.517 6.5
      vertex 20.08 29.261 6.5
      vertex 19.79 29.517 0
    endloop
  endfacet
  facet normal 0.661793 0.749687 0
    outer loop
      vertex 19.79 29.517 0
      vertex 20.08 29.261 6.5
      vertex 20.08 29.261 0
    endloop
  endfacet
  facet normal 0.707107 0.707107 0
    outer loop
      vertex 19.517 29.79 6.5
      vertex 19.79 29.517 6.5
      vertex 19.517 29.79 0
    endloop
  endfacet
  facet normal 0.707107 0.707107 0
    outer loop
      vertex 19.517 29.79 0
      vertex 19.79 29.517 6.5
      vertex 19.79 29.517 0
    endloop
  endfacet
  facet normal 0.749687 0.661793 0
    outer loop
      vertex 19.261 30.08 0
      vertex 19.261 30.08 6.5
      vertex 19.517 29.79 6.5
    endloop
  endfacet
  facet normal 0.749687 0.661793 0
    outer loop
      vertex 19.517 29.79 0
      vertex 19.261 30.08 0
      vertex 19.517 29.79 6.5
    endloop
  endfacet
  facet normal 0.790886 0.611964 0
    outer loop
      vertex 19.025 30.385 0
      vertex 19.025 30.385 6.5
      vertex 19.261 30.08 6.5
    endloop
  endfacet
  facet normal 0.790886 0.611964 0
    outer loop
      vertex 19.261 30.08 0
      vertex 19.025 30.385 0
      vertex 19.261 30.08 6.5
    endloop
  endfacet
  facet normal 0.826518 0.562911 0
    outer loop
      vertex 18.82 30.686 0
      vertex 18.82 30.686 6.5
      vertex 19.025 30.385 6.5
    endloop
  endfacet
  facet normal 0.826518 0.562911 0
    outer loop
      vertex 19.025 30.385 0
      vertex 18.82 30.686 0
      vertex 19.025 30.385 6.5
    endloop
  endfacet
  facet normal 0.0170707 0.999854 0
    outer loop
      vertex 18 30.7 6.5
      vertex 18.82 30.686 6.5
      vertex 18 30.7 0
    endloop
  endfacet
  facet normal 0.0170707 0.999854 0
    outer loop
      vertex 18 30.7 0
      vertex 18.82 30.686 6.5
      vertex 18.82 30.686 0
    endloop
  endfacet
  facet normal 0.0337971 0.999429 0
    outer loop
      vertex 17.793 30.707 6.5
      vertex 18 30.7 6.5
      vertex 17.793 30.707 0
    endloop
  endfacet
  facet normal 0.0337971 0.999429 0
    outer loop
      vertex 17.793 30.707 0
      vertex 18 30.7 6.5
      vertex 18 30.7 0
    endloop
  endfacet
  facet normal 0.0914032 0.995814 0
    outer loop
      vertex 17.586 30.726 6.5
      vertex 17.793 30.707 6.5
      vertex 17.586 30.726 0
    endloop
  endfacet
  facet normal 0.0914032 0.995814 0
    outer loop
      vertex 17.586 30.726 0
      vertex 17.793 30.707 6.5
      vertex 17.793 30.707 0
    endloop
  endfacet
  facet normal 0.154968 0.98792 0
    outer loop
      vertex 17.382 30.758 6.5
      vertex 17.586 30.726 6.5
      vertex 17.382 30.758 0
    endloop
  endfacet
  facet normal 0.154968 0.98792 0
    outer loop
      vertex 17.382 30.758 0
      vertex 17.586 30.726 6.5
      vertex 17.586 30.726 0
    endloop
  endfacet
  facet normal 0.220998 0.975274 0
    outer loop
      vertex 17.179 30.804 6.5
      vertex 17.382 30.758 6.5
      vertex 17.179 30.804 0
    endloop
  endfacet
  facet normal 0.220998 0.975274 0
    outer loop
      vertex 17.179 30.804 0
      vertex 17.382 30.758 6.5
      vertex 17.382 30.758 0
    endloop
  endfacet
  facet normal 0.279815 0.960054 0
    outer loop
      vertex 16.98 30.862 6.5
      vertex 17.179 30.804 6.5
      vertex 16.98 30.862 0
    endloop
  endfacet
  facet normal 0.279815 0.960054 0
    outer loop
      vertex 16.98 30.862 0
      vertex 17.179 30.804 6.5
      vertex 17.179 30.804 0
    endloop
  endfacet
  facet normal 0.337865 0.941195 0
    outer loop
      vertex 16.785 30.932 6.5
      vertex 16.98 30.862 6.5
      vertex 16.785 30.932 0
    endloop
  endfacet
  facet normal 0.337865 0.941195 0
    outer loop
      vertex 16.785 30.932 0
      vertex 16.98 30.862 6.5
      vertex 16.98 30.862 0
    endloop
  endfacet
  facet normal 0.396251 0.918142 0
    outer loop
      vertex 16.595 31.014 6.5
      vertex 16.785 30.932 6.5
      vertex 16.595 31.014 0
    endloop
  endfacet
  facet normal 0.396251 0.918142 0
    outer loop
      vertex 16.595 31.014 0
      vertex 16.785 30.932 6.5
      vertex 16.785 30.932 0
    endloop
  endfacet
  facet normal 0.452987 0.891517 0
    outer loop
      vertex 16.41 31.108 6.5
      vertex 16.595 31.014 6.5
      vertex 16.41 31.108 0
    endloop
  endfacet
  facet normal 0.452987 0.891517 0
    outer loop
      vertex 16.41 31.108 0
      vertex 16.595 31.014 6.5
      vertex 16.595 31.014 0
    endloop
  endfacet
  facet normal 0.511654 0.859192 0
    outer loop
      vertex 16.232 31.214 6.5
      vertex 16.41 31.108 6.5
      vertex 16.232 31.214 0
    endloop
  endfacet
  facet normal 0.511654 0.859192 0
    outer loop
      vertex 16.232 31.214 0
      vertex 16.41 31.108 6.5
      vertex 16.41 31.108 0
    endloop
  endfacet
  facet normal 0.559142 0.829072 0
    outer loop
      vertex 16.06 31.33 6.5
      vertex 16.232 31.214 6.5
      vertex 16.06 31.33 0
    endloop
  endfacet
  facet normal 0.559142 0.829072 0
    outer loop
      vertex 16.06 31.33 0
      vertex 16.232 31.214 6.5
      vertex 16.232 31.214 0
    endloop
  endfacet
  facet normal 0.61461 0.788831 0
    outer loop
      vertex 15.897 31.457 6.5
      vertex 16.06 31.33 6.5
      vertex 15.897 31.457 0
    endloop
  endfacet
  facet normal 0.61461 0.788831 0
    outer loop
      vertex 15.897 31.457 0
      vertex 16.06 31.33 6.5
      vertex 16.06 31.33 0
    endloop
  endfacet
  facet normal 0.659868 0.751382 0
    outer loop
      vertex 15.741 31.594 6.5
      vertex 15.897 31.457 6.5
      vertex 15.741 31.594 0
    endloop
  endfacet
  facet normal 0.659868 0.751382 0
    outer loop
      vertex 15.741 31.594 0
      vertex 15.897 31.457 6.5
      vertex 15.897 31.457 0
    endloop
  endfacet
  facet normal 0.707107 0.707107 0
    outer loop
      vertex 15.594 31.741 0
      vertex 15.594 31.741 6.5
      vertex 15.741 31.594 6.5
    endloop
  endfacet
  facet normal 0.707107 0.707107 0
    outer loop
      vertex 15.741 31.594 0
      vertex 15.594 31.741 0
      vertex 15.741 31.594 6.5
    endloop
  endfacet
  facet normal 0.751382 0.659868 0
    outer loop
      vertex 15.457 31.897 0
      vertex 15.457 31.897 6.5
      vertex 15.594 31.741 6.5
    endloop
  endfacet
  facet normal 0.751382 0.659868 0
    outer loop
      vertex 15.594 31.741 0
      vertex 15.457 31.897 0
      vertex 15.594 31.741 6.5
    endloop
  endfacet
  facet normal 0.788831 0.61461 0
    outer loop
      vertex 15.33 32.06 0
      vertex 15.33 32.06 6.5
      vertex 15.457 31.897 6.5
    endloop
  endfacet
  facet normal 0.788831 0.61461 0
    outer loop
      vertex 15.457 31.897 0
      vertex 15.33 32.06 0
      vertex 15.457 31.897 6.5
    endloop
  endfacet
  facet normal 0.829072 0.559142 0
    outer loop
      vertex 15.214 32.232 0
      vertex 15.214 32.232 6.5
      vertex 15.33 32.06 6.5
    endloop
  endfacet
  facet normal 0.829072 0.559142 0
    outer loop
      vertex 15.33 32.06 0
      vertex 15.214 32.232 0
      vertex 15.33 32.06 6.5
    endloop
  endfacet
  facet normal 0.859192 0.511654 0
    outer loop
      vertex 15.108 32.41 0
      vertex 15.108 32.41 6.5
      vertex 15.214 32.232 6.5
    endloop
  endfacet
  facet normal 0.859192 0.511654 0
    outer loop
      vertex 15.214 32.232 0
      vertex 15.108 32.41 0
      vertex 15.214 32.232 6.5
    endloop
  endfacet
  facet normal 0.891517 0.452987 0
    outer loop
      vertex 15.014 32.595 0
      vertex 15.014 32.595 6.5
      vertex 15.108 32.41 6.5
    endloop
  endfacet
  facet normal 0.891517 0.452987 0
    outer loop
      vertex 15.108 32.41 0
      vertex 15.014 32.595 0
      vertex 15.108 32.41 6.5
    endloop
  endfacet
  facet normal 0.918142 0.396251 0
    outer loop
      vertex 14.932 32.785 0
      vertex 14.932 32.785 6.5
      vertex 15.014 32.595 6.5
    endloop
  endfacet
  facet normal 0.918142 0.396251 0
    outer loop
      vertex 15.014 32.595 0
      vertex 14.932 32.785 0
      vertex 15.014 32.595 6.5
    endloop
  endfacet
  facet normal 0.941195 0.337865 0
    outer loop
      vertex 14.862 32.98 0
      vertex 14.862 32.98 6.5
      vertex 14.932 32.785 6.5
    endloop
  endfacet
  facet normal 0.941195 0.337865 0
    outer loop
      vertex 14.932 32.785 0
      vertex 14.862 32.98 0
      vertex 14.932 32.785 6.5
    endloop
  endfacet
  facet normal 0.960054 0.279815 0
    outer loop
      vertex 14.804 33.179 0
      vertex 14.804 33.179 6.5
      vertex 14.862 32.98 6.5
    endloop
  endfacet
  facet normal 0.960054 0.279815 0
    outer loop
      vertex 14.862 32.98 0
      vertex 14.804 33.179 0
      vertex 14.862 32.98 6.5
    endloop
  endfacet
  facet normal 0.975274 0.220998 0
    outer loop
      vertex 14.758 33.382 0
      vertex 14.758 33.382 6.5
      vertex 14.804 33.179 6.5
    endloop
  endfacet
  facet normal 0.975274 0.220998 0
    outer loop
      vertex 14.804 33.179 0
      vertex 14.758 33.382 0
      vertex 14.804 33.179 6.5
    endloop
  endfacet
  facet normal 0.98792 0.154968 0
    outer loop
      vertex 14.726 33.586 0
      vertex 14.726 33.586 6.5
      vertex 14.758 33.382 6.5
    endloop
  endfacet
  facet normal 0.98792 0.154968 0
    outer loop
      vertex 14.758 33.382 0
      vertex 14.726 33.586 0
      vertex 14.758 33.382 6.5
    endloop
  endfacet
  facet normal 0.995814 0.0914032 0
    outer loop
      vertex 14.707 33.793 0
      vertex 14.707 33.793 6.5
      vertex 14.726 33.586 6.5
    endloop
  endfacet
  facet normal 0.995814 0.0914032 0
    outer loop
      vertex 14.726 33.586 0
      vertex 14.707 33.793 0
      vertex 14.726 33.586 6.5
    endloop
  endfacet
endsolid OpenSCAD_Model
