solid OpenSCAD_Model
  facet normal 0 -1 0
    outer loop
      vertex 0 0 0
      vertex 40 0 0
      vertex 40 0 3
    endloop
  endfacet
  facet normal 0 -1 0
    outer loop
      vertex 0 0 3
      vertex 0 0 0
      vertex 40 0 3
    endloop
  endfacet
  facet normal 1 0 0
    outer loop
      vertex 40 0 0
      vertex 40 44 0
      vertex 40 44 3
    endloop
  endfacet
  facet normal 1 0 0
    outer loop
      vertex 40 0 3
      vertex 40 0 0
      vertex 40 44 3
    endloop
  endfacet
  facet normal 0 0 -1
    outer loop
      vertex 0 44 0
      vertex 40 44 0
      vertex 0 0 0
    endloop
  endfacet
  facet normal 0 0 -1
    outer loop
      vertex 0 0 0
      vertex 40 44 0
      vertex 40 0 0
    endloop
  endfacet
  facet normal -1 0 0
    outer loop
      vertex 0 0 3
      vertex 0 44 3
      vertex 0 0 0
    endloop
  endfacet
  facet normal -1 0 0
    outer loop
      vertex 0 0 0
      vertex 0 44 3
      vertex 0 44 0
    endloop
  endfacet
  facet normal 0 0 1
    outer loop
      vertex 0 0 3
      vertex 40 0 3
      vertex 40 44 3
    endloop
  endfacet
  facet normal 0 0 1
    outer loop
      vertex 0 44 3
      vertex 0 0 3
      vertex 40 44 3
    endloop
  endfacet
  facet normal 0 1 0
    outer loop
      vertex 0 44 3
      vertex 40 44 3
      vertex 0 44 0
    endloop
  endfacet
  facet normal 0 1 0
    outer loop
      vertex 0 44 0
      vertex 40 44 3
      vertex 40 44 0
    endloop
  endfacet
endsolid OpenSCAD_Model
