solid OpenSCAD_Model
  facet normal -0.999496 -0.03173 0
    outer loop
      vertex 0 2 0
      vertex 0.004 1.874 0
      vertex 0 2 4
    endloop
  endfacet
  facet normal -0.999496 -0.03173 0
    outer loop
      vertex 0 2 4
      vertex 0.004 1.874 0
      vertex 0.004 1.874 4
    endloop
  endfacet
  facet normal 0 0 -1
    outer loop
      vertex 0 2 0
      vertex 0 42 0
      vertex 0.004 1.874 0
    endloop
  endfacet
  facet normal 0 0 -1
    outer loop
      vertex 0.004 1.874 0
      vertex 0 42 0
      vertex 0.004 42.126 0
    endloop
  endfacet
  facet normal 0 0 -1
    outer loop
      vertex 0.004 1.874 0
      vertex 0.004 42.126 0
      vertex 0.016 42.251 0
    endloop
  endfacet
  facet normal 0 0 -1
    outer loop
      vertex 0.004 1.874 0
      vertex 0.016 42.251 0
      vertex 0.035 42.375 0
    endloop
  endfacet
  facet normal 0 0 -1
    outer loop
      vertex 0.004 1.874 0
      vertex 0.035 42.375 0
      vertex 0.063 42.497 0
    endloop
  endfacet
  facet normal 0 0 -1
    outer loop
      vertex 0.004 1.874 0
      vertex 0.063 42.497 0
      vertex 0.098 42.618 0
    endloop
  endfacet
  facet normal 0 0 -1
    outer loop
      vertex 0.004 1.874 0
      vertex 0.098 42.618 0
      vertex 0.14 42.736 0
    endloop
  endfacet
  facet normal 0 0 -1
    outer loop
      vertex 0.004 1.874 0
      vertex 0.14 42.736 0
      vertex 0.19 42.852 0
    endloop
  endfacet
  facet normal 0 0 -1
    outer loop
      vertex 0.004 1.874 0
      vertex 0.19 42.852 0
      vertex 0.247 42.964 0
    endloop
  endfacet
  facet normal 0 0 -1
    outer loop
      vertex 0.004 1.874 0
      vertex 0.247 42.964 0
      vertex 0.311 43.072 0
    endloop
  endfacet
  facet normal 0 0 -1
    outer loop
      vertex 0.004 1.874 0
      vertex 0.311 43.072 0
      vertex 0.382 43.176 0
    endloop
  endfacet
  facet normal 0 0 -1
    outer loop
      vertex 0.004 1.874 0
      vertex 0.382 43.176 0
      vertex 0.459 43.275 0
    endloop
  endfacet
  facet normal 0 0 -1
    outer loop
      vertex 0.004 1.874 0
      vertex 0.459 43.275 0
      vertex 0.542 43.369 0
    endloop
  endfacet
  facet normal 0 0 -1
    outer loop
      vertex 0.004 1.874 0
      vertex 0.542 43.369 0
      vertex 0.631 43.458 0
    endloop
  endfacet
  facet normal 0 0 -1
    outer loop
      vertex 0.004 1.874 0
      vertex 0.631 43.458 0
      vertex 0.725 43.541 0
    endloop
  endfacet
  facet normal 0 0 -1
    outer loop
      vertex 0.004 1.874 0
      vertex 0.725 43.541 0
      vertex 0.824 43.618 0
    endloop
  endfacet
  facet normal 0 0 -1
    outer loop
      vertex 0.004 1.874 0
      vertex 0.824 43.618 0
      vertex 0.928 43.689 0
    endloop
  endfacet
  facet normal 0 0 -1
    outer loop
      vertex 0.004 1.874 0
      vertex 0.928 43.689 0
      vertex 1.036 43.753 0
    endloop
  endfacet
  facet normal 0 0 -1
    outer loop
      vertex 0.004 1.874 0
      vertex 1.036 43.753 0
      vertex 1.148 43.81 0
    endloop
  endfacet
  facet normal 0 0 -1
    outer loop
      vertex 0.004 1.874 0
      vertex 1.148 43.81 0
      vertex 1.264 43.86 0
    endloop
  endfacet
  facet normal 0 0 -1
    outer loop
      vertex 0.004 1.874 0
      vertex 1.264 43.86 0
      vertex 1.382 43.902 0
    endloop
  endfacet
  facet normal 0 0 -1
    outer loop
      vertex 0.004 1.874 0
      vertex 1.382 43.902 0
      vertex 1.503 43.937 0
    endloop
  endfacet
  facet normal 0 0 -1
    outer loop
      vertex 0.004 1.874 0
      vertex 1.503 43.937 0
      vertex 1.625 43.965 0
    endloop
  endfacet
  facet normal 0 0 -1
    outer loop
      vertex 0.004 1.874 0
      vertex 1.625 43.965 0
      vertex 1.749 43.984 0
    endloop
  endfacet
  facet normal 0 0 -1
    outer loop
      vertex 0.004 1.874 0
      vertex 1.749 43.984 0
      vertex 1.874 43.996 0
    endloop
  endfacet
  facet normal 0 0 -1
    outer loop
      vertex 0.004 1.874 0
      vertex 1.874 43.996 0
      vertex 2 44 0
    endloop
  endfacet
  facet normal 0 0 -1
    outer loop
      vertex 0.004 1.874 0
      vertex 2 44 0
      vertex 40 44 0
    endloop
  endfacet
  facet normal 0 0 -1
    outer loop
      vertex 0.004 1.874 0
      vertex 40 44 0
      vertex 40.126 43.996 0
    endloop
  endfacet
  facet normal 0 0 -1
    outer loop
      vertex 0.004 1.874 0
      vertex 40.126 43.996 0
      vertex 40.251 43.984 0
    endloop
  endfacet
  facet normal 0 0 -1
    outer loop
      vertex 0.004 1.874 0
      vertex 40.251 43.984 0
      vertex 40.375 43.965 0
    endloop
  endfacet
  facet normal 0 0 -1
    outer loop
      vertex 0.004 1.874 0
      vertex 40.375 43.965 0
      vertex 40.497 43.937 0
    endloop
  endfacet
  facet normal 0 0 -1
    outer loop
      vertex 0.004 1.874 0
      vertex 40.497 43.937 0
      vertex 40.618 43.902 0
    endloop
  endfacet
  facet normal 0 0 -1
    outer loop
      vertex 0.004 1.874 0
      vertex 40.618 43.902 0
      vertex 40.736 43.86 0
    endloop
  endfacet
  facet normal 0 0 -1
    outer loop
      vertex 0.004 1.874 0
      vertex 40.736 43.86 0
      vertex 40.852 43.81 0
    endloop
  endfacet
  facet normal 0 0 -1
    outer loop
      vertex 0.004 1.874 0
      vertex 40.852 43.81 0
      vertex 40.964 43.753 0
    endloop
  endfacet
  facet normal 0 0 -1
    outer loop
      vertex 0.004 1.874 0
      vertex 40.964 43.753 0
      vertex 41.072 43.689 0
    endloop
  endfacet
  facet normal 0 0 -1
    outer loop
      vertex 0.004 1.874 0
      vertex 41.072 43.689 0
      vertex 41.176 43.618 0
    endloop
  endfacet
  facet normal 0 0 -1
    outer loop
      vertex 0.004 1.874 0
      vertex 41.176 43.618 0
      vertex 41.275 43.541 0
    endloop
  endfacet
  facet normal 0 0 -1
    outer loop
      vertex 0.004 1.874 0
      vertex 41.275 43.541 0
      vertex 41.369 43.458 0
    endloop
  endfacet
  facet normal 0 0 -1
    outer loop
      vertex 0.004 1.874 0
      vertex 41.369 43.458 0
      vertex 41.458 43.369 0
    endloop
  endfacet
  facet normal 0 0 -1
    outer loop
      vertex 0.004 1.874 0
      vertex 41.458 43.369 0
      vertex 41.541 43.275 0
    endloop
  endfacet
  facet normal 0 0 -1
    outer loop
      vertex 0.004 1.874 0
      vertex 41.541 43.275 0
      vertex 41.618 43.176 0
    endloop
  endfacet
  facet normal 0 0 -1
    outer loop
      vertex 0.004 1.874 0
      vertex 41.618 43.176 0
      vertex 41.689 43.072 0
    endloop
  endfacet
  facet normal 0 0 -1
    outer loop
      vertex 0.004 1.874 0
      vertex 41.689 43.072 0
      vertex 41.753 42.964 0
    endloop
  endfacet
  facet normal 0 0 -1
    outer loop
      vertex 0.004 1.874 0
      vertex 41.753 42.964 0
      vertex 41.81 42.852 0
    endloop
  endfacet
  facet normal 0 0 -1
    outer loop
      vertex 0.004 1.874 0
      vertex 41.81 42.852 0
      vertex 41.86 42.736 0
    endloop
  endfacet
  facet normal 0 0 -1
    outer loop
      vertex 0.004 1.874 0
      vertex 41.86 42.736 0
      vertex 41.902 42.618 0
    endloop
  endfacet
  facet normal 0 0 -1
    outer loop
      vertex 0.004 1.874 0
      vertex 41.902 42.618 0
      vertex 41.937 42.497 0
    endloop
  endfacet
  facet normal 0 0 -1
    outer loop
      vertex 0.004 1.874 0
      vertex 41.937 42.497 0
      vertex 41.965 42.375 0
    endloop
  endfacet
  facet normal 0 0 -1
    outer loop
      vertex 0.004 1.874 0
      vertex 41.965 42.375 0
      vertex 41.984 42.251 0
    endloop
  endfacet
  facet normal 0 0 -1
    outer loop
      vertex 0.004 1.874 0
      vertex 41.984 42.251 0
      vertex 41.996 42.126 0
    endloop
  endfacet
  facet normal 0 0 -1
    outer loop
      vertex 0.004 1.874 0
      vertex 41.996 42.126 0
      vertex 42 42 0
    endloop
  endfacet
  facet normal 0 0 -1
    outer loop
      vertex 0.004 1.874 0
      vertex 42 42 0
      vertex 42 2 0
    endloop
  endfacet
  facet normal 0 0 -1
    outer loop
      vertex 0.004 1.874 0
      vertex 42 2 0
      vertex 41.996 1.874 0
    endloop
  endfacet
  facet normal 0 0 -1
    outer loop
      vertex 0.004 1.874 0
      vertex 41.996 1.874 0
      vertex 41.984 1.749 0
    endloop
  endfacet
  facet normal 0 0 -1
    outer loop
      vertex 0.004 1.874 0
      vertex 41.984 1.749 0
      vertex 41.965 1.625 0
    endloop
  endfacet
  facet normal 0 0 -1
    outer loop
      vertex 0.004 1.874 0
      vertex 41.965 1.625 0
      vertex 41.937 1.503 0
    endloop
  endfacet
  facet normal 0 0 -1
    outer loop
      vertex 0.004 1.874 0
      vertex 41.937 1.503 0
      vertex 41.902 1.382 0
    endloop
  endfacet
  facet normal 0 0 -1
    outer loop
      vertex 0.004 1.874 0
      vertex 41.902 1.382 0
      vertex 41.86 1.264 0
    endloop
  endfacet
  facet normal 0 0 -1
    outer loop
      vertex 0.004 1.874 0
      vertex 41.86 1.264 0
      vertex 41.81 1.148 0
    endloop
  endfacet
  facet normal 0 0 -1
    outer loop
      vertex 0.004 1.874 0
      vertex 41.81 1.148 0
      vertex 41.753 1.036 0
    endloop
  endfacet
  facet normal 0 0 -1
    outer loop
      vertex 0.004 1.874 0
      vertex 41.753 1.036 0
      vertex 41.689 0.928 0
    endloop
  endfacet
  facet normal 0 0 -1
    outer loop
      vertex 0.004 1.874 0
      vertex 41.689 0.928 0
      vertex 41.618 0.824 0
    endloop
  endfacet
  facet normal 0 0 -1
    outer loop
      vertex 0.004 1.874 0
      vertex 41.618 0.824 0
      vertex 41.541 0.725 0
    endloop
  endfacet
  facet normal 0 0 -1
    outer loop
      vertex 0.004 1.874 0
      vertex 41.541 0.725 0
      vertex 41.458 0.631 0
    endloop
  endfacet
  facet normal 0 0 -1
    outer loop
      vertex 0.004 1.874 0
      vertex 41.458 0.631 0
      vertex 41.369 0.542 0
    endloop
  endfacet
  facet normal 0 0 -1
    outer loop
      vertex 0.004 1.874 0
      vertex 41.369 0.542 0
      vertex 41.275 0.459 0
    endloop
  endfacet
  facet normal 0 0 -1
    outer loop
      vertex 0.004 1.874 0
      vertex 41.275 0.459 0
      vertex 41.176 0.382 0
    endloop
  endfacet
  facet normal 0 0 -1
    outer loop
      vertex 0.004 1.874 0
      vertex 41.176 0.382 0
      vertex 41.072 0.311 0
    endloop
  endfacet
  facet normal 0 0 -1
    outer loop
      vertex 0.004 1.874 0
      vertex 41.072 0.311 0
      vertex 40.964 0.247 0
    endloop
  endfacet
  facet normal 0 0 -1
    outer loop
      vertex 0.004 1.874 0
      vertex 40.964 0.247 0
      vertex 40.852 0.19 0
    endloop
  endfacet
  facet normal 0 0 -1
    outer loop
      vertex 0.004 1.874 0
      vertex 40.852 0.19 0
      vertex 40.736 0.14 0
    endloop
  endfacet
  facet normal 0 0 -1
    outer loop
      vertex 0.004 1.874 0
      vertex 40.736 0.14 0
      vertex 40.618 0.098 0
    endloop
  endfacet
  facet normal 0 0 -1
    outer loop
      vertex 0.004 1.874 0
      vertex 40.618 0.098 0
      vertex 40.497 0.063 0
    endloop
  endfacet
  facet normal 0 0 -1
    outer loop
      vertex 0.004 1.874 0
      vertex 40.497 0.063 0
      vertex 40.375 0.035 0
    endloop
  endfacet
  facet normal 0 0 -1
    outer loop
      vertex 0.004 1.874 0
      vertex 40.375 0.035 0
      vertex 40.251 0.016 0
    endloop
  endfacet
  facet normal 0 0 -1
    outer loop
      vertex 0.004 1.874 0
      vertex 40.251 0.016 0
      vertex 40.126 0.004 0
    endloop
  endfacet
  facet normal 0 0 -1
    outer loop
      vertex 0.004 1.874 0
      vertex 40.126 0.004 0
      vertex 40 0 0
    endloop
  endfacet
  facet normal 0 0 -1
    outer loop
      vertex 0.004 1.874 0
      vertex 40 0 0
      vertex 2 0 0
    endloop
  endfacet
  facet normal 0 0 -1
    outer loop
      vertex 0.004 1.874 0
      vertex 2 0 0
      vertex 1.874 0.004 0
    endloop
  endfacet
  facet normal 0 0 -1
    outer loop
      vertex 0.004 1.874 0
      vertex 1.874 0.004 0
      vertex 1.749 0.016 0
    endloop
  endfacet
  facet normal 0 0 -1
    outer loop
      vertex 0.004 1.874 0
      vertex 1.749 0.016 0
      vertex 1.625 0.035 0
    endloop
  endfacet
  facet normal 0 0 -1
    outer loop
      vertex 0.004 1.874 0
      vertex 1.625 0.035 0
      vertex 1.503 0.063 0
    endloop
  endfacet
  facet normal 0 0 -1
    outer loop
      vertex 0.004 1.874 0
      vertex 1.503 0.063 0
      vertex 1.382 0.098 0
    endloop
  endfacet
  facet normal 0 0 -1
    outer loop
      vertex 0.004 1.874 0
      vertex 1.382 0.098 0
      vertex 1.264 0.14 0
    endloop
  endfacet
  facet normal 0 0 -1
    outer loop
      vertex 0.004 1.874 0
      vertex 1.264 0.14 0
      vertex 1.148 0.19 0
    endloop
  endfacet
  facet normal 0 0 -1
    outer loop
      vertex 0.004 1.874 0
      vertex 1.148 0.19 0
      vertex 1.036 0.247 0
    endloop
  endfacet
  facet normal 0 0 -1
    outer loop
      vertex 0.004 1.874 0
      vertex 1.036 0.247 0
      vertex 0.928 0.311 0
    endloop
  endfacet
  facet normal 0 0 -1
    outer loop
      vertex 0.004 1.874 0
      vertex 0.928 0.311 0
      vertex 0.824 0.382 0
    endloop
  endfacet
  facet normal 0 0 -1
    outer loop
      vertex 0.004 1.874 0
      vertex 0.824 0.382 0
      vertex 0.725 0.459 0
    endloop
  endfacet
  facet normal 0 0 -1
    outer loop
      vertex 0.004 1.874 0
      vertex 0.725 0.459 0
      vertex 0.631 0.542 0
    endloop
  endfacet
  facet normal 0 0 -1
    outer loop
      vertex 0.004 1.874 0
      vertex 0.631 0.542 0
      vertex 0.542 0.631 0
    endloop
  endfacet
  facet normal 0 0 -1
    outer loop
      vertex 0.004 1.874 0
      vertex 0.542 0.631 0
      vertex 0.459 0.725 0
    endloop
  endfacet
  facet normal 0 0 -1
    outer loop
      vertex 0.004 1.874 0
      vertex 0.459 0.725 0
      vertex 0.382 0.824 0
    endloop
  endfacet
  facet normal 0 0 -1
    outer loop
      vertex 0.004 1.874 0
      vertex 0.382 0.824 0
      vertex 0.311 0.928 0
    endloop
  endfacet
  facet normal 0 0 -1
    outer loop
      vertex 0.004 1.874 0
      vertex 0.311 0.928 0
      vertex 0.247 1.036 0
    endloop
  endfacet
  facet normal 0 0 -1
    outer loop
      vertex 0.004 1.874 0
      vertex 0.247 1.036 0
      vertex 0.19 1.148 0
    endloop
  endfacet
  facet normal 0 0 -1
    outer loop
      vertex 0.004 1.874 0
      vertex 0.19 1.148 0
      vertex 0.14 1.264 0
    endloop
  endfacet
  facet normal 0 0 -1
    outer loop
      vertex 0.004 1.874 0
      vertex 0.14 1.264 0
      vertex 0.098 1.382 0
    endloop
  endfacet
  facet normal 0 0 -1
    outer loop
      vertex 0.004 1.874 0
      vertex 0.098 1.382 0
      vertex 0.063 1.503 0
    endloop
  endfacet
  facet normal 0 0 -1
    outer loop
      vertex 0.004 1.874 0
      vertex 0.063 1.503 0
      vertex 0.035 1.625 0
    endloop
  endfacet
  facet normal 0 0 -1
    outer loop
      vertex 0.004 1.874 0
      vertex 0.035 1.625 0
      vertex 0.016 1.749 0
    endloop
  endfacet
  facet normal -1 0 0
    outer loop
      vertex 0 2 0
      vertex 0 2 4
      vertex 0 42 0
    endloop
  endfacet
  facet normal -1 0 0
    outer loop
      vertex 0 25.99 2
      vertex 0 2 4
      vertex 0 25.99 4
    endloop
  endfacet
  facet normal -1 0 0
    outer loop
      vertex 0 42 0
      vertex 0 2 4
      vertex 0 25.99 2
    endloop
  endfacet
  facet normal -1 0 0
    outer loop
      vertex 0 42 2
      vertex 0 42 0
      vertex 0 25.99 2
    endloop
  endfacet
  facet normal 0 0 1
    outer loop
      vertex 0 25.99 4
      vertex 0 2 4
      vertex 0.004 1.874 4
    endloop
  endfacet
  facet normal 0 0 1
    outer loop
      vertex 0.035 1.625 4
      vertex 0 25.99 4
      vertex 0.016 1.749 4
    endloop
  endfacet
  facet normal 0 0 1
    outer loop
      vertex 0.016 1.749 4
      vertex 0 25.99 4
      vertex 0.004 1.874 4
    endloop
  endfacet
  facet normal 0 0 1
    outer loop
      vertex 0.063 1.503 4
      vertex 0 25.99 4
      vertex 0.035 1.625 4
    endloop
  endfacet
  facet normal 0 0 1
    outer loop
      vertex 0.098 1.382 4
      vertex 0 25.99 4
      vertex 0.063 1.503 4
    endloop
  endfacet
  facet normal 0 0 1
    outer loop
      vertex 0.14 1.264 4
      vertex 0 25.99 4
      vertex 0.098 1.382 4
    endloop
  endfacet
  facet normal 0 0 1
    outer loop
      vertex 0.19 1.148 4
      vertex 0 25.99 4
      vertex 0.14 1.264 4
    endloop
  endfacet
  facet normal 0 0 1
    outer loop
      vertex 0.247 1.036 4
      vertex 0 25.99 4
      vertex 0.19 1.148 4
    endloop
  endfacet
  facet normal 0 0 1
    outer loop
      vertex 0.311 0.928 4
      vertex 0 25.99 4
      vertex 0.247 1.036 4
    endloop
  endfacet
  facet normal 0 0 1
    outer loop
      vertex 0.382 0.824 4
      vertex 0 25.99 4
      vertex 0.311 0.928 4
    endloop
  endfacet
  facet normal 0 0 1
    outer loop
      vertex 0.459 0.725 4
      vertex 0 25.99 4
      vertex 0.382 0.824 4
    endloop
  endfacet
  facet normal 0 0 1
    outer loop
      vertex 0.542 0.631 4
      vertex 0 25.99 4
      vertex 0.459 0.725 4
    endloop
  endfacet
  facet normal 0 0 1
    outer loop
      vertex 0.631 0.542 4
      vertex 0 25.99 4
      vertex 0.542 0.631 4
    endloop
  endfacet
  facet normal 0 0 1
    outer loop
      vertex 0.725 0.459 4
      vertex 0 25.99 4
      vertex 0.631 0.542 4
    endloop
  endfacet
  facet normal 0 0 1
    outer loop
      vertex 0.824 0.382 4
      vertex 0 25.99 4
      vertex 0.725 0.459 4
    endloop
  endfacet
  facet normal 0 0 1
    outer loop
      vertex 0.928 0.311 4
      vertex 0 25.99 4
      vertex 0.824 0.382 4
    endloop
  endfacet
  facet normal 0 0 1
    outer loop
      vertex 1.036 0.247 4
      vertex 0 25.99 4
      vertex 0.928 0.311 4
    endloop
  endfacet
  facet normal 0 0 1
    outer loop
      vertex 1.148 0.19 4
      vertex 0 25.99 4
      vertex 1.036 0.247 4
    endloop
  endfacet
  facet normal 0 0 1
    outer loop
      vertex 1.264 0.14 4
      vertex 0 25.99 4
      vertex 1.148 0.19 4
    endloop
  endfacet
  facet normal 0 0 1
    outer loop
      vertex 1.382 0.098 4
      vertex 0 25.99 4
      vertex 1.264 0.14 4
    endloop
  endfacet
  facet normal 0 0 1
    outer loop
      vertex 1.503 0.063 4
      vertex 0 25.99 4
      vertex 1.382 0.098 4
    endloop
  endfacet
  facet normal 0 0 1
    outer loop
      vertex 1.625 0.035 4
      vertex 0 25.99 4
      vertex 1.503 0.063 4
    endloop
  endfacet
  facet normal 0 0 1
    outer loop
      vertex 1.749 0.016 4
      vertex 0 25.99 4
      vertex 1.625 0.035 4
    endloop
  endfacet
  facet normal 0 0 1
    outer loop
      vertex 1.874 0.004 4
      vertex 0 25.99 4
      vertex 1.749 0.016 4
    endloop
  endfacet
  facet normal 0 0 1
    outer loop
      vertex 2 0 4
      vertex 0 25.99 4
      vertex 1.874 0.004 4
    endloop
  endfacet
  facet normal 0 0 1
    outer loop
      vertex 40 0 4
      vertex 0 25.99 4
      vertex 2 0 4
    endloop
  endfacet
  facet normal 0 0 1
    outer loop
      vertex 40.126 0.004 4
      vertex 0 25.99 4
      vertex 40 0 4
    endloop
  endfacet
  facet normal 0 0 1
    outer loop
      vertex 40.251 0.016 4
      vertex 0 25.99 4
      vertex 40.126 0.004 4
    endloop
  endfacet
  facet normal 0 0 1
    outer loop
      vertex 40.375 0.035 4
      vertex 0 25.99 4
      vertex 40.251 0.016 4
    endloop
  endfacet
  facet normal 0 0 1
    outer loop
      vertex 40.497 0.063 4
      vertex 0 25.99 4
      vertex 40.375 0.035 4
    endloop
  endfacet
  facet normal 0 0 1
    outer loop
      vertex 40.618 0.098 4
      vertex 0 25.99 4
      vertex 40.497 0.063 4
    endloop
  endfacet
  facet normal 0 0 1
    outer loop
      vertex 40.736 0.14 4
      vertex 0 25.99 4
      vertex 40.618 0.098 4
    endloop
  endfacet
  facet normal 0 0 1
    outer loop
      vertex 40.852 0.19 4
      vertex 0 25.99 4
      vertex 40.736 0.14 4
    endloop
  endfacet
  facet normal 0 0 1
    outer loop
      vertex 40.964 0.247 4
      vertex 0 25.99 4
      vertex 40.852 0.19 4
    endloop
  endfacet
  facet normal 0 0 1
    outer loop
      vertex 41.072 0.311 4
      vertex 0 25.99 4
      vertex 40.964 0.247 4
    endloop
  endfacet
  facet normal 0 0 1
    outer loop
      vertex 41.176 0.382 4
      vertex 0 25.99 4
      vertex 41.072 0.311 4
    endloop
  endfacet
  facet normal 0 0 1
    outer loop
      vertex 41.275 0.459 4
      vertex 0 25.99 4
      vertex 41.176 0.382 4
    endloop
  endfacet
  facet normal 0 0 1
    outer loop
      vertex 41.369 0.542 4
      vertex 0 25.99 4
      vertex 41.275 0.459 4
    endloop
  endfacet
  facet normal 0 0 1
    outer loop
      vertex 41.458 0.631 4
      vertex 0 25.99 4
      vertex 41.369 0.542 4
    endloop
  endfacet
  facet normal 0 0 1
    outer loop
      vertex 41.541 0.725 4
      vertex 0 25.99 4
      vertex 41.458 0.631 4
    endloop
  endfacet
  facet normal 0 0 1
    outer loop
      vertex 41.618 0.824 4
      vertex 0 25.99 4
      vertex 41.541 0.725 4
    endloop
  endfacet
  facet normal 0 0 1
    outer loop
      vertex 41.689 0.928 4
      vertex 0 25.99 4
      vertex 41.618 0.824 4
    endloop
  endfacet
  facet normal 0 0 1
    outer loop
      vertex 41.753 1.036 4
      vertex 0 25.99 4
      vertex 41.689 0.928 4
    endloop
  endfacet
  facet normal 0 0 1
    outer loop
      vertex 41.81 1.148 4
      vertex 0 25.99 4
      vertex 41.753 1.036 4
    endloop
  endfacet
  facet normal 0 0 1
    outer loop
      vertex 41.86 1.264 4
      vertex 0 25.99 4
      vertex 41.81 1.148 4
    endloop
  endfacet
  facet normal 0 0 1
    outer loop
      vertex 41.902 1.382 4
      vertex 0 25.99 4
      vertex 41.86 1.264 4
    endloop
  endfacet
  facet normal 0 0 1
    outer loop
      vertex 41.937 1.503 4
      vertex 0 25.99 4
      vertex 41.902 1.382 4
    endloop
  endfacet
  facet normal 0 0 1
    outer loop
      vertex 41.965 1.625 4
      vertex 0 25.99 4
      vertex 41.937 1.503 4
    endloop
  endfacet
  facet normal 0 0 1
    outer loop
      vertex 41.984 1.749 4
      vertex 0 25.99 4
      vertex 41.965 1.625 4
    endloop
  endfacet
  facet normal 0 0 1
    outer loop
      vertex 41.996 1.874 4
      vertex 0 25.99 4
      vertex 41.984 1.749 4
    endloop
  endfacet
  facet normal 0 0 1
    outer loop
      vertex 42 2 4
      vertex 0 25.99 4
      vertex 41.996 1.874 4
    endloop
  endfacet
  facet normal 0 0 1
    outer loop
      vertex 37 25.99 4
      vertex 0 25.99 4
      vertex 42 2 4
    endloop
  endfacet
  facet normal 0 0 1
    outer loop
      vertex 37 42.01 4
      vertex 41.176 43.618 4
      vertex 41.072 43.689 4
    endloop
  endfacet
  facet normal 0 0 1
    outer loop
      vertex 37 42.01 4
      vertex 41.275 43.541 4
      vertex 41.176 43.618 4
    endloop
  endfacet
  facet normal 0 0 1
    outer loop
      vertex 37 42.01 4
      vertex 41.369 43.458 4
      vertex 41.275 43.541 4
    endloop
  endfacet
  facet normal 0 0 1
    outer loop
      vertex 37 42.01 4
      vertex 41.458 43.369 4
      vertex 41.369 43.458 4
    endloop
  endfacet
  facet normal 0 0 1
    outer loop
      vertex 37 42.01 4
      vertex 41.541 43.275 4
      vertex 41.458 43.369 4
    endloop
  endfacet
  facet normal 0 0 1
    outer loop
      vertex 37 42.01 4
      vertex 41.618 43.176 4
      vertex 41.541 43.275 4
    endloop
  endfacet
  facet normal 0 0 1
    outer loop
      vertex 37 42.01 4
      vertex 41.689 43.072 4
      vertex 41.618 43.176 4
    endloop
  endfacet
  facet normal 0 0 1
    outer loop
      vertex 37 42.01 4
      vertex 41.753 42.964 4
      vertex 41.689 43.072 4
    endloop
  endfacet
  facet normal 0 0 1
    outer loop
      vertex 37 42.01 4
      vertex 41.81 42.852 4
      vertex 41.753 42.964 4
    endloop
  endfacet
  facet normal 0 0 1
    outer loop
      vertex 37 42.01 4
      vertex 41.86 42.736 4
      vertex 41.81 42.852 4
    endloop
  endfacet
  facet normal 0 0 1
    outer loop
      vertex 37 42.01 4
      vertex 41.902 42.618 4
      vertex 41.86 42.736 4
    endloop
  endfacet
  facet normal 0 0 1
    outer loop
      vertex 37 42.01 4
      vertex 41.937 42.497 4
      vertex 41.902 42.618 4
    endloop
  endfacet
  facet normal 0 0 1
    outer loop
      vertex 37 42.01 4
      vertex 41.965 42.375 4
      vertex 41.937 42.497 4
    endloop
  endfacet
  facet normal 0 0 1
    outer loop
      vertex 37 42.01 4
      vertex 41.984 42.251 4
      vertex 41.965 42.375 4
    endloop
  endfacet
  facet normal 0 0 1
    outer loop
      vertex 37 42.01 4
      vertex 41.996 42.126 4
      vertex 41.984 42.251 4
    endloop
  endfacet
  facet normal 0 0 1
    outer loop
      vertex 37 42.01 4
      vertex 42 42 4
      vertex 41.996 42.126 4
    endloop
  endfacet
  facet normal 0 0 1
    outer loop
      vertex 37 42.01 4
      vertex 37 25.99 4
      vertex 42 42 4
    endloop
  endfacet
  facet normal 0 0 1
    outer loop
      vertex 40.964 43.753 4
      vertex 37 42.01 4
      vertex 41.072 43.689 4
    endloop
  endfacet
  facet normal 0 0 1
    outer loop
      vertex 42 42 4
      vertex 37 25.99 4
      vertex 42 2 4
    endloop
  endfacet
  facet normal 0 0 1
    outer loop
      vertex 0.00031746 42.01 4
      vertex 0.016 42.251 4
      vertex 0.004 42.126 4
    endloop
  endfacet
  facet normal 0 0 1
    outer loop
      vertex 0.00031746 42.01 4
      vertex 0.035 42.375 4
      vertex 0.016 42.251 4
    endloop
  endfacet
  facet normal 0 0 1
    outer loop
      vertex 0.00031746 42.01 4
      vertex 0.063 42.497 4
      vertex 0.035 42.375 4
    endloop
  endfacet
  facet normal 0 0 1
    outer loop
      vertex 0.00031746 42.01 4
      vertex 0.098 42.618 4
      vertex 0.063 42.497 4
    endloop
  endfacet
  facet normal 0 0 1
    outer loop
      vertex 0.00031746 42.01 4
      vertex 0.14 42.736 4
      vertex 0.098 42.618 4
    endloop
  endfacet
  facet normal 0 0 1
    outer loop
      vertex 0.00031746 42.01 4
      vertex 0.19 42.852 4
      vertex 0.14 42.736 4
    endloop
  endfacet
  facet normal 0 0 1
    outer loop
      vertex 0.00031746 42.01 4
      vertex 0.247 42.964 4
      vertex 0.19 42.852 4
    endloop
  endfacet
  facet normal 0 0 1
    outer loop
      vertex 0.00031746 42.01 4
      vertex 0.311 43.072 4
      vertex 0.247 42.964 4
    endloop
  endfacet
  facet normal 0 0 1
    outer loop
      vertex 0.00031746 42.01 4
      vertex 0.382 43.176 4
      vertex 0.311 43.072 4
    endloop
  endfacet
  facet normal 0 0 1
    outer loop
      vertex 0.00031746 42.01 4
      vertex 0.459 43.275 4
      vertex 0.382 43.176 4
    endloop
  endfacet
  facet normal 0 0 1
    outer loop
      vertex 0.00031746 42.01 4
      vertex 0.542 43.369 4
      vertex 0.459 43.275 4
    endloop
  endfacet
  facet normal 0 0 1
    outer loop
      vertex 0.00031746 42.01 4
      vertex 0.631 43.458 4
      vertex 0.542 43.369 4
    endloop
  endfacet
  facet normal 0 0 1
    outer loop
      vertex 0.00031746 42.01 4
      vertex 0.725 43.541 4
      vertex 0.631 43.458 4
    endloop
  endfacet
  facet normal 0 0 1
    outer loop
      vertex 0.00031746 42.01 4
      vertex 0.824 43.618 4
      vertex 0.725 43.541 4
    endloop
  endfacet
  facet normal 0 0 1
    outer loop
      vertex 0.00031746 42.01 4
      vertex 0.928 43.689 4
      vertex 0.824 43.618 4
    endloop
  endfacet
  facet normal 0 0 1
    outer loop
      vertex 0.00031746 42.01 4
      vertex 1.036 43.753 4
      vertex 0.928 43.689 4
    endloop
  endfacet
  facet normal 0 0 1
    outer loop
      vertex 0.00031746 42.01 4
      vertex 1.148 43.81 4
      vertex 1.036 43.753 4
    endloop
  endfacet
  facet normal 0 0 1
    outer loop
      vertex 0.00031746 42.01 4
      vertex 1.264 43.86 4
      vertex 1.148 43.81 4
    endloop
  endfacet
  facet normal 0 0 1
    outer loop
      vertex 0.00031746 42.01 4
      vertex 1.382 43.902 4
      vertex 1.264 43.86 4
    endloop
  endfacet
  facet normal 0 0 1
    outer loop
      vertex 0.00031746 42.01 4
      vertex 1.503 43.937 4
      vertex 1.382 43.902 4
    endloop
  endfacet
  facet normal 0 0 1
    outer loop
      vertex 0.00031746 42.01 4
      vertex 1.625 43.965 4
      vertex 1.503 43.937 4
    endloop
  endfacet
  facet normal 0 0 1
    outer loop
      vertex 0.00031746 42.01 4
      vertex 1.749 43.984 4
      vertex 1.625 43.965 4
    endloop
  endfacet
  facet normal 0 0 1
    outer loop
      vertex 0.00031746 42.01 4
      vertex 1.874 43.996 4
      vertex 1.749 43.984 4
    endloop
  endfacet
  facet normal 0 0 1
    outer loop
      vertex 0.00031746 42.01 4
      vertex 2 44 4
      vertex 1.874 43.996 4
    endloop
  endfacet
  facet normal 0 0 1
    outer loop
      vertex 0.00031746 42.01 4
      vertex 40 44 4
      vertex 2 44 4
    endloop
  endfacet
  facet normal 0 0 1
    outer loop
      vertex 0.00031746 42.01 4
      vertex 40.126 43.996 4
      vertex 40 44 4
    endloop
  endfacet
  facet normal 0 0 1
    outer loop
      vertex 0.00031746 42.01 4
      vertex 40.251 43.984 4
      vertex 40.126 43.996 4
    endloop
  endfacet
  facet normal 0 0 1
    outer loop
      vertex 0.00031746 42.01 4
      vertex 40.375 43.965 4
      vertex 40.251 43.984 4
    endloop
  endfacet
  facet normal 0 0 1
    outer loop
      vertex 0.00031746 42.01 4
      vertex 40.497 43.937 4
      vertex 40.375 43.965 4
    endloop
  endfacet
  facet normal 0 0 1
    outer loop
      vertex 0.00031746 42.01 4
      vertex 40.618 43.902 4
      vertex 40.497 43.937 4
    endloop
  endfacet
  facet normal 0 0 1
    outer loop
      vertex 0.00031746 42.01 4
      vertex 40.736 43.86 4
      vertex 40.618 43.902 4
    endloop
  endfacet
  facet normal 0 0 1
    outer loop
      vertex 0.00031746 42.01 4
      vertex 40.852 43.81 4
      vertex 40.736 43.86 4
    endloop
  endfacet
  facet normal 0 0 1
    outer loop
      vertex 0.00031746 42.01 4
      vertex 40.964 43.753 4
      vertex 40.852 43.81 4
    endloop
  endfacet
  facet normal 0 0 1
    outer loop
      vertex 0.00031746 42.01 4
      vertex 37 42.01 4
      vertex 40.964 43.753 4
    endloop
  endfacet
  facet normal -0.995424 -0.0955607 0
    outer loop
      vertex 0.004 1.874 0
      vertex 0.016 1.749 0
      vertex 0.004 1.874 4
    endloop
  endfacet
  facet normal -0.995424 -0.0955607 0
    outer loop
      vertex 0.004 1.874 4
      vertex 0.016 1.749 0
      vertex 0.016 1.749 4
    endloop
  endfacet
  facet normal -0.988464 -0.151458 0
    outer loop
      vertex 0.016 1.749 0
      vertex 0.035 1.625 0
      vertex 0.016 1.749 4
    endloop
  endfacet
  facet normal -0.988464 -0.151458 0
    outer loop
      vertex 0.016 1.749 4
      vertex 0.035 1.625 0
      vertex 0.035 1.625 4
    endloop
  endfacet
  facet normal -0.97466 -0.223692 0
    outer loop
      vertex 0.035 1.625 0
      vertex 0.063 1.503 0
      vertex 0.035 1.625 4
    endloop
  endfacet
  facet normal -0.97466 -0.223692 0
    outer loop
      vertex 0.035 1.625 4
      vertex 0.063 1.503 0
      vertex 0.063 1.503 4
    endloop
  endfacet
  facet normal -0.96062 -0.277865 0
    outer loop
      vertex 0.063 1.503 0
      vertex 0.098 1.382 0
      vertex 0.063 1.503 4
    endloop
  endfacet
  facet normal -0.96062 -0.277865 0
    outer loop
      vertex 0.063 1.503 4
      vertex 0.098 1.382 0
      vertex 0.098 1.382 4
    endloop
  endfacet
  facet normal -0.942103 -0.335325 0
    outer loop
      vertex 0.098 1.382 0
      vertex 0.14 1.264 0
      vertex 0.098 1.382 4
    endloop
  endfacet
  facet normal -0.942103 -0.335325 0
    outer loop
      vertex 0.098 1.382 4
      vertex 0.14 1.264 0
      vertex 0.14 1.264 4
    endloop
  endfacet
  facet normal -0.918324 -0.395829 0
    outer loop
      vertex 0.14 1.264 0
      vertex 0.19 1.148 0
      vertex 0.14 1.264 4
    endloop
  endfacet
  facet normal -0.918324 -0.395829 0
    outer loop
      vertex 0.14 1.264 4
      vertex 0.19 1.148 0
      vertex 0.19 1.148 4
    endloop
  endfacet
  facet normal -0.891222 -0.453568 0
    outer loop
      vertex 0.19 1.148 0
      vertex 0.247 1.036 0
      vertex 0.19 1.148 4
    endloop
  endfacet
  facet normal -0.891222 -0.453568 0
    outer loop
      vertex 0.19 1.148 4
      vertex 0.247 1.036 0
      vertex 0.247 1.036 4
    endloop
  endfacet
  facet normal -0.860292 -0.509802 0
    outer loop
      vertex 0.247 1.036 0
      vertex 0.311 0.928 0
      vertex 0.247 1.036 4
    endloop
  endfacet
  facet normal -0.860292 -0.509802 0
    outer loop
      vertex 0.247 1.036 4
      vertex 0.311 0.928 0
      vertex 0.311 0.928 4
    endloop
  endfacet
  facet normal -0.825891 -0.56383 0
    outer loop
      vertex 0.311 0.928 0
      vertex 0.382 0.824 0
      vertex 0.311 0.928 4
    endloop
  endfacet
  facet normal -0.825891 -0.56383 0
    outer loop
      vertex 0.311 0.928 4
      vertex 0.382 0.824 0
      vertex 0.382 0.824 4
    endloop
  endfacet
  facet normal -0.789352 -0.613941 0
    outer loop
      vertex 0.382 0.824 0
      vertex 0.459 0.725 0
      vertex 0.382 0.824 4
    endloop
  endfacet
  facet normal -0.789352 -0.613941 0
    outer loop
      vertex 0.382 0.824 4
      vertex 0.459 0.725 0
      vertex 0.459 0.725 4
    endloop
  endfacet
  facet normal -0.749605 -0.661885 0
    outer loop
      vertex 0.459 0.725 0
      vertex 0.542 0.631 0
      vertex 0.459 0.725 4
    endloop
  endfacet
  facet normal -0.749605 -0.661885 0
    outer loop
      vertex 0.459 0.725 4
      vertex 0.542 0.631 0
      vertex 0.542 0.631 4
    endloop
  endfacet
  facet normal -0.707107 -0.707107 0
    outer loop
      vertex 0.542 0.631 4
      vertex 0.542 0.631 0
      vertex 0.631 0.542 0
    endloop
  endfacet
  facet normal -0.707107 -0.707107 0
    outer loop
      vertex 0.631 0.542 4
      vertex 0.542 0.631 4
      vertex 0.631 0.542 0
    endloop
  endfacet
  facet normal -0.661885 -0.749605 0
    outer loop
      vertex 0.631 0.542 4
      vertex 0.631 0.542 0
      vertex 0.725 0.459 0
    endloop
  endfacet
  facet normal -0.661885 -0.749605 0
    outer loop
      vertex 0.725 0.459 4
      vertex 0.631 0.542 4
      vertex 0.725 0.459 0
    endloop
  endfacet
  facet normal -0.613941 -0.789352 0
    outer loop
      vertex 0.725 0.459 4
      vertex 0.725 0.459 0
      vertex 0.824 0.382 0
    endloop
  endfacet
  facet normal -0.613941 -0.789352 0
    outer loop
      vertex 0.824 0.382 4
      vertex 0.725 0.459 4
      vertex 0.824 0.382 0
    endloop
  endfacet
  facet normal -0.56383 -0.825891 0
    outer loop
      vertex 0.824 0.382 4
      vertex 0.824 0.382 0
      vertex 0.928 0.311 0
    endloop
  endfacet
  facet normal -0.56383 -0.825891 0
    outer loop
      vertex 0.928 0.311 4
      vertex 0.824 0.382 4
      vertex 0.928 0.311 0
    endloop
  endfacet
  facet normal -0.509802 -0.860292 0
    outer loop
      vertex 0.928 0.311 4
      vertex 0.928 0.311 0
      vertex 1.036 0.247 0
    endloop
  endfacet
  facet normal -0.509802 -0.860292 0
    outer loop
      vertex 1.036 0.247 4
      vertex 0.928 0.311 4
      vertex 1.036 0.247 0
    endloop
  endfacet
  facet normal -0.453568 -0.891222 0
    outer loop
      vertex 1.036 0.247 4
      vertex 1.036 0.247 0
      vertex 1.148 0.19 0
    endloop
  endfacet
  facet normal -0.453568 -0.891222 0
    outer loop
      vertex 1.148 0.19 4
      vertex 1.036 0.247 4
      vertex 1.148 0.19 0
    endloop
  endfacet
  facet normal -0.395829 -0.918324 0
    outer loop
      vertex 1.148 0.19 4
      vertex 1.148 0.19 0
      vertex 1.264 0.14 0
    endloop
  endfacet
  facet normal -0.395829 -0.918324 0
    outer loop
      vertex 1.264 0.14 4
      vertex 1.148 0.19 4
      vertex 1.264 0.14 0
    endloop
  endfacet
  facet normal -0.335325 -0.942103 0
    outer loop
      vertex 1.264 0.14 4
      vertex 1.264 0.14 0
      vertex 1.382 0.098 0
    endloop
  endfacet
  facet normal -0.335325 -0.942103 0
    outer loop
      vertex 1.382 0.098 4
      vertex 1.264 0.14 4
      vertex 1.382 0.098 0
    endloop
  endfacet
  facet normal -0.277865 -0.96062 0
    outer loop
      vertex 1.382 0.098 4
      vertex 1.382 0.098 0
      vertex 1.503 0.063 0
    endloop
  endfacet
  facet normal -0.277865 -0.96062 0
    outer loop
      vertex 1.503 0.063 4
      vertex 1.382 0.098 4
      vertex 1.503 0.063 0
    endloop
  endfacet
  facet normal -0.223692 -0.97466 0
    outer loop
      vertex 1.503 0.063 4
      vertex 1.503 0.063 0
      vertex 1.625 0.035 0
    endloop
  endfacet
  facet normal -0.223692 -0.97466 0
    outer loop
      vertex 1.625 0.035 4
      vertex 1.503 0.063 4
      vertex 1.625 0.035 0
    endloop
  endfacet
  facet normal -0.151458 -0.988464 0
    outer loop
      vertex 1.625 0.035 4
      vertex 1.625 0.035 0
      vertex 1.749 0.016 0
    endloop
  endfacet
  facet normal -0.151458 -0.988464 0
    outer loop
      vertex 1.749 0.016 4
      vertex 1.625 0.035 4
      vertex 1.749 0.016 0
    endloop
  endfacet
  facet normal -0.0955607 -0.995424 0
    outer loop
      vertex 1.749 0.016 4
      vertex 1.749 0.016 0
      vertex 1.874 0.004 0
    endloop
  endfacet
  facet normal -0.0955607 -0.995424 0
    outer loop
      vertex 1.874 0.004 4
      vertex 1.749 0.016 4
      vertex 1.874 0.004 0
    endloop
  endfacet
  facet normal -0.03173 -0.999496 0
    outer loop
      vertex 1.874 0.004 4
      vertex 1.874 0.004 0
      vertex 2 0 0
    endloop
  endfacet
  facet normal -0.03173 -0.999496 0
    outer loop
      vertex 2 0 4
      vertex 1.874 0.004 4
      vertex 2 0 0
    endloop
  endfacet
  facet normal 0 -1 0
    outer loop
      vertex 2 0 4
      vertex 2 0 0
      vertex 40 0 0
    endloop
  endfacet
  facet normal 0 -1 0
    outer loop
      vertex 40 0 4
      vertex 2 0 4
      vertex 40 0 0
    endloop
  endfacet
  facet normal 0.03173 -0.999496 0
    outer loop
      vertex 40 0 4
      vertex 40 0 0
      vertex 40.126 0.004 0
    endloop
  endfacet
  facet normal 0.03173 -0.999496 0
    outer loop
      vertex 40.126 0.004 4
      vertex 40 0 4
      vertex 40.126 0.004 0
    endloop
  endfacet
  facet normal 0.0955607 -0.995424 0
    outer loop
      vertex 40.126 0.004 4
      vertex 40.126 0.004 0
      vertex 40.251 0.016 0
    endloop
  endfacet
  facet normal 0.0955607 -0.995424 0
    outer loop
      vertex 40.251 0.016 4
      vertex 40.126 0.004 4
      vertex 40.251 0.016 0
    endloop
  endfacet
  facet normal 0.151458 -0.988464 0
    outer loop
      vertex 40.251 0.016 4
      vertex 40.251 0.016 0
      vertex 40.375 0.035 0
    endloop
  endfacet
  facet normal 0.151458 -0.988464 0
    outer loop
      vertex 40.375 0.035 4
      vertex 40.251 0.016 4
      vertex 40.375 0.035 0
    endloop
  endfacet
  facet normal 0.223692 -0.97466 0
    outer loop
      vertex 40.375 0.035 4
      vertex 40.375 0.035 0
      vertex 40.497 0.063 0
    endloop
  endfacet
  facet normal 0.223692 -0.97466 0
    outer loop
      vertex 40.497 0.063 4
      vertex 40.375 0.035 4
      vertex 40.497 0.063 0
    endloop
  endfacet
  facet normal 0.277865 -0.96062 0
    outer loop
      vertex 40.497 0.063 4
      vertex 40.497 0.063 0
      vertex 40.618 0.098 0
    endloop
  endfacet
  facet normal 0.277865 -0.96062 0
    outer loop
      vertex 40.618 0.098 4
      vertex 40.497 0.063 4
      vertex 40.618 0.098 0
    endloop
  endfacet
  facet normal 0.335325 -0.942103 0
    outer loop
      vertex 40.618 0.098 4
      vertex 40.618 0.098 0
      vertex 40.736 0.14 0
    endloop
  endfacet
  facet normal 0.335325 -0.942103 0
    outer loop
      vertex 40.736 0.14 4
      vertex 40.618 0.098 4
      vertex 40.736 0.14 0
    endloop
  endfacet
  facet normal 0.395829 -0.918324 0
    outer loop
      vertex 40.736 0.14 4
      vertex 40.736 0.14 0
      vertex 40.852 0.19 0
    endloop
  endfacet
  facet normal 0.395829 -0.918324 0
    outer loop
      vertex 40.852 0.19 4
      vertex 40.736 0.14 4
      vertex 40.852 0.19 0
    endloop
  endfacet
  facet normal 0.453568 -0.891222 0
    outer loop
      vertex 40.852 0.19 4
      vertex 40.852 0.19 0
      vertex 40.964 0.247 0
    endloop
  endfacet
  facet normal 0.453568 -0.891222 0
    outer loop
      vertex 40.964 0.247 4
      vertex 40.852 0.19 4
      vertex 40.964 0.247 0
    endloop
  endfacet
  facet normal 0.509802 -0.860292 0
    outer loop
      vertex 40.964 0.247 4
      vertex 40.964 0.247 0
      vertex 41.072 0.311 0
    endloop
  endfacet
  facet normal 0.509802 -0.860292 0
    outer loop
      vertex 41.072 0.311 4
      vertex 40.964 0.247 4
      vertex 41.072 0.311 0
    endloop
  endfacet
  facet normal 0.56383 -0.825891 0
    outer loop
      vertex 41.072 0.311 4
      vertex 41.072 0.311 0
      vertex 41.176 0.382 0
    endloop
  endfacet
  facet normal 0.56383 -0.825891 0
    outer loop
      vertex 41.176 0.382 4
      vertex 41.072 0.311 4
      vertex 41.176 0.382 0
    endloop
  endfacet
  facet normal 0.613941 -0.789352 0
    outer loop
      vertex 41.176 0.382 4
      vertex 41.176 0.382 0
      vertex 41.275 0.459 0
    endloop
  endfacet
  facet normal 0.613941 -0.789352 0
    outer loop
      vertex 41.275 0.459 4
      vertex 41.176 0.382 4
      vertex 41.275 0.459 0
    endloop
  endfacet
  facet normal 0.661885 -0.749605 0
    outer loop
      vertex 41.275 0.459 4
      vertex 41.275 0.459 0
      vertex 41.369 0.542 0
    endloop
  endfacet
  facet normal 0.661885 -0.749605 0
    outer loop
      vertex 41.369 0.542 4
      vertex 41.275 0.459 4
      vertex 41.369 0.542 0
    endloop
  endfacet
  facet normal 0.707107 -0.707107 0
    outer loop
      vertex 41.369 0.542 4
      vertex 41.369 0.542 0
      vertex 41.458 0.631 0
    endloop
  endfacet
  facet normal 0.707107 -0.707107 0
    outer loop
      vertex 41.458 0.631 4
      vertex 41.369 0.542 4
      vertex 41.458 0.631 0
    endloop
  endfacet
  facet normal 0.749605 -0.661885 0
    outer loop
      vertex 41.458 0.631 4
      vertex 41.458 0.631 0
      vertex 41.541 0.725 0
    endloop
  endfacet
  facet normal 0.749605 -0.661885 0
    outer loop
      vertex 41.541 0.725 4
      vertex 41.458 0.631 4
      vertex 41.541 0.725 0
    endloop
  endfacet
  facet normal 0.789352 -0.613941 0
    outer loop
      vertex 41.541 0.725 4
      vertex 41.541 0.725 0
      vertex 41.618 0.824 0
    endloop
  endfacet
  facet normal 0.789352 -0.613941 0
    outer loop
      vertex 41.618 0.824 4
      vertex 41.541 0.725 4
      vertex 41.618 0.824 0
    endloop
  endfacet
  facet normal 0.825891 -0.56383 0
    outer loop
      vertex 41.618 0.824 4
      vertex 41.618 0.824 0
      vertex 41.689 0.928 0
    endloop
  endfacet
  facet normal 0.825891 -0.56383 0
    outer loop
      vertex 41.689 0.928 4
      vertex 41.618 0.824 4
      vertex 41.689 0.928 0
    endloop
  endfacet
  facet normal 0.860292 -0.509802 0
    outer loop
      vertex 41.689 0.928 4
      vertex 41.689 0.928 0
      vertex 41.753 1.036 0
    endloop
  endfacet
  facet normal 0.860292 -0.509802 0
    outer loop
      vertex 41.753 1.036 4
      vertex 41.689 0.928 4
      vertex 41.753 1.036 0
    endloop
  endfacet
  facet normal 0.891222 -0.453568 0
    outer loop
      vertex 41.753 1.036 4
      vertex 41.753 1.036 0
      vertex 41.81 1.148 0
    endloop
  endfacet
  facet normal 0.891222 -0.453568 0
    outer loop
      vertex 41.81 1.148 4
      vertex 41.753 1.036 4
      vertex 41.81 1.148 0
    endloop
  endfacet
  facet normal 0.918324 -0.395829 0
    outer loop
      vertex 41.81 1.148 4
      vertex 41.81 1.148 0
      vertex 41.86 1.264 0
    endloop
  endfacet
  facet normal 0.918324 -0.395829 0
    outer loop
      vertex 41.86 1.264 4
      vertex 41.81 1.148 4
      vertex 41.86 1.264 0
    endloop
  endfacet
  facet normal 0.942103 -0.335325 0
    outer loop
      vertex 41.86 1.264 4
      vertex 41.86 1.264 0
      vertex 41.902 1.382 0
    endloop
  endfacet
  facet normal 0.942103 -0.335325 0
    outer loop
      vertex 41.902 1.382 4
      vertex 41.86 1.264 4
      vertex 41.902 1.382 0
    endloop
  endfacet
  facet normal 0.96062 -0.277865 0
    outer loop
      vertex 41.902 1.382 4
      vertex 41.902 1.382 0
      vertex 41.937 1.503 0
    endloop
  endfacet
  facet normal 0.96062 -0.277865 0
    outer loop
      vertex 41.937 1.503 4
      vertex 41.902 1.382 4
      vertex 41.937 1.503 0
    endloop
  endfacet
  facet normal 0.97466 -0.223692 0
    outer loop
      vertex 41.937 1.503 4
      vertex 41.937 1.503 0
      vertex 41.965 1.625 0
    endloop
  endfacet
  facet normal 0.97466 -0.223692 0
    outer loop
      vertex 41.965 1.625 4
      vertex 41.937 1.503 4
      vertex 41.965 1.625 0
    endloop
  endfacet
  facet normal 0.988464 -0.151458 0
    outer loop
      vertex 41.965 1.625 4
      vertex 41.965 1.625 0
      vertex 41.984 1.749 0
    endloop
  endfacet
  facet normal 0.988464 -0.151458 0
    outer loop
      vertex 41.984 1.749 4
      vertex 41.965 1.625 4
      vertex 41.984 1.749 0
    endloop
  endfacet
  facet normal 0.995424 -0.0955607 0
    outer loop
      vertex 41.984 1.749 4
      vertex 41.984 1.749 0
      vertex 41.996 1.874 0
    endloop
  endfacet
  facet normal 0.995424 -0.0955607 0
    outer loop
      vertex 41.996 1.874 4
      vertex 41.984 1.749 4
      vertex 41.996 1.874 0
    endloop
  endfacet
  facet normal 0.999496 -0.03173 0
    outer loop
      vertex 41.996 1.874 4
      vertex 41.996 1.874 0
      vertex 42 2 0
    endloop
  endfacet
  facet normal 0.999496 -0.03173 0
    outer loop
      vertex 42 2 4
      vertex 41.996 1.874 4
      vertex 42 2 0
    endloop
  endfacet
  facet normal 1 0 0
    outer loop
      vertex 42 2 4
      vertex 42 2 0
      vertex 42 42 0
    endloop
  endfacet
  facet normal 1 0 0
    outer loop
      vertex 42 42 4
      vertex 42 2 4
      vertex 42 42 0
    endloop
  endfacet
  facet normal 0.999496 0.03173 0
    outer loop
      vertex 42 42 0
      vertex 41.996 42.126 0
      vertex 41.996 42.126 4
    endloop
  endfacet
  facet normal 0.999496 0.03173 0
    outer loop
      vertex 42 42 4
      vertex 42 42 0
      vertex 41.996 42.126 4
    endloop
  endfacet
  facet normal 0.995424 0.0955607 0
    outer loop
      vertex 41.996 42.126 0
      vertex 41.984 42.251 0
      vertex 41.984 42.251 4
    endloop
  endfacet
  facet normal 0.995424 0.0955607 0
    outer loop
      vertex 41.996 42.126 4
      vertex 41.996 42.126 0
      vertex 41.984 42.251 4
    endloop
  endfacet
  facet normal 0.988464 0.151458 0
    outer loop
      vertex 41.984 42.251 0
      vertex 41.965 42.375 0
      vertex 41.965 42.375 4
    endloop
  endfacet
  facet normal 0.988464 0.151458 0
    outer loop
      vertex 41.984 42.251 4
      vertex 41.984 42.251 0
      vertex 41.965 42.375 4
    endloop
  endfacet
  facet normal 0.97466 0.223692 0
    outer loop
      vertex 41.965 42.375 0
      vertex 41.937 42.497 0
      vertex 41.937 42.497 4
    endloop
  endfacet
  facet normal 0.97466 0.223692 0
    outer loop
      vertex 41.965 42.375 4
      vertex 41.965 42.375 0
      vertex 41.937 42.497 4
    endloop
  endfacet
  facet normal 0.96062 0.277865 0
    outer loop
      vertex 41.937 42.497 0
      vertex 41.902 42.618 0
      vertex 41.902 42.618 4
    endloop
  endfacet
  facet normal 0.96062 0.277865 0
    outer loop
      vertex 41.937 42.497 4
      vertex 41.937 42.497 0
      vertex 41.902 42.618 4
    endloop
  endfacet
  facet normal 0.942103 0.335325 0
    outer loop
      vertex 41.902 42.618 0
      vertex 41.86 42.736 0
      vertex 41.86 42.736 4
    endloop
  endfacet
  facet normal 0.942103 0.335325 0
    outer loop
      vertex 41.902 42.618 4
      vertex 41.902 42.618 0
      vertex 41.86 42.736 4
    endloop
  endfacet
  facet normal 0.918324 0.395829 0
    outer loop
      vertex 41.86 42.736 0
      vertex 41.81 42.852 0
      vertex 41.81 42.852 4
    endloop
  endfacet
  facet normal 0.918324 0.395829 0
    outer loop
      vertex 41.86 42.736 4
      vertex 41.86 42.736 0
      vertex 41.81 42.852 4
    endloop
  endfacet
  facet normal 0.891222 0.453568 0
    outer loop
      vertex 41.81 42.852 0
      vertex 41.753 42.964 0
      vertex 41.753 42.964 4
    endloop
  endfacet
  facet normal 0.891222 0.453568 0
    outer loop
      vertex 41.81 42.852 4
      vertex 41.81 42.852 0
      vertex 41.753 42.964 4
    endloop
  endfacet
  facet normal 0.860292 0.509802 0
    outer loop
      vertex 41.753 42.964 0
      vertex 41.689 43.072 0
      vertex 41.689 43.072 4
    endloop
  endfacet
  facet normal 0.860292 0.509802 0
    outer loop
      vertex 41.753 42.964 4
      vertex 41.753 42.964 0
      vertex 41.689 43.072 4
    endloop
  endfacet
  facet normal 0.825891 0.56383 0
    outer loop
      vertex 41.689 43.072 0
      vertex 41.618 43.176 0
      vertex 41.618 43.176 4
    endloop
  endfacet
  facet normal 0.825891 0.56383 0
    outer loop
      vertex 41.689 43.072 4
      vertex 41.689 43.072 0
      vertex 41.618 43.176 4
    endloop
  endfacet
  facet normal 0.789352 0.613941 0
    outer loop
      vertex 41.618 43.176 0
      vertex 41.541 43.275 0
      vertex 41.541 43.275 4
    endloop
  endfacet
  facet normal 0.789352 0.613941 0
    outer loop
      vertex 41.618 43.176 4
      vertex 41.618 43.176 0
      vertex 41.541 43.275 4
    endloop
  endfacet
  facet normal 0.749605 0.661885 0
    outer loop
      vertex 41.541 43.275 0
      vertex 41.458 43.369 0
      vertex 41.458 43.369 4
    endloop
  endfacet
  facet normal 0.749605 0.661885 0
    outer loop
      vertex 41.541 43.275 4
      vertex 41.541 43.275 0
      vertex 41.458 43.369 4
    endloop
  endfacet
  facet normal 0.707107 0.707107 0
    outer loop
      vertex 41.369 43.458 0
      vertex 41.369 43.458 4
      vertex 41.458 43.369 0
    endloop
  endfacet
  facet normal 0.707107 0.707107 0
    outer loop
      vertex 41.458 43.369 0
      vertex 41.369 43.458 4
      vertex 41.458 43.369 4
    endloop
  endfacet
  facet normal 0.661885 0.749605 0
    outer loop
      vertex 41.275 43.541 0
      vertex 41.275 43.541 4
      vertex 41.369 43.458 0
    endloop
  endfacet
  facet normal 0.661885 0.749605 0
    outer loop
      vertex 41.369 43.458 0
      vertex 41.275 43.541 4
      vertex 41.369 43.458 4
    endloop
  endfacet
  facet normal 0.613941 0.789352 0
    outer loop
      vertex 41.176 43.618 0
      vertex 41.176 43.618 4
      vertex 41.275 43.541 0
    endloop
  endfacet
  facet normal 0.613941 0.789352 0
    outer loop
      vertex 41.275 43.541 0
      vertex 41.176 43.618 4
      vertex 41.275 43.541 4
    endloop
  endfacet
  facet normal 0.56383 0.825891 0
    outer loop
      vertex 41.072 43.689 0
      vertex 41.072 43.689 4
      vertex 41.176 43.618 0
    endloop
  endfacet
  facet normal 0.56383 0.825891 0
    outer loop
      vertex 41.176 43.618 0
      vertex 41.072 43.689 4
      vertex 41.176 43.618 4
    endloop
  endfacet
  facet normal 0.509802 0.860292 0
    outer loop
      vertex 40.964 43.753 0
      vertex 40.964 43.753 4
      vertex 41.072 43.689 0
    endloop
  endfacet
  facet normal 0.509802 0.860292 0
    outer loop
      vertex 41.072 43.689 0
      vertex 40.964 43.753 4
      vertex 41.072 43.689 4
    endloop
  endfacet
  facet normal 0.453568 0.891222 0
    outer loop
      vertex 40.852 43.81 0
      vertex 40.852 43.81 4
      vertex 40.964 43.753 0
    endloop
  endfacet
  facet normal 0.453568 0.891222 0
    outer loop
      vertex 40.964 43.753 0
      vertex 40.852 43.81 4
      vertex 40.964 43.753 4
    endloop
  endfacet
  facet normal 0.395829 0.918324 0
    outer loop
      vertex 40.736 43.86 0
      vertex 40.736 43.86 4
      vertex 40.852 43.81 0
    endloop
  endfacet
  facet normal 0.395829 0.918324 0
    outer loop
      vertex 40.852 43.81 0
      vertex 40.736 43.86 4
      vertex 40.852 43.81 4
    endloop
  endfacet
  facet normal 0.335325 0.942103 0
    outer loop
      vertex 40.618 43.902 0
      vertex 40.618 43.902 4
      vertex 40.736 43.86 0
    endloop
  endfacet
  facet normal 0.335325 0.942103 0
    outer loop
      vertex 40.736 43.86 0
      vertex 40.618 43.902 4
      vertex 40.736 43.86 4
    endloop
  endfacet
  facet normal 0.277865 0.96062 0
    outer loop
      vertex 40.497 43.937 0
      vertex 40.497 43.937 4
      vertex 40.618 43.902 0
    endloop
  endfacet
  facet normal 0.277865 0.96062 0
    outer loop
      vertex 40.618 43.902 0
      vertex 40.497 43.937 4
      vertex 40.618 43.902 4
    endloop
  endfacet
  facet normal 0.223692 0.97466 0
    outer loop
      vertex 40.375 43.965 0
      vertex 40.375 43.965 4
      vertex 40.497 43.937 0
    endloop
  endfacet
  facet normal 0.223692 0.97466 0
    outer loop
      vertex 40.497 43.937 0
      vertex 40.375 43.965 4
      vertex 40.497 43.937 4
    endloop
  endfacet
  facet normal 0.151458 0.988464 0
    outer loop
      vertex 40.251 43.984 0
      vertex 40.251 43.984 4
      vertex 40.375 43.965 0
    endloop
  endfacet
  facet normal 0.151458 0.988464 0
    outer loop
      vertex 40.375 43.965 0
      vertex 40.251 43.984 4
      vertex 40.375 43.965 4
    endloop
  endfacet
  facet normal 0.0955607 0.995424 0
    outer loop
      vertex 40.126 43.996 0
      vertex 40.126 43.996 4
      vertex 40.251 43.984 0
    endloop
  endfacet
  facet normal 0.0955607 0.995424 0
    outer loop
      vertex 40.251 43.984 0
      vertex 40.126 43.996 4
      vertex 40.251 43.984 4
    endloop
  endfacet
  facet normal 0.03173 0.999496 0
    outer loop
      vertex 40 44 0
      vertex 40 44 4
      vertex 40.126 43.996 0
    endloop
  endfacet
  facet normal 0.03173 0.999496 0
    outer loop
      vertex 40.126 43.996 0
      vertex 40 44 4
      vertex 40.126 43.996 4
    endloop
  endfacet
  facet normal 0 1 0
    outer loop
      vertex 2 44 0
      vertex 2 44 4
      vertex 40 44 0
    endloop
  endfacet
  facet normal 0 1 0
    outer loop
      vertex 40 44 0
      vertex 2 44 4
      vertex 40 44 4
    endloop
  endfacet
  facet normal -0.03173 0.999496 0
    outer loop
      vertex 1.874 43.996 0
      vertex 1.874 43.996 4
      vertex 2 44 0
    endloop
  endfacet
  facet normal -0.03173 0.999496 0
    outer loop
      vertex 2 44 0
      vertex 1.874 43.996 4
      vertex 2 44 4
    endloop
  endfacet
  facet normal -0.0955607 0.995424 0
    outer loop
      vertex 1.749 43.984 0
      vertex 1.749 43.984 4
      vertex 1.874 43.996 0
    endloop
  endfacet
  facet normal -0.0955607 0.995424 0
    outer loop
      vertex 1.874 43.996 0
      vertex 1.749 43.984 4
      vertex 1.874 43.996 4
    endloop
  endfacet
  facet normal -0.151458 0.988464 0
    outer loop
      vertex 1.625 43.965 0
      vertex 1.625 43.965 4
      vertex 1.749 43.984 0
    endloop
  endfacet
  facet normal -0.151458 0.988464 0
    outer loop
      vertex 1.749 43.984 0
      vertex 1.625 43.965 4
      vertex 1.749 43.984 4
    endloop
  endfacet
  facet normal -0.223692 0.97466 0
    outer loop
      vertex 1.503 43.937 0
      vertex 1.503 43.937 4
      vertex 1.625 43.965 0
    endloop
  endfacet
  facet normal -0.223692 0.97466 0
    outer loop
      vertex 1.625 43.965 0
      vertex 1.503 43.937 4
      vertex 1.625 43.965 4
    endloop
  endfacet
  facet normal -0.277865 0.96062 0
    outer loop
      vertex 1.382 43.902 0
      vertex 1.382 43.902 4
      vertex 1.503 43.937 0
    endloop
  endfacet
  facet normal -0.277865 0.96062 0
    outer loop
      vertex 1.503 43.937 0
      vertex 1.382 43.902 4
      vertex 1.503 43.937 4
    endloop
  endfacet
  facet normal -0.335325 0.942103 0
    outer loop
      vertex 1.264 43.86 0
      vertex 1.264 43.86 4
      vertex 1.382 43.902 0
    endloop
  endfacet
  facet normal -0.335325 0.942103 0
    outer loop
      vertex 1.382 43.902 0
      vertex 1.264 43.86 4
      vertex 1.382 43.902 4
    endloop
  endfacet
  facet normal -0.395829 0.918324 0
    outer loop
      vertex 1.148 43.81 0
      vertex 1.148 43.81 4
      vertex 1.264 43.86 0
    endloop
  endfacet
  facet normal -0.395829 0.918324 0
    outer loop
      vertex 1.264 43.86 0
      vertex 1.148 43.81 4
      vertex 1.264 43.86 4
    endloop
  endfacet
  facet normal -0.453568 0.891222 0
    outer loop
      vertex 1.036 43.753 0
      vertex 1.036 43.753 4
      vertex 1.148 43.81 0
    endloop
  endfacet
  facet normal -0.453568 0.891222 0
    outer loop
      vertex 1.148 43.81 0
      vertex 1.036 43.753 4
      vertex 1.148 43.81 4
    endloop
  endfacet
  facet normal -0.509802 0.860292 0
    outer loop
      vertex 0.928 43.689 0
      vertex 0.928 43.689 4
      vertex 1.036 43.753 0
    endloop
  endfacet
  facet normal -0.509802 0.860292 0
    outer loop
      vertex 1.036 43.753 0
      vertex 0.928 43.689 4
      vertex 1.036 43.753 4
    endloop
  endfacet
  facet normal -0.56383 0.825891 0
    outer loop
      vertex 0.824 43.618 0
      vertex 0.824 43.618 4
      vertex 0.928 43.689 0
    endloop
  endfacet
  facet normal -0.56383 0.825891 0
    outer loop
      vertex 0.928 43.689 0
      vertex 0.824 43.618 4
      vertex 0.928 43.689 4
    endloop
  endfacet
  facet normal -0.613941 0.789352 0
    outer loop
      vertex 0.725 43.541 0
      vertex 0.725 43.541 4
      vertex 0.824 43.618 0
    endloop
  endfacet
  facet normal -0.613941 0.789352 0
    outer loop
      vertex 0.824 43.618 0
      vertex 0.725 43.541 4
      vertex 0.824 43.618 4
    endloop
  endfacet
  facet normal -0.661885 0.749605 0
    outer loop
      vertex 0.631 43.458 0
      vertex 0.631 43.458 4
      vertex 0.725 43.541 0
    endloop
  endfacet
  facet normal -0.661885 0.749605 0
    outer loop
      vertex 0.725 43.541 0
      vertex 0.631 43.458 4
      vertex 0.725 43.541 4
    endloop
  endfacet
  facet normal -0.707107 0.707107 0
    outer loop
      vertex 0.542 43.369 0
      vertex 0.542 43.369 4
      vertex 0.631 43.458 0
    endloop
  endfacet
  facet normal -0.707107 0.707107 0
    outer loop
      vertex 0.631 43.458 0
      vertex 0.542 43.369 4
      vertex 0.631 43.458 4
    endloop
  endfacet
  facet normal -0.749605 0.661885 0
    outer loop
      vertex 0.459 43.275 0
      vertex 0.459 43.275 4
      vertex 0.542 43.369 0
    endloop
  endfacet
  facet normal -0.749605 0.661885 0
    outer loop
      vertex 0.542 43.369 0
      vertex 0.459 43.275 4
      vertex 0.542 43.369 4
    endloop
  endfacet
  facet normal -0.789352 0.613941 0
    outer loop
      vertex 0.382 43.176 0
      vertex 0.382 43.176 4
      vertex 0.459 43.275 0
    endloop
  endfacet
  facet normal -0.789352 0.613941 0
    outer loop
      vertex 0.459 43.275 0
      vertex 0.382 43.176 4
      vertex 0.459 43.275 4
    endloop
  endfacet
  facet normal -0.825891 0.56383 0
    outer loop
      vertex 0.311 43.072 0
      vertex 0.311 43.072 4
      vertex 0.382 43.176 0
    endloop
  endfacet
  facet normal -0.825891 0.56383 0
    outer loop
      vertex 0.382 43.176 0
      vertex 0.311 43.072 4
      vertex 0.382 43.176 4
    endloop
  endfacet
  facet normal -0.860292 0.509802 0
    outer loop
      vertex 0.247 42.964 0
      vertex 0.247 42.964 4
      vertex 0.311 43.072 0
    endloop
  endfacet
  facet normal -0.860292 0.509802 0
    outer loop
      vertex 0.311 43.072 0
      vertex 0.247 42.964 4
      vertex 0.311 43.072 4
    endloop
  endfacet
  facet normal -0.891222 0.453568 0
    outer loop
      vertex 0.19 42.852 0
      vertex 0.19 42.852 4
      vertex 0.247 42.964 0
    endloop
  endfacet
  facet normal -0.891222 0.453568 0
    outer loop
      vertex 0.247 42.964 0
      vertex 0.19 42.852 4
      vertex 0.247 42.964 4
    endloop
  endfacet
  facet normal -0.918324 0.395829 0
    outer loop
      vertex 0.14 42.736 0
      vertex 0.14 42.736 4
      vertex 0.19 42.852 0
    endloop
  endfacet
  facet normal -0.918324 0.395829 0
    outer loop
      vertex 0.19 42.852 0
      vertex 0.14 42.736 4
      vertex 0.19 42.852 4
    endloop
  endfacet
  facet normal -0.942103 0.335325 0
    outer loop
      vertex 0.098 42.618 0
      vertex 0.098 42.618 4
      vertex 0.14 42.736 0
    endloop
  endfacet
  facet normal -0.942103 0.335325 0
    outer loop
      vertex 0.14 42.736 0
      vertex 0.098 42.618 4
      vertex 0.14 42.736 4
    endloop
  endfacet
  facet normal -0.96062 0.277865 0
    outer loop
      vertex 0.063 42.497 0
      vertex 0.063 42.497 4
      vertex 0.098 42.618 0
    endloop
  endfacet
  facet normal -0.96062 0.277865 0
    outer loop
      vertex 0.098 42.618 0
      vertex 0.063 42.497 4
      vertex 0.098 42.618 4
    endloop
  endfacet
  facet normal -0.97466 0.223692 0
    outer loop
      vertex 0.035 42.375 0
      vertex 0.035 42.375 4
      vertex 0.063 42.497 0
    endloop
  endfacet
  facet normal -0.97466 0.223692 0
    outer loop
      vertex 0.063 42.497 0
      vertex 0.035 42.375 4
      vertex 0.063 42.497 4
    endloop
  endfacet
  facet normal -0.988464 0.151458 0
    outer loop
      vertex 0.016 42.251 0
      vertex 0.016 42.251 4
      vertex 0.035 42.375 0
    endloop
  endfacet
  facet normal -0.988464 0.151458 0
    outer loop
      vertex 0.035 42.375 0
      vertex 0.016 42.251 4
      vertex 0.035 42.375 4
    endloop
  endfacet
  facet normal -0.995424 0.0955607 0
    outer loop
      vertex 0.004 42.126 0
      vertex 0.004 42.126 4
      vertex 0.016 42.251 0
    endloop
  endfacet
  facet normal -0.995424 0.0955607 0
    outer loop
      vertex 0.016 42.251 0
      vertex 0.004 42.126 4
      vertex 0.016 42.251 4
    endloop
  endfacet
  facet normal -0.999496 0.03173 0
    outer loop
      vertex 0 42 0
      vertex 0 42 2
      vertex 0.004 42.126 0
    endloop
  endfacet
  facet normal -0.999496 0.03173 0
    outer loop
      vertex 0.004 42.126 0
      vertex 0 42 2
      vertex 0.00031746 42.01 2
    endloop
  endfacet
  facet normal -0.999496 0.03173 0
    outer loop
      vertex 0.004 42.126 0
      vertex 0.00031746 42.01 2
      vertex 0.00031746 42.01 4
    endloop
  endfacet
  facet normal -0.999496 0.03173 0
    outer loop
      vertex 0.004 42.126 0
      vertex 0.00031746 42.01 4
      vertex 0.004 42.126 4
    endloop
  endfacet
  facet normal 0 0 1
    outer loop
      vertex 37 25.99 2
      vertex 37 42.01 2
      vertex 0.00031746 42.01 2
    endloop
  endfacet
  facet normal 0 0 1
    outer loop
      vertex 0 25.99 2
      vertex 37 25.99 2
      vertex 0 42 2
    endloop
  endfacet
  facet normal 0 0 1
    outer loop
      vertex 0 42 2
      vertex 37 25.99 2
      vertex 0.00031746 42.01 2
    endloop
  endfacet
  facet normal 0 1 0
    outer loop
      vertex 37 25.99 4
      vertex 37 25.99 2
      vertex 0 25.99 4
    endloop
  endfacet
  facet normal 0 1 0
    outer loop
      vertex 0 25.99 4
      vertex 37 25.99 2
      vertex 0 25.99 2
    endloop
  endfacet
  facet normal -1 0 0
    outer loop
      vertex 37 42.01 4
      vertex 37 42.01 2
      vertex 37 25.99 4
    endloop
  endfacet
  facet normal -1 0 0
    outer loop
      vertex 37 25.99 4
      vertex 37 42.01 2
      vertex 37 25.99 2
    endloop
  endfacet
  facet normal 0 -1 0
    outer loop
      vertex 37 42.01 2
      vertex 37 42.01 4
      vertex 0.00031746 42.01 4
    endloop
  endfacet
  facet normal 0 -1 0
    outer loop
      vertex 0.00031746 42.01 2
      vertex 37 42.01 2
      vertex 0.00031746 42.01 4
    endloop
  endfacet
endsolid OpenSCAD_Model
