solid OpenSCAD_Model
  facet normal -0.988464 0.151458 0
    outer loop
      vertex 0.016 42.251 8
      vertex 0.035 42.375 8
      vertex 0.016 42.251 0
    endloop
  endfacet
  facet normal -0.988464 0.151458 0
    outer loop
      vertex 0.016 42.251 0
      vertex 0.035 42.375 8
      vertex 0.035 42.375 0
    endloop
  endfacet
  facet normal -0.995424 0.0955607 0
    outer loop
      vertex 0.004 42.126 8
      vertex 0.016 42.251 8
      vertex 0.004 42.126 0
    endloop
  endfacet
  facet normal -0.995424 0.0955607 0
    outer loop
      vertex 0.004 42.126 0
      vertex 0.016 42.251 8
      vertex 0.016 42.251 0
    endloop
  endfacet
  facet normal 0 0 -1
    outer loop
      vertex 0 42 0
      vertex 0.004 42.126 0
      vertex 0 2 0
    endloop
  endfacet
  facet normal 0 0 -1
    outer loop
      vertex 0 2 0
      vertex 0.004 42.126 0
      vertex 0.016 42.251 0
    endloop
  endfacet
  facet normal 0 0 -1
    outer loop
      vertex 0 2 0
      vertex 0.016 42.251 0
      vertex 0.035 42.375 0
    endloop
  endfacet
  facet normal 0 0 -1
    outer loop
      vertex 0 2 0
      vertex 0.035 42.375 0
      vertex 0.063 42.497 0
    endloop
  endfacet
  facet normal 0 0 -1
    outer loop
      vertex 0 2 0
      vertex 0.063 42.497 0
      vertex 0.098 42.618 0
    endloop
  endfacet
  facet normal 0 0 -1
    outer loop
      vertex 0 2 0
      vertex 0.098 42.618 0
      vertex 0.14 42.736 0
    endloop
  endfacet
  facet normal 0 0 -1
    outer loop
      vertex 0 2 0
      vertex 0.14 42.736 0
      vertex 0.19 42.852 0
    endloop
  endfacet
  facet normal 0 0 -1
    outer loop
      vertex 0 2 0
      vertex 0.19 42.852 0
      vertex 0.247 42.964 0
    endloop
  endfacet
  facet normal 0 0 -1
    outer loop
      vertex 0 2 0
      vertex 0.247 42.964 0
      vertex 0.311 43.072 0
    endloop
  endfacet
  facet normal 0 0 -1
    outer loop
      vertex 0 2 0
      vertex 0.311 43.072 0
      vertex 0.382 43.176 0
    endloop
  endfacet
  facet normal 0 0 -1
    outer loop
      vertex 0 2 0
      vertex 0.382 43.176 0
      vertex 0.459 43.275 0
    endloop
  endfacet
  facet normal 0 0 -1
    outer loop
      vertex 0 2 0
      vertex 0.459 43.275 0
      vertex 0.542 43.369 0
    endloop
  endfacet
  facet normal 0 0 -1
    outer loop
      vertex 0 2 0
      vertex 0.542 43.369 0
      vertex 0.631 43.458 0
    endloop
  endfacet
  facet normal 0 0 -1
    outer loop
      vertex 0 2 0
      vertex 0.631 43.458 0
      vertex 0.725 43.541 0
    endloop
  endfacet
  facet normal 0 0 -1
    outer loop
      vertex 0 2 0
      vertex 0.725 43.541 0
      vertex 0.824 43.618 0
    endloop
  endfacet
  facet normal 0 0 -1
    outer loop
      vertex 0 2 0
      vertex 0.824 43.618 0
      vertex 0.928 43.689 0
    endloop
  endfacet
  facet normal 0 0 -1
    outer loop
      vertex 0 2 0
      vertex 0.928 43.689 0
      vertex 1.036 43.753 0
    endloop
  endfacet
  facet normal 0 0 -1
    outer loop
      vertex 0 2 0
      vertex 1.036 43.753 0
      vertex 1.148 43.81 0
    endloop
  endfacet
  facet normal 0 0 -1
    outer loop
      vertex 0 2 0
      vertex 1.148 43.81 0
      vertex 1.264 43.86 0
    endloop
  endfacet
  facet normal 0 0 -1
    outer loop
      vertex 0 2 0
      vertex 1.264 43.86 0
      vertex 1.382 43.902 0
    endloop
  endfacet
  facet normal 0 0 -1
    outer loop
      vertex 0 2 0
      vertex 1.382 43.902 0
      vertex 1.503 43.937 0
    endloop
  endfacet
  facet normal 0 0 -1
    outer loop
      vertex 0 2 0
      vertex 1.503 43.937 0
      vertex 1.625 43.965 0
    endloop
  endfacet
  facet normal 0 0 -1
    outer loop
      vertex 0 2 0
      vertex 1.625 43.965 0
      vertex 1.749 43.984 0
    endloop
  endfacet
  facet normal 0 0 -1
    outer loop
      vertex 0 2 0
      vertex 1.749 43.984 0
      vertex 1.874 43.996 0
    endloop
  endfacet
  facet normal 0 0 -1
    outer loop
      vertex 0 2 0
      vertex 1.874 43.996 0
      vertex 2 44 0
    endloop
  endfacet
  facet normal 0 0 -1
    outer loop
      vertex 0 2 0
      vertex 2 44 0
      vertex 40 44 0
    endloop
  endfacet
  facet normal 0 0 -1
    outer loop
      vertex 0 2 0
      vertex 40 44 0
      vertex 40.126 43.996 0
    endloop
  endfacet
  facet normal 0 0 -1
    outer loop
      vertex 0 2 0
      vertex 40.126 43.996 0
      vertex 40.251 43.984 0
    endloop
  endfacet
  facet normal 0 0 -1
    outer loop
      vertex 0 2 0
      vertex 40.251 43.984 0
      vertex 40.375 43.965 0
    endloop
  endfacet
  facet normal 0 0 -1
    outer loop
      vertex 0 2 0
      vertex 40.375 43.965 0
      vertex 40.497 43.937 0
    endloop
  endfacet
  facet normal 0 0 -1
    outer loop
      vertex 0 2 0
      vertex 40.497 43.937 0
      vertex 40.618 43.902 0
    endloop
  endfacet
  facet normal 0 0 -1
    outer loop
      vertex 0 2 0
      vertex 40.618 43.902 0
      vertex 40.736 43.86 0
    endloop
  endfacet
  facet normal 0 0 -1
    outer loop
      vertex 0 2 0
      vertex 40.736 43.86 0
      vertex 40.852 43.81 0
    endloop
  endfacet
  facet normal 0 0 -1
    outer loop
      vertex 0 2 0
      vertex 40.852 43.81 0
      vertex 40.964 43.753 0
    endloop
  endfacet
  facet normal 0 0 -1
    outer loop
      vertex 0 2 0
      vertex 40.964 43.753 0
      vertex 41.072 43.689 0
    endloop
  endfacet
  facet normal 0 0 -1
    outer loop
      vertex 0 2 0
      vertex 41.072 43.689 0
      vertex 41.176 43.618 0
    endloop
  endfacet
  facet normal 0 0 -1
    outer loop
      vertex 0 2 0
      vertex 41.176 43.618 0
      vertex 41.275 43.541 0
    endloop
  endfacet
  facet normal 0 0 -1
    outer loop
      vertex 0 2 0
      vertex 41.275 43.541 0
      vertex 41.369 43.458 0
    endloop
  endfacet
  facet normal 0 0 -1
    outer loop
      vertex 0 2 0
      vertex 41.369 43.458 0
      vertex 41.458 43.369 0
    endloop
  endfacet
  facet normal 0 0 -1
    outer loop
      vertex 0 2 0
      vertex 41.458 43.369 0
      vertex 41.541 43.275 0
    endloop
  endfacet
  facet normal 0 0 -1
    outer loop
      vertex 0 2 0
      vertex 41.541 43.275 0
      vertex 41.618 43.176 0
    endloop
  endfacet
  facet normal 0 0 -1
    outer loop
      vertex 0 2 0
      vertex 41.618 43.176 0
      vertex 41.689 43.072 0
    endloop
  endfacet
  facet normal 0 0 -1
    outer loop
      vertex 0 2 0
      vertex 41.689 43.072 0
      vertex 41.753 42.964 0
    endloop
  endfacet
  facet normal 0 0 -1
    outer loop
      vertex 0 2 0
      vertex 41.753 42.964 0
      vertex 41.81 42.852 0
    endloop
  endfacet
  facet normal 0 0 -1
    outer loop
      vertex 0 2 0
      vertex 41.81 42.852 0
      vertex 41.86 42.736 0
    endloop
  endfacet
  facet normal 0 0 -1
    outer loop
      vertex 0 2 0
      vertex 41.86 42.736 0
      vertex 41.902 42.618 0
    endloop
  endfacet
  facet normal 0 0 -1
    outer loop
      vertex 0 2 0
      vertex 41.902 42.618 0
      vertex 41.937 42.497 0
    endloop
  endfacet
  facet normal 0 0 -1
    outer loop
      vertex 0 2 0
      vertex 41.937 42.497 0
      vertex 41.965 42.375 0
    endloop
  endfacet
  facet normal 0 0 -1
    outer loop
      vertex 0 2 0
      vertex 41.965 42.375 0
      vertex 41.984 42.251 0
    endloop
  endfacet
  facet normal 0 0 -1
    outer loop
      vertex 0 2 0
      vertex 41.984 42.251 0
      vertex 41.996 42.126 0
    endloop
  endfacet
  facet normal 0 0 -1
    outer loop
      vertex 0 2 0
      vertex 41.996 42.126 0
      vertex 42 42 0
    endloop
  endfacet
  facet normal 0 0 -1
    outer loop
      vertex 0 2 0
      vertex 42 42 0
      vertex 42 2 0
    endloop
  endfacet
  facet normal 0 0 -1
    outer loop
      vertex 0 2 0
      vertex 42 2 0
      vertex 41.996 1.874 0
    endloop
  endfacet
  facet normal 0 0 -1
    outer loop
      vertex 0 2 0
      vertex 41.996 1.874 0
      vertex 41.984 1.749 0
    endloop
  endfacet
  facet normal 0 0 -1
    outer loop
      vertex 0 2 0
      vertex 41.984 1.749 0
      vertex 41.965 1.625 0
    endloop
  endfacet
  facet normal 0 0 -1
    outer loop
      vertex 0 2 0
      vertex 41.965 1.625 0
      vertex 41.937 1.503 0
    endloop
  endfacet
  facet normal 0 0 -1
    outer loop
      vertex 0 2 0
      vertex 41.937 1.503 0
      vertex 41.902 1.382 0
    endloop
  endfacet
  facet normal 0 0 -1
    outer loop
      vertex 0 2 0
      vertex 41.902 1.382 0
      vertex 41.86 1.264 0
    endloop
  endfacet
  facet normal 0 0 -1
    outer loop
      vertex 0 2 0
      vertex 41.86 1.264 0
      vertex 41.81 1.148 0
    endloop
  endfacet
  facet normal 0 0 -1
    outer loop
      vertex 0 2 0
      vertex 41.81 1.148 0
      vertex 41.753 1.036 0
    endloop
  endfacet
  facet normal 0 0 -1
    outer loop
      vertex 0 2 0
      vertex 41.753 1.036 0
      vertex 41.689 0.928 0
    endloop
  endfacet
  facet normal 0 0 -1
    outer loop
      vertex 0 2 0
      vertex 41.689 0.928 0
      vertex 41.618 0.824 0
    endloop
  endfacet
  facet normal 0 0 -1
    outer loop
      vertex 0 2 0
      vertex 41.618 0.824 0
      vertex 41.541 0.725 0
    endloop
  endfacet
  facet normal 0 0 -1
    outer loop
      vertex 0 2 0
      vertex 41.541 0.725 0
      vertex 41.458 0.631 0
    endloop
  endfacet
  facet normal 0 0 -1
    outer loop
      vertex 0 2 0
      vertex 41.458 0.631 0
      vertex 41.369 0.542 0
    endloop
  endfacet
  facet normal 0 0 -1
    outer loop
      vertex 0 2 0
      vertex 41.369 0.542 0
      vertex 41.275 0.459 0
    endloop
  endfacet
  facet normal 0 0 -1
    outer loop
      vertex 0 2 0
      vertex 41.275 0.459 0
      vertex 41.176 0.382 0
    endloop
  endfacet
  facet normal 0 0 -1
    outer loop
      vertex 0 2 0
      vertex 41.176 0.382 0
      vertex 41.072 0.311 0
    endloop
  endfacet
  facet normal 0 0 -1
    outer loop
      vertex 0 2 0
      vertex 41.072 0.311 0
      vertex 40.964 0.247 0
    endloop
  endfacet
  facet normal 0 0 -1
    outer loop
      vertex 0 2 0
      vertex 40.964 0.247 0
      vertex 40.852 0.19 0
    endloop
  endfacet
  facet normal 0 0 -1
    outer loop
      vertex 0 2 0
      vertex 40.852 0.19 0
      vertex 40.736 0.14 0
    endloop
  endfacet
  facet normal 0 0 -1
    outer loop
      vertex 0 2 0
      vertex 40.736 0.14 0
      vertex 40.618 0.098 0
    endloop
  endfacet
  facet normal 0 0 -1
    outer loop
      vertex 0 2 0
      vertex 40.618 0.098 0
      vertex 40.497 0.063 0
    endloop
  endfacet
  facet normal 0 0 -1
    outer loop
      vertex 0 2 0
      vertex 40.497 0.063 0
      vertex 40.375 0.035 0
    endloop
  endfacet
  facet normal 0 0 -1
    outer loop
      vertex 0 2 0
      vertex 40.375 0.035 0
      vertex 40.251 0.016 0
    endloop
  endfacet
  facet normal 0 0 -1
    outer loop
      vertex 0 2 0
      vertex 40.251 0.016 0
      vertex 40.126 0.004 0
    endloop
  endfacet
  facet normal 0 0 -1
    outer loop
      vertex 0 2 0
      vertex 40.126 0.004 0
      vertex 40 0 0
    endloop
  endfacet
  facet normal 0 0 -1
    outer loop
      vertex 0 2 0
      vertex 40 0 0
      vertex 2 0 0
    endloop
  endfacet
  facet normal 0 0 -1
    outer loop
      vertex 0 2 0
      vertex 2 0 0
      vertex 1.874 0.004 0
    endloop
  endfacet
  facet normal 0 0 -1
    outer loop
      vertex 0 2 0
      vertex 1.874 0.004 0
      vertex 1.749 0.016 0
    endloop
  endfacet
  facet normal 0 0 -1
    outer loop
      vertex 0 2 0
      vertex 1.749 0.016 0
      vertex 1.625 0.035 0
    endloop
  endfacet
  facet normal 0 0 -1
    outer loop
      vertex 0 2 0
      vertex 1.625 0.035 0
      vertex 1.503 0.063 0
    endloop
  endfacet
  facet normal 0 0 -1
    outer loop
      vertex 0 2 0
      vertex 1.503 0.063 0
      vertex 1.382 0.098 0
    endloop
  endfacet
  facet normal 0 0 -1
    outer loop
      vertex 0 2 0
      vertex 1.382 0.098 0
      vertex 1.264 0.14 0
    endloop
  endfacet
  facet normal 0 0 -1
    outer loop
      vertex 0 2 0
      vertex 1.264 0.14 0
      vertex 1.148 0.19 0
    endloop
  endfacet
  facet normal 0 0 -1
    outer loop
      vertex 0 2 0
      vertex 1.148 0.19 0
      vertex 1.036 0.247 0
    endloop
  endfacet
  facet normal 0 0 -1
    outer loop
      vertex 0 2 0
      vertex 1.036 0.247 0
      vertex 0.928 0.311 0
    endloop
  endfacet
  facet normal 0 0 -1
    outer loop
      vertex 0 2 0
      vertex 0.928 0.311 0
      vertex 0.824 0.382 0
    endloop
  endfacet
  facet normal 0 0 -1
    outer loop
      vertex 0 2 0
      vertex 0.824 0.382 0
      vertex 0.725 0.459 0
    endloop
  endfacet
  facet normal 0 0 -1
    outer loop
      vertex 0 2 0
      vertex 0.725 0.459 0
      vertex 0.631 0.542 0
    endloop
  endfacet
  facet normal 0 0 -1
    outer loop
      vertex 0 2 0
      vertex 0.631 0.542 0
      vertex 0.542 0.631 0
    endloop
  endfacet
  facet normal 0 0 -1
    outer loop
      vertex 0 2 0
      vertex 0.542 0.631 0
      vertex 0.459 0.725 0
    endloop
  endfacet
  facet normal 0 0 -1
    outer loop
      vertex 0 2 0
      vertex 0.459 0.725 0
      vertex 0.382 0.824 0
    endloop
  endfacet
  facet normal 0 0 -1
    outer loop
      vertex 0 2 0
      vertex 0.382 0.824 0
      vertex 0.311 0.928 0
    endloop
  endfacet
  facet normal 0 0 -1
    outer loop
      vertex 0 2 0
      vertex 0.311 0.928 0
      vertex 0.247 1.036 0
    endloop
  endfacet
  facet normal 0 0 -1
    outer loop
      vertex 0 2 0
      vertex 0.247 1.036 0
      vertex 0.19 1.148 0
    endloop
  endfacet
  facet normal 0 0 -1
    outer loop
      vertex 0 2 0
      vertex 0.19 1.148 0
      vertex 0.14 1.264 0
    endloop
  endfacet
  facet normal 0 0 -1
    outer loop
      vertex 0 2 0
      vertex 0.14 1.264 0
      vertex 0.098 1.382 0
    endloop
  endfacet
  facet normal 0 0 -1
    outer loop
      vertex 0 2 0
      vertex 0.098 1.382 0
      vertex 0.063 1.503 0
    endloop
  endfacet
  facet normal 0 0 -1
    outer loop
      vertex 0 2 0
      vertex 0.063 1.503 0
      vertex 0.035 1.625 0
    endloop
  endfacet
  facet normal 0 0 -1
    outer loop
      vertex 0 2 0
      vertex 0.035 1.625 0
      vertex 0.016 1.749 0
    endloop
  endfacet
  facet normal 0 0 -1
    outer loop
      vertex 0 2 0
      vertex 0.016 1.749 0
      vertex 0.004 1.874 0
    endloop
  endfacet
  facet normal -0.97466 0.223692 0
    outer loop
      vertex 0.035 42.375 8
      vertex 0.063 42.497 8
      vertex 0.035 42.375 0
    endloop
  endfacet
  facet normal -0.97466 0.223692 0
    outer loop
      vertex 0.035 42.375 0
      vertex 0.063 42.497 8
      vertex 0.063 42.497 0
    endloop
  endfacet
  facet normal 0 0 1
    outer loop
      vertex 0 2 8
      vertex 0.004 1.874 8
      vertex 0.016 1.749 8
    endloop
  endfacet
  facet normal 0 0 1
    outer loop
      vertex 0.063 1.503 8
      vertex 0 2 8
      vertex 0.035 1.625 8
    endloop
  endfacet
  facet normal 0 0 1
    outer loop
      vertex 0.035 1.625 8
      vertex 0 2 8
      vertex 0.016 1.749 8
    endloop
  endfacet
  facet normal 0 0 1
    outer loop
      vertex 0.098 1.382 8
      vertex 0 2 8
      vertex 0.063 1.503 8
    endloop
  endfacet
  facet normal 0 0 1
    outer loop
      vertex 0.14 1.264 8
      vertex 0 2 8
      vertex 0.098 1.382 8
    endloop
  endfacet
  facet normal 0 0 1
    outer loop
      vertex 0.19 1.148 8
      vertex 0 2 8
      vertex 0.14 1.264 8
    endloop
  endfacet
  facet normal 0 0 1
    outer loop
      vertex 0.247 1.036 8
      vertex 0 2 8
      vertex 0.19 1.148 8
    endloop
  endfacet
  facet normal 0 0 1
    outer loop
      vertex 0.311 0.928 8
      vertex 0 2 8
      vertex 0.247 1.036 8
    endloop
  endfacet
  facet normal 0 0 1
    outer loop
      vertex 0.382 0.824 8
      vertex 0 2 8
      vertex 0.311 0.928 8
    endloop
  endfacet
  facet normal 0 0 1
    outer loop
      vertex 0.459 0.725 8
      vertex 0 2 8
      vertex 0.382 0.824 8
    endloop
  endfacet
  facet normal 0 0 1
    outer loop
      vertex 0.542 0.631 8
      vertex 0 2 8
      vertex 0.459 0.725 8
    endloop
  endfacet
  facet normal 0 0 1
    outer loop
      vertex 0.631 0.542 8
      vertex 0 2 8
      vertex 0.542 0.631 8
    endloop
  endfacet
  facet normal 0 0 1
    outer loop
      vertex 0.725 0.459 8
      vertex 0 2 8
      vertex 0.631 0.542 8
    endloop
  endfacet
  facet normal 0 0 1
    outer loop
      vertex 0.824 0.382 8
      vertex 0 2 8
      vertex 0.725 0.459 8
    endloop
  endfacet
  facet normal 0 0 1
    outer loop
      vertex 0.928 0.311 8
      vertex 0 2 8
      vertex 0.824 0.382 8
    endloop
  endfacet
  facet normal 0 0 1
    outer loop
      vertex 1.036 0.247 8
      vertex 0 2 8
      vertex 0.928 0.311 8
    endloop
  endfacet
  facet normal 0 0 1
    outer loop
      vertex 1.148 0.19 8
      vertex 0 2 8
      vertex 1.036 0.247 8
    endloop
  endfacet
  facet normal 0 0 1
    outer loop
      vertex 1.264 0.14 8
      vertex 0 2 8
      vertex 1.148 0.19 8
    endloop
  endfacet
  facet normal 0 0 1
    outer loop
      vertex 1.382 0.098 8
      vertex 0 2 8
      vertex 1.264 0.14 8
    endloop
  endfacet
  facet normal 0 0 1
    outer loop
      vertex 1.503 0.063 8
      vertex 0 2 8
      vertex 1.382 0.098 8
    endloop
  endfacet
  facet normal 0 0 1
    outer loop
      vertex 1.625 0.035 8
      vertex 0 2 8
      vertex 1.503 0.063 8
    endloop
  endfacet
  facet normal 0 0 1
    outer loop
      vertex 1.749 0.016 8
      vertex 0 2 8
      vertex 1.625 0.035 8
    endloop
  endfacet
  facet normal 0 0 1
    outer loop
      vertex 1.874 0.004 8
      vertex 0 2 8
      vertex 1.749 0.016 8
    endloop
  endfacet
  facet normal 0 0 1
    outer loop
      vertex 2 0 8
      vertex 0 2 8
      vertex 1.874 0.004 8
    endloop
  endfacet
  facet normal 0 0 1
    outer loop
      vertex 40 0 8
      vertex 0 2 8
      vertex 2 0 8
    endloop
  endfacet
  facet normal 0 0 1
    outer loop
      vertex 40.126 0.004 8
      vertex 0 2 8
      vertex 40 0 8
    endloop
  endfacet
  facet normal 0 0 1
    outer loop
      vertex 40.251 0.016 8
      vertex 0 2 8
      vertex 40.126 0.004 8
    endloop
  endfacet
  facet normal 0 0 1
    outer loop
      vertex 40.375 0.035 8
      vertex 0 2 8
      vertex 40.251 0.016 8
    endloop
  endfacet
  facet normal 0 0 1
    outer loop
      vertex 40.497 0.063 8
      vertex 0 2 8
      vertex 40.375 0.035 8
    endloop
  endfacet
  facet normal 0 0 1
    outer loop
      vertex 40.618 0.098 8
      vertex 0 2 8
      vertex 40.497 0.063 8
    endloop
  endfacet
  facet normal 0 0 1
    outer loop
      vertex 40.736 0.14 8
      vertex 0 2 8
      vertex 40.618 0.098 8
    endloop
  endfacet
  facet normal 0 0 1
    outer loop
      vertex 40.852 0.19 8
      vertex 0 2 8
      vertex 40.736 0.14 8
    endloop
  endfacet
  facet normal 0 0 1
    outer loop
      vertex 40.964 0.247 8
      vertex 0 2 8
      vertex 40.852 0.19 8
    endloop
  endfacet
  facet normal 0 0 1
    outer loop
      vertex 41.072 0.311 8
      vertex 0 2 8
      vertex 40.964 0.247 8
    endloop
  endfacet
  facet normal 0 0 1
    outer loop
      vertex 41.176 0.382 8
      vertex 0 2 8
      vertex 41.072 0.311 8
    endloop
  endfacet
  facet normal 0 0 1
    outer loop
      vertex 41.275 0.459 8
      vertex 0 2 8
      vertex 41.176 0.382 8
    endloop
  endfacet
  facet normal 0 0 1
    outer loop
      vertex 41.369 0.542 8
      vertex 0 2 8
      vertex 41.275 0.459 8
    endloop
  endfacet
  facet normal 0 0 1
    outer loop
      vertex 41.458 0.631 8
      vertex 0 2 8
      vertex 41.369 0.542 8
    endloop
  endfacet
  facet normal 0 0 1
    outer loop
      vertex 41.541 0.725 8
      vertex 0 2 8
      vertex 41.458 0.631 8
    endloop
  endfacet
  facet normal 0 0 1
    outer loop
      vertex 41.618 0.824 8
      vertex 0 2 8
      vertex 41.541 0.725 8
    endloop
  endfacet
  facet normal 0 0 1
    outer loop
      vertex 41.689 0.928 8
      vertex 0 2 8
      vertex 41.618 0.824 8
    endloop
  endfacet
  facet normal 0 0 1
    outer loop
      vertex 41.753 1.036 8
      vertex 0 2 8
      vertex 41.689 0.928 8
    endloop
  endfacet
  facet normal 0 0 1
    outer loop
      vertex 41.81 1.148 8
      vertex 0 2 8
      vertex 41.753 1.036 8
    endloop
  endfacet
  facet normal 0 0 1
    outer loop
      vertex 41.86 1.264 8
      vertex 0 2 8
      vertex 41.81 1.148 8
    endloop
  endfacet
  facet normal 0 0 1
    outer loop
      vertex 41.902 1.382 8
      vertex 0 2 8
      vertex 41.86 1.264 8
    endloop
  endfacet
  facet normal 0 0 1
    outer loop
      vertex 41.937 1.503 8
      vertex 0 2 8
      vertex 41.902 1.382 8
    endloop
  endfacet
  facet normal 0 0 1
    outer loop
      vertex 41.965 1.625 8
      vertex 0 2 8
      vertex 41.937 1.503 8
    endloop
  endfacet
  facet normal 0 0 1
    outer loop
      vertex 41.984 1.749 8
      vertex 0 2 8
      vertex 41.965 1.625 8
    endloop
  endfacet
  facet normal 0 0 1
    outer loop
      vertex 41.996 1.874 8
      vertex 0 2 8
      vertex 41.984 1.749 8
    endloop
  endfacet
  facet normal 0 0 1
    outer loop
      vertex 42 2 8
      vertex 0 2 8
      vertex 41.996 1.874 8
    endloop
  endfacet
  facet normal 0 0 1
    outer loop
      vertex 42 42 8
      vertex 0 2 8
      vertex 42 2 8
    endloop
  endfacet
  facet normal 0 0 1
    outer loop
      vertex 41.996 42.126 8
      vertex 0 2 8
      vertex 42 42 8
    endloop
  endfacet
  facet normal 0 0 1
    outer loop
      vertex 41.984 42.251 8
      vertex 0 2 8
      vertex 41.996 42.126 8
    endloop
  endfacet
  facet normal 0 0 1
    outer loop
      vertex 41.965 42.375 8
      vertex 0 2 8
      vertex 41.984 42.251 8
    endloop
  endfacet
  facet normal 0 0 1
    outer loop
      vertex 41.937 42.497 8
      vertex 0 2 8
      vertex 41.965 42.375 8
    endloop
  endfacet
  facet normal 0 0 1
    outer loop
      vertex 41.902 42.618 8
      vertex 0 2 8
      vertex 41.937 42.497 8
    endloop
  endfacet
  facet normal 0 0 1
    outer loop
      vertex 41.86 42.736 8
      vertex 0 2 8
      vertex 41.902 42.618 8
    endloop
  endfacet
  facet normal 0 0 1
    outer loop
      vertex 41.81 42.852 8
      vertex 0 2 8
      vertex 41.86 42.736 8
    endloop
  endfacet
  facet normal 0 0 1
    outer loop
      vertex 41.753 42.964 8
      vertex 0 2 8
      vertex 41.81 42.852 8
    endloop
  endfacet
  facet normal 0 0 1
    outer loop
      vertex 41.689 43.072 8
      vertex 0 2 8
      vertex 41.753 42.964 8
    endloop
  endfacet
  facet normal 0 0 1
    outer loop
      vertex 41.618 43.176 8
      vertex 0 2 8
      vertex 41.689 43.072 8
    endloop
  endfacet
  facet normal 0 0 1
    outer loop
      vertex 41.541 43.275 8
      vertex 0 2 8
      vertex 41.618 43.176 8
    endloop
  endfacet
  facet normal 0 0 1
    outer loop
      vertex 41.458 43.369 8
      vertex 0 2 8
      vertex 41.541 43.275 8
    endloop
  endfacet
  facet normal 0 0 1
    outer loop
      vertex 41.369 43.458 8
      vertex 0 2 8
      vertex 41.458 43.369 8
    endloop
  endfacet
  facet normal 0 0 1
    outer loop
      vertex 41.275 43.541 8
      vertex 0 2 8
      vertex 41.369 43.458 8
    endloop
  endfacet
  facet normal 0 0 1
    outer loop
      vertex 41.176 43.618 8
      vertex 0 2 8
      vertex 41.275 43.541 8
    endloop
  endfacet
  facet normal 0 0 1
    outer loop
      vertex 41.072 43.689 8
      vertex 0 2 8
      vertex 41.176 43.618 8
    endloop
  endfacet
  facet normal 0 0 1
    outer loop
      vertex 40.964 43.753 8
      vertex 0 2 8
      vertex 41.072 43.689 8
    endloop
  endfacet
  facet normal 0 0 1
    outer loop
      vertex 40.852 43.81 8
      vertex 0 2 8
      vertex 40.964 43.753 8
    endloop
  endfacet
  facet normal 0 0 1
    outer loop
      vertex 40.736 43.86 8
      vertex 0 2 8
      vertex 40.852 43.81 8
    endloop
  endfacet
  facet normal 0 0 1
    outer loop
      vertex 40.618 43.902 8
      vertex 0 2 8
      vertex 40.736 43.86 8
    endloop
  endfacet
  facet normal 0 0 1
    outer loop
      vertex 40.497 43.937 8
      vertex 0 2 8
      vertex 40.618 43.902 8
    endloop
  endfacet
  facet normal 0 0 1
    outer loop
      vertex 40.375 43.965 8
      vertex 0 2 8
      vertex 40.497 43.937 8
    endloop
  endfacet
  facet normal 0 0 1
    outer loop
      vertex 40.251 43.984 8
      vertex 0 2 8
      vertex 40.375 43.965 8
    endloop
  endfacet
  facet normal 0 0 1
    outer loop
      vertex 40.126 43.996 8
      vertex 0 2 8
      vertex 40.251 43.984 8
    endloop
  endfacet
  facet normal 0 0 1
    outer loop
      vertex 40 44 8
      vertex 0 2 8
      vertex 40.126 43.996 8
    endloop
  endfacet
  facet normal 0 0 1
    outer loop
      vertex 2 44 8
      vertex 0 2 8
      vertex 40 44 8
    endloop
  endfacet
  facet normal 0 0 1
    outer loop
      vertex 1.874 43.996 8
      vertex 0 2 8
      vertex 2 44 8
    endloop
  endfacet
  facet normal 0 0 1
    outer loop
      vertex 1.749 43.984 8
      vertex 0 2 8
      vertex 1.874 43.996 8
    endloop
  endfacet
  facet normal 0 0 1
    outer loop
      vertex 1.625 43.965 8
      vertex 0 2 8
      vertex 1.749 43.984 8
    endloop
  endfacet
  facet normal 0 0 1
    outer loop
      vertex 1.503 43.937 8
      vertex 0 2 8
      vertex 1.625 43.965 8
    endloop
  endfacet
  facet normal 0 0 1
    outer loop
      vertex 1.382 43.902 8
      vertex 0 2 8
      vertex 1.503 43.937 8
    endloop
  endfacet
  facet normal 0 0 1
    outer loop
      vertex 1.264 43.86 8
      vertex 0 2 8
      vertex 1.382 43.902 8
    endloop
  endfacet
  facet normal 0 0 1
    outer loop
      vertex 1.148 43.81 8
      vertex 0 2 8
      vertex 1.264 43.86 8
    endloop
  endfacet
  facet normal 0 0 1
    outer loop
      vertex 1.036 43.753 8
      vertex 0 2 8
      vertex 1.148 43.81 8
    endloop
  endfacet
  facet normal 0 0 1
    outer loop
      vertex 0.928 43.689 8
      vertex 0 2 8
      vertex 1.036 43.753 8
    endloop
  endfacet
  facet normal 0 0 1
    outer loop
      vertex 0.824 43.618 8
      vertex 0 2 8
      vertex 0.928 43.689 8
    endloop
  endfacet
  facet normal 0 0 1
    outer loop
      vertex 0.725 43.541 8
      vertex 0 2 8
      vertex 0.824 43.618 8
    endloop
  endfacet
  facet normal 0 0 1
    outer loop
      vertex 0.631 43.458 8
      vertex 0 2 8
      vertex 0.725 43.541 8
    endloop
  endfacet
  facet normal 0 0 1
    outer loop
      vertex 0.542 43.369 8
      vertex 0 2 8
      vertex 0.631 43.458 8
    endloop
  endfacet
  facet normal 0 0 1
    outer loop
      vertex 0.459 43.275 8
      vertex 0 2 8
      vertex 0.542 43.369 8
    endloop
  endfacet
  facet normal 0 0 1
    outer loop
      vertex 0.382 43.176 8
      vertex 0 2 8
      vertex 0.459 43.275 8
    endloop
  endfacet
  facet normal 0 0 1
    outer loop
      vertex 0.311 43.072 8
      vertex 0 2 8
      vertex 0.382 43.176 8
    endloop
  endfacet
  facet normal 0 0 1
    outer loop
      vertex 0.247 42.964 8
      vertex 0 2 8
      vertex 0.311 43.072 8
    endloop
  endfacet
  facet normal 0 0 1
    outer loop
      vertex 0.19 42.852 8
      vertex 0 2 8
      vertex 0.247 42.964 8
    endloop
  endfacet
  facet normal 0 0 1
    outer loop
      vertex 0.14 42.736 8
      vertex 0 2 8
      vertex 0.19 42.852 8
    endloop
  endfacet
  facet normal 0 0 1
    outer loop
      vertex 0.098 42.618 8
      vertex 0 2 8
      vertex 0.14 42.736 8
    endloop
  endfacet
  facet normal 0 0 1
    outer loop
      vertex 0.063 42.497 8
      vertex 0 2 8
      vertex 0.098 42.618 8
    endloop
  endfacet
  facet normal 0 0 1
    outer loop
      vertex 0.035 42.375 8
      vertex 0 2 8
      vertex 0.063 42.497 8
    endloop
  endfacet
  facet normal 0 0 1
    outer loop
      vertex 0.016 42.251 8
      vertex 0 2 8
      vertex 0.035 42.375 8
    endloop
  endfacet
  facet normal 0 0 1
    outer loop
      vertex 0.004 42.126 8
      vertex 0 2 8
      vertex 0.016 42.251 8
    endloop
  endfacet
  facet normal 0 0 1
    outer loop
      vertex 0 42 8
      vertex 0 2 8
      vertex 0.004 42.126 8
    endloop
  endfacet
  facet normal -0.999496 0.03173 0
    outer loop
      vertex 0 42 8
      vertex 0.004 42.126 8
      vertex 0 42 0
    endloop
  endfacet
  facet normal -0.999496 0.03173 0
    outer loop
      vertex 0 42 0
      vertex 0.004 42.126 8
      vertex 0.004 42.126 0
    endloop
  endfacet
  facet normal -0.999496 -0.03173 0
    outer loop
      vertex 0.004 1.874 0
      vertex 0.004 1.874 8
      vertex 0 2 0
    endloop
  endfacet
  facet normal -0.999496 -0.03173 0
    outer loop
      vertex 0 2 0
      vertex 0.004 1.874 8
      vertex 0 2 8
    endloop
  endfacet
  facet normal -1 0 0
    outer loop
      vertex 0 2 8
      vertex 0 42 8
      vertex 0 2 0
    endloop
  endfacet
  facet normal -1 0 0
    outer loop
      vertex 0 2 0
      vertex 0 42 8
      vertex 0 42 0
    endloop
  endfacet
  facet normal -0.995424 -0.0955607 0
    outer loop
      vertex 0.016 1.749 0
      vertex 0.016 1.749 8
      vertex 0.004 1.874 0
    endloop
  endfacet
  facet normal -0.995424 -0.0955607 0
    outer loop
      vertex 0.004 1.874 0
      vertex 0.016 1.749 8
      vertex 0.004 1.874 8
    endloop
  endfacet
  facet normal -0.988464 -0.151458 0
    outer loop
      vertex 0.035 1.625 0
      vertex 0.035 1.625 8
      vertex 0.016 1.749 0
    endloop
  endfacet
  facet normal -0.988464 -0.151458 0
    outer loop
      vertex 0.016 1.749 0
      vertex 0.035 1.625 8
      vertex 0.016 1.749 8
    endloop
  endfacet
  facet normal -0.97466 -0.223692 0
    outer loop
      vertex 0.063 1.503 0
      vertex 0.063 1.503 8
      vertex 0.035 1.625 0
    endloop
  endfacet
  facet normal -0.97466 -0.223692 0
    outer loop
      vertex 0.035 1.625 0
      vertex 0.063 1.503 8
      vertex 0.035 1.625 8
    endloop
  endfacet
  facet normal -0.96062 -0.277865 0
    outer loop
      vertex 0.098 1.382 0
      vertex 0.098 1.382 8
      vertex 0.063 1.503 0
    endloop
  endfacet
  facet normal -0.96062 -0.277865 0
    outer loop
      vertex 0.063 1.503 0
      vertex 0.098 1.382 8
      vertex 0.063 1.503 8
    endloop
  endfacet
  facet normal -0.942103 -0.335325 0
    outer loop
      vertex 0.14 1.264 0
      vertex 0.14 1.264 8
      vertex 0.098 1.382 0
    endloop
  endfacet
  facet normal -0.942103 -0.335325 0
    outer loop
      vertex 0.098 1.382 0
      vertex 0.14 1.264 8
      vertex 0.098 1.382 8
    endloop
  endfacet
  facet normal -0.918324 -0.395829 0
    outer loop
      vertex 0.19 1.148 0
      vertex 0.19 1.148 8
      vertex 0.14 1.264 0
    endloop
  endfacet
  facet normal -0.918324 -0.395829 0
    outer loop
      vertex 0.14 1.264 0
      vertex 0.19 1.148 8
      vertex 0.14 1.264 8
    endloop
  endfacet
  facet normal -0.891222 -0.453568 0
    outer loop
      vertex 0.247 1.036 0
      vertex 0.247 1.036 8
      vertex 0.19 1.148 0
    endloop
  endfacet
  facet normal -0.891222 -0.453568 0
    outer loop
      vertex 0.19 1.148 0
      vertex 0.247 1.036 8
      vertex 0.19 1.148 8
    endloop
  endfacet
  facet normal -0.860292 -0.509802 0
    outer loop
      vertex 0.311 0.928 0
      vertex 0.311 0.928 8
      vertex 0.247 1.036 0
    endloop
  endfacet
  facet normal -0.860292 -0.509802 0
    outer loop
      vertex 0.247 1.036 0
      vertex 0.311 0.928 8
      vertex 0.247 1.036 8
    endloop
  endfacet
  facet normal -0.825891 -0.56383 0
    outer loop
      vertex 0.382 0.824 0
      vertex 0.382 0.824 8
      vertex 0.311 0.928 0
    endloop
  endfacet
  facet normal -0.825891 -0.56383 0
    outer loop
      vertex 0.311 0.928 0
      vertex 0.382 0.824 8
      vertex 0.311 0.928 8
    endloop
  endfacet
  facet normal -0.789352 -0.613941 0
    outer loop
      vertex 0.459 0.725 0
      vertex 0.459 0.725 8
      vertex 0.382 0.824 0
    endloop
  endfacet
  facet normal -0.789352 -0.613941 0
    outer loop
      vertex 0.382 0.824 0
      vertex 0.459 0.725 8
      vertex 0.382 0.824 8
    endloop
  endfacet
  facet normal -0.749605 -0.661885 0
    outer loop
      vertex 0.542 0.631 0
      vertex 0.542 0.631 8
      vertex 0.459 0.725 0
    endloop
  endfacet
  facet normal -0.749605 -0.661885 0
    outer loop
      vertex 0.459 0.725 0
      vertex 0.542 0.631 8
      vertex 0.459 0.725 8
    endloop
  endfacet
  facet normal -0.707107 -0.707107 0
    outer loop
      vertex 0.542 0.631 0
      vertex 0.631 0.542 0
      vertex 0.631 0.542 8
    endloop
  endfacet
  facet normal -0.707107 -0.707107 0
    outer loop
      vertex 0.542 0.631 8
      vertex 0.542 0.631 0
      vertex 0.631 0.542 8
    endloop
  endfacet
  facet normal -0.661885 -0.749605 0
    outer loop
      vertex 0.631 0.542 0
      vertex 0.725 0.459 0
      vertex 0.725 0.459 8
    endloop
  endfacet
  facet normal -0.661885 -0.749605 0
    outer loop
      vertex 0.631 0.542 8
      vertex 0.631 0.542 0
      vertex 0.725 0.459 8
    endloop
  endfacet
  facet normal -0.613941 -0.789352 0
    outer loop
      vertex 0.725 0.459 0
      vertex 0.824 0.382 0
      vertex 0.824 0.382 8
    endloop
  endfacet
  facet normal -0.613941 -0.789352 0
    outer loop
      vertex 0.725 0.459 8
      vertex 0.725 0.459 0
      vertex 0.824 0.382 8
    endloop
  endfacet
  facet normal -0.56383 -0.825891 0
    outer loop
      vertex 0.824 0.382 0
      vertex 0.928 0.311 0
      vertex 0.928 0.311 8
    endloop
  endfacet
  facet normal -0.56383 -0.825891 0
    outer loop
      vertex 0.824 0.382 8
      vertex 0.824 0.382 0
      vertex 0.928 0.311 8
    endloop
  endfacet
  facet normal -0.509802 -0.860292 0
    outer loop
      vertex 0.928 0.311 0
      vertex 1.036 0.247 0
      vertex 1.036 0.247 8
    endloop
  endfacet
  facet normal -0.509802 -0.860292 0
    outer loop
      vertex 0.928 0.311 8
      vertex 0.928 0.311 0
      vertex 1.036 0.247 8
    endloop
  endfacet
  facet normal -0.453568 -0.891222 0
    outer loop
      vertex 1.036 0.247 0
      vertex 1.148 0.19 0
      vertex 1.148 0.19 8
    endloop
  endfacet
  facet normal -0.453568 -0.891222 0
    outer loop
      vertex 1.036 0.247 8
      vertex 1.036 0.247 0
      vertex 1.148 0.19 8
    endloop
  endfacet
  facet normal -0.395829 -0.918324 0
    outer loop
      vertex 1.148 0.19 0
      vertex 1.264 0.14 0
      vertex 1.264 0.14 8
    endloop
  endfacet
  facet normal -0.395829 -0.918324 0
    outer loop
      vertex 1.148 0.19 8
      vertex 1.148 0.19 0
      vertex 1.264 0.14 8
    endloop
  endfacet
  facet normal -0.335325 -0.942103 0
    outer loop
      vertex 1.264 0.14 0
      vertex 1.382 0.098 0
      vertex 1.382 0.098 8
    endloop
  endfacet
  facet normal -0.335325 -0.942103 0
    outer loop
      vertex 1.264 0.14 8
      vertex 1.264 0.14 0
      vertex 1.382 0.098 8
    endloop
  endfacet
  facet normal -0.277865 -0.96062 0
    outer loop
      vertex 1.382 0.098 0
      vertex 1.503 0.063 0
      vertex 1.503 0.063 8
    endloop
  endfacet
  facet normal -0.277865 -0.96062 0
    outer loop
      vertex 1.382 0.098 8
      vertex 1.382 0.098 0
      vertex 1.503 0.063 8
    endloop
  endfacet
  facet normal -0.223692 -0.97466 0
    outer loop
      vertex 1.503 0.063 0
      vertex 1.625 0.035 0
      vertex 1.625 0.035 8
    endloop
  endfacet
  facet normal -0.223692 -0.97466 0
    outer loop
      vertex 1.503 0.063 8
      vertex 1.503 0.063 0
      vertex 1.625 0.035 8
    endloop
  endfacet
  facet normal -0.151458 -0.988464 0
    outer loop
      vertex 1.625 0.035 0
      vertex 1.749 0.016 0
      vertex 1.749 0.016 8
    endloop
  endfacet
  facet normal -0.151458 -0.988464 0
    outer loop
      vertex 1.625 0.035 8
      vertex 1.625 0.035 0
      vertex 1.749 0.016 8
    endloop
  endfacet
  facet normal -0.0955607 -0.995424 0
    outer loop
      vertex 1.749 0.016 0
      vertex 1.874 0.004 0
      vertex 1.874 0.004 8
    endloop
  endfacet
  facet normal -0.0955607 -0.995424 0
    outer loop
      vertex 1.749 0.016 8
      vertex 1.749 0.016 0
      vertex 1.874 0.004 8
    endloop
  endfacet
  facet normal -0.03173 -0.999496 0
    outer loop
      vertex 1.874 0.004 0
      vertex 2 0 0
      vertex 2 0 8
    endloop
  endfacet
  facet normal -0.03173 -0.999496 0
    outer loop
      vertex 1.874 0.004 8
      vertex 1.874 0.004 0
      vertex 2 0 8
    endloop
  endfacet
  facet normal 0 -1 0
    outer loop
      vertex 2 0 0
      vertex 40 0 0
      vertex 40 0 8
    endloop
  endfacet
  facet normal 0 -1 0
    outer loop
      vertex 2 0 8
      vertex 2 0 0
      vertex 40 0 8
    endloop
  endfacet
  facet normal 0.03173 -0.999496 0
    outer loop
      vertex 40 0 0
      vertex 40.126 0.004 0
      vertex 40.126 0.004 8
    endloop
  endfacet
  facet normal 0.03173 -0.999496 0
    outer loop
      vertex 40 0 8
      vertex 40 0 0
      vertex 40.126 0.004 8
    endloop
  endfacet
  facet normal 0.0955607 -0.995424 0
    outer loop
      vertex 40.126 0.004 0
      vertex 40.251 0.016 0
      vertex 40.251 0.016 8
    endloop
  endfacet
  facet normal 0.0955607 -0.995424 0
    outer loop
      vertex 40.126 0.004 8
      vertex 40.126 0.004 0
      vertex 40.251 0.016 8
    endloop
  endfacet
  facet normal 0.151458 -0.988464 0
    outer loop
      vertex 40.251 0.016 0
      vertex 40.375 0.035 0
      vertex 40.375 0.035 8
    endloop
  endfacet
  facet normal 0.151458 -0.988464 0
    outer loop
      vertex 40.251 0.016 8
      vertex 40.251 0.016 0
      vertex 40.375 0.035 8
    endloop
  endfacet
  facet normal 0.223692 -0.97466 0
    outer loop
      vertex 40.375 0.035 0
      vertex 40.497 0.063 0
      vertex 40.497 0.063 8
    endloop
  endfacet
  facet normal 0.223692 -0.97466 0
    outer loop
      vertex 40.375 0.035 8
      vertex 40.375 0.035 0
      vertex 40.497 0.063 8
    endloop
  endfacet
  facet normal 0.277865 -0.96062 0
    outer loop
      vertex 40.497 0.063 0
      vertex 40.618 0.098 0
      vertex 40.618 0.098 8
    endloop
  endfacet
  facet normal 0.277865 -0.96062 0
    outer loop
      vertex 40.497 0.063 8
      vertex 40.497 0.063 0
      vertex 40.618 0.098 8
    endloop
  endfacet
  facet normal 0.335325 -0.942103 0
    outer loop
      vertex 40.618 0.098 0
      vertex 40.736 0.14 0
      vertex 40.736 0.14 8
    endloop
  endfacet
  facet normal 0.335325 -0.942103 0
    outer loop
      vertex 40.618 0.098 8
      vertex 40.618 0.098 0
      vertex 40.736 0.14 8
    endloop
  endfacet
  facet normal 0.395829 -0.918324 0
    outer loop
      vertex 40.736 0.14 0
      vertex 40.852 0.19 0
      vertex 40.852 0.19 8
    endloop
  endfacet
  facet normal 0.395829 -0.918324 0
    outer loop
      vertex 40.736 0.14 8
      vertex 40.736 0.14 0
      vertex 40.852 0.19 8
    endloop
  endfacet
  facet normal 0.453568 -0.891222 0
    outer loop
      vertex 40.852 0.19 0
      vertex 40.964 0.247 0
      vertex 40.964 0.247 8
    endloop
  endfacet
  facet normal 0.453568 -0.891222 0
    outer loop
      vertex 40.852 0.19 8
      vertex 40.852 0.19 0
      vertex 40.964 0.247 8
    endloop
  endfacet
  facet normal 0.509802 -0.860292 0
    outer loop
      vertex 40.964 0.247 0
      vertex 41.072 0.311 0
      vertex 41.072 0.311 8
    endloop
  endfacet
  facet normal 0.509802 -0.860292 0
    outer loop
      vertex 40.964 0.247 8
      vertex 40.964 0.247 0
      vertex 41.072 0.311 8
    endloop
  endfacet
  facet normal 0.56383 -0.825891 0
    outer loop
      vertex 41.072 0.311 0
      vertex 41.176 0.382 0
      vertex 41.176 0.382 8
    endloop
  endfacet
  facet normal 0.56383 -0.825891 0
    outer loop
      vertex 41.072 0.311 8
      vertex 41.072 0.311 0
      vertex 41.176 0.382 8
    endloop
  endfacet
  facet normal 0.613941 -0.789352 0
    outer loop
      vertex 41.176 0.382 0
      vertex 41.275 0.459 0
      vertex 41.275 0.459 8
    endloop
  endfacet
  facet normal 0.613941 -0.789352 0
    outer loop
      vertex 41.176 0.382 8
      vertex 41.176 0.382 0
      vertex 41.275 0.459 8
    endloop
  endfacet
  facet normal 0.661885 -0.749605 0
    outer loop
      vertex 41.275 0.459 0
      vertex 41.369 0.542 0
      vertex 41.369 0.542 8
    endloop
  endfacet
  facet normal 0.661885 -0.749605 0
    outer loop
      vertex 41.275 0.459 8
      vertex 41.275 0.459 0
      vertex 41.369 0.542 8
    endloop
  endfacet
  facet normal 0.707107 -0.707107 0
    outer loop
      vertex 41.369 0.542 0
      vertex 41.458 0.631 0
      vertex 41.458 0.631 8
    endloop
  endfacet
  facet normal 0.707107 -0.707107 0
    outer loop
      vertex 41.369 0.542 8
      vertex 41.369 0.542 0
      vertex 41.458 0.631 8
    endloop
  endfacet
  facet normal 0.749605 -0.661885 0
    outer loop
      vertex 41.458 0.631 0
      vertex 41.541 0.725 0
      vertex 41.541 0.725 8
    endloop
  endfacet
  facet normal 0.749605 -0.661885 0
    outer loop
      vertex 41.458 0.631 8
      vertex 41.458 0.631 0
      vertex 41.541 0.725 8
    endloop
  endfacet
  facet normal 0.789352 -0.613941 0
    outer loop
      vertex 41.541 0.725 0
      vertex 41.618 0.824 0
      vertex 41.618 0.824 8
    endloop
  endfacet
  facet normal 0.789352 -0.613941 0
    outer loop
      vertex 41.541 0.725 8
      vertex 41.541 0.725 0
      vertex 41.618 0.824 8
    endloop
  endfacet
  facet normal 0.825891 -0.56383 0
    outer loop
      vertex 41.618 0.824 0
      vertex 41.689 0.928 0
      vertex 41.689 0.928 8
    endloop
  endfacet
  facet normal 0.825891 -0.56383 0
    outer loop
      vertex 41.618 0.824 8
      vertex 41.618 0.824 0
      vertex 41.689 0.928 8
    endloop
  endfacet
  facet normal 0.860292 -0.509802 0
    outer loop
      vertex 41.689 0.928 0
      vertex 41.753 1.036 0
      vertex 41.753 1.036 8
    endloop
  endfacet
  facet normal 0.860292 -0.509802 0
    outer loop
      vertex 41.689 0.928 8
      vertex 41.689 0.928 0
      vertex 41.753 1.036 8
    endloop
  endfacet
  facet normal 0.891222 -0.453568 0
    outer loop
      vertex 41.753 1.036 0
      vertex 41.81 1.148 0
      vertex 41.81 1.148 8
    endloop
  endfacet
  facet normal 0.891222 -0.453568 0
    outer loop
      vertex 41.753 1.036 8
      vertex 41.753 1.036 0
      vertex 41.81 1.148 8
    endloop
  endfacet
  facet normal 0.918324 -0.395829 0
    outer loop
      vertex 41.81 1.148 0
      vertex 41.86 1.264 0
      vertex 41.86 1.264 8
    endloop
  endfacet
  facet normal 0.918324 -0.395829 0
    outer loop
      vertex 41.81 1.148 8
      vertex 41.81 1.148 0
      vertex 41.86 1.264 8
    endloop
  endfacet
  facet normal 0.942103 -0.335325 0
    outer loop
      vertex 41.86 1.264 0
      vertex 41.902 1.382 0
      vertex 41.902 1.382 8
    endloop
  endfacet
  facet normal 0.942103 -0.335325 0
    outer loop
      vertex 41.86 1.264 8
      vertex 41.86 1.264 0
      vertex 41.902 1.382 8
    endloop
  endfacet
  facet normal 0.96062 -0.277865 0
    outer loop
      vertex 41.902 1.382 0
      vertex 41.937 1.503 0
      vertex 41.937 1.503 8
    endloop
  endfacet
  facet normal 0.96062 -0.277865 0
    outer loop
      vertex 41.902 1.382 8
      vertex 41.902 1.382 0
      vertex 41.937 1.503 8
    endloop
  endfacet
  facet normal 0.97466 -0.223692 0
    outer loop
      vertex 41.937 1.503 0
      vertex 41.965 1.625 0
      vertex 41.965 1.625 8
    endloop
  endfacet
  facet normal 0.97466 -0.223692 0
    outer loop
      vertex 41.937 1.503 8
      vertex 41.937 1.503 0
      vertex 41.965 1.625 8
    endloop
  endfacet
  facet normal 0.988464 -0.151458 0
    outer loop
      vertex 41.965 1.625 0
      vertex 41.984 1.749 0
      vertex 41.984 1.749 8
    endloop
  endfacet
  facet normal 0.988464 -0.151458 0
    outer loop
      vertex 41.965 1.625 8
      vertex 41.965 1.625 0
      vertex 41.984 1.749 8
    endloop
  endfacet
  facet normal 0.995424 -0.0955607 0
    outer loop
      vertex 41.984 1.749 0
      vertex 41.996 1.874 0
      vertex 41.996 1.874 8
    endloop
  endfacet
  facet normal 0.995424 -0.0955607 0
    outer loop
      vertex 41.984 1.749 8
      vertex 41.984 1.749 0
      vertex 41.996 1.874 8
    endloop
  endfacet
  facet normal 0.999496 -0.03173 0
    outer loop
      vertex 41.996 1.874 0
      vertex 42 2 0
      vertex 42 2 8
    endloop
  endfacet
  facet normal 0.999496 -0.03173 0
    outer loop
      vertex 41.996 1.874 8
      vertex 41.996 1.874 0
      vertex 42 2 8
    endloop
  endfacet
  facet normal 1 0 0
    outer loop
      vertex 42 2 0
      vertex 42 42 0
      vertex 42 42 8
    endloop
  endfacet
  facet normal 1 0 0
    outer loop
      vertex 42 2 8
      vertex 42 2 0
      vertex 42 42 8
    endloop
  endfacet
  facet normal 0.999496 0.03173 0
    outer loop
      vertex 41.996 42.126 0
      vertex 41.996 42.126 8
      vertex 42 42 8
    endloop
  endfacet
  facet normal 0.999496 0.03173 0
    outer loop
      vertex 42 42 0
      vertex 41.996 42.126 0
      vertex 42 42 8
    endloop
  endfacet
  facet normal 0.995424 0.0955607 0
    outer loop
      vertex 41.984 42.251 0
      vertex 41.984 42.251 8
      vertex 41.996 42.126 8
    endloop
  endfacet
  facet normal 0.995424 0.0955607 0
    outer loop
      vertex 41.996 42.126 0
      vertex 41.984 42.251 0
      vertex 41.996 42.126 8
    endloop
  endfacet
  facet normal 0.988464 0.151458 0
    outer loop
      vertex 41.965 42.375 0
      vertex 41.965 42.375 8
      vertex 41.984 42.251 8
    endloop
  endfacet
  facet normal 0.988464 0.151458 0
    outer loop
      vertex 41.984 42.251 0
      vertex 41.965 42.375 0
      vertex 41.984 42.251 8
    endloop
  endfacet
  facet normal 0.97466 0.223692 0
    outer loop
      vertex 41.937 42.497 0
      vertex 41.937 42.497 8
      vertex 41.965 42.375 8
    endloop
  endfacet
  facet normal 0.97466 0.223692 0
    outer loop
      vertex 41.965 42.375 0
      vertex 41.937 42.497 0
      vertex 41.965 42.375 8
    endloop
  endfacet
  facet normal 0.96062 0.277865 0
    outer loop
      vertex 41.902 42.618 0
      vertex 41.902 42.618 8
      vertex 41.937 42.497 8
    endloop
  endfacet
  facet normal 0.96062 0.277865 0
    outer loop
      vertex 41.937 42.497 0
      vertex 41.902 42.618 0
      vertex 41.937 42.497 8
    endloop
  endfacet
  facet normal 0.942103 0.335325 0
    outer loop
      vertex 41.86 42.736 0
      vertex 41.86 42.736 8
      vertex 41.902 42.618 8
    endloop
  endfacet
  facet normal 0.942103 0.335325 0
    outer loop
      vertex 41.902 42.618 0
      vertex 41.86 42.736 0
      vertex 41.902 42.618 8
    endloop
  endfacet
  facet normal 0.918324 0.395829 0
    outer loop
      vertex 41.81 42.852 0
      vertex 41.81 42.852 8
      vertex 41.86 42.736 8
    endloop
  endfacet
  facet normal 0.918324 0.395829 0
    outer loop
      vertex 41.86 42.736 0
      vertex 41.81 42.852 0
      vertex 41.86 42.736 8
    endloop
  endfacet
  facet normal 0.891222 0.453568 0
    outer loop
      vertex 41.753 42.964 0
      vertex 41.753 42.964 8
      vertex 41.81 42.852 8
    endloop
  endfacet
  facet normal 0.891222 0.453568 0
    outer loop
      vertex 41.81 42.852 0
      vertex 41.753 42.964 0
      vertex 41.81 42.852 8
    endloop
  endfacet
  facet normal 0.860292 0.509802 0
    outer loop
      vertex 41.689 43.072 0
      vertex 41.689 43.072 8
      vertex 41.753 42.964 8
    endloop
  endfacet
  facet normal 0.860292 0.509802 0
    outer loop
      vertex 41.753 42.964 0
      vertex 41.689 43.072 0
      vertex 41.753 42.964 8
    endloop
  endfacet
  facet normal 0.825891 0.56383 0
    outer loop
      vertex 41.618 43.176 0
      vertex 41.618 43.176 8
      vertex 41.689 43.072 8
    endloop
  endfacet
  facet normal 0.825891 0.56383 0
    outer loop
      vertex 41.689 43.072 0
      vertex 41.618 43.176 0
      vertex 41.689 43.072 8
    endloop
  endfacet
  facet normal 0.789352 0.613941 0
    outer loop
      vertex 41.541 43.275 0
      vertex 41.541 43.275 8
      vertex 41.618 43.176 8
    endloop
  endfacet
  facet normal 0.789352 0.613941 0
    outer loop
      vertex 41.618 43.176 0
      vertex 41.541 43.275 0
      vertex 41.618 43.176 8
    endloop
  endfacet
  facet normal 0.749605 0.661885 0
    outer loop
      vertex 41.458 43.369 0
      vertex 41.458 43.369 8
      vertex 41.541 43.275 8
    endloop
  endfacet
  facet normal 0.749605 0.661885 0
    outer loop
      vertex 41.541 43.275 0
      vertex 41.458 43.369 0
      vertex 41.541 43.275 8
    endloop
  endfacet
  facet normal 0.707107 0.707107 0
    outer loop
      vertex 41.369 43.458 8
      vertex 41.458 43.369 8
      vertex 41.369 43.458 0
    endloop
  endfacet
  facet normal 0.707107 0.707107 0
    outer loop
      vertex 41.369 43.458 0
      vertex 41.458 43.369 8
      vertex 41.458 43.369 0
    endloop
  endfacet
  facet normal 0.661885 0.749605 0
    outer loop
      vertex 41.275 43.541 8
      vertex 41.369 43.458 8
      vertex 41.275 43.541 0
    endloop
  endfacet
  facet normal 0.661885 0.749605 0
    outer loop
      vertex 41.275 43.541 0
      vertex 41.369 43.458 8
      vertex 41.369 43.458 0
    endloop
  endfacet
  facet normal 0.613941 0.789352 0
    outer loop
      vertex 41.176 43.618 8
      vertex 41.275 43.541 8
      vertex 41.176 43.618 0
    endloop
  endfacet
  facet normal 0.613941 0.789352 0
    outer loop
      vertex 41.176 43.618 0
      vertex 41.275 43.541 8
      vertex 41.275 43.541 0
    endloop
  endfacet
  facet normal 0.56383 0.825891 0
    outer loop
      vertex 41.072 43.689 8
      vertex 41.176 43.618 8
      vertex 41.072 43.689 0
    endloop
  endfacet
  facet normal 0.56383 0.825891 0
    outer loop
      vertex 41.072 43.689 0
      vertex 41.176 43.618 8
      vertex 41.176 43.618 0
    endloop
  endfacet
  facet normal 0.509802 0.860292 0
    outer loop
      vertex 40.964 43.753 8
      vertex 41.072 43.689 8
      vertex 40.964 43.753 0
    endloop
  endfacet
  facet normal 0.509802 0.860292 0
    outer loop
      vertex 40.964 43.753 0
      vertex 41.072 43.689 8
      vertex 41.072 43.689 0
    endloop
  endfacet
  facet normal 0.453568 0.891222 0
    outer loop
      vertex 40.852 43.81 8
      vertex 40.964 43.753 8
      vertex 40.852 43.81 0
    endloop
  endfacet
  facet normal 0.453568 0.891222 0
    outer loop
      vertex 40.852 43.81 0
      vertex 40.964 43.753 8
      vertex 40.964 43.753 0
    endloop
  endfacet
  facet normal 0.395829 0.918324 0
    outer loop
      vertex 40.736 43.86 8
      vertex 40.852 43.81 8
      vertex 40.736 43.86 0
    endloop
  endfacet
  facet normal 0.395829 0.918324 0
    outer loop
      vertex 40.736 43.86 0
      vertex 40.852 43.81 8
      vertex 40.852 43.81 0
    endloop
  endfacet
  facet normal 0.335325 0.942103 0
    outer loop
      vertex 40.618 43.902 8
      vertex 40.736 43.86 8
      vertex 40.618 43.902 0
    endloop
  endfacet
  facet normal 0.335325 0.942103 0
    outer loop
      vertex 40.618 43.902 0
      vertex 40.736 43.86 8
      vertex 40.736 43.86 0
    endloop
  endfacet
  facet normal 0.277865 0.96062 0
    outer loop
      vertex 40.497 43.937 8
      vertex 40.618 43.902 8
      vertex 40.497 43.937 0
    endloop
  endfacet
  facet normal 0.277865 0.96062 0
    outer loop
      vertex 40.497 43.937 0
      vertex 40.618 43.902 8
      vertex 40.618 43.902 0
    endloop
  endfacet
  facet normal 0.223692 0.97466 0
    outer loop
      vertex 40.375 43.965 8
      vertex 40.497 43.937 8
      vertex 40.375 43.965 0
    endloop
  endfacet
  facet normal 0.223692 0.97466 0
    outer loop
      vertex 40.375 43.965 0
      vertex 40.497 43.937 8
      vertex 40.497 43.937 0
    endloop
  endfacet
  facet normal 0.151458 0.988464 0
    outer loop
      vertex 40.251 43.984 8
      vertex 40.375 43.965 8
      vertex 40.251 43.984 0
    endloop
  endfacet
  facet normal 0.151458 0.988464 0
    outer loop
      vertex 40.251 43.984 0
      vertex 40.375 43.965 8
      vertex 40.375 43.965 0
    endloop
  endfacet
  facet normal 0.0955607 0.995424 0
    outer loop
      vertex 40.126 43.996 8
      vertex 40.251 43.984 8
      vertex 40.126 43.996 0
    endloop
  endfacet
  facet normal 0.0955607 0.995424 0
    outer loop
      vertex 40.126 43.996 0
      vertex 40.251 43.984 8
      vertex 40.251 43.984 0
    endloop
  endfacet
  facet normal 0.03173 0.999496 0
    outer loop
      vertex 40 44 8
      vertex 40.126 43.996 8
      vertex 40 44 0
    endloop
  endfacet
  facet normal 0.03173 0.999496 0
    outer loop
      vertex 40 44 0
      vertex 40.126 43.996 8
      vertex 40.126 43.996 0
    endloop
  endfacet
  facet normal 0 1 0
    outer loop
      vertex 2 44 8
      vertex 40 44 8
      vertex 2 44 0
    endloop
  endfacet
  facet normal 0 1 0
    outer loop
      vertex 2 44 0
      vertex 40 44 8
      vertex 40 44 0
    endloop
  endfacet
  facet normal -0.03173 0.999496 0
    outer loop
      vertex 1.874 43.996 8
      vertex 2 44 8
      vertex 1.874 43.996 0
    endloop
  endfacet
  facet normal -0.03173 0.999496 0
    outer loop
      vertex 1.874 43.996 0
      vertex 2 44 8
      vertex 2 44 0
    endloop
  endfacet
  facet normal -0.0955607 0.995424 0
    outer loop
      vertex 1.749 43.984 8
      vertex 1.874 43.996 8
      vertex 1.749 43.984 0
    endloop
  endfacet
  facet normal -0.0955607 0.995424 0
    outer loop
      vertex 1.749 43.984 0
      vertex 1.874 43.996 8
      vertex 1.874 43.996 0
    endloop
  endfacet
  facet normal -0.151458 0.988464 0
    outer loop
      vertex 1.625 43.965 8
      vertex 1.749 43.984 8
      vertex 1.625 43.965 0
    endloop
  endfacet
  facet normal -0.151458 0.988464 0
    outer loop
      vertex 1.625 43.965 0
      vertex 1.749 43.984 8
      vertex 1.749 43.984 0
    endloop
  endfacet
  facet normal -0.223692 0.97466 0
    outer loop
      vertex 1.503 43.937 8
      vertex 1.625 43.965 8
      vertex 1.503 43.937 0
    endloop
  endfacet
  facet normal -0.223692 0.97466 0
    outer loop
      vertex 1.503 43.937 0
      vertex 1.625 43.965 8
      vertex 1.625 43.965 0
    endloop
  endfacet
  facet normal -0.277865 0.96062 0
    outer loop
      vertex 1.382 43.902 8
      vertex 1.503 43.937 8
      vertex 1.382 43.902 0
    endloop
  endfacet
  facet normal -0.277865 0.96062 0
    outer loop
      vertex 1.382 43.902 0
      vertex 1.503 43.937 8
      vertex 1.503 43.937 0
    endloop
  endfacet
  facet normal -0.335325 0.942103 0
    outer loop
      vertex 1.264 43.86 8
      vertex 1.382 43.902 8
      vertex 1.264 43.86 0
    endloop
  endfacet
  facet normal -0.335325 0.942103 0
    outer loop
      vertex 1.264 43.86 0
      vertex 1.382 43.902 8
      vertex 1.382 43.902 0
    endloop
  endfacet
  facet normal -0.395829 0.918324 0
    outer loop
      vertex 1.148 43.81 8
      vertex 1.264 43.86 8
      vertex 1.148 43.81 0
    endloop
  endfacet
  facet normal -0.395829 0.918324 0
    outer loop
      vertex 1.148 43.81 0
      vertex 1.264 43.86 8
      vertex 1.264 43.86 0
    endloop
  endfacet
  facet normal -0.453568 0.891222 0
    outer loop
      vertex 1.036 43.753 8
      vertex 1.148 43.81 8
      vertex 1.036 43.753 0
    endloop
  endfacet
  facet normal -0.453568 0.891222 0
    outer loop
      vertex 1.036 43.753 0
      vertex 1.148 43.81 8
      vertex 1.148 43.81 0
    endloop
  endfacet
  facet normal -0.509802 0.860292 0
    outer loop
      vertex 0.928 43.689 8
      vertex 1.036 43.753 8
      vertex 0.928 43.689 0
    endloop
  endfacet
  facet normal -0.509802 0.860292 0
    outer loop
      vertex 0.928 43.689 0
      vertex 1.036 43.753 8
      vertex 1.036 43.753 0
    endloop
  endfacet
  facet normal -0.56383 0.825891 0
    outer loop
      vertex 0.824 43.618 8
      vertex 0.928 43.689 8
      vertex 0.824 43.618 0
    endloop
  endfacet
  facet normal -0.56383 0.825891 0
    outer loop
      vertex 0.824 43.618 0
      vertex 0.928 43.689 8
      vertex 0.928 43.689 0
    endloop
  endfacet
  facet normal -0.613941 0.789352 0
    outer loop
      vertex 0.725 43.541 8
      vertex 0.824 43.618 8
      vertex 0.725 43.541 0
    endloop
  endfacet
  facet normal -0.613941 0.789352 0
    outer loop
      vertex 0.725 43.541 0
      vertex 0.824 43.618 8
      vertex 0.824 43.618 0
    endloop
  endfacet
  facet normal -0.661885 0.749605 0
    outer loop
      vertex 0.631 43.458 8
      vertex 0.725 43.541 8
      vertex 0.631 43.458 0
    endloop
  endfacet
  facet normal -0.661885 0.749605 0
    outer loop
      vertex 0.631 43.458 0
      vertex 0.725 43.541 8
      vertex 0.725 43.541 0
    endloop
  endfacet
  facet normal -0.707107 0.707107 0
    outer loop
      vertex 0.542 43.369 8
      vertex 0.631 43.458 8
      vertex 0.542 43.369 0
    endloop
  endfacet
  facet normal -0.707107 0.707107 0
    outer loop
      vertex 0.542 43.369 0
      vertex 0.631 43.458 8
      vertex 0.631 43.458 0
    endloop
  endfacet
  facet normal -0.749605 0.661885 0
    outer loop
      vertex 0.459 43.275 8
      vertex 0.542 43.369 8
      vertex 0.459 43.275 0
    endloop
  endfacet
  facet normal -0.749605 0.661885 0
    outer loop
      vertex 0.459 43.275 0
      vertex 0.542 43.369 8
      vertex 0.542 43.369 0
    endloop
  endfacet
  facet normal -0.789352 0.613941 0
    outer loop
      vertex 0.382 43.176 8
      vertex 0.459 43.275 8
      vertex 0.382 43.176 0
    endloop
  endfacet
  facet normal -0.789352 0.613941 0
    outer loop
      vertex 0.382 43.176 0
      vertex 0.459 43.275 8
      vertex 0.459 43.275 0
    endloop
  endfacet
  facet normal -0.825891 0.56383 0
    outer loop
      vertex 0.311 43.072 8
      vertex 0.382 43.176 8
      vertex 0.311 43.072 0
    endloop
  endfacet
  facet normal -0.825891 0.56383 0
    outer loop
      vertex 0.311 43.072 0
      vertex 0.382 43.176 8
      vertex 0.382 43.176 0
    endloop
  endfacet
  facet normal -0.860292 0.509802 0
    outer loop
      vertex 0.247 42.964 8
      vertex 0.311 43.072 8
      vertex 0.247 42.964 0
    endloop
  endfacet
  facet normal -0.860292 0.509802 0
    outer loop
      vertex 0.247 42.964 0
      vertex 0.311 43.072 8
      vertex 0.311 43.072 0
    endloop
  endfacet
  facet normal -0.891222 0.453568 0
    outer loop
      vertex 0.19 42.852 8
      vertex 0.247 42.964 8
      vertex 0.19 42.852 0
    endloop
  endfacet
  facet normal -0.891222 0.453568 0
    outer loop
      vertex 0.19 42.852 0
      vertex 0.247 42.964 8
      vertex 0.247 42.964 0
    endloop
  endfacet
  facet normal -0.918324 0.395829 0
    outer loop
      vertex 0.14 42.736 8
      vertex 0.19 42.852 8
      vertex 0.14 42.736 0
    endloop
  endfacet
  facet normal -0.918324 0.395829 0
    outer loop
      vertex 0.14 42.736 0
      vertex 0.19 42.852 8
      vertex 0.19 42.852 0
    endloop
  endfacet
  facet normal -0.942103 0.335325 0
    outer loop
      vertex 0.098 42.618 8
      vertex 0.14 42.736 8
      vertex 0.098 42.618 0
    endloop
  endfacet
  facet normal -0.942103 0.335325 0
    outer loop
      vertex 0.098 42.618 0
      vertex 0.14 42.736 8
      vertex 0.14 42.736 0
    endloop
  endfacet
  facet normal -0.96062 0.277865 0
    outer loop
      vertex 0.063 42.497 8
      vertex 0.098 42.618 8
      vertex 0.063 42.497 0
    endloop
  endfacet
  facet normal -0.96062 0.277865 0
    outer loop
      vertex 0.063 42.497 0
      vertex 0.098 42.618 8
      vertex 0.098 42.618 0
    endloop
  endfacet
endsolid OpenSCAD_Model
