solid OpenSCAD_Model
  facet normal 0 -1 0
    outer loop
      vertex 0 0 4
      vertex 0 0 0
      vertex 40 0 0
    endloop
  endfacet
  facet normal 0 -1 0
    outer loop
      vertex 40 0 4
      vertex 0 0 4
      vertex 40 0 0
    endloop
  endfacet
  facet normal 0 0 -1
    outer loop
      vertex 0 0 0
      vertex 0 44 0
      vertex 40 0 0
    endloop
  endfacet
  facet normal 0 0 -1
    outer loop
      vertex 40 0 0
      vertex 0 44 0
      vertex 40 44 0
    endloop
  endfacet
  facet normal -1 0 0
    outer loop
      vertex 0 0 0
      vertex 0 0 4
      vertex 0 44 0
    endloop
  endfacet
  facet normal -1 0 0
    outer loop
      vertex 0 44 0
      vertex 0 0 4
      vertex 0 44 4
    endloop
  endfacet
  facet normal 0 0 1
    outer loop
      vertex 3.5 26 4
      vertex 0 0 4
      vertex 40 0 4
    endloop
  endfacet
  facet normal 0 0 1
    outer loop
      vertex 0 44 4
      vertex 0 0 4
      vertex 3.5 26 4
    endloop
  endfacet
  facet normal 0 0 1
    outer loop
      vertex 40 44 4
      vertex 0 44 4
      vertex 3.5 42 4
    endloop
  endfacet
  facet normal 0 0 1
    outer loop
      vertex 40 44 4
      vertex 39.5 42 4
      vertex 40 0 4
    endloop
  endfacet
  facet normal 0 0 1
    outer loop
      vertex 40 44 4
      vertex 3.5 42 4
      vertex 39.5 42 4
    endloop
  endfacet
  facet normal 0 0 1
    outer loop
      vertex 39.5 42 4
      vertex 39.5 26 4
      vertex 40 0 4
    endloop
  endfacet
  facet normal 0 0 1
    outer loop
      vertex 3.5 26 4
      vertex 3.5 42 4
      vertex 0 44 4
    endloop
  endfacet
  facet normal 0 0 1
    outer loop
      vertex 39.5 26 4
      vertex 3.5 26 4
      vertex 40 0 4
    endloop
  endfacet
  facet normal 1 0 0
    outer loop
      vertex 40 0 4
      vertex 40 0 0
      vertex 40 44 0
    endloop
  endfacet
  facet normal 1 0 0
    outer loop
      vertex 40 44 4
      vertex 40 0 4
      vertex 40 44 0
    endloop
  endfacet
  facet normal 0 1 0
    outer loop
      vertex 0 44 0
      vertex 0 44 4
      vertex 40 44 0
    endloop
  endfacet
  facet normal 0 1 0
    outer loop
      vertex 40 44 0
      vertex 0 44 4
      vertex 40 44 4
    endloop
  endfacet
  facet normal 1 0 0
    outer loop
      vertex 3.5 42 3
      vertex 3.5 42 4
      vertex 3.5 26 4
    endloop
  endfacet
  facet normal 1 0 0
    outer loop
      vertex 3.5 26 3
      vertex 3.5 42 3
      vertex 3.5 26 4
    endloop
  endfacet
  facet normal 0 1 0
    outer loop
      vertex 39.5 26 4
      vertex 39.5 26 3
      vertex 3.5 26 4
    endloop
  endfacet
  facet normal 0 1 0
    outer loop
      vertex 3.5 26 4
      vertex 39.5 26 3
      vertex 3.5 26 3
    endloop
  endfacet
  facet normal -1 0 0
    outer loop
      vertex 39.5 42 4
      vertex 39.5 42 3
      vertex 39.5 26 4
    endloop
  endfacet
  facet normal -1 0 0
    outer loop
      vertex 39.5 26 4
      vertex 39.5 42 3
      vertex 39.5 26 3
    endloop
  endfacet
  facet normal 0 -1 0
    outer loop
      vertex 39.5 42 3
      vertex 39.5 42 4
      vertex 3.5 42 4
    endloop
  endfacet
  facet normal 0 -1 0
    outer loop
      vertex 3.5 42 3
      vertex 39.5 42 3
      vertex 3.5 42 4
    endloop
  endfacet
  facet normal 0 0 1
    outer loop
      vertex 39.5 26 3
      vertex 39.5 42 3
      vertex 3.5 42 3
    endloop
  endfacet
  facet normal 0 0 1
    outer loop
      vertex 3.5 26 3
      vertex 39.5 26 3
      vertex 3.5 42 3
    endloop
  endfacet
endsolid OpenSCAD_Model
