solid ascii
  facet normal -1.000000e+000 0.000000e+000 1.111613e-016
    outer loop
      vertex   -8.880000e+000 0.000000e+000 -1.598000e+001
      vertex   -8.880000e+000 0.000000e+000 1.598000e+001
      vertex   -8.880000e+000 9.000000e-001 -1.598000e+001
    endloop
  endfacet
  facet normal -1.000000e+000 0.000000e+000 1.111613e-016
    outer loop
      vertex   -8.880000e+000 9.000000e-001 -1.598000e+001
      vertex   -8.880000e+000 0.000000e+000 1.598000e+001
      vertex   -8.880000e+000 9.000000e-001 1.598000e+001
    endloop
  endfacet
  facet normal -0.000000e+000 1.000000e+000 0.000000e+000
    outer loop
      vertex   -8.880000e+000 9.000000e-001 -1.598000e+001
      vertex   -8.880000e+000 9.000000e-001 1.598000e+001
      vertex   -7.980000e+000 9.000000e-001 -1.598000e+001
    endloop
  endfacet
  facet normal 0.000000e+000 1.000000e+000 -0.000000e+000
    outer loop
      vertex   -7.980000e+000 9.000000e-001 -1.598000e+001
      vertex   -8.880000e+000 9.000000e-001 1.598000e+001
      vertex   -7.980000e+000 9.000000e-001 1.598000e+001
    endloop
  endfacet
  facet normal -0.000000e+000 1.000000e+000 0.000000e+000
    outer loop
      vertex   7.980000e+000 9.000000e-001 -1.598000e+001
      vertex   7.980000e+000 9.000000e-001 1.598000e+001
      vertex   8.880000e+000 9.000000e-001 -1.598000e+001
    endloop
  endfacet
  facet normal 0.000000e+000 1.000000e+000 -0.000000e+000
    outer loop
      vertex   8.880000e+000 9.000000e-001 -1.598000e+001
      vertex   7.980000e+000 9.000000e-001 1.598000e+001
      vertex   8.880000e+000 9.000000e-001 1.598000e+001
    endloop
  endfacet
  facet normal 1.000000e+000 0.000000e+000 -1.111613e-016
    outer loop
      vertex   8.880000e+000 9.000000e-001 -1.598000e+001
      vertex   8.880000e+000 9.000000e-001 1.598000e+001
      vertex   8.880000e+000 0.000000e+000 -1.598000e+001
    endloop
  endfacet
  facet normal 1.000000e+000 0.000000e+000 -1.111613e-016
    outer loop
      vertex   8.880000e+000 0.000000e+000 -1.598000e+001
      vertex   8.880000e+000 9.000000e-001 1.598000e+001
      vertex   8.880000e+000 0.000000e+000 1.598000e+001
    endloop
  endfacet
  facet normal -9.977669e-001 0.000000e+000 6.679263e-002
    outer loop
      vertex   2.477694e+000 1.000000e+000 -3.332174e-001
      vertex   2.477694e+000 0.000000e+000 -3.332174e-001
      vertex   2.500000e+000 1.000000e+000 3.061617e-016
    endloop
  endfacet
  facet normal -9.799617e-001 0.000000e+000 1.991860e-001
    outer loop
      vertex   2.477694e+000 1.000000e+000 -3.332174e-001
      vertex   2.411173e+000 1.000000e+000 -6.604885e-001
      vertex   2.477694e+000 0.000000e+000 -3.332174e-001
    endloop
  endfacet
  facet normal -9.799617e-001 0.000000e+000 1.991860e-001
    outer loop
      vertex   2.477694e+000 0.000000e+000 -3.332174e-001
      vertex   2.411173e+000 1.000000e+000 -6.604885e-001
      vertex   2.411173e+000 0.000000e+000 -6.604885e-001
    endloop
  endfacet
  facet normal -9.446691e-001 0.000000e+000 3.280249e-001
    outer loop
      vertex   2.411173e+000 0.000000e+000 -6.604885e-001
      vertex   2.411173e+000 1.000000e+000 -6.604885e-001
      vertex   2.301625e+000 1.000000e+000 -9.759732e-001
    endloop
  endfacet
  facet normal -8.925188e-001 0.000000e+000 4.510101e-001
    outer loop
      vertex   2.301625e+000 0.000000e+000 -9.759732e-001
      vertex   2.301625e+000 1.000000e+000 -9.759732e-001
      vertex   2.151004e+000 1.000000e+000 -1.274042e+000
    endloop
  endfacet
  facet normal -8.244416e-001 0.000000e+000 5.659471e-001
    outer loop
      vertex   2.151004e+000 0.000000e+000 -1.274042e+000
      vertex   2.151004e+000 1.000000e+000 -1.274042e+000
      vertex   1.961998e+000 1.000000e+000 -1.549375e+000
    endloop
  endfacet
  facet normal -7.416521e-001 0.000000e+000 6.707847e-001
    outer loop
      vertex   1.961998e+000 0.000000e+000 -1.549375e+000
      vertex   1.961998e+000 1.000000e+000 -1.549375e+000
      vertex   1.737981e+000 1.000000e+000 -1.797059e+000
    endloop
  endfacet
  facet normal -6.456279e-001 -6.473817e-017 7.636522e-001
    outer loop
      vertex   1.737981e+000 0.000000e+000 -1.797059e+000
      vertex   1.737981e+000 1.000000e+000 -1.797059e+000
      vertex   1.482949e+000 1.000000e+000 -2.012675e+000
    endloop
  endfacet
  facet normal -5.380824e-001 -2.707256e-016 8.428923e-001
    outer loop
      vertex   1.482949e+000 0.000000e+000 -2.012675e+000
      vertex   1.482949e+000 1.000000e+000 -2.012675e+000
      vertex   1.201454e+000 1.000000e+000 -2.192375e+000
    endloop
  endfacet
  facet normal -4.209348e-001 6.450218e-017 9.070909e-001
    outer loop
      vertex   1.201454e+000 0.000000e+000 -2.192375e+000
      vertex   1.201454e+000 1.000000e+000 -2.192375e+000
      vertex   8.985194e-001 1.000000e+000 -2.332952e+000
    endloop
  endfacet
  facet normal -2.962756e-001 -9.521874e-017 9.551025e-001
    outer loop
      vertex   8.985194e-001 0.000000e+000 -2.332952e+000
      vertex   8.985194e-001 1.000000e+000 -2.332952e+000
      vertex   5.795504e-001 1.000000e+000 -2.431897e+000
    endloop
  endfacet
  facet normal -1.663294e-001 -2.532405e-016 9.860703e-001
    outer loop
      vertex   5.795504e-001 0.000000e+000 -2.431897e+000
      vertex   5.795504e-001 1.000000e+000 -2.431897e+000
      vertex   2.502392e-001 1.000000e+000 -2.487445e+000
    endloop
  endfacet
  facet normal -3.341498e-002 1.669413e-017 9.994416e-001
    outer loop
      vertex   2.502392e-001 0.000000e+000 -2.487445e+000
      vertex   2.502392e-001 1.000000e+000 -2.487445e+000
      vertex   -8.353744e-002 1.000000e+000 -2.498604e+000
    endloop
  endfacet
  facet normal 1.000957e-001 -5.556427e-017 9.949778e-001
    outer loop
      vertex   -8.353744e-002 0.000000e+000 -2.498604e+000
      vertex   -8.353744e-002 1.000000e+000 -2.498604e+000
      vertex   -4.158234e-001 1.000000e+000 -2.465176e+000
    endloop
  endfacet
  facet normal 2.318202e-001 -1.286860e-016 9.727587e-001
    outer loop
      vertex   -4.158234e-001 0.000000e+000 -2.465176e+000
      vertex   -4.158234e-001 1.000000e+000 -2.465176e+000
      vertex   -7.406890e-001 1.000000e+000 -2.387756e+000
    endloop
  endfacet
  facet normal 3.594078e-001 -0.000000e+000 9.331806e-001
    outer loop
      vertex   -7.406890e-001 0.000000e+000 -2.387756e+000
      vertex   -7.406890e-001 1.000000e+000 -2.387756e+000
      vertex   -1.052337e+000 1.000000e+000 -2.267727e+000
    endloop
  endfacet
  facet normal 4.805818e-001 -0.000000e+000 8.769499e-001
    outer loop
      vertex   -1.052337e+000 0.000000e+000 -2.267727e+000
      vertex   -1.052337e+000 1.000000e+000 -2.267727e+000
      vertex   -1.345206e+000 1.000000e+000 -2.107231e+000
    endloop
  endfacet
  facet normal 5.931797e-001 -0.000000e+000 8.050701e-001
    outer loop
      vertex   -1.345206e+000 0.000000e+000 -2.107231e+000
      vertex   -1.345206e+000 1.000000e+000 -2.107231e+000
      vertex   -1.614070e+000 1.000000e+000 -1.909130e+000
    endloop
  endfacet
  facet normal 6.951924e-001 -0.000000e+000 7.188237e-001
    outer loop
      vertex   -1.614070e+000 0.000000e+000 -1.909130e+000
      vertex   -1.614070e+000 1.000000e+000 -1.909130e+000
      vertex   -1.854130e+000 1.000000e+000 -1.676962e+000
    endloop
  endfacet
  facet normal 7.847994e-001 -0.000000e+000 6.197499e-001
    outer loop
      vertex   -1.854130e+000 0.000000e+000 -1.676962e+000
      vertex   -1.854130e+000 1.000000e+000 -1.676962e+000
      vertex   -2.061104e+000 1.000000e+000 -1.414868e+000
    endloop
  endfacet
  facet normal 8.604016e-001 -0.000000e+000 5.096166e-001
    outer loop
      vertex   -2.061104e+000 0.000000e+000 -1.414868e+000
      vertex   -2.061104e+000 1.000000e+000 -1.414868e+000
      vertex   -2.231297e+000 1.000000e+000 -1.127525e+000
    endloop
  endfacet
  facet normal 9.206499e-001 -6.211535e-017 3.903893e-001
    outer loop
      vertex   -2.231297e+000 0.000000e+000 -1.127525e+000
      vertex   -2.231297e+000 1.000000e+000 -1.127525e+000
      vertex   -2.361673e+000 1.000000e+000 -8.200621e-001
    endloop
  endfacet
  facet normal 9.644692e-001 -0.000000e+000 2.641954e-001
    outer loop
      vertex   -2.361673e+000 0.000000e+000 -8.200621e-001
      vertex   -2.361673e+000 1.000000e+000 -8.200621e-001
      vertex   -2.449904e+000 1.000000e+000 -4.979650e-001
    endloop
  endfacet
  facet normal 9.910775e-001 -0.000000e+000 1.332870e-001
    outer loop
      vertex   -2.449904e+000 0.000000e+000 -4.979650e-001
      vertex   -2.449904e+000 1.000000e+000 -4.979650e-001
      vertex   -2.494417e+000 1.000000e+000 -1.669816e-001
    endloop
  endfacet
  facet normal 1.000000e+000 0.000000e+000 0.000000e+000
    outer loop
      vertex   -2.494417e+000 0.000000e+000 -1.669816e-001
      vertex   -2.494417e+000 1.000000e+000 -1.669816e-001
      vertex   -2.494417e+000 1.000000e+000 1.669816e-001
    endloop
  endfacet
  facet normal 9.910775e-001 0.000000e+000 -1.332870e-001
    outer loop
      vertex   -2.494417e+000 0.000000e+000 1.669816e-001
      vertex   -2.494417e+000 1.000000e+000 1.669816e-001
      vertex   -2.449904e+000 1.000000e+000 4.979650e-001
    endloop
  endfacet
  facet normal 9.644692e-001 0.000000e+000 -2.641954e-001
    outer loop
      vertex   -2.449904e+000 0.000000e+000 4.979650e-001
      vertex   -2.449904e+000 1.000000e+000 4.979650e-001
      vertex   -2.361673e+000 1.000000e+000 8.200621e-001
    endloop
  endfacet
  facet normal 9.206499e-001 0.000000e+000 -3.903893e-001
    outer loop
      vertex   -2.361673e+000 0.000000e+000 8.200621e-001
      vertex   -2.361673e+000 1.000000e+000 8.200621e-001
      vertex   -2.231297e+000 1.000000e+000 1.127525e+000
    endloop
  endfacet
  facet normal 8.604016e-001 -7.053545e-017 -5.096166e-001
    outer loop
      vertex   -2.231297e+000 0.000000e+000 1.127525e+000
      vertex   -2.231297e+000 1.000000e+000 1.127525e+000
      vertex   -2.061104e+000 1.000000e+000 1.414868e+000
    endloop
  endfacet
  facet normal 7.847994e-001 0.000000e+000 -6.197499e-001
    outer loop
      vertex   -2.061104e+000 0.000000e+000 1.414868e+000
      vertex   -2.061104e+000 1.000000e+000 1.414868e+000
      vertex   -1.854130e+000 1.000000e+000 1.676962e+000
    endloop
  endfacet
  facet normal 6.951924e-001 0.000000e+000 -7.188237e-001
    outer loop
      vertex   -1.854130e+000 0.000000e+000 1.676962e+000
      vertex   -1.854130e+000 1.000000e+000 1.676962e+000
      vertex   -1.614070e+000 1.000000e+000 1.909130e+000
    endloop
  endfacet
  facet normal 5.931797e-001 0.000000e+000 -8.050701e-001
    outer loop
      vertex   -1.614070e+000 0.000000e+000 1.909130e+000
      vertex   -1.614070e+000 1.000000e+000 1.909130e+000
      vertex   -1.345206e+000 1.000000e+000 2.107231e+000
    endloop
  endfacet
  facet normal 4.805818e-001 0.000000e+000 -8.769499e-001
    outer loop
      vertex   -1.345206e+000 0.000000e+000 2.107231e+000
      vertex   -1.345206e+000 1.000000e+000 2.107231e+000
      vertex   -1.052337e+000 1.000000e+000 2.267727e+000
    endloop
  endfacet
  facet normal 3.594078e-001 0.000000e+000 -9.331806e-001
    outer loop
      vertex   -1.052337e+000 0.000000e+000 2.267727e+000
      vertex   -1.052337e+000 1.000000e+000 2.267727e+000
      vertex   -7.406890e-001 1.000000e+000 2.387756e+000
    endloop
  endfacet
  facet normal 2.318202e-001 0.000000e+000 -9.727587e-001
    outer loop
      vertex   -7.406890e-001 0.000000e+000 2.387756e+000
      vertex   -7.406890e-001 1.000000e+000 2.387756e+000
      vertex   -4.158234e-001 1.000000e+000 2.465176e+000
    endloop
  endfacet
  facet normal 1.000957e-001 5.556427e-017 -9.949778e-001
    outer loop
      vertex   -4.158234e-001 0.000000e+000 2.465176e+000
      vertex   -4.158234e-001 1.000000e+000 2.465176e+000
      vertex   -8.353744e-002 1.000000e+000 2.498604e+000
    endloop
  endfacet
  facet normal -3.341498e-002 -1.854904e-017 -9.994416e-001
    outer loop
      vertex   -8.353744e-002 0.000000e+000 2.498604e+000
      vertex   -8.353744e-002 1.000000e+000 2.498604e+000
      vertex   2.502392e-001 1.000000e+000 2.487445e+000
    endloop
  endfacet
  facet normal -1.663294e-001 -8.309821e-017 -9.860703e-001
    outer loop
      vertex   2.502392e-001 0.000000e+000 2.487445e+000
      vertex   2.502392e-001 1.000000e+000 2.487445e+000
      vertex   5.795504e-001 1.000000e+000 2.431897e+000
    endloop
  endfacet
  facet normal -2.962756e-001 9.521874e-017 -9.551025e-001
    outer loop
      vertex   5.795504e-001 0.000000e+000 2.431897e+000
      vertex   5.795504e-001 1.000000e+000 2.431897e+000
      vertex   8.985194e-001 1.000000e+000 2.332952e+000
    endloop
  endfacet
  facet normal -4.209348e-001 -6.450218e-017 -9.070909e-001
    outer loop
      vertex   8.985194e-001 0.000000e+000 2.332952e+000
      vertex   8.985194e-001 1.000000e+000 2.332952e+000
      vertex   1.201454e+000 1.000000e+000 2.192375e+000
    endloop
  endfacet
  facet normal -5.380824e-001 -2.230721e-016 -8.428923e-001
    outer loop
      vertex   1.201454e+000 0.000000e+000 2.192375e+000
      vertex   1.201454e+000 1.000000e+000 2.192375e+000
      vertex   1.482949e+000 1.000000e+000 2.012675e+000
    endloop
  endfacet
  facet normal -6.456279e-001 1.048267e-016 -7.636522e-001
    outer loop
      vertex   1.482949e+000 0.000000e+000 2.012675e+000
      vertex   1.482949e+000 1.000000e+000 2.012675e+000
      vertex   1.737981e+000 1.000000e+000 1.797059e+000
    endloop
  endfacet
  facet normal -7.416521e-001 2.118870e-016 -6.707847e-001
    outer loop
      vertex   1.737981e+000 0.000000e+000 1.797059e+000
      vertex   1.737981e+000 1.000000e+000 1.797059e+000
      vertex   1.961998e+000 1.000000e+000 1.549375e+000
    endloop
  endfacet
  facet normal -8.244416e-001 0.000000e+000 -5.659471e-001
    outer loop
      vertex   1.961998e+000 0.000000e+000 1.549375e+000
      vertex   1.961998e+000 1.000000e+000 1.549375e+000
      vertex   2.151004e+000 1.000000e+000 1.274042e+000
    endloop
  endfacet
  facet normal -8.925188e-001 0.000000e+000 -4.510101e-001
    outer loop
      vertex   2.151004e+000 0.000000e+000 1.274042e+000
      vertex   2.151004e+000 1.000000e+000 1.274042e+000
      vertex   2.301625e+000 1.000000e+000 9.759732e-001
    endloop
  endfacet
  facet normal -9.446691e-001 0.000000e+000 -3.280249e-001
    outer loop
      vertex   2.301625e+000 0.000000e+000 9.759732e-001
      vertex   2.301625e+000 1.000000e+000 9.759732e-001
      vertex   2.411173e+000 1.000000e+000 6.604885e-001
    endloop
  endfacet
  facet normal -9.799617e-001 0.000000e+000 -1.991860e-001
    outer loop
      vertex   2.411173e+000 0.000000e+000 6.604885e-001
      vertex   2.411173e+000 1.000000e+000 6.604885e-001
      vertex   2.477694e+000 1.000000e+000 3.332174e-001
    endloop
  endfacet
  facet normal -9.977669e-001 0.000000e+000 -6.679263e-002
    outer loop
      vertex   2.477694e+000 0.000000e+000 3.332174e-001
      vertex   2.477694e+000 1.000000e+000 3.332174e-001
      vertex   2.500000e+000 0.000000e+000 3.061617e-016
    endloop
  endfacet
  facet normal -9.799617e-001 0.000000e+000 -1.991860e-001
    outer loop
      vertex   2.477694e+000 0.000000e+000 3.332174e-001
      vertex   2.411173e+000 0.000000e+000 6.604885e-001
      vertex   2.477694e+000 1.000000e+000 3.332174e-001
    endloop
  endfacet
  facet normal -9.446691e-001 0.000000e+000 3.280249e-001
    outer loop
      vertex   2.411173e+000 0.000000e+000 -6.604885e-001
      vertex   2.301625e+000 1.000000e+000 -9.759732e-001
      vertex   2.301625e+000 0.000000e+000 -9.759732e-001
    endloop
  endfacet
  facet normal -8.925188e-001 0.000000e+000 4.510101e-001
    outer loop
      vertex   2.301625e+000 0.000000e+000 -9.759732e-001
      vertex   2.151004e+000 1.000000e+000 -1.274042e+000
      vertex   2.151004e+000 0.000000e+000 -1.274042e+000
    endloop
  endfacet
  facet normal -8.244416e-001 0.000000e+000 5.659471e-001
    outer loop
      vertex   2.151004e+000 0.000000e+000 -1.274042e+000
      vertex   1.961998e+000 1.000000e+000 -1.549375e+000
      vertex   1.961998e+000 0.000000e+000 -1.549375e+000
    endloop
  endfacet
  facet normal -7.416521e-001 -2.118870e-016 6.707847e-001
    outer loop
      vertex   1.961998e+000 0.000000e+000 -1.549375e+000
      vertex   1.737981e+000 1.000000e+000 -1.797059e+000
      vertex   1.737981e+000 0.000000e+000 -1.797059e+000
    endloop
  endfacet
  facet normal -6.456279e-001 -1.048267e-016 7.636522e-001
    outer loop
      vertex   1.737981e+000 0.000000e+000 -1.797059e+000
      vertex   1.482949e+000 1.000000e+000 -2.012675e+000
      vertex   1.482949e+000 0.000000e+000 -2.012675e+000
    endloop
  endfacet
  facet normal -5.380824e-001 2.230721e-016 8.428923e-001
    outer loop
      vertex   1.482949e+000 0.000000e+000 -2.012675e+000
      vertex   1.201454e+000 1.000000e+000 -2.192375e+000
      vertex   1.201454e+000 0.000000e+000 -2.192375e+000
    endloop
  endfacet
  facet normal -4.209348e-001 6.450218e-017 9.070909e-001
    outer loop
      vertex   1.201454e+000 0.000000e+000 -2.192375e+000
      vertex   8.985194e-001 1.000000e+000 -2.332952e+000
      vertex   8.985194e-001 0.000000e+000 -2.332952e+000
    endloop
  endfacet
  facet normal -2.962756e-001 -9.521874e-017 9.551025e-001
    outer loop
      vertex   8.985194e-001 0.000000e+000 -2.332952e+000
      vertex   5.795504e-001 1.000000e+000 -2.431897e+000
      vertex   5.795504e-001 0.000000e+000 -2.431897e+000
    endloop
  endfacet
  facet normal -1.663294e-001 8.309821e-017 9.860703e-001
    outer loop
      vertex   5.795504e-001 0.000000e+000 -2.431897e+000
      vertex   2.502392e-001 1.000000e+000 -2.487445e+000
      vertex   2.502392e-001 0.000000e+000 -2.487445e+000
    endloop
  endfacet
  facet normal -3.341498e-002 1.854904e-017 9.994416e-001
    outer loop
      vertex   2.502392e-001 0.000000e+000 -2.487445e+000
      vertex   -8.353744e-002 1.000000e+000 -2.498604e+000
      vertex   -8.353744e-002 0.000000e+000 -2.498604e+000
    endloop
  endfacet
  facet normal 1.000957e-001 -5.556427e-017 9.949778e-001
    outer loop
      vertex   -8.353744e-002 0.000000e+000 -2.498604e+000
      vertex   -4.158234e-001 1.000000e+000 -2.465176e+000
      vertex   -4.158234e-001 0.000000e+000 -2.465176e+000
    endloop
  endfacet
  facet normal 2.318202e-001 0.000000e+000 9.727587e-001
    outer loop
      vertex   -4.158234e-001 0.000000e+000 -2.465176e+000
      vertex   -7.406890e-001 1.000000e+000 -2.387756e+000
      vertex   -7.406890e-001 0.000000e+000 -2.387756e+000
    endloop
  endfacet
  facet normal 3.594078e-001 0.000000e+000 9.331806e-001
    outer loop
      vertex   -7.406890e-001 0.000000e+000 -2.387756e+000
      vertex   -1.052337e+000 1.000000e+000 -2.267727e+000
      vertex   -1.052337e+000 0.000000e+000 -2.267727e+000
    endloop
  endfacet
  facet normal 4.805818e-001 0.000000e+000 8.769499e-001
    outer loop
      vertex   -1.052337e+000 0.000000e+000 -2.267727e+000
      vertex   -1.345206e+000 1.000000e+000 -2.107231e+000
      vertex   -1.345206e+000 0.000000e+000 -2.107231e+000
    endloop
  endfacet
  facet normal 5.931797e-001 0.000000e+000 8.050701e-001
    outer loop
      vertex   -1.345206e+000 0.000000e+000 -2.107231e+000
      vertex   -1.614070e+000 1.000000e+000 -1.909130e+000
      vertex   -1.614070e+000 0.000000e+000 -1.909130e+000
    endloop
  endfacet
  facet normal 6.951924e-001 0.000000e+000 7.188237e-001
    outer loop
      vertex   -1.614070e+000 0.000000e+000 -1.909130e+000
      vertex   -1.854130e+000 1.000000e+000 -1.676962e+000
      vertex   -1.854130e+000 0.000000e+000 -1.676962e+000
    endloop
  endfacet
  facet normal 7.847994e-001 0.000000e+000 6.197499e-001
    outer loop
      vertex   -1.854130e+000 0.000000e+000 -1.676962e+000
      vertex   -2.061104e+000 1.000000e+000 -1.414868e+000
      vertex   -2.061104e+000 0.000000e+000 -1.414868e+000
    endloop
  endfacet
  facet normal 8.604016e-001 7.053545e-017 5.096166e-001
    outer loop
      vertex   -2.061104e+000 0.000000e+000 -1.414868e+000
      vertex   -2.231297e+000 1.000000e+000 -1.127525e+000
      vertex   -2.231297e+000 0.000000e+000 -1.127525e+000
    endloop
  endfacet
  facet normal 9.206499e-001 0.000000e+000 3.903893e-001
    outer loop
      vertex   -2.231297e+000 0.000000e+000 -1.127525e+000
      vertex   -2.361673e+000 1.000000e+000 -8.200621e-001
      vertex   -2.361673e+000 0.000000e+000 -8.200621e-001
    endloop
  endfacet
  facet normal 9.644692e-001 0.000000e+000 2.641954e-001
    outer loop
      vertex   -2.361673e+000 0.000000e+000 -8.200621e-001
      vertex   -2.449904e+000 1.000000e+000 -4.979650e-001
      vertex   -2.449904e+000 0.000000e+000 -4.979650e-001
    endloop
  endfacet
  facet normal 9.910775e-001 0.000000e+000 1.332870e-001
    outer loop
      vertex   -2.449904e+000 0.000000e+000 -4.979650e-001
      vertex   -2.494417e+000 1.000000e+000 -1.669816e-001
      vertex   -2.494417e+000 0.000000e+000 -1.669816e-001
    endloop
  endfacet
  facet normal 1.000000e+000 0.000000e+000 -0.000000e+000
    outer loop
      vertex   -2.494417e+000 0.000000e+000 -1.669816e-001
      vertex   -2.494417e+000 1.000000e+000 1.669816e-001
      vertex   -2.494417e+000 0.000000e+000 1.669816e-001
    endloop
  endfacet
  facet normal 9.910775e-001 0.000000e+000 -1.332870e-001
    outer loop
      vertex   -2.494417e+000 0.000000e+000 1.669816e-001
      vertex   -2.449904e+000 1.000000e+000 4.979650e-001
      vertex   -2.449904e+000 0.000000e+000 4.979650e-001
    endloop
  endfacet
  facet normal 9.644692e-001 0.000000e+000 -2.641954e-001
    outer loop
      vertex   -2.449904e+000 0.000000e+000 4.979650e-001
      vertex   -2.361673e+000 1.000000e+000 8.200621e-001
      vertex   -2.361673e+000 0.000000e+000 8.200621e-001
    endloop
  endfacet
  facet normal 9.206499e-001 6.211535e-017 -3.903893e-001
    outer loop
      vertex   -2.361673e+000 0.000000e+000 8.200621e-001
      vertex   -2.231297e+000 1.000000e+000 1.127525e+000
      vertex   -2.231297e+000 0.000000e+000 1.127525e+000
    endloop
  endfacet
  facet normal 8.604016e-001 0.000000e+000 -5.096166e-001
    outer loop
      vertex   -2.231297e+000 0.000000e+000 1.127525e+000
      vertex   -2.061104e+000 1.000000e+000 1.414868e+000
      vertex   -2.061104e+000 0.000000e+000 1.414868e+000
    endloop
  endfacet
  facet normal 7.847994e-001 0.000000e+000 -6.197499e-001
    outer loop
      vertex   -2.061104e+000 0.000000e+000 1.414868e+000
      vertex   -1.854130e+000 1.000000e+000 1.676962e+000
      vertex   -1.854130e+000 0.000000e+000 1.676962e+000
    endloop
  endfacet
  facet normal 6.951924e-001 0.000000e+000 -7.188237e-001
    outer loop
      vertex   -1.854130e+000 0.000000e+000 1.676962e+000
      vertex   -1.614070e+000 1.000000e+000 1.909130e+000
      vertex   -1.614070e+000 0.000000e+000 1.909130e+000
    endloop
  endfacet
  facet normal 5.931797e-001 0.000000e+000 -8.050701e-001
    outer loop
      vertex   -1.614070e+000 0.000000e+000 1.909130e+000
      vertex   -1.345206e+000 1.000000e+000 2.107231e+000
      vertex   -1.345206e+000 0.000000e+000 2.107231e+000
    endloop
  endfacet
  facet normal 4.805818e-001 0.000000e+000 -8.769499e-001
    outer loop
      vertex   -1.345206e+000 0.000000e+000 2.107231e+000
      vertex   -1.052337e+000 1.000000e+000 2.267727e+000
      vertex   -1.052337e+000 0.000000e+000 2.267727e+000
    endloop
  endfacet
  facet normal 3.594078e-001 0.000000e+000 -9.331806e-001
    outer loop
      vertex   -1.052337e+000 0.000000e+000 2.267727e+000
      vertex   -7.406890e-001 1.000000e+000 2.387756e+000
      vertex   -7.406890e-001 0.000000e+000 2.387756e+000
    endloop
  endfacet
  facet normal 2.318202e-001 1.286860e-016 -9.727587e-001
    outer loop
      vertex   -7.406890e-001 0.000000e+000 2.387756e+000
      vertex   -4.158234e-001 1.000000e+000 2.465176e+000
      vertex   -4.158234e-001 0.000000e+000 2.465176e+000
    endloop
  endfacet
  facet normal 1.000957e-001 5.556427e-017 -9.949778e-001
    outer loop
      vertex   -4.158234e-001 0.000000e+000 2.465176e+000
      vertex   -8.353744e-002 1.000000e+000 2.498604e+000
      vertex   -8.353744e-002 0.000000e+000 2.498604e+000
    endloop
  endfacet
  facet normal -3.341498e-002 -1.669413e-017 -9.994416e-001
    outer loop
      vertex   -8.353744e-002 0.000000e+000 2.498604e+000
      vertex   2.502392e-001 1.000000e+000 2.487445e+000
      vertex   2.502392e-001 0.000000e+000 2.487445e+000
    endloop
  endfacet
  facet normal -1.663294e-001 2.532405e-016 -9.860703e-001
    outer loop
      vertex   2.502392e-001 0.000000e+000 2.487445e+000
      vertex   5.795504e-001 1.000000e+000 2.431897e+000
      vertex   5.795504e-001 0.000000e+000 2.431897e+000
    endloop
  endfacet
  facet normal -2.962756e-001 9.521874e-017 -9.551025e-001
    outer loop
      vertex   5.795504e-001 0.000000e+000 2.431897e+000
      vertex   8.985194e-001 1.000000e+000 2.332952e+000
      vertex   8.985194e-001 0.000000e+000 2.332952e+000
    endloop
  endfacet
  facet normal -4.209348e-001 -6.450218e-017 -9.070909e-001
    outer loop
      vertex   8.985194e-001 0.000000e+000 2.332952e+000
      vertex   1.201454e+000 1.000000e+000 2.192375e+000
      vertex   1.201454e+000 0.000000e+000 2.192375e+000
    endloop
  endfacet
  facet normal -5.380824e-001 2.707256e-016 -8.428923e-001
    outer loop
      vertex   1.201454e+000 0.000000e+000 2.192375e+000
      vertex   1.482949e+000 1.000000e+000 2.012675e+000
      vertex   1.482949e+000 0.000000e+000 2.012675e+000
    endloop
  endfacet
  facet normal -6.456279e-001 6.473817e-017 -7.636522e-001
    outer loop
      vertex   1.482949e+000 0.000000e+000 2.012675e+000
      vertex   1.737981e+000 1.000000e+000 1.797059e+000
      vertex   1.737981e+000 0.000000e+000 1.797059e+000
    endloop
  endfacet
  facet normal -7.416521e-001 -0.000000e+000 -6.707847e-001
    outer loop
      vertex   1.737981e+000 0.000000e+000 1.797059e+000
      vertex   1.961998e+000 1.000000e+000 1.549375e+000
      vertex   1.961998e+000 0.000000e+000 1.549375e+000
    endloop
  endfacet
  facet normal -8.244416e-001 -0.000000e+000 -5.659471e-001
    outer loop
      vertex   1.961998e+000 0.000000e+000 1.549375e+000
      vertex   2.151004e+000 1.000000e+000 1.274042e+000
      vertex   2.151004e+000 0.000000e+000 1.274042e+000
    endloop
  endfacet
  facet normal -8.925188e-001 -0.000000e+000 -4.510101e-001
    outer loop
      vertex   2.151004e+000 0.000000e+000 1.274042e+000
      vertex   2.301625e+000 1.000000e+000 9.759732e-001
      vertex   2.301625e+000 0.000000e+000 9.759732e-001
    endloop
  endfacet
  facet normal -9.446691e-001 -0.000000e+000 -3.280249e-001
    outer loop
      vertex   2.301625e+000 0.000000e+000 9.759732e-001
      vertex   2.411173e+000 1.000000e+000 6.604885e-001
      vertex   2.411173e+000 0.000000e+000 6.604885e-001
    endloop
  endfacet
  facet normal -9.977669e-001 -0.000000e+000 -6.679263e-002
    outer loop
      vertex   2.477694e+000 1.000000e+000 3.332174e-001
      vertex   2.500000e+000 1.000000e+000 3.061617e-016
      vertex   2.500000e+000 0.000000e+000 3.061617e-016
    endloop
  endfacet
  facet normal -9.977669e-001 0.000000e+000 6.679263e-002
    outer loop
      vertex   2.500000e+000 0.000000e+000 3.061617e-016
      vertex   2.500000e+000 1.000000e+000 3.061617e-016
      vertex   2.477694e+000 0.000000e+000 -3.332174e-001
    endloop
  endfacet
  facet normal -9.997602e-001 0.000000e+000 -2.189713e-002
    outer loop
      vertex   4.800000e+000 3.000000e+000 1.598000e+001
      vertex   5.500000e+000 3.000000e+000 -1.598000e+001
      vertex   4.800000e+000 1.000000e+000 1.598000e+001
    endloop
  endfacet
  facet normal -9.997602e-001 1.944856e-017 -2.189713e-002
    outer loop
      vertex   4.800000e+000 1.000000e+000 1.598000e+001
      vertex   5.500000e+000 3.000000e+000 -1.598000e+001
      vertex   5.500000e+000 1.000000e+000 -1.598000e+001
    endloop
  endfacet
  facet normal 9.997602e-001 0.000000e+000 -2.189713e-002
    outer loop
      vertex   -5.500000e+000 3.000000e+000 -1.598000e+001
      vertex   -4.800000e+000 3.000000e+000 1.598000e+001
      vertex   -5.500000e+000 1.000000e+000 -1.598000e+001
    endloop
  endfacet
  facet normal 9.997602e-001 0.000000e+000 -2.189713e-002
    outer loop
      vertex   -5.500000e+000 1.000000e+000 -1.598000e+001
      vertex   -4.800000e+000 3.000000e+000 1.598000e+001
      vertex   -4.800000e+000 1.000000e+000 1.598000e+001
    endloop
  endfacet
  facet normal -0.000000e+000 1.000000e+000 0.000000e+000
    outer loop
      vertex   2.477694e+000 1.000000e+000 3.332174e-001
      vertex   4.800000e+000 1.000000e+000 1.598000e+001
      vertex   2.500000e+000 1.000000e+000 3.061617e-016
    endloop
  endfacet
  facet normal 0.000000e+000 1.000000e+000 -0.000000e+000
    outer loop
      vertex   2.477694e+000 1.000000e+000 3.332174e-001
      vertex   2.411173e+000 1.000000e+000 6.604885e-001
      vertex   4.800000e+000 1.000000e+000 1.598000e+001
    endloop
  endfacet
  facet normal 0.000000e+000 1.000000e+000 0.000000e+000
    outer loop
      vertex   4.800000e+000 1.000000e+000 1.598000e+001
      vertex   2.411173e+000 1.000000e+000 6.604885e-001
      vertex   2.301625e+000 1.000000e+000 9.759732e-001
    endloop
  endfacet
  facet normal -0.000000e+000 1.000000e+000 0.000000e+000
    outer loop
      vertex   2.151004e+000 1.000000e+000 1.274042e+000
      vertex   4.800000e+000 1.000000e+000 1.598000e+001
      vertex   2.301625e+000 1.000000e+000 9.759732e-001
    endloop
  endfacet
  facet normal 0.000000e+000 1.000000e+000 -0.000000e+000
    outer loop
      vertex   2.151004e+000 1.000000e+000 1.274042e+000
      vertex   1.961998e+000 1.000000e+000 1.549375e+000
      vertex   4.800000e+000 1.000000e+000 1.598000e+001
    endloop
  endfacet
  facet normal 0.000000e+000 1.000000e+000 0.000000e+000
    outer loop
      vertex   4.800000e+000 1.000000e+000 1.598000e+001
      vertex   1.961998e+000 1.000000e+000 1.549375e+000
      vertex   1.737981e+000 1.000000e+000 1.797059e+000
    endloop
  endfacet
  facet normal -0.000000e+000 1.000000e+000 0.000000e+000
    outer loop
      vertex   1.482949e+000 1.000000e+000 2.012675e+000
      vertex   4.800000e+000 1.000000e+000 1.598000e+001
      vertex   1.737981e+000 1.000000e+000 1.797059e+000
    endloop
  endfacet
  facet normal 0.000000e+000 1.000000e+000 -0.000000e+000
    outer loop
      vertex   1.482949e+000 1.000000e+000 2.012675e+000
      vertex   1.201454e+000 1.000000e+000 2.192375e+000
      vertex   4.800000e+000 1.000000e+000 1.598000e+001
    endloop
  endfacet
  facet normal 0.000000e+000 1.000000e+000 0.000000e+000
    outer loop
      vertex   4.800000e+000 1.000000e+000 1.598000e+001
      vertex   1.201454e+000 1.000000e+000 2.192375e+000
      vertex   8.985194e-001 1.000000e+000 2.332952e+000
    endloop
  endfacet
  facet normal -0.000000e+000 1.000000e+000 0.000000e+000
    outer loop
      vertex   5.795504e-001 1.000000e+000 2.431897e+000
      vertex   4.800000e+000 1.000000e+000 1.598000e+001
      vertex   8.985194e-001 1.000000e+000 2.332952e+000
    endloop
  endfacet
  facet normal 0.000000e+000 1.000000e+000 -0.000000e+000
    outer loop
      vertex   5.795504e-001 1.000000e+000 2.431897e+000
      vertex   2.502392e-001 1.000000e+000 2.487445e+000
      vertex   4.800000e+000 1.000000e+000 1.598000e+001
    endloop
  endfacet
  facet normal 0.000000e+000 1.000000e+000 0.000000e+000
    outer loop
      vertex   4.800000e+000 1.000000e+000 1.598000e+001
      vertex   2.502392e-001 1.000000e+000 2.487445e+000
      vertex   -8.353744e-002 1.000000e+000 2.498604e+000
    endloop
  endfacet
  facet normal 0.000000e+000 1.000000e+000 0.000000e+000
    outer loop
      vertex   -4.800000e+000 1.000000e+000 1.598000e+001
      vertex   -8.353744e-002 1.000000e+000 2.498604e+000
      vertex   -4.158234e-001 1.000000e+000 2.465176e+000
    endloop
  endfacet
  facet normal -0.000000e+000 1.000000e+000 -0.000000e+000
    outer loop
      vertex   -7.406890e-001 1.000000e+000 2.387756e+000
      vertex   -4.800000e+000 1.000000e+000 1.598000e+001
      vertex   -4.158234e-001 1.000000e+000 2.465176e+000
    endloop
  endfacet
  facet normal 0.000000e+000 1.000000e+000 0.000000e+000
    outer loop
      vertex   -7.406890e-001 1.000000e+000 2.387756e+000
      vertex   -1.052337e+000 1.000000e+000 2.267727e+000
      vertex   -4.800000e+000 1.000000e+000 1.598000e+001
    endloop
  endfacet
  facet normal 0.000000e+000 1.000000e+000 0.000000e+000
    outer loop
      vertex   -4.800000e+000 1.000000e+000 1.598000e+001
      vertex   -1.052337e+000 1.000000e+000 2.267727e+000
      vertex   -1.345206e+000 1.000000e+000 2.107231e+000
    endloop
  endfacet
  facet normal -0.000000e+000 1.000000e+000 -0.000000e+000
    outer loop
      vertex   -1.614070e+000 1.000000e+000 1.909130e+000
      vertex   -4.800000e+000 1.000000e+000 1.598000e+001
      vertex   -1.345206e+000 1.000000e+000 2.107231e+000
    endloop
  endfacet
  facet normal 0.000000e+000 1.000000e+000 0.000000e+000
    outer loop
      vertex   -1.614070e+000 1.000000e+000 1.909130e+000
      vertex   -1.854130e+000 1.000000e+000 1.676962e+000
      vertex   -4.800000e+000 1.000000e+000 1.598000e+001
    endloop
  endfacet
  facet normal 0.000000e+000 1.000000e+000 0.000000e+000
    outer loop
      vertex   -4.800000e+000 1.000000e+000 1.598000e+001
      vertex   -1.854130e+000 1.000000e+000 1.676962e+000
      vertex   -2.061104e+000 1.000000e+000 1.414868e+000
    endloop
  endfacet
  facet normal -0.000000e+000 1.000000e+000 -0.000000e+000
    outer loop
      vertex   -2.231297e+000 1.000000e+000 1.127525e+000
      vertex   -4.800000e+000 1.000000e+000 1.598000e+001
      vertex   -2.061104e+000 1.000000e+000 1.414868e+000
    endloop
  endfacet
  facet normal 0.000000e+000 1.000000e+000 0.000000e+000
    outer loop
      vertex   -2.231297e+000 1.000000e+000 1.127525e+000
      vertex   -2.361673e+000 1.000000e+000 8.200621e-001
      vertex   -4.800000e+000 1.000000e+000 1.598000e+001
    endloop
  endfacet
  facet normal 0.000000e+000 1.000000e+000 0.000000e+000
    outer loop
      vertex   -4.800000e+000 1.000000e+000 1.598000e+001
      vertex   -2.361673e+000 1.000000e+000 8.200621e-001
      vertex   -2.449904e+000 1.000000e+000 4.979650e-001
    endloop
  endfacet
  facet normal -0.000000e+000 1.000000e+000 -0.000000e+000
    outer loop
      vertex   -2.494417e+000 1.000000e+000 1.669816e-001
      vertex   -4.800000e+000 1.000000e+000 1.598000e+001
      vertex   -2.449904e+000 1.000000e+000 4.979650e-001
    endloop
  endfacet
  facet normal 0.000000e+000 1.000000e+000 -0.000000e+000
    outer loop
      vertex   -2.494417e+000 1.000000e+000 1.669816e-001
      vertex   -5.500000e+000 1.000000e+000 -1.598000e+001
      vertex   -4.800000e+000 1.000000e+000 1.598000e+001
    endloop
  endfacet
  facet normal 0.000000e+000 1.000000e+000 0.000000e+000
    outer loop
      vertex   -2.494417e+000 1.000000e+000 1.669816e-001
      vertex   -2.494417e+000 1.000000e+000 -1.669816e-001
      vertex   -5.500000e+000 1.000000e+000 -1.598000e+001
    endloop
  endfacet
  facet normal -0.000000e+000 1.000000e+000 0.000000e+000
    outer loop
      vertex   -5.500000e+000 1.000000e+000 -1.598000e+001
      vertex   -2.494417e+000 1.000000e+000 -1.669816e-001
      vertex   -2.449904e+000 1.000000e+000 -4.979650e-001
    endloop
  endfacet
  facet normal 0.000000e+000 1.000000e+000 -0.000000e+000
    outer loop
      vertex   -2.361673e+000 1.000000e+000 -8.200621e-001
      vertex   -5.500000e+000 1.000000e+000 -1.598000e+001
      vertex   -2.449904e+000 1.000000e+000 -4.979650e-001
    endloop
  endfacet
  facet normal 0.000000e+000 1.000000e+000 0.000000e+000
    outer loop
      vertex   -2.361673e+000 1.000000e+000 -8.200621e-001
      vertex   -2.231297e+000 1.000000e+000 -1.127525e+000
      vertex   -5.500000e+000 1.000000e+000 -1.598000e+001
    endloop
  endfacet
  facet normal -0.000000e+000 1.000000e+000 0.000000e+000
    outer loop
      vertex   -5.500000e+000 1.000000e+000 -1.598000e+001
      vertex   -2.231297e+000 1.000000e+000 -1.127525e+000
      vertex   -2.061104e+000 1.000000e+000 -1.414868e+000
    endloop
  endfacet
  facet normal 0.000000e+000 1.000000e+000 -0.000000e+000
    outer loop
      vertex   -1.854130e+000 1.000000e+000 -1.676962e+000
      vertex   -5.500000e+000 1.000000e+000 -1.598000e+001
      vertex   -2.061104e+000 1.000000e+000 -1.414868e+000
    endloop
  endfacet
  facet normal 0.000000e+000 1.000000e+000 0.000000e+000
    outer loop
      vertex   -1.854130e+000 1.000000e+000 -1.676962e+000
      vertex   -1.614070e+000 1.000000e+000 -1.909130e+000
      vertex   -5.500000e+000 1.000000e+000 -1.598000e+001
    endloop
  endfacet
  facet normal -0.000000e+000 1.000000e+000 0.000000e+000
    outer loop
      vertex   -5.500000e+000 1.000000e+000 -1.598000e+001
      vertex   -1.614070e+000 1.000000e+000 -1.909130e+000
      vertex   -1.345206e+000 1.000000e+000 -2.107231e+000
    endloop
  endfacet
  facet normal 0.000000e+000 1.000000e+000 -0.000000e+000
    outer loop
      vertex   -1.052337e+000 1.000000e+000 -2.267727e+000
      vertex   -5.500000e+000 1.000000e+000 -1.598000e+001
      vertex   -1.345206e+000 1.000000e+000 -2.107231e+000
    endloop
  endfacet
  facet normal 0.000000e+000 1.000000e+000 0.000000e+000
    outer loop
      vertex   -1.052337e+000 1.000000e+000 -2.267727e+000
      vertex   -7.406890e-001 1.000000e+000 -2.387756e+000
      vertex   -5.500000e+000 1.000000e+000 -1.598000e+001
    endloop
  endfacet
  facet normal -0.000000e+000 1.000000e+000 0.000000e+000
    outer loop
      vertex   -5.500000e+000 1.000000e+000 -1.598000e+001
      vertex   -7.406890e-001 1.000000e+000 -2.387756e+000
      vertex   -4.158234e-001 1.000000e+000 -2.465176e+000
    endloop
  endfacet
  facet normal 0.000000e+000 1.000000e+000 -0.000000e+000
    outer loop
      vertex   -8.353744e-002 1.000000e+000 -2.498604e+000
      vertex   -5.500000e+000 1.000000e+000 -1.598000e+001
      vertex   -4.158234e-001 1.000000e+000 -2.465176e+000
    endloop
  endfacet
  facet normal 0.000000e+000 1.000000e+000 0.000000e+000
    outer loop
      vertex   -8.353744e-002 1.000000e+000 -2.498604e+000
      vertex   5.500000e+000 1.000000e+000 -1.598000e+001
      vertex   -5.500000e+000 1.000000e+000 -1.598000e+001
    endloop
  endfacet
  facet normal -0.000000e+000 1.000000e+000 0.000000e+000
    outer loop
      vertex   -8.353744e-002 1.000000e+000 -2.498604e+000
      vertex   2.502392e-001 1.000000e+000 -2.487445e+000
      vertex   5.500000e+000 1.000000e+000 -1.598000e+001
    endloop
  endfacet
  facet normal 0.000000e+000 1.000000e+000 -0.000000e+000
    outer loop
      vertex   5.500000e+000 1.000000e+000 -1.598000e+001
      vertex   2.502392e-001 1.000000e+000 -2.487445e+000
      vertex   5.795504e-001 1.000000e+000 -2.431897e+000
    endloop
  endfacet
  facet normal 0.000000e+000 1.000000e+000 0.000000e+000
    outer loop
      vertex   8.985194e-001 1.000000e+000 -2.332952e+000
      vertex   5.500000e+000 1.000000e+000 -1.598000e+001
      vertex   5.795504e-001 1.000000e+000 -2.431897e+000
    endloop
  endfacet
  facet normal -0.000000e+000 1.000000e+000 0.000000e+000
    outer loop
      vertex   8.985194e-001 1.000000e+000 -2.332952e+000
      vertex   1.201454e+000 1.000000e+000 -2.192375e+000
      vertex   5.500000e+000 1.000000e+000 -1.598000e+001
    endloop
  endfacet
  facet normal 0.000000e+000 1.000000e+000 -0.000000e+000
    outer loop
      vertex   5.500000e+000 1.000000e+000 -1.598000e+001
      vertex   1.201454e+000 1.000000e+000 -2.192375e+000
      vertex   1.482949e+000 1.000000e+000 -2.012675e+000
    endloop
  endfacet
  facet normal 0.000000e+000 1.000000e+000 0.000000e+000
    outer loop
      vertex   1.737981e+000 1.000000e+000 -1.797059e+000
      vertex   5.500000e+000 1.000000e+000 -1.598000e+001
      vertex   1.482949e+000 1.000000e+000 -2.012675e+000
    endloop
  endfacet
  facet normal -0.000000e+000 1.000000e+000 0.000000e+000
    outer loop
      vertex   1.737981e+000 1.000000e+000 -1.797059e+000
      vertex   1.961998e+000 1.000000e+000 -1.549375e+000
      vertex   5.500000e+000 1.000000e+000 -1.598000e+001
    endloop
  endfacet
  facet normal 0.000000e+000 1.000000e+000 -0.000000e+000
    outer loop
      vertex   5.500000e+000 1.000000e+000 -1.598000e+001
      vertex   1.961998e+000 1.000000e+000 -1.549375e+000
      vertex   2.151004e+000 1.000000e+000 -1.274042e+000
    endloop
  endfacet
  facet normal 0.000000e+000 1.000000e+000 0.000000e+000
    outer loop
      vertex   2.301625e+000 1.000000e+000 -9.759732e-001
      vertex   5.500000e+000 1.000000e+000 -1.598000e+001
      vertex   2.151004e+000 1.000000e+000 -1.274042e+000
    endloop
  endfacet
  facet normal -0.000000e+000 1.000000e+000 0.000000e+000
    outer loop
      vertex   2.301625e+000 1.000000e+000 -9.759732e-001
      vertex   2.411173e+000 1.000000e+000 -6.604885e-001
      vertex   5.500000e+000 1.000000e+000 -1.598000e+001
    endloop
  endfacet
  facet normal 0.000000e+000 1.000000e+000 -0.000000e+000
    outer loop
      vertex   5.500000e+000 1.000000e+000 -1.598000e+001
      vertex   2.411173e+000 1.000000e+000 -6.604885e-001
      vertex   2.477694e+000 1.000000e+000 -3.332174e-001
    endloop
  endfacet
  facet normal 0.000000e+000 1.000000e+000 0.000000e+000
    outer loop
      vertex   2.500000e+000 1.000000e+000 3.061617e-016
      vertex   5.500000e+000 1.000000e+000 -1.598000e+001
      vertex   2.477694e+000 1.000000e+000 -3.332174e-001
    endloop
  endfacet
  facet normal -0.000000e+000 1.000000e+000 0.000000e+000
    outer loop
      vertex   2.500000e+000 1.000000e+000 3.061617e-016
      vertex   4.800000e+000 1.000000e+000 1.598000e+001
      vertex   5.500000e+000 1.000000e+000 -1.598000e+001
    endloop
  endfacet
  facet normal 0.000000e+000 1.000000e+000 0.000000e+000
    outer loop
      vertex   4.800000e+000 1.000000e+000 1.598000e+001
      vertex   -8.353744e-002 1.000000e+000 2.498604e+000
      vertex   -4.800000e+000 1.000000e+000 1.598000e+001
    endloop
  endfacet
  facet normal 0.000000e+000 1.000000e+000 0.000000e+000
    outer loop
      vertex   -4.800000e+000 3.000000e+000 1.598000e+001
      vertex   -5.500000e+000 3.000000e+000 -1.598000e+001
      vertex   -7.980000e+000 3.000000e+000 1.598000e+001
    endloop
  endfacet
  facet normal 0.000000e+000 1.000000e+000 0.000000e+000
    outer loop
      vertex   -7.980000e+000 3.000000e+000 1.598000e+001
      vertex   -5.500000e+000 3.000000e+000 -1.598000e+001
      vertex   -7.980000e+000 3.000000e+000 -1.598000e+001
    endloop
  endfacet
  facet normal -0.000000e+000 1.000000e+000 0.000000e+000
    outer loop
      vertex   4.800000e+000 3.000000e+000 1.598000e+001
      vertex   7.980000e+000 3.000000e+000 1.598000e+001
      vertex   5.500000e+000 3.000000e+000 -1.598000e+001
    endloop
  endfacet
  facet normal -0.000000e+000 1.000000e+000 0.000000e+000
    outer loop
      vertex   5.500000e+000 3.000000e+000 -1.598000e+001
      vertex   7.980000e+000 3.000000e+000 1.598000e+001
      vertex   7.980000e+000 3.000000e+000 -1.598000e+001
    endloop
  endfacet
  facet normal -0.000000e+000 0.000000e+000 1.000000e+000
    outer loop
      vertex   4.800000e+000 3.000000e+000 1.598000e+001
      vertex   4.800000e+000 1.000000e+000 1.598000e+001
      vertex   7.980000e+000 3.000000e+000 1.598000e+001
    endloop
  endfacet
  facet normal 5.320026e-016 -8.458842e-016 1.000000e+000
    outer loop
      vertex   7.980000e+000 3.000000e+000 1.598000e+001
      vertex   4.800000e+000 1.000000e+000 1.598000e+001
      vertex   7.980000e+000 9.000000e-001 1.598000e+001
    endloop
  endfacet
  facet normal 5.767392e-016 5.767392e-016 1.000000e+000
    outer loop
      vertex   7.980000e+000 9.000000e-001 1.598000e+001
      vertex   4.800000e+000 1.000000e+000 1.598000e+001
      vertex   8.880000e+000 0.000000e+000 1.598000e+001
    endloop
  endfacet
  facet normal 0.000000e+000 0.000000e+000 1.000000e+000
    outer loop
      vertex   8.880000e+000 9.000000e-001 1.598000e+001
      vertex   7.980000e+000 9.000000e-001 1.598000e+001
      vertex   8.880000e+000 0.000000e+000 1.598000e+001
    endloop
  endfacet
  facet normal 1.850372e-016 -1.021405e-015 1.000000e+000
    outer loop
      vertex   4.800000e+000 1.000000e+000 1.598000e+001
      vertex   -4.800000e+000 1.000000e+000 1.598000e+001
      vertex   8.880000e+000 0.000000e+000 1.598000e+001
    endloop
  endfacet
  facet normal 1.000201e-016 -2.184439e-015 1.000000e+000
    outer loop
      vertex   8.880000e+000 0.000000e+000 1.598000e+001
      vertex   -4.800000e+000 1.000000e+000 1.598000e+001
      vertex   -8.880000e+000 0.000000e+000 1.598000e+001
    endloop
  endfacet
  facet normal -5.767392e-016 5.767392e-016 1.000000e+000
    outer loop
      vertex   -8.880000e+000 0.000000e+000 1.598000e+001
      vertex   -4.800000e+000 1.000000e+000 1.598000e+001
      vertex   -7.980000e+000 9.000000e-001 1.598000e+001
    endloop
  endfacet
  facet normal -0.000000e+000 0.000000e+000 1.000000e+000
    outer loop
      vertex   -8.880000e+000 9.000000e-001 1.598000e+001
      vertex   -8.880000e+000 0.000000e+000 1.598000e+001
      vertex   -7.980000e+000 9.000000e-001 1.598000e+001
    endloop
  endfacet
  facet normal 0.000000e+000 0.000000e+000 1.000000e+000
    outer loop
      vertex   -4.800000e+000 3.000000e+000 1.598000e+001
      vertex   -7.980000e+000 3.000000e+000 1.598000e+001
      vertex   -4.800000e+000 1.000000e+000 1.598000e+001
    endloop
  endfacet
  facet normal -5.320026e-016 -8.458842e-016 1.000000e+000
    outer loop
      vertex   -4.800000e+000 1.000000e+000 1.598000e+001
      vertex   -7.980000e+000 3.000000e+000 1.598000e+001
      vertex   -7.980000e+000 9.000000e-001 1.598000e+001
    endloop
  endfacet
  facet normal -1.000000e+000 -7.522364e-031 1.389516e-016
    outer loop
      vertex   -7.980000e+000 9.000000e-001 -1.598000e+001
      vertex   -7.980000e+000 9.000000e-001 1.598000e+001
      vertex   -7.980000e+000 3.000000e+000 -1.598000e+001
    endloop
  endfacet
  facet normal -1.000000e+000 8.458842e-016 1.945322e-016
    outer loop
      vertex   -7.980000e+000 3.000000e+000 -1.598000e+001
      vertex   -7.980000e+000 9.000000e-001 1.598000e+001
      vertex   -7.980000e+000 3.000000e+000 1.598000e+001
    endloop
  endfacet
  facet normal -7.162729e-016 8.881784e-016 -1.000000e+000
    outer loop
      vertex   5.500000e+000 3.000000e+000 -1.598000e+001
      vertex   7.980000e+000 3.000000e+000 -1.598000e+001
      vertex   5.500000e+000 1.000000e+000 -1.598000e+001
    endloop
  endfacet
  facet normal 0.000000e+000 0.000000e+000 -1.000000e+000
    outer loop
      vertex   5.500000e+000 1.000000e+000 -1.598000e+001
      vertex   7.980000e+000 3.000000e+000 -1.598000e+001
      vertex   7.980000e+000 9.000000e-001 -1.598000e+001
    endloop
  endfacet
  facet normal 0.000000e+000 0.000000e+000 -1.000000e+000
    outer loop
      vertex   8.880000e+000 0.000000e+000 -1.598000e+001
      vertex   7.980000e+000 9.000000e-001 -1.598000e+001
      vertex   8.880000e+000 9.000000e-001 -1.598000e+001
    endloop
  endfacet
  facet normal 0.000000e+000 0.000000e+000 -1.000000e+000
    outer loop
      vertex   8.880000e+000 0.000000e+000 -1.598000e+001
      vertex   5.500000e+000 1.000000e+000 -1.598000e+001
      vertex   7.980000e+000 9.000000e-001 -1.598000e+001
    endloop
  endfacet
  facet normal -4.000804e-016 -1.352272e-015 -1.000000e+000
    outer loop
      vertex   8.880000e+000 0.000000e+000 -1.598000e+001
      vertex   -8.880000e+000 0.000000e+000 -1.598000e+001
      vertex   5.500000e+000 1.000000e+000 -1.598000e+001
    endloop
  endfacet
  facet normal -4.844610e-016 -1.388788e-016 -1.000000e+000
    outer loop
      vertex   5.500000e+000 1.000000e+000 -1.598000e+001
      vertex   -8.880000e+000 0.000000e+000 -1.598000e+001
      vertex   -5.500000e+000 1.000000e+000 -1.598000e+001
    endloop
  endfacet
  facet normal 1.741526e-015 -7.662716e-015 -1.000000e+000
    outer loop
      vertex   -5.500000e+000 1.000000e+000 -1.598000e+001
      vertex   -8.880000e+000 0.000000e+000 -1.598000e+001
      vertex   -7.980000e+000 9.000000e-001 -1.598000e+001
    endloop
  endfacet
  facet normal 1.296113e-015 3.383537e-015 -1.000000e+000
    outer loop
      vertex   -7.980000e+000 3.000000e+000 -1.598000e+001
      vertex   -5.500000e+000 1.000000e+000 -1.598000e+001
      vertex   -7.980000e+000 9.000000e-001 -1.598000e+001
    endloop
  endfacet
  facet normal -1.432546e-015 -0.000000e+000 -1.000000e+000
    outer loop
      vertex   -7.980000e+000 3.000000e+000 -1.598000e+001
      vertex   -5.500000e+000 3.000000e+000 -1.598000e+001
      vertex   -5.500000e+000 1.000000e+000 -1.598000e+001
    endloop
  endfacet
  facet normal -5.921189e-015 0.000000e+000 -1.000000e+000
    outer loop
      vertex   -8.880000e+000 0.000000e+000 -1.598000e+001
      vertex   -8.880000e+000 9.000000e-001 -1.598000e+001
      vertex   -7.980000e+000 9.000000e-001 -1.598000e+001
    endloop
  endfacet
  facet normal 1.000000e+000 1.880591e-031 -1.111613e-016
    outer loop
      vertex   7.980000e+000 9.000000e-001 1.598000e+001
      vertex   7.980000e+000 9.000000e-001 -1.598000e+001
      vertex   7.980000e+000 3.000000e+000 1.598000e+001
    endloop
  endfacet
  facet normal 1.000000e+000 0.000000e+000 -1.111613e-016
    outer loop
      vertex   7.980000e+000 3.000000e+000 1.598000e+001
      vertex   7.980000e+000 9.000000e-001 -1.598000e+001
      vertex   7.980000e+000 3.000000e+000 -1.598000e+001
    endloop
  endfacet
  facet normal 0.000000e+000 -1.000000e+000 0.000000e+000
    outer loop
      vertex   2.477694e+000 0.000000e+000 -3.332174e-001
      vertex   8.880000e+000 0.000000e+000 -1.598000e+001
      vertex   2.500000e+000 0.000000e+000 3.061617e-016
    endloop
  endfacet
  facet normal 0.000000e+000 -1.000000e+000 -0.000000e+000
    outer loop
      vertex   2.477694e+000 0.000000e+000 -3.332174e-001
      vertex   2.411173e+000 0.000000e+000 -6.604885e-001
      vertex   8.880000e+000 0.000000e+000 -1.598000e+001
    endloop
  endfacet
  facet normal -0.000000e+000 -1.000000e+000 0.000000e+000
    outer loop
      vertex   8.880000e+000 0.000000e+000 -1.598000e+001
      vertex   2.411173e+000 0.000000e+000 -6.604885e-001
      vertex   2.301625e+000 0.000000e+000 -9.759732e-001
    endloop
  endfacet
  facet normal 0.000000e+000 -1.000000e+000 0.000000e+000
    outer loop
      vertex   2.151004e+000 0.000000e+000 -1.274042e+000
      vertex   8.880000e+000 0.000000e+000 -1.598000e+001
      vertex   2.301625e+000 0.000000e+000 -9.759732e-001
    endloop
  endfacet
  facet normal 0.000000e+000 -1.000000e+000 -0.000000e+000
    outer loop
      vertex   2.151004e+000 0.000000e+000 -1.274042e+000
      vertex   1.961998e+000 0.000000e+000 -1.549375e+000
      vertex   8.880000e+000 0.000000e+000 -1.598000e+001
    endloop
  endfacet
  facet normal -0.000000e+000 -1.000000e+000 0.000000e+000
    outer loop
      vertex   8.880000e+000 0.000000e+000 -1.598000e+001
      vertex   1.961998e+000 0.000000e+000 -1.549375e+000
      vertex   1.737981e+000 0.000000e+000 -1.797059e+000
    endloop
  endfacet
  facet normal 0.000000e+000 -1.000000e+000 0.000000e+000
    outer loop
      vertex   1.482949e+000 0.000000e+000 -2.012675e+000
      vertex   8.880000e+000 0.000000e+000 -1.598000e+001
      vertex   1.737981e+000 0.000000e+000 -1.797059e+000
    endloop
  endfacet
  facet normal 0.000000e+000 -1.000000e+000 -0.000000e+000
    outer loop
      vertex   1.482949e+000 0.000000e+000 -2.012675e+000
      vertex   1.201454e+000 0.000000e+000 -2.192375e+000
      vertex   8.880000e+000 0.000000e+000 -1.598000e+001
    endloop
  endfacet
  facet normal -0.000000e+000 -1.000000e+000 0.000000e+000
    outer loop
      vertex   8.880000e+000 0.000000e+000 -1.598000e+001
      vertex   1.201454e+000 0.000000e+000 -2.192375e+000
      vertex   8.985194e-001 0.000000e+000 -2.332952e+000
    endloop
  endfacet
  facet normal 0.000000e+000 -1.000000e+000 0.000000e+000
    outer loop
      vertex   5.795504e-001 0.000000e+000 -2.431897e+000
      vertex   8.880000e+000 0.000000e+000 -1.598000e+001
      vertex   8.985194e-001 0.000000e+000 -2.332952e+000
    endloop
  endfacet
  facet normal 0.000000e+000 -1.000000e+000 -0.000000e+000
    outer loop
      vertex   5.795504e-001 0.000000e+000 -2.431897e+000
      vertex   2.502392e-001 0.000000e+000 -2.487445e+000
      vertex   8.880000e+000 0.000000e+000 -1.598000e+001
    endloop
  endfacet
  facet normal -0.000000e+000 -1.000000e+000 0.000000e+000
    outer loop
      vertex   8.880000e+000 0.000000e+000 -1.598000e+001
      vertex   2.502392e-001 0.000000e+000 -2.487445e+000
      vertex   -8.353744e-002 0.000000e+000 -2.498604e+000
    endloop
  endfacet
  facet normal 0.000000e+000 -1.000000e+000 0.000000e+000
    outer loop
      vertex   -8.880000e+000 0.000000e+000 -1.598000e+001
      vertex   -8.353744e-002 0.000000e+000 -2.498604e+000
      vertex   -4.158234e-001 0.000000e+000 -2.465176e+000
    endloop
  endfacet
  facet normal 0.000000e+000 -1.000000e+000 -0.000000e+000
    outer loop
      vertex   -7.406890e-001 0.000000e+000 -2.387756e+000
      vertex   -8.880000e+000 0.000000e+000 -1.598000e+001
      vertex   -4.158234e-001 0.000000e+000 -2.465176e+000
    endloop
  endfacet
  facet normal -0.000000e+000 -1.000000e+000 0.000000e+000
    outer loop
      vertex   -7.406890e-001 0.000000e+000 -2.387756e+000
      vertex   -1.052337e+000 0.000000e+000 -2.267727e+000
      vertex   -8.880000e+000 0.000000e+000 -1.598000e+001
    endloop
  endfacet
  facet normal 0.000000e+000 -1.000000e+000 0.000000e+000
    outer loop
      vertex   -8.880000e+000 0.000000e+000 -1.598000e+001
      vertex   -1.052337e+000 0.000000e+000 -2.267727e+000
      vertex   -1.345206e+000 0.000000e+000 -2.107231e+000
    endloop
  endfacet
  facet normal 0.000000e+000 -1.000000e+000 -0.000000e+000
    outer loop
      vertex   -1.614070e+000 0.000000e+000 -1.909130e+000
      vertex   -8.880000e+000 0.000000e+000 -1.598000e+001
      vertex   -1.345206e+000 0.000000e+000 -2.107231e+000
    endloop
  endfacet
  facet normal -0.000000e+000 -1.000000e+000 0.000000e+000
    outer loop
      vertex   -1.614070e+000 0.000000e+000 -1.909130e+000
      vertex   -1.854130e+000 0.000000e+000 -1.676962e+000
      vertex   -8.880000e+000 0.000000e+000 -1.598000e+001
    endloop
  endfacet
  facet normal 0.000000e+000 -1.000000e+000 0.000000e+000
    outer loop
      vertex   -8.880000e+000 0.000000e+000 -1.598000e+001
      vertex   -1.854130e+000 0.000000e+000 -1.676962e+000
      vertex   -2.061104e+000 0.000000e+000 -1.414868e+000
    endloop
  endfacet
  facet normal 0.000000e+000 -1.000000e+000 -0.000000e+000
    outer loop
      vertex   -2.231297e+000 0.000000e+000 -1.127525e+000
      vertex   -8.880000e+000 0.000000e+000 -1.598000e+001
      vertex   -2.061104e+000 0.000000e+000 -1.414868e+000
    endloop
  endfacet
  facet normal -0.000000e+000 -1.000000e+000 0.000000e+000
    outer loop
      vertex   -2.231297e+000 0.000000e+000 -1.127525e+000
      vertex   -2.361673e+000 0.000000e+000 -8.200621e-001
      vertex   -8.880000e+000 0.000000e+000 -1.598000e+001
    endloop
  endfacet
  facet normal 0.000000e+000 -1.000000e+000 0.000000e+000
    outer loop
      vertex   -8.880000e+000 0.000000e+000 -1.598000e+001
      vertex   -2.361673e+000 0.000000e+000 -8.200621e-001
      vertex   -2.449904e+000 0.000000e+000 -4.979650e-001
    endloop
  endfacet
  facet normal 0.000000e+000 -1.000000e+000 -0.000000e+000
    outer loop
      vertex   -2.494417e+000 0.000000e+000 -1.669816e-001
      vertex   -8.880000e+000 0.000000e+000 -1.598000e+001
      vertex   -2.449904e+000 0.000000e+000 -4.979650e-001
    endloop
  endfacet
  facet normal -0.000000e+000 -1.000000e+000 0.000000e+000
    outer loop
      vertex   -2.494417e+000 0.000000e+000 -1.669816e-001
      vertex   -2.494417e+000 0.000000e+000 1.669816e-001
      vertex   -8.880000e+000 0.000000e+000 -1.598000e+001
    endloop
  endfacet
  facet normal 0.000000e+000 -1.000000e+000 0.000000e+000
    outer loop
      vertex   -8.880000e+000 0.000000e+000 -1.598000e+001
      vertex   -2.494417e+000 0.000000e+000 1.669816e-001
      vertex   -8.880000e+000 0.000000e+000 1.598000e+001
    endloop
  endfacet
  facet normal 0.000000e+000 -1.000000e+000 0.000000e+000
    outer loop
      vertex   -8.880000e+000 0.000000e+000 1.598000e+001
      vertex   -2.494417e+000 0.000000e+000 1.669816e-001
      vertex   -2.449904e+000 0.000000e+000 4.979650e-001
    endloop
  endfacet
  facet normal -0.000000e+000 -1.000000e+000 -0.000000e+000
    outer loop
      vertex   -2.361673e+000 0.000000e+000 8.200621e-001
      vertex   -8.880000e+000 0.000000e+000 1.598000e+001
      vertex   -2.449904e+000 0.000000e+000 4.979650e-001
    endloop
  endfacet
  facet normal 0.000000e+000 -1.000000e+000 0.000000e+000
    outer loop
      vertex   -2.361673e+000 0.000000e+000 8.200621e-001
      vertex   -2.231297e+000 0.000000e+000 1.127525e+000
      vertex   -8.880000e+000 0.000000e+000 1.598000e+001
    endloop
  endfacet
  facet normal 0.000000e+000 -1.000000e+000 0.000000e+000
    outer loop
      vertex   -8.880000e+000 0.000000e+000 1.598000e+001
      vertex   -2.231297e+000 0.000000e+000 1.127525e+000
      vertex   -2.061104e+000 0.000000e+000 1.414868e+000
    endloop
  endfacet
  facet normal -0.000000e+000 -1.000000e+000 -0.000000e+000
    outer loop
      vertex   -1.854130e+000 0.000000e+000 1.676962e+000
      vertex   -8.880000e+000 0.000000e+000 1.598000e+001
      vertex   -2.061104e+000 0.000000e+000 1.414868e+000
    endloop
  endfacet
  facet normal 0.000000e+000 -1.000000e+000 0.000000e+000
    outer loop
      vertex   -1.854130e+000 0.000000e+000 1.676962e+000
      vertex   -1.614070e+000 0.000000e+000 1.909130e+000
      vertex   -8.880000e+000 0.000000e+000 1.598000e+001
    endloop
  endfacet
  facet normal 0.000000e+000 -1.000000e+000 0.000000e+000
    outer loop
      vertex   -8.880000e+000 0.000000e+000 1.598000e+001
      vertex   -1.614070e+000 0.000000e+000 1.909130e+000
      vertex   -1.345206e+000 0.000000e+000 2.107231e+000
    endloop
  endfacet
  facet normal -0.000000e+000 -1.000000e+000 -0.000000e+000
    outer loop
      vertex   -1.052337e+000 0.000000e+000 2.267727e+000
      vertex   -8.880000e+000 0.000000e+000 1.598000e+001
      vertex   -1.345206e+000 0.000000e+000 2.107231e+000
    endloop
  endfacet
  facet normal 0.000000e+000 -1.000000e+000 0.000000e+000
    outer loop
      vertex   -1.052337e+000 0.000000e+000 2.267727e+000
      vertex   -7.406890e-001 0.000000e+000 2.387756e+000
      vertex   -8.880000e+000 0.000000e+000 1.598000e+001
    endloop
  endfacet
  facet normal 0.000000e+000 -1.000000e+000 0.000000e+000
    outer loop
      vertex   -8.880000e+000 0.000000e+000 1.598000e+001
      vertex   -7.406890e-001 0.000000e+000 2.387756e+000
      vertex   -4.158234e-001 0.000000e+000 2.465176e+000
    endloop
  endfacet
  facet normal -0.000000e+000 -1.000000e+000 -0.000000e+000
    outer loop
      vertex   -8.353744e-002 0.000000e+000 2.498604e+000
      vertex   -8.880000e+000 0.000000e+000 1.598000e+001
      vertex   -4.158234e-001 0.000000e+000 2.465176e+000
    endloop
  endfacet
  facet normal 0.000000e+000 -1.000000e+000 0.000000e+000
    outer loop
      vertex   -8.353744e-002 0.000000e+000 2.498604e+000
      vertex   8.880000e+000 0.000000e+000 1.598000e+001
      vertex   -8.880000e+000 0.000000e+000 1.598000e+001
    endloop
  endfacet
  facet normal 0.000000e+000 -1.000000e+000 0.000000e+000
    outer loop
      vertex   -8.353744e-002 0.000000e+000 2.498604e+000
      vertex   2.502392e-001 0.000000e+000 2.487445e+000
      vertex   8.880000e+000 0.000000e+000 1.598000e+001
    endloop
  endfacet
  facet normal 0.000000e+000 -1.000000e+000 -0.000000e+000
    outer loop
      vertex   8.880000e+000 0.000000e+000 1.598000e+001
      vertex   2.502392e-001 0.000000e+000 2.487445e+000
      vertex   5.795504e-001 0.000000e+000 2.431897e+000
    endloop
  endfacet
  facet normal -0.000000e+000 -1.000000e+000 0.000000e+000
    outer loop
      vertex   8.985194e-001 0.000000e+000 2.332952e+000
      vertex   8.880000e+000 0.000000e+000 1.598000e+001
      vertex   5.795504e-001 0.000000e+000 2.431897e+000
    endloop
  endfacet
  facet normal 0.000000e+000 -1.000000e+000 0.000000e+000
    outer loop
      vertex   8.985194e-001 0.000000e+000 2.332952e+000
      vertex   1.201454e+000 0.000000e+000 2.192375e+000
      vertex   8.880000e+000 0.000000e+000 1.598000e+001
    endloop
  endfacet
  facet normal 0.000000e+000 -1.000000e+000 -0.000000e+000
    outer loop
      vertex   8.880000e+000 0.000000e+000 1.598000e+001
      vertex   1.201454e+000 0.000000e+000 2.192375e+000
      vertex   1.482949e+000 0.000000e+000 2.012675e+000
    endloop
  endfacet
  facet normal -0.000000e+000 -1.000000e+000 0.000000e+000
    outer loop
      vertex   1.737981e+000 0.000000e+000 1.797059e+000
      vertex   8.880000e+000 0.000000e+000 1.598000e+001
      vertex   1.482949e+000 0.000000e+000 2.012675e+000
    endloop
  endfacet
  facet normal 0.000000e+000 -1.000000e+000 0.000000e+000
    outer loop
      vertex   1.737981e+000 0.000000e+000 1.797059e+000
      vertex   1.961998e+000 0.000000e+000 1.549375e+000
      vertex   8.880000e+000 0.000000e+000 1.598000e+001
    endloop
  endfacet
  facet normal 0.000000e+000 -1.000000e+000 -0.000000e+000
    outer loop
      vertex   8.880000e+000 0.000000e+000 1.598000e+001
      vertex   1.961998e+000 0.000000e+000 1.549375e+000
      vertex   2.151004e+000 0.000000e+000 1.274042e+000
    endloop
  endfacet
  facet normal -0.000000e+000 -1.000000e+000 0.000000e+000
    outer loop
      vertex   2.301625e+000 0.000000e+000 9.759732e-001
      vertex   8.880000e+000 0.000000e+000 1.598000e+001
      vertex   2.151004e+000 0.000000e+000 1.274042e+000
    endloop
  endfacet
  facet normal 0.000000e+000 -1.000000e+000 0.000000e+000
    outer loop
      vertex   2.301625e+000 0.000000e+000 9.759732e-001
      vertex   2.411173e+000 0.000000e+000 6.604885e-001
      vertex   8.880000e+000 0.000000e+000 1.598000e+001
    endloop
  endfacet
  facet normal 0.000000e+000 -1.000000e+000 -0.000000e+000
    outer loop
      vertex   8.880000e+000 0.000000e+000 1.598000e+001
      vertex   2.411173e+000 0.000000e+000 6.604885e-001
      vertex   2.477694e+000 0.000000e+000 3.332174e-001
    endloop
  endfacet
  facet normal -0.000000e+000 -1.000000e+000 0.000000e+000
    outer loop
      vertex   2.500000e+000 0.000000e+000 3.061617e-016
      vertex   8.880000e+000 0.000000e+000 1.598000e+001
      vertex   2.477694e+000 0.000000e+000 3.332174e-001
    endloop
  endfacet
  facet normal 0.000000e+000 -1.000000e+000 0.000000e+000
    outer loop
      vertex   2.500000e+000 0.000000e+000 3.061617e-016
      vertex   8.880000e+000 0.000000e+000 -1.598000e+001
      vertex   8.880000e+000 0.000000e+000 1.598000e+001
    endloop
  endfacet
  facet normal -0.000000e+000 -1.000000e+000 0.000000e+000
    outer loop
      vertex   8.880000e+000 0.000000e+000 -1.598000e+001
      vertex   -8.353744e-002 0.000000e+000 -2.498604e+000
      vertex   -8.880000e+000 0.000000e+000 -1.598000e+001
    endloop
  endfacet
endsolid
