solid ascii
  facet normal 1.000000e+000 0.000000e+000 -0.000000e+000
    outer loop
      vertex   9.780000e+000 8.000000e-001 -1.590000e+001
      vertex   9.780000e+000 8.000000e-001 1.590000e+001
      vertex   9.780000e+000 -2.465190e-031 -1.590000e+001
    endloop
  endfacet
  facet normal 1.000000e+000 0.000000e+000 -0.000000e+000
    outer loop
      vertex   9.780000e+000 -2.465190e-031 -1.590000e+001
      vertex   9.780000e+000 8.000000e-001 1.590000e+001
      vertex   9.780000e+000 -2.465190e-031 1.590000e+001
    endloop
  endfacet
  facet normal 6.167906e-017 1.000000e+000 0.000000e+000
    outer loop
      vertex   9.780000e+000 8.000000e-001 -1.590000e+001
      vertex   7.980000e+000 8.000000e-001 -1.590000e+001
      vertex   9.780000e+000 8.000000e-001 1.590000e+001
    endloop
  endfacet
  facet normal 6.167906e-017 1.000000e+000 -0.000000e+000
    outer loop
      vertex   9.780000e+000 8.000000e-001 1.590000e+001
      vertex   7.980000e+000 8.000000e-001 -1.590000e+001
      vertex   7.980000e+000 8.000000e-001 1.590000e+001
    endloop
  endfacet
  facet normal 0.000000e+000 1.000000e+000 -0.000000e+000
    outer loop
      vertex   -7.980000e+000 8.000000e-001 -1.590000e+001
      vertex   -9.780000e+000 8.000000e-001 -1.590000e+001
      vertex   -7.980000e+000 8.000000e-001 1.590000e+001
    endloop
  endfacet
  facet normal 0.000000e+000 1.000000e+000 -0.000000e+000
    outer loop
      vertex   -7.980000e+000 8.000000e-001 1.590000e+001
      vertex   -9.780000e+000 8.000000e-001 -1.590000e+001
      vertex   -9.780000e+000 8.000000e-001 1.590000e+001
    endloop
  endfacet
  facet normal -1.000000e+000 0.000000e+000 0.000000e+000
    outer loop
      vertex   -9.780000e+000 0.000000e+000 -1.590000e+001
      vertex   -9.780000e+000 0.000000e+000 1.590000e+001
      vertex   -9.780000e+000 8.000000e-001 -1.590000e+001
    endloop
  endfacet
  facet normal -1.000000e+000 0.000000e+000 0.000000e+000
    outer loop
      vertex   -9.780000e+000 8.000000e-001 -1.590000e+001
      vertex   -9.780000e+000 0.000000e+000 1.590000e+001
      vertex   -9.780000e+000 8.000000e-001 1.590000e+001
    endloop
  endfacet
  facet normal 1.000000e+000 -3.416071e-016 0.000000e+000
    outer loop
      vertex   7.980000e+000 8.000000e-001 1.590000e+001
      vertex   7.980000e+000 8.000000e-001 -1.590000e+001
      vertex   7.980000e+000 6.000000e+000 1.590000e+001
    endloop
  endfacet
  facet normal 1.000000e+000 -3.816453e-032 -5.586028e-017
    outer loop
      vertex   7.980000e+000 6.000000e+000 1.590000e+001
      vertex   7.980000e+000 8.000000e-001 -1.590000e+001
      vertex   7.980000e+000 6.000000e+000 -1.590000e+001
    endloop
  endfacet
  facet normal -1.000000e+000 0.000000e+000 0.000000e+000
    outer loop
      vertex   -7.980000e+000 8.000000e-001 -1.590000e+001
      vertex   -7.980000e+000 8.000000e-001 1.590000e+001
      vertex   -7.980000e+000 6.000000e+000 -1.590000e+001
    endloop
  endfacet
  facet normal -1.000000e+000 1.195625e-015 1.955110e-016
    outer loop
      vertex   -7.980000e+000 6.000000e+000 -1.590000e+001
      vertex   -7.980000e+000 8.000000e-001 1.590000e+001
      vertex   -7.980000e+000 6.000000e+000 1.590000e+001
    endloop
  endfacet
  facet normal -9.976688e-001 1.894107e-017 6.824241e-002
    outer loop
      vertex   2.476715e+000 4.000000e+000 -3.404166e-001
      vertex   2.476715e+000 0.000000e+000 -3.404166e-001
      vertex   2.500000e+000 4.000000e+000 3.061617e-016
    endloop
  endfacet
  facet normal -9.790841e-001 5.846604e-017 2.034560e-001
    outer loop
      vertex   2.476715e+000 4.000000e+000 -3.404166e-001
      vertex   2.407293e+000 0.000000e+000 -6.744919e-001
      vertex   2.476715e+000 0.000000e+000 -3.404166e-001
    endloop
  endfacet
  facet normal -9.790841e-001 0.000000e+000 2.034560e-001
    outer loop
      vertex   2.476715e+000 4.000000e+000 -3.404166e-001
      vertex   2.407293e+000 4.000000e+000 -6.744919e-001
      vertex   2.407293e+000 0.000000e+000 -6.744919e-001
    endloop
  endfacet
  facet normal -9.422609e-001 0.000000e+000 3.348796e-001
    outer loop
      vertex   2.407293e+000 0.000000e+000 -6.744919e-001
      vertex   2.407293e+000 4.000000e+000 -6.744919e-001
      vertex   2.293028e+000 0.000000e+000 -9.960027e-001
    endloop
  endfacet
  facet normal -9.422609e-001 -1.220161e-016 3.348796e-001
    outer loop
      vertex   2.293028e+000 0.000000e+000 -9.960027e-001
      vertex   2.407293e+000 4.000000e+000 -6.744919e-001
      vertex   2.293028e+000 4.000000e+000 -9.960027e-001
    endloop
  endfacet
  facet normal -8.878852e-001 0.000000e+000 4.600650e-001
    outer loop
      vertex   2.136049e+000 0.000000e+000 -1.298960e+000
      vertex   2.293028e+000 4.000000e+000 -9.960027e-001
      vertex   2.136049e+000 4.000000e+000 -1.298960e+000
    endloop
  endfacet
  facet normal -8.169699e-001 0.000000e+000 5.766803e-001
    outer loop
      vertex   1.939278e+000 0.000000e+000 -1.577720e+000
      vertex   2.136049e+000 4.000000e+000 -1.298960e+000
      vertex   1.939278e+000 4.000000e+000 -1.577720e+000
    endloop
  endfacet
  facet normal -7.308360e-001 -1.016801e-017 6.825531e-001
    outer loop
      vertex   1.706383e+000 0.000000e+000 -1.827090e+000
      vertex   1.939278e+000 4.000000e+000 -1.577720e+000
      vertex   1.706383e+000 4.000000e+000 -1.827090e+000
    endloop
  endfacet
  facet normal -6.310879e-001 0.000000e+000 7.757113e-001
    outer loop
      vertex   1.441701e+000 0.000000e+000 -2.042425e+000
      vertex   1.706383e+000 4.000000e+000 -1.827090e+000
      vertex   1.441701e+000 4.000000e+000 -2.042425e+000
    endloop
  endfacet
  facet normal -5.195840e-001 -4.575604e-017 8.544194e-001
    outer loop
      vertex   1.150163e+000 0.000000e+000 -2.219713e+000
      vertex   1.441701e+000 4.000000e+000 -2.042425e+000
      vertex   1.150163e+000 4.000000e+000 -2.219713e+000
    endloop
  endfacet
  facet normal -3.984011e-001 0.000000e+000 9.172113e-001
    outer loop
      vertex   8.371990e-001 0.000000e+000 -2.355652e+000
      vertex   1.150163e+000 4.000000e+000 -2.219713e+000
      vertex   8.371990e-001 4.000000e+000 -2.355652e+000
    endloop
  endfacet
  facet normal -2.697968e-001 -7.626006e-017 9.629173e-001
    outer loop
      vertex   5.086400e-001 0.000000e+000 -2.447710e+000
      vertex   8.371990e-001 4.000000e+000 -2.355652e+000
      vertex   5.086400e-001 4.000000e+000 -2.447710e+000
    endloop
  endfacet
  facet normal -1.361666e-001 1.779401e-017 9.906859e-001
    outer loop
      vertex   1.706060e-001 0.000000e+000 -2.494172e+000
      vertex   5.086400e-001 4.000000e+000 -2.447710e+000
      vertex   1.706060e-001 4.000000e+000 -2.494172e+000
    endloop
  endfacet
  facet normal 0.000000e+000 -0.000000e+000 1.000000e+000
    outer loop
      vertex   -1.706060e-001 0.000000e+000 -2.494172e+000
      vertex   1.706060e-001 4.000000e+000 -2.494172e+000
      vertex   -1.706060e-001 4.000000e+000 -2.494172e+000
    endloop
  endfacet
  facet normal 1.361666e-001 -1.779401e-017 9.906859e-001
    outer loop
      vertex   -5.086400e-001 0.000000e+000 -2.447710e+000
      vertex   -1.706060e-001 4.000000e+000 -2.494172e+000
      vertex   -5.086400e-001 4.000000e+000 -2.447710e+000
    endloop
  endfacet
  facet normal 2.697968e-001 0.000000e+000 9.629173e-001
    outer loop
      vertex   -8.371990e-001 0.000000e+000 -2.355652e+000
      vertex   -5.086400e-001 4.000000e+000 -2.447710e+000
      vertex   -8.371990e-001 4.000000e+000 -2.355652e+000
    endloop
  endfacet
  facet normal 3.984011e-001 -1.118481e-016 9.172113e-001
    outer loop
      vertex   -1.150163e+000 0.000000e+000 -2.219713e+000
      vertex   -8.371990e-001 4.000000e+000 -2.355652e+000
      vertex   -1.150163e+000 4.000000e+000 -2.219713e+000
    endloop
  endfacet
  facet normal 5.195840e-001 0.000000e+000 8.544194e-001
    outer loop
      vertex   -1.441701e+000 0.000000e+000 -2.042425e+000
      vertex   -1.150163e+000 4.000000e+000 -2.219713e+000
      vertex   -1.441701e+000 4.000000e+000 -2.042425e+000
    endloop
  endfacet
  facet normal 6.310879e-001 0.000000e+000 7.757113e-001
    outer loop
      vertex   -1.706383e+000 0.000000e+000 -1.827090e+000
      vertex   -1.441701e+000 4.000000e+000 -2.042425e+000
      vertex   -1.706383e+000 4.000000e+000 -1.827090e+000
    endloop
  endfacet
  facet normal 7.308360e-001 0.000000e+000 6.825531e-001
    outer loop
      vertex   -1.939278e+000 0.000000e+000 -1.577720e+000
      vertex   -1.706383e+000 4.000000e+000 -1.827090e+000
      vertex   -1.939278e+000 4.000000e+000 -1.577720e+000
    endloop
  endfacet
  facet normal 8.169699e-001 -6.609205e-017 5.766803e-001
    outer loop
      vertex   -2.136049e+000 0.000000e+000 -1.298960e+000
      vertex   -1.939278e+000 4.000000e+000 -1.577720e+000
      vertex   -2.136049e+000 4.000000e+000 -1.298960e+000
    endloop
  endfacet
  facet normal 8.878852e-001 -1.525201e-017 4.600650e-001
    outer loop
      vertex   -2.293028e+000 0.000000e+000 -9.960027e-001
      vertex   -2.136049e+000 4.000000e+000 -1.298960e+000
      vertex   -2.293028e+000 4.000000e+000 -9.960027e-001
    endloop
  endfacet
  facet normal 9.422609e-001 0.000000e+000 3.348796e-001
    outer loop
      vertex   -2.407293e+000 0.000000e+000 -6.744919e-001
      vertex   -2.293028e+000 4.000000e+000 -9.960027e-001
      vertex   -2.407293e+000 4.000000e+000 -6.744919e-001
    endloop
  endfacet
  facet normal 9.790841e-001 0.000000e+000 2.034560e-001
    outer loop
      vertex   -2.476715e+000 0.000000e+000 -3.404166e-001
      vertex   -2.407293e+000 4.000000e+000 -6.744919e-001
      vertex   -2.476715e+000 4.000000e+000 -3.404166e-001
    endloop
  endfacet
  facet normal 9.976688e-001 0.000000e+000 6.824241e-002
    outer loop
      vertex   -2.500000e+000 0.000000e+000 0.000000e+000
      vertex   -2.476715e+000 4.000000e+000 -3.404166e-001
      vertex   -2.500000e+000 4.000000e+000 0.000000e+000
    endloop
  endfacet
  facet normal 9.976688e-001 0.000000e+000 -6.824241e-002
    outer loop
      vertex   -2.476715e+000 0.000000e+000 3.404166e-001
      vertex   -2.500000e+000 4.000000e+000 0.000000e+000
      vertex   -2.476715e+000 4.000000e+000 3.404166e-001
    endloop
  endfacet
  facet normal 9.790841e-001 0.000000e+000 -2.034560e-001
    outer loop
      vertex   -2.407293e+000 0.000000e+000 6.744919e-001
      vertex   -2.476715e+000 4.000000e+000 3.404166e-001
      vertex   -2.407293e+000 4.000000e+000 6.744919e-001
    endloop
  endfacet
  facet normal 9.422609e-001 -2.033602e-017 -3.348796e-001
    outer loop
      vertex   -2.293028e+000 0.000000e+000 9.960027e-001
      vertex   -2.407293e+000 4.000000e+000 6.744919e-001
      vertex   -2.293028e+000 4.000000e+000 9.960027e-001
    endloop
  endfacet
  facet normal 8.878852e-001 3.050402e-017 -4.600650e-001
    outer loop
      vertex   -2.136049e+000 0.000000e+000 1.298960e+000
      vertex   -2.293028e+000 4.000000e+000 9.960027e-001
      vertex   -2.136049e+000 4.000000e+000 1.298960e+000
    endloop
  endfacet
  facet normal 8.169699e-001 0.000000e+000 -5.766803e-001
    outer loop
      vertex   -1.939278e+000 0.000000e+000 1.577720e+000
      vertex   -2.136049e+000 4.000000e+000 1.298960e+000
      vertex   -1.939278e+000 4.000000e+000 1.577720e+000
    endloop
  endfacet
  facet normal 7.308360e-001 0.000000e+000 -6.825531e-001
    outer loop
      vertex   -1.706383e+000 0.000000e+000 1.827090e+000
      vertex   -1.939278e+000 4.000000e+000 1.577720e+000
      vertex   -1.706383e+000 4.000000e+000 1.827090e+000
    endloop
  endfacet
  facet normal 6.310879e-001 0.000000e+000 -7.757113e-001
    outer loop
      vertex   -1.441701e+000 0.000000e+000 2.042425e+000
      vertex   -1.706383e+000 4.000000e+000 1.827090e+000
      vertex   -1.441701e+000 4.000000e+000 2.042425e+000
    endloop
  endfacet
  facet normal 5.195840e-001 7.626006e-017 -8.544194e-001
    outer loop
      vertex   -1.150163e+000 0.000000e+000 2.219713e+000
      vertex   -1.441701e+000 4.000000e+000 2.042425e+000
      vertex   -1.150163e+000 4.000000e+000 2.219713e+000
    endloop
  endfacet
  facet normal 3.984011e-001 0.000000e+000 -9.172113e-001
    outer loop
      vertex   -8.371990e-001 0.000000e+000 2.355652e+000
      vertex   -1.150163e+000 4.000000e+000 2.219713e+000
      vertex   -8.371990e-001 4.000000e+000 2.355652e+000
    endloop
  endfacet
  facet normal 2.697968e-001 3.813003e-017 -9.629173e-001
    outer loop
      vertex   -5.086400e-001 0.000000e+000 2.447710e+000
      vertex   -8.371990e-001 4.000000e+000 2.355652e+000
      vertex   -5.086400e-001 4.000000e+000 2.447710e+000
    endloop
  endfacet
  facet normal 1.361666e-001 -2.033602e-017 -9.906859e-001
    outer loop
      vertex   -1.706060e-001 0.000000e+000 2.494172e+000
      vertex   -5.086400e-001 4.000000e+000 2.447710e+000
      vertex   -1.706060e-001 4.000000e+000 2.494172e+000
    endloop
  endfacet
  facet normal 0.000000e+000 0.000000e+000 -1.000000e+000
    outer loop
      vertex   1.706060e-001 0.000000e+000 2.494172e+000
      vertex   -1.706060e-001 4.000000e+000 2.494172e+000
      vertex   1.706060e-001 4.000000e+000 2.494172e+000
    endloop
  endfacet
  facet normal -1.361666e-001 3.813003e-017 -9.906859e-001
    outer loop
      vertex   5.086400e-001 0.000000e+000 2.447710e+000
      vertex   1.706060e-001 4.000000e+000 2.494172e+000
      vertex   5.086400e-001 4.000000e+000 2.447710e+000
    endloop
  endfacet
  facet normal -2.697968e-001 0.000000e+000 -9.629173e-001
    outer loop
      vertex   8.371990e-001 0.000000e+000 2.355652e+000
      vertex   5.086400e-001 4.000000e+000 2.447710e+000
      vertex   8.371990e-001 4.000000e+000 2.355652e+000
    endloop
  endfacet
  facet normal -3.984011e-001 1.016801e-017 -9.172113e-001
    outer loop
      vertex   1.150163e+000 0.000000e+000 2.219713e+000
      vertex   8.371990e-001 4.000000e+000 2.355652e+000
      vertex   1.150163e+000 4.000000e+000 2.219713e+000
    endloop
  endfacet
  facet normal -5.195840e-001 0.000000e+000 -8.544194e-001
    outer loop
      vertex   1.441701e+000 0.000000e+000 2.042425e+000
      vertex   1.150163e+000 4.000000e+000 2.219713e+000
      vertex   1.441701e+000 4.000000e+000 2.042425e+000
    endloop
  endfacet
  facet normal -6.310879e-001 -3.050402e-017 -7.757113e-001
    outer loop
      vertex   1.706383e+000 0.000000e+000 1.827090e+000
      vertex   1.441701e+000 4.000000e+000 2.042425e+000
      vertex   1.706383e+000 4.000000e+000 1.827090e+000
    endloop
  endfacet
  facet normal -7.308360e-001 0.000000e+000 -6.825531e-001
    outer loop
      vertex   1.939278e+000 0.000000e+000 1.577720e+000
      vertex   1.706383e+000 4.000000e+000 1.827090e+000
      vertex   1.939278e+000 4.000000e+000 1.577720e+000
    endloop
  endfacet
  facet normal -8.169699e-001 0.000000e+000 -5.766803e-001
    outer loop
      vertex   2.136049e+000 0.000000e+000 1.298960e+000
      vertex   1.939278e+000 4.000000e+000 1.577720e+000
      vertex   2.136049e+000 4.000000e+000 1.298960e+000
    endloop
  endfacet
  facet normal -8.878852e-001 8.134406e-017 -4.600650e-001
    outer loop
      vertex   2.293028e+000 0.000000e+000 9.960027e-001
      vertex   2.136049e+000 4.000000e+000 1.298960e+000
      vertex   2.293028e+000 4.000000e+000 9.960027e-001
    endloop
  endfacet
  facet normal -9.422609e-001 0.000000e+000 -3.348796e-001
    outer loop
      vertex   2.407293e+000 0.000000e+000 6.744919e-001
      vertex   2.293028e+000 4.000000e+000 9.960027e-001
      vertex   2.407293e+000 4.000000e+000 6.744919e-001
    endloop
  endfacet
  facet normal -9.790841e-001 -5.846604e-017 -2.034560e-001
    outer loop
      vertex   2.476715e+000 0.000000e+000 3.404166e-001
      vertex   2.407293e+000 4.000000e+000 6.744919e-001
      vertex   2.476715e+000 4.000000e+000 3.404166e-001
    endloop
  endfacet
  facet normal -9.976688e-001 0.000000e+000 -6.824241e-002
    outer loop
      vertex   2.500000e+000 0.000000e+000 3.061617e-016
      vertex   2.476715e+000 4.000000e+000 3.404166e-001
      vertex   2.500000e+000 4.000000e+000 3.061617e-016
    endloop
  endfacet
  facet normal -9.976688e-001 0.000000e+000 6.824241e-002
    outer loop
      vertex   2.476715e+000 0.000000e+000 -3.404166e-001
      vertex   2.500000e+000 0.000000e+000 3.061617e-016
      vertex   2.500000e+000 4.000000e+000 3.061617e-016
    endloop
  endfacet
  facet normal -8.878852e-001 -8.222579e-017 4.600650e-001
    outer loop
      vertex   2.293028e+000 0.000000e+000 -9.960027e-001
      vertex   2.293028e+000 4.000000e+000 -9.960027e-001
      vertex   2.136049e+000 0.000000e+000 -1.298960e+000
    endloop
  endfacet
  facet normal -8.169699e-001 0.000000e+000 5.766803e-001
    outer loop
      vertex   2.136049e+000 0.000000e+000 -1.298960e+000
      vertex   2.136049e+000 4.000000e+000 -1.298960e+000
      vertex   1.939278e+000 0.000000e+000 -1.577720e+000
    endloop
  endfacet
  facet normal -7.308360e-001 0.000000e+000 6.825531e-001
    outer loop
      vertex   1.939278e+000 0.000000e+000 -1.577720e+000
      vertex   1.939278e+000 4.000000e+000 -1.577720e+000
      vertex   1.706383e+000 0.000000e+000 -1.827090e+000
    endloop
  endfacet
  facet normal -6.310879e-001 3.211283e-017 7.757113e-001
    outer loop
      vertex   1.706383e+000 0.000000e+000 -1.827090e+000
      vertex   1.706383e+000 4.000000e+000 -1.827090e+000
      vertex   1.441701e+000 0.000000e+000 -2.042425e+000
    endloop
  endfacet
  facet normal -5.195840e-001 0.000000e+000 8.544194e-001
    outer loop
      vertex   1.441701e+000 0.000000e+000 -2.042425e+000
      vertex   1.441701e+000 4.000000e+000 -2.042425e+000
      vertex   1.150163e+000 0.000000e+000 -2.219713e+000
    endloop
  endfacet
  facet normal -3.984011e-001 -8.747605e-018 9.172113e-001
    outer loop
      vertex   1.150163e+000 0.000000e+000 -2.219713e+000
      vertex   1.150163e+000 4.000000e+000 -2.219713e+000
      vertex   8.371990e-001 0.000000e+000 -2.355652e+000
    endloop
  endfacet
  facet normal -2.697968e-001 0.000000e+000 9.629173e-001
    outer loop
      vertex   8.371990e-001 0.000000e+000 -2.355652e+000
      vertex   8.371990e-001 4.000000e+000 -2.355652e+000
      vertex   5.086400e-001 0.000000e+000 -2.447710e+000
    endloop
  endfacet
  facet normal -1.361666e-001 -3.779384e-017 9.906859e-001
    outer loop
      vertex   5.086400e-001 0.000000e+000 -2.447710e+000
      vertex   5.086400e-001 4.000000e+000 -2.447710e+000
      vertex   1.706060e-001 0.000000e+000 -2.494172e+000
    endloop
  endfacet
  facet normal 0.000000e+000 -0.000000e+000 1.000000e+000
    outer loop
      vertex   1.706060e-001 0.000000e+000 -2.494172e+000
      vertex   1.706060e-001 4.000000e+000 -2.494172e+000
      vertex   -1.706060e-001 0.000000e+000 -2.494172e+000
    endloop
  endfacet
  facet normal 1.361666e-001 1.889692e-017 9.906859e-001
    outer loop
      vertex   -1.706060e-001 0.000000e+000 -2.494172e+000
      vertex   -1.706060e-001 4.000000e+000 -2.494172e+000
      vertex   -5.086400e-001 0.000000e+000 -2.447710e+000
    endloop
  endfacet
  facet normal 2.697968e-001 -3.744182e-017 9.629173e-001
    outer loop
      vertex   -5.086400e-001 0.000000e+000 -2.447710e+000
      vertex   -5.086400e-001 4.000000e+000 -2.447710e+000
      vertex   -8.371990e-001 0.000000e+000 -2.355652e+000
    endloop
  endfacet
  facet normal 3.984011e-001 -0.000000e+000 9.172113e-001
    outer loop
      vertex   -8.371990e-001 0.000000e+000 -2.355652e+000
      vertex   -8.371990e-001 4.000000e+000 -2.355652e+000
      vertex   -1.150163e+000 0.000000e+000 -2.219713e+000
    endloop
  endfacet
  facet normal 5.195840e-001 -7.434841e-017 8.544194e-001
    outer loop
      vertex   -1.150163e+000 0.000000e+000 -2.219713e+000
      vertex   -1.150163e+000 4.000000e+000 -2.219713e+000
      vertex   -1.441701e+000 0.000000e+000 -2.042425e+000
    endloop
  endfacet
  facet normal 6.310879e-001 -0.000000e+000 7.757113e-001
    outer loop
      vertex   -1.441701e+000 0.000000e+000 -2.042425e+000
      vertex   -1.441701e+000 4.000000e+000 -2.042425e+000
      vertex   -1.706383e+000 0.000000e+000 -1.827090e+000
    endloop
  endfacet
  facet normal 7.308360e-001 -0.000000e+000 6.825531e-001
    outer loop
      vertex   -1.706383e+000 0.000000e+000 -1.827090e+000
      vertex   -1.706383e+000 4.000000e+000 -1.827090e+000
      vertex   -1.939278e+000 0.000000e+000 -1.577720e+000
    endloop
  endfacet
  facet normal 8.169699e-001 -0.000000e+000 5.766803e-001
    outer loop
      vertex   -1.939278e+000 0.000000e+000 -1.577720e+000
      vertex   -1.939278e+000 4.000000e+000 -1.577720e+000
      vertex   -2.136049e+000 0.000000e+000 -1.298960e+000
    endloop
  endfacet
  facet normal 8.878852e-001 -2.911864e-017 4.600650e-001
    outer loop
      vertex   -2.136049e+000 0.000000e+000 -1.298960e+000
      vertex   -2.136049e+000 4.000000e+000 -1.298960e+000
      vertex   -2.293028e+000 0.000000e+000 -9.960027e-001
    endloop
  endfacet
  facet normal 9.422609e-001 2.095899e-017 3.348796e-001
    outer loop
      vertex   -2.293028e+000 0.000000e+000 -9.960027e-001
      vertex   -2.293028e+000 4.000000e+000 -9.960027e-001
      vertex   -2.407293e+000 0.000000e+000 -6.744919e-001
    endloop
  endfacet
  facet normal 9.790841e-001 -0.000000e+000 2.034560e-001
    outer loop
      vertex   -2.407293e+000 0.000000e+000 -6.744919e-001
      vertex   -2.407293e+000 4.000000e+000 -6.744919e-001
      vertex   -2.476715e+000 0.000000e+000 -3.404166e-001
    endloop
  endfacet
  facet normal 9.976688e-001 -0.000000e+000 6.824241e-002
    outer loop
      vertex   -2.476715e+000 0.000000e+000 -3.404166e-001
      vertex   -2.476715e+000 4.000000e+000 -3.404166e-001
      vertex   -2.500000e+000 0.000000e+000 0.000000e+000
    endloop
  endfacet
  facet normal 9.976688e-001 0.000000e+000 -6.824241e-002
    outer loop
      vertex   -2.500000e+000 0.000000e+000 0.000000e+000
      vertex   -2.500000e+000 4.000000e+000 0.000000e+000
      vertex   -2.476715e+000 0.000000e+000 3.404166e-001
    endloop
  endfacet
  facet normal 9.790841e-001 0.000000e+000 -2.034560e-001
    outer loop
      vertex   -2.476715e+000 0.000000e+000 3.404166e-001
      vertex   -2.476715e+000 4.000000e+000 3.404166e-001
      vertex   -2.407293e+000 0.000000e+000 6.744919e-001
    endloop
  endfacet
  facet normal 9.422609e-001 0.000000e+000 -3.348796e-001
    outer loop
      vertex   -2.407293e+000 0.000000e+000 6.744919e-001
      vertex   -2.407293e+000 4.000000e+000 6.744919e-001
      vertex   -2.293028e+000 0.000000e+000 9.960027e-001
    endloop
  endfacet
  facet normal 8.878852e-001 1.634927e-017 -4.600650e-001
    outer loop
      vertex   -2.293028e+000 0.000000e+000 9.960027e-001
      vertex   -2.293028e+000 4.000000e+000 9.960027e-001
      vertex   -2.136049e+000 0.000000e+000 1.298960e+000
    endloop
  endfacet
  facet normal 8.169699e-001 6.935906e-017 -5.766803e-001
    outer loop
      vertex   -2.136049e+000 0.000000e+000 1.298960e+000
      vertex   -2.136049e+000 4.000000e+000 1.298960e+000
      vertex   -1.939278e+000 0.000000e+000 1.577720e+000
    endloop
  endfacet
  facet normal 7.308360e-001 0.000000e+000 -6.825531e-001
    outer loop
      vertex   -1.939278e+000 0.000000e+000 1.577720e+000
      vertex   -1.939278e+000 4.000000e+000 1.577720e+000
      vertex   -1.706383e+000 0.000000e+000 1.827090e+000
    endloop
  endfacet
  facet normal 6.310879e-001 0.000000e+000 -7.757113e-001
    outer loop
      vertex   -1.706383e+000 0.000000e+000 1.827090e+000
      vertex   -1.706383e+000 4.000000e+000 1.827090e+000
      vertex   -1.441701e+000 0.000000e+000 2.042425e+000
    endloop
  endfacet
  facet normal 5.195840e-001 0.000000e+000 -8.544194e-001
    outer loop
      vertex   -1.441701e+000 0.000000e+000 2.042425e+000
      vertex   -1.441701e+000 4.000000e+000 2.042425e+000
      vertex   -1.150163e+000 0.000000e+000 2.219713e+000
    endloop
  endfacet
  facet normal 3.984011e-001 1.151990e-016 -9.172113e-001
    outer loop
      vertex   -1.150163e+000 0.000000e+000 2.219713e+000
      vertex   -1.150163e+000 4.000000e+000 2.219713e+000
      vertex   -8.371990e-001 0.000000e+000 2.355652e+000
    endloop
  endfacet
  facet normal 2.697968e-001 0.000000e+000 -9.629173e-001
    outer loop
      vertex   -8.371990e-001 0.000000e+000 2.355652e+000
      vertex   -8.371990e-001 4.000000e+000 2.355652e+000
      vertex   -5.086400e-001 0.000000e+000 2.447710e+000
    endloop
  endfacet
  facet normal 1.361666e-001 1.889692e-017 -9.906859e-001
    outer loop
      vertex   -5.086400e-001 0.000000e+000 2.447710e+000
      vertex   -5.086400e-001 4.000000e+000 2.447710e+000
      vertex   -1.706060e-001 0.000000e+000 2.494172e+000
    endloop
  endfacet
  facet normal 0.000000e+000 0.000000e+000 -1.000000e+000
    outer loop
      vertex   -1.706060e-001 0.000000e+000 2.494172e+000
      vertex   -1.706060e-001 4.000000e+000 2.494172e+000
      vertex   1.706060e-001 0.000000e+000 2.494172e+000
    endloop
  endfacet
  facet normal -1.361666e-001 -1.889692e-017 -9.906859e-001
    outer loop
      vertex   1.706060e-001 0.000000e+000 2.494172e+000
      vertex   1.706060e-001 4.000000e+000 2.494172e+000
      vertex   5.086400e-001 0.000000e+000 2.447710e+000
    endloop
  endfacet
  facet normal -2.697968e-001 7.488365e-017 -9.629173e-001
    outer loop
      vertex   5.086400e-001 0.000000e+000 2.447710e+000
      vertex   5.086400e-001 4.000000e+000 2.447710e+000
      vertex   8.371990e-001 0.000000e+000 2.355652e+000
    endloop
  endfacet
  facet normal -3.984011e-001 0.000000e+000 -9.172113e-001
    outer loop
      vertex   8.371990e-001 0.000000e+000 2.355652e+000
      vertex   8.371990e-001 4.000000e+000 2.355652e+000
      vertex   1.150163e+000 0.000000e+000 2.219713e+000
    endloop
  endfacet
  facet normal -5.195840e-001 4.935391e-017 -8.544194e-001
    outer loop
      vertex   1.150163e+000 0.000000e+000 2.219713e+000
      vertex   1.150163e+000 4.000000e+000 2.219713e+000
      vertex   1.441701e+000 0.000000e+000 2.042425e+000
    endloop
  endfacet
  facet normal -6.310879e-001 0.000000e+000 -7.757113e-001
    outer loop
      vertex   1.441701e+000 0.000000e+000 2.042425e+000
      vertex   1.441701e+000 4.000000e+000 2.042425e+000
      vertex   1.706383e+000 0.000000e+000 1.827090e+000
    endloop
  endfacet
  facet normal -7.308360e-001 1.072094e-017 -6.825531e-001
    outer loop
      vertex   1.706383e+000 0.000000e+000 1.827090e+000
      vertex   1.706383e+000 4.000000e+000 1.827090e+000
      vertex   1.939278e+000 0.000000e+000 1.577720e+000
    endloop
  endfacet
  facet normal -8.169699e-001 0.000000e+000 -5.766803e-001
    outer loop
      vertex   1.939278e+000 0.000000e+000 1.577720e+000
      vertex   1.939278e+000 4.000000e+000 1.577720e+000
      vertex   2.136049e+000 0.000000e+000 1.298960e+000
    endloop
  endfacet
  facet normal -8.878852e-001 0.000000e+000 -4.600650e-001
    outer loop
      vertex   2.136049e+000 0.000000e+000 1.298960e+000
      vertex   2.136049e+000 4.000000e+000 1.298960e+000
      vertex   2.293028e+000 0.000000e+000 9.960027e-001
    endloop
  endfacet
  facet normal -9.422609e-001 1.255710e-016 -3.348796e-001
    outer loop
      vertex   2.293028e+000 0.000000e+000 9.960027e-001
      vertex   2.293028e+000 4.000000e+000 9.960027e-001
      vertex   2.407293e+000 0.000000e+000 6.744919e-001
    endloop
  endfacet
  facet normal -9.790841e-001 0.000000e+000 -2.034560e-001
    outer loop
      vertex   2.407293e+000 0.000000e+000 6.744919e-001
      vertex   2.407293e+000 4.000000e+000 6.744919e-001
      vertex   2.476715e+000 0.000000e+000 3.404166e-001
    endloop
  endfacet
  facet normal -9.976688e-001 -1.894107e-017 -6.824241e-002
    outer loop
      vertex   2.476715e+000 0.000000e+000 3.404166e-001
      vertex   2.476715e+000 4.000000e+000 3.404166e-001
      vertex   2.500000e+000 0.000000e+000 3.061617e-016
    endloop
  endfacet
  facet normal -9.997578e-001 0.000000e+000 -2.200725e-002
    outer loop
      vertex   4.800000e+000 6.000000e+000 1.590000e+001
      vertex   5.500000e+000 6.000000e+000 -1.590000e+001
      vertex   4.800000e+000 4.000000e+000 1.590000e+001
    endloop
  endfacet
  facet normal -9.997578e-001 -0.000000e+000 -2.200725e-002
    outer loop
      vertex   4.800000e+000 4.000000e+000 1.590000e+001
      vertex   5.500000e+000 6.000000e+000 -1.590000e+001
      vertex   5.500000e+000 4.000000e+000 -1.590000e+001
    endloop
  endfacet
  facet normal 9.997578e-001 0.000000e+000 -2.200725e-002
    outer loop
      vertex   -5.500000e+000 6.000000e+000 -1.590000e+001
      vertex   -4.800000e+000 6.000000e+000 1.590000e+001
      vertex   -5.500000e+000 4.000000e+000 -1.590000e+001
    endloop
  endfacet
  facet normal 9.997578e-001 0.000000e+000 -2.200725e-002
    outer loop
      vertex   -5.500000e+000 4.000000e+000 -1.590000e+001
      vertex   -4.800000e+000 6.000000e+000 1.590000e+001
      vertex   -4.800000e+000 4.000000e+000 1.590000e+001
    endloop
  endfacet
  facet normal -0.000000e+000 1.000000e+000 0.000000e+000
    outer loop
      vertex   2.476715e+000 4.000000e+000 3.404166e-001
      vertex   4.800000e+000 4.000000e+000 1.590000e+001
      vertex   2.500000e+000 4.000000e+000 3.061617e-016
    endloop
  endfacet
  facet normal 0.000000e+000 1.000000e+000 -0.000000e+000
    outer loop
      vertex   2.476715e+000 4.000000e+000 3.404166e-001
      vertex   2.407293e+000 4.000000e+000 6.744919e-001
      vertex   4.800000e+000 4.000000e+000 1.590000e+001
    endloop
  endfacet
  facet normal 0.000000e+000 1.000000e+000 0.000000e+000
    outer loop
      vertex   4.800000e+000 4.000000e+000 1.590000e+001
      vertex   2.407293e+000 4.000000e+000 6.744919e-001
      vertex   2.293028e+000 4.000000e+000 9.960027e-001
    endloop
  endfacet
  facet normal -0.000000e+000 1.000000e+000 0.000000e+000
    outer loop
      vertex   2.136049e+000 4.000000e+000 1.298960e+000
      vertex   4.800000e+000 4.000000e+000 1.590000e+001
      vertex   2.293028e+000 4.000000e+000 9.960027e-001
    endloop
  endfacet
  facet normal 0.000000e+000 1.000000e+000 -0.000000e+000
    outer loop
      vertex   2.136049e+000 4.000000e+000 1.298960e+000
      vertex   1.939278e+000 4.000000e+000 1.577720e+000
      vertex   4.800000e+000 4.000000e+000 1.590000e+001
    endloop
  endfacet
  facet normal 0.000000e+000 1.000000e+000 0.000000e+000
    outer loop
      vertex   4.800000e+000 4.000000e+000 1.590000e+001
      vertex   1.939278e+000 4.000000e+000 1.577720e+000
      vertex   1.706383e+000 4.000000e+000 1.827090e+000
    endloop
  endfacet
  facet normal -0.000000e+000 1.000000e+000 0.000000e+000
    outer loop
      vertex   1.441701e+000 4.000000e+000 2.042425e+000
      vertex   4.800000e+000 4.000000e+000 1.590000e+001
      vertex   1.706383e+000 4.000000e+000 1.827090e+000
    endloop
  endfacet
  facet normal 0.000000e+000 1.000000e+000 -0.000000e+000
    outer loop
      vertex   1.441701e+000 4.000000e+000 2.042425e+000
      vertex   1.150163e+000 4.000000e+000 2.219713e+000
      vertex   4.800000e+000 4.000000e+000 1.590000e+001
    endloop
  endfacet
  facet normal 0.000000e+000 1.000000e+000 0.000000e+000
    outer loop
      vertex   4.800000e+000 4.000000e+000 1.590000e+001
      vertex   1.150163e+000 4.000000e+000 2.219713e+000
      vertex   8.371990e-001 4.000000e+000 2.355652e+000
    endloop
  endfacet
  facet normal -0.000000e+000 1.000000e+000 0.000000e+000
    outer loop
      vertex   5.086400e-001 4.000000e+000 2.447710e+000
      vertex   4.800000e+000 4.000000e+000 1.590000e+001
      vertex   8.371990e-001 4.000000e+000 2.355652e+000
    endloop
  endfacet
  facet normal 0.000000e+000 1.000000e+000 -0.000000e+000
    outer loop
      vertex   5.086400e-001 4.000000e+000 2.447710e+000
      vertex   1.706060e-001 4.000000e+000 2.494172e+000
      vertex   4.800000e+000 4.000000e+000 1.590000e+001
    endloop
  endfacet
  facet normal 0.000000e+000 1.000000e+000 0.000000e+000
    outer loop
      vertex   4.800000e+000 4.000000e+000 1.590000e+001
      vertex   1.706060e-001 4.000000e+000 2.494172e+000
      vertex   -4.800000e+000 4.000000e+000 1.590000e+001
    endloop
  endfacet
  facet normal 0.000000e+000 1.000000e+000 0.000000e+000
    outer loop
      vertex   -4.800000e+000 4.000000e+000 1.590000e+001
      vertex   1.706060e-001 4.000000e+000 2.494172e+000
      vertex   -1.706060e-001 4.000000e+000 2.494172e+000
    endloop
  endfacet
  facet normal -0.000000e+000 1.000000e+000 -0.000000e+000
    outer loop
      vertex   -5.086400e-001 4.000000e+000 2.447710e+000
      vertex   -4.800000e+000 4.000000e+000 1.590000e+001
      vertex   -1.706060e-001 4.000000e+000 2.494172e+000
    endloop
  endfacet
  facet normal 0.000000e+000 1.000000e+000 0.000000e+000
    outer loop
      vertex   -5.086400e-001 4.000000e+000 2.447710e+000
      vertex   -8.371990e-001 4.000000e+000 2.355652e+000
      vertex   -4.800000e+000 4.000000e+000 1.590000e+001
    endloop
  endfacet
  facet normal 0.000000e+000 1.000000e+000 0.000000e+000
    outer loop
      vertex   -4.800000e+000 4.000000e+000 1.590000e+001
      vertex   -8.371990e-001 4.000000e+000 2.355652e+000
      vertex   -1.150163e+000 4.000000e+000 2.219713e+000
    endloop
  endfacet
  facet normal -0.000000e+000 1.000000e+000 -0.000000e+000
    outer loop
      vertex   -1.441701e+000 4.000000e+000 2.042425e+000
      vertex   -4.800000e+000 4.000000e+000 1.590000e+001
      vertex   -1.150163e+000 4.000000e+000 2.219713e+000
    endloop
  endfacet
  facet normal 0.000000e+000 1.000000e+000 0.000000e+000
    outer loop
      vertex   -1.441701e+000 4.000000e+000 2.042425e+000
      vertex   -1.706383e+000 4.000000e+000 1.827090e+000
      vertex   -4.800000e+000 4.000000e+000 1.590000e+001
    endloop
  endfacet
  facet normal 0.000000e+000 1.000000e+000 0.000000e+000
    outer loop
      vertex   -4.800000e+000 4.000000e+000 1.590000e+001
      vertex   -1.706383e+000 4.000000e+000 1.827090e+000
      vertex   -1.939278e+000 4.000000e+000 1.577720e+000
    endloop
  endfacet
  facet normal -0.000000e+000 1.000000e+000 -0.000000e+000
    outer loop
      vertex   -2.136049e+000 4.000000e+000 1.298960e+000
      vertex   -4.800000e+000 4.000000e+000 1.590000e+001
      vertex   -1.939278e+000 4.000000e+000 1.577720e+000
    endloop
  endfacet
  facet normal 0.000000e+000 1.000000e+000 0.000000e+000
    outer loop
      vertex   -2.136049e+000 4.000000e+000 1.298960e+000
      vertex   -2.293028e+000 4.000000e+000 9.960027e-001
      vertex   -4.800000e+000 4.000000e+000 1.590000e+001
    endloop
  endfacet
  facet normal 0.000000e+000 1.000000e+000 0.000000e+000
    outer loop
      vertex   -4.800000e+000 4.000000e+000 1.590000e+001
      vertex   -2.293028e+000 4.000000e+000 9.960027e-001
      vertex   -2.407293e+000 4.000000e+000 6.744919e-001
    endloop
  endfacet
  facet normal -0.000000e+000 1.000000e+000 -0.000000e+000
    outer loop
      vertex   -2.476715e+000 4.000000e+000 3.404166e-001
      vertex   -4.800000e+000 4.000000e+000 1.590000e+001
      vertex   -2.407293e+000 4.000000e+000 6.744919e-001
    endloop
  endfacet
  facet normal 0.000000e+000 1.000000e+000 0.000000e+000
    outer loop
      vertex   -2.476715e+000 4.000000e+000 3.404166e-001
      vertex   -2.500000e+000 4.000000e+000 0.000000e+000
      vertex   -4.800000e+000 4.000000e+000 1.590000e+001
    endloop
  endfacet
  facet normal 0.000000e+000 1.000000e+000 0.000000e+000
    outer loop
      vertex   -4.800000e+000 4.000000e+000 1.590000e+001
      vertex   -2.500000e+000 4.000000e+000 0.000000e+000
      vertex   -5.500000e+000 4.000000e+000 -1.590000e+001
    endloop
  endfacet
  facet normal -0.000000e+000 1.000000e+000 0.000000e+000
    outer loop
      vertex   -5.500000e+000 4.000000e+000 -1.590000e+001
      vertex   -2.500000e+000 4.000000e+000 0.000000e+000
      vertex   -2.476715e+000 4.000000e+000 -3.404166e-001
    endloop
  endfacet
  facet normal 0.000000e+000 1.000000e+000 -0.000000e+000
    outer loop
      vertex   -2.407293e+000 4.000000e+000 -6.744919e-001
      vertex   -5.500000e+000 4.000000e+000 -1.590000e+001
      vertex   -2.476715e+000 4.000000e+000 -3.404166e-001
    endloop
  endfacet
  facet normal 0.000000e+000 1.000000e+000 0.000000e+000
    outer loop
      vertex   -2.407293e+000 4.000000e+000 -6.744919e-001
      vertex   -2.293028e+000 4.000000e+000 -9.960027e-001
      vertex   -5.500000e+000 4.000000e+000 -1.590000e+001
    endloop
  endfacet
  facet normal -0.000000e+000 1.000000e+000 0.000000e+000
    outer loop
      vertex   -5.500000e+000 4.000000e+000 -1.590000e+001
      vertex   -2.293028e+000 4.000000e+000 -9.960027e-001
      vertex   -2.136049e+000 4.000000e+000 -1.298960e+000
    endloop
  endfacet
  facet normal 0.000000e+000 1.000000e+000 -0.000000e+000
    outer loop
      vertex   -1.939278e+000 4.000000e+000 -1.577720e+000
      vertex   -5.500000e+000 4.000000e+000 -1.590000e+001
      vertex   -2.136049e+000 4.000000e+000 -1.298960e+000
    endloop
  endfacet
  facet normal 0.000000e+000 1.000000e+000 0.000000e+000
    outer loop
      vertex   -1.939278e+000 4.000000e+000 -1.577720e+000
      vertex   -1.706383e+000 4.000000e+000 -1.827090e+000
      vertex   -5.500000e+000 4.000000e+000 -1.590000e+001
    endloop
  endfacet
  facet normal -0.000000e+000 1.000000e+000 0.000000e+000
    outer loop
      vertex   -5.500000e+000 4.000000e+000 -1.590000e+001
      vertex   -1.706383e+000 4.000000e+000 -1.827090e+000
      vertex   -1.441701e+000 4.000000e+000 -2.042425e+000
    endloop
  endfacet
  facet normal 0.000000e+000 1.000000e+000 -0.000000e+000
    outer loop
      vertex   -1.150163e+000 4.000000e+000 -2.219713e+000
      vertex   -5.500000e+000 4.000000e+000 -1.590000e+001
      vertex   -1.441701e+000 4.000000e+000 -2.042425e+000
    endloop
  endfacet
  facet normal 0.000000e+000 1.000000e+000 0.000000e+000
    outer loop
      vertex   -1.150163e+000 4.000000e+000 -2.219713e+000
      vertex   -8.371990e-001 4.000000e+000 -2.355652e+000
      vertex   -5.500000e+000 4.000000e+000 -1.590000e+001
    endloop
  endfacet
  facet normal -0.000000e+000 1.000000e+000 0.000000e+000
    outer loop
      vertex   -5.500000e+000 4.000000e+000 -1.590000e+001
      vertex   -8.371990e-001 4.000000e+000 -2.355652e+000
      vertex   -5.086400e-001 4.000000e+000 -2.447710e+000
    endloop
  endfacet
  facet normal 0.000000e+000 1.000000e+000 -0.000000e+000
    outer loop
      vertex   -1.706060e-001 4.000000e+000 -2.494172e+000
      vertex   -5.500000e+000 4.000000e+000 -1.590000e+001
      vertex   -5.086400e-001 4.000000e+000 -2.447710e+000
    endloop
  endfacet
  facet normal -0.000000e+000 1.000000e+000 0.000000e+000
    outer loop
      vertex   -1.706060e-001 4.000000e+000 -2.494172e+000
      vertex   1.706060e-001 4.000000e+000 -2.494172e+000
      vertex   -5.500000e+000 4.000000e+000 -1.590000e+001
    endloop
  endfacet
  facet normal -0.000000e+000 1.000000e+000 0.000000e+000
    outer loop
      vertex   -5.500000e+000 4.000000e+000 -1.590000e+001
      vertex   1.706060e-001 4.000000e+000 -2.494172e+000
      vertex   5.500000e+000 4.000000e+000 -1.590000e+001
    endloop
  endfacet
  facet normal 0.000000e+000 1.000000e+000 -0.000000e+000
    outer loop
      vertex   5.500000e+000 4.000000e+000 -1.590000e+001
      vertex   1.706060e-001 4.000000e+000 -2.494172e+000
      vertex   5.086400e-001 4.000000e+000 -2.447710e+000
    endloop
  endfacet
  facet normal 0.000000e+000 1.000000e+000 0.000000e+000
    outer loop
      vertex   8.371990e-001 4.000000e+000 -2.355652e+000
      vertex   5.500000e+000 4.000000e+000 -1.590000e+001
      vertex   5.086400e-001 4.000000e+000 -2.447710e+000
    endloop
  endfacet
  facet normal -0.000000e+000 1.000000e+000 0.000000e+000
    outer loop
      vertex   8.371990e-001 4.000000e+000 -2.355652e+000
      vertex   1.150163e+000 4.000000e+000 -2.219713e+000
      vertex   5.500000e+000 4.000000e+000 -1.590000e+001
    endloop
  endfacet
  facet normal 0.000000e+000 1.000000e+000 -0.000000e+000
    outer loop
      vertex   5.500000e+000 4.000000e+000 -1.590000e+001
      vertex   1.150163e+000 4.000000e+000 -2.219713e+000
      vertex   1.441701e+000 4.000000e+000 -2.042425e+000
    endloop
  endfacet
  facet normal 0.000000e+000 1.000000e+000 0.000000e+000
    outer loop
      vertex   1.706383e+000 4.000000e+000 -1.827090e+000
      vertex   5.500000e+000 4.000000e+000 -1.590000e+001
      vertex   1.441701e+000 4.000000e+000 -2.042425e+000
    endloop
  endfacet
  facet normal -0.000000e+000 1.000000e+000 0.000000e+000
    outer loop
      vertex   1.706383e+000 4.000000e+000 -1.827090e+000
      vertex   1.939278e+000 4.000000e+000 -1.577720e+000
      vertex   5.500000e+000 4.000000e+000 -1.590000e+001
    endloop
  endfacet
  facet normal 0.000000e+000 1.000000e+000 -0.000000e+000
    outer loop
      vertex   5.500000e+000 4.000000e+000 -1.590000e+001
      vertex   1.939278e+000 4.000000e+000 -1.577720e+000
      vertex   2.136049e+000 4.000000e+000 -1.298960e+000
    endloop
  endfacet
  facet normal 0.000000e+000 1.000000e+000 0.000000e+000
    outer loop
      vertex   2.293028e+000 4.000000e+000 -9.960027e-001
      vertex   5.500000e+000 4.000000e+000 -1.590000e+001
      vertex   2.136049e+000 4.000000e+000 -1.298960e+000
    endloop
  endfacet
  facet normal -0.000000e+000 1.000000e+000 0.000000e+000
    outer loop
      vertex   2.293028e+000 4.000000e+000 -9.960027e-001
      vertex   2.407293e+000 4.000000e+000 -6.744919e-001
      vertex   5.500000e+000 4.000000e+000 -1.590000e+001
    endloop
  endfacet
  facet normal 0.000000e+000 1.000000e+000 -0.000000e+000
    outer loop
      vertex   5.500000e+000 4.000000e+000 -1.590000e+001
      vertex   2.407293e+000 4.000000e+000 -6.744919e-001
      vertex   2.476715e+000 4.000000e+000 -3.404166e-001
    endloop
  endfacet
  facet normal 0.000000e+000 1.000000e+000 0.000000e+000
    outer loop
      vertex   2.500000e+000 4.000000e+000 3.061617e-016
      vertex   5.500000e+000 4.000000e+000 -1.590000e+001
      vertex   2.476715e+000 4.000000e+000 -3.404166e-001
    endloop
  endfacet
  facet normal -0.000000e+000 1.000000e+000 0.000000e+000
    outer loop
      vertex   2.500000e+000 4.000000e+000 3.061617e-016
      vertex   4.800000e+000 4.000000e+000 1.590000e+001
      vertex   5.500000e+000 4.000000e+000 -1.590000e+001
    endloop
  endfacet
  facet normal 0.000000e+000 1.000000e+000 0.000000e+000
    outer loop
      vertex   -4.800000e+000 6.000000e+000 1.590000e+001
      vertex   -5.500000e+000 6.000000e+000 -1.590000e+001
      vertex   -7.980000e+000 6.000000e+000 1.590000e+001
    endloop
  endfacet
  facet normal 0.000000e+000 1.000000e+000 0.000000e+000
    outer loop
      vertex   -7.980000e+000 6.000000e+000 1.590000e+001
      vertex   -5.500000e+000 6.000000e+000 -1.590000e+001
      vertex   -7.980000e+000 6.000000e+000 -1.590000e+001
    endloop
  endfacet
  facet normal -0.000000e+000 1.000000e+000 0.000000e+000
    outer loop
      vertex   4.800000e+000 6.000000e+000 1.590000e+001
      vertex   7.980000e+000 6.000000e+000 1.590000e+001
      vertex   5.500000e+000 6.000000e+000 -1.590000e+001
    endloop
  endfacet
  facet normal -0.000000e+000 1.000000e+000 0.000000e+000
    outer loop
      vertex   5.500000e+000 6.000000e+000 -1.590000e+001
      vertex   7.980000e+000 6.000000e+000 1.590000e+001
      vertex   7.980000e+000 6.000000e+000 -1.590000e+001
    endloop
  endfacet
  facet normal -5.586028e-016 0.000000e+000 1.000000e+000
    outer loop
      vertex   4.800000e+000 6.000000e+000 1.590000e+001
      vertex   4.800000e+000 4.000000e+000 1.590000e+001
      vertex   7.980000e+000 6.000000e+000 1.590000e+001
    endloop
  endfacet
  facet normal -5.586028e-016 1.908227e-031 1.000000e+000
    outer loop
      vertex   7.980000e+000 6.000000e+000 1.590000e+001
      vertex   4.800000e+000 4.000000e+000 1.590000e+001
      vertex   7.980000e+000 8.000000e-001 1.590000e+001
    endloop
  endfacet
  facet normal 1.850372e-016 7.389922e-016 1.000000e+000
    outer loop
      vertex   7.980000e+000 8.000000e-001 1.590000e+001
      vertex   4.800000e+000 4.000000e+000 1.590000e+001
      vertex   -4.800000e+000 4.000000e+000 1.590000e+001
    endloop
  endfacet
  facet normal 0.000000e+000 -0.000000e+000 1.000000e+000
    outer loop
      vertex   -7.980000e+000 8.000000e-001 1.590000e+001
      vertex   -4.800000e+000 4.000000e+000 1.590000e+001
      vertex   -7.980000e+000 6.000000e+000 1.590000e+001
    endloop
  endfacet
  facet normal 0.000000e+000 -0.000000e+000 1.000000e+000
    outer loop
      vertex   -7.980000e+000 8.000000e-001 1.590000e+001
      vertex   7.980000e+000 8.000000e-001 1.590000e+001
      vertex   -4.800000e+000 4.000000e+000 1.590000e+001
    endloop
  endfacet
  facet normal -0.000000e+000 -0.000000e+000 1.000000e+000
    outer loop
      vertex   -7.980000e+000 8.000000e-001 1.590000e+001
      vertex   9.780000e+000 -2.465190e-031 1.590000e+001
      vertex   7.980000e+000 8.000000e-001 1.590000e+001
    endloop
  endfacet
  facet normal 0.000000e+000 0.000000e+000 1.000000e+000
    outer loop
      vertex   -7.980000e+000 8.000000e-001 1.590000e+001
      vertex   -9.780000e+000 0.000000e+000 1.590000e+001
      vertex   9.780000e+000 -2.465190e-031 1.590000e+001
    endloop
  endfacet
  facet normal 0.000000e+000 0.000000e+000 1.000000e+000
    outer loop
      vertex   -7.980000e+000 8.000000e-001 1.590000e+001
      vertex   -9.780000e+000 8.000000e-001 1.590000e+001
      vertex   -9.780000e+000 0.000000e+000 1.590000e+001
    endloop
  endfacet
  facet normal 0.000000e+000 -0.000000e+000 1.000000e+000
    outer loop
      vertex   -4.800000e+000 4.000000e+000 1.590000e+001
      vertex   -4.800000e+000 6.000000e+000 1.590000e+001
      vertex   -7.980000e+000 6.000000e+000 1.590000e+001
    endloop
  endfacet
  facet normal 0.000000e+000 -0.000000e+000 1.000000e+000
    outer loop
      vertex   9.780000e+000 -2.465190e-031 1.590000e+001
      vertex   9.780000e+000 8.000000e-001 1.590000e+001
      vertex   7.980000e+000 8.000000e-001 1.590000e+001
    endloop
  endfacet
  facet normal 0.000000e+000 -0.000000e+000 -1.000000e+000
    outer loop
      vertex   5.500000e+000 6.000000e+000 -1.590000e+001
      vertex   7.980000e+000 6.000000e+000 -1.590000e+001
      vertex   5.500000e+000 4.000000e+000 -1.590000e+001
    endloop
  endfacet
  facet normal 5.509792e-016 -6.832142e-016 -1.000000e+000
    outer loop
      vertex   5.500000e+000 4.000000e+000 -1.590000e+001
      vertex   7.980000e+000 6.000000e+000 -1.590000e+001
      vertex   7.980000e+000 8.000000e-001 -1.590000e+001
    endloop
  endfacet
  facet normal 0.000000e+000 -4.440892e-015 -1.000000e+000
    outer loop
      vertex   -7.980000e+000 8.000000e-001 -1.590000e+001
      vertex   7.980000e+000 8.000000e-001 -1.590000e+001
      vertex   -9.780000e+000 0.000000e+000 -1.590000e+001
    endloop
  endfacet
  facet normal -1.973730e-015 0.000000e+000 -1.000000e+000
    outer loop
      vertex   -9.780000e+000 8.000000e-001 -1.590000e+001
      vertex   -7.980000e+000 8.000000e-001 -1.590000e+001
      vertex   -9.780000e+000 0.000000e+000 -1.590000e+001
    endloop
  endfacet
  facet normal -1.973730e-015 -0.000000e+000 -1.000000e+000
    outer loop
      vertex   9.780000e+000 8.000000e-001 -1.590000e+001
      vertex   9.780000e+000 -2.465190e-031 -1.590000e+001
      vertex   7.980000e+000 8.000000e-001 -1.590000e+001
    endloop
  endfacet
  facet normal -3.632632e-016 3.623550e-015 -1.000000e+000
    outer loop
      vertex   7.980000e+000 8.000000e-001 -1.590000e+001
      vertex   9.780000e+000 -2.465190e-031 -1.590000e+001
      vertex   -9.780000e+000 0.000000e+000 -1.590000e+001
    endloop
  endfacet
  facet normal 0.000000e+000 -0.000000e+000 -1.000000e+000
    outer loop
      vertex   -7.980000e+000 6.000000e+000 -1.590000e+001
      vertex   -5.500000e+000 4.000000e+000 -1.590000e+001
      vertex   -7.980000e+000 8.000000e-001 -1.590000e+001
    endloop
  endfacet
  facet normal -7.162729e-016 -8.881784e-016 -1.000000e+000
    outer loop
      vertex   -7.980000e+000 6.000000e+000 -1.590000e+001
      vertex   -5.500000e+000 6.000000e+000 -1.590000e+001
      vertex   -5.500000e+000 4.000000e+000 -1.590000e+001
    endloop
  endfacet
  facet normal -3.229740e-016 2.503048e-016 -1.000000e+000
    outer loop
      vertex   -5.500000e+000 4.000000e+000 -1.590000e+001
      vertex   5.500000e+000 4.000000e+000 -1.590000e+001
      vertex   -7.980000e+000 8.000000e-001 -1.590000e+001
    endloop
  endfacet
  facet normal 0.000000e+000 -1.110223e-015 -1.000000e+000
    outer loop
      vertex   -7.980000e+000 8.000000e-001 -1.590000e+001
      vertex   5.500000e+000 4.000000e+000 -1.590000e+001
      vertex   7.980000e+000 8.000000e-001 -1.590000e+001
    endloop
  endfacet
  facet normal -2.946118e-032 -1.000000e+000 2.015200e-033
    outer loop
      vertex   2.476715e+000 0.000000e+000 -3.404166e-001
      vertex   9.780000e+000 -2.465190e-031 -1.590000e+001
      vertex   2.500000e+000 0.000000e+000 3.061617e-016
    endloop
  endfacet
  facet normal -2.339644e-032 -1.000000e+000 4.861836e-033
    outer loop
      vertex   2.476715e+000 0.000000e+000 -3.404166e-001
      vertex   2.407293e+000 0.000000e+000 -6.744919e-001
      vertex   9.780000e+000 -2.465190e-031 -1.590000e+001
    endloop
  endfacet
  facet normal -1.928362e-032 -1.000000e+000 6.853402e-033
    outer loop
      vertex   9.780000e+000 -2.465190e-031 -1.590000e+001
      vertex   2.407293e+000 0.000000e+000 -6.744919e-001
      vertex   2.293028e+000 0.000000e+000 -9.960027e-001
    endloop
  endfacet
  facet normal -1.620812e-032 -1.000000e+000 8.398371e-033
    outer loop
      vertex   2.136049e+000 0.000000e+000 -1.298960e+000
      vertex   9.780000e+000 -2.465190e-031 -1.590000e+001
      vertex   2.293028e+000 0.000000e+000 -9.960027e-001
    endloop
  endfacet
  facet normal -1.373328e-032 -1.000000e+000 9.694004e-033
    outer loop
      vertex   2.136049e+000 0.000000e+000 -1.298960e+000
      vertex   1.939278e+000 0.000000e+000 -1.577720e+000
      vertex   9.780000e+000 -2.465190e-031 -1.590000e+001
    endloop
  endfacet
  facet normal -1.161905e-032 -1.000000e+000 1.085144e-032
    outer loop
      vertex   9.780000e+000 -2.465190e-031 -1.590000e+001
      vertex   1.939278e+000 0.000000e+000 -1.577720e+000
      vertex   1.706383e+000 0.000000e+000 -1.827090e+000
    endloop
  endfacet
  facet normal -9.716358e-033 -1.000000e+000 1.194301e-032
    outer loop
      vertex   1.441701e+000 0.000000e+000 -2.042425e+000
      vertex   9.780000e+000 -2.465190e-031 -1.590000e+001
      vertex   1.706383e+000 0.000000e+000 -1.827090e+000
    endloop
  endfacet
  facet normal -7.920008e-033 -1.000000e+000 1.302390e-032
    outer loop
      vertex   1.441701e+000 0.000000e+000 -2.042425e+000
      vertex   1.150163e+000 0.000000e+000 -2.219713e+000
      vertex   9.780000e+000 -2.465190e-031 -1.590000e+001
    endloop
  endfacet
  facet normal -6.143774e-033 -1.000000e+000 1.414439e-032
    outer loop
      vertex   9.780000e+000 -2.465190e-031 -1.590000e+001
      vertex   1.150163e+000 0.000000e+000 -2.219713e+000
      vertex   8.371990e-001 0.000000e+000 -2.355652e+000
    endloop
  endfacet
  facet normal -4.303513e-033 -1.000000e+000 1.535944e-032
    outer loop
      vertex   5.086400e-001 0.000000e+000 -2.447710e+000
      vertex   9.780000e+000 -2.465190e-031 -1.590000e+001
      vertex   8.371990e-001 0.000000e+000 -2.355652e+000
    endloop
  endfacet
  facet normal -2.300819e-033 -1.000000e+000 1.673970e-032
    outer loop
      vertex   5.086400e-001 0.000000e+000 -2.447710e+000
      vertex   1.706060e-001 0.000000e+000 -2.494172e+000
      vertex   9.780000e+000 -2.465190e-031 -1.590000e+001
    endloop
  endfacet
  facet normal -1.260322e-032 -1.000000e+000 9.354864e-033
    outer loop
      vertex   9.780000e+000 -2.465190e-031 -1.590000e+001
      vertex   1.706060e-001 0.000000e+000 -2.494172e+000
      vertex   -9.780000e+000 0.000000e+000 -1.590000e+001
    endloop
  endfacet
  facet normal 0.000000e+000 -1.000000e+000 0.000000e+000
    outer loop
      vertex   -9.780000e+000 0.000000e+000 -1.590000e+001
      vertex   1.706060e-001 0.000000e+000 -2.494172e+000
      vertex   -1.706060e-001 0.000000e+000 -2.494172e+000
    endloop
  endfacet
  facet normal 0.000000e+000 -1.000000e+000 -0.000000e+000
    outer loop
      vertex   -5.086400e-001 0.000000e+000 -2.447710e+000
      vertex   -9.780000e+000 0.000000e+000 -1.590000e+001
      vertex   -1.706060e-001 0.000000e+000 -2.494172e+000
    endloop
  endfacet
  facet normal -0.000000e+000 -1.000000e+000 0.000000e+000
    outer loop
      vertex   -5.086400e-001 0.000000e+000 -2.447710e+000
      vertex   -8.371990e-001 0.000000e+000 -2.355652e+000
      vertex   -9.780000e+000 0.000000e+000 -1.590000e+001
    endloop
  endfacet
  facet normal 0.000000e+000 -1.000000e+000 0.000000e+000
    outer loop
      vertex   -9.780000e+000 0.000000e+000 -1.590000e+001
      vertex   -8.371990e-001 0.000000e+000 -2.355652e+000
      vertex   -1.150163e+000 0.000000e+000 -2.219713e+000
    endloop
  endfacet
  facet normal 0.000000e+000 -1.000000e+000 -0.000000e+000
    outer loop
      vertex   -1.441701e+000 0.000000e+000 -2.042425e+000
      vertex   -9.780000e+000 0.000000e+000 -1.590000e+001
      vertex   -1.150163e+000 0.000000e+000 -2.219713e+000
    endloop
  endfacet
  facet normal -0.000000e+000 -1.000000e+000 0.000000e+000
    outer loop
      vertex   -1.441701e+000 0.000000e+000 -2.042425e+000
      vertex   -1.706383e+000 0.000000e+000 -1.827090e+000
      vertex   -9.780000e+000 0.000000e+000 -1.590000e+001
    endloop
  endfacet
  facet normal 0.000000e+000 -1.000000e+000 0.000000e+000
    outer loop
      vertex   -9.780000e+000 0.000000e+000 -1.590000e+001
      vertex   -1.706383e+000 0.000000e+000 -1.827090e+000
      vertex   -1.939278e+000 0.000000e+000 -1.577720e+000
    endloop
  endfacet
  facet normal 0.000000e+000 -1.000000e+000 -0.000000e+000
    outer loop
      vertex   -2.136049e+000 0.000000e+000 -1.298960e+000
      vertex   -9.780000e+000 0.000000e+000 -1.590000e+001
      vertex   -1.939278e+000 0.000000e+000 -1.577720e+000
    endloop
  endfacet
  facet normal -0.000000e+000 -1.000000e+000 0.000000e+000
    outer loop
      vertex   -2.136049e+000 0.000000e+000 -1.298960e+000
      vertex   -2.293028e+000 0.000000e+000 -9.960027e-001
      vertex   -9.780000e+000 0.000000e+000 -1.590000e+001
    endloop
  endfacet
  facet normal 0.000000e+000 -1.000000e+000 0.000000e+000
    outer loop
      vertex   -9.780000e+000 0.000000e+000 -1.590000e+001
      vertex   -2.293028e+000 0.000000e+000 -9.960027e-001
      vertex   -2.407293e+000 0.000000e+000 -6.744919e-001
    endloop
  endfacet
  facet normal 0.000000e+000 -1.000000e+000 -0.000000e+000
    outer loop
      vertex   -2.476715e+000 0.000000e+000 -3.404166e-001
      vertex   -9.780000e+000 0.000000e+000 -1.590000e+001
      vertex   -2.407293e+000 0.000000e+000 -6.744919e-001
    endloop
  endfacet
  facet normal -0.000000e+000 -1.000000e+000 0.000000e+000
    outer loop
      vertex   -2.476715e+000 0.000000e+000 -3.404166e-001
      vertex   -2.500000e+000 0.000000e+000 0.000000e+000
      vertex   -9.780000e+000 0.000000e+000 -1.590000e+001
    endloop
  endfacet
  facet normal 0.000000e+000 -1.000000e+000 0.000000e+000
    outer loop
      vertex   -9.780000e+000 0.000000e+000 -1.590000e+001
      vertex   -2.500000e+000 0.000000e+000 0.000000e+000
      vertex   -9.780000e+000 0.000000e+000 1.590000e+001
    endloop
  endfacet
  facet normal 0.000000e+000 -1.000000e+000 0.000000e+000
    outer loop
      vertex   -9.780000e+000 0.000000e+000 1.590000e+001
      vertex   -2.500000e+000 0.000000e+000 0.000000e+000
      vertex   -2.476715e+000 0.000000e+000 3.404166e-001
    endloop
  endfacet
  facet normal -0.000000e+000 -1.000000e+000 -0.000000e+000
    outer loop
      vertex   -2.407293e+000 0.000000e+000 6.744919e-001
      vertex   -9.780000e+000 0.000000e+000 1.590000e+001
      vertex   -2.476715e+000 0.000000e+000 3.404166e-001
    endloop
  endfacet
  facet normal 0.000000e+000 -1.000000e+000 0.000000e+000
    outer loop
      vertex   -2.407293e+000 0.000000e+000 6.744919e-001
      vertex   -2.293028e+000 0.000000e+000 9.960027e-001
      vertex   -9.780000e+000 0.000000e+000 1.590000e+001
    endloop
  endfacet
  facet normal 0.000000e+000 -1.000000e+000 0.000000e+000
    outer loop
      vertex   -9.780000e+000 0.000000e+000 1.590000e+001
      vertex   -2.293028e+000 0.000000e+000 9.960027e-001
      vertex   -2.136049e+000 0.000000e+000 1.298960e+000
    endloop
  endfacet
  facet normal -0.000000e+000 -1.000000e+000 -0.000000e+000
    outer loop
      vertex   -1.939278e+000 0.000000e+000 1.577720e+000
      vertex   -9.780000e+000 0.000000e+000 1.590000e+001
      vertex   -2.136049e+000 0.000000e+000 1.298960e+000
    endloop
  endfacet
  facet normal 0.000000e+000 -1.000000e+000 0.000000e+000
    outer loop
      vertex   -1.939278e+000 0.000000e+000 1.577720e+000
      vertex   -1.706383e+000 0.000000e+000 1.827090e+000
      vertex   -9.780000e+000 0.000000e+000 1.590000e+001
    endloop
  endfacet
  facet normal 0.000000e+000 -1.000000e+000 0.000000e+000
    outer loop
      vertex   -9.780000e+000 0.000000e+000 1.590000e+001
      vertex   -1.706383e+000 0.000000e+000 1.827090e+000
      vertex   -1.441701e+000 0.000000e+000 2.042425e+000
    endloop
  endfacet
  facet normal -0.000000e+000 -1.000000e+000 -0.000000e+000
    outer loop
      vertex   -1.150163e+000 0.000000e+000 2.219713e+000
      vertex   -9.780000e+000 0.000000e+000 1.590000e+001
      vertex   -1.441701e+000 0.000000e+000 2.042425e+000
    endloop
  endfacet
  facet normal 0.000000e+000 -1.000000e+000 0.000000e+000
    outer loop
      vertex   -1.150163e+000 0.000000e+000 2.219713e+000
      vertex   -8.371990e-001 0.000000e+000 2.355652e+000
      vertex   -9.780000e+000 0.000000e+000 1.590000e+001
    endloop
  endfacet
  facet normal 0.000000e+000 -1.000000e+000 0.000000e+000
    outer loop
      vertex   -9.780000e+000 0.000000e+000 1.590000e+001
      vertex   -8.371990e-001 0.000000e+000 2.355652e+000
      vertex   -5.086400e-001 0.000000e+000 2.447710e+000
    endloop
  endfacet
  facet normal -0.000000e+000 -1.000000e+000 -0.000000e+000
    outer loop
      vertex   -1.706060e-001 0.000000e+000 2.494172e+000
      vertex   -9.780000e+000 0.000000e+000 1.590000e+001
      vertex   -5.086400e-001 0.000000e+000 2.447710e+000
    endloop
  endfacet
  facet normal 0.000000e+000 -1.000000e+000 0.000000e+000
    outer loop
      vertex   -1.706060e-001 0.000000e+000 2.494172e+000
      vertex   1.706060e-001 0.000000e+000 2.494172e+000
      vertex   -9.780000e+000 0.000000e+000 1.590000e+001
    endloop
  endfacet
  facet normal -1.260322e-032 -1.000000e+000 -9.354864e-033
    outer loop
      vertex   -9.780000e+000 0.000000e+000 1.590000e+001
      vertex   1.706060e-001 0.000000e+000 2.494172e+000
      vertex   9.780000e+000 -2.465190e-031 1.590000e+001
    endloop
  endfacet
  facet normal -2.300819e-033 -1.000000e+000 -1.673970e-032
    outer loop
      vertex   9.780000e+000 -2.465190e-031 1.590000e+001
      vertex   1.706060e-001 0.000000e+000 2.494172e+000
      vertex   5.086400e-001 0.000000e+000 2.447710e+000
    endloop
  endfacet
  facet normal -4.303513e-033 -1.000000e+000 -1.535944e-032
    outer loop
      vertex   8.371990e-001 0.000000e+000 2.355652e+000
      vertex   9.780000e+000 -2.465190e-031 1.590000e+001
      vertex   5.086400e-001 0.000000e+000 2.447710e+000
    endloop
  endfacet
  facet normal -6.143774e-033 -1.000000e+000 -1.414439e-032
    outer loop
      vertex   8.371990e-001 0.000000e+000 2.355652e+000
      vertex   1.150163e+000 0.000000e+000 2.219713e+000
      vertex   9.780000e+000 -2.465190e-031 1.590000e+001
    endloop
  endfacet
  facet normal -7.920008e-033 -1.000000e+000 -1.302390e-032
    outer loop
      vertex   9.780000e+000 -2.465190e-031 1.590000e+001
      vertex   1.150163e+000 0.000000e+000 2.219713e+000
      vertex   1.441701e+000 0.000000e+000 2.042425e+000
    endloop
  endfacet
  facet normal -9.716358e-033 -1.000000e+000 -1.194301e-032
    outer loop
      vertex   1.706383e+000 0.000000e+000 1.827090e+000
      vertex   9.780000e+000 -2.465190e-031 1.590000e+001
      vertex   1.441701e+000 0.000000e+000 2.042425e+000
    endloop
  endfacet
  facet normal -1.161905e-032 -1.000000e+000 -1.085144e-032
    outer loop
      vertex   1.706383e+000 0.000000e+000 1.827090e+000
      vertex   1.939278e+000 0.000000e+000 1.577720e+000
      vertex   9.780000e+000 -2.465190e-031 1.590000e+001
    endloop
  endfacet
  facet normal -1.373328e-032 -1.000000e+000 -9.694004e-033
    outer loop
      vertex   9.780000e+000 -2.465190e-031 1.590000e+001
      vertex   1.939278e+000 0.000000e+000 1.577720e+000
      vertex   2.136049e+000 0.000000e+000 1.298960e+000
    endloop
  endfacet
  facet normal -1.620812e-032 -1.000000e+000 -8.398371e-033
    outer loop
      vertex   2.293028e+000 0.000000e+000 9.960027e-001
      vertex   9.780000e+000 -2.465190e-031 1.590000e+001
      vertex   2.136049e+000 0.000000e+000 1.298960e+000
    endloop
  endfacet
  facet normal -1.928362e-032 -1.000000e+000 -6.853402e-033
    outer loop
      vertex   2.293028e+000 0.000000e+000 9.960027e-001
      vertex   2.407293e+000 0.000000e+000 6.744919e-001
      vertex   9.780000e+000 -2.465190e-031 1.590000e+001
    endloop
  endfacet
  facet normal -2.339644e-032 -1.000000e+000 -4.861836e-033
    outer loop
      vertex   9.780000e+000 -2.465190e-031 1.590000e+001
      vertex   2.407293e+000 0.000000e+000 6.744919e-001
      vertex   2.476715e+000 0.000000e+000 3.404166e-001
    endloop
  endfacet
  facet normal -2.946118e-032 -1.000000e+000 -2.015200e-033
    outer loop
      vertex   2.500000e+000 0.000000e+000 3.061617e-016
      vertex   9.780000e+000 -2.465190e-031 1.590000e+001
      vertex   2.476715e+000 0.000000e+000 3.404166e-001
    endloop
  endfacet
  facet normal -3.386250e-032 -1.000000e+000 0.000000e+000
    outer loop
      vertex   2.500000e+000 0.000000e+000 3.061617e-016
      vertex   9.780000e+000 -2.465190e-031 -1.590000e+001
      vertex   9.780000e+000 -2.465190e-031 1.590000e+001
    endloop
  endfacet
endsolid
