solid ascii
  facet normal 1.000000e+000 0.000000e+000 -0.000000e+000
    outer loop
      vertex   -9.000000e+000 2.100000e+000 -1.598000e+001
      vertex   -9.000000e+000 2.100000e+000 1.698000e+001
      vertex   -9.000000e+000 1.000000e+000 -1.598000e+001
    endloop
  endfacet
  facet normal 1.000000e+000 0.000000e+000 -0.000000e+000
    outer loop
      vertex   -9.000000e+000 1.000000e+000 -1.598000e+001
      vertex   -9.000000e+000 2.100000e+000 1.698000e+001
      vertex   -9.000000e+000 1.000000e+000 1.698000e+001
    endloop
  endfacet
  facet normal -0.000000e+000 -1.000000e+000 0.000000e+000
    outer loop
      vertex   -8.000000e+000 2.100000e+000 -1.598000e+001
      vertex   -8.000000e+000 2.100000e+000 1.698000e+001
      vertex   -9.000000e+000 2.100000e+000 -1.598000e+001
    endloop
  endfacet
  facet normal 0.000000e+000 -1.000000e+000 0.000000e+000
    outer loop
      vertex   -9.000000e+000 2.100000e+000 -1.598000e+001
      vertex   -8.000000e+000 2.100000e+000 1.698000e+001
      vertex   -9.000000e+000 2.100000e+000 1.698000e+001
    endloop
  endfacet
  facet normal -0.000000e+000 -1.000000e+000 0.000000e+000
    outer loop
      vertex   9.000000e+000 2.100000e+000 -1.598000e+001
      vertex   9.000000e+000 2.100000e+000 1.698000e+001
      vertex   8.000000e+000 2.100000e+000 -1.598000e+001
    endloop
  endfacet
  facet normal 0.000000e+000 -1.000000e+000 0.000000e+000
    outer loop
      vertex   8.000000e+000 2.100000e+000 -1.598000e+001
      vertex   9.000000e+000 2.100000e+000 1.698000e+001
      vertex   8.000000e+000 2.100000e+000 1.698000e+001
    endloop
  endfacet
  facet normal -1.000000e+000 0.000000e+000 0.000000e+000
    outer loop
      vertex   9.000000e+000 1.000000e+000 -1.598000e+001
      vertex   9.000000e+000 1.000000e+000 1.698000e+001
      vertex   9.000000e+000 2.100000e+000 -1.598000e+001
    endloop
  endfacet
  facet normal -1.000000e+000 0.000000e+000 0.000000e+000
    outer loop
      vertex   9.000000e+000 2.100000e+000 -1.598000e+001
      vertex   9.000000e+000 1.000000e+000 1.698000e+001
      vertex   9.000000e+000 2.100000e+000 1.698000e+001
    endloop
  endfacet
  facet normal 1.000000e+000 -0.000000e+000 0.000000e+000
    outer loop
      vertex   -8.000000e+000 2.100000e+000 1.698000e+001
      vertex   -8.000000e+000 2.100000e+000 -1.598000e+001
      vertex   -8.000000e+000 3.000000e+000 1.698000e+001
    endloop
  endfacet
  facet normal 1.000000e+000 1.973730e-014 -5.389432e-016
    outer loop
      vertex   -8.000000e+000 3.000000e+000 1.698000e+001
      vertex   -8.000000e+000 2.100000e+000 -1.598000e+001
      vertex   -8.000000e+000 3.000000e+000 -1.598000e+001
    endloop
  endfacet
  facet normal -1.000000e+000 0.000000e+000 0.000000e+000
    outer loop
      vertex   8.000000e+000 2.100000e+000 -1.598000e+001
      vertex   8.000000e+000 2.100000e+000 1.698000e+001
      vertex   8.000000e+000 3.000000e+000 -1.598000e+001
    endloop
  endfacet
  facet normal -1.000000e+000 2.269789e-014 6.197847e-016
    outer loop
      vertex   8.000000e+000 3.000000e+000 -1.598000e+001
      vertex   8.000000e+000 2.100000e+000 1.698000e+001
      vertex   8.000000e+000 3.000000e+000 1.698000e+001
    endloop
  endfacet
  facet normal -9.975641e-001 0.000000e+000 6.975647e-002
    outer loop
      vertex   2.475670e+000 1.000000e+000 -3.479328e-001
      vertex   2.475670e+000 0.000000e+000 -3.479328e-001
      vertex   2.500000e+000 1.000000e+000 3.061617e-016
    endloop
  endfacet
  facet normal -9.781476e-001 0.000000e+000 2.079117e-001
    outer loop
      vertex   2.475670e+000 1.000000e+000 -3.479328e-001
      vertex   2.403154e+000 0.000000e+000 -6.890934e-001
      vertex   2.475670e+000 0.000000e+000 -3.479328e-001
    endloop
  endfacet
  facet normal -9.781476e-001 2.497221e-016 2.079117e-001
    outer loop
      vertex   2.475670e+000 1.000000e+000 -3.479328e-001
      vertex   2.403154e+000 1.000000e+000 -6.890934e-001
      vertex   2.403154e+000 0.000000e+000 -6.890934e-001
    endloop
  endfacet
  facet normal -9.396926e-001 1.135324e-016 3.420201e-001
    outer loop
      vertex   2.403154e+000 0.000000e+000 -6.890934e-001
      vertex   2.403154e+000 1.000000e+000 -6.890934e-001
      vertex   2.283864e+000 0.000000e+000 -1.016842e+000
    endloop
  endfacet
  facet normal -9.396926e-001 5.371548e-016 3.420201e-001
    outer loop
      vertex   2.283864e+000 0.000000e+000 -1.016842e+000
      vertex   2.403154e+000 1.000000e+000 -6.890934e-001
      vertex   2.283864e+000 1.000000e+000 -1.016842e+000
    endloop
  endfacet
  facet normal -8.829476e-001 0.000000e+000 4.694716e-001
    outer loop
      vertex   2.120120e+000 0.000000e+000 -1.324798e+000
      vertex   2.283864e+000 1.000000e+000 -1.016842e+000
      vertex   2.120120e+000 1.000000e+000 -1.324798e+000
    endloop
  endfacet
  facet normal -8.090170e-001 0.000000e+000 5.877853e-001
    outer loop
      vertex   1.915111e+000 0.000000e+000 -1.606969e+000
      vertex   2.120120e+000 1.000000e+000 -1.324798e+000
      vertex   1.915111e+000 1.000000e+000 -1.606969e+000
    endloop
  endfacet
  facet normal -7.193398e-001 0.000000e+000 6.946584e-001
    outer loop
      vertex   1.672827e+000 0.000000e+000 -1.857862e+000
      vertex   1.915111e+000 1.000000e+000 -1.606969e+000
      vertex   1.672827e+000 1.000000e+000 -1.857862e+000
    endloop
  endfacet
  facet normal -6.156615e-001 3.382086e-016 7.880108e-001
    outer loop
      vertex   1.397982e+000 0.000000e+000 -2.072594e+000
      vertex   1.672827e+000 1.000000e+000 -1.857862e+000
      vertex   1.397982e+000 1.000000e+000 -2.072594e+000
    endloop
  endfacet
  facet normal -5.000000e-001 0.000000e+000 8.660254e-001
    outer loop
      vertex   1.095928e+000 0.000000e+000 -2.246985e+000
      vertex   1.397982e+000 1.000000e+000 -2.072594e+000
      vertex   1.095928e+000 1.000000e+000 -2.246985e+000
    endloop
  endfacet
  facet normal -3.746066e-001 0.000000e+000 9.271839e-001
    outer loop
      vertex   7.725425e-001 0.000000e+000 -2.377641e+000
      vertex   1.095928e+000 1.000000e+000 -2.246985e+000
      vertex   7.725425e-001 1.000000e+000 -2.377641e+000
    endloop
  endfacet
  facet normal -2.419219e-001 2.984194e-016 9.702957e-001
    outer loop
      vertex   4.341204e-001 0.000000e+000 -2.462019e+000
      vertex   7.725425e-001 1.000000e+000 -2.377641e+000
      vertex   4.341204e-001 1.000000e+000 -2.462019e+000
    endloop
  endfacet
  facet normal -1.045285e-001 1.143941e-016 9.945219e-001
    outer loop
      vertex   8.724874e-002 0.000000e+000 -2.498477e+000
      vertex   4.341204e-001 1.000000e+000 -2.462019e+000
      vertex   8.724874e-002 1.000000e+000 -2.498477e+000
    endloop
  endfacet
  facet normal 3.489950e-002 -3.978925e-017 9.993908e-001
    outer loop
      vertex   -2.613212e-001 0.000000e+000 -2.486305e+000
      vertex   8.724874e-002 1.000000e+000 -2.498477e+000
      vertex   -2.613212e-001 1.000000e+000 -2.486305e+000
    endloop
  endfacet
  facet normal 1.736482e-001 -9.947312e-017 9.848078e-001
    outer loop
      vertex   -6.048047e-001 0.000000e+000 -2.425739e+000
      vertex   -2.613212e-001 1.000000e+000 -2.486305e+000
      vertex   -6.048047e-001 1.000000e+000 -2.425739e+000
    endloop
  endfacet
  facet normal 3.090170e-001 0.000000e+000 9.510565e-001
    outer loop
      vertex   -9.365165e-001 0.000000e+000 -2.317960e+000
      vertex   -6.048047e-001 1.000000e+000 -2.425739e+000
      vertex   -9.365165e-001 1.000000e+000 -2.317960e+000
    endloop
  endfacet
  facet normal 4.383711e-001 9.947312e-017 8.987940e-001
    outer loop
      vertex   -1.250000e+000 0.000000e+000 -2.165064e+000
      vertex   -9.365165e-001 1.000000e+000 -2.317960e+000
      vertex   -1.250000e+000 1.000000e+000 -2.165064e+000
    endloop
  endfacet
  facet normal 5.591929e-001 2.387355e-016 8.290376e-001
    outer loop
      vertex   -1.539154e+000 0.000000e+000 -1.970027e+000
      vertex   -1.250000e+000 1.000000e+000 -2.165064e+000
      vertex   -1.539154e+000 1.000000e+000 -1.970027e+000
    endloop
  endfacet
  facet normal 6.691306e-001 5.968387e-017 7.431448e-001
    outer loop
      vertex   -1.798350e+000 0.000000e+000 -1.736646e+000
      vertex   -1.539154e+000 1.000000e+000 -1.970027e+000
      vertex   -1.798350e+000 1.000000e+000 -1.736646e+000
    endloop
  endfacet
  facet normal 7.660444e-001 0.000000e+000 6.427876e-001
    outer loop
      vertex   -2.022542e+000 0.000000e+000 -1.469463e+000
      vertex   -1.798350e+000 1.000000e+000 -1.736646e+000
      vertex   -2.022542e+000 1.000000e+000 -1.469463e+000
    endloop
  endfacet
  facet normal 8.480481e-001 2.188409e-016 5.299193e-001
    outer loop
      vertex   -2.207369e+000 0.000000e+000 -1.173679e+000
      vertex   -2.022542e+000 1.000000e+000 -1.469463e+000
      vertex   -2.207369e+000 1.000000e+000 -1.173679e+000
    endloop
  endfacet
  facet normal 9.135455e-001 0.000000e+000 4.067366e-001
    outer loop
      vertex   -2.349232e+000 0.000000e+000 -8.550504e-001
      vertex   -2.207369e+000 1.000000e+000 -1.173679e+000
      vertex   -2.349232e+000 1.000000e+000 -8.550504e-001
    endloop
  endfacet
  facet normal 9.612617e-001 -1.193677e-016 2.756374e-001
    outer loop
      vertex   -2.445369e+000 0.000000e+000 -5.197792e-001
      vertex   -2.349232e+000 1.000000e+000 -8.550504e-001
      vertex   -2.445369e+000 1.000000e+000 -5.197792e-001
    endloop
  endfacet
  facet normal 9.902681e-001 0.000000e+000 1.391731e-001
    outer loop
      vertex   -2.493910e+000 0.000000e+000 -1.743912e-001
      vertex   -2.445369e+000 1.000000e+000 -5.197792e-001
      vertex   -2.493910e+000 1.000000e+000 -1.743912e-001
    endloop
  endfacet
  facet normal 1.000000e+000 -0.000000e+000 0.000000e+000
    outer loop
      vertex   -2.493910e+000 0.000000e+000 1.743912e-001
      vertex   -2.493910e+000 1.000000e+000 -1.743912e-001
      vertex   -2.493910e+000 1.000000e+000 1.743912e-001
    endloop
  endfacet
  facet normal 9.902681e-001 2.884720e-016 -1.391731e-001
    outer loop
      vertex   -2.445369e+000 0.000000e+000 5.197792e-001
      vertex   -2.493910e+000 1.000000e+000 1.743912e-001
      vertex   -2.445369e+000 1.000000e+000 5.197792e-001
    endloop
  endfacet
  facet normal 9.612617e-001 0.000000e+000 -2.756374e-001
    outer loop
      vertex   -2.349232e+000 0.000000e+000 8.550504e-001
      vertex   -2.445369e+000 1.000000e+000 5.197792e-001
      vertex   -2.349232e+000 1.000000e+000 8.550504e-001
    endloop
  endfacet
  facet normal 9.135455e-001 -5.968387e-017 -4.067366e-001
    outer loop
      vertex   -2.207369e+000 0.000000e+000 1.173679e+000
      vertex   -2.349232e+000 1.000000e+000 8.550504e-001
      vertex   -2.207369e+000 1.000000e+000 1.173679e+000
    endloop
  endfacet
  facet normal 8.480481e-001 0.000000e+000 -5.299193e-001
    outer loop
      vertex   -2.022542e+000 0.000000e+000 1.469463e+000
      vertex   -2.207369e+000 1.000000e+000 1.173679e+000
      vertex   -2.022542e+000 1.000000e+000 1.469463e+000
    endloop
  endfacet
  facet normal 7.660444e-001 7.957849e-017 -6.427876e-001
    outer loop
      vertex   -1.798350e+000 0.000000e+000 1.736646e+000
      vertex   -2.022542e+000 1.000000e+000 1.469463e+000
      vertex   -1.798350e+000 1.000000e+000 1.736646e+000
    endloop
  endfacet
  facet normal 6.691306e-001 -5.968387e-017 -7.431448e-001
    outer loop
      vertex   -1.539154e+000 0.000000e+000 1.970027e+000
      vertex   -1.798350e+000 1.000000e+000 1.736646e+000
      vertex   -1.539154e+000 1.000000e+000 1.970027e+000
    endloop
  endfacet
  facet normal 5.591929e-001 -2.387355e-016 -8.290376e-001
    outer loop
      vertex   -1.250000e+000 0.000000e+000 2.165064e+000
      vertex   -1.539154e+000 1.000000e+000 1.970027e+000
      vertex   -1.250000e+000 1.000000e+000 2.165064e+000
    endloop
  endfacet
  facet normal 4.383711e-001 0.000000e+000 -8.987940e-001
    outer loop
      vertex   -9.365165e-001 0.000000e+000 2.317960e+000
      vertex   -1.250000e+000 1.000000e+000 2.165064e+000
      vertex   -9.365165e-001 1.000000e+000 2.317960e+000
    endloop
  endfacet
  facet normal 3.090170e-001 1.790516e-016 -9.510565e-001
    outer loop
      vertex   -6.048047e-001 0.000000e+000 2.425739e+000
      vertex   -9.365165e-001 1.000000e+000 2.317960e+000
      vertex   -6.048047e-001 1.000000e+000 2.425739e+000
    endloop
  endfacet
  facet normal 1.736482e-001 1.989462e-016 -9.848078e-001
    outer loop
      vertex   -2.613212e-001 0.000000e+000 2.486305e+000
      vertex   -6.048047e-001 1.000000e+000 2.425739e+000
      vertex   -2.613212e-001 1.000000e+000 2.486305e+000
    endloop
  endfacet
  facet normal 3.489950e-002 3.978925e-017 -9.993908e-001
    outer loop
      vertex   8.724874e-002 0.000000e+000 2.498477e+000
      vertex   -2.613212e-001 1.000000e+000 2.486305e+000
      vertex   8.724874e-002 1.000000e+000 2.498477e+000
    endloop
  endfacet
  facet normal -1.045285e-001 -3.829715e-016 -9.945219e-001
    outer loop
      vertex   4.341204e-001 0.000000e+000 2.462019e+000
      vertex   8.724874e-002 1.000000e+000 2.498477e+000
      vertex   4.341204e-001 1.000000e+000 2.462019e+000
    endloop
  endfacet
  facet normal -2.419219e-001 0.000000e+000 -9.702957e-001
    outer loop
      vertex   7.725425e-001 0.000000e+000 2.377641e+000
      vertex   4.341204e-001 1.000000e+000 2.462019e+000
      vertex   7.725425e-001 1.000000e+000 2.377641e+000
    endloop
  endfacet
  facet normal -3.746066e-001 0.000000e+000 -9.271839e-001
    outer loop
      vertex   1.095928e+000 0.000000e+000 2.246985e+000
      vertex   7.725425e-001 1.000000e+000 2.377641e+000
      vertex   1.095928e+000 1.000000e+000 2.246985e+000
    endloop
  endfacet
  facet normal -5.000000e-001 -1.790516e-016 -8.660254e-001
    outer loop
      vertex   1.397982e+000 0.000000e+000 2.072594e+000
      vertex   1.095928e+000 1.000000e+000 2.246985e+000
      vertex   1.397982e+000 1.000000e+000 2.072594e+000
    endloop
  endfacet
  facet normal -6.156615e-001 0.000000e+000 -7.880108e-001
    outer loop
      vertex   1.672827e+000 0.000000e+000 1.857862e+000
      vertex   1.397982e+000 1.000000e+000 2.072594e+000
      vertex   1.672827e+000 1.000000e+000 1.857862e+000
    endloop
  endfacet
  facet normal -7.193398e-001 0.000000e+000 -6.946584e-001
    outer loop
      vertex   1.915111e+000 0.000000e+000 1.606969e+000
      vertex   1.672827e+000 1.000000e+000 1.857862e+000
      vertex   1.915111e+000 1.000000e+000 1.606969e+000
    endloop
  endfacet
  facet normal -8.090170e-001 0.000000e+000 -5.877853e-001
    outer loop
      vertex   2.120120e+000 0.000000e+000 1.324798e+000
      vertex   1.915111e+000 1.000000e+000 1.606969e+000
      vertex   2.120120e+000 1.000000e+000 1.324798e+000
    endloop
  endfacet
  facet normal -8.829476e-001 -3.581032e-016 -4.694716e-001
    outer loop
      vertex   2.283864e+000 0.000000e+000 1.016842e+000
      vertex   2.120120e+000 1.000000e+000 1.324798e+000
      vertex   2.283864e+000 1.000000e+000 1.016842e+000
    endloop
  endfacet
  facet normal -9.396926e-001 -1.193677e-016 -3.420201e-001
    outer loop
      vertex   2.403154e+000 0.000000e+000 6.890934e-001
      vertex   2.283864e+000 1.000000e+000 1.016842e+000
      vertex   2.403154e+000 1.000000e+000 6.890934e-001
    endloop
  endfacet
  facet normal -9.781476e-001 0.000000e+000 -2.079117e-001
    outer loop
      vertex   2.475670e+000 0.000000e+000 3.479328e-001
      vertex   2.403154e+000 1.000000e+000 6.890934e-001
      vertex   2.475670e+000 1.000000e+000 3.479328e-001
    endloop
  endfacet
  facet normal -9.975641e-001 0.000000e+000 -6.975647e-002
    outer loop
      vertex   2.500000e+000 0.000000e+000 3.061617e-016
      vertex   2.475670e+000 1.000000e+000 3.479328e-001
      vertex   2.500000e+000 1.000000e+000 3.061617e-016
    endloop
  endfacet
  facet normal -9.975641e-001 0.000000e+000 6.975647e-002
    outer loop
      vertex   2.475670e+000 0.000000e+000 -3.479328e-001
      vertex   2.500000e+000 0.000000e+000 3.061617e-016
      vertex   2.500000e+000 1.000000e+000 3.061617e-016
    endloop
  endfacet
  facet normal -8.829476e-001 3.672405e-016 4.694716e-001
    outer loop
      vertex   2.283864e+000 0.000000e+000 -1.016842e+000
      vertex   2.283864e+000 1.000000e+000 -1.016842e+000
      vertex   2.120120e+000 0.000000e+000 -1.324798e+000
    endloop
  endfacet
  facet normal -8.090170e-001 0.000000e+000 5.877853e-001
    outer loop
      vertex   2.120120e+000 0.000000e+000 -1.324798e+000
      vertex   2.120120e+000 1.000000e+000 -1.324798e+000
      vertex   1.915111e+000 0.000000e+000 -1.606969e+000
    endloop
  endfacet
  facet normal -7.193398e-001 0.000000e+000 6.946584e-001
    outer loop
      vertex   1.915111e+000 0.000000e+000 -1.606969e+000
      vertex   1.915111e+000 1.000000e+000 -1.606969e+000
      vertex   1.672827e+000 0.000000e+000 -1.857862e+000
    endloop
  endfacet
  facet normal -6.156615e-001 0.000000e+000 7.880108e-001
    outer loop
      vertex   1.672827e+000 0.000000e+000 -1.857862e+000
      vertex   1.672827e+000 1.000000e+000 -1.857862e+000
      vertex   1.397982e+000 0.000000e+000 -2.072594e+000
    endloop
  endfacet
  facet normal -5.000000e-001 1.705190e-016 8.660254e-001
    outer loop
      vertex   1.397982e+000 0.000000e+000 -2.072594e+000
      vertex   1.397982e+000 1.000000e+000 -2.072594e+000
      vertex   1.095928e+000 0.000000e+000 -2.246985e+000
    endloop
  endfacet
  facet normal -3.746066e-001 0.000000e+000 9.271839e-001
    outer loop
      vertex   1.095928e+000 0.000000e+000 -2.246985e+000
      vertex   1.095928e+000 1.000000e+000 -2.246985e+000
      vertex   7.725425e-001 0.000000e+000 -2.377641e+000
    endloop
  endfacet
  facet normal -2.419219e-001 0.000000e+000 9.702957e-001
    outer loop
      vertex   7.725425e-001 0.000000e+000 -2.377641e+000
      vertex   7.725425e-001 1.000000e+000 -2.377641e+000
      vertex   4.341204e-001 0.000000e+000 -2.462019e+000
    endloop
  endfacet
  facet normal -1.045285e-001 3.836315e-016 9.945219e-001
    outer loop
      vertex   4.341204e-001 0.000000e+000 -2.462019e+000
      vertex   4.341204e-001 1.000000e+000 -2.462019e+000
      vertex   8.724874e-002 0.000000e+000 -2.498477e+000
    endloop
  endfacet
  facet normal 3.489950e-002 -3.874622e-017 9.993908e-001
    outer loop
      vertex   8.724874e-002 0.000000e+000 -2.498477e+000
      vertex   8.724874e-002 1.000000e+000 -2.498477e+000
      vertex   -2.613212e-001 0.000000e+000 -2.486305e+000
    endloop
  endfacet
  facet normal 1.736482e-001 -1.927882e-016 9.848078e-001
    outer loop
      vertex   -2.613212e-001 0.000000e+000 -2.486305e+000
      vertex   -2.613212e-001 1.000000e+000 -2.486305e+000
      vertex   -6.048047e-001 0.000000e+000 -2.425739e+000
    endloop
  endfacet
  facet normal 3.090170e-001 -1.715389e-016 9.510565e-001
    outer loop
      vertex   -6.048047e-001 0.000000e+000 -2.425739e+000
      vertex   -6.048047e-001 1.000000e+000 -2.425739e+000
      vertex   -9.365165e-001 0.000000e+000 -2.317960e+000
    endloop
  endfacet
  facet normal 4.383711e-001 -0.000000e+000 8.987940e-001
    outer loop
      vertex   -9.365165e-001 0.000000e+000 -2.317960e+000
      vertex   -9.365165e-001 1.000000e+000 -2.317960e+000
      vertex   -1.250000e+000 0.000000e+000 -2.165064e+000
    endloop
  endfacet
  facet normal 5.591929e-001 2.526622e-016 8.290376e-001
    outer loop
      vertex   -1.250000e+000 0.000000e+000 -2.165064e+000
      vertex   -1.250000e+000 1.000000e+000 -2.165064e+000
      vertex   -1.539154e+000 0.000000e+000 -1.970027e+000
    endloop
  endfacet
  facet normal 6.691306e-001 6.573783e-017 7.431448e-001
    outer loop
      vertex   -1.539154e+000 0.000000e+000 -1.970027e+000
      vertex   -1.539154e+000 1.000000e+000 -1.970027e+000
      vertex   -1.798350e+000 0.000000e+000 -1.736646e+000
    endloop
  endfacet
  facet normal 7.660444e-001 -8.210554e-017 6.427876e-001
    outer loop
      vertex   -1.798350e+000 0.000000e+000 -1.736646e+000
      vertex   -1.798350e+000 1.000000e+000 -1.736646e+000
      vertex   -2.022542e+000 0.000000e+000 -1.469463e+000
    endloop
  endfacet
  facet normal 8.480481e-001 -0.000000e+000 5.299193e-001
    outer loop
      vertex   -2.022542e+000 0.000000e+000 -1.469463e+000
      vertex   -2.022542e+000 1.000000e+000 -1.469463e+000
      vertex   -2.207369e+000 0.000000e+000 -1.173679e+000
    endloop
  endfacet
  facet normal 9.135455e-001 4.587271e-017 4.067366e-001
    outer loop
      vertex   -2.207369e+000 0.000000e+000 -1.173679e+000
      vertex   -2.207369e+000 1.000000e+000 -1.173679e+000
      vertex   -2.349232e+000 0.000000e+000 -8.550504e-001
    endloop
  endfacet
  facet normal 9.612617e-001 -0.000000e+000 2.756374e-001
    outer loop
      vertex   -2.349232e+000 0.000000e+000 -8.550504e-001
      vertex   -2.349232e+000 1.000000e+000 -8.550504e-001
      vertex   -2.445369e+000 0.000000e+000 -5.197792e-001
    endloop
  endfacet
  facet normal 9.902681e-001 -2.852542e-016 1.391731e-001
    outer loop
      vertex   -2.445369e+000 0.000000e+000 -5.197792e-001
      vertex   -2.445369e+000 1.000000e+000 -5.197792e-001
      vertex   -2.493910e+000 0.000000e+000 -1.743912e-001
    endloop
  endfacet
  facet normal 1.000000e+000 0.000000e+000 -0.000000e+000
    outer loop
      vertex   -2.493910e+000 0.000000e+000 -1.743912e-001
      vertex   -2.493910e+000 1.000000e+000 -1.743912e-001
      vertex   -2.493910e+000 0.000000e+000 1.743912e-001
    endloop
  endfacet
  facet normal 9.902681e-001 0.000000e+000 -1.391731e-001
    outer loop
      vertex   -2.493910e+000 0.000000e+000 1.743912e-001
      vertex   -2.493910e+000 1.000000e+000 1.743912e-001
      vertex   -2.445369e+000 0.000000e+000 5.197792e-001
    endloop
  endfacet
  facet normal 9.612617e-001 1.208670e-016 -2.756374e-001
    outer loop
      vertex   -2.445369e+000 0.000000e+000 5.197792e-001
      vertex   -2.445369e+000 1.000000e+000 5.197792e-001
      vertex   -2.349232e+000 0.000000e+000 8.550504e-001
    endloop
  endfacet
  facet normal 9.135455e-001 0.000000e+000 -4.067366e-001
    outer loop
      vertex   -2.349232e+000 0.000000e+000 8.550504e-001
      vertex   -2.349232e+000 1.000000e+000 8.550504e-001
      vertex   -2.207369e+000 0.000000e+000 1.173679e+000
    endloop
  endfacet
  facet normal 8.480481e-001 -2.117196e-016 -5.299193e-001
    outer loop
      vertex   -2.207369e+000 0.000000e+000 1.173679e+000
      vertex   -2.207369e+000 1.000000e+000 1.173679e+000
      vertex   -2.022542e+000 0.000000e+000 1.469463e+000
    endloop
  endfacet
  facet normal 7.660444e-001 0.000000e+000 -6.427876e-001
    outer loop
      vertex   -2.022542e+000 0.000000e+000 1.469463e+000
      vertex   -2.022542e+000 1.000000e+000 1.469463e+000
      vertex   -1.798350e+000 0.000000e+000 1.736646e+000
    endloop
  endfacet
  facet normal 6.691306e-001 -4.930337e-017 -7.431448e-001
    outer loop
      vertex   -1.798350e+000 0.000000e+000 1.736646e+000
      vertex   -1.798350e+000 1.000000e+000 1.736646e+000
      vertex   -1.539154e+000 0.000000e+000 1.970027e+000
    endloop
  endfacet
  facet normal 5.591929e-001 -2.396702e-016 -8.290376e-001
    outer loop
      vertex   -1.539154e+000 0.000000e+000 1.970027e+000
      vertex   -1.539154e+000 1.000000e+000 1.970027e+000
      vertex   -1.250000e+000 0.000000e+000 2.165064e+000
    endloop
  endfacet
  facet normal 4.383711e-001 -8.754500e-017 -8.987940e-001
    outer loop
      vertex   -1.250000e+000 0.000000e+000 2.165064e+000
      vertex   -1.250000e+000 1.000000e+000 2.165064e+000
      vertex   -9.365165e-001 0.000000e+000 2.317960e+000
    endloop
  endfacet
  facet normal 3.090170e-001 0.000000e+000 -9.510565e-001
    outer loop
      vertex   -9.365165e-001 0.000000e+000 2.317960e+000
      vertex   -9.365165e-001 1.000000e+000 2.317960e+000
      vertex   -6.048047e-001 0.000000e+000 2.425739e+000
    endloop
  endfacet
  facet normal 1.736482e-001 9.639410e-017 -9.848078e-001
    outer loop
      vertex   -6.048047e-001 0.000000e+000 2.425739e+000
      vertex   -6.048047e-001 1.000000e+000 2.425739e+000
      vertex   -2.613212e-001 0.000000e+000 2.486305e+000
    endloop
  endfacet
  facet normal 3.489950e-002 3.874622e-017 -9.993908e-001
    outer loop
      vertex   -2.613212e-001 0.000000e+000 2.486305e+000
      vertex   -2.613212e-001 1.000000e+000 2.486305e+000
      vertex   8.724874e-002 0.000000e+000 2.498477e+000
    endloop
  endfacet
  facet normal -1.045285e-001 -1.160499e-016 -9.945219e-001
    outer loop
      vertex   8.724874e-002 0.000000e+000 2.498477e+000
      vertex   8.724874e-002 1.000000e+000 2.498477e+000
      vertex   4.341204e-001 0.000000e+000 2.462019e+000
    endloop
  endfacet
  facet normal -2.419219e-001 -2.966042e-016 -9.702957e-001
    outer loop
      vertex   4.341204e-001 0.000000e+000 2.462019e+000
      vertex   4.341204e-001 1.000000e+000 2.462019e+000
      vertex   7.725425e-001 0.000000e+000 2.377641e+000
    endloop
  endfacet
  facet normal -3.746066e-001 0.000000e+000 -9.271839e-001
    outer loop
      vertex   7.725425e-001 0.000000e+000 2.377641e+000
      vertex   7.725425e-001 1.000000e+000 2.377641e+000
      vertex   1.095928e+000 0.000000e+000 2.246985e+000
    endloop
  endfacet
  facet normal -5.000000e-001 0.000000e+000 -8.660254e-001
    outer loop
      vertex   1.095928e+000 0.000000e+000 2.246985e+000
      vertex   1.095928e+000 1.000000e+000 2.246985e+000
      vertex   1.397982e+000 0.000000e+000 2.072594e+000
    endloop
  endfacet
  facet normal -6.156615e-001 -3.335745e-016 -7.880108e-001
    outer loop
      vertex   1.397982e+000 0.000000e+000 2.072594e+000
      vertex   1.397982e+000 1.000000e+000 2.072594e+000
      vertex   1.672827e+000 0.000000e+000 1.857862e+000
    endloop
  endfacet
  facet normal -7.193398e-001 0.000000e+000 -6.946584e-001
    outer loop
      vertex   1.672827e+000 0.000000e+000 1.857862e+000
      vertex   1.672827e+000 1.000000e+000 1.857862e+000
      vertex   1.915111e+000 0.000000e+000 1.606969e+000
    endloop
  endfacet
  facet normal -8.090170e-001 0.000000e+000 -5.877853e-001
    outer loop
      vertex   1.915111e+000 0.000000e+000 1.606969e+000
      vertex   1.915111e+000 1.000000e+000 1.606969e+000
      vertex   2.120120e+000 0.000000e+000 1.324798e+000
    endloop
  endfacet
  facet normal -8.829476e-001 0.000000e+000 -4.694716e-001
    outer loop
      vertex   2.120120e+000 0.000000e+000 1.324798e+000
      vertex   2.120120e+000 1.000000e+000 1.324798e+000
      vertex   2.283864e+000 0.000000e+000 1.016842e+000
    endloop
  endfacet
  facet normal -9.396926e-001 -5.308398e-016 -3.420201e-001
    outer loop
      vertex   2.283864e+000 0.000000e+000 1.016842e+000
      vertex   2.283864e+000 1.000000e+000 1.016842e+000
      vertex   2.403154e+000 0.000000e+000 6.890934e-001
    endloop
  endfacet
  facet normal -9.781476e-001 -2.497221e-016 -2.079117e-001
    outer loop
      vertex   2.403154e+000 0.000000e+000 6.890934e-001
      vertex   2.403154e+000 1.000000e+000 6.890934e-001
      vertex   2.475670e+000 0.000000e+000 3.479328e-001
    endloop
  endfacet
  facet normal -9.975641e-001 0.000000e+000 -6.975647e-002
    outer loop
      vertex   2.475670e+000 0.000000e+000 3.479328e-001
      vertex   2.475670e+000 1.000000e+000 3.479328e-001
      vertex   2.500000e+000 0.000000e+000 3.061617e-016
    endloop
  endfacet
  facet normal 1.110223e-016 0.000000e+000 1.000000e+000
    outer loop
      vertex   8.000000e+000 3.000000e+000 -1.598000e+001
      vertex   -8.000000e+000 3.000000e+000 -1.598000e+001
      vertex   8.000000e+000 2.100000e+000 -1.598000e+001
    endloop
  endfacet
  facet normal 0.000000e+000 -1.973730e-015 1.000000e+000
    outer loop
      vertex   8.000000e+000 2.100000e+000 -1.598000e+001
      vertex   -8.000000e+000 3.000000e+000 -1.598000e+001
      vertex   -8.000000e+000 2.100000e+000 -1.598000e+001
    endloop
  endfacet
  facet normal 0.000000e+000 -0.000000e+000 1.000000e+000
    outer loop
      vertex   -9.000000e+000 1.000000e+000 -1.598000e+001
      vertex   -8.000000e+000 2.100000e+000 -1.598000e+001
      vertex   -9.000000e+000 2.100000e+000 -1.598000e+001
    endloop
  endfacet
  facet normal 0.000000e+000 -0.000000e+000 1.000000e+000
    outer loop
      vertex   -9.000000e+000 1.000000e+000 -1.598000e+001
      vertex   8.000000e+000 2.100000e+000 -1.598000e+001
      vertex   -8.000000e+000 2.100000e+000 -1.598000e+001
    endloop
  endfacet
  facet normal 0.000000e+000 -0.000000e+000 1.000000e+000
    outer loop
      vertex   -9.000000e+000 1.000000e+000 -1.598000e+001
      vertex   9.000000e+000 1.000000e+000 -1.598000e+001
      vertex   8.000000e+000 2.100000e+000 -1.598000e+001
    endloop
  endfacet
  facet normal -0.000000e+000 0.000000e+000 1.000000e+000
    outer loop
      vertex   8.000000e+000 2.100000e+000 -1.598000e+001
      vertex   9.000000e+000 1.000000e+000 -1.598000e+001
      vertex   9.000000e+000 2.100000e+000 -1.598000e+001
    endloop
  endfacet
  facet normal -0.000000e+000 1.000000e+000 0.000000e+000
    outer loop
      vertex   2.475670e+000 1.000000e+000 3.479328e-001
      vertex   9.000000e+000 1.000000e+000 1.698000e+001
      vertex   2.500000e+000 1.000000e+000 3.061617e-016
    endloop
  endfacet
  facet normal 0.000000e+000 1.000000e+000 -0.000000e+000
    outer loop
      vertex   2.475670e+000 1.000000e+000 3.479328e-001
      vertex   2.403154e+000 1.000000e+000 6.890934e-001
      vertex   9.000000e+000 1.000000e+000 1.698000e+001
    endloop
  endfacet
  facet normal 0.000000e+000 1.000000e+000 0.000000e+000
    outer loop
      vertex   9.000000e+000 1.000000e+000 1.698000e+001
      vertex   2.403154e+000 1.000000e+000 6.890934e-001
      vertex   2.283864e+000 1.000000e+000 1.016842e+000
    endloop
  endfacet
  facet normal -0.000000e+000 1.000000e+000 0.000000e+000
    outer loop
      vertex   2.120120e+000 1.000000e+000 1.324798e+000
      vertex   9.000000e+000 1.000000e+000 1.698000e+001
      vertex   2.283864e+000 1.000000e+000 1.016842e+000
    endloop
  endfacet
  facet normal 0.000000e+000 1.000000e+000 -0.000000e+000
    outer loop
      vertex   2.120120e+000 1.000000e+000 1.324798e+000
      vertex   1.915111e+000 1.000000e+000 1.606969e+000
      vertex   9.000000e+000 1.000000e+000 1.698000e+001
    endloop
  endfacet
  facet normal 0.000000e+000 1.000000e+000 0.000000e+000
    outer loop
      vertex   9.000000e+000 1.000000e+000 1.698000e+001
      vertex   1.915111e+000 1.000000e+000 1.606969e+000
      vertex   1.672827e+000 1.000000e+000 1.857862e+000
    endloop
  endfacet
  facet normal -0.000000e+000 1.000000e+000 0.000000e+000
    outer loop
      vertex   1.397982e+000 1.000000e+000 2.072594e+000
      vertex   9.000000e+000 1.000000e+000 1.698000e+001
      vertex   1.672827e+000 1.000000e+000 1.857862e+000
    endloop
  endfacet
  facet normal 0.000000e+000 1.000000e+000 -0.000000e+000
    outer loop
      vertex   1.397982e+000 1.000000e+000 2.072594e+000
      vertex   1.095928e+000 1.000000e+000 2.246985e+000
      vertex   9.000000e+000 1.000000e+000 1.698000e+001
    endloop
  endfacet
  facet normal 0.000000e+000 1.000000e+000 0.000000e+000
    outer loop
      vertex   9.000000e+000 1.000000e+000 1.698000e+001
      vertex   1.095928e+000 1.000000e+000 2.246985e+000
      vertex   7.725425e-001 1.000000e+000 2.377641e+000
    endloop
  endfacet
  facet normal -0.000000e+000 1.000000e+000 0.000000e+000
    outer loop
      vertex   4.341204e-001 1.000000e+000 2.462019e+000
      vertex   9.000000e+000 1.000000e+000 1.698000e+001
      vertex   7.725425e-001 1.000000e+000 2.377641e+000
    endloop
  endfacet
  facet normal 0.000000e+000 1.000000e+000 -0.000000e+000
    outer loop
      vertex   4.341204e-001 1.000000e+000 2.462019e+000
      vertex   8.724874e-002 1.000000e+000 2.498477e+000
      vertex   9.000000e+000 1.000000e+000 1.698000e+001
    endloop
  endfacet
  facet normal 0.000000e+000 1.000000e+000 0.000000e+000
    outer loop
      vertex   9.000000e+000 1.000000e+000 1.698000e+001
      vertex   8.724874e-002 1.000000e+000 2.498477e+000
      vertex   -9.000000e+000 1.000000e+000 1.698000e+001
    endloop
  endfacet
  facet normal 0.000000e+000 1.000000e+000 0.000000e+000
    outer loop
      vertex   -9.000000e+000 1.000000e+000 1.698000e+001
      vertex   8.724874e-002 1.000000e+000 2.498477e+000
      vertex   -2.613212e-001 1.000000e+000 2.486305e+000
    endloop
  endfacet
  facet normal -0.000000e+000 1.000000e+000 -0.000000e+000
    outer loop
      vertex   -6.048047e-001 1.000000e+000 2.425739e+000
      vertex   -9.000000e+000 1.000000e+000 1.698000e+001
      vertex   -2.613212e-001 1.000000e+000 2.486305e+000
    endloop
  endfacet
  facet normal 0.000000e+000 1.000000e+000 0.000000e+000
    outer loop
      vertex   -6.048047e-001 1.000000e+000 2.425739e+000
      vertex   -9.365165e-001 1.000000e+000 2.317960e+000
      vertex   -9.000000e+000 1.000000e+000 1.698000e+001
    endloop
  endfacet
  facet normal 0.000000e+000 1.000000e+000 0.000000e+000
    outer loop
      vertex   -9.000000e+000 1.000000e+000 1.698000e+001
      vertex   -9.365165e-001 1.000000e+000 2.317960e+000
      vertex   -1.250000e+000 1.000000e+000 2.165064e+000
    endloop
  endfacet
  facet normal -0.000000e+000 1.000000e+000 -0.000000e+000
    outer loop
      vertex   -1.539154e+000 1.000000e+000 1.970027e+000
      vertex   -9.000000e+000 1.000000e+000 1.698000e+001
      vertex   -1.250000e+000 1.000000e+000 2.165064e+000
    endloop
  endfacet
  facet normal 0.000000e+000 1.000000e+000 0.000000e+000
    outer loop
      vertex   -1.539154e+000 1.000000e+000 1.970027e+000
      vertex   -1.798350e+000 1.000000e+000 1.736646e+000
      vertex   -9.000000e+000 1.000000e+000 1.698000e+001
    endloop
  endfacet
  facet normal 0.000000e+000 1.000000e+000 0.000000e+000
    outer loop
      vertex   -9.000000e+000 1.000000e+000 1.698000e+001
      vertex   -1.798350e+000 1.000000e+000 1.736646e+000
      vertex   -2.022542e+000 1.000000e+000 1.469463e+000
    endloop
  endfacet
  facet normal -0.000000e+000 1.000000e+000 -0.000000e+000
    outer loop
      vertex   -2.207369e+000 1.000000e+000 1.173679e+000
      vertex   -9.000000e+000 1.000000e+000 1.698000e+001
      vertex   -2.022542e+000 1.000000e+000 1.469463e+000
    endloop
  endfacet
  facet normal 0.000000e+000 1.000000e+000 0.000000e+000
    outer loop
      vertex   -2.207369e+000 1.000000e+000 1.173679e+000
      vertex   -2.349232e+000 1.000000e+000 8.550504e-001
      vertex   -9.000000e+000 1.000000e+000 1.698000e+001
    endloop
  endfacet
  facet normal 0.000000e+000 1.000000e+000 0.000000e+000
    outer loop
      vertex   -9.000000e+000 1.000000e+000 1.698000e+001
      vertex   -2.349232e+000 1.000000e+000 8.550504e-001
      vertex   -2.445369e+000 1.000000e+000 5.197792e-001
    endloop
  endfacet
  facet normal -0.000000e+000 1.000000e+000 -0.000000e+000
    outer loop
      vertex   -2.493910e+000 1.000000e+000 1.743912e-001
      vertex   -9.000000e+000 1.000000e+000 1.698000e+001
      vertex   -2.445369e+000 1.000000e+000 5.197792e-001
    endloop
  endfacet
  facet normal 0.000000e+000 1.000000e+000 -0.000000e+000
    outer loop
      vertex   -2.493910e+000 1.000000e+000 1.743912e-001
      vertex   -9.000000e+000 1.000000e+000 -1.598000e+001
      vertex   -9.000000e+000 1.000000e+000 1.698000e+001
    endloop
  endfacet
  facet normal 0.000000e+000 1.000000e+000 0.000000e+000
    outer loop
      vertex   -2.493910e+000 1.000000e+000 1.743912e-001
      vertex   -2.493910e+000 1.000000e+000 -1.743912e-001
      vertex   -9.000000e+000 1.000000e+000 -1.598000e+001
    endloop
  endfacet
  facet normal -0.000000e+000 1.000000e+000 0.000000e+000
    outer loop
      vertex   -9.000000e+000 1.000000e+000 -1.598000e+001
      vertex   -2.493910e+000 1.000000e+000 -1.743912e-001
      vertex   -2.445369e+000 1.000000e+000 -5.197792e-001
    endloop
  endfacet
  facet normal 0.000000e+000 1.000000e+000 -0.000000e+000
    outer loop
      vertex   -2.349232e+000 1.000000e+000 -8.550504e-001
      vertex   -9.000000e+000 1.000000e+000 -1.598000e+001
      vertex   -2.445369e+000 1.000000e+000 -5.197792e-001
    endloop
  endfacet
  facet normal 0.000000e+000 1.000000e+000 0.000000e+000
    outer loop
      vertex   -2.349232e+000 1.000000e+000 -8.550504e-001
      vertex   -2.207369e+000 1.000000e+000 -1.173679e+000
      vertex   -9.000000e+000 1.000000e+000 -1.598000e+001
    endloop
  endfacet
  facet normal -0.000000e+000 1.000000e+000 0.000000e+000
    outer loop
      vertex   -9.000000e+000 1.000000e+000 -1.598000e+001
      vertex   -2.207369e+000 1.000000e+000 -1.173679e+000
      vertex   -2.022542e+000 1.000000e+000 -1.469463e+000
    endloop
  endfacet
  facet normal 0.000000e+000 1.000000e+000 -0.000000e+000
    outer loop
      vertex   -1.798350e+000 1.000000e+000 -1.736646e+000
      vertex   -9.000000e+000 1.000000e+000 -1.598000e+001
      vertex   -2.022542e+000 1.000000e+000 -1.469463e+000
    endloop
  endfacet
  facet normal 0.000000e+000 1.000000e+000 0.000000e+000
    outer loop
      vertex   -1.798350e+000 1.000000e+000 -1.736646e+000
      vertex   -1.539154e+000 1.000000e+000 -1.970027e+000
      vertex   -9.000000e+000 1.000000e+000 -1.598000e+001
    endloop
  endfacet
  facet normal -0.000000e+000 1.000000e+000 0.000000e+000
    outer loop
      vertex   -9.000000e+000 1.000000e+000 -1.598000e+001
      vertex   -1.539154e+000 1.000000e+000 -1.970027e+000
      vertex   -1.250000e+000 1.000000e+000 -2.165064e+000
    endloop
  endfacet
  facet normal 0.000000e+000 1.000000e+000 -0.000000e+000
    outer loop
      vertex   -9.365165e-001 1.000000e+000 -2.317960e+000
      vertex   -9.000000e+000 1.000000e+000 -1.598000e+001
      vertex   -1.250000e+000 1.000000e+000 -2.165064e+000
    endloop
  endfacet
  facet normal 0.000000e+000 1.000000e+000 0.000000e+000
    outer loop
      vertex   -9.365165e-001 1.000000e+000 -2.317960e+000
      vertex   -6.048047e-001 1.000000e+000 -2.425739e+000
      vertex   -9.000000e+000 1.000000e+000 -1.598000e+001
    endloop
  endfacet
  facet normal -0.000000e+000 1.000000e+000 0.000000e+000
    outer loop
      vertex   -9.000000e+000 1.000000e+000 -1.598000e+001
      vertex   -6.048047e-001 1.000000e+000 -2.425739e+000
      vertex   -2.613212e-001 1.000000e+000 -2.486305e+000
    endloop
  endfacet
  facet normal 0.000000e+000 1.000000e+000 -0.000000e+000
    outer loop
      vertex   8.724874e-002 1.000000e+000 -2.498477e+000
      vertex   -9.000000e+000 1.000000e+000 -1.598000e+001
      vertex   -2.613212e-001 1.000000e+000 -2.486305e+000
    endloop
  endfacet
  facet normal 0.000000e+000 1.000000e+000 0.000000e+000
    outer loop
      vertex   8.724874e-002 1.000000e+000 -2.498477e+000
      vertex   9.000000e+000 1.000000e+000 -1.598000e+001
      vertex   -9.000000e+000 1.000000e+000 -1.598000e+001
    endloop
  endfacet
  facet normal -0.000000e+000 1.000000e+000 0.000000e+000
    outer loop
      vertex   8.724874e-002 1.000000e+000 -2.498477e+000
      vertex   4.341204e-001 1.000000e+000 -2.462019e+000
      vertex   9.000000e+000 1.000000e+000 -1.598000e+001
    endloop
  endfacet
  facet normal 0.000000e+000 1.000000e+000 -0.000000e+000
    outer loop
      vertex   9.000000e+000 1.000000e+000 -1.598000e+001
      vertex   4.341204e-001 1.000000e+000 -2.462019e+000
      vertex   7.725425e-001 1.000000e+000 -2.377641e+000
    endloop
  endfacet
  facet normal 0.000000e+000 1.000000e+000 0.000000e+000
    outer loop
      vertex   1.095928e+000 1.000000e+000 -2.246985e+000
      vertex   9.000000e+000 1.000000e+000 -1.598000e+001
      vertex   7.725425e-001 1.000000e+000 -2.377641e+000
    endloop
  endfacet
  facet normal -0.000000e+000 1.000000e+000 0.000000e+000
    outer loop
      vertex   1.095928e+000 1.000000e+000 -2.246985e+000
      vertex   1.397982e+000 1.000000e+000 -2.072594e+000
      vertex   9.000000e+000 1.000000e+000 -1.598000e+001
    endloop
  endfacet
  facet normal 0.000000e+000 1.000000e+000 -0.000000e+000
    outer loop
      vertex   9.000000e+000 1.000000e+000 -1.598000e+001
      vertex   1.397982e+000 1.000000e+000 -2.072594e+000
      vertex   1.672827e+000 1.000000e+000 -1.857862e+000
    endloop
  endfacet
  facet normal 0.000000e+000 1.000000e+000 0.000000e+000
    outer loop
      vertex   1.915111e+000 1.000000e+000 -1.606969e+000
      vertex   9.000000e+000 1.000000e+000 -1.598000e+001
      vertex   1.672827e+000 1.000000e+000 -1.857862e+000
    endloop
  endfacet
  facet normal -0.000000e+000 1.000000e+000 0.000000e+000
    outer loop
      vertex   1.915111e+000 1.000000e+000 -1.606969e+000
      vertex   2.120120e+000 1.000000e+000 -1.324798e+000
      vertex   9.000000e+000 1.000000e+000 -1.598000e+001
    endloop
  endfacet
  facet normal 0.000000e+000 1.000000e+000 -0.000000e+000
    outer loop
      vertex   9.000000e+000 1.000000e+000 -1.598000e+001
      vertex   2.120120e+000 1.000000e+000 -1.324798e+000
      vertex   2.283864e+000 1.000000e+000 -1.016842e+000
    endloop
  endfacet
  facet normal 0.000000e+000 1.000000e+000 0.000000e+000
    outer loop
      vertex   2.403154e+000 1.000000e+000 -6.890934e-001
      vertex   9.000000e+000 1.000000e+000 -1.598000e+001
      vertex   2.283864e+000 1.000000e+000 -1.016842e+000
    endloop
  endfacet
  facet normal -0.000000e+000 1.000000e+000 0.000000e+000
    outer loop
      vertex   2.403154e+000 1.000000e+000 -6.890934e-001
      vertex   2.475670e+000 1.000000e+000 -3.479328e-001
      vertex   9.000000e+000 1.000000e+000 -1.598000e+001
    endloop
  endfacet
  facet normal 0.000000e+000 1.000000e+000 -0.000000e+000
    outer loop
      vertex   9.000000e+000 1.000000e+000 -1.598000e+001
      vertex   2.475670e+000 1.000000e+000 -3.479328e-001
      vertex   2.500000e+000 1.000000e+000 3.061617e-016
    endloop
  endfacet
  facet normal 0.000000e+000 1.000000e+000 0.000000e+000
    outer loop
      vertex   9.000000e+000 1.000000e+000 1.698000e+001
      vertex   9.000000e+000 1.000000e+000 -1.598000e+001
      vertex   2.500000e+000 1.000000e+000 3.061617e-016
    endloop
  endfacet
  facet normal 0.000000e+000 -0.000000e+000 1.000000e+000
    outer loop
      vertex   -8.000000e+000 2.100000e+000 1.698000e+001
      vertex   -8.000000e+000 3.000000e+000 1.698000e+001
      vertex   -9.000000e+000 2.100000e+000 1.698000e+001
    endloop
  endfacet
  facet normal 0.000000e+000 -0.000000e+000 1.000000e+000
    outer loop
      vertex   -9.000000e+000 2.100000e+000 1.698000e+001
      vertex   -8.000000e+000 3.000000e+000 1.698000e+001
      vertex   -9.980000e+000 3.000000e+000 1.698000e+001
    endloop
  endfacet
  facet normal 0.000000e+000 0.000000e+000 1.000000e+000
    outer loop
      vertex   -9.000000e+000 1.000000e+000 1.698000e+001
      vertex   -9.980000e+000 3.000000e+000 1.698000e+001
      vertex   -9.980000e+000 0.000000e+000 1.698000e+001
    endloop
  endfacet
  facet normal 0.000000e+000 0.000000e+000 1.000000e+000
    outer loop
      vertex   9.980000e+000 0.000000e+000 1.698000e+001
      vertex   -9.000000e+000 1.000000e+000 1.698000e+001
      vertex   -9.980000e+000 0.000000e+000 1.698000e+001
    endloop
  endfacet
  facet normal 0.000000e+000 0.000000e+000 1.000000e+000
    outer loop
      vertex   9.980000e+000 0.000000e+000 1.698000e+001
      vertex   9.000000e+000 1.000000e+000 1.698000e+001
      vertex   -9.000000e+000 1.000000e+000 1.698000e+001
    endloop
  endfacet
  facet normal 0.000000e+000 -0.000000e+000 1.000000e+000
    outer loop
      vertex   9.980000e+000 0.000000e+000 1.698000e+001
      vertex   9.980000e+000 3.000000e+000 1.698000e+001
      vertex   9.000000e+000 1.000000e+000 1.698000e+001
    endloop
  endfacet
  facet normal 0.000000e+000 -0.000000e+000 1.000000e+000
    outer loop
      vertex   9.000000e+000 1.000000e+000 1.698000e+001
      vertex   9.980000e+000 3.000000e+000 1.698000e+001
      vertex   9.000000e+000 2.100000e+000 1.698000e+001
    endloop
  endfacet
  facet normal 0.000000e+000 -0.000000e+000 1.000000e+000
    outer loop
      vertex   9.000000e+000 2.100000e+000 1.698000e+001
      vertex   9.980000e+000 3.000000e+000 1.698000e+001
      vertex   8.000000e+000 3.000000e+000 1.698000e+001
    endloop
  endfacet
  facet normal 0.000000e+000 -0.000000e+000 1.000000e+000
    outer loop
      vertex   8.000000e+000 2.100000e+000 1.698000e+001
      vertex   9.000000e+000 2.100000e+000 1.698000e+001
      vertex   8.000000e+000 3.000000e+000 1.698000e+001
    endloop
  endfacet
  facet normal 0.000000e+000 0.000000e+000 1.000000e+000
    outer loop
      vertex   -9.000000e+000 2.100000e+000 1.698000e+001
      vertex   -9.980000e+000 3.000000e+000 1.698000e+001
      vertex   -9.000000e+000 1.000000e+000 1.698000e+001
    endloop
  endfacet
  facet normal -1.000000e+000 0.000000e+000 2.092293e-016
    outer loop
      vertex   -9.980000e+000 0.000000e+000 -1.698000e+001
      vertex   -9.980000e+000 0.000000e+000 1.698000e+001
      vertex   -9.980000e+000 3.000000e+000 -1.698000e+001
    endloop
  endfacet
  facet normal -1.000000e+000 0.000000e+000 2.092293e-016
    outer loop
      vertex   -9.980000e+000 3.000000e+000 -1.698000e+001
      vertex   -9.980000e+000 0.000000e+000 1.698000e+001
      vertex   -9.980000e+000 3.000000e+000 1.698000e+001
    endloop
  endfacet
  facet normal -3.559833e-016 0.000000e+000 -1.000000e+000
    outer loop
      vertex   9.980000e+000 0.000000e+000 -1.698000e+001
      vertex   -9.980000e+000 0.000000e+000 -1.698000e+001
      vertex   9.980000e+000 3.000000e+000 -1.698000e+001
    endloop
  endfacet
  facet normal -3.559833e-016 0.000000e+000 -1.000000e+000
    outer loop
      vertex   9.980000e+000 3.000000e+000 -1.698000e+001
      vertex   -9.980000e+000 0.000000e+000 -1.698000e+001
      vertex   -9.980000e+000 3.000000e+000 -1.698000e+001
    endloop
  endfacet
  facet normal 1.000000e+000 0.000000e+000 -1.046147e-016
    outer loop
      vertex   9.980000e+000 0.000000e+000 1.698000e+001
      vertex   9.980000e+000 0.000000e+000 -1.698000e+001
      vertex   9.980000e+000 3.000000e+000 1.698000e+001
    endloop
  endfacet
  facet normal 1.000000e+000 0.000000e+000 -1.046147e-016
    outer loop
      vertex   9.980000e+000 3.000000e+000 1.698000e+001
      vertex   9.980000e+000 0.000000e+000 -1.698000e+001
      vertex   9.980000e+000 3.000000e+000 -1.698000e+001
    endloop
  endfacet
  facet normal -0.000000e+000 1.000000e+000 0.000000e+000
    outer loop
      vertex   8.000000e+000 3.000000e+000 1.698000e+001
      vertex   9.980000e+000 3.000000e+000 1.698000e+001
      vertex   8.000000e+000 3.000000e+000 -1.598000e+001
    endloop
  endfacet
  facet normal -0.000000e+000 1.000000e+000 0.000000e+000
    outer loop
      vertex   8.000000e+000 3.000000e+000 -1.598000e+001
      vertex   9.980000e+000 3.000000e+000 1.698000e+001
      vertex   9.980000e+000 3.000000e+000 -1.698000e+001
    endloop
  endfacet
  facet normal -0.000000e+000 1.000000e+000 0.000000e+000
    outer loop
      vertex   -9.980000e+000 3.000000e+000 -1.698000e+001
      vertex   8.000000e+000 3.000000e+000 -1.598000e+001
      vertex   9.980000e+000 3.000000e+000 -1.698000e+001
    endloop
  endfacet
  facet normal -0.000000e+000 1.000000e+000 0.000000e+000
    outer loop
      vertex   -9.980000e+000 3.000000e+000 -1.698000e+001
      vertex   -8.000000e+000 3.000000e+000 -1.598000e+001
      vertex   8.000000e+000 3.000000e+000 -1.598000e+001
    endloop
  endfacet
  facet normal -0.000000e+000 1.000000e+000 0.000000e+000
    outer loop
      vertex   -9.980000e+000 3.000000e+000 -1.698000e+001
      vertex   -9.980000e+000 3.000000e+000 1.698000e+001
      vertex   -8.000000e+000 3.000000e+000 -1.598000e+001
    endloop
  endfacet
  facet normal 0.000000e+000 1.000000e+000 -0.000000e+000
    outer loop
      vertex   -8.000000e+000 3.000000e+000 -1.598000e+001
      vertex   -9.980000e+000 3.000000e+000 1.698000e+001
      vertex   -8.000000e+000 3.000000e+000 1.698000e+001
    endloop
  endfacet
  facet normal 0.000000e+000 -1.000000e+000 0.000000e+000
    outer loop
      vertex   2.475670e+000 0.000000e+000 -3.479328e-001
      vertex   9.980000e+000 0.000000e+000 -1.698000e+001
      vertex   2.500000e+000 0.000000e+000 3.061617e-016
    endloop
  endfacet
  facet normal 0.000000e+000 -1.000000e+000 -0.000000e+000
    outer loop
      vertex   2.475670e+000 0.000000e+000 -3.479328e-001
      vertex   2.403154e+000 0.000000e+000 -6.890934e-001
      vertex   9.980000e+000 0.000000e+000 -1.698000e+001
    endloop
  endfacet
  facet normal -0.000000e+000 -1.000000e+000 0.000000e+000
    outer loop
      vertex   9.980000e+000 0.000000e+000 -1.698000e+001
      vertex   2.403154e+000 0.000000e+000 -6.890934e-001
      vertex   2.283864e+000 0.000000e+000 -1.016842e+000
    endloop
  endfacet
  facet normal 0.000000e+000 -1.000000e+000 0.000000e+000
    outer loop
      vertex   2.120120e+000 0.000000e+000 -1.324798e+000
      vertex   9.980000e+000 0.000000e+000 -1.698000e+001
      vertex   2.283864e+000 0.000000e+000 -1.016842e+000
    endloop
  endfacet
  facet normal 0.000000e+000 -1.000000e+000 -0.000000e+000
    outer loop
      vertex   2.120120e+000 0.000000e+000 -1.324798e+000
      vertex   1.915111e+000 0.000000e+000 -1.606969e+000
      vertex   9.980000e+000 0.000000e+000 -1.698000e+001
    endloop
  endfacet
  facet normal -0.000000e+000 -1.000000e+000 0.000000e+000
    outer loop
      vertex   9.980000e+000 0.000000e+000 -1.698000e+001
      vertex   1.915111e+000 0.000000e+000 -1.606969e+000
      vertex   1.672827e+000 0.000000e+000 -1.857862e+000
    endloop
  endfacet
  facet normal 0.000000e+000 -1.000000e+000 0.000000e+000
    outer loop
      vertex   1.397982e+000 0.000000e+000 -2.072594e+000
      vertex   9.980000e+000 0.000000e+000 -1.698000e+001
      vertex   1.672827e+000 0.000000e+000 -1.857862e+000
    endloop
  endfacet
  facet normal 0.000000e+000 -1.000000e+000 -0.000000e+000
    outer loop
      vertex   1.397982e+000 0.000000e+000 -2.072594e+000
      vertex   1.095928e+000 0.000000e+000 -2.246985e+000
      vertex   9.980000e+000 0.000000e+000 -1.698000e+001
    endloop
  endfacet
  facet normal -0.000000e+000 -1.000000e+000 0.000000e+000
    outer loop
      vertex   9.980000e+000 0.000000e+000 -1.698000e+001
      vertex   1.095928e+000 0.000000e+000 -2.246985e+000
      vertex   7.725425e-001 0.000000e+000 -2.377641e+000
    endloop
  endfacet
  facet normal 0.000000e+000 -1.000000e+000 0.000000e+000
    outer loop
      vertex   4.341204e-001 0.000000e+000 -2.462019e+000
      vertex   9.980000e+000 0.000000e+000 -1.698000e+001
      vertex   7.725425e-001 0.000000e+000 -2.377641e+000
    endloop
  endfacet
  facet normal 0.000000e+000 -1.000000e+000 -0.000000e+000
    outer loop
      vertex   4.341204e-001 0.000000e+000 -2.462019e+000
      vertex   8.724874e-002 0.000000e+000 -2.498477e+000
      vertex   9.980000e+000 0.000000e+000 -1.698000e+001
    endloop
  endfacet
  facet normal -0.000000e+000 -1.000000e+000 0.000000e+000
    outer loop
      vertex   9.980000e+000 0.000000e+000 -1.698000e+001
      vertex   8.724874e-002 0.000000e+000 -2.498477e+000
      vertex   -9.980000e+000 0.000000e+000 -1.698000e+001
    endloop
  endfacet
  facet normal 0.000000e+000 -1.000000e+000 0.000000e+000
    outer loop
      vertex   -9.980000e+000 0.000000e+000 -1.698000e+001
      vertex   8.724874e-002 0.000000e+000 -2.498477e+000
      vertex   -2.613212e-001 0.000000e+000 -2.486305e+000
    endloop
  endfacet
  facet normal 0.000000e+000 -1.000000e+000 -0.000000e+000
    outer loop
      vertex   -6.048047e-001 0.000000e+000 -2.425739e+000
      vertex   -9.980000e+000 0.000000e+000 -1.698000e+001
      vertex   -2.613212e-001 0.000000e+000 -2.486305e+000
    endloop
  endfacet
  facet normal -0.000000e+000 -1.000000e+000 0.000000e+000
    outer loop
      vertex   -6.048047e-001 0.000000e+000 -2.425739e+000
      vertex   -9.365165e-001 0.000000e+000 -2.317960e+000
      vertex   -9.980000e+000 0.000000e+000 -1.698000e+001
    endloop
  endfacet
  facet normal 0.000000e+000 -1.000000e+000 0.000000e+000
    outer loop
      vertex   -9.980000e+000 0.000000e+000 -1.698000e+001
      vertex   -9.365165e-001 0.000000e+000 -2.317960e+000
      vertex   -1.250000e+000 0.000000e+000 -2.165064e+000
    endloop
  endfacet
  facet normal 0.000000e+000 -1.000000e+000 -0.000000e+000
    outer loop
      vertex   -1.539154e+000 0.000000e+000 -1.970027e+000
      vertex   -9.980000e+000 0.000000e+000 -1.698000e+001
      vertex   -1.250000e+000 0.000000e+000 -2.165064e+000
    endloop
  endfacet
  facet normal -0.000000e+000 -1.000000e+000 0.000000e+000
    outer loop
      vertex   -1.539154e+000 0.000000e+000 -1.970027e+000
      vertex   -1.798350e+000 0.000000e+000 -1.736646e+000
      vertex   -9.980000e+000 0.000000e+000 -1.698000e+001
    endloop
  endfacet
  facet normal 0.000000e+000 -1.000000e+000 0.000000e+000
    outer loop
      vertex   -9.980000e+000 0.000000e+000 -1.698000e+001
      vertex   -1.798350e+000 0.000000e+000 -1.736646e+000
      vertex   -2.022542e+000 0.000000e+000 -1.469463e+000
    endloop
  endfacet
  facet normal 0.000000e+000 -1.000000e+000 -0.000000e+000
    outer loop
      vertex   -2.207369e+000 0.000000e+000 -1.173679e+000
      vertex   -9.980000e+000 0.000000e+000 -1.698000e+001
      vertex   -2.022542e+000 0.000000e+000 -1.469463e+000
    endloop
  endfacet
  facet normal -0.000000e+000 -1.000000e+000 0.000000e+000
    outer loop
      vertex   -2.207369e+000 0.000000e+000 -1.173679e+000
      vertex   -2.349232e+000 0.000000e+000 -8.550504e-001
      vertex   -9.980000e+000 0.000000e+000 -1.698000e+001
    endloop
  endfacet
  facet normal 0.000000e+000 -1.000000e+000 0.000000e+000
    outer loop
      vertex   -9.980000e+000 0.000000e+000 -1.698000e+001
      vertex   -2.349232e+000 0.000000e+000 -8.550504e-001
      vertex   -2.445369e+000 0.000000e+000 -5.197792e-001
    endloop
  endfacet
  facet normal 0.000000e+000 -1.000000e+000 -0.000000e+000
    outer loop
      vertex   -2.493910e+000 0.000000e+000 -1.743912e-001
      vertex   -9.980000e+000 0.000000e+000 -1.698000e+001
      vertex   -2.445369e+000 0.000000e+000 -5.197792e-001
    endloop
  endfacet
  facet normal -0.000000e+000 -1.000000e+000 0.000000e+000
    outer loop
      vertex   -2.493910e+000 0.000000e+000 -1.743912e-001
      vertex   -2.493910e+000 0.000000e+000 1.743912e-001
      vertex   -9.980000e+000 0.000000e+000 -1.698000e+001
    endloop
  endfacet
  facet normal 0.000000e+000 -1.000000e+000 0.000000e+000
    outer loop
      vertex   -9.980000e+000 0.000000e+000 -1.698000e+001
      vertex   -2.493910e+000 0.000000e+000 1.743912e-001
      vertex   -9.980000e+000 0.000000e+000 1.698000e+001
    endloop
  endfacet
  facet normal 0.000000e+000 -1.000000e+000 0.000000e+000
    outer loop
      vertex   -9.980000e+000 0.000000e+000 1.698000e+001
      vertex   -2.493910e+000 0.000000e+000 1.743912e-001
      vertex   -2.445369e+000 0.000000e+000 5.197792e-001
    endloop
  endfacet
  facet normal -0.000000e+000 -1.000000e+000 -0.000000e+000
    outer loop
      vertex   -2.349232e+000 0.000000e+000 8.550504e-001
      vertex   -9.980000e+000 0.000000e+000 1.698000e+001
      vertex   -2.445369e+000 0.000000e+000 5.197792e-001
    endloop
  endfacet
  facet normal 0.000000e+000 -1.000000e+000 0.000000e+000
    outer loop
      vertex   -2.349232e+000 0.000000e+000 8.550504e-001
      vertex   -2.207369e+000 0.000000e+000 1.173679e+000
      vertex   -9.980000e+000 0.000000e+000 1.698000e+001
    endloop
  endfacet
  facet normal 0.000000e+000 -1.000000e+000 0.000000e+000
    outer loop
      vertex   -9.980000e+000 0.000000e+000 1.698000e+001
      vertex   -2.207369e+000 0.000000e+000 1.173679e+000
      vertex   -2.022542e+000 0.000000e+000 1.469463e+000
    endloop
  endfacet
  facet normal -0.000000e+000 -1.000000e+000 -0.000000e+000
    outer loop
      vertex   -1.798350e+000 0.000000e+000 1.736646e+000
      vertex   -9.980000e+000 0.000000e+000 1.698000e+001
      vertex   -2.022542e+000 0.000000e+000 1.469463e+000
    endloop
  endfacet
  facet normal 0.000000e+000 -1.000000e+000 0.000000e+000
    outer loop
      vertex   -1.798350e+000 0.000000e+000 1.736646e+000
      vertex   -1.539154e+000 0.000000e+000 1.970027e+000
      vertex   -9.980000e+000 0.000000e+000 1.698000e+001
    endloop
  endfacet
  facet normal 0.000000e+000 -1.000000e+000 0.000000e+000
    outer loop
      vertex   -9.980000e+000 0.000000e+000 1.698000e+001
      vertex   -1.539154e+000 0.000000e+000 1.970027e+000
      vertex   -1.250000e+000 0.000000e+000 2.165064e+000
    endloop
  endfacet
  facet normal -0.000000e+000 -1.000000e+000 -0.000000e+000
    outer loop
      vertex   -9.365165e-001 0.000000e+000 2.317960e+000
      vertex   -9.980000e+000 0.000000e+000 1.698000e+001
      vertex   -1.250000e+000 0.000000e+000 2.165064e+000
    endloop
  endfacet
  facet normal 0.000000e+000 -1.000000e+000 0.000000e+000
    outer loop
      vertex   -9.365165e-001 0.000000e+000 2.317960e+000
      vertex   -6.048047e-001 0.000000e+000 2.425739e+000
      vertex   -9.980000e+000 0.000000e+000 1.698000e+001
    endloop
  endfacet
  facet normal 0.000000e+000 -1.000000e+000 0.000000e+000
    outer loop
      vertex   -9.980000e+000 0.000000e+000 1.698000e+001
      vertex   -6.048047e-001 0.000000e+000 2.425739e+000
      vertex   -2.613212e-001 0.000000e+000 2.486305e+000
    endloop
  endfacet
  facet normal -0.000000e+000 -1.000000e+000 -0.000000e+000
    outer loop
      vertex   8.724874e-002 0.000000e+000 2.498477e+000
      vertex   -9.980000e+000 0.000000e+000 1.698000e+001
      vertex   -2.613212e-001 0.000000e+000 2.486305e+000
    endloop
  endfacet
  facet normal 0.000000e+000 -1.000000e+000 0.000000e+000
    outer loop
      vertex   8.724874e-002 0.000000e+000 2.498477e+000
      vertex   9.980000e+000 0.000000e+000 1.698000e+001
      vertex   -9.980000e+000 0.000000e+000 1.698000e+001
    endloop
  endfacet
  facet normal 0.000000e+000 -1.000000e+000 0.000000e+000
    outer loop
      vertex   8.724874e-002 0.000000e+000 2.498477e+000
      vertex   4.341204e-001 0.000000e+000 2.462019e+000
      vertex   9.980000e+000 0.000000e+000 1.698000e+001
    endloop
  endfacet
  facet normal 0.000000e+000 -1.000000e+000 -0.000000e+000
    outer loop
      vertex   9.980000e+000 0.000000e+000 1.698000e+001
      vertex   4.341204e-001 0.000000e+000 2.462019e+000
      vertex   7.725425e-001 0.000000e+000 2.377641e+000
    endloop
  endfacet
  facet normal -0.000000e+000 -1.000000e+000 0.000000e+000
    outer loop
      vertex   1.095928e+000 0.000000e+000 2.246985e+000
      vertex   9.980000e+000 0.000000e+000 1.698000e+001
      vertex   7.725425e-001 0.000000e+000 2.377641e+000
    endloop
  endfacet
  facet normal 0.000000e+000 -1.000000e+000 0.000000e+000
    outer loop
      vertex   1.095928e+000 0.000000e+000 2.246985e+000
      vertex   1.397982e+000 0.000000e+000 2.072594e+000
      vertex   9.980000e+000 0.000000e+000 1.698000e+001
    endloop
  endfacet
  facet normal 0.000000e+000 -1.000000e+000 -0.000000e+000
    outer loop
      vertex   9.980000e+000 0.000000e+000 1.698000e+001
      vertex   1.397982e+000 0.000000e+000 2.072594e+000
      vertex   1.672827e+000 0.000000e+000 1.857862e+000
    endloop
  endfacet
  facet normal -0.000000e+000 -1.000000e+000 0.000000e+000
    outer loop
      vertex   1.915111e+000 0.000000e+000 1.606969e+000
      vertex   9.980000e+000 0.000000e+000 1.698000e+001
      vertex   1.672827e+000 0.000000e+000 1.857862e+000
    endloop
  endfacet
  facet normal 0.000000e+000 -1.000000e+000 0.000000e+000
    outer loop
      vertex   1.915111e+000 0.000000e+000 1.606969e+000
      vertex   2.120120e+000 0.000000e+000 1.324798e+000
      vertex   9.980000e+000 0.000000e+000 1.698000e+001
    endloop
  endfacet
  facet normal 0.000000e+000 -1.000000e+000 -0.000000e+000
    outer loop
      vertex   9.980000e+000 0.000000e+000 1.698000e+001
      vertex   2.120120e+000 0.000000e+000 1.324798e+000
      vertex   2.283864e+000 0.000000e+000 1.016842e+000
    endloop
  endfacet
  facet normal -0.000000e+000 -1.000000e+000 0.000000e+000
    outer loop
      vertex   2.403154e+000 0.000000e+000 6.890934e-001
      vertex   9.980000e+000 0.000000e+000 1.698000e+001
      vertex   2.283864e+000 0.000000e+000 1.016842e+000
    endloop
  endfacet
  facet normal 0.000000e+000 -1.000000e+000 0.000000e+000
    outer loop
      vertex   2.403154e+000 0.000000e+000 6.890934e-001
      vertex   2.475670e+000 0.000000e+000 3.479328e-001
      vertex   9.980000e+000 0.000000e+000 1.698000e+001
    endloop
  endfacet
  facet normal 0.000000e+000 -1.000000e+000 -0.000000e+000
    outer loop
      vertex   9.980000e+000 0.000000e+000 1.698000e+001
      vertex   2.475670e+000 0.000000e+000 3.479328e-001
      vertex   2.500000e+000 0.000000e+000 3.061617e-016
    endloop
  endfacet
  facet normal -0.000000e+000 -1.000000e+000 0.000000e+000
    outer loop
      vertex   9.980000e+000 0.000000e+000 -1.698000e+001
      vertex   9.980000e+000 0.000000e+000 1.698000e+001
      vertex   2.500000e+000 0.000000e+000 3.061617e-016
    endloop
  endfacet
endsolid
