solid ascii
  facet normal -1.119645e-001 -9.937122e-001 0.000000e+000
    outer loop
      vertex   -2.000000e+001 -3.956000e+001 6.000000e+000
      vertex   -2.044504e+001 -3.950986e+001 6.000000e+000
      vertex   -2.000000e+001 -3.956000e+001 0.000000e+000
    endloop
  endfacet
  facet normal -1.119645e-001 -9.937122e-001 -0.000000e+000
    outer loop
      vertex   -2.000000e+001 -3.956000e+001 0.000000e+000
      vertex   -2.044504e+001 -3.950986e+001 6.000000e+000
      vertex   -2.044504e+001 -3.950986e+001 0.000000e+000
    endloop
  endfacet
  facet normal -3.302791e-001 -9.438833e-001 0.000000e+000
    outer loop
      vertex   -2.044504e+001 -3.950986e+001 0.000000e+000
      vertex   -2.044504e+001 -3.950986e+001 6.000000e+000
      vertex   -2.086777e+001 -3.936194e+001 6.000000e+000
    endloop
  endfacet
  facet normal -5.320321e-001 -8.467242e-001 0.000000e+000
    outer loop
      vertex   -2.086777e+001 -3.936194e+001 0.000000e+000
      vertex   -2.086777e+001 -3.936194e+001 6.000000e+000
      vertex   -2.124698e+001 -3.912366e+001 6.000000e+000
    endloop
  endfacet
  facet normal -7.071068e-001 -7.071068e-001 0.000000e+000
    outer loop
      vertex   -2.124698e+001 -3.912366e+001 0.000000e+000
      vertex   -2.124698e+001 -3.912366e+001 6.000000e+000
      vertex   -2.156366e+001 -3.880698e+001 0.000000e+000
    endloop
  endfacet
  facet normal -5.320321e-001 -8.467242e-001 0.000000e+000
    outer loop
      vertex   -2.124698e+001 -3.912366e+001 0.000000e+000
      vertex   -2.086777e+001 -3.936194e+001 0.000000e+000
      vertex   -2.124698e+001 -3.912366e+001 6.000000e+000
    endloop
  endfacet
  facet normal -3.302791e-001 -9.438833e-001 -0.000000e+000
    outer loop
      vertex   -2.044504e+001 -3.950986e+001 0.000000e+000
      vertex   -2.086777e+001 -3.936194e+001 6.000000e+000
      vertex   -2.086777e+001 -3.936194e+001 0.000000e+000
    endloop
  endfacet
  facet normal -7.071068e-001 -7.071068e-001 -0.000000e+000
    outer loop
      vertex   -2.124698e+001 -3.912366e+001 6.000000e+000
      vertex   -2.156366e+001 -3.880698e+001 6.000000e+000
      vertex   -2.156366e+001 -3.880698e+001 0.000000e+000
    endloop
  endfacet
  facet normal -8.467242e-001 -5.320321e-001 0.000000e+000
    outer loop
      vertex   -2.156366e+001 -3.880698e+001 0.000000e+000
      vertex   -2.156366e+001 -3.880698e+001 6.000000e+000
      vertex   -2.180194e+001 -3.842777e+001 6.000000e+000
    endloop
  endfacet
  facet normal -9.438833e-001 -3.302791e-001 0.000000e+000
    outer loop
      vertex   -2.180194e+001 -3.842777e+001 0.000000e+000
      vertex   -2.180194e+001 -3.842777e+001 6.000000e+000
      vertex   -2.194986e+001 -3.800504e+001 6.000000e+000
    endloop
  endfacet
  facet normal -9.937122e-001 -1.119645e-001 0.000000e+000
    outer loop
      vertex   -2.194986e+001 -3.800504e+001 0.000000e+000
      vertex   -2.194986e+001 -3.800504e+001 6.000000e+000
      vertex   -2.200000e+001 -3.756000e+001 6.000000e+000
    endloop
  endfacet
  facet normal -9.937122e-001 -1.119645e-001 0.000000e+000
    outer loop
      vertex   -2.200000e+001 -3.756000e+001 0.000000e+000
      vertex   -2.194986e+001 -3.800504e+001 0.000000e+000
      vertex   -2.200000e+001 -3.756000e+001 6.000000e+000
    endloop
  endfacet
  facet normal -8.467242e-001 -5.320321e-001 -0.000000e+000
    outer loop
      vertex   -2.156366e+001 -3.880698e+001 0.000000e+000
      vertex   -2.180194e+001 -3.842777e+001 6.000000e+000
      vertex   -2.180194e+001 -3.842777e+001 0.000000e+000
    endloop
  endfacet
  facet normal -9.438833e-001 -3.302791e-001 -0.000000e+000
    outer loop
      vertex   -2.180194e+001 -3.842777e+001 0.000000e+000
      vertex   -2.194986e+001 -3.800504e+001 6.000000e+000
      vertex   -2.194986e+001 -3.800504e+001 0.000000e+000
    endloop
  endfacet
  facet normal 0.000000e+000 -1.000000e+000 0.000000e+000
    outer loop
      vertex   -2.000000e+001 -3.956000e+001 0.000000e+000
      vertex   2.000000e+001 -3.956000e+001 0.000000e+000
      vertex   -2.000000e+001 -3.956000e+001 6.000000e+000
    endloop
  endfacet
  facet normal 0.000000e+000 -1.000000e+000 0.000000e+000
    outer loop
      vertex   -2.000000e+001 -3.956000e+001 6.000000e+000
      vertex   2.000000e+001 -3.956000e+001 0.000000e+000
      vertex   2.000000e+001 -3.956000e+001 6.000000e+000
    endloop
  endfacet
  facet normal 0.000000e+000 0.000000e+000 -1.000000e+000
    outer loop
      vertex   -2.044504e+001 -3.950986e+001 0.000000e+000
      vertex   -2.200000e+001 -3.756000e+001 0.000000e+000
      vertex   -2.000000e+001 -3.956000e+001 0.000000e+000
    endloop
  endfacet
  facet normal 0.000000e+000 0.000000e+000 -1.000000e+000
    outer loop
      vertex   -2.044504e+001 -3.950986e+001 0.000000e+000
      vertex   -2.086777e+001 -3.936194e+001 0.000000e+000
      vertex   -2.200000e+001 -3.756000e+001 0.000000e+000
    endloop
  endfacet
  facet normal -0.000000e+000 -0.000000e+000 -1.000000e+000
    outer loop
      vertex   -2.200000e+001 -3.756000e+001 0.000000e+000
      vertex   -2.086777e+001 -3.936194e+001 0.000000e+000
      vertex   -2.124698e+001 -3.912366e+001 0.000000e+000
    endloop
  endfacet
  facet normal 0.000000e+000 0.000000e+000 -1.000000e+000
    outer loop
      vertex   -2.156366e+001 -3.880698e+001 0.000000e+000
      vertex   -2.200000e+001 -3.756000e+001 0.000000e+000
      vertex   -2.124698e+001 -3.912366e+001 0.000000e+000
    endloop
  endfacet
  facet normal 0.000000e+000 0.000000e+000 -1.000000e+000
    outer loop
      vertex   -2.156366e+001 -3.880698e+001 0.000000e+000
      vertex   -2.180194e+001 -3.842777e+001 0.000000e+000
      vertex   -2.200000e+001 -3.756000e+001 0.000000e+000
    endloop
  endfacet
  facet normal -0.000000e+000 -0.000000e+000 -1.000000e+000
    outer loop
      vertex   -2.200000e+001 -3.756000e+001 0.000000e+000
      vertex   -2.180194e+001 -3.842777e+001 0.000000e+000
      vertex   -2.194986e+001 -3.800504e+001 0.000000e+000
    endloop
  endfacet
  facet normal 0.000000e+000 0.000000e+000 -1.000000e+000
    outer loop
      vertex   -2.000000e+001 -3.956000e+001 0.000000e+000
      vertex   -2.200000e+001 -3.756000e+001 0.000000e+000
      vertex   -2.000000e+001 3.956000e+001 0.000000e+000
    endloop
  endfacet
  facet normal -0.000000e+000 0.000000e+000 -1.000000e+000
    outer loop
      vertex   2.000000e+001 3.956000e+001 0.000000e+000
      vertex   -2.000000e+001 -3.956000e+001 0.000000e+000
      vertex   -2.000000e+001 3.956000e+001 0.000000e+000
    endloop
  endfacet
  facet normal -0.000000e+000 0.000000e+000 -1.000000e+000
    outer loop
      vertex   2.000000e+001 3.956000e+001 0.000000e+000
      vertex   2.000000e+001 -3.956000e+001 0.000000e+000
      vertex   -2.000000e+001 -3.956000e+001 0.000000e+000
    endloop
  endfacet
  facet normal 0.000000e+000 -0.000000e+000 -1.000000e+000
    outer loop
      vertex   2.000000e+001 3.956000e+001 0.000000e+000
      vertex   2.200000e+001 -3.756000e+001 0.000000e+000
      vertex   2.000000e+001 -3.956000e+001 0.000000e+000
    endloop
  endfacet
  facet normal 0.000000e+000 -0.000000e+000 -1.000000e+000
    outer loop
      vertex   2.000000e+001 3.956000e+001 0.000000e+000
      vertex   2.200000e+001 3.756000e+001 0.000000e+000
      vertex   2.200000e+001 -3.756000e+001 0.000000e+000
    endloop
  endfacet
  facet normal 0.000000e+000 0.000000e+000 -1.000000e+000
    outer loop
      vertex   2.000000e+001 3.956000e+001 0.000000e+000
      vertex   2.044504e+001 3.950986e+001 0.000000e+000
      vertex   2.200000e+001 3.756000e+001 0.000000e+000
    endloop
  endfacet
  facet normal 0.000000e+000 0.000000e+000 -1.000000e+000
    outer loop
      vertex   2.200000e+001 3.756000e+001 0.000000e+000
      vertex   2.044504e+001 3.950986e+001 0.000000e+000
      vertex   2.086777e+001 3.936194e+001 0.000000e+000
    endloop
  endfacet
  facet normal -0.000000e+000 -0.000000e+000 -1.000000e+000
    outer loop
      vertex   2.124698e+001 3.912366e+001 0.000000e+000
      vertex   2.200000e+001 3.756000e+001 0.000000e+000
      vertex   2.086777e+001 3.936194e+001 0.000000e+000
    endloop
  endfacet
  facet normal 0.000000e+000 0.000000e+000 -1.000000e+000
    outer loop
      vertex   2.124698e+001 3.912366e+001 0.000000e+000
      vertex   2.156366e+001 3.880698e+001 0.000000e+000
      vertex   2.200000e+001 3.756000e+001 0.000000e+000
    endloop
  endfacet
  facet normal 0.000000e+000 0.000000e+000 -1.000000e+000
    outer loop
      vertex   2.200000e+001 3.756000e+001 0.000000e+000
      vertex   2.156366e+001 3.880698e+001 0.000000e+000
      vertex   2.180194e+001 3.842777e+001 0.000000e+000
    endloop
  endfacet
  facet normal -0.000000e+000 -0.000000e+000 -1.000000e+000
    outer loop
      vertex   2.194986e+001 3.800504e+001 0.000000e+000
      vertex   2.200000e+001 3.756000e+001 0.000000e+000
      vertex   2.180194e+001 3.842777e+001 0.000000e+000
    endloop
  endfacet
  facet normal 0.000000e+000 -0.000000e+000 -1.000000e+000
    outer loop
      vertex   -2.194986e+001 3.800504e+001 0.000000e+000
      vertex   -2.180194e+001 3.842777e+001 0.000000e+000
      vertex   -2.200000e+001 3.756000e+001 0.000000e+000
    endloop
  endfacet
  facet normal 0.000000e+000 0.000000e+000 -1.000000e+000
    outer loop
      vertex   -2.200000e+001 3.756000e+001 0.000000e+000
      vertex   -2.180194e+001 3.842777e+001 0.000000e+000
      vertex   -2.156366e+001 3.880698e+001 0.000000e+000
    endloop
  endfacet
  facet normal -0.000000e+000 0.000000e+000 -1.000000e+000
    outer loop
      vertex   -2.124698e+001 3.912366e+001 0.000000e+000
      vertex   -2.200000e+001 3.756000e+001 0.000000e+000
      vertex   -2.156366e+001 3.880698e+001 0.000000e+000
    endloop
  endfacet
  facet normal 0.000000e+000 -0.000000e+000 -1.000000e+000
    outer loop
      vertex   -2.124698e+001 3.912366e+001 0.000000e+000
      vertex   -2.086777e+001 3.936194e+001 0.000000e+000
      vertex   -2.200000e+001 3.756000e+001 0.000000e+000
    endloop
  endfacet
  facet normal 0.000000e+000 0.000000e+000 -1.000000e+000
    outer loop
      vertex   -2.200000e+001 3.756000e+001 0.000000e+000
      vertex   -2.086777e+001 3.936194e+001 0.000000e+000
      vertex   -2.044504e+001 3.950986e+001 0.000000e+000
    endloop
  endfacet
  facet normal -0.000000e+000 0.000000e+000 -1.000000e+000
    outer loop
      vertex   -2.000000e+001 3.956000e+001 0.000000e+000
      vertex   -2.200000e+001 3.756000e+001 0.000000e+000
      vertex   -2.044504e+001 3.950986e+001 0.000000e+000
    endloop
  endfacet
  facet normal -0.000000e+000 0.000000e+000 -1.000000e+000
    outer loop
      vertex   -2.000000e+001 3.956000e+001 0.000000e+000
      vertex   -2.200000e+001 -3.756000e+001 0.000000e+000
      vertex   -2.200000e+001 3.756000e+001 0.000000e+000
    endloop
  endfacet
  facet normal -0.000000e+000 0.000000e+000 -1.000000e+000
    outer loop
      vertex   2.194986e+001 -3.800504e+001 0.000000e+000
      vertex   2.180194e+001 -3.842777e+001 0.000000e+000
      vertex   2.200000e+001 -3.756000e+001 0.000000e+000
    endloop
  endfacet
  facet normal 0.000000e+000 0.000000e+000 -1.000000e+000
    outer loop
      vertex   2.200000e+001 -3.756000e+001 0.000000e+000
      vertex   2.180194e+001 -3.842777e+001 0.000000e+000
      vertex   2.156366e+001 -3.880698e+001 0.000000e+000
    endloop
  endfacet
  facet normal 0.000000e+000 -0.000000e+000 -1.000000e+000
    outer loop
      vertex   2.124698e+001 -3.912366e+001 0.000000e+000
      vertex   2.200000e+001 -3.756000e+001 0.000000e+000
      vertex   2.156366e+001 -3.880698e+001 0.000000e+000
    endloop
  endfacet
  facet normal -0.000000e+000 0.000000e+000 -1.000000e+000
    outer loop
      vertex   2.124698e+001 -3.912366e+001 0.000000e+000
      vertex   2.086777e+001 -3.936194e+001 0.000000e+000
      vertex   2.200000e+001 -3.756000e+001 0.000000e+000
    endloop
  endfacet
  facet normal 0.000000e+000 0.000000e+000 -1.000000e+000
    outer loop
      vertex   2.200000e+001 -3.756000e+001 0.000000e+000
      vertex   2.086777e+001 -3.936194e+001 0.000000e+000
      vertex   2.044504e+001 -3.950986e+001 0.000000e+000
    endloop
  endfacet
  facet normal 0.000000e+000 -0.000000e+000 -1.000000e+000
    outer loop
      vertex   2.000000e+001 -3.956000e+001 0.000000e+000
      vertex   2.200000e+001 -3.756000e+001 0.000000e+000
      vertex   2.044504e+001 -3.950986e+001 0.000000e+000
    endloop
  endfacet
  facet normal 9.937122e-001 -1.119645e-001 0.000000e+000
    outer loop
      vertex   2.200000e+001 -3.756000e+001 6.000000e+000
      vertex   2.194986e+001 -3.800504e+001 6.000000e+000
      vertex   2.200000e+001 -3.756000e+001 0.000000e+000
    endloop
  endfacet
  facet normal 9.937122e-001 -1.119645e-001 0.000000e+000
    outer loop
      vertex   2.200000e+001 -3.756000e+001 0.000000e+000
      vertex   2.194986e+001 -3.800504e+001 6.000000e+000
      vertex   2.194986e+001 -3.800504e+001 0.000000e+000
    endloop
  endfacet
  facet normal 9.438833e-001 -3.302791e-001 0.000000e+000
    outer loop
      vertex   2.194986e+001 -3.800504e+001 0.000000e+000
      vertex   2.194986e+001 -3.800504e+001 6.000000e+000
      vertex   2.180194e+001 -3.842777e+001 6.000000e+000
    endloop
  endfacet
  facet normal 8.467242e-001 -5.320321e-001 0.000000e+000
    outer loop
      vertex   2.180194e+001 -3.842777e+001 0.000000e+000
      vertex   2.180194e+001 -3.842777e+001 6.000000e+000
      vertex   2.156366e+001 -3.880698e+001 6.000000e+000
    endloop
  endfacet
  facet normal 7.071068e-001 -7.071068e-001 0.000000e+000
    outer loop
      vertex   2.156366e+001 -3.880698e+001 0.000000e+000
      vertex   2.156366e+001 -3.880698e+001 6.000000e+000
      vertex   2.124698e+001 -3.912366e+001 0.000000e+000
    endloop
  endfacet
  facet normal 8.467242e-001 -5.320321e-001 0.000000e+000
    outer loop
      vertex   2.156366e+001 -3.880698e+001 0.000000e+000
      vertex   2.180194e+001 -3.842777e+001 0.000000e+000
      vertex   2.156366e+001 -3.880698e+001 6.000000e+000
    endloop
  endfacet
  facet normal 9.438833e-001 -3.302791e-001 0.000000e+000
    outer loop
      vertex   2.194986e+001 -3.800504e+001 0.000000e+000
      vertex   2.180194e+001 -3.842777e+001 6.000000e+000
      vertex   2.180194e+001 -3.842777e+001 0.000000e+000
    endloop
  endfacet
  facet normal 7.071068e-001 -7.071068e-001 0.000000e+000
    outer loop
      vertex   2.156366e+001 -3.880698e+001 6.000000e+000
      vertex   2.124698e+001 -3.912366e+001 6.000000e+000
      vertex   2.124698e+001 -3.912366e+001 0.000000e+000
    endloop
  endfacet
  facet normal 5.320321e-001 -8.467242e-001 0.000000e+000
    outer loop
      vertex   2.124698e+001 -3.912366e+001 0.000000e+000
      vertex   2.124698e+001 -3.912366e+001 6.000000e+000
      vertex   2.086777e+001 -3.936194e+001 6.000000e+000
    endloop
  endfacet
  facet normal 3.302791e-001 -9.438833e-001 0.000000e+000
    outer loop
      vertex   2.086777e+001 -3.936194e+001 0.000000e+000
      vertex   2.086777e+001 -3.936194e+001 6.000000e+000
      vertex   2.044504e+001 -3.950986e+001 6.000000e+000
    endloop
  endfacet
  facet normal 1.119645e-001 -9.937122e-001 0.000000e+000
    outer loop
      vertex   2.044504e+001 -3.950986e+001 0.000000e+000
      vertex   2.044504e+001 -3.950986e+001 6.000000e+000
      vertex   2.000000e+001 -3.956000e+001 6.000000e+000
    endloop
  endfacet
  facet normal 1.119645e-001 -9.937122e-001 0.000000e+000
    outer loop
      vertex   2.000000e+001 -3.956000e+001 0.000000e+000
      vertex   2.044504e+001 -3.950986e+001 0.000000e+000
      vertex   2.000000e+001 -3.956000e+001 6.000000e+000
    endloop
  endfacet
  facet normal 5.320321e-001 -8.467242e-001 0.000000e+000
    outer loop
      vertex   2.124698e+001 -3.912366e+001 0.000000e+000
      vertex   2.086777e+001 -3.936194e+001 6.000000e+000
      vertex   2.086777e+001 -3.936194e+001 0.000000e+000
    endloop
  endfacet
  facet normal 3.302791e-001 -9.438833e-001 0.000000e+000
    outer loop
      vertex   2.086777e+001 -3.936194e+001 0.000000e+000
      vertex   2.044504e+001 -3.950986e+001 6.000000e+000
      vertex   2.044504e+001 -3.950986e+001 0.000000e+000
    endloop
  endfacet
  facet normal 1.000000e+000 -4.729385e-017 0.000000e+000
    outer loop
      vertex   2.200000e+001 -3.756000e+001 0.000000e+000
      vertex   2.200000e+001 3.756000e+001 0.000000e+000
      vertex   2.200000e+001 -3.756000e+001 6.000000e+000
    endloop
  endfacet
  facet normal 1.000000e+000 -4.729385e-017 0.000000e+000
    outer loop
      vertex   2.200000e+001 -3.756000e+001 6.000000e+000
      vertex   2.200000e+001 3.756000e+001 0.000000e+000
      vertex   2.200000e+001 3.756000e+001 6.000000e+000
    endloop
  endfacet
  facet normal 1.119645e-001 9.937122e-001 0.000000e+000
    outer loop
      vertex   2.000000e+001 3.956000e+001 6.000000e+000
      vertex   2.044504e+001 3.950986e+001 6.000000e+000
      vertex   2.000000e+001 3.956000e+001 0.000000e+000
    endloop
  endfacet
  facet normal 1.119645e-001 9.937122e-001 0.000000e+000
    outer loop
      vertex   2.000000e+001 3.956000e+001 0.000000e+000
      vertex   2.044504e+001 3.950986e+001 6.000000e+000
      vertex   2.044504e+001 3.950986e+001 0.000000e+000
    endloop
  endfacet
  facet normal 3.302791e-001 9.438833e-001 -0.000000e+000
    outer loop
      vertex   2.044504e+001 3.950986e+001 0.000000e+000
      vertex   2.044504e+001 3.950986e+001 6.000000e+000
      vertex   2.086777e+001 3.936194e+001 6.000000e+000
    endloop
  endfacet
  facet normal 5.320321e-001 8.467242e-001 -0.000000e+000
    outer loop
      vertex   2.086777e+001 3.936194e+001 0.000000e+000
      vertex   2.086777e+001 3.936194e+001 6.000000e+000
      vertex   2.124698e+001 3.912366e+001 6.000000e+000
    endloop
  endfacet
  facet normal 7.071068e-001 7.071068e-001 -0.000000e+000
    outer loop
      vertex   2.124698e+001 3.912366e+001 0.000000e+000
      vertex   2.124698e+001 3.912366e+001 6.000000e+000
      vertex   2.156366e+001 3.880698e+001 0.000000e+000
    endloop
  endfacet
  facet normal 5.320321e-001 8.467242e-001 0.000000e+000
    outer loop
      vertex   2.124698e+001 3.912366e+001 0.000000e+000
      vertex   2.086777e+001 3.936194e+001 0.000000e+000
      vertex   2.124698e+001 3.912366e+001 6.000000e+000
    endloop
  endfacet
  facet normal 3.302791e-001 9.438833e-001 0.000000e+000
    outer loop
      vertex   2.044504e+001 3.950986e+001 0.000000e+000
      vertex   2.086777e+001 3.936194e+001 6.000000e+000
      vertex   2.086777e+001 3.936194e+001 0.000000e+000
    endloop
  endfacet
  facet normal 7.071068e-001 7.071068e-001 0.000000e+000
    outer loop
      vertex   2.124698e+001 3.912366e+001 6.000000e+000
      vertex   2.156366e+001 3.880698e+001 6.000000e+000
      vertex   2.156366e+001 3.880698e+001 0.000000e+000
    endloop
  endfacet
  facet normal 8.467242e-001 5.320321e-001 -0.000000e+000
    outer loop
      vertex   2.156366e+001 3.880698e+001 0.000000e+000
      vertex   2.156366e+001 3.880698e+001 6.000000e+000
      vertex   2.180194e+001 3.842777e+001 6.000000e+000
    endloop
  endfacet
  facet normal 9.438833e-001 3.302791e-001 -0.000000e+000
    outer loop
      vertex   2.180194e+001 3.842777e+001 0.000000e+000
      vertex   2.180194e+001 3.842777e+001 6.000000e+000
      vertex   2.194986e+001 3.800504e+001 6.000000e+000
    endloop
  endfacet
  facet normal 9.937122e-001 1.119645e-001 -0.000000e+000
    outer loop
      vertex   2.194986e+001 3.800504e+001 0.000000e+000
      vertex   2.194986e+001 3.800504e+001 6.000000e+000
      vertex   2.200000e+001 3.756000e+001 6.000000e+000
    endloop
  endfacet
  facet normal 9.937122e-001 1.119645e-001 0.000000e+000
    outer loop
      vertex   2.200000e+001 3.756000e+001 0.000000e+000
      vertex   2.194986e+001 3.800504e+001 0.000000e+000
      vertex   2.200000e+001 3.756000e+001 6.000000e+000
    endloop
  endfacet
  facet normal 8.467242e-001 5.320321e-001 0.000000e+000
    outer loop
      vertex   2.156366e+001 3.880698e+001 0.000000e+000
      vertex   2.180194e+001 3.842777e+001 6.000000e+000
      vertex   2.180194e+001 3.842777e+001 0.000000e+000
    endloop
  endfacet
  facet normal 9.438833e-001 3.302791e-001 0.000000e+000
    outer loop
      vertex   2.180194e+001 3.842777e+001 0.000000e+000
      vertex   2.194986e+001 3.800504e+001 6.000000e+000
      vertex   2.194986e+001 3.800504e+001 0.000000e+000
    endloop
  endfacet
  facet normal 0.000000e+000 1.000000e+000 -0.000000e+000
    outer loop
      vertex   2.000000e+001 3.956000e+001 0.000000e+000
      vertex   -2.000000e+001 3.956000e+001 0.000000e+000
      vertex   2.000000e+001 3.956000e+001 6.000000e+000
    endloop
  endfacet
  facet normal 0.000000e+000 1.000000e+000 -0.000000e+000
    outer loop
      vertex   2.000000e+001 3.956000e+001 6.000000e+000
      vertex   -2.000000e+001 3.956000e+001 0.000000e+000
      vertex   -2.000000e+001 3.956000e+001 6.000000e+000
    endloop
  endfacet
  facet normal -9.937122e-001 1.119645e-001 0.000000e+000
    outer loop
      vertex   -2.200000e+001 3.756000e+001 6.000000e+000
      vertex   -2.194986e+001 3.800504e+001 6.000000e+000
      vertex   -2.200000e+001 3.756000e+001 0.000000e+000
    endloop
  endfacet
  facet normal -9.937122e-001 1.119645e-001 0.000000e+000
    outer loop
      vertex   -2.200000e+001 3.756000e+001 0.000000e+000
      vertex   -2.194986e+001 3.800504e+001 6.000000e+000
      vertex   -2.194986e+001 3.800504e+001 0.000000e+000
    endloop
  endfacet
  facet normal -9.438833e-001 3.302791e-001 0.000000e+000
    outer loop
      vertex   -2.194986e+001 3.800504e+001 0.000000e+000
      vertex   -2.194986e+001 3.800504e+001 6.000000e+000
      vertex   -2.180194e+001 3.842777e+001 6.000000e+000
    endloop
  endfacet
  facet normal -8.467242e-001 5.320321e-001 0.000000e+000
    outer loop
      vertex   -2.180194e+001 3.842777e+001 0.000000e+000
      vertex   -2.180194e+001 3.842777e+001 6.000000e+000
      vertex   -2.156366e+001 3.880698e+001 6.000000e+000
    endloop
  endfacet
  facet normal -7.071068e-001 7.071068e-001 0.000000e+000
    outer loop
      vertex   -2.156366e+001 3.880698e+001 0.000000e+000
      vertex   -2.156366e+001 3.880698e+001 6.000000e+000
      vertex   -2.124698e+001 3.912366e+001 0.000000e+000
    endloop
  endfacet
  facet normal -8.467242e-001 5.320321e-001 0.000000e+000
    outer loop
      vertex   -2.156366e+001 3.880698e+001 0.000000e+000
      vertex   -2.180194e+001 3.842777e+001 0.000000e+000
      vertex   -2.156366e+001 3.880698e+001 6.000000e+000
    endloop
  endfacet
  facet normal -9.438833e-001 3.302791e-001 0.000000e+000
    outer loop
      vertex   -2.194986e+001 3.800504e+001 0.000000e+000
      vertex   -2.180194e+001 3.842777e+001 6.000000e+000
      vertex   -2.180194e+001 3.842777e+001 0.000000e+000
    endloop
  endfacet
  facet normal -7.071068e-001 7.071068e-001 0.000000e+000
    outer loop
      vertex   -2.156366e+001 3.880698e+001 6.000000e+000
      vertex   -2.124698e+001 3.912366e+001 6.000000e+000
      vertex   -2.124698e+001 3.912366e+001 0.000000e+000
    endloop
  endfacet
  facet normal -5.320321e-001 8.467242e-001 0.000000e+000
    outer loop
      vertex   -2.124698e+001 3.912366e+001 0.000000e+000
      vertex   -2.124698e+001 3.912366e+001 6.000000e+000
      vertex   -2.086777e+001 3.936194e+001 6.000000e+000
    endloop
  endfacet
  facet normal -3.302791e-001 9.438833e-001 0.000000e+000
    outer loop
      vertex   -2.086777e+001 3.936194e+001 0.000000e+000
      vertex   -2.086777e+001 3.936194e+001 6.000000e+000
      vertex   -2.044504e+001 3.950986e+001 6.000000e+000
    endloop
  endfacet
  facet normal -1.119645e-001 9.937122e-001 0.000000e+000
    outer loop
      vertex   -2.044504e+001 3.950986e+001 0.000000e+000
      vertex   -2.044504e+001 3.950986e+001 6.000000e+000
      vertex   -2.000000e+001 3.956000e+001 6.000000e+000
    endloop
  endfacet
  facet normal -1.119645e-001 9.937122e-001 0.000000e+000
    outer loop
      vertex   -2.000000e+001 3.956000e+001 0.000000e+000
      vertex   -2.044504e+001 3.950986e+001 0.000000e+000
      vertex   -2.000000e+001 3.956000e+001 6.000000e+000
    endloop
  endfacet
  facet normal -5.320321e-001 8.467242e-001 0.000000e+000
    outer loop
      vertex   -2.124698e+001 3.912366e+001 0.000000e+000
      vertex   -2.086777e+001 3.936194e+001 6.000000e+000
      vertex   -2.086777e+001 3.936194e+001 0.000000e+000
    endloop
  endfacet
  facet normal -3.302791e-001 9.438833e-001 0.000000e+000
    outer loop
      vertex   -2.086777e+001 3.936194e+001 0.000000e+000
      vertex   -2.044504e+001 3.950986e+001 6.000000e+000
      vertex   -2.044504e+001 3.950986e+001 0.000000e+000
    endloop
  endfacet
  facet normal 1.000000e+000 0.000000e+000 0.000000e+000
    outer loop
      vertex   -2.100000e+001 3.820000e+001 6.000000e+000
      vertex   -2.100000e+001 3.408000e+001 6.000000e+000
      vertex   -2.100000e+001 3.820000e+001 2.000000e+000
    endloop
  endfacet
  facet normal 1.000000e+000 0.000000e+000 0.000000e+000
    outer loop
      vertex   -2.100000e+001 3.820000e+001 2.000000e+000
      vertex   -2.100000e+001 3.408000e+001 6.000000e+000
      vertex   -2.100000e+001 3.408000e+001 2.000000e+000
    endloop
  endfacet
  facet normal -1.691768e-016 1.000000e+000 0.000000e+000
    outer loop
      vertex   -2.100000e+001 3.408000e+001 6.000000e+000
      vertex   2.100000e+001 3.408000e+001 6.000000e+000
      vertex   -2.100000e+001 3.408000e+001 2.000000e+000
    endloop
  endfacet
  facet normal -1.691768e-016 1.000000e+000 0.000000e+000
    outer loop
      vertex   -2.100000e+001 3.408000e+001 2.000000e+000
      vertex   2.100000e+001 3.408000e+001 6.000000e+000
      vertex   2.100000e+001 3.408000e+001 2.000000e+000
    endloop
  endfacet
  facet normal -1.000000e+000 0.000000e+000 -0.000000e+000
    outer loop
      vertex   2.100000e+001 3.408000e+001 6.000000e+000
      vertex   2.100000e+001 3.820000e+001 6.000000e+000
      vertex   2.100000e+001 3.408000e+001 2.000000e+000
    endloop
  endfacet
  facet normal -1.000000e+000 0.000000e+000 0.000000e+000
    outer loop
      vertex   2.100000e+001 3.408000e+001 2.000000e+000
      vertex   2.100000e+001 3.820000e+001 6.000000e+000
      vertex   2.100000e+001 3.820000e+001 2.000000e+000
    endloop
  endfacet
  facet normal -0.000000e+000 -1.000000e+000 -0.000000e+000
    outer loop
      vertex   2.100000e+001 3.820000e+001 6.000000e+000
      vertex   -2.100000e+001 3.820000e+001 6.000000e+000
      vertex   2.100000e+001 3.820000e+001 2.000000e+000
    endloop
  endfacet
  facet normal -0.000000e+000 -1.000000e+000 -0.000000e+000
    outer loop
      vertex   2.100000e+001 3.820000e+001 2.000000e+000
      vertex   -2.100000e+001 3.820000e+001 6.000000e+000
      vertex   -2.100000e+001 3.820000e+001 2.000000e+000
    endloop
  endfacet
  facet normal 0.000000e+000 0.000000e+000 1.000000e+000
    outer loop
      vertex   2.100000e+001 3.820000e+001 2.000000e+000
      vertex   -2.100000e+001 3.820000e+001 2.000000e+000
      vertex   2.100000e+001 3.408000e+001 2.000000e+000
    endloop
  endfacet
  facet normal 0.000000e+000 0.000000e+000 1.000000e+000
    outer loop
      vertex   2.100000e+001 3.408000e+001 2.000000e+000
      vertex   -2.100000e+001 3.820000e+001 2.000000e+000
      vertex   -2.100000e+001 3.408000e+001 2.000000e+000
    endloop
  endfacet
  facet normal -1.000000e+000 0.000000e+000 -0.000000e+000
    outer loop
      vertex   2.100000e+001 -4.400000e-001 6.000000e+000
      vertex   2.100000e+001 6.080000e+000 6.000000e+000
      vertex   2.100000e+001 -4.400000e-001 2.000000e+000
    endloop
  endfacet
  facet normal -1.000000e+000 0.000000e+000 0.000000e+000
    outer loop
      vertex   2.100000e+001 -4.400000e-001 2.000000e+000
      vertex   2.100000e+001 6.080000e+000 6.000000e+000
      vertex   2.100000e+001 6.080000e+000 2.000000e+000
    endloop
  endfacet
  facet normal 2.749124e-016 -1.000000e+000 0.000000e+000
    outer loop
      vertex   2.100000e+001 6.080000e+000 6.000000e+000
      vertex   -2.100000e+001 6.080000e+000 6.000000e+000
      vertex   2.100000e+001 6.080000e+000 2.000000e+000
    endloop
  endfacet
  facet normal 2.749124e-016 -1.000000e+000 0.000000e+000
    outer loop
      vertex   2.100000e+001 6.080000e+000 2.000000e+000
      vertex   -2.100000e+001 6.080000e+000 6.000000e+000
      vertex   -2.100000e+001 6.080000e+000 2.000000e+000
    endloop
  endfacet
  facet normal 1.000000e+000 0.000000e+000 0.000000e+000
    outer loop
      vertex   -2.100000e+001 6.080000e+000 6.000000e+000
      vertex   -2.100000e+001 -4.400000e-001 6.000000e+000
      vertex   -2.100000e+001 6.080000e+000 2.000000e+000
    endloop
  endfacet
  facet normal 1.000000e+000 0.000000e+000 0.000000e+000
    outer loop
      vertex   -2.100000e+001 6.080000e+000 2.000000e+000
      vertex   -2.100000e+001 -4.400000e-001 6.000000e+000
      vertex   -2.100000e+001 -4.400000e-001 2.000000e+000
    endloop
  endfacet
  facet normal -1.057355e-016 1.000000e+000 0.000000e+000
    outer loop
      vertex   -2.100000e+001 -4.400000e-001 6.000000e+000
      vertex   2.100000e+001 -4.400000e-001 6.000000e+000
      vertex   -2.100000e+001 -4.400000e-001 2.000000e+000
    endloop
  endfacet
  facet normal -1.057355e-016 1.000000e+000 0.000000e+000
    outer loop
      vertex   -2.100000e+001 -4.400000e-001 2.000000e+000
      vertex   2.100000e+001 -4.400000e-001 6.000000e+000
      vertex   2.100000e+001 -4.400000e-001 2.000000e+000
    endloop
  endfacet
  facet normal 0.000000e+000 -0.000000e+000 1.000000e+000
    outer loop
      vertex   -2.100000e+001 -4.400000e-001 2.000000e+000
      vertex   2.100000e+001 -4.400000e-001 2.000000e+000
      vertex   -2.100000e+001 6.080000e+000 2.000000e+000
    endloop
  endfacet
  facet normal -0.000000e+000 0.000000e+000 1.000000e+000
    outer loop
      vertex   -2.100000e+001 6.080000e+000 2.000000e+000
      vertex   2.100000e+001 -4.400000e-001 2.000000e+000
      vertex   2.100000e+001 6.080000e+000 2.000000e+000
    endloop
  endfacet
  facet normal -1.000000e+000 0.000000e+000 -0.000000e+000
    outer loop
      vertex   2.100000e+001 -3.856000e+001 6.000000e+000
      vertex   2.100000e+001 -3.044000e+001 6.000000e+000
      vertex   2.100000e+001 -3.856000e+001 2.000000e+000
    endloop
  endfacet
  facet normal -1.000000e+000 0.000000e+000 0.000000e+000
    outer loop
      vertex   2.100000e+001 -3.856000e+001 2.000000e+000
      vertex   2.100000e+001 -3.044000e+001 6.000000e+000
      vertex   2.100000e+001 -3.044000e+001 2.000000e+000
    endloop
  endfacet
  facet normal 1.691768e-016 -1.000000e+000 0.000000e+000
    outer loop
      vertex   2.100000e+001 -3.044000e+001 6.000000e+000
      vertex   -2.100000e+001 -3.044000e+001 6.000000e+000
      vertex   2.100000e+001 -3.044000e+001 2.000000e+000
    endloop
  endfacet
  facet normal 1.691768e-016 -1.000000e+000 -1.502592e-031
    outer loop
      vertex   2.100000e+001 -3.044000e+001 2.000000e+000
      vertex   -2.100000e+001 -3.044000e+001 6.000000e+000
      vertex   -2.100000e+001 -3.044000e+001 2.000000e+000
    endloop
  endfacet
  facet normal 1.000000e+000 4.375263e-016 -8.881784e-016
    outer loop
      vertex   -2.100000e+001 -3.044000e+001 6.000000e+000
      vertex   -2.100000e+001 -3.856000e+001 6.000000e+000
      vertex   -2.100000e+001 -3.044000e+001 2.000000e+000
    endloop
  endfacet
  facet normal 1.000000e+000 8.750526e-016 0.000000e+000
    outer loop
      vertex   -2.100000e+001 -3.044000e+001 2.000000e+000
      vertex   -2.100000e+001 -3.856000e+001 6.000000e+000
      vertex   -2.100000e+001 -3.856000e+001 2.000000e+000
    endloop
  endfacet
  facet normal -1.691768e-016 1.000000e+000 0.000000e+000
    outer loop
      vertex   -2.100000e+001 -3.856000e+001 6.000000e+000
      vertex   2.100000e+001 -3.856000e+001 6.000000e+000
      vertex   -2.100000e+001 -3.856000e+001 2.000000e+000
    endloop
  endfacet
  facet normal -1.691768e-016 1.000000e+000 0.000000e+000
    outer loop
      vertex   -2.100000e+001 -3.856000e+001 2.000000e+000
      vertex   2.100000e+001 -3.856000e+001 6.000000e+000
      vertex   2.100000e+001 -3.856000e+001 2.000000e+000
    endloop
  endfacet
  facet normal 0.000000e+000 -0.000000e+000 1.000000e+000
    outer loop
      vertex   -2.100000e+001 -3.856000e+001 2.000000e+000
      vertex   2.100000e+001 -3.856000e+001 2.000000e+000
      vertex   -2.100000e+001 -3.044000e+001 2.000000e+000
    endloop
  endfacet
  facet normal -0.000000e+000 0.000000e+000 1.000000e+000
    outer loop
      vertex   -2.100000e+001 -3.044000e+001 2.000000e+000
      vertex   2.100000e+001 -3.856000e+001 2.000000e+000
      vertex   2.100000e+001 -3.044000e+001 2.000000e+000
    endloop
  endfacet
  facet normal -1.000000e+000 1.891754e-016 0.000000e+000
    outer loop
      vertex   -2.200000e+001 -3.756000e+001 6.000000e+000
      vertex   -2.200000e+001 3.756000e+001 6.000000e+000
      vertex   -2.200000e+001 -3.756000e+001 0.000000e+000
    endloop
  endfacet
  facet normal -1.000000e+000 1.891754e-016 0.000000e+000
    outer loop
      vertex   -2.200000e+001 -3.756000e+001 0.000000e+000
      vertex   -2.200000e+001 3.756000e+001 6.000000e+000
      vertex   -2.200000e+001 3.756000e+001 0.000000e+000
    endloop
  endfacet
  facet normal -0.000000e+000 -0.000000e+000 1.000000e+000
    outer loop
      vertex   -2.194986e+001 -3.800504e+001 6.000000e+000
      vertex   -2.100000e+001 -3.856000e+001 6.000000e+000
      vertex   -2.200000e+001 -3.756000e+001 6.000000e+000
    endloop
  endfacet
  facet normal 0.000000e+000 0.000000e+000 1.000000e+000
    outer loop
      vertex   -2.194986e+001 -3.800504e+001 6.000000e+000
      vertex   -2.180194e+001 -3.842777e+001 6.000000e+000
      vertex   -2.100000e+001 -3.856000e+001 6.000000e+000
    endloop
  endfacet
  facet normal 0.000000e+000 0.000000e+000 1.000000e+000
    outer loop
      vertex   -2.100000e+001 -3.856000e+001 6.000000e+000
      vertex   -2.180194e+001 -3.842777e+001 6.000000e+000
      vertex   -2.156366e+001 -3.880698e+001 6.000000e+000
    endloop
  endfacet
  facet normal 0.000000e+000 -0.000000e+000 1.000000e+000
    outer loop
      vertex   -2.124698e+001 -3.912366e+001 6.000000e+000
      vertex   -2.100000e+001 -3.856000e+001 6.000000e+000
      vertex   -2.156366e+001 -3.880698e+001 6.000000e+000
    endloop
  endfacet
  facet normal -0.000000e+000 -0.000000e+000 1.000000e+000
    outer loop
      vertex   -2.124698e+001 -3.912366e+001 6.000000e+000
      vertex   -2.086777e+001 -3.936194e+001 6.000000e+000
      vertex   -2.100000e+001 -3.856000e+001 6.000000e+000
    endloop
  endfacet
  facet normal 0.000000e+000 0.000000e+000 1.000000e+000
    outer loop
      vertex   -2.100000e+001 -3.856000e+001 6.000000e+000
      vertex   -2.086777e+001 -3.936194e+001 6.000000e+000
      vertex   -2.044504e+001 -3.950986e+001 6.000000e+000
    endloop
  endfacet
  facet normal 0.000000e+000 0.000000e+000 1.000000e+000
    outer loop
      vertex   -2.000000e+001 -3.956000e+001 6.000000e+000
      vertex   -2.100000e+001 -3.856000e+001 6.000000e+000
      vertex   -2.044504e+001 -3.950986e+001 6.000000e+000
    endloop
  endfacet
  facet normal 0.000000e+000 -0.000000e+000 1.000000e+000
    outer loop
      vertex   -2.000000e+001 -3.956000e+001 6.000000e+000
      vertex   2.000000e+001 -3.956000e+001 6.000000e+000
      vertex   -2.100000e+001 -3.856000e+001 6.000000e+000
    endloop
  endfacet
  facet normal -0.000000e+000 0.000000e+000 1.000000e+000
    outer loop
      vertex   -2.100000e+001 -3.856000e+001 6.000000e+000
      vertex   2.000000e+001 -3.956000e+001 6.000000e+000
      vertex   2.100000e+001 -3.856000e+001 6.000000e+000
    endloop
  endfacet
  facet normal -0.000000e+000 0.000000e+000 1.000000e+000
    outer loop
      vertex   2.100000e+001 -3.856000e+001 6.000000e+000
      vertex   2.000000e+001 -3.956000e+001 6.000000e+000
      vertex   2.044504e+001 -3.950986e+001 6.000000e+000
    endloop
  endfacet
  facet normal 0.000000e+000 -0.000000e+000 1.000000e+000
    outer loop
      vertex   2.086777e+001 -3.936194e+001 6.000000e+000
      vertex   2.100000e+001 -3.856000e+001 6.000000e+000
      vertex   2.044504e+001 -3.950986e+001 6.000000e+000
    endloop
  endfacet
  facet normal 0.000000e+000 -0.000000e+000 1.000000e+000
    outer loop
      vertex   2.086777e+001 -3.936194e+001 6.000000e+000
      vertex   2.124698e+001 -3.912366e+001 6.000000e+000
      vertex   2.100000e+001 -3.856000e+001 6.000000e+000
    endloop
  endfacet
  facet normal -0.000000e+000 0.000000e+000 1.000000e+000
    outer loop
      vertex   2.100000e+001 -3.856000e+001 6.000000e+000
      vertex   2.124698e+001 -3.912366e+001 6.000000e+000
      vertex   2.156366e+001 -3.880698e+001 6.000000e+000
    endloop
  endfacet
  facet normal 0.000000e+000 0.000000e+000 1.000000e+000
    outer loop
      vertex   2.180194e+001 -3.842777e+001 6.000000e+000
      vertex   2.100000e+001 -3.856000e+001 6.000000e+000
      vertex   2.156366e+001 -3.880698e+001 6.000000e+000
    endloop
  endfacet
  facet normal 0.000000e+000 -0.000000e+000 1.000000e+000
    outer loop
      vertex   2.180194e+001 -3.842777e+001 6.000000e+000
      vertex   2.194986e+001 -3.800504e+001 6.000000e+000
      vertex   2.100000e+001 -3.856000e+001 6.000000e+000
    endloop
  endfacet
  facet normal 0.000000e+000 0.000000e+000 1.000000e+000
    outer loop
      vertex   2.100000e+001 -3.856000e+001 6.000000e+000
      vertex   2.194986e+001 -3.800504e+001 6.000000e+000
      vertex   2.200000e+001 -3.756000e+001 6.000000e+000
    endloop
  endfacet
  facet normal -0.000000e+000 -0.000000e+000 1.000000e+000
    outer loop
      vertex   2.100000e+001 -3.044000e+001 6.000000e+000
      vertex   2.200000e+001 -3.756000e+001 6.000000e+000
      vertex   2.100000e+001 -4.400000e-001 6.000000e+000
    endloop
  endfacet
  facet normal -0.000000e+000 0.000000e+000 1.000000e+000
    outer loop
      vertex   -2.100000e+001 -4.400000e-001 6.000000e+000
      vertex   2.100000e+001 -3.044000e+001 6.000000e+000
      vertex   2.100000e+001 -4.400000e-001 6.000000e+000
    endloop
  endfacet
  facet normal -0.000000e+000 0.000000e+000 1.000000e+000
    outer loop
      vertex   -2.100000e+001 -4.400000e-001 6.000000e+000
      vertex   -2.100000e+001 -3.044000e+001 6.000000e+000
      vertex   2.100000e+001 -3.044000e+001 6.000000e+000
    endloop
  endfacet
  facet normal -0.000000e+000 0.000000e+000 1.000000e+000
    outer loop
      vertex   -2.100000e+001 -4.400000e-001 6.000000e+000
      vertex   -2.200000e+001 -3.756000e+001 6.000000e+000
      vertex   -2.100000e+001 -3.044000e+001 6.000000e+000
    endloop
  endfacet
  facet normal 0.000000e+000 0.000000e+000 1.000000e+000
    outer loop
      vertex   -2.100000e+001 -4.400000e-001 6.000000e+000
      vertex   -2.200000e+001 3.756000e+001 6.000000e+000
      vertex   -2.200000e+001 -3.756000e+001 6.000000e+000
    endloop
  endfacet
  facet normal 0.000000e+000 -0.000000e+000 1.000000e+000
    outer loop
      vertex   -2.100000e+001 -4.400000e-001 6.000000e+000
      vertex   -2.100000e+001 6.080000e+000 6.000000e+000
      vertex   -2.200000e+001 3.756000e+001 6.000000e+000
    endloop
  endfacet
  facet normal -0.000000e+000 -0.000000e+000 1.000000e+000
    outer loop
      vertex   -2.200000e+001 3.756000e+001 6.000000e+000
      vertex   -2.100000e+001 6.080000e+000 6.000000e+000
      vertex   -2.100000e+001 3.408000e+001 6.000000e+000
    endloop
  endfacet
  facet normal 0.000000e+000 0.000000e+000 1.000000e+000
    outer loop
      vertex   -2.100000e+001 3.820000e+001 6.000000e+000
      vertex   -2.200000e+001 3.756000e+001 6.000000e+000
      vertex   -2.100000e+001 3.408000e+001 6.000000e+000
    endloop
  endfacet
  facet normal 0.000000e+000 0.000000e+000 1.000000e+000
    outer loop
      vertex   -2.100000e+001 3.820000e+001 6.000000e+000
      vertex   -2.194986e+001 3.800504e+001 6.000000e+000
      vertex   -2.200000e+001 3.756000e+001 6.000000e+000
    endloop
  endfacet
  facet normal 0.000000e+000 0.000000e+000 1.000000e+000
    outer loop
      vertex   -2.100000e+001 3.820000e+001 6.000000e+000
      vertex   -2.180194e+001 3.842777e+001 6.000000e+000
      vertex   -2.194986e+001 3.800504e+001 6.000000e+000
    endloop
  endfacet
  facet normal 0.000000e+000 0.000000e+000 1.000000e+000
    outer loop
      vertex   -2.100000e+001 3.820000e+001 6.000000e+000
      vertex   -2.156366e+001 3.880698e+001 6.000000e+000
      vertex   -2.180194e+001 3.842777e+001 6.000000e+000
    endloop
  endfacet
  facet normal 0.000000e+000 0.000000e+000 1.000000e+000
    outer loop
      vertex   -2.100000e+001 3.820000e+001 6.000000e+000
      vertex   -2.124698e+001 3.912366e+001 6.000000e+000
      vertex   -2.156366e+001 3.880698e+001 6.000000e+000
    endloop
  endfacet
  facet normal 0.000000e+000 -0.000000e+000 1.000000e+000
    outer loop
      vertex   -2.100000e+001 3.820000e+001 6.000000e+000
      vertex   -2.086777e+001 3.936194e+001 6.000000e+000
      vertex   -2.124698e+001 3.912366e+001 6.000000e+000
    endloop
  endfacet
  facet normal 0.000000e+000 -0.000000e+000 1.000000e+000
    outer loop
      vertex   -2.100000e+001 3.820000e+001 6.000000e+000
      vertex   -2.044504e+001 3.950986e+001 6.000000e+000
      vertex   -2.086777e+001 3.936194e+001 6.000000e+000
    endloop
  endfacet
  facet normal 0.000000e+000 -0.000000e+000 1.000000e+000
    outer loop
      vertex   -2.100000e+001 3.820000e+001 6.000000e+000
      vertex   -2.000000e+001 3.956000e+001 6.000000e+000
      vertex   -2.044504e+001 3.950986e+001 6.000000e+000
    endloop
  endfacet
  facet normal 0.000000e+000 -0.000000e+000 1.000000e+000
    outer loop
      vertex   -2.100000e+001 3.820000e+001 6.000000e+000
      vertex   2.100000e+001 3.820000e+001 6.000000e+000
      vertex   -2.000000e+001 3.956000e+001 6.000000e+000
    endloop
  endfacet
  facet normal -0.000000e+000 -0.000000e+000 1.000000e+000
    outer loop
      vertex   -2.000000e+001 3.956000e+001 6.000000e+000
      vertex   2.100000e+001 3.820000e+001 6.000000e+000
      vertex   2.000000e+001 3.956000e+001 6.000000e+000
    endloop
  endfacet
  facet normal -0.000000e+000 -0.000000e+000 1.000000e+000
    outer loop
      vertex   2.000000e+001 3.956000e+001 6.000000e+000
      vertex   2.100000e+001 3.820000e+001 6.000000e+000
      vertex   2.044504e+001 3.950986e+001 6.000000e+000
    endloop
  endfacet
  facet normal -0.000000e+000 -0.000000e+000 1.000000e+000
    outer loop
      vertex   2.044504e+001 3.950986e+001 6.000000e+000
      vertex   2.100000e+001 3.820000e+001 6.000000e+000
      vertex   2.086777e+001 3.936194e+001 6.000000e+000
    endloop
  endfacet
  facet normal -0.000000e+000 0.000000e+000 1.000000e+000
    outer loop
      vertex   2.086777e+001 3.936194e+001 6.000000e+000
      vertex   2.100000e+001 3.820000e+001 6.000000e+000
      vertex   2.124698e+001 3.912366e+001 6.000000e+000
    endloop
  endfacet
  facet normal -0.000000e+000 0.000000e+000 1.000000e+000
    outer loop
      vertex   2.124698e+001 3.912366e+001 6.000000e+000
      vertex   2.100000e+001 3.820000e+001 6.000000e+000
      vertex   2.156366e+001 3.880698e+001 6.000000e+000
    endloop
  endfacet
  facet normal -0.000000e+000 0.000000e+000 1.000000e+000
    outer loop
      vertex   2.156366e+001 3.880698e+001 6.000000e+000
      vertex   2.100000e+001 3.820000e+001 6.000000e+000
      vertex   2.180194e+001 3.842777e+001 6.000000e+000
    endloop
  endfacet
  facet normal 0.000000e+000 0.000000e+000 1.000000e+000
    outer loop
      vertex   2.180194e+001 3.842777e+001 6.000000e+000
      vertex   2.100000e+001 3.820000e+001 6.000000e+000
      vertex   2.194986e+001 3.800504e+001 6.000000e+000
    endloop
  endfacet
  facet normal 0.000000e+000 0.000000e+000 1.000000e+000
    outer loop
      vertex   2.194986e+001 3.800504e+001 6.000000e+000
      vertex   2.100000e+001 3.820000e+001 6.000000e+000
      vertex   2.200000e+001 3.756000e+001 6.000000e+000
    endloop
  endfacet
  facet normal 0.000000e+000 0.000000e+000 1.000000e+000
    outer loop
      vertex   2.200000e+001 3.756000e+001 6.000000e+000
      vertex   2.100000e+001 3.820000e+001 6.000000e+000
      vertex   2.100000e+001 3.408000e+001 6.000000e+000
    endloop
  endfacet
  facet normal 0.000000e+000 0.000000e+000 1.000000e+000
    outer loop
      vertex   2.100000e+001 6.080000e+000 6.000000e+000
      vertex   2.100000e+001 3.408000e+001 6.000000e+000
      vertex   -2.100000e+001 3.408000e+001 6.000000e+000
    endloop
  endfacet
  facet normal 0.000000e+000 -0.000000e+000 1.000000e+000
    outer loop
      vertex   -2.100000e+001 6.080000e+000 6.000000e+000
      vertex   2.100000e+001 6.080000e+000 6.000000e+000
      vertex   -2.100000e+001 3.408000e+001 6.000000e+000
    endloop
  endfacet
  facet normal 0.000000e+000 -0.000000e+000 1.000000e+000
    outer loop
      vertex   2.200000e+001 -3.756000e+001 6.000000e+000
      vertex   2.200000e+001 3.756000e+001 6.000000e+000
      vertex   2.100000e+001 -4.400000e-001 6.000000e+000
    endloop
  endfacet
  facet normal 0.000000e+000 -0.000000e+000 1.000000e+000
    outer loop
      vertex   2.100000e+001 -4.400000e-001 6.000000e+000
      vertex   2.200000e+001 3.756000e+001 6.000000e+000
      vertex   2.100000e+001 6.080000e+000 6.000000e+000
    endloop
  endfacet
  facet normal 0.000000e+000 -0.000000e+000 1.000000e+000
    outer loop
      vertex   2.100000e+001 6.080000e+000 6.000000e+000
      vertex   2.200000e+001 3.756000e+001 6.000000e+000
      vertex   2.100000e+001 3.408000e+001 6.000000e+000
    endloop
  endfacet
  facet normal -0.000000e+000 0.000000e+000 1.000000e+000
    outer loop
      vertex   2.100000e+001 -3.044000e+001 6.000000e+000
      vertex   2.100000e+001 -3.856000e+001 6.000000e+000
      vertex   2.200000e+001 -3.756000e+001 6.000000e+000
    endloop
  endfacet
  facet normal 0.000000e+000 0.000000e+000 1.000000e+000
    outer loop
      vertex   -2.100000e+001 -3.856000e+001 6.000000e+000
      vertex   -2.100000e+001 -3.044000e+001 6.000000e+000
      vertex   -2.200000e+001 -3.756000e+001 6.000000e+000
    endloop
  endfacet
endsolid
