solid ascii
  facet normal 6.001206e-017 -1.440855e-013 1.000000e+000
    outer loop
      vertex   1.600000e+001 2.000000e+000 -3.052530e+000
      vertex   -2.100000e+001 2.000000e+000 -3.052530e+000
      vertex   1.600000e+001 1.990754e+000 -3.052530e+000
    endloop
  endfacet
  facet normal 9.601929e-017 0.000000e+000 1.000000e+000
    outer loop
      vertex   1.600000e+001 1.990754e+000 -3.052530e+000
      vertex   -2.100000e+001 2.000000e+000 -3.052530e+000
      vertex   -2.100000e+001 1.990754e+000 -3.052530e+000
    endloop
  endfacet
  facet normal -9.001808e-017 0.000000e+000 -1.000000e+000
    outer loop
      vertex   -2.100000e+001 2.990754e+000 -1.052530e+000
      vertex   1.600000e+001 2.990754e+000 -1.052530e+000
      vertex   -2.100000e+001 1.990754e+000 -1.052530e+000
    endloop
  endfacet
  facet normal -9.001808e-017 -0.000000e+000 -1.000000e+000
    outer loop
      vertex   -2.100000e+001 1.990754e+000 -1.052530e+000
      vertex   1.600000e+001 2.990754e+000 -1.052530e+000
      vertex   1.600000e+001 1.990754e+000 -1.052530e+000
    endloop
  endfacet
  facet normal -0.000000e+000 -1.000000e+000 0.000000e+000
    outer loop
      vertex   1.600000e+001 2.990754e+000 -3.000000e+000
      vertex   1.600000e+001 2.990754e+000 -1.052530e+000
      vertex   -2.100000e+001 2.990754e+000 -3.000000e+000
    endloop
  endfacet
  facet normal 0.000000e+000 -1.000000e+000 0.000000e+000
    outer loop
      vertex   -2.100000e+001 2.990754e+000 -3.000000e+000
      vertex   1.600000e+001 2.990754e+000 -1.052530e+000
      vertex   -2.100000e+001 2.990754e+000 -1.052530e+000
    endloop
  endfacet
  facet normal -1.066028e-032 1.000000e+000 -1.110223e-016
    outer loop
      vertex   -2.100000e+001 1.990754e+000 -3.052530e+000
      vertex   -2.100000e+001 1.990754e+000 -1.052530e+000
      vertex   1.600000e+001 1.990754e+000 -3.052530e+000
    endloop
  endfacet
  facet normal -9.994015e-033 1.000000e+000 -1.110223e-016
    outer loop
      vertex   1.600000e+001 1.990754e+000 -3.052530e+000
      vertex   -2.100000e+001 1.990754e+000 -1.052530e+000
      vertex   1.600000e+001 1.990754e+000 -1.052530e+000
    endloop
  endfacet
  facet normal 0.000000e+000 -1.000000e+000 0.000000e+000
    outer loop
      vertex   -2.100000e+001 3.000000e+000 -1.900000e+001
      vertex   -2.100000e+001 3.000000e+000 -2.100000e+001
      vertex   1.600000e+001 3.000000e+000 -1.900000e+001
    endloop
  endfacet
  facet normal 0.000000e+000 -1.000000e+000 -0.000000e+000
    outer loop
      vertex   1.600000e+001 3.000000e+000 -1.900000e+001
      vertex   -2.100000e+001 3.000000e+000 -2.100000e+001
      vertex   1.600000e+001 3.000000e+000 -2.100000e+001
    endloop
  endfacet
  facet normal 1.920386e-016 0.000000e+000 1.000000e+000
    outer loop
      vertex   -2.100000e+001 2.000000e+000 -2.100000e+001
      vertex   1.600000e+001 2.000000e+000 -2.100000e+001
      vertex   -2.100000e+001 3.000000e+000 -2.100000e+001
    endloop
  endfacet
  facet normal 1.920386e-016 -0.000000e+000 1.000000e+000
    outer loop
      vertex   -2.100000e+001 3.000000e+000 -2.100000e+001
      vertex   1.600000e+001 2.000000e+000 -2.100000e+001
      vertex   1.600000e+001 3.000000e+000 -2.100000e+001
    endloop
  endfacet
  facet normal 0.000000e+000 1.000000e+000 0.000000e+000
    outer loop
      vertex   1.600000e+001 2.000000e+000 -3.052530e+000
      vertex   1.600000e+001 2.000000e+000 -2.100000e+001
      vertex   -2.100000e+001 2.000000e+000 -3.052530e+000
    endloop
  endfacet
  facet normal 0.000000e+000 1.000000e+000 0.000000e+000
    outer loop
      vertex   -2.100000e+001 2.000000e+000 -3.052530e+000
      vertex   1.600000e+001 2.000000e+000 -2.100000e+001
      vertex   -2.100000e+001 2.000000e+000 -2.100000e+001
    endloop
  endfacet
  facet normal -1.000000e+000 3.842280e-013 -4.265788e-029
    outer loop
      vertex   1.600000e+001 1.990754e+000 -3.052530e+000
      vertex   1.600000e+001 1.990754e+000 -1.052530e+000
      vertex   1.600000e+001 2.000000e+000 -3.052530e+000
    endloop
  endfacet
  facet normal -1.000000e+000 0.000000e+000 -1.776357e-015
    outer loop
      vertex   1.600000e+001 2.000000e+000 -3.052530e+000
      vertex   1.600000e+001 1.990754e+000 -1.052530e+000
      vertex   1.600000e+001 2.990754e+000 -1.052530e+000
    endloop
  endfacet
  facet normal -1.000000e+000 -3.585870e-015 0.000000e+000
    outer loop
      vertex   1.600000e+001 2.990754e+000 -3.000000e+000
      vertex   1.600000e+001 2.000000e+000 -3.052530e+000
      vertex   1.600000e+001 2.990754e+000 -1.052530e+000
    endloop
  endfacet
  facet normal -1.000000e+000 -3.585760e-015 -2.072204e-018
    outer loop
      vertex   1.600000e+001 2.990754e+000 -3.000000e+000
      vertex   1.600000e+001 3.000000e+000 -1.900000e+001
      vertex   1.600000e+001 2.000000e+000 -3.052530e+000
    endloop
  endfacet
  facet normal -1.000000e+000 3.520165e-015 2.034296e-018
    outer loop
      vertex   1.600000e+001 2.990754e+000 -3.000000e+000
      vertex   1.600000e+001 4.000000e+000 -3.000000e+000
      vertex   1.600000e+001 3.000000e+000 -1.900000e+001
    endloop
  endfacet
  facet normal -1.000000e+000 3.552714e-015 0.000000e+000
    outer loop
      vertex   1.600000e+001 3.000000e+000 -1.900000e+001
      vertex   1.600000e+001 4.000000e+000 -3.000000e+000
      vertex   1.600000e+001 4.000000e+000 -1.900000e+001
    endloop
  endfacet
  facet normal -1.000000e+000 0.000000e+000 0.000000e+000
    outer loop
      vertex   1.600000e+001 3.000000e+000 -2.100000e+001
      vertex   1.600000e+001 2.000000e+000 -2.100000e+001
      vertex   1.600000e+001 3.000000e+000 -1.900000e+001
    endloop
  endfacet
  facet normal -1.000000e+000 -3.959013e-016 1.979507e-016
    outer loop
      vertex   1.600000e+001 3.000000e+000 -1.900000e+001
      vertex   1.600000e+001 2.000000e+000 -2.100000e+001
      vertex   1.600000e+001 2.000000e+000 -3.052530e+000
    endloop
  endfacet
  facet normal -1.000000e+000 3.552714e-015 0.000000e+000
    outer loop
      vertex   -2.100000e+001 3.000000e+000 -2.100000e+001
      vertex   -2.100000e+001 3.000000e+000 -1.900000e+001
      vertex   -2.100000e+001 4.000000e+000 -2.100000e+001
    endloop
  endfacet
  facet normal -1.000000e+000 3.552714e-015 0.000000e+000
    outer loop
      vertex   -2.100000e+001 4.000000e+000 -2.100000e+001
      vertex   -2.100000e+001 3.000000e+000 -1.900000e+001
      vertex   -2.100000e+001 4.000000e+000 -1.900000e+001
    endloop
  endfacet
  facet normal 1.920386e-016 0.000000e+000 1.000000e+000
    outer loop
      vertex   -2.100000e+001 3.000000e+000 -1.900000e+001
      vertex   1.600000e+001 3.000000e+000 -1.900000e+001
      vertex   -2.100000e+001 4.000000e+000 -1.900000e+001
    endloop
  endfacet
  facet normal 0.000000e+000 -7.105427e-015 1.000000e+000
    outer loop
      vertex   -2.100000e+001 4.000000e+000 -1.900000e+001
      vertex   1.600000e+001 3.000000e+000 -1.900000e+001
      vertex   1.600000e+001 4.000000e+000 -1.900000e+001
    endloop
  endfacet
  facet normal -1.200241e-016 6.760075e-031 -1.000000e+000
    outer loop
      vertex   1.600000e+001 2.990754e+000 -3.000000e+000
      vertex   -2.100000e+001 2.990754e+000 -3.000000e+000
      vertex   1.600000e+001 4.000000e+000 -3.000000e+000
    endloop
  endfacet
  facet normal -1.200241e-016 4.225047e-031 -1.000000e+000
    outer loop
      vertex   1.600000e+001 4.000000e+000 -3.000000e+000
      vertex   -2.100000e+001 2.990754e+000 -3.000000e+000
      vertex   -2.100000e+001 4.000000e+000 -3.000000e+000
    endloop
  endfacet
  facet normal -0.000000e+000 1.000000e+000 0.000000e+000
    outer loop
      vertex   -2.100000e+001 4.000000e+000 -2.100000e+001
      vertex   -2.100000e+001 4.000000e+000 -1.900000e+001
      vertex   -1.900000e+001 4.000000e+000 -2.300000e+001
    endloop
  endfacet
  facet normal -0.000000e+000 1.000000e+000 -0.000000e+000
    outer loop
      vertex   -1.939018e+001 4.000000e+000 -2.296157e+001
      vertex   -2.100000e+001 4.000000e+000 -2.100000e+001
      vertex   -1.900000e+001 4.000000e+000 -2.300000e+001
    endloop
  endfacet
  facet normal 0.000000e+000 1.000000e+000 0.000000e+000
    outer loop
      vertex   -1.939018e+001 4.000000e+000 -2.296157e+001
      vertex   -1.976537e+001 4.000000e+000 -2.284776e+001
      vertex   -2.100000e+001 4.000000e+000 -2.100000e+001
    endloop
  endfacet
  facet normal 0.000000e+000 1.000000e+000 0.000000e+000
    outer loop
      vertex   -2.100000e+001 4.000000e+000 -2.100000e+001
      vertex   -1.976537e+001 4.000000e+000 -2.284776e+001
      vertex   -2.011114e+001 4.000000e+000 -2.266294e+001
    endloop
  endfacet
  facet normal -0.000000e+000 1.000000e+000 -0.000000e+000
    outer loop
      vertex   -2.041421e+001 4.000000e+000 -2.241421e+001
      vertex   -2.100000e+001 4.000000e+000 -2.100000e+001
      vertex   -2.011114e+001 4.000000e+000 -2.266294e+001
    endloop
  endfacet
  facet normal 0.000000e+000 1.000000e+000 0.000000e+000
    outer loop
      vertex   -2.041421e+001 4.000000e+000 -2.241421e+001
      vertex   -2.066294e+001 4.000000e+000 -2.211114e+001
      vertex   -2.100000e+001 4.000000e+000 -2.100000e+001
    endloop
  endfacet
  facet normal 0.000000e+000 1.000000e+000 0.000000e+000
    outer loop
      vertex   -2.100000e+001 4.000000e+000 -2.100000e+001
      vertex   -2.066294e+001 4.000000e+000 -2.211114e+001
      vertex   -2.084776e+001 4.000000e+000 -2.176537e+001
    endloop
  endfacet
  facet normal -0.000000e+000 1.000000e+000 -0.000000e+000
    outer loop
      vertex   -2.096157e+001 4.000000e+000 -2.139018e+001
      vertex   -2.100000e+001 4.000000e+000 -2.100000e+001
      vertex   -2.084776e+001 4.000000e+000 -2.176537e+001
    endloop
  endfacet
  facet normal 0.000000e+000 1.000000e+000 0.000000e+000
    outer loop
      vertex   1.600000e+001 4.000000e+000 -3.000000e+000
      vertex   2.100000e+001 4.000000e+000 -2.100000e+001
      vertex   1.600000e+001 4.000000e+000 -1.900000e+001
    endloop
  endfacet
  facet normal -0.000000e+000 1.000000e+000 0.000000e+000
    outer loop
      vertex   1.600000e+001 4.000000e+000 -3.000000e+000
      vertex   2.100000e+001 4.000000e+000 2.100000e+001
      vertex   2.100000e+001 4.000000e+000 -2.100000e+001
    endloop
  endfacet
  facet normal -0.000000e+000 1.000000e+000 0.000000e+000
    outer loop
      vertex   1.600000e+001 4.000000e+000 -3.000000e+000
      vertex   1.900000e+001 4.000000e+000 2.300000e+001
      vertex   2.100000e+001 4.000000e+000 2.100000e+001
    endloop
  endfacet
  facet normal 0.000000e+000 1.000000e+000 -0.000000e+000
    outer loop
      vertex   1.600000e+001 4.000000e+000 -3.000000e+000
      vertex   -1.900000e+001 4.000000e+000 2.300000e+001
      vertex   1.900000e+001 4.000000e+000 2.300000e+001
    endloop
  endfacet
  facet normal 0.000000e+000 1.000000e+000 -0.000000e+000
    outer loop
      vertex   1.600000e+001 4.000000e+000 -3.000000e+000
      vertex   -2.100000e+001 4.000000e+000 -3.000000e+000
      vertex   -1.900000e+001 4.000000e+000 2.300000e+001
    endloop
  endfacet
  facet normal 0.000000e+000 1.000000e+000 -0.000000e+000
    outer loop
      vertex   -1.900000e+001 4.000000e+000 2.300000e+001
      vertex   -2.100000e+001 4.000000e+000 -3.000000e+000
      vertex   -2.100000e+001 4.000000e+000 2.100000e+001
    endloop
  endfacet
  facet normal 0.000000e+000 1.000000e+000 -0.000000e+000
    outer loop
      vertex   -1.939018e+001 4.000000e+000 2.296157e+001
      vertex   -2.100000e+001 4.000000e+000 2.100000e+001
      vertex   -1.976537e+001 4.000000e+000 2.284776e+001
    endloop
  endfacet
  facet normal -0.000000e+000 1.000000e+000 0.000000e+000
    outer loop
      vertex   -1.939018e+001 4.000000e+000 2.296157e+001
      vertex   -1.900000e+001 4.000000e+000 2.300000e+001
      vertex   -2.100000e+001 4.000000e+000 2.100000e+001
    endloop
  endfacet
  facet normal -0.000000e+000 1.000000e+000 0.000000e+000
    outer loop
      vertex   -2.096157e+001 4.000000e+000 2.139018e+001
      vertex   -2.084776e+001 4.000000e+000 2.176537e+001
      vertex   -2.100000e+001 4.000000e+000 2.100000e+001
    endloop
  endfacet
  facet normal 0.000000e+000 1.000000e+000 0.000000e+000
    outer loop
      vertex   -2.100000e+001 4.000000e+000 2.100000e+001
      vertex   -2.084776e+001 4.000000e+000 2.176537e+001
      vertex   -2.066294e+001 4.000000e+000 2.211114e+001
    endloop
  endfacet
  facet normal 0.000000e+000 1.000000e+000 -0.000000e+000
    outer loop
      vertex   -2.041421e+001 4.000000e+000 2.241421e+001
      vertex   -2.100000e+001 4.000000e+000 2.100000e+001
      vertex   -2.066294e+001 4.000000e+000 2.211114e+001
    endloop
  endfacet
  facet normal -0.000000e+000 1.000000e+000 0.000000e+000
    outer loop
      vertex   -2.041421e+001 4.000000e+000 2.241421e+001
      vertex   -2.011114e+001 4.000000e+000 2.266294e+001
      vertex   -2.100000e+001 4.000000e+000 2.100000e+001
    endloop
  endfacet
  facet normal 0.000000e+000 1.000000e+000 0.000000e+000
    outer loop
      vertex   -2.100000e+001 4.000000e+000 2.100000e+001
      vertex   -2.011114e+001 4.000000e+000 2.266294e+001
      vertex   -1.976537e+001 4.000000e+000 2.284776e+001
    endloop
  endfacet
  facet normal 0.000000e+000 1.000000e+000 0.000000e+000
    outer loop
      vertex   1.900000e+001 4.000000e+000 2.300000e+001
      vertex   1.939018e+001 4.000000e+000 2.296157e+001
      vertex   2.100000e+001 4.000000e+000 2.100000e+001
    endloop
  endfacet
  facet normal -0.000000e+000 1.000000e+000 -0.000000e+000
    outer loop
      vertex   2.100000e+001 4.000000e+000 2.100000e+001
      vertex   1.939018e+001 4.000000e+000 2.296157e+001
      vertex   1.976537e+001 4.000000e+000 2.284776e+001
    endloop
  endfacet
  facet normal 0.000000e+000 1.000000e+000 0.000000e+000
    outer loop
      vertex   2.011114e+001 4.000000e+000 2.266294e+001
      vertex   2.100000e+001 4.000000e+000 2.100000e+001
      vertex   1.976537e+001 4.000000e+000 2.284776e+001
    endloop
  endfacet
  facet normal 0.000000e+000 1.000000e+000 0.000000e+000
    outer loop
      vertex   2.011114e+001 4.000000e+000 2.266294e+001
      vertex   2.041421e+001 4.000000e+000 2.241421e+001
      vertex   2.100000e+001 4.000000e+000 2.100000e+001
    endloop
  endfacet
  facet normal -0.000000e+000 1.000000e+000 -0.000000e+000
    outer loop
      vertex   2.100000e+001 4.000000e+000 2.100000e+001
      vertex   2.041421e+001 4.000000e+000 2.241421e+001
      vertex   2.066294e+001 4.000000e+000 2.211114e+001
    endloop
  endfacet
  facet normal 0.000000e+000 1.000000e+000 0.000000e+000
    outer loop
      vertex   2.084776e+001 4.000000e+000 2.176537e+001
      vertex   2.100000e+001 4.000000e+000 2.100000e+001
      vertex   2.066294e+001 4.000000e+000 2.211114e+001
    endloop
  endfacet
  facet normal 0.000000e+000 1.000000e+000 0.000000e+000
    outer loop
      vertex   2.084776e+001 4.000000e+000 2.176537e+001
      vertex   2.096157e+001 4.000000e+000 2.139018e+001
      vertex   2.100000e+001 4.000000e+000 2.100000e+001
    endloop
  endfacet
  facet normal 0.000000e+000 1.000000e+000 -0.000000e+000
    outer loop
      vertex   2.096157e+001 4.000000e+000 -2.139018e+001
      vertex   2.084776e+001 4.000000e+000 -2.176537e+001
      vertex   2.100000e+001 4.000000e+000 -2.100000e+001
    endloop
  endfacet
  facet normal 0.000000e+000 1.000000e+000 0.000000e+000
    outer loop
      vertex   2.100000e+001 4.000000e+000 -2.100000e+001
      vertex   2.084776e+001 4.000000e+000 -2.176537e+001
      vertex   2.066294e+001 4.000000e+000 -2.211114e+001
    endloop
  endfacet
  facet normal -0.000000e+000 1.000000e+000 0.000000e+000
    outer loop
      vertex   2.041421e+001 4.000000e+000 -2.241421e+001
      vertex   2.100000e+001 4.000000e+000 -2.100000e+001
      vertex   2.066294e+001 4.000000e+000 -2.211114e+001
    endloop
  endfacet
  facet normal 0.000000e+000 1.000000e+000 -0.000000e+000
    outer loop
      vertex   2.041421e+001 4.000000e+000 -2.241421e+001
      vertex   2.011114e+001 4.000000e+000 -2.266294e+001
      vertex   2.100000e+001 4.000000e+000 -2.100000e+001
    endloop
  endfacet
  facet normal 0.000000e+000 1.000000e+000 0.000000e+000
    outer loop
      vertex   2.100000e+001 4.000000e+000 -2.100000e+001
      vertex   2.011114e+001 4.000000e+000 -2.266294e+001
      vertex   1.976537e+001 4.000000e+000 -2.284776e+001
    endloop
  endfacet
  facet normal -0.000000e+000 1.000000e+000 0.000000e+000
    outer loop
      vertex   1.939018e+001 4.000000e+000 -2.296157e+001
      vertex   2.100000e+001 4.000000e+000 -2.100000e+001
      vertex   1.976537e+001 4.000000e+000 -2.284776e+001
    endloop
  endfacet
  facet normal 0.000000e+000 1.000000e+000 -0.000000e+000
    outer loop
      vertex   1.939018e+001 4.000000e+000 -2.296157e+001
      vertex   1.900000e+001 4.000000e+000 -2.300000e+001
      vertex   2.100000e+001 4.000000e+000 -2.100000e+001
    endloop
  endfacet
  facet normal 0.000000e+000 1.000000e+000 0.000000e+000
    outer loop
      vertex   2.100000e+001 4.000000e+000 -2.100000e+001
      vertex   1.900000e+001 4.000000e+000 -2.300000e+001
      vertex   1.600000e+001 4.000000e+000 -1.900000e+001
    endloop
  endfacet
  facet normal 0.000000e+000 1.000000e+000 0.000000e+000
    outer loop
      vertex   1.600000e+001 4.000000e+000 -1.900000e+001
      vertex   1.900000e+001 4.000000e+000 -2.300000e+001
      vertex   -1.900000e+001 4.000000e+000 -2.300000e+001
    endloop
  endfacet
  facet normal -0.000000e+000 1.000000e+000 0.000000e+000
    outer loop
      vertex   -2.100000e+001 4.000000e+000 -1.900000e+001
      vertex   1.600000e+001 4.000000e+000 -1.900000e+001
      vertex   -1.900000e+001 4.000000e+000 -2.300000e+001
    endloop
  endfacet
  facet normal 9.951847e-001 -0.000000e+000 9.801714e-002
    outer loop
      vertex   2.100000e+001 0.000000e+000 2.100000e+001
      vertex   2.100000e+001 4.000000e+000 2.100000e+001
      vertex   2.096157e+001 0.000000e+000 2.139018e+001
    endloop
  endfacet
  facet normal 9.951847e-001 0.000000e+000 9.801714e-002
    outer loop
      vertex   2.096157e+001 0.000000e+000 2.139018e+001
      vertex   2.100000e+001 4.000000e+000 2.100000e+001
      vertex   2.096157e+001 4.000000e+000 2.139018e+001
    endloop
  endfacet
  facet normal 9.569403e-001 0.000000e+000 2.902847e-001
    outer loop
      vertex   2.084776e+001 0.000000e+000 2.176537e+001
      vertex   2.096157e+001 4.000000e+000 2.139018e+001
      vertex   2.084776e+001 4.000000e+000 2.176537e+001
    endloop
  endfacet
  facet normal 8.819213e-001 0.000000e+000 4.713967e-001
    outer loop
      vertex   2.066294e+001 0.000000e+000 2.211114e+001
      vertex   2.084776e+001 4.000000e+000 2.176537e+001
      vertex   2.066294e+001 4.000000e+000 2.211114e+001
    endloop
  endfacet
  facet normal 7.730105e-001 0.000000e+000 6.343933e-001
    outer loop
      vertex   2.041421e+001 0.000000e+000 2.241421e+001
      vertex   2.066294e+001 4.000000e+000 2.211114e+001
      vertex   2.041421e+001 4.000000e+000 2.241421e+001
    endloop
  endfacet
  facet normal 6.343933e-001 0.000000e+000 7.730105e-001
    outer loop
      vertex   2.011114e+001 0.000000e+000 2.266294e+001
      vertex   2.041421e+001 4.000000e+000 2.241421e+001
      vertex   2.011114e+001 4.000000e+000 2.266294e+001
    endloop
  endfacet
  facet normal 4.713967e-001 0.000000e+000 8.819213e-001
    outer loop
      vertex   1.976537e+001 0.000000e+000 2.284776e+001
      vertex   2.011114e+001 4.000000e+000 2.266294e+001
      vertex   1.976537e+001 4.000000e+000 2.284776e+001
    endloop
  endfacet
  facet normal 2.902847e-001 0.000000e+000 9.569403e-001
    outer loop
      vertex   1.939018e+001 0.000000e+000 2.296157e+001
      vertex   1.976537e+001 4.000000e+000 2.284776e+001
      vertex   1.939018e+001 4.000000e+000 2.296157e+001
    endloop
  endfacet
  facet normal 9.801714e-002 0.000000e+000 9.951847e-001
    outer loop
      vertex   1.900000e+001 0.000000e+000 2.300000e+001
      vertex   1.939018e+001 4.000000e+000 2.296157e+001
      vertex   1.900000e+001 4.000000e+000 2.300000e+001
    endloop
  endfacet
  facet normal 9.801714e-002 -0.000000e+000 9.951847e-001
    outer loop
      vertex   1.900000e+001 0.000000e+000 2.300000e+001
      vertex   1.939018e+001 0.000000e+000 2.296157e+001
      vertex   1.939018e+001 4.000000e+000 2.296157e+001
    endloop
  endfacet
  facet normal 9.569403e-001 -0.000000e+000 2.902847e-001
    outer loop
      vertex   2.096157e+001 0.000000e+000 2.139018e+001
      vertex   2.096157e+001 4.000000e+000 2.139018e+001
      vertex   2.084776e+001 0.000000e+000 2.176537e+001
    endloop
  endfacet
  facet normal 8.819213e-001 -0.000000e+000 4.713967e-001
    outer loop
      vertex   2.084776e+001 0.000000e+000 2.176537e+001
      vertex   2.084776e+001 4.000000e+000 2.176537e+001
      vertex   2.066294e+001 0.000000e+000 2.211114e+001
    endloop
  endfacet
  facet normal 7.730105e-001 -0.000000e+000 6.343933e-001
    outer loop
      vertex   2.066294e+001 0.000000e+000 2.211114e+001
      vertex   2.066294e+001 4.000000e+000 2.211114e+001
      vertex   2.041421e+001 0.000000e+000 2.241421e+001
    endloop
  endfacet
  facet normal 6.343933e-001 -0.000000e+000 7.730105e-001
    outer loop
      vertex   2.041421e+001 0.000000e+000 2.241421e+001
      vertex   2.041421e+001 4.000000e+000 2.241421e+001
      vertex   2.011114e+001 0.000000e+000 2.266294e+001
    endloop
  endfacet
  facet normal 4.713967e-001 -0.000000e+000 8.819213e-001
    outer loop
      vertex   2.011114e+001 0.000000e+000 2.266294e+001
      vertex   2.011114e+001 4.000000e+000 2.266294e+001
      vertex   1.976537e+001 0.000000e+000 2.284776e+001
    endloop
  endfacet
  facet normal 2.902847e-001 -0.000000e+000 9.569403e-001
    outer loop
      vertex   1.976537e+001 0.000000e+000 2.284776e+001
      vertex   1.976537e+001 4.000000e+000 2.284776e+001
      vertex   1.939018e+001 0.000000e+000 2.296157e+001
    endloop
  endfacet
  facet normal -0.000000e+000 -1.000000e+000 -0.000000e+000
    outer loop
      vertex   2.096157e+001 0.000000e+000 2.139018e+001
      vertex   2.084776e+001 0.000000e+000 2.176537e+001
      vertex   2.100000e+001 0.000000e+000 2.100000e+001
    endloop
  endfacet
  facet normal 0.000000e+000 -1.000000e+000 0.000000e+000
    outer loop
      vertex   2.100000e+001 0.000000e+000 2.100000e+001
      vertex   2.084776e+001 0.000000e+000 2.176537e+001
      vertex   2.066294e+001 0.000000e+000 2.211114e+001
    endloop
  endfacet
  facet normal 0.000000e+000 -1.000000e+000 0.000000e+000
    outer loop
      vertex   2.041421e+001 0.000000e+000 2.241421e+001
      vertex   2.100000e+001 0.000000e+000 2.100000e+001
      vertex   2.066294e+001 0.000000e+000 2.211114e+001
    endloop
  endfacet
  facet normal -0.000000e+000 -1.000000e+000 -0.000000e+000
    outer loop
      vertex   2.041421e+001 0.000000e+000 2.241421e+001
      vertex   2.011114e+001 0.000000e+000 2.266294e+001
      vertex   2.100000e+001 0.000000e+000 2.100000e+001
    endloop
  endfacet
  facet normal 0.000000e+000 -1.000000e+000 0.000000e+000
    outer loop
      vertex   2.100000e+001 0.000000e+000 2.100000e+001
      vertex   2.011114e+001 0.000000e+000 2.266294e+001
      vertex   1.976537e+001 0.000000e+000 2.284776e+001
    endloop
  endfacet
  facet normal 0.000000e+000 -1.000000e+000 0.000000e+000
    outer loop
      vertex   1.939018e+001 0.000000e+000 2.296157e+001
      vertex   2.100000e+001 0.000000e+000 2.100000e+001
      vertex   1.976537e+001 0.000000e+000 2.284776e+001
    endloop
  endfacet
  facet normal -0.000000e+000 -1.000000e+000 -0.000000e+000
    outer loop
      vertex   1.939018e+001 0.000000e+000 2.296157e+001
      vertex   1.900000e+001 0.000000e+000 2.300000e+001
      vertex   2.100000e+001 0.000000e+000 2.100000e+001
    endloop
  endfacet
  facet normal -0.000000e+000 -1.000000e+000 0.000000e+000
    outer loop
      vertex   2.100000e+001 0.000000e+000 2.100000e+001
      vertex   1.900000e+001 0.000000e+000 2.300000e+001
      vertex   1.900000e+001 0.000000e+000 -2.300000e+001
    endloop
  endfacet
  facet normal 0.000000e+000 -1.000000e+000 -0.000000e+000
    outer loop
      vertex   2.100000e+001 0.000000e+000 -2.100000e+001
      vertex   1.900000e+001 0.000000e+000 -2.300000e+001
      vertex   1.939018e+001 0.000000e+000 -2.296157e+001
    endloop
  endfacet
  facet normal -0.000000e+000 -1.000000e+000 0.000000e+000
    outer loop
      vertex   1.976537e+001 0.000000e+000 -2.284776e+001
      vertex   2.100000e+001 0.000000e+000 -2.100000e+001
      vertex   1.939018e+001 0.000000e+000 -2.296157e+001
    endloop
  endfacet
  facet normal 0.000000e+000 -1.000000e+000 0.000000e+000
    outer loop
      vertex   1.976537e+001 0.000000e+000 -2.284776e+001
      vertex   2.011114e+001 0.000000e+000 -2.266294e+001
      vertex   2.100000e+001 0.000000e+000 -2.100000e+001
    endloop
  endfacet
  facet normal 0.000000e+000 -1.000000e+000 -0.000000e+000
    outer loop
      vertex   2.100000e+001 0.000000e+000 -2.100000e+001
      vertex   2.011114e+001 0.000000e+000 -2.266294e+001
      vertex   2.041421e+001 0.000000e+000 -2.241421e+001
    endloop
  endfacet
  facet normal -0.000000e+000 -1.000000e+000 0.000000e+000
    outer loop
      vertex   2.066294e+001 0.000000e+000 -2.211114e+001
      vertex   2.100000e+001 0.000000e+000 -2.100000e+001
      vertex   2.041421e+001 0.000000e+000 -2.241421e+001
    endloop
  endfacet
  facet normal 0.000000e+000 -1.000000e+000 0.000000e+000
    outer loop
      vertex   2.066294e+001 0.000000e+000 -2.211114e+001
      vertex   2.084776e+001 0.000000e+000 -2.176537e+001
      vertex   2.100000e+001 0.000000e+000 -2.100000e+001
    endloop
  endfacet
  facet normal 0.000000e+000 -1.000000e+000 -0.000000e+000
    outer loop
      vertex   2.100000e+001 0.000000e+000 -2.100000e+001
      vertex   2.084776e+001 0.000000e+000 -2.176537e+001
      vertex   2.096157e+001 0.000000e+000 -2.139018e+001
    endloop
  endfacet
  facet normal -0.000000e+000 -1.000000e+000 0.000000e+000
    outer loop
      vertex   1.900000e+001 0.000000e+000 -2.300000e+001
      vertex   1.900000e+001 0.000000e+000 2.300000e+001
      vertex   -1.900000e+001 0.000000e+000 -2.300000e+001
    endloop
  endfacet
  facet normal 0.000000e+000 -1.000000e+000 0.000000e+000
    outer loop
      vertex   -1.900000e+001 0.000000e+000 -2.300000e+001
      vertex   1.900000e+001 0.000000e+000 2.300000e+001
      vertex   -1.900000e+001 0.000000e+000 2.300000e+001
    endloop
  endfacet
  facet normal -0.000000e+000 -1.000000e+000 0.000000e+000
    outer loop
      vertex   -2.100000e+001 0.000000e+000 -2.100000e+001
      vertex   -1.900000e+001 0.000000e+000 2.300000e+001
      vertex   -2.100000e+001 0.000000e+000 2.100000e+001
    endloop
  endfacet
  facet normal 0.000000e+000 -1.000000e+000 0.000000e+000
    outer loop
      vertex   -2.100000e+001 0.000000e+000 -2.100000e+001
      vertex   -1.900000e+001 0.000000e+000 -2.300000e+001
      vertex   -1.900000e+001 0.000000e+000 2.300000e+001
    endloop
  endfacet
  facet normal 0.000000e+000 -1.000000e+000 0.000000e+000
    outer loop
      vertex   -2.100000e+001 0.000000e+000 -2.100000e+001
      vertex   -1.939018e+001 0.000000e+000 -2.296157e+001
      vertex   -1.900000e+001 0.000000e+000 -2.300000e+001
    endloop
  endfacet
  facet normal 0.000000e+000 -1.000000e+000 0.000000e+000
    outer loop
      vertex   -2.100000e+001 0.000000e+000 -2.100000e+001
      vertex   -1.976537e+001 0.000000e+000 -2.284776e+001
      vertex   -1.939018e+001 0.000000e+000 -2.296157e+001
    endloop
  endfacet
  facet normal 0.000000e+000 -1.000000e+000 0.000000e+000
    outer loop
      vertex   -2.100000e+001 0.000000e+000 -2.100000e+001
      vertex   -2.011114e+001 0.000000e+000 -2.266294e+001
      vertex   -1.976537e+001 0.000000e+000 -2.284776e+001
    endloop
  endfacet
  facet normal 0.000000e+000 -1.000000e+000 0.000000e+000
    outer loop
      vertex   -2.100000e+001 0.000000e+000 -2.100000e+001
      vertex   -2.041421e+001 0.000000e+000 -2.241421e+001
      vertex   -2.011114e+001 0.000000e+000 -2.266294e+001
    endloop
  endfacet
  facet normal 0.000000e+000 -1.000000e+000 0.000000e+000
    outer loop
      vertex   -2.100000e+001 0.000000e+000 -2.100000e+001
      vertex   -2.066294e+001 0.000000e+000 -2.211114e+001
      vertex   -2.041421e+001 0.000000e+000 -2.241421e+001
    endloop
  endfacet
  facet normal 0.000000e+000 -1.000000e+000 0.000000e+000
    outer loop
      vertex   -2.100000e+001 0.000000e+000 -2.100000e+001
      vertex   -2.084776e+001 0.000000e+000 -2.176537e+001
      vertex   -2.066294e+001 0.000000e+000 -2.211114e+001
    endloop
  endfacet
  facet normal 0.000000e+000 -1.000000e+000 0.000000e+000
    outer loop
      vertex   -2.100000e+001 0.000000e+000 -2.100000e+001
      vertex   -2.096157e+001 0.000000e+000 -2.139018e+001
      vertex   -2.084776e+001 0.000000e+000 -2.176537e+001
    endloop
  endfacet
  facet normal 0.000000e+000 -1.000000e+000 0.000000e+000
    outer loop
      vertex   -1.900000e+001 0.000000e+000 2.300000e+001
      vertex   -1.939018e+001 0.000000e+000 2.296157e+001
      vertex   -2.100000e+001 0.000000e+000 2.100000e+001
    endloop
  endfacet
  facet normal -0.000000e+000 -1.000000e+000 0.000000e+000
    outer loop
      vertex   -2.100000e+001 0.000000e+000 2.100000e+001
      vertex   -1.939018e+001 0.000000e+000 2.296157e+001
      vertex   -1.976537e+001 0.000000e+000 2.284776e+001
    endloop
  endfacet
  facet normal 0.000000e+000 -1.000000e+000 -0.000000e+000
    outer loop
      vertex   -2.011114e+001 0.000000e+000 2.266294e+001
      vertex   -2.100000e+001 0.000000e+000 2.100000e+001
      vertex   -1.976537e+001 0.000000e+000 2.284776e+001
    endloop
  endfacet
  facet normal 0.000000e+000 -1.000000e+000 0.000000e+000
    outer loop
      vertex   -2.011114e+001 0.000000e+000 2.266294e+001
      vertex   -2.041421e+001 0.000000e+000 2.241421e+001
      vertex   -2.100000e+001 0.000000e+000 2.100000e+001
    endloop
  endfacet
  facet normal -0.000000e+000 -1.000000e+000 0.000000e+000
    outer loop
      vertex   -2.100000e+001 0.000000e+000 2.100000e+001
      vertex   -2.041421e+001 0.000000e+000 2.241421e+001
      vertex   -2.066294e+001 0.000000e+000 2.211114e+001
    endloop
  endfacet
  facet normal 0.000000e+000 -1.000000e+000 -0.000000e+000
    outer loop
      vertex   -2.084776e+001 0.000000e+000 2.176537e+001
      vertex   -2.100000e+001 0.000000e+000 2.100000e+001
      vertex   -2.066294e+001 0.000000e+000 2.211114e+001
    endloop
  endfacet
  facet normal 0.000000e+000 -1.000000e+000 0.000000e+000
    outer loop
      vertex   -2.084776e+001 0.000000e+000 2.176537e+001
      vertex   -2.096157e+001 0.000000e+000 2.139018e+001
      vertex   -2.100000e+001 0.000000e+000 2.100000e+001
    endloop
  endfacet
  facet normal 0.000000e+000 -1.000000e+000 -0.000000e+000
    outer loop
      vertex   2.100000e+001 0.000000e+000 2.100000e+001
      vertex   1.900000e+001 0.000000e+000 -2.300000e+001
      vertex   2.100000e+001 0.000000e+000 -2.100000e+001
    endloop
  endfacet
  facet normal 0.000000e+000 0.000000e+000 1.000000e+000
    outer loop
      vertex   1.900000e+001 4.000000e+000 2.300000e+001
      vertex   -1.900000e+001 4.000000e+000 2.300000e+001
      vertex   1.900000e+001 0.000000e+000 2.300000e+001
    endloop
  endfacet
  facet normal 0.000000e+000 0.000000e+000 1.000000e+000
    outer loop
      vertex   1.900000e+001 0.000000e+000 2.300000e+001
      vertex   -1.900000e+001 4.000000e+000 2.300000e+001
      vertex   -1.900000e+001 0.000000e+000 2.300000e+001
    endloop
  endfacet
  facet normal -9.801714e-002 0.000000e+000 9.951847e-001
    outer loop
      vertex   -1.900000e+001 0.000000e+000 2.300000e+001
      vertex   -1.900000e+001 4.000000e+000 2.300000e+001
      vertex   -1.939018e+001 0.000000e+000 2.296157e+001
    endloop
  endfacet
  facet normal -9.801714e-002 0.000000e+000 9.951847e-001
    outer loop
      vertex   -1.939018e+001 0.000000e+000 2.296157e+001
      vertex   -1.900000e+001 4.000000e+000 2.300000e+001
      vertex   -1.939018e+001 4.000000e+000 2.296157e+001
    endloop
  endfacet
  facet normal -2.902847e-001 0.000000e+000 9.569403e-001
    outer loop
      vertex   -1.976537e+001 0.000000e+000 2.284776e+001
      vertex   -1.939018e+001 4.000000e+000 2.296157e+001
      vertex   -1.976537e+001 4.000000e+000 2.284776e+001
    endloop
  endfacet
  facet normal -4.713967e-001 0.000000e+000 8.819213e-001
    outer loop
      vertex   -2.011114e+001 0.000000e+000 2.266294e+001
      vertex   -1.976537e+001 4.000000e+000 2.284776e+001
      vertex   -2.011114e+001 4.000000e+000 2.266294e+001
    endloop
  endfacet
  facet normal -6.343933e-001 0.000000e+000 7.730105e-001
    outer loop
      vertex   -2.041421e+001 0.000000e+000 2.241421e+001
      vertex   -2.011114e+001 4.000000e+000 2.266294e+001
      vertex   -2.041421e+001 4.000000e+000 2.241421e+001
    endloop
  endfacet
  facet normal -7.730105e-001 0.000000e+000 6.343933e-001
    outer loop
      vertex   -2.066294e+001 0.000000e+000 2.211114e+001
      vertex   -2.041421e+001 4.000000e+000 2.241421e+001
      vertex   -2.066294e+001 4.000000e+000 2.211114e+001
    endloop
  endfacet
  facet normal -8.819213e-001 1.575137e-015 4.713967e-001
    outer loop
      vertex   -2.084776e+001 0.000000e+000 2.176537e+001
      vertex   -2.066294e+001 4.000000e+000 2.211114e+001
      vertex   -2.084776e+001 4.000000e+000 2.176537e+001
    endloop
  endfacet
  facet normal -9.569403e-001 0.000000e+000 2.902847e-001
    outer loop
      vertex   -2.096157e+001 0.000000e+000 2.139018e+001
      vertex   -2.084776e+001 4.000000e+000 2.176537e+001
      vertex   -2.096157e+001 4.000000e+000 2.139018e+001
    endloop
  endfacet
  facet normal -9.951847e-001 0.000000e+000 9.801714e-002
    outer loop
      vertex   -2.100000e+001 0.000000e+000 2.100000e+001
      vertex   -2.096157e+001 4.000000e+000 2.139018e+001
      vertex   -2.100000e+001 4.000000e+000 2.100000e+001
    endloop
  endfacet
  facet normal -9.951847e-001 0.000000e+000 9.801714e-002
    outer loop
      vertex   -2.100000e+001 0.000000e+000 2.100000e+001
      vertex   -2.096157e+001 0.000000e+000 2.139018e+001
      vertex   -2.096157e+001 4.000000e+000 2.139018e+001
    endloop
  endfacet
  facet normal -2.902847e-001 0.000000e+000 9.569403e-001
    outer loop
      vertex   -1.939018e+001 0.000000e+000 2.296157e+001
      vertex   -1.939018e+001 4.000000e+000 2.296157e+001
      vertex   -1.976537e+001 0.000000e+000 2.284776e+001
    endloop
  endfacet
  facet normal -4.713967e-001 0.000000e+000 8.819213e-001
    outer loop
      vertex   -1.976537e+001 0.000000e+000 2.284776e+001
      vertex   -1.976537e+001 4.000000e+000 2.284776e+001
      vertex   -2.011114e+001 0.000000e+000 2.266294e+001
    endloop
  endfacet
  facet normal -6.343933e-001 0.000000e+000 7.730105e-001
    outer loop
      vertex   -2.011114e+001 0.000000e+000 2.266294e+001
      vertex   -2.011114e+001 4.000000e+000 2.266294e+001
      vertex   -2.041421e+001 0.000000e+000 2.241421e+001
    endloop
  endfacet
  facet normal -7.730105e-001 0.000000e+000 6.343933e-001
    outer loop
      vertex   -2.041421e+001 0.000000e+000 2.241421e+001
      vertex   -2.041421e+001 4.000000e+000 2.241421e+001
      vertex   -2.066294e+001 0.000000e+000 2.211114e+001
    endloop
  endfacet
  facet normal -8.819213e-001 0.000000e+000 4.713967e-001
    outer loop
      vertex   -2.066294e+001 0.000000e+000 2.211114e+001
      vertex   -2.066294e+001 4.000000e+000 2.211114e+001
      vertex   -2.084776e+001 0.000000e+000 2.176537e+001
    endloop
  endfacet
  facet normal -9.569403e-001 1.699868e-015 2.902847e-001
    outer loop
      vertex   -2.084776e+001 0.000000e+000 2.176537e+001
      vertex   -2.084776e+001 4.000000e+000 2.176537e+001
      vertex   -2.096157e+001 0.000000e+000 2.139018e+001
    endloop
  endfacet
  facet normal 9.801714e-002 0.000000e+000 -9.951847e-001
    outer loop
      vertex   1.900000e+001 0.000000e+000 -2.300000e+001
      vertex   1.900000e+001 4.000000e+000 -2.300000e+001
      vertex   1.939018e+001 0.000000e+000 -2.296157e+001
    endloop
  endfacet
  facet normal 9.801714e-002 0.000000e+000 -9.951847e-001
    outer loop
      vertex   1.939018e+001 0.000000e+000 -2.296157e+001
      vertex   1.900000e+001 4.000000e+000 -2.300000e+001
      vertex   1.939018e+001 4.000000e+000 -2.296157e+001
    endloop
  endfacet
  facet normal 2.902847e-001 0.000000e+000 -9.569403e-001
    outer loop
      vertex   1.976537e+001 0.000000e+000 -2.284776e+001
      vertex   1.939018e+001 4.000000e+000 -2.296157e+001
      vertex   1.976537e+001 4.000000e+000 -2.284776e+001
    endloop
  endfacet
  facet normal 4.713967e-001 0.000000e+000 -8.819213e-001
    outer loop
      vertex   2.011114e+001 0.000000e+000 -2.266294e+001
      vertex   1.976537e+001 4.000000e+000 -2.284776e+001
      vertex   2.011114e+001 4.000000e+000 -2.266294e+001
    endloop
  endfacet
  facet normal 6.343933e-001 0.000000e+000 -7.730105e-001
    outer loop
      vertex   2.041421e+001 0.000000e+000 -2.241421e+001
      vertex   2.011114e+001 4.000000e+000 -2.266294e+001
      vertex   2.041421e+001 4.000000e+000 -2.241421e+001
    endloop
  endfacet
  facet normal 7.730105e-001 0.000000e+000 -6.343933e-001
    outer loop
      vertex   2.066294e+001 0.000000e+000 -2.211114e+001
      vertex   2.041421e+001 4.000000e+000 -2.241421e+001
      vertex   2.066294e+001 4.000000e+000 -2.211114e+001
    endloop
  endfacet
  facet normal 8.819213e-001 0.000000e+000 -4.713967e-001
    outer loop
      vertex   2.084776e+001 0.000000e+000 -2.176537e+001
      vertex   2.066294e+001 4.000000e+000 -2.211114e+001
      vertex   2.084776e+001 4.000000e+000 -2.176537e+001
    endloop
  endfacet
  facet normal 9.569403e-001 0.000000e+000 -2.902847e-001
    outer loop
      vertex   2.096157e+001 0.000000e+000 -2.139018e+001
      vertex   2.084776e+001 4.000000e+000 -2.176537e+001
      vertex   2.096157e+001 4.000000e+000 -2.139018e+001
    endloop
  endfacet
  facet normal 9.951847e-001 0.000000e+000 -9.801714e-002
    outer loop
      vertex   2.100000e+001 0.000000e+000 -2.100000e+001
      vertex   2.096157e+001 4.000000e+000 -2.139018e+001
      vertex   2.100000e+001 4.000000e+000 -2.100000e+001
    endloop
  endfacet
  facet normal 9.951847e-001 0.000000e+000 -9.801714e-002
    outer loop
      vertex   2.100000e+001 0.000000e+000 -2.100000e+001
      vertex   2.096157e+001 0.000000e+000 -2.139018e+001
      vertex   2.096157e+001 4.000000e+000 -2.139018e+001
    endloop
  endfacet
  facet normal 2.902847e-001 0.000000e+000 -9.569403e-001
    outer loop
      vertex   1.939018e+001 0.000000e+000 -2.296157e+001
      vertex   1.939018e+001 4.000000e+000 -2.296157e+001
      vertex   1.976537e+001 0.000000e+000 -2.284776e+001
    endloop
  endfacet
  facet normal 4.713967e-001 0.000000e+000 -8.819213e-001
    outer loop
      vertex   1.976537e+001 0.000000e+000 -2.284776e+001
      vertex   1.976537e+001 4.000000e+000 -2.284776e+001
      vertex   2.011114e+001 0.000000e+000 -2.266294e+001
    endloop
  endfacet
  facet normal 6.343933e-001 0.000000e+000 -7.730105e-001
    outer loop
      vertex   2.011114e+001 0.000000e+000 -2.266294e+001
      vertex   2.011114e+001 4.000000e+000 -2.266294e+001
      vertex   2.041421e+001 0.000000e+000 -2.241421e+001
    endloop
  endfacet
  facet normal 7.730105e-001 0.000000e+000 -6.343933e-001
    outer loop
      vertex   2.041421e+001 0.000000e+000 -2.241421e+001
      vertex   2.041421e+001 4.000000e+000 -2.241421e+001
      vertex   2.066294e+001 0.000000e+000 -2.211114e+001
    endloop
  endfacet
  facet normal 8.819213e-001 0.000000e+000 -4.713967e-001
    outer loop
      vertex   2.066294e+001 0.000000e+000 -2.211114e+001
      vertex   2.066294e+001 4.000000e+000 -2.211114e+001
      vertex   2.084776e+001 0.000000e+000 -2.176537e+001
    endloop
  endfacet
  facet normal 9.569403e-001 0.000000e+000 -2.902847e-001
    outer loop
      vertex   2.084776e+001 0.000000e+000 -2.176537e+001
      vertex   2.084776e+001 4.000000e+000 -2.176537e+001
      vertex   2.096157e+001 0.000000e+000 -2.139018e+001
    endloop
  endfacet
  facet normal 2.804774e-016 0.000000e+000 -1.000000e+000
    outer loop
      vertex   1.900000e+001 0.000000e+000 -2.300000e+001
      vertex   -1.900000e+001 0.000000e+000 -2.300000e+001
      vertex   1.900000e+001 4.000000e+000 -2.300000e+001
    endloop
  endfacet
  facet normal 2.804774e-016 0.000000e+000 -1.000000e+000
    outer loop
      vertex   1.900000e+001 4.000000e+000 -2.300000e+001
      vertex   -1.900000e+001 0.000000e+000 -2.300000e+001
      vertex   -1.900000e+001 4.000000e+000 -2.300000e+001
    endloop
  endfacet
  facet normal -9.951847e-001 3.539633e-015 -9.801714e-002
    outer loop
      vertex   -2.100000e+001 4.000000e+000 -2.100000e+001
      vertex   -2.096157e+001 4.000000e+000 -2.139018e+001
      vertex   -2.100000e+001 3.000000e+000 -2.100000e+001
    endloop
  endfacet
  facet normal -9.951847e-001 0.000000e+000 -9.801714e-002
    outer loop
      vertex   -2.100000e+001 3.000000e+000 -2.100000e+001
      vertex   -2.096157e+001 4.000000e+000 -2.139018e+001
      vertex   -2.100000e+001 2.000000e+000 -2.100000e+001
    endloop
  endfacet
  facet normal -9.951847e-001 -0.000000e+000 -9.801714e-002
    outer loop
      vertex   -2.100000e+001 2.000000e+000 -2.100000e+001
      vertex   -2.096157e+001 4.000000e+000 -2.139018e+001
      vertex   -2.096157e+001 0.000000e+000 -2.139018e+001
    endloop
  endfacet
  facet normal -9.951847e-001 -1.767803e-015 -9.801714e-002
    outer loop
      vertex   -2.100000e+001 0.000000e+000 -2.100000e+001
      vertex   -2.100000e+001 2.000000e+000 -2.100000e+001
      vertex   -2.096157e+001 0.000000e+000 -2.139018e+001
    endloop
  endfacet
  facet normal -9.569403e-001 0.000000e+000 -2.902847e-001
    outer loop
      vertex   -2.096157e+001 0.000000e+000 -2.139018e+001
      vertex   -2.096157e+001 4.000000e+000 -2.139018e+001
      vertex   -2.084776e+001 0.000000e+000 -2.176537e+001
    endloop
  endfacet
  facet normal -9.569403e-001 0.000000e+000 -2.902847e-001
    outer loop
      vertex   -2.084776e+001 0.000000e+000 -2.176537e+001
      vertex   -2.096157e+001 4.000000e+000 -2.139018e+001
      vertex   -2.084776e+001 4.000000e+000 -2.176537e+001
    endloop
  endfacet
  facet normal -8.819213e-001 0.000000e+000 -4.713967e-001
    outer loop
      vertex   -2.066294e+001 0.000000e+000 -2.211114e+001
      vertex   -2.084776e+001 4.000000e+000 -2.176537e+001
      vertex   -2.066294e+001 4.000000e+000 -2.211114e+001
    endloop
  endfacet
  facet normal -7.730105e-001 0.000000e+000 -6.343933e-001
    outer loop
      vertex   -2.041421e+001 0.000000e+000 -2.241421e+001
      vertex   -2.066294e+001 4.000000e+000 -2.211114e+001
      vertex   -2.041421e+001 4.000000e+000 -2.241421e+001
    endloop
  endfacet
  facet normal -6.343933e-001 0.000000e+000 -7.730105e-001
    outer loop
      vertex   -2.011114e+001 0.000000e+000 -2.266294e+001
      vertex   -2.041421e+001 4.000000e+000 -2.241421e+001
      vertex   -2.011114e+001 4.000000e+000 -2.266294e+001
    endloop
  endfacet
  facet normal -4.713967e-001 0.000000e+000 -8.819213e-001
    outer loop
      vertex   -1.976537e+001 0.000000e+000 -2.284776e+001
      vertex   -2.011114e+001 4.000000e+000 -2.266294e+001
      vertex   -1.976537e+001 4.000000e+000 -2.284776e+001
    endloop
  endfacet
  facet normal -2.902847e-001 0.000000e+000 -9.569403e-001
    outer loop
      vertex   -1.939018e+001 0.000000e+000 -2.296157e+001
      vertex   -1.976537e+001 4.000000e+000 -2.284776e+001
      vertex   -1.939018e+001 4.000000e+000 -2.296157e+001
    endloop
  endfacet
  facet normal -9.801714e-002 0.000000e+000 -9.951847e-001
    outer loop
      vertex   -1.900000e+001 0.000000e+000 -2.300000e+001
      vertex   -1.939018e+001 4.000000e+000 -2.296157e+001
      vertex   -1.900000e+001 4.000000e+000 -2.300000e+001
    endloop
  endfacet
  facet normal -9.801714e-002 0.000000e+000 -9.951847e-001
    outer loop
      vertex   -1.900000e+001 0.000000e+000 -2.300000e+001
      vertex   -1.939018e+001 0.000000e+000 -2.296157e+001
      vertex   -1.939018e+001 4.000000e+000 -2.296157e+001
    endloop
  endfacet
  facet normal -8.819213e-001 0.000000e+000 -4.713967e-001
    outer loop
      vertex   -2.084776e+001 0.000000e+000 -2.176537e+001
      vertex   -2.084776e+001 4.000000e+000 -2.176537e+001
      vertex   -2.066294e+001 0.000000e+000 -2.211114e+001
    endloop
  endfacet
  facet normal -7.730105e-001 0.000000e+000 -6.343933e-001
    outer loop
      vertex   -2.066294e+001 0.000000e+000 -2.211114e+001
      vertex   -2.066294e+001 4.000000e+000 -2.211114e+001
      vertex   -2.041421e+001 0.000000e+000 -2.241421e+001
    endloop
  endfacet
  facet normal -6.343933e-001 0.000000e+000 -7.730105e-001
    outer loop
      vertex   -2.041421e+001 0.000000e+000 -2.241421e+001
      vertex   -2.041421e+001 4.000000e+000 -2.241421e+001
      vertex   -2.011114e+001 0.000000e+000 -2.266294e+001
    endloop
  endfacet
  facet normal -4.713967e-001 0.000000e+000 -8.819213e-001
    outer loop
      vertex   -2.011114e+001 0.000000e+000 -2.266294e+001
      vertex   -2.011114e+001 4.000000e+000 -2.266294e+001
      vertex   -1.976537e+001 0.000000e+000 -2.284776e+001
    endloop
  endfacet
  facet normal -2.902847e-001 0.000000e+000 -9.569403e-001
    outer loop
      vertex   -1.976537e+001 0.000000e+000 -2.284776e+001
      vertex   -1.976537e+001 4.000000e+000 -2.284776e+001
      vertex   -1.939018e+001 0.000000e+000 -2.296157e+001
    endloop
  endfacet
  facet normal -1.000000e+000 -0.000000e+000 -0.000000e+000
    outer loop
      vertex   -2.100000e+001 2.000000e+000 -3.052530e+000
      vertex   -2.100000e+001 2.000000e+000 -2.100000e+001
      vertex   -2.100000e+001 1.990754e+000 -3.052530e+000
    endloop
  endfacet
  facet normal -1.000000e+000 -1.776357e-015 -9.151624e-019
    outer loop
      vertex   -2.100000e+001 1.990754e+000 -3.052530e+000
      vertex   -2.100000e+001 2.000000e+000 -2.100000e+001
      vertex   -2.100000e+001 0.000000e+000 -2.100000e+001
    endloop
  endfacet
  facet normal -1.000000e+000 -3.479769e-015 1.691768e-016
    outer loop
      vertex   -2.100000e+001 1.990754e+000 -1.052530e+000
      vertex   -2.100000e+001 0.000000e+000 -2.100000e+001
      vertex   -2.100000e+001 0.000000e+000 2.100000e+001
    endloop
  endfacet
  facet normal -1.000000e+000 0.000000e+000 4.833069e-016
    outer loop
      vertex   -2.100000e+001 4.000000e+000 2.100000e+001
      vertex   -2.100000e+001 1.990754e+000 -1.052530e+000
      vertex   -2.100000e+001 0.000000e+000 2.100000e+001
    endloop
  endfacet
  facet normal -1.000000e+000 0.000000e+000 4.833069e-016
    outer loop
      vertex   -2.100000e+001 4.000000e+000 2.100000e+001
      vertex   -2.100000e+001 2.990754e+000 -1.052530e+000
      vertex   -2.100000e+001 1.990754e+000 -1.052530e+000
    endloop
  endfacet
  facet normal -1.000000e+000 4.091450e-015 2.960595e-016
    outer loop
      vertex   -2.100000e+001 4.000000e+000 2.100000e+001
      vertex   -2.100000e+001 4.000000e+000 -3.000000e+000
      vertex   -2.100000e+001 2.990754e+000 -1.052530e+000
    endloop
  endfacet
  facet normal -1.000000e+000 3.520165e-015 0.000000e+000
    outer loop
      vertex   -2.100000e+001 2.990754e+000 -1.052530e+000
      vertex   -2.100000e+001 4.000000e+000 -3.000000e+000
      vertex   -2.100000e+001 2.990754e+000 -3.000000e+000
    endloop
  endfacet
  facet normal -1.000000e+000 -1.784607e-015 1.981312e-031
    outer loop
      vertex   -2.100000e+001 1.990754e+000 -3.052530e+000
      vertex   -2.100000e+001 0.000000e+000 -2.100000e+001
      vertex   -2.100000e+001 1.990754e+000 -1.052530e+000
    endloop
  endfacet
  facet normal 1.000000e+000 0.000000e+000 -2.537653e-016
    outer loop
      vertex   2.100000e+001 0.000000e+000 2.100000e+001
      vertex   2.100000e+001 0.000000e+000 -2.100000e+001
      vertex   2.100000e+001 4.000000e+000 2.100000e+001
    endloop
  endfacet
  facet normal 1.000000e+000 0.000000e+000 -2.537653e-016
    outer loop
      vertex   2.100000e+001 4.000000e+000 2.100000e+001
      vertex   2.100000e+001 0.000000e+000 -2.100000e+001
      vertex   2.100000e+001 4.000000e+000 -2.100000e+001
    endloop
  endfacet
endsolid
