solid ascii
  facet normal -1.116854e-016 0.000000e+000 -1.000000e+000
    outer loop
      vertex   -2.100000e+001 4.000000e+000 -3.000000e+000
      vertex   1.081000e+001 4.000000e+000 -3.000000e+000
      vertex   -2.100000e+001 2.000000e+000 -3.000000e+000
    endloop
  endfacet
  facet normal -1.396068e-016 4.440892e-016 -1.000000e+000
    outer loop
      vertex   -2.100000e+001 2.000000e+000 -3.000000e+000
      vertex   1.081000e+001 4.000000e+000 -3.000000e+000
      vertex   1.081000e+001 2.000000e+000 -3.000000e+000
    endloop
  endfacet
  facet normal -1.000000e+000 -0.000000e+000 -0.000000e+000
    outer loop
      vertex   1.081000e+001 4.000000e+000 -3.000000e+000
      vertex   1.081000e+001 4.000000e+000 -1.900000e+001
      vertex   1.081000e+001 2.000000e+000 -3.000000e+000
    endloop
  endfacet
  facet normal -1.000000e+000 -0.000000e+000 -0.000000e+000
    outer loop
      vertex   1.081000e+001 2.000000e+000 -3.000000e+000
      vertex   1.081000e+001 4.000000e+000 -1.900000e+001
      vertex   1.081000e+001 2.000000e+000 -1.900000e+001
    endloop
  endfacet
  facet normal 0.000000e+000 0.000000e+000 1.000000e+000
    outer loop
      vertex   1.081000e+001 4.000000e+000 -1.900000e+001
      vertex   -2.100000e+001 4.000000e+000 -1.900000e+001
      vertex   1.081000e+001 2.000000e+000 -1.900000e+001
    endloop
  endfacet
  facet normal 0.000000e+000 0.000000e+000 1.000000e+000
    outer loop
      vertex   1.081000e+001 2.000000e+000 -1.900000e+001
      vertex   -2.100000e+001 4.000000e+000 -1.900000e+001
      vertex   -2.100000e+001 2.000000e+000 -1.900000e+001
    endloop
  endfacet
  facet normal -0.000000e+000 1.000000e+000 0.000000e+000
    outer loop
      vertex   -2.100000e+001 2.000000e+000 -1.900000e+001
      vertex   -2.100000e+001 2.000000e+000 -3.000000e+000
      vertex   1.081000e+001 2.000000e+000 -1.900000e+001
    endloop
  endfacet
  facet normal -0.000000e+000 1.000000e+000 -0.000000e+000
    outer loop
      vertex   1.081000e+001 2.000000e+000 -1.900000e+001
      vertex   -2.100000e+001 2.000000e+000 -3.000000e+000
      vertex   1.081000e+001 2.000000e+000 -3.000000e+000
    endloop
  endfacet
  facet normal -0.000000e+000 1.000000e+000 0.000000e+000
    outer loop
      vertex   -2.100000e+001 4.000000e+000 -2.100000e+001
      vertex   -2.100000e+001 4.000000e+000 -1.900000e+001
      vertex   -1.900000e+001 4.000000e+000 -2.300000e+001
    endloop
  endfacet
  facet normal -0.000000e+000 1.000000e+000 -0.000000e+000
    outer loop
      vertex   -1.939018e+001 4.000000e+000 -2.296157e+001
      vertex   -2.100000e+001 4.000000e+000 -2.100000e+001
      vertex   -1.900000e+001 4.000000e+000 -2.300000e+001
    endloop
  endfacet
  facet normal 0.000000e+000 1.000000e+000 0.000000e+000
    outer loop
      vertex   -1.939018e+001 4.000000e+000 -2.296157e+001
      vertex   -1.976537e+001 4.000000e+000 -2.284776e+001
      vertex   -2.100000e+001 4.000000e+000 -2.100000e+001
    endloop
  endfacet
  facet normal 0.000000e+000 1.000000e+000 0.000000e+000
    outer loop
      vertex   -2.100000e+001 4.000000e+000 -2.100000e+001
      vertex   -1.976537e+001 4.000000e+000 -2.284776e+001
      vertex   -2.011114e+001 4.000000e+000 -2.266294e+001
    endloop
  endfacet
  facet normal -0.000000e+000 1.000000e+000 -0.000000e+000
    outer loop
      vertex   -2.041421e+001 4.000000e+000 -2.241421e+001
      vertex   -2.100000e+001 4.000000e+000 -2.100000e+001
      vertex   -2.011114e+001 4.000000e+000 -2.266294e+001
    endloop
  endfacet
  facet normal 0.000000e+000 1.000000e+000 0.000000e+000
    outer loop
      vertex   -2.041421e+001 4.000000e+000 -2.241421e+001
      vertex   -2.066294e+001 4.000000e+000 -2.211114e+001
      vertex   -2.100000e+001 4.000000e+000 -2.100000e+001
    endloop
  endfacet
  facet normal 0.000000e+000 1.000000e+000 0.000000e+000
    outer loop
      vertex   -2.100000e+001 4.000000e+000 -2.100000e+001
      vertex   -2.066294e+001 4.000000e+000 -2.211114e+001
      vertex   -2.084776e+001 4.000000e+000 -2.176537e+001
    endloop
  endfacet
  facet normal -0.000000e+000 1.000000e+000 -0.000000e+000
    outer loop
      vertex   -2.096157e+001 4.000000e+000 -2.139018e+001
      vertex   -2.100000e+001 4.000000e+000 -2.100000e+001
      vertex   -2.084776e+001 4.000000e+000 -2.176537e+001
    endloop
  endfacet
  facet normal 0.000000e+000 1.000000e+000 0.000000e+000
    outer loop
      vertex   1.081000e+001 4.000000e+000 -3.000000e+000
      vertex   2.100000e+001 4.000000e+000 -2.100000e+001
      vertex   1.081000e+001 4.000000e+000 -1.900000e+001
    endloop
  endfacet
  facet normal -0.000000e+000 1.000000e+000 0.000000e+000
    outer loop
      vertex   1.081000e+001 4.000000e+000 -3.000000e+000
      vertex   2.100000e+001 4.000000e+000 2.100000e+001
      vertex   2.100000e+001 4.000000e+000 -2.100000e+001
    endloop
  endfacet
  facet normal -0.000000e+000 1.000000e+000 0.000000e+000
    outer loop
      vertex   1.081000e+001 4.000000e+000 -3.000000e+000
      vertex   1.900000e+001 4.000000e+000 2.300000e+001
      vertex   2.100000e+001 4.000000e+000 2.100000e+001
    endloop
  endfacet
  facet normal 0.000000e+000 1.000000e+000 -0.000000e+000
    outer loop
      vertex   1.081000e+001 4.000000e+000 -3.000000e+000
      vertex   -1.900000e+001 4.000000e+000 2.300000e+001
      vertex   1.900000e+001 4.000000e+000 2.300000e+001
    endloop
  endfacet
  facet normal 0.000000e+000 1.000000e+000 -0.000000e+000
    outer loop
      vertex   1.081000e+001 4.000000e+000 -3.000000e+000
      vertex   -2.100000e+001 4.000000e+000 -3.000000e+000
      vertex   -1.900000e+001 4.000000e+000 2.300000e+001
    endloop
  endfacet
  facet normal 0.000000e+000 1.000000e+000 -0.000000e+000
    outer loop
      vertex   -1.900000e+001 4.000000e+000 2.300000e+001
      vertex   -2.100000e+001 4.000000e+000 -3.000000e+000
      vertex   -2.100000e+001 4.000000e+000 2.100000e+001
    endloop
  endfacet
  facet normal 0.000000e+000 1.000000e+000 -0.000000e+000
    outer loop
      vertex   -1.939018e+001 4.000000e+000 2.296157e+001
      vertex   -2.100000e+001 4.000000e+000 2.100000e+001
      vertex   -1.976537e+001 4.000000e+000 2.284776e+001
    endloop
  endfacet
  facet normal -0.000000e+000 1.000000e+000 0.000000e+000
    outer loop
      vertex   -1.939018e+001 4.000000e+000 2.296157e+001
      vertex   -1.900000e+001 4.000000e+000 2.300000e+001
      vertex   -2.100000e+001 4.000000e+000 2.100000e+001
    endloop
  endfacet
  facet normal -0.000000e+000 1.000000e+000 0.000000e+000
    outer loop
      vertex   -2.096157e+001 4.000000e+000 2.139018e+001
      vertex   -2.084776e+001 4.000000e+000 2.176537e+001
      vertex   -2.100000e+001 4.000000e+000 2.100000e+001
    endloop
  endfacet
  facet normal 0.000000e+000 1.000000e+000 0.000000e+000
    outer loop
      vertex   -2.100000e+001 4.000000e+000 2.100000e+001
      vertex   -2.084776e+001 4.000000e+000 2.176537e+001
      vertex   -2.066294e+001 4.000000e+000 2.211114e+001
    endloop
  endfacet
  facet normal 0.000000e+000 1.000000e+000 -0.000000e+000
    outer loop
      vertex   -2.041421e+001 4.000000e+000 2.241421e+001
      vertex   -2.100000e+001 4.000000e+000 2.100000e+001
      vertex   -2.066294e+001 4.000000e+000 2.211114e+001
    endloop
  endfacet
  facet normal -0.000000e+000 1.000000e+000 0.000000e+000
    outer loop
      vertex   -2.041421e+001 4.000000e+000 2.241421e+001
      vertex   -2.011114e+001 4.000000e+000 2.266294e+001
      vertex   -2.100000e+001 4.000000e+000 2.100000e+001
    endloop
  endfacet
  facet normal 0.000000e+000 1.000000e+000 0.000000e+000
    outer loop
      vertex   -2.100000e+001 4.000000e+000 2.100000e+001
      vertex   -2.011114e+001 4.000000e+000 2.266294e+001
      vertex   -1.976537e+001 4.000000e+000 2.284776e+001
    endloop
  endfacet
  facet normal 0.000000e+000 1.000000e+000 0.000000e+000
    outer loop
      vertex   1.900000e+001 4.000000e+000 2.300000e+001
      vertex   1.939018e+001 4.000000e+000 2.296157e+001
      vertex   2.100000e+001 4.000000e+000 2.100000e+001
    endloop
  endfacet
  facet normal -0.000000e+000 1.000000e+000 -0.000000e+000
    outer loop
      vertex   2.100000e+001 4.000000e+000 2.100000e+001
      vertex   1.939018e+001 4.000000e+000 2.296157e+001
      vertex   1.976537e+001 4.000000e+000 2.284776e+001
    endloop
  endfacet
  facet normal 0.000000e+000 1.000000e+000 0.000000e+000
    outer loop
      vertex   2.011114e+001 4.000000e+000 2.266294e+001
      vertex   2.100000e+001 4.000000e+000 2.100000e+001
      vertex   1.976537e+001 4.000000e+000 2.284776e+001
    endloop
  endfacet
  facet normal 0.000000e+000 1.000000e+000 0.000000e+000
    outer loop
      vertex   2.011114e+001 4.000000e+000 2.266294e+001
      vertex   2.041421e+001 4.000000e+000 2.241421e+001
      vertex   2.100000e+001 4.000000e+000 2.100000e+001
    endloop
  endfacet
  facet normal -0.000000e+000 1.000000e+000 -0.000000e+000
    outer loop
      vertex   2.100000e+001 4.000000e+000 2.100000e+001
      vertex   2.041421e+001 4.000000e+000 2.241421e+001
      vertex   2.066294e+001 4.000000e+000 2.211114e+001
    endloop
  endfacet
  facet normal 0.000000e+000 1.000000e+000 0.000000e+000
    outer loop
      vertex   2.084776e+001 4.000000e+000 2.176537e+001
      vertex   2.100000e+001 4.000000e+000 2.100000e+001
      vertex   2.066294e+001 4.000000e+000 2.211114e+001
    endloop
  endfacet
  facet normal 0.000000e+000 1.000000e+000 0.000000e+000
    outer loop
      vertex   2.084776e+001 4.000000e+000 2.176537e+001
      vertex   2.096157e+001 4.000000e+000 2.139018e+001
      vertex   2.100000e+001 4.000000e+000 2.100000e+001
    endloop
  endfacet
  facet normal 0.000000e+000 1.000000e+000 -0.000000e+000
    outer loop
      vertex   2.096157e+001 4.000000e+000 -2.139018e+001
      vertex   2.084776e+001 4.000000e+000 -2.176537e+001
      vertex   2.100000e+001 4.000000e+000 -2.100000e+001
    endloop
  endfacet
  facet normal 0.000000e+000 1.000000e+000 0.000000e+000
    outer loop
      vertex   2.100000e+001 4.000000e+000 -2.100000e+001
      vertex   2.084776e+001 4.000000e+000 -2.176537e+001
      vertex   2.066294e+001 4.000000e+000 -2.211114e+001
    endloop
  endfacet
  facet normal -0.000000e+000 1.000000e+000 0.000000e+000
    outer loop
      vertex   2.041421e+001 4.000000e+000 -2.241421e+001
      vertex   2.100000e+001 4.000000e+000 -2.100000e+001
      vertex   2.066294e+001 4.000000e+000 -2.211114e+001
    endloop
  endfacet
  facet normal 0.000000e+000 1.000000e+000 -0.000000e+000
    outer loop
      vertex   2.041421e+001 4.000000e+000 -2.241421e+001
      vertex   2.011114e+001 4.000000e+000 -2.266294e+001
      vertex   2.100000e+001 4.000000e+000 -2.100000e+001
    endloop
  endfacet
  facet normal 0.000000e+000 1.000000e+000 0.000000e+000
    outer loop
      vertex   2.100000e+001 4.000000e+000 -2.100000e+001
      vertex   2.011114e+001 4.000000e+000 -2.266294e+001
      vertex   1.976537e+001 4.000000e+000 -2.284776e+001
    endloop
  endfacet
  facet normal -0.000000e+000 1.000000e+000 0.000000e+000
    outer loop
      vertex   1.939018e+001 4.000000e+000 -2.296157e+001
      vertex   2.100000e+001 4.000000e+000 -2.100000e+001
      vertex   1.976537e+001 4.000000e+000 -2.284776e+001
    endloop
  endfacet
  facet normal 0.000000e+000 1.000000e+000 -0.000000e+000
    outer loop
      vertex   1.939018e+001 4.000000e+000 -2.296157e+001
      vertex   1.900000e+001 4.000000e+000 -2.300000e+001
      vertex   2.100000e+001 4.000000e+000 -2.100000e+001
    endloop
  endfacet
  facet normal 0.000000e+000 1.000000e+000 0.000000e+000
    outer loop
      vertex   2.100000e+001 4.000000e+000 -2.100000e+001
      vertex   1.900000e+001 4.000000e+000 -2.300000e+001
      vertex   1.081000e+001 4.000000e+000 -1.900000e+001
    endloop
  endfacet
  facet normal 0.000000e+000 1.000000e+000 0.000000e+000
    outer loop
      vertex   1.081000e+001 4.000000e+000 -1.900000e+001
      vertex   1.900000e+001 4.000000e+000 -2.300000e+001
      vertex   -1.900000e+001 4.000000e+000 -2.300000e+001
    endloop
  endfacet
  facet normal -0.000000e+000 1.000000e+000 0.000000e+000
    outer loop
      vertex   -2.100000e+001 4.000000e+000 -1.900000e+001
      vertex   1.081000e+001 4.000000e+000 -1.900000e+001
      vertex   -1.900000e+001 4.000000e+000 -2.300000e+001
    endloop
  endfacet
  facet normal 9.951847e-001 -0.000000e+000 9.801714e-002
    outer loop
      vertex   2.100000e+001 0.000000e+000 2.100000e+001
      vertex   2.100000e+001 4.000000e+000 2.100000e+001
      vertex   2.096157e+001 0.000000e+000 2.139018e+001
    endloop
  endfacet
  facet normal 9.951847e-001 0.000000e+000 9.801714e-002
    outer loop
      vertex   2.096157e+001 0.000000e+000 2.139018e+001
      vertex   2.100000e+001 4.000000e+000 2.100000e+001
      vertex   2.096157e+001 4.000000e+000 2.139018e+001
    endloop
  endfacet
  facet normal 9.569403e-001 0.000000e+000 2.902847e-001
    outer loop
      vertex   2.084776e+001 0.000000e+000 2.176537e+001
      vertex   2.096157e+001 4.000000e+000 2.139018e+001
      vertex   2.084776e+001 4.000000e+000 2.176537e+001
    endloop
  endfacet
  facet normal 8.819213e-001 0.000000e+000 4.713967e-001
    outer loop
      vertex   2.066294e+001 0.000000e+000 2.211114e+001
      vertex   2.084776e+001 4.000000e+000 2.176537e+001
      vertex   2.066294e+001 4.000000e+000 2.211114e+001
    endloop
  endfacet
  facet normal 7.730105e-001 0.000000e+000 6.343933e-001
    outer loop
      vertex   2.041421e+001 0.000000e+000 2.241421e+001
      vertex   2.066294e+001 4.000000e+000 2.211114e+001
      vertex   2.041421e+001 4.000000e+000 2.241421e+001
    endloop
  endfacet
  facet normal 6.343933e-001 0.000000e+000 7.730105e-001
    outer loop
      vertex   2.011114e+001 0.000000e+000 2.266294e+001
      vertex   2.041421e+001 4.000000e+000 2.241421e+001
      vertex   2.011114e+001 4.000000e+000 2.266294e+001
    endloop
  endfacet
  facet normal 4.713967e-001 0.000000e+000 8.819213e-001
    outer loop
      vertex   1.976537e+001 0.000000e+000 2.284776e+001
      vertex   2.011114e+001 4.000000e+000 2.266294e+001
      vertex   1.976537e+001 4.000000e+000 2.284776e+001
    endloop
  endfacet
  facet normal 2.902847e-001 0.000000e+000 9.569403e-001
    outer loop
      vertex   1.939018e+001 0.000000e+000 2.296157e+001
      vertex   1.976537e+001 4.000000e+000 2.284776e+001
      vertex   1.939018e+001 4.000000e+000 2.296157e+001
    endloop
  endfacet
  facet normal 9.801714e-002 0.000000e+000 9.951847e-001
    outer loop
      vertex   1.900000e+001 0.000000e+000 2.300000e+001
      vertex   1.939018e+001 4.000000e+000 2.296157e+001
      vertex   1.900000e+001 4.000000e+000 2.300000e+001
    endloop
  endfacet
  facet normal 9.801714e-002 -0.000000e+000 9.951847e-001
    outer loop
      vertex   1.900000e+001 0.000000e+000 2.300000e+001
      vertex   1.939018e+001 0.000000e+000 2.296157e+001
      vertex   1.939018e+001 4.000000e+000 2.296157e+001
    endloop
  endfacet
  facet normal 9.569403e-001 -0.000000e+000 2.902847e-001
    outer loop
      vertex   2.096157e+001 0.000000e+000 2.139018e+001
      vertex   2.096157e+001 4.000000e+000 2.139018e+001
      vertex   2.084776e+001 0.000000e+000 2.176537e+001
    endloop
  endfacet
  facet normal 8.819213e-001 -0.000000e+000 4.713967e-001
    outer loop
      vertex   2.084776e+001 0.000000e+000 2.176537e+001
      vertex   2.084776e+001 4.000000e+000 2.176537e+001
      vertex   2.066294e+001 0.000000e+000 2.211114e+001
    endloop
  endfacet
  facet normal 7.730105e-001 -0.000000e+000 6.343933e-001
    outer loop
      vertex   2.066294e+001 0.000000e+000 2.211114e+001
      vertex   2.066294e+001 4.000000e+000 2.211114e+001
      vertex   2.041421e+001 0.000000e+000 2.241421e+001
    endloop
  endfacet
  facet normal 6.343933e-001 -0.000000e+000 7.730105e-001
    outer loop
      vertex   2.041421e+001 0.000000e+000 2.241421e+001
      vertex   2.041421e+001 4.000000e+000 2.241421e+001
      vertex   2.011114e+001 0.000000e+000 2.266294e+001
    endloop
  endfacet
  facet normal 4.713967e-001 -0.000000e+000 8.819213e-001
    outer loop
      vertex   2.011114e+001 0.000000e+000 2.266294e+001
      vertex   2.011114e+001 4.000000e+000 2.266294e+001
      vertex   1.976537e+001 0.000000e+000 2.284776e+001
    endloop
  endfacet
  facet normal 2.902847e-001 -0.000000e+000 9.569403e-001
    outer loop
      vertex   1.976537e+001 0.000000e+000 2.284776e+001
      vertex   1.976537e+001 4.000000e+000 2.284776e+001
      vertex   1.939018e+001 0.000000e+000 2.296157e+001
    endloop
  endfacet
  facet normal -0.000000e+000 -1.000000e+000 -0.000000e+000
    outer loop
      vertex   2.096157e+001 0.000000e+000 2.139018e+001
      vertex   2.084776e+001 0.000000e+000 2.176537e+001
      vertex   2.100000e+001 0.000000e+000 2.100000e+001
    endloop
  endfacet
  facet normal 0.000000e+000 -1.000000e+000 0.000000e+000
    outer loop
      vertex   2.100000e+001 0.000000e+000 2.100000e+001
      vertex   2.084776e+001 0.000000e+000 2.176537e+001
      vertex   2.066294e+001 0.000000e+000 2.211114e+001
    endloop
  endfacet
  facet normal 0.000000e+000 -1.000000e+000 0.000000e+000
    outer loop
      vertex   2.041421e+001 0.000000e+000 2.241421e+001
      vertex   2.100000e+001 0.000000e+000 2.100000e+001
      vertex   2.066294e+001 0.000000e+000 2.211114e+001
    endloop
  endfacet
  facet normal -0.000000e+000 -1.000000e+000 -0.000000e+000
    outer loop
      vertex   2.041421e+001 0.000000e+000 2.241421e+001
      vertex   2.011114e+001 0.000000e+000 2.266294e+001
      vertex   2.100000e+001 0.000000e+000 2.100000e+001
    endloop
  endfacet
  facet normal 0.000000e+000 -1.000000e+000 0.000000e+000
    outer loop
      vertex   2.100000e+001 0.000000e+000 2.100000e+001
      vertex   2.011114e+001 0.000000e+000 2.266294e+001
      vertex   1.976537e+001 0.000000e+000 2.284776e+001
    endloop
  endfacet
  facet normal 0.000000e+000 -1.000000e+000 0.000000e+000
    outer loop
      vertex   1.939018e+001 0.000000e+000 2.296157e+001
      vertex   2.100000e+001 0.000000e+000 2.100000e+001
      vertex   1.976537e+001 0.000000e+000 2.284776e+001
    endloop
  endfacet
  facet normal -0.000000e+000 -1.000000e+000 -0.000000e+000
    outer loop
      vertex   1.939018e+001 0.000000e+000 2.296157e+001
      vertex   1.900000e+001 0.000000e+000 2.300000e+001
      vertex   2.100000e+001 0.000000e+000 2.100000e+001
    endloop
  endfacet
  facet normal -0.000000e+000 -1.000000e+000 0.000000e+000
    outer loop
      vertex   2.100000e+001 0.000000e+000 2.100000e+001
      vertex   1.900000e+001 0.000000e+000 2.300000e+001
      vertex   1.900000e+001 0.000000e+000 -2.300000e+001
    endloop
  endfacet
  facet normal 0.000000e+000 -1.000000e+000 -0.000000e+000
    outer loop
      vertex   2.100000e+001 0.000000e+000 -2.100000e+001
      vertex   1.900000e+001 0.000000e+000 -2.300000e+001
      vertex   1.939018e+001 0.000000e+000 -2.296157e+001
    endloop
  endfacet
  facet normal -0.000000e+000 -1.000000e+000 0.000000e+000
    outer loop
      vertex   1.976537e+001 0.000000e+000 -2.284776e+001
      vertex   2.100000e+001 0.000000e+000 -2.100000e+001
      vertex   1.939018e+001 0.000000e+000 -2.296157e+001
    endloop
  endfacet
  facet normal 0.000000e+000 -1.000000e+000 0.000000e+000
    outer loop
      vertex   1.976537e+001 0.000000e+000 -2.284776e+001
      vertex   2.011114e+001 0.000000e+000 -2.266294e+001
      vertex   2.100000e+001 0.000000e+000 -2.100000e+001
    endloop
  endfacet
  facet normal 0.000000e+000 -1.000000e+000 -0.000000e+000
    outer loop
      vertex   2.100000e+001 0.000000e+000 -2.100000e+001
      vertex   2.011114e+001 0.000000e+000 -2.266294e+001
      vertex   2.041421e+001 0.000000e+000 -2.241421e+001
    endloop
  endfacet
  facet normal -0.000000e+000 -1.000000e+000 0.000000e+000
    outer loop
      vertex   2.066294e+001 0.000000e+000 -2.211114e+001
      vertex   2.100000e+001 0.000000e+000 -2.100000e+001
      vertex   2.041421e+001 0.000000e+000 -2.241421e+001
    endloop
  endfacet
  facet normal 0.000000e+000 -1.000000e+000 0.000000e+000
    outer loop
      vertex   2.066294e+001 0.000000e+000 -2.211114e+001
      vertex   2.084776e+001 0.000000e+000 -2.176537e+001
      vertex   2.100000e+001 0.000000e+000 -2.100000e+001
    endloop
  endfacet
  facet normal 0.000000e+000 -1.000000e+000 -0.000000e+000
    outer loop
      vertex   2.100000e+001 0.000000e+000 -2.100000e+001
      vertex   2.084776e+001 0.000000e+000 -2.176537e+001
      vertex   2.096157e+001 0.000000e+000 -2.139018e+001
    endloop
  endfacet
  facet normal -0.000000e+000 -1.000000e+000 0.000000e+000
    outer loop
      vertex   1.900000e+001 0.000000e+000 -2.300000e+001
      vertex   1.900000e+001 0.000000e+000 2.300000e+001
      vertex   -1.900000e+001 0.000000e+000 -2.300000e+001
    endloop
  endfacet
  facet normal 0.000000e+000 -1.000000e+000 0.000000e+000
    outer loop
      vertex   -1.900000e+001 0.000000e+000 -2.300000e+001
      vertex   1.900000e+001 0.000000e+000 2.300000e+001
      vertex   -1.900000e+001 0.000000e+000 2.300000e+001
    endloop
  endfacet
  facet normal -0.000000e+000 -1.000000e+000 0.000000e+000
    outer loop
      vertex   -2.100000e+001 0.000000e+000 -2.100000e+001
      vertex   -1.900000e+001 0.000000e+000 2.300000e+001
      vertex   -2.100000e+001 0.000000e+000 2.100000e+001
    endloop
  endfacet
  facet normal 0.000000e+000 -1.000000e+000 0.000000e+000
    outer loop
      vertex   -2.100000e+001 0.000000e+000 -2.100000e+001
      vertex   -1.900000e+001 0.000000e+000 -2.300000e+001
      vertex   -1.900000e+001 0.000000e+000 2.300000e+001
    endloop
  endfacet
  facet normal 0.000000e+000 -1.000000e+000 0.000000e+000
    outer loop
      vertex   -2.100000e+001 0.000000e+000 -2.100000e+001
      vertex   -1.939018e+001 0.000000e+000 -2.296157e+001
      vertex   -1.900000e+001 0.000000e+000 -2.300000e+001
    endloop
  endfacet
  facet normal 0.000000e+000 -1.000000e+000 0.000000e+000
    outer loop
      vertex   -2.100000e+001 0.000000e+000 -2.100000e+001
      vertex   -1.976537e+001 0.000000e+000 -2.284776e+001
      vertex   -1.939018e+001 0.000000e+000 -2.296157e+001
    endloop
  endfacet
  facet normal 0.000000e+000 -1.000000e+000 0.000000e+000
    outer loop
      vertex   -2.100000e+001 0.000000e+000 -2.100000e+001
      vertex   -2.011114e+001 0.000000e+000 -2.266294e+001
      vertex   -1.976537e+001 0.000000e+000 -2.284776e+001
    endloop
  endfacet
  facet normal 0.000000e+000 -1.000000e+000 0.000000e+000
    outer loop
      vertex   -2.100000e+001 0.000000e+000 -2.100000e+001
      vertex   -2.041421e+001 0.000000e+000 -2.241421e+001
      vertex   -2.011114e+001 0.000000e+000 -2.266294e+001
    endloop
  endfacet
  facet normal 0.000000e+000 -1.000000e+000 0.000000e+000
    outer loop
      vertex   -2.100000e+001 0.000000e+000 -2.100000e+001
      vertex   -2.066294e+001 0.000000e+000 -2.211114e+001
      vertex   -2.041421e+001 0.000000e+000 -2.241421e+001
    endloop
  endfacet
  facet normal 0.000000e+000 -1.000000e+000 0.000000e+000
    outer loop
      vertex   -2.100000e+001 0.000000e+000 -2.100000e+001
      vertex   -2.084776e+001 0.000000e+000 -2.176537e+001
      vertex   -2.066294e+001 0.000000e+000 -2.211114e+001
    endloop
  endfacet
  facet normal 0.000000e+000 -1.000000e+000 0.000000e+000
    outer loop
      vertex   -2.100000e+001 0.000000e+000 -2.100000e+001
      vertex   -2.096157e+001 0.000000e+000 -2.139018e+001
      vertex   -2.084776e+001 0.000000e+000 -2.176537e+001
    endloop
  endfacet
  facet normal 0.000000e+000 -1.000000e+000 0.000000e+000
    outer loop
      vertex   -1.900000e+001 0.000000e+000 2.300000e+001
      vertex   -1.939018e+001 0.000000e+000 2.296157e+001
      vertex   -2.100000e+001 0.000000e+000 2.100000e+001
    endloop
  endfacet
  facet normal -0.000000e+000 -1.000000e+000 0.000000e+000
    outer loop
      vertex   -2.100000e+001 0.000000e+000 2.100000e+001
      vertex   -1.939018e+001 0.000000e+000 2.296157e+001
      vertex   -1.976537e+001 0.000000e+000 2.284776e+001
    endloop
  endfacet
  facet normal 0.000000e+000 -1.000000e+000 -0.000000e+000
    outer loop
      vertex   -2.011114e+001 0.000000e+000 2.266294e+001
      vertex   -2.100000e+001 0.000000e+000 2.100000e+001
      vertex   -1.976537e+001 0.000000e+000 2.284776e+001
    endloop
  endfacet
  facet normal 0.000000e+000 -1.000000e+000 0.000000e+000
    outer loop
      vertex   -2.011114e+001 0.000000e+000 2.266294e+001
      vertex   -2.041421e+001 0.000000e+000 2.241421e+001
      vertex   -2.100000e+001 0.000000e+000 2.100000e+001
    endloop
  endfacet
  facet normal -0.000000e+000 -1.000000e+000 0.000000e+000
    outer loop
      vertex   -2.100000e+001 0.000000e+000 2.100000e+001
      vertex   -2.041421e+001 0.000000e+000 2.241421e+001
      vertex   -2.066294e+001 0.000000e+000 2.211114e+001
    endloop
  endfacet
  facet normal 0.000000e+000 -1.000000e+000 -0.000000e+000
    outer loop
      vertex   -2.084776e+001 0.000000e+000 2.176537e+001
      vertex   -2.100000e+001 0.000000e+000 2.100000e+001
      vertex   -2.066294e+001 0.000000e+000 2.211114e+001
    endloop
  endfacet
  facet normal 0.000000e+000 -1.000000e+000 0.000000e+000
    outer loop
      vertex   -2.084776e+001 0.000000e+000 2.176537e+001
      vertex   -2.096157e+001 0.000000e+000 2.139018e+001
      vertex   -2.100000e+001 0.000000e+000 2.100000e+001
    endloop
  endfacet
  facet normal 0.000000e+000 -1.000000e+000 -0.000000e+000
    outer loop
      vertex   2.100000e+001 0.000000e+000 2.100000e+001
      vertex   1.900000e+001 0.000000e+000 -2.300000e+001
      vertex   2.100000e+001 0.000000e+000 -2.100000e+001
    endloop
  endfacet
  facet normal 0.000000e+000 0.000000e+000 1.000000e+000
    outer loop
      vertex   1.900000e+001 4.000000e+000 2.300000e+001
      vertex   -1.900000e+001 4.000000e+000 2.300000e+001
      vertex   1.900000e+001 0.000000e+000 2.300000e+001
    endloop
  endfacet
  facet normal 0.000000e+000 0.000000e+000 1.000000e+000
    outer loop
      vertex   1.900000e+001 0.000000e+000 2.300000e+001
      vertex   -1.900000e+001 4.000000e+000 2.300000e+001
      vertex   -1.900000e+001 0.000000e+000 2.300000e+001
    endloop
  endfacet
  facet normal -9.801714e-002 0.000000e+000 9.951847e-001
    outer loop
      vertex   -1.900000e+001 0.000000e+000 2.300000e+001
      vertex   -1.900000e+001 4.000000e+000 2.300000e+001
      vertex   -1.939018e+001 0.000000e+000 2.296157e+001
    endloop
  endfacet
  facet normal -9.801714e-002 0.000000e+000 9.951847e-001
    outer loop
      vertex   -1.939018e+001 0.000000e+000 2.296157e+001
      vertex   -1.900000e+001 4.000000e+000 2.300000e+001
      vertex   -1.939018e+001 4.000000e+000 2.296157e+001
    endloop
  endfacet
  facet normal -2.902847e-001 0.000000e+000 9.569403e-001
    outer loop
      vertex   -1.976537e+001 0.000000e+000 2.284776e+001
      vertex   -1.939018e+001 4.000000e+000 2.296157e+001
      vertex   -1.976537e+001 4.000000e+000 2.284776e+001
    endloop
  endfacet
  facet normal -4.713967e-001 0.000000e+000 8.819213e-001
    outer loop
      vertex   -2.011114e+001 0.000000e+000 2.266294e+001
      vertex   -1.976537e+001 4.000000e+000 2.284776e+001
      vertex   -2.011114e+001 4.000000e+000 2.266294e+001
    endloop
  endfacet
  facet normal -6.343933e-001 0.000000e+000 7.730105e-001
    outer loop
      vertex   -2.041421e+001 0.000000e+000 2.241421e+001
      vertex   -2.011114e+001 4.000000e+000 2.266294e+001
      vertex   -2.041421e+001 4.000000e+000 2.241421e+001
    endloop
  endfacet
  facet normal -7.730105e-001 0.000000e+000 6.343933e-001
    outer loop
      vertex   -2.066294e+001 0.000000e+000 2.211114e+001
      vertex   -2.041421e+001 4.000000e+000 2.241421e+001
      vertex   -2.066294e+001 4.000000e+000 2.211114e+001
    endloop
  endfacet
  facet normal -8.819213e-001 1.575137e-015 4.713967e-001
    outer loop
      vertex   -2.084776e+001 0.000000e+000 2.176537e+001
      vertex   -2.066294e+001 4.000000e+000 2.211114e+001
      vertex   -2.084776e+001 4.000000e+000 2.176537e+001
    endloop
  endfacet
  facet normal -9.569403e-001 0.000000e+000 2.902847e-001
    outer loop
      vertex   -2.096157e+001 0.000000e+000 2.139018e+001
      vertex   -2.084776e+001 4.000000e+000 2.176537e+001
      vertex   -2.096157e+001 4.000000e+000 2.139018e+001
    endloop
  endfacet
  facet normal -9.951847e-001 0.000000e+000 9.801714e-002
    outer loop
      vertex   -2.100000e+001 0.000000e+000 2.100000e+001
      vertex   -2.096157e+001 4.000000e+000 2.139018e+001
      vertex   -2.100000e+001 4.000000e+000 2.100000e+001
    endloop
  endfacet
  facet normal -9.951847e-001 0.000000e+000 9.801714e-002
    outer loop
      vertex   -2.100000e+001 0.000000e+000 2.100000e+001
      vertex   -2.096157e+001 0.000000e+000 2.139018e+001
      vertex   -2.096157e+001 4.000000e+000 2.139018e+001
    endloop
  endfacet
  facet normal -2.902847e-001 0.000000e+000 9.569403e-001
    outer loop
      vertex   -1.939018e+001 0.000000e+000 2.296157e+001
      vertex   -1.939018e+001 4.000000e+000 2.296157e+001
      vertex   -1.976537e+001 0.000000e+000 2.284776e+001
    endloop
  endfacet
  facet normal -4.713967e-001 0.000000e+000 8.819213e-001
    outer loop
      vertex   -1.976537e+001 0.000000e+000 2.284776e+001
      vertex   -1.976537e+001 4.000000e+000 2.284776e+001
      vertex   -2.011114e+001 0.000000e+000 2.266294e+001
    endloop
  endfacet
  facet normal -6.343933e-001 0.000000e+000 7.730105e-001
    outer loop
      vertex   -2.011114e+001 0.000000e+000 2.266294e+001
      vertex   -2.011114e+001 4.000000e+000 2.266294e+001
      vertex   -2.041421e+001 0.000000e+000 2.241421e+001
    endloop
  endfacet
  facet normal -7.730105e-001 0.000000e+000 6.343933e-001
    outer loop
      vertex   -2.041421e+001 0.000000e+000 2.241421e+001
      vertex   -2.041421e+001 4.000000e+000 2.241421e+001
      vertex   -2.066294e+001 0.000000e+000 2.211114e+001
    endloop
  endfacet
  facet normal -8.819213e-001 0.000000e+000 4.713967e-001
    outer loop
      vertex   -2.066294e+001 0.000000e+000 2.211114e+001
      vertex   -2.066294e+001 4.000000e+000 2.211114e+001
      vertex   -2.084776e+001 0.000000e+000 2.176537e+001
    endloop
  endfacet
  facet normal -9.569403e-001 1.699868e-015 2.902847e-001
    outer loop
      vertex   -2.084776e+001 0.000000e+000 2.176537e+001
      vertex   -2.084776e+001 4.000000e+000 2.176537e+001
      vertex   -2.096157e+001 0.000000e+000 2.139018e+001
    endloop
  endfacet
  facet normal 9.801714e-002 0.000000e+000 -9.951847e-001
    outer loop
      vertex   1.900000e+001 0.000000e+000 -2.300000e+001
      vertex   1.900000e+001 4.000000e+000 -2.300000e+001
      vertex   1.939018e+001 0.000000e+000 -2.296157e+001
    endloop
  endfacet
  facet normal 9.801714e-002 0.000000e+000 -9.951847e-001
    outer loop
      vertex   1.939018e+001 0.000000e+000 -2.296157e+001
      vertex   1.900000e+001 4.000000e+000 -2.300000e+001
      vertex   1.939018e+001 4.000000e+000 -2.296157e+001
    endloop
  endfacet
  facet normal 2.902847e-001 0.000000e+000 -9.569403e-001
    outer loop
      vertex   1.976537e+001 0.000000e+000 -2.284776e+001
      vertex   1.939018e+001 4.000000e+000 -2.296157e+001
      vertex   1.976537e+001 4.000000e+000 -2.284776e+001
    endloop
  endfacet
  facet normal 4.713967e-001 0.000000e+000 -8.819213e-001
    outer loop
      vertex   2.011114e+001 0.000000e+000 -2.266294e+001
      vertex   1.976537e+001 4.000000e+000 -2.284776e+001
      vertex   2.011114e+001 4.000000e+000 -2.266294e+001
    endloop
  endfacet
  facet normal 6.343933e-001 0.000000e+000 -7.730105e-001
    outer loop
      vertex   2.041421e+001 0.000000e+000 -2.241421e+001
      vertex   2.011114e+001 4.000000e+000 -2.266294e+001
      vertex   2.041421e+001 4.000000e+000 -2.241421e+001
    endloop
  endfacet
  facet normal 7.730105e-001 0.000000e+000 -6.343933e-001
    outer loop
      vertex   2.066294e+001 0.000000e+000 -2.211114e+001
      vertex   2.041421e+001 4.000000e+000 -2.241421e+001
      vertex   2.066294e+001 4.000000e+000 -2.211114e+001
    endloop
  endfacet
  facet normal 8.819213e-001 0.000000e+000 -4.713967e-001
    outer loop
      vertex   2.084776e+001 0.000000e+000 -2.176537e+001
      vertex   2.066294e+001 4.000000e+000 -2.211114e+001
      vertex   2.084776e+001 4.000000e+000 -2.176537e+001
    endloop
  endfacet
  facet normal 9.569403e-001 0.000000e+000 -2.902847e-001
    outer loop
      vertex   2.096157e+001 0.000000e+000 -2.139018e+001
      vertex   2.084776e+001 4.000000e+000 -2.176537e+001
      vertex   2.096157e+001 4.000000e+000 -2.139018e+001
    endloop
  endfacet
  facet normal 9.951847e-001 0.000000e+000 -9.801714e-002
    outer loop
      vertex   2.100000e+001 0.000000e+000 -2.100000e+001
      vertex   2.096157e+001 4.000000e+000 -2.139018e+001
      vertex   2.100000e+001 4.000000e+000 -2.100000e+001
    endloop
  endfacet
  facet normal 9.951847e-001 0.000000e+000 -9.801714e-002
    outer loop
      vertex   2.100000e+001 0.000000e+000 -2.100000e+001
      vertex   2.096157e+001 0.000000e+000 -2.139018e+001
      vertex   2.096157e+001 4.000000e+000 -2.139018e+001
    endloop
  endfacet
  facet normal 2.902847e-001 0.000000e+000 -9.569403e-001
    outer loop
      vertex   1.939018e+001 0.000000e+000 -2.296157e+001
      vertex   1.939018e+001 4.000000e+000 -2.296157e+001
      vertex   1.976537e+001 0.000000e+000 -2.284776e+001
    endloop
  endfacet
  facet normal 4.713967e-001 0.000000e+000 -8.819213e-001
    outer loop
      vertex   1.976537e+001 0.000000e+000 -2.284776e+001
      vertex   1.976537e+001 4.000000e+000 -2.284776e+001
      vertex   2.011114e+001 0.000000e+000 -2.266294e+001
    endloop
  endfacet
  facet normal 6.343933e-001 0.000000e+000 -7.730105e-001
    outer loop
      vertex   2.011114e+001 0.000000e+000 -2.266294e+001
      vertex   2.011114e+001 4.000000e+000 -2.266294e+001
      vertex   2.041421e+001 0.000000e+000 -2.241421e+001
    endloop
  endfacet
  facet normal 7.730105e-001 0.000000e+000 -6.343933e-001
    outer loop
      vertex   2.041421e+001 0.000000e+000 -2.241421e+001
      vertex   2.041421e+001 4.000000e+000 -2.241421e+001
      vertex   2.066294e+001 0.000000e+000 -2.211114e+001
    endloop
  endfacet
  facet normal 8.819213e-001 0.000000e+000 -4.713967e-001
    outer loop
      vertex   2.066294e+001 0.000000e+000 -2.211114e+001
      vertex   2.066294e+001 4.000000e+000 -2.211114e+001
      vertex   2.084776e+001 0.000000e+000 -2.176537e+001
    endloop
  endfacet
  facet normal 9.569403e-001 0.000000e+000 -2.902847e-001
    outer loop
      vertex   2.084776e+001 0.000000e+000 -2.176537e+001
      vertex   2.084776e+001 4.000000e+000 -2.176537e+001
      vertex   2.096157e+001 0.000000e+000 -2.139018e+001
    endloop
  endfacet
  facet normal 2.804774e-016 0.000000e+000 -1.000000e+000
    outer loop
      vertex   1.900000e+001 0.000000e+000 -2.300000e+001
      vertex   -1.900000e+001 0.000000e+000 -2.300000e+001
      vertex   1.900000e+001 4.000000e+000 -2.300000e+001
    endloop
  endfacet
  facet normal 2.804774e-016 0.000000e+000 -1.000000e+000
    outer loop
      vertex   1.900000e+001 4.000000e+000 -2.300000e+001
      vertex   -1.900000e+001 0.000000e+000 -2.300000e+001
      vertex   -1.900000e+001 4.000000e+000 -2.300000e+001
    endloop
  endfacet
  facet normal -9.951847e-001 0.000000e+000 -9.801714e-002
    outer loop
      vertex   -2.100000e+001 0.000000e+000 -2.100000e+001
      vertex   -2.100000e+001 4.000000e+000 -2.100000e+001
      vertex   -2.096157e+001 0.000000e+000 -2.139018e+001
    endloop
  endfacet
  facet normal -9.951847e-001 0.000000e+000 -9.801714e-002
    outer loop
      vertex   -2.096157e+001 0.000000e+000 -2.139018e+001
      vertex   -2.100000e+001 4.000000e+000 -2.100000e+001
      vertex   -2.096157e+001 4.000000e+000 -2.139018e+001
    endloop
  endfacet
  facet normal -9.569403e-001 0.000000e+000 -2.902847e-001
    outer loop
      vertex   -2.084776e+001 0.000000e+000 -2.176537e+001
      vertex   -2.096157e+001 4.000000e+000 -2.139018e+001
      vertex   -2.084776e+001 4.000000e+000 -2.176537e+001
    endloop
  endfacet
  facet normal -8.819213e-001 0.000000e+000 -4.713967e-001
    outer loop
      vertex   -2.066294e+001 0.000000e+000 -2.211114e+001
      vertex   -2.084776e+001 4.000000e+000 -2.176537e+001
      vertex   -2.066294e+001 4.000000e+000 -2.211114e+001
    endloop
  endfacet
  facet normal -7.730105e-001 0.000000e+000 -6.343933e-001
    outer loop
      vertex   -2.041421e+001 0.000000e+000 -2.241421e+001
      vertex   -2.066294e+001 4.000000e+000 -2.211114e+001
      vertex   -2.041421e+001 4.000000e+000 -2.241421e+001
    endloop
  endfacet
  facet normal -6.343933e-001 0.000000e+000 -7.730105e-001
    outer loop
      vertex   -2.011114e+001 0.000000e+000 -2.266294e+001
      vertex   -2.041421e+001 4.000000e+000 -2.241421e+001
      vertex   -2.011114e+001 4.000000e+000 -2.266294e+001
    endloop
  endfacet
  facet normal -4.713967e-001 0.000000e+000 -8.819213e-001
    outer loop
      vertex   -1.976537e+001 0.000000e+000 -2.284776e+001
      vertex   -2.011114e+001 4.000000e+000 -2.266294e+001
      vertex   -1.976537e+001 4.000000e+000 -2.284776e+001
    endloop
  endfacet
  facet normal -2.902847e-001 0.000000e+000 -9.569403e-001
    outer loop
      vertex   -1.939018e+001 0.000000e+000 -2.296157e+001
      vertex   -1.976537e+001 4.000000e+000 -2.284776e+001
      vertex   -1.939018e+001 4.000000e+000 -2.296157e+001
    endloop
  endfacet
  facet normal -9.801714e-002 0.000000e+000 -9.951847e-001
    outer loop
      vertex   -1.900000e+001 0.000000e+000 -2.300000e+001
      vertex   -1.939018e+001 4.000000e+000 -2.296157e+001
      vertex   -1.900000e+001 4.000000e+000 -2.300000e+001
    endloop
  endfacet
  facet normal -9.801714e-002 0.000000e+000 -9.951847e-001
    outer loop
      vertex   -1.900000e+001 0.000000e+000 -2.300000e+001
      vertex   -1.939018e+001 0.000000e+000 -2.296157e+001
      vertex   -1.939018e+001 4.000000e+000 -2.296157e+001
    endloop
  endfacet
  facet normal -9.569403e-001 0.000000e+000 -2.902847e-001
    outer loop
      vertex   -2.096157e+001 0.000000e+000 -2.139018e+001
      vertex   -2.096157e+001 4.000000e+000 -2.139018e+001
      vertex   -2.084776e+001 0.000000e+000 -2.176537e+001
    endloop
  endfacet
  facet normal -8.819213e-001 0.000000e+000 -4.713967e-001
    outer loop
      vertex   -2.084776e+001 0.000000e+000 -2.176537e+001
      vertex   -2.084776e+001 4.000000e+000 -2.176537e+001
      vertex   -2.066294e+001 0.000000e+000 -2.211114e+001
    endloop
  endfacet
  facet normal -7.730105e-001 0.000000e+000 -6.343933e-001
    outer loop
      vertex   -2.066294e+001 0.000000e+000 -2.211114e+001
      vertex   -2.066294e+001 4.000000e+000 -2.211114e+001
      vertex   -2.041421e+001 0.000000e+000 -2.241421e+001
    endloop
  endfacet
  facet normal -6.343933e-001 0.000000e+000 -7.730105e-001
    outer loop
      vertex   -2.041421e+001 0.000000e+000 -2.241421e+001
      vertex   -2.041421e+001 4.000000e+000 -2.241421e+001
      vertex   -2.011114e+001 0.000000e+000 -2.266294e+001
    endloop
  endfacet
  facet normal -4.713967e-001 0.000000e+000 -8.819213e-001
    outer loop
      vertex   -2.011114e+001 0.000000e+000 -2.266294e+001
      vertex   -2.011114e+001 4.000000e+000 -2.266294e+001
      vertex   -1.976537e+001 0.000000e+000 -2.284776e+001
    endloop
  endfacet
  facet normal -2.902847e-001 0.000000e+000 -9.569403e-001
    outer loop
      vertex   -1.976537e+001 0.000000e+000 -2.284776e+001
      vertex   -1.976537e+001 4.000000e+000 -2.284776e+001
      vertex   -1.939018e+001 0.000000e+000 -2.296157e+001
    endloop
  endfacet
  facet normal -1.000000e+000 -0.000000e+000 -0.000000e+000
    outer loop
      vertex   -2.100000e+001 4.000000e+000 -1.900000e+001
      vertex   -2.100000e+001 4.000000e+000 -2.100000e+001
      vertex   -2.100000e+001 2.000000e+000 -1.900000e+001
    endloop
  endfacet
  facet normal -1.000000e+000 -0.000000e+000 -0.000000e+000
    outer loop
      vertex   -2.100000e+001 2.000000e+000 -1.900000e+001
      vertex   -2.100000e+001 4.000000e+000 -2.100000e+001
      vertex   -2.100000e+001 0.000000e+000 -2.100000e+001
    endloop
  endfacet
  facet normal -1.000000e+000 -1.522592e-015 1.691768e-016
    outer loop
      vertex   -2.100000e+001 2.000000e+000 -3.000000e+000
      vertex   -2.100000e+001 0.000000e+000 -2.100000e+001
      vertex   -2.100000e+001 0.000000e+000 2.100000e+001
    endloop
  endfacet
  facet normal -1.000000e+000 0.000000e+000 2.960595e-016
    outer loop
      vertex   -2.100000e+001 4.000000e+000 2.100000e+001
      vertex   -2.100000e+001 2.000000e+000 -3.000000e+000
      vertex   -2.100000e+001 0.000000e+000 2.100000e+001
    endloop
  endfacet
  facet normal -1.000000e+000 0.000000e+000 2.960595e-016
    outer loop
      vertex   -2.100000e+001 4.000000e+000 2.100000e+001
      vertex   -2.100000e+001 4.000000e+000 -3.000000e+000
      vertex   -2.100000e+001 2.000000e+000 -3.000000e+000
    endloop
  endfacet
  facet normal -1.000000e+000 -0.000000e+000 0.000000e+000
    outer loop
      vertex   -2.100000e+001 2.000000e+000 -1.900000e+001
      vertex   -2.100000e+001 0.000000e+000 -2.100000e+001
      vertex   -2.100000e+001 2.000000e+000 -3.000000e+000
    endloop
  endfacet
  facet normal 1.000000e+000 0.000000e+000 -2.537653e-016
    outer loop
      vertex   2.100000e+001 0.000000e+000 2.100000e+001
      vertex   2.100000e+001 0.000000e+000 -2.100000e+001
      vertex   2.100000e+001 4.000000e+000 2.100000e+001
    endloop
  endfacet
  facet normal 1.000000e+000 0.000000e+000 -2.537653e-016
    outer loop
      vertex   2.100000e+001 4.000000e+000 2.100000e+001
      vertex   2.100000e+001 0.000000e+000 -2.100000e+001
      vertex   2.100000e+001 4.000000e+000 -2.100000e+001
    endloop
  endfacet
endsolid
