solid ascii
  facet normal -1.000000e+000 5.075305e-016 0.000000e+000
    outer loop
      vertex   -1.100000e+002 2.800000e+001 0.000000e+000
      vertex   -1.100000e+002 -2.800000e+001 0.000000e+000
      vertex   -1.100000e+002 2.800000e+001 1.130000e+001
    endloop
  endfacet
  facet normal -1.000000e+000 5.075305e-016 0.000000e+000
    outer loop
      vertex   -1.100000e+002 2.800000e+001 1.130000e+001
      vertex   -1.100000e+002 -2.800000e+001 0.000000e+000
      vertex   -1.100000e+002 -2.800000e+001 1.130000e+001
    endloop
  endfacet
  facet normal -1.453383e-016 1.000000e+000 6.287989e-016
    outer loop
      vertex   1.100000e+002 2.800000e+001 0.000000e+000
      vertex   -1.100000e+002 2.800000e+001 0.000000e+000
      vertex   1.100000e+002 2.800000e+001 1.130000e+001
    endloop
  endfacet
  facet normal -1.130409e-016 1.000000e+000 0.000000e+000
    outer loop
      vertex   1.100000e+002 2.800000e+001 1.130000e+001
      vertex   -1.100000e+002 2.800000e+001 0.000000e+000
      vertex   -1.100000e+002 2.800000e+001 1.130000e+001
    endloop
  endfacet
  facet normal 1.000000e+000 0.000000e+000 -0.000000e+000
    outer loop
      vertex   1.100000e+002 -2.800000e+001 0.000000e+000
      vertex   1.100000e+002 2.800000e+001 0.000000e+000
      vertex   1.100000e+002 -2.800000e+001 1.130000e+001
    endloop
  endfacet
  facet normal 1.000000e+000 -0.000000e+000 -0.000000e+000
    outer loop
      vertex   1.100000e+002 -2.800000e+001 1.130000e+001
      vertex   1.100000e+002 2.800000e+001 0.000000e+000
      vertex   1.100000e+002 2.800000e+001 1.130000e+001
    endloop
  endfacet
  facet normal 0.000000e+000 -1.000000e+000 0.000000e+000
    outer loop
      vertex   -1.100000e+002 -2.800000e+001 0.000000e+000
      vertex   1.100000e+002 -2.800000e+001 0.000000e+000
      vertex   -1.100000e+002 -2.800000e+001 1.130000e+001
    endloop
  endfacet
  facet normal 0.000000e+000 -1.000000e+000 0.000000e+000
    outer loop
      vertex   -1.100000e+002 -2.800000e+001 1.130000e+001
      vertex   1.100000e+002 -2.800000e+001 0.000000e+000
      vertex   1.100000e+002 -2.800000e+001 1.130000e+001
    endloop
  endfacet
  facet normal 0.000000e+000 -0.000000e+000 1.000000e+000
    outer loop
      vertex   -1.100000e+002 -2.800000e+001 1.130000e+001
      vertex   1.100000e+002 -2.800000e+001 1.130000e+001
      vertex   -1.100000e+002 2.800000e+001 1.130000e+001
    endloop
  endfacet
  facet normal -0.000000e+000 0.000000e+000 1.000000e+000
    outer loop
      vertex   -1.100000e+002 2.800000e+001 1.130000e+001
      vertex   1.100000e+002 -2.800000e+001 1.130000e+001
      vertex   1.100000e+002 2.800000e+001 1.130000e+001
    endloop
  endfacet
  facet normal 0.000000e+000 0.000000e+000 -1.000000e+000
    outer loop
      vertex   1.100000e+002 -2.800000e+001 0.000000e+000
      vertex   -1.100000e+002 -2.800000e+001 0.000000e+000
      vertex   1.100000e+002 2.800000e+001 0.000000e+000
    endloop
  endfacet
  facet normal -0.000000e+000 0.000000e+000 -1.000000e+000
    outer loop
      vertex   1.100000e+002 2.800000e+001 0.000000e+000
      vertex   -1.100000e+002 -2.800000e+001 0.000000e+000
      vertex   -1.100000e+002 2.800000e+001 0.000000e+000
    endloop
  endfacet
endsolid
