%FSLAX46Y46*%
G04 Gerber Fmt 4.6, Leading zero omitted, Abs format (unit mm)*
G04 Created by KiCad (PCBNEW (2014-07-24 BZR 5026)-product) date 7/26/2014 7:32:10 PM*
%MOMM*%
G01*
G04 APERTURE LIST*
%ADD10C,0.100000*%
%ADD11R,1.143000X0.635000*%
%ADD12R,0.635000X1.143000*%
%ADD13R,2.032000X0.660400*%
%ADD14R,1.727200X2.032000*%
%ADD15O,1.727200X2.032000*%
%ADD16R,2.032000X2.032000*%
%ADD17O,2.032000X2.032000*%
%ADD18R,2.032000X1.727200*%
%ADD19O,2.032000X1.727200*%
%ADD20R,1.727200X1.727200*%
%ADD21O,1.727200X1.727200*%
%ADD22R,0.914400X0.914400*%
%ADD23R,3.657600X2.032000*%
%ADD24R,1.016000X2.032000*%
%ADD25C,1.397000*%
%ADD26C,0.889000*%
%ADD27C,0.508000*%
%ADD28C,0.254000*%
%ADD29C,0.381000*%
G04 APERTURE END LIST*
D10*
X-2413000Y46172120D02*
X-2413000Y-2667000D01*
X42037000Y46172120D02*
X-2413000Y46172120D01*
X42037000Y-2667000D02*
X42037000Y46172120D01*
X-2413000Y-2667000D02*
X42037000Y-2667000D01*
D11*
X4277360Y7142480D03*
X4277360Y5618480D03*
D12*
X35687000Y21844000D03*
X34163000Y21844000D03*
X12171680Y22641560D03*
X13695680Y22641560D03*
D13*
X17627600Y34894520D03*
X17627600Y33624520D03*
X17627600Y32354520D03*
X17627600Y31084520D03*
X17627600Y29814520D03*
X17627600Y28544520D03*
X17627600Y27274520D03*
X17627600Y26004520D03*
X27686000Y26004520D03*
X27686000Y27274520D03*
X27686000Y28544520D03*
X27686000Y29814520D03*
X27686000Y31084520D03*
X27686000Y32354520D03*
X27686000Y33624520D03*
X27686000Y34894520D03*
X17627600Y24734520D03*
X17627600Y23464520D03*
X27686000Y24734520D03*
X27686000Y23464520D03*
D14*
X33746440Y17668240D03*
D15*
X31206440Y17668240D03*
X28666440Y17668240D03*
D16*
X4277360Y14152880D03*
D17*
X4277360Y11612880D03*
D18*
X4988560Y34041080D03*
D19*
X4988560Y31501080D03*
X4988560Y28961080D03*
X4988560Y26421080D03*
X4988560Y23881080D03*
D20*
X33624520Y34569400D03*
D21*
X36164520Y34569400D03*
X33624520Y32029400D03*
X36164520Y32029400D03*
X33624520Y29489400D03*
X36164520Y29489400D03*
D22*
X19177000Y12654280D03*
X19177000Y14432280D03*
X21209000Y13543280D03*
D11*
X20990560Y5085080D03*
X20990560Y6609080D03*
X35941000Y24638000D03*
X35941000Y26162000D03*
X31775400Y22458680D03*
X31775400Y20934680D03*
X31775400Y25963880D03*
X31775400Y24439880D03*
X20914360Y19486880D03*
X20914360Y21010880D03*
D23*
X11760200Y12633960D03*
D24*
X11760200Y19237960D03*
X9474200Y19237960D03*
X14046200Y19237960D03*
D25*
X22555200Y8956040D03*
X22555200Y3876040D03*
X30175200Y8956040D03*
X30175200Y3876040D03*
X7807960Y8346440D03*
X7807960Y3266440D03*
X15427960Y8346440D03*
X15427960Y3266440D03*
D26*
X12837160Y10495280D03*
X22057360Y11089640D03*
X37719000Y24638000D03*
X2316480Y20518120D03*
X30718760Y34853880D03*
X11871960Y24876760D03*
X19187160Y2164080D03*
X12801600Y35295840D03*
X30286960Y28285440D03*
X22946360Y19842480D03*
D27*
X21209000Y13543280D02*
X23886160Y13543280D01*
X23886160Y13543280D02*
X24267160Y13924280D01*
X24267160Y13924280D02*
X24267160Y20934680D01*
X24267160Y20934680D02*
X31775400Y20934680D01*
X22057360Y11089640D02*
X22057360Y12694920D01*
X6344920Y11612880D02*
X7421880Y10535920D01*
X7421880Y10535920D02*
X12837160Y10495280D01*
X4277360Y11612880D02*
X6344920Y11612880D01*
X22057360Y12694920D02*
X21209000Y13543280D01*
D28*
X4277360Y11612880D02*
X4277360Y7142480D01*
D27*
X9474200Y19237960D02*
X2570480Y19237960D01*
X2570480Y19237960D02*
X1940560Y18608040D01*
X1940560Y18608040D02*
X1940560Y11292840D01*
X1940560Y11292840D02*
X2260600Y11612880D01*
X2260600Y11612880D02*
X4277360Y11612880D01*
D28*
X13695680Y22641560D02*
X13695680Y22321520D01*
X13695680Y22321520D02*
X14046200Y21971000D01*
X14046200Y21971000D02*
X14046200Y19237960D01*
X31734760Y25735280D02*
X31760160Y25760680D01*
D29*
X37719000Y24638000D02*
X35941000Y24638000D01*
X35560000Y25146000D02*
X35560000Y21971000D01*
X35560000Y21971000D02*
X35687000Y21844000D01*
X2316480Y20518120D02*
X3154680Y21356320D01*
X3154680Y21356320D02*
X9860280Y21356320D01*
X9860280Y21356320D02*
X11145520Y22641560D01*
X11145520Y22641560D02*
X12171680Y22641560D01*
D28*
X11760200Y19237960D02*
X11760200Y22230080D01*
X11760200Y22230080D02*
X12171680Y22641560D01*
X27686000Y34894520D02*
X30678120Y34894520D01*
X30678120Y34894520D02*
X30718760Y34853880D01*
D29*
X14274800Y27279600D02*
X17622520Y27279600D01*
X11871960Y24876760D02*
X14274800Y27279600D01*
D28*
X17622520Y27279600D02*
X17627600Y27274520D01*
D29*
X19187160Y2164080D02*
X19263360Y2087880D01*
X19263360Y2087880D02*
X20330160Y2087880D01*
X20330160Y2087880D02*
X20990560Y2748280D01*
X20990560Y2748280D02*
X20990560Y5085080D01*
X33624520Y29489400D02*
X33624520Y26573480D01*
X34036000Y26162000D02*
X35941000Y26162000D01*
X33624520Y26573480D02*
X34036000Y26162000D01*
X17627600Y34894520D02*
X13202920Y34894520D01*
X13202920Y34894520D02*
X12801600Y35295840D01*
X4988560Y28961080D02*
X8722360Y28961080D01*
X10515600Y33624520D02*
X17627600Y33624520D01*
X9128760Y32237680D02*
X10515600Y33624520D01*
D28*
X9128760Y29367480D02*
X9128760Y32237680D01*
X8722360Y28961080D02*
X9128760Y29367480D01*
D29*
X4988560Y26421080D02*
X8976360Y26421080D01*
X8976360Y26421080D02*
X9763760Y27208480D01*
X9763760Y27208480D02*
X9763760Y31780480D01*
X9763760Y31780480D02*
X10337800Y32354520D01*
X10337800Y32354520D02*
X17627600Y32354520D01*
X4988560Y23881080D02*
X9768840Y23881080D01*
X9768840Y23881080D02*
X10744200Y24856440D01*
X10744200Y24856440D02*
X10744200Y27487880D01*
X10744200Y27487880D02*
X11800840Y28544520D01*
X11800840Y28544520D02*
X17627600Y28544520D01*
X17627600Y26004520D02*
X20594320Y26004520D01*
X20594320Y26004520D02*
X20990560Y25608280D01*
X20990560Y25608280D02*
X20990560Y21087080D01*
D28*
X20990560Y21087080D02*
X20914360Y21010880D01*
X27686000Y27274520D02*
X23606760Y27274520D01*
X23606760Y27274520D02*
X23352760Y27528520D01*
D29*
X4988560Y31501080D02*
X7975600Y31501080D01*
X7975600Y31501080D02*
X8112760Y31638240D01*
X8112760Y31638240D02*
X8112760Y36398200D01*
X8112760Y36398200D02*
X8991600Y37277040D01*
X8991600Y37277040D02*
X22250400Y37277040D01*
X22250400Y37277040D02*
X23352760Y36174680D01*
X23352760Y36174680D02*
X23352760Y27528520D01*
D28*
X23962360Y26004520D02*
X27686000Y26004520D01*
X23352760Y26614120D02*
X23962360Y26004520D01*
X23352760Y27528520D02*
X23352760Y26614120D01*
X27686000Y28544520D02*
X30027880Y28544520D01*
X30027880Y28544520D02*
X30286960Y28285440D01*
D29*
X27686000Y31084520D02*
X26360120Y31084520D01*
X26360120Y31084520D02*
X24622760Y32821880D01*
X24622760Y32821880D02*
X24622760Y36530280D01*
X24622760Y36530280D02*
X25740360Y37647880D01*
X25740360Y37647880D02*
X37017960Y37647880D01*
X37017960Y37647880D02*
X38465760Y36200080D01*
X38465760Y36200080D02*
X38465760Y34330640D01*
X38465760Y34330640D02*
X36164520Y32029400D01*
X33624520Y34569400D02*
X33624520Y36240720D01*
X33624520Y36240720D02*
X32979360Y36885880D01*
X32979360Y36885880D02*
X25943560Y36885880D01*
X25943560Y36885880D02*
X25435560Y36377880D01*
X25435560Y36377880D02*
X25435560Y33101280D01*
X25435560Y33101280D02*
X26182320Y32354520D01*
X26182320Y32354520D02*
X27686000Y32354520D01*
D28*
X27686000Y33624520D02*
X31038800Y33624520D01*
X32633920Y32029400D02*
X33624520Y32029400D01*
X31038800Y33624520D02*
X32633920Y32029400D01*
X15427960Y8346440D02*
X15946120Y8346440D01*
D29*
X15946120Y8346440D02*
X17028160Y9428480D01*
X19552920Y24734520D02*
X17627600Y24734520D01*
X20076160Y24211280D02*
X19552920Y24734520D01*
X20076160Y22987000D02*
X20076160Y24211280D01*
X17028160Y19939000D02*
X20076160Y22987000D01*
X17028160Y9428480D02*
X17028160Y19939000D01*
X31775400Y24439880D02*
X31775400Y22458680D01*
X27686000Y24734520D02*
X29728160Y24734520D01*
X29728160Y24734520D02*
X30022800Y24439880D01*
X30022800Y24439880D02*
X31775400Y24439880D01*
X27686000Y23464520D02*
X23545800Y23464520D01*
X23545800Y23464520D02*
X22946360Y22865080D01*
X22946360Y22865080D02*
X22946360Y19842480D01*
X31206440Y17668240D02*
X31206440Y12136120D01*
X19177000Y10673080D02*
X19177000Y12654280D01*
X19659600Y10190480D02*
X19177000Y10673080D01*
X23129240Y10190480D02*
X19659600Y10190480D01*
X23926800Y10988040D02*
X23129240Y10190480D01*
X30058360Y10988040D02*
X23926800Y10988040D01*
X31206440Y12136120D02*
X30058360Y10988040D01*
X20914360Y19486880D02*
X18907760Y17480280D01*
X18907760Y17480280D02*
X18907760Y14701520D01*
D28*
X18907760Y14701520D02*
X19177000Y14432280D01*
X18968720Y14640560D02*
X19177000Y14432280D01*
G36*
X38989000Y36844274D02*
X37601677Y38231597D01*
X37333866Y38410543D01*
X37017960Y38473380D01*
X25740360Y38473380D01*
X25424454Y38410543D01*
X25156643Y38231597D01*
X24039043Y37113997D01*
X23860097Y36846186D01*
X23858203Y36836670D01*
X22834117Y37860757D01*
X22566306Y38039703D01*
X22250400Y38102540D01*
X8991600Y38102540D01*
X8675695Y38039703D01*
X8407883Y37860757D01*
X8407880Y37860754D01*
X7529043Y36981917D01*
X7350097Y36714106D01*
X7287260Y36398200D01*
X7287260Y32326580D01*
X6389442Y32326580D01*
X6232975Y32560750D01*
X6210780Y32575580D01*
X6364259Y32639153D01*
X6542887Y32817782D01*
X6639560Y33051171D01*
X6639560Y33755330D01*
X6639560Y34326830D01*
X6639560Y35030989D01*
X6542887Y35264378D01*
X6364259Y35443007D01*
X6130870Y35539680D01*
X5878251Y35539680D01*
X5274310Y35539680D01*
X5115560Y35380930D01*
X5115560Y34168080D01*
X6480810Y34168080D01*
X6639560Y34326830D01*
X6639560Y33755330D01*
X6480810Y33914080D01*
X5115560Y33914080D01*
X5115560Y33894080D01*
X4861560Y33894080D01*
X4861560Y33914080D01*
X4861560Y34168080D01*
X4861560Y35380930D01*
X4702810Y35539680D01*
X4098869Y35539680D01*
X3846250Y35539680D01*
X3612861Y35443007D01*
X3434233Y35264378D01*
X3337560Y35030989D01*
X3337560Y34326830D01*
X3496310Y34168080D01*
X4861560Y34168080D01*
X4861560Y33914080D01*
X3496310Y33914080D01*
X3337560Y33755330D01*
X3337560Y33051171D01*
X3434233Y32817782D01*
X3612861Y32639153D01*
X3766339Y32575580D01*
X3744145Y32560750D01*
X3419289Y32074569D01*
X3305215Y31501080D01*
X3419289Y30927591D01*
X3744145Y30441410D01*
X4058925Y30231080D01*
X3744145Y30020750D01*
X3419289Y29534569D01*
X3305215Y28961080D01*
X3419289Y28387591D01*
X3744145Y27901410D01*
X4058925Y27691080D01*
X3744145Y27480750D01*
X3419289Y26994569D01*
X3305215Y26421080D01*
X3419289Y25847591D01*
X3744145Y25361410D01*
X4058925Y25151080D01*
X3744145Y24940750D01*
X3419289Y24454569D01*
X3305215Y23881080D01*
X3419289Y23307591D01*
X3744145Y22821410D01*
X4230326Y22496554D01*
X4803815Y22382480D01*
X5173305Y22382480D01*
X5746794Y22496554D01*
X6232975Y22821410D01*
X6389442Y23055580D01*
X9768840Y23055580D01*
X10084745Y23118417D01*
X10084746Y23118417D01*
X10352557Y23297363D01*
X11138608Y24083416D01*
X11259674Y23962138D01*
X11631017Y23807942D01*
X11494482Y23751387D01*
X11315853Y23572759D01*
X11272070Y23467060D01*
X11145525Y23467060D01*
X11145520Y23467061D01*
X10829615Y23404223D01*
X10561803Y23225277D01*
X9518346Y22181820D01*
X3154685Y22181820D01*
X3154680Y22181821D01*
X2838775Y22118983D01*
X2570963Y21940037D01*
X2228623Y21597698D01*
X2102696Y21597807D01*
X1705791Y21433809D01*
X1401858Y21130406D01*
X1237167Y20733788D01*
X1236793Y20304336D01*
X1400791Y19907431D01*
X1691499Y19616216D01*
X1311942Y19236658D01*
X1119231Y18948246D01*
X1082353Y18762850D01*
X1016007Y38733095D01*
X1138837Y42418000D01*
X38989000Y42418000D01*
X38989000Y36844274D01*
X38989000Y36844274D01*
G37*
X38989000Y36844274D02*
X37601677Y38231597D01*
X37333866Y38410543D01*
X37017960Y38473380D01*
X25740360Y38473380D01*
X25424454Y38410543D01*
X25156643Y38231597D01*
X24039043Y37113997D01*
X23860097Y36846186D01*
X23858203Y36836670D01*
X22834117Y37860757D01*
X22566306Y38039703D01*
X22250400Y38102540D01*
X8991600Y38102540D01*
X8675695Y38039703D01*
X8407883Y37860757D01*
X8407880Y37860754D01*
X7529043Y36981917D01*
X7350097Y36714106D01*
X7287260Y36398200D01*
X7287260Y32326580D01*
X6389442Y32326580D01*
X6232975Y32560750D01*
X6210780Y32575580D01*
X6364259Y32639153D01*
X6542887Y32817782D01*
X6639560Y33051171D01*
X6639560Y33755330D01*
X6639560Y34326830D01*
X6639560Y35030989D01*
X6542887Y35264378D01*
X6364259Y35443007D01*
X6130870Y35539680D01*
X5878251Y35539680D01*
X5274310Y35539680D01*
X5115560Y35380930D01*
X5115560Y34168080D01*
X6480810Y34168080D01*
X6639560Y34326830D01*
X6639560Y33755330D01*
X6480810Y33914080D01*
X5115560Y33914080D01*
X5115560Y33894080D01*
X4861560Y33894080D01*
X4861560Y33914080D01*
X4861560Y34168080D01*
X4861560Y35380930D01*
X4702810Y35539680D01*
X4098869Y35539680D01*
X3846250Y35539680D01*
X3612861Y35443007D01*
X3434233Y35264378D01*
X3337560Y35030989D01*
X3337560Y34326830D01*
X3496310Y34168080D01*
X4861560Y34168080D01*
X4861560Y33914080D01*
X3496310Y33914080D01*
X3337560Y33755330D01*
X3337560Y33051171D01*
X3434233Y32817782D01*
X3612861Y32639153D01*
X3766339Y32575580D01*
X3744145Y32560750D01*
X3419289Y32074569D01*
X3305215Y31501080D01*
X3419289Y30927591D01*
X3744145Y30441410D01*
X4058925Y30231080D01*
X3744145Y30020750D01*
X3419289Y29534569D01*
X3305215Y28961080D01*
X3419289Y28387591D01*
X3744145Y27901410D01*
X4058925Y27691080D01*
X3744145Y27480750D01*
X3419289Y26994569D01*
X3305215Y26421080D01*
X3419289Y25847591D01*
X3744145Y25361410D01*
X4058925Y25151080D01*
X3744145Y24940750D01*
X3419289Y24454569D01*
X3305215Y23881080D01*
X3419289Y23307591D01*
X3744145Y22821410D01*
X4230326Y22496554D01*
X4803815Y22382480D01*
X5173305Y22382480D01*
X5746794Y22496554D01*
X6232975Y22821410D01*
X6389442Y23055580D01*
X9768840Y23055580D01*
X10084745Y23118417D01*
X10084746Y23118417D01*
X10352557Y23297363D01*
X11138608Y24083416D01*
X11259674Y23962138D01*
X11631017Y23807942D01*
X11494482Y23751387D01*
X11315853Y23572759D01*
X11272070Y23467060D01*
X11145525Y23467060D01*
X11145520Y23467061D01*
X10829615Y23404223D01*
X10561803Y23225277D01*
X9518346Y22181820D01*
X3154685Y22181820D01*
X3154680Y22181821D01*
X2838775Y22118983D01*
X2570963Y21940037D01*
X2228623Y21597698D01*
X2102696Y21597807D01*
X1705791Y21433809D01*
X1401858Y21130406D01*
X1237167Y20733788D01*
X1236793Y20304336D01*
X1400791Y19907431D01*
X1691499Y19616216D01*
X1311942Y19236658D01*
X1119231Y18948246D01*
X1082353Y18762850D01*
X1016007Y38733095D01*
X1138837Y42418000D01*
X38989000Y42418000D01*
X38989000Y36844274D01*
G36*
X38989000Y635000D02*
X35245040Y635000D01*
X35245040Y16525930D01*
X35245040Y16778549D01*
X35245040Y17382490D01*
X35245040Y17953990D01*
X35245040Y18557931D01*
X35245040Y18810550D01*
X35148367Y19043939D01*
X34969738Y19222567D01*
X34736349Y19319240D01*
X34036000Y19319240D01*
X34036000Y20796250D01*
X34036000Y21717000D01*
X34036000Y21971000D01*
X34036000Y22891750D01*
X33877250Y23050500D01*
X33719191Y23050500D01*
X33485802Y22953827D01*
X33307173Y22775199D01*
X33210500Y22541810D01*
X33210500Y22289191D01*
X33210500Y22129750D01*
X33369250Y21971000D01*
X34036000Y21971000D01*
X34036000Y21717000D01*
X33369250Y21717000D01*
X33210500Y21558250D01*
X33210500Y21398809D01*
X33210500Y21146190D01*
X33307173Y20912801D01*
X33485802Y20734173D01*
X33719191Y20637500D01*
X33877250Y20637500D01*
X34036000Y20796250D01*
X34036000Y19319240D01*
X34032190Y19319240D01*
X33873440Y19160490D01*
X33873440Y17795240D01*
X35086290Y17795240D01*
X35245040Y17953990D01*
X35245040Y17382490D01*
X35086290Y17541240D01*
X33873440Y17541240D01*
X33873440Y16175990D01*
X34032190Y16017240D01*
X34736349Y16017240D01*
X34969738Y16113913D01*
X35148367Y16292541D01*
X35245040Y16525930D01*
X35245040Y635000D01*
X31521127Y635000D01*
X31521127Y3683520D01*
X31492348Y4213239D01*
X31345000Y4568969D01*
X31109388Y4630623D01*
X30929783Y4451018D01*
X30929783Y4810228D01*
X30868129Y5045840D01*
X30367720Y5221967D01*
X29838001Y5193188D01*
X29482271Y5045840D01*
X29420617Y4810228D01*
X30175200Y4055645D01*
X30929783Y4810228D01*
X30929783Y4451018D01*
X30354805Y3876040D01*
X31109388Y3121457D01*
X31345000Y3183111D01*
X31521127Y3683520D01*
X31521127Y635000D01*
X30929783Y635000D01*
X30929783Y2941852D01*
X30175200Y3696435D01*
X29995595Y3516830D01*
X29995595Y3876040D01*
X29241012Y4630623D01*
X29005400Y4568969D01*
X28829273Y4068560D01*
X28858052Y3538841D01*
X29005400Y3183111D01*
X29241012Y3121457D01*
X29995595Y3876040D01*
X29995595Y3516830D01*
X29420617Y2941852D01*
X29482271Y2706240D01*
X29982680Y2530113D01*
X30512399Y2558892D01*
X30868129Y2706240D01*
X30929783Y2941852D01*
X30929783Y635000D01*
X23901127Y635000D01*
X23901127Y3683520D01*
X23872348Y4213239D01*
X23725000Y4568969D01*
X23489388Y4630623D01*
X22734805Y3876040D01*
X23489388Y3121457D01*
X23725000Y3183111D01*
X23901127Y3683520D01*
X23901127Y635000D01*
X23309783Y635000D01*
X23309783Y2941852D01*
X22555200Y3696435D01*
X22541057Y3682293D01*
X22361452Y3861898D01*
X22375595Y3876040D01*
X22361452Y3890183D01*
X22541057Y4069788D01*
X22555200Y4055645D01*
X23309783Y4810228D01*
X23248129Y5045840D01*
X22747720Y5221967D01*
X22218001Y5193188D01*
X22197060Y5184514D01*
X22197060Y5528889D01*
X22100387Y5762278D01*
X22015585Y5847080D01*
X22100387Y5931882D01*
X22197060Y6165271D01*
X22197060Y6323330D01*
X22197060Y6894830D01*
X22197060Y7052889D01*
X22100387Y7286278D01*
X21921759Y7464907D01*
X21688370Y7561580D01*
X21435751Y7561580D01*
X21276310Y7561580D01*
X21117560Y7402830D01*
X21117560Y6736080D01*
X22038310Y6736080D01*
X22197060Y6894830D01*
X22197060Y6323330D01*
X22038310Y6482080D01*
X21117560Y6482080D01*
X21117560Y6462080D01*
X20863560Y6462080D01*
X20863560Y6482080D01*
X20863560Y6736080D01*
X20863560Y7402830D01*
X20704810Y7561580D01*
X20545369Y7561580D01*
X20292750Y7561580D01*
X20059361Y7464907D01*
X19880733Y7286278D01*
X19784060Y7052889D01*
X19784060Y6894830D01*
X19942810Y6736080D01*
X20863560Y6736080D01*
X20863560Y6482080D01*
X19942810Y6482080D01*
X19784060Y6323330D01*
X19784060Y6165271D01*
X19880733Y5931882D01*
X19965534Y5847081D01*
X19880733Y5762279D01*
X19784060Y5528890D01*
X19784060Y5276271D01*
X19784060Y4641271D01*
X19880733Y4407882D01*
X20059361Y4229253D01*
X20165060Y4185471D01*
X20165060Y3090214D01*
X19988226Y2913380D01*
X19964479Y2913380D01*
X19799446Y3078702D01*
X19402828Y3243393D01*
X18973376Y3243767D01*
X18576471Y3079769D01*
X18272538Y2776366D01*
X18107847Y2379748D01*
X18107473Y1950296D01*
X18271471Y1553391D01*
X18574874Y1249458D01*
X18971492Y1084767D01*
X19400944Y1084393D01*
X19797849Y1248391D01*
X19811862Y1262380D01*
X20330160Y1262380D01*
X20646065Y1325217D01*
X20646066Y1325217D01*
X20913877Y1504163D01*
X21574273Y2164561D01*
X21574277Y2164563D01*
X21574277Y2164564D01*
X21753223Y2432375D01*
X21816060Y2748280D01*
X21816061Y2748280D01*
X21816060Y2748286D01*
X21816060Y2882837D01*
X21862271Y2706240D01*
X22362680Y2530113D01*
X22892399Y2558892D01*
X23248129Y2706240D01*
X23309783Y2941852D01*
X23309783Y635000D01*
X16773887Y635000D01*
X16773887Y3073920D01*
X16745108Y3603639D01*
X16597760Y3959369D01*
X16362148Y4021023D01*
X16182543Y3841418D01*
X16182543Y4200628D01*
X16120889Y4436240D01*
X15620480Y4612367D01*
X15090761Y4583588D01*
X14735031Y4436240D01*
X14673377Y4200628D01*
X15427960Y3446045D01*
X16182543Y4200628D01*
X16182543Y3841418D01*
X15607565Y3266440D01*
X16362148Y2511857D01*
X16597760Y2573511D01*
X16773887Y3073920D01*
X16773887Y635000D01*
X16182543Y635000D01*
X16182543Y2332252D01*
X15427960Y3086835D01*
X15248355Y2907230D01*
X15248355Y3266440D01*
X14493772Y4021023D01*
X14258160Y3959369D01*
X14082033Y3458960D01*
X14110812Y2929241D01*
X14258160Y2573511D01*
X14493772Y2511857D01*
X15248355Y3266440D01*
X15248355Y2907230D01*
X14673377Y2332252D01*
X14735031Y2096640D01*
X15235440Y1920513D01*
X15765159Y1949292D01*
X16120889Y2096640D01*
X16182543Y2332252D01*
X16182543Y635000D01*
X9153887Y635000D01*
X9153887Y3073920D01*
X9125108Y3603639D01*
X8977760Y3959369D01*
X8742148Y4021023D01*
X8562543Y3841418D01*
X8562543Y4200628D01*
X8500889Y4436240D01*
X8000480Y4612367D01*
X7470761Y4583588D01*
X7115031Y4436240D01*
X7053377Y4200628D01*
X7807960Y3446045D01*
X8562543Y4200628D01*
X8562543Y3841418D01*
X7987565Y3266440D01*
X8742148Y2511857D01*
X8977760Y2573511D01*
X9153887Y3073920D01*
X9153887Y635000D01*
X8562543Y635000D01*
X8562543Y2332252D01*
X7807960Y3086835D01*
X7628355Y2907230D01*
X7628355Y3266440D01*
X6873772Y4021023D01*
X6638160Y3959369D01*
X6462033Y3458960D01*
X6490812Y2929241D01*
X6638160Y2573511D01*
X6873772Y2511857D01*
X7628355Y3266440D01*
X7628355Y2907230D01*
X7053377Y2332252D01*
X7115031Y2096640D01*
X7615440Y1920513D01*
X8145159Y1949292D01*
X8500889Y2096640D01*
X8562543Y2332252D01*
X8562543Y635000D01*
X5483860Y635000D01*
X5483860Y5174671D01*
X5483860Y5332730D01*
X5325110Y5491480D01*
X4404360Y5491480D01*
X4404360Y4824730D01*
X4563110Y4665980D01*
X4722551Y4665980D01*
X4975170Y4665980D01*
X5208559Y4762653D01*
X5387187Y4941282D01*
X5483860Y5174671D01*
X5483860Y635000D01*
X4150360Y635000D01*
X4150360Y4824730D01*
X4150360Y5491480D01*
X3229610Y5491480D01*
X3070860Y5332730D01*
X3070860Y5174671D01*
X3167533Y4941282D01*
X3346161Y4762653D01*
X3579550Y4665980D01*
X3832169Y4665980D01*
X3991610Y4665980D01*
X4150360Y4824730D01*
X4150360Y635000D01*
X1142579Y635000D01*
X1108115Y11008516D01*
X1119231Y10952634D01*
X1311942Y10664222D01*
X1600354Y10471511D01*
X1600355Y10471511D01*
X1940560Y10403840D01*
X2280765Y10471511D01*
X2280766Y10471511D01*
X2569178Y10664222D01*
X2628836Y10723880D01*
X2902271Y10723880D01*
X3109927Y10413102D01*
X3515360Y10142201D01*
X3515360Y8068392D01*
X3346162Y7998307D01*
X3167533Y7819679D01*
X3070860Y7586290D01*
X3070860Y7333671D01*
X3070860Y6698671D01*
X3167533Y6465282D01*
X3252334Y6380480D01*
X3167533Y6295678D01*
X3070860Y6062289D01*
X3070860Y5904230D01*
X3229610Y5745480D01*
X4150360Y5745480D01*
X4150360Y5765480D01*
X4404360Y5765480D01*
X4404360Y5745480D01*
X5325110Y5745480D01*
X5483860Y5904230D01*
X5483860Y6062289D01*
X5387187Y6295678D01*
X5302385Y6380480D01*
X5387187Y6465281D01*
X5483860Y6698670D01*
X5483860Y6951289D01*
X5483860Y7586289D01*
X5387187Y7819678D01*
X5208559Y7998307D01*
X5039360Y8068392D01*
X5039360Y10142201D01*
X5444793Y10413102D01*
X5652448Y10723880D01*
X5976684Y10723880D01*
X6793262Y9907302D01*
X6934725Y9812779D01*
X7075520Y9717167D01*
X7078848Y9716479D01*
X7081674Y9714591D01*
X7248561Y9681396D01*
X7415209Y9646945D01*
X7462600Y9646590D01*
X7053580Y9477586D01*
X6678133Y9102793D01*
X6474692Y8612853D01*
X6474229Y8082354D01*
X6676814Y7592060D01*
X7051607Y7216613D01*
X7541547Y7013172D01*
X8072046Y7012709D01*
X8562340Y7215294D01*
X8937787Y7590087D01*
X9141228Y8080027D01*
X9141691Y8610526D01*
X8939106Y9100820D01*
X8564313Y9476267D01*
X8166859Y9641305D01*
X12194507Y9611078D01*
X12224874Y9580658D01*
X12621492Y9415967D01*
X13050944Y9415593D01*
X13447849Y9579591D01*
X13751782Y9882994D01*
X13916473Y10279612D01*
X13916847Y10709064D01*
X13790761Y11014214D01*
X13948698Y11079633D01*
X14127327Y11258261D01*
X14224000Y11491650D01*
X14224000Y11744269D01*
X14224000Y13776269D01*
X14127327Y14009658D01*
X13948699Y14188287D01*
X13715310Y14284960D01*
X13462691Y14284960D01*
X9805091Y14284960D01*
X9571702Y14188287D01*
X9393073Y14009659D01*
X9296400Y13776270D01*
X9296400Y13523651D01*
X9296400Y11491651D01*
X9329961Y11410626D01*
X7792875Y11422161D01*
X6973538Y12241498D01*
X6685126Y12434209D01*
X6344920Y12501880D01*
X5652448Y12501880D01*
X5601988Y12577399D01*
X5653059Y12598553D01*
X5831687Y12777182D01*
X5928360Y13010571D01*
X5928360Y13867130D01*
X5928360Y14438630D01*
X5928360Y15295189D01*
X5831687Y15528578D01*
X5653059Y15707207D01*
X5419670Y15803880D01*
X5167051Y15803880D01*
X4563110Y15803880D01*
X4404360Y15645130D01*
X4404360Y14279880D01*
X5769610Y14279880D01*
X5928360Y14438630D01*
X5928360Y13867130D01*
X5769610Y14025880D01*
X4404360Y14025880D01*
X4404360Y14005880D01*
X4150360Y14005880D01*
X4150360Y14025880D01*
X4130360Y14025880D01*
X4130360Y14279880D01*
X4150360Y14279880D01*
X4150360Y15645130D01*
X3991610Y15803880D01*
X3387669Y15803880D01*
X3135050Y15803880D01*
X2901661Y15707207D01*
X2829560Y15635106D01*
X2829560Y18239804D01*
X2938716Y18348960D01*
X8331200Y18348960D01*
X8331200Y18095651D01*
X8427873Y17862262D01*
X8606501Y17683633D01*
X8839890Y17586960D01*
X9092509Y17586960D01*
X10108509Y17586960D01*
X10341898Y17683633D01*
X10520527Y17862261D01*
X10617200Y18095650D01*
X10713873Y17862262D01*
X10892501Y17683633D01*
X11125890Y17586960D01*
X11378509Y17586960D01*
X12394509Y17586960D01*
X12627898Y17683633D01*
X12806527Y17862261D01*
X12903200Y18095650D01*
X12999873Y17862261D01*
X13178502Y17683633D01*
X13411891Y17586960D01*
X13760450Y17586960D01*
X13919200Y17745710D01*
X13919200Y19110960D01*
X13061950Y19110960D01*
X12903200Y18952210D01*
X12903200Y19523710D01*
X13061950Y19364960D01*
X13919200Y19364960D01*
X13919200Y20730210D01*
X13760450Y20888960D01*
X13411891Y20888960D01*
X13178502Y20792287D01*
X12999873Y20613659D01*
X12903200Y20380270D01*
X12903200Y20380269D01*
X12806527Y20613658D01*
X12627899Y20792287D01*
X12522200Y20836070D01*
X12522200Y21435060D01*
X12615489Y21435060D01*
X12848878Y21531733D01*
X12933680Y21616535D01*
X13018482Y21531733D01*
X13251871Y21435060D01*
X13409930Y21435060D01*
X13568680Y21593810D01*
X13568680Y22514560D01*
X13548680Y22514560D01*
X13548680Y22768560D01*
X13568680Y22768560D01*
X13568680Y23689310D01*
X13409930Y23848060D01*
X13251871Y23848060D01*
X13018482Y23751387D01*
X12933680Y23666586D01*
X12848879Y23751387D01*
X12615490Y23848060D01*
X12362871Y23848060D01*
X12209141Y23848060D01*
X12482649Y23961071D01*
X12786582Y24264474D01*
X12951273Y24661092D01*
X12951384Y24788751D01*
X14616734Y26454100D01*
X15976600Y26454100D01*
X15976600Y26208411D01*
X15976600Y25548011D01*
X16050533Y25369521D01*
X15976600Y25191030D01*
X15976600Y24938411D01*
X15976600Y24278011D01*
X16050533Y24099520D01*
X15976600Y23921029D01*
X15976600Y23750270D01*
X16135350Y23591520D01*
X17500600Y23591520D01*
X17500600Y23611520D01*
X17754600Y23611520D01*
X17754600Y23591520D01*
X17774600Y23591520D01*
X17774600Y23337520D01*
X17754600Y23337520D01*
X17754600Y22658070D01*
X17913350Y22499320D01*
X18421046Y22499320D01*
X17500600Y21578874D01*
X17500600Y22658070D01*
X17500600Y23337520D01*
X16135350Y23337520D01*
X15976600Y23178770D01*
X15976600Y23008011D01*
X16073273Y22774622D01*
X16251901Y22595993D01*
X16485290Y22499320D01*
X16737909Y22499320D01*
X17341850Y22499320D01*
X17500600Y22658070D01*
X17500600Y21578874D01*
X16444443Y20522717D01*
X16265497Y20254906D01*
X16202660Y19939000D01*
X16202660Y9770414D01*
X15989434Y9557188D01*
X15694373Y9679708D01*
X15189200Y9680149D01*
X15189200Y18095650D01*
X15189200Y18348269D01*
X15189200Y18952210D01*
X15189200Y19523710D01*
X15189200Y20127651D01*
X15189200Y20380270D01*
X15092527Y20613659D01*
X14913898Y20792287D01*
X14680509Y20888960D01*
X14648180Y20888960D01*
X14648180Y21943750D01*
X14648180Y22196369D01*
X14648180Y22355810D01*
X14648180Y22927310D01*
X14648180Y23086751D01*
X14648180Y23339370D01*
X14551507Y23572759D01*
X14372878Y23751387D01*
X14139489Y23848060D01*
X13981430Y23848060D01*
X13822680Y23689310D01*
X13822680Y22768560D01*
X14489430Y22768560D01*
X14648180Y22927310D01*
X14648180Y22355810D01*
X14489430Y22514560D01*
X13822680Y22514560D01*
X13822680Y21593810D01*
X13981430Y21435060D01*
X14139489Y21435060D01*
X14372878Y21531733D01*
X14551507Y21710361D01*
X14648180Y21943750D01*
X14648180Y20888960D01*
X14331950Y20888960D01*
X14173200Y20730210D01*
X14173200Y19364960D01*
X15030450Y19364960D01*
X15189200Y19523710D01*
X15189200Y18952210D01*
X15030450Y19110960D01*
X14173200Y19110960D01*
X14173200Y17745710D01*
X14331950Y17586960D01*
X14680509Y17586960D01*
X14913898Y17683633D01*
X15092527Y17862261D01*
X15189200Y18095650D01*
X15189200Y9680149D01*
X15163874Y9680171D01*
X14673580Y9477586D01*
X14298133Y9102793D01*
X14094692Y8612853D01*
X14094229Y8082354D01*
X14296814Y7592060D01*
X14671607Y7216613D01*
X15161547Y7013172D01*
X15692046Y7012709D01*
X16182340Y7215294D01*
X16557787Y7590087D01*
X16700221Y7933109D01*
X17611873Y8844761D01*
X17611877Y8844763D01*
X17611877Y8844764D01*
X17790823Y9112575D01*
X17853660Y9428480D01*
X17853661Y9428480D01*
X17853660Y9428486D01*
X17853660Y19597066D01*
X19707860Y21451266D01*
X19707860Y21202071D01*
X19707860Y20567071D01*
X19804533Y20333682D01*
X19889334Y20248881D01*
X19804533Y20164079D01*
X19707860Y19930690D01*
X19707860Y19678071D01*
X19707860Y19447814D01*
X18324043Y18063997D01*
X18145097Y17796186D01*
X18082260Y17480280D01*
X18082260Y14701520D01*
X18084800Y14688751D01*
X18084800Y13848771D01*
X18181473Y13615382D01*
X18253574Y13543281D01*
X18181473Y13471179D01*
X18084800Y13237790D01*
X18084800Y12985171D01*
X18084800Y12070771D01*
X18181473Y11837382D01*
X18351500Y11667355D01*
X18351500Y10673080D01*
X18414337Y10357174D01*
X18593283Y10089363D01*
X19075880Y9606767D01*
X19075883Y9606763D01*
X19343694Y9427818D01*
X19343695Y9427817D01*
X19659600Y9364980D01*
X21281114Y9364980D01*
X21221932Y9222453D01*
X21221469Y8691954D01*
X21424054Y8201660D01*
X21798847Y7826213D01*
X22288787Y7622772D01*
X22819286Y7622309D01*
X23309580Y7824894D01*
X23685027Y8199687D01*
X23888468Y8689627D01*
X23888931Y9220126D01*
X23724433Y9618240D01*
X24268734Y10162540D01*
X29603190Y10162540D01*
X29420820Y10087186D01*
X29045373Y9712393D01*
X28841932Y9222453D01*
X28841469Y8691954D01*
X29044054Y8201660D01*
X29418847Y7826213D01*
X29908787Y7622772D01*
X30439286Y7622309D01*
X30929580Y7824894D01*
X31305027Y8199687D01*
X31508468Y8689627D01*
X31508931Y9220126D01*
X31306346Y9710420D01*
X30931553Y10085867D01*
X30459086Y10282053D01*
X30642077Y10404323D01*
X31790153Y11552401D01*
X31790156Y11552403D01*
X31790157Y11552403D01*
X31897426Y11712945D01*
X31969103Y11820214D01*
X31969103Y11820215D01*
X32031940Y12136120D01*
X32031940Y16267358D01*
X32266110Y16423825D01*
X32280939Y16446020D01*
X32344513Y16292541D01*
X32523142Y16113913D01*
X32756531Y16017240D01*
X33460690Y16017240D01*
X33619440Y16175990D01*
X33619440Y17541240D01*
X33599440Y17541240D01*
X33599440Y17795240D01*
X33619440Y17795240D01*
X33619440Y19160490D01*
X33460690Y19319240D01*
X32756531Y19319240D01*
X32523142Y19222567D01*
X32344513Y19043939D01*
X32280939Y18890461D01*
X32266110Y18912655D01*
X31779929Y19237511D01*
X31206440Y19351585D01*
X30632951Y19237511D01*
X30146770Y18912655D01*
X29936440Y18597875D01*
X29726110Y18912655D01*
X29239929Y19237511D01*
X28666440Y19351585D01*
X28092951Y19237511D01*
X27606770Y18912655D01*
X27281914Y18426474D01*
X27167840Y17852985D01*
X27167840Y17483495D01*
X27281914Y16910006D01*
X27606770Y16423825D01*
X28092951Y16098969D01*
X28666440Y15984895D01*
X29239929Y16098969D01*
X29726110Y16423825D01*
X29936440Y16738606D01*
X30146770Y16423825D01*
X30380940Y16267358D01*
X30380940Y12478054D01*
X29716426Y11813540D01*
X23926800Y11813540D01*
X23610894Y11750703D01*
X23343083Y11571757D01*
X23118832Y11347507D01*
X22973049Y11700329D01*
X22946360Y11727065D01*
X22946360Y12654280D01*
X23886160Y12654280D01*
X24226365Y12721951D01*
X24226366Y12721951D01*
X24514778Y12914662D01*
X24895778Y13295662D01*
X25088489Y13584074D01*
X25156160Y13924280D01*
X25156160Y20045680D01*
X30924287Y20045680D01*
X31077590Y19982180D01*
X31330209Y19982180D01*
X32473209Y19982180D01*
X32706598Y20078853D01*
X32885227Y20257481D01*
X32981900Y20490870D01*
X32981900Y20743489D01*
X32981900Y21378489D01*
X32885227Y21611878D01*
X32800425Y21696680D01*
X32885227Y21781481D01*
X32981900Y22014870D01*
X32981900Y22267489D01*
X32981900Y22902489D01*
X32885227Y23135878D01*
X32706599Y23314507D01*
X32600900Y23358290D01*
X32600900Y23540272D01*
X32706598Y23584053D01*
X32885227Y23762681D01*
X32981900Y23996070D01*
X32981900Y24248689D01*
X32981900Y24883689D01*
X32885227Y25117078D01*
X32800425Y25201880D01*
X32885227Y25286682D01*
X32981900Y25520071D01*
X32981900Y25678130D01*
X32823150Y25836880D01*
X31902400Y25836880D01*
X31902400Y25816880D01*
X31648400Y25816880D01*
X31648400Y25836880D01*
X31648400Y26090880D01*
X31648400Y26757630D01*
X31489650Y26916380D01*
X31330209Y26916380D01*
X31077590Y26916380D01*
X30844201Y26819707D01*
X30665573Y26641078D01*
X30568900Y26407689D01*
X30568900Y26249630D01*
X30727650Y26090880D01*
X31648400Y26090880D01*
X31648400Y25836880D01*
X30727650Y25836880D01*
X30568900Y25678130D01*
X30568900Y25520071D01*
X30665573Y25286682D01*
X30686874Y25265380D01*
X30364734Y25265380D01*
X30311877Y25318237D01*
X30044066Y25497183D01*
X29728160Y25560020D01*
X29337000Y25560020D01*
X29337000Y25800629D01*
X29337000Y26461029D01*
X29263066Y26639520D01*
X29337000Y26818010D01*
X29337000Y27070629D01*
X29337000Y27731029D01*
X29315671Y27782520D01*
X29326741Y27782520D01*
X29371271Y27674751D01*
X29674674Y27370818D01*
X30071292Y27206127D01*
X30500744Y27205753D01*
X30897649Y27369751D01*
X31201582Y27673154D01*
X31366273Y28069772D01*
X31366647Y28499224D01*
X31202649Y28896129D01*
X30899246Y29200062D01*
X30502628Y29364753D01*
X30073176Y29365127D01*
X29931336Y29306520D01*
X29315672Y29306520D01*
X29337000Y29358010D01*
X29337000Y29610629D01*
X29337000Y30271029D01*
X29263066Y30449520D01*
X29337000Y30628010D01*
X29337000Y30880629D01*
X29337000Y31541029D01*
X29263066Y31719520D01*
X29337000Y31898010D01*
X29337000Y32150629D01*
X29337000Y32811029D01*
X29315671Y32862520D01*
X30723169Y32862520D01*
X32095104Y31490585D01*
X32095105Y31490585D01*
X32279561Y31367335D01*
X32279562Y31367335D01*
X32564850Y30940371D01*
X32835692Y30759400D01*
X32564850Y30578429D01*
X32239994Y30092248D01*
X32125920Y29518759D01*
X32125920Y29460041D01*
X32239994Y28886552D01*
X32564850Y28400371D01*
X32799020Y28243904D01*
X32799020Y26727286D01*
X32706599Y26819707D01*
X32473210Y26916380D01*
X32220591Y26916380D01*
X32061150Y26916380D01*
X31902400Y26757630D01*
X31902400Y26090880D01*
X32823150Y26090880D01*
X32913121Y26180852D01*
X33040803Y25989763D01*
X33452280Y25578287D01*
X33452283Y25578283D01*
X33452284Y25578283D01*
X33720095Y25399337D01*
X34036000Y25336499D01*
X34036000Y25336500D01*
X34036005Y25336500D01*
X34772392Y25336500D01*
X34734500Y25146000D01*
X34734500Y25081810D01*
X34734500Y24829191D01*
X34734500Y24194191D01*
X34734500Y22997609D01*
X34606809Y23050500D01*
X34448750Y23050500D01*
X34290000Y22891750D01*
X34290000Y21971000D01*
X34310000Y21971000D01*
X34310000Y21717000D01*
X34290000Y21717000D01*
X34290000Y20796250D01*
X34448750Y20637500D01*
X34606809Y20637500D01*
X34840198Y20734173D01*
X34924999Y20818975D01*
X35009801Y20734173D01*
X35243190Y20637500D01*
X35495809Y20637500D01*
X36130809Y20637500D01*
X36364198Y20734173D01*
X36542827Y20912801D01*
X36639500Y21146190D01*
X36639500Y21398809D01*
X36639500Y22541809D01*
X36542827Y22775198D01*
X36385500Y22932526D01*
X36385500Y23685500D01*
X36638809Y23685500D01*
X36872198Y23782173D01*
X36902525Y23812500D01*
X37017747Y23812500D01*
X37106714Y23723378D01*
X37503332Y23558687D01*
X37932784Y23558313D01*
X38329689Y23722311D01*
X38633622Y24025714D01*
X38798313Y24422332D01*
X38798687Y24851784D01*
X38634689Y25248689D01*
X38331286Y25552622D01*
X37934668Y25717313D01*
X37619488Y25717588D01*
X37619488Y29130373D01*
X37498989Y29362400D01*
X36291520Y29362400D01*
X36291520Y28155583D01*
X36523546Y28034442D01*
X36939467Y28206712D01*
X37371341Y28600910D01*
X37619488Y29130373D01*
X37619488Y25717588D01*
X37505216Y25717687D01*
X37108311Y25553689D01*
X37058951Y25504416D01*
X37147500Y25718190D01*
X37147500Y25970809D01*
X37147500Y26605809D01*
X37050827Y26839198D01*
X36872199Y27017827D01*
X36638810Y27114500D01*
X36386191Y27114500D01*
X35243191Y27114500D01*
X35009802Y27017827D01*
X34979474Y26987500D01*
X34450020Y26987500D01*
X34450020Y28243904D01*
X34684190Y28400371D01*
X34900183Y28723629D01*
X34957699Y28600910D01*
X35389573Y28206712D01*
X35805494Y28034442D01*
X36037520Y28155583D01*
X36037520Y29362400D01*
X36017520Y29362400D01*
X36017520Y29616400D01*
X36037520Y29616400D01*
X36037520Y29636400D01*
X36291520Y29636400D01*
X36291520Y29616400D01*
X37498989Y29616400D01*
X37619488Y29848427D01*
X37371341Y30377890D01*
X36953359Y30759408D01*
X37224190Y30940371D01*
X37549046Y31426552D01*
X37663120Y32000041D01*
X37663120Y32058759D01*
X37613047Y32310494D01*
X38989000Y33686446D01*
X38989000Y635000D01*
X38989000Y635000D01*
G37*
X38989000Y635000D02*
X35245040Y635000D01*
X35245040Y16525930D01*
X35245040Y16778549D01*
X35245040Y17382490D01*
X35245040Y17953990D01*
X35245040Y18557931D01*
X35245040Y18810550D01*
X35148367Y19043939D01*
X34969738Y19222567D01*
X34736349Y19319240D01*
X34036000Y19319240D01*
X34036000Y20796250D01*
X34036000Y21717000D01*
X34036000Y21971000D01*
X34036000Y22891750D01*
X33877250Y23050500D01*
X33719191Y23050500D01*
X33485802Y22953827D01*
X33307173Y22775199D01*
X33210500Y22541810D01*
X33210500Y22289191D01*
X33210500Y22129750D01*
X33369250Y21971000D01*
X34036000Y21971000D01*
X34036000Y21717000D01*
X33369250Y21717000D01*
X33210500Y21558250D01*
X33210500Y21398809D01*
X33210500Y21146190D01*
X33307173Y20912801D01*
X33485802Y20734173D01*
X33719191Y20637500D01*
X33877250Y20637500D01*
X34036000Y20796250D01*
X34036000Y19319240D01*
X34032190Y19319240D01*
X33873440Y19160490D01*
X33873440Y17795240D01*
X35086290Y17795240D01*
X35245040Y17953990D01*
X35245040Y17382490D01*
X35086290Y17541240D01*
X33873440Y17541240D01*
X33873440Y16175990D01*
X34032190Y16017240D01*
X34736349Y16017240D01*
X34969738Y16113913D01*
X35148367Y16292541D01*
X35245040Y16525930D01*
X35245040Y635000D01*
X31521127Y635000D01*
X31521127Y3683520D01*
X31492348Y4213239D01*
X31345000Y4568969D01*
X31109388Y4630623D01*
X30929783Y4451018D01*
X30929783Y4810228D01*
X30868129Y5045840D01*
X30367720Y5221967D01*
X29838001Y5193188D01*
X29482271Y5045840D01*
X29420617Y4810228D01*
X30175200Y4055645D01*
X30929783Y4810228D01*
X30929783Y4451018D01*
X30354805Y3876040D01*
X31109388Y3121457D01*
X31345000Y3183111D01*
X31521127Y3683520D01*
X31521127Y635000D01*
X30929783Y635000D01*
X30929783Y2941852D01*
X30175200Y3696435D01*
X29995595Y3516830D01*
X29995595Y3876040D01*
X29241012Y4630623D01*
X29005400Y4568969D01*
X28829273Y4068560D01*
X28858052Y3538841D01*
X29005400Y3183111D01*
X29241012Y3121457D01*
X29995595Y3876040D01*
X29995595Y3516830D01*
X29420617Y2941852D01*
X29482271Y2706240D01*
X29982680Y2530113D01*
X30512399Y2558892D01*
X30868129Y2706240D01*
X30929783Y2941852D01*
X30929783Y635000D01*
X23901127Y635000D01*
X23901127Y3683520D01*
X23872348Y4213239D01*
X23725000Y4568969D01*
X23489388Y4630623D01*
X22734805Y3876040D01*
X23489388Y3121457D01*
X23725000Y3183111D01*
X23901127Y3683520D01*
X23901127Y635000D01*
X23309783Y635000D01*
X23309783Y2941852D01*
X22555200Y3696435D01*
X22541057Y3682293D01*
X22361452Y3861898D01*
X22375595Y3876040D01*
X22361452Y3890183D01*
X22541057Y4069788D01*
X22555200Y4055645D01*
X23309783Y4810228D01*
X23248129Y5045840D01*
X22747720Y5221967D01*
X22218001Y5193188D01*
X22197060Y5184514D01*
X22197060Y5528889D01*
X22100387Y5762278D01*
X22015585Y5847080D01*
X22100387Y5931882D01*
X22197060Y6165271D01*
X22197060Y6323330D01*
X22197060Y6894830D01*
X22197060Y7052889D01*
X22100387Y7286278D01*
X21921759Y7464907D01*
X21688370Y7561580D01*
X21435751Y7561580D01*
X21276310Y7561580D01*
X21117560Y7402830D01*
X21117560Y6736080D01*
X22038310Y6736080D01*
X22197060Y6894830D01*
X22197060Y6323330D01*
X22038310Y6482080D01*
X21117560Y6482080D01*
X21117560Y6462080D01*
X20863560Y6462080D01*
X20863560Y6482080D01*
X20863560Y6736080D01*
X20863560Y7402830D01*
X20704810Y7561580D01*
X20545369Y7561580D01*
X20292750Y7561580D01*
X20059361Y7464907D01*
X19880733Y7286278D01*
X19784060Y7052889D01*
X19784060Y6894830D01*
X19942810Y6736080D01*
X20863560Y6736080D01*
X20863560Y6482080D01*
X19942810Y6482080D01*
X19784060Y6323330D01*
X19784060Y6165271D01*
X19880733Y5931882D01*
X19965534Y5847081D01*
X19880733Y5762279D01*
X19784060Y5528890D01*
X19784060Y5276271D01*
X19784060Y4641271D01*
X19880733Y4407882D01*
X20059361Y4229253D01*
X20165060Y4185471D01*
X20165060Y3090214D01*
X19988226Y2913380D01*
X19964479Y2913380D01*
X19799446Y3078702D01*
X19402828Y3243393D01*
X18973376Y3243767D01*
X18576471Y3079769D01*
X18272538Y2776366D01*
X18107847Y2379748D01*
X18107473Y1950296D01*
X18271471Y1553391D01*
X18574874Y1249458D01*
X18971492Y1084767D01*
X19400944Y1084393D01*
X19797849Y1248391D01*
X19811862Y1262380D01*
X20330160Y1262380D01*
X20646065Y1325217D01*
X20646066Y1325217D01*
X20913877Y1504163D01*
X21574273Y2164561D01*
X21574277Y2164563D01*
X21574277Y2164564D01*
X21753223Y2432375D01*
X21816060Y2748280D01*
X21816061Y2748280D01*
X21816060Y2748286D01*
X21816060Y2882837D01*
X21862271Y2706240D01*
X22362680Y2530113D01*
X22892399Y2558892D01*
X23248129Y2706240D01*
X23309783Y2941852D01*
X23309783Y635000D01*
X16773887Y635000D01*
X16773887Y3073920D01*
X16745108Y3603639D01*
X16597760Y3959369D01*
X16362148Y4021023D01*
X16182543Y3841418D01*
X16182543Y4200628D01*
X16120889Y4436240D01*
X15620480Y4612367D01*
X15090761Y4583588D01*
X14735031Y4436240D01*
X14673377Y4200628D01*
X15427960Y3446045D01*
X16182543Y4200628D01*
X16182543Y3841418D01*
X15607565Y3266440D01*
X16362148Y2511857D01*
X16597760Y2573511D01*
X16773887Y3073920D01*
X16773887Y635000D01*
X16182543Y635000D01*
X16182543Y2332252D01*
X15427960Y3086835D01*
X15248355Y2907230D01*
X15248355Y3266440D01*
X14493772Y4021023D01*
X14258160Y3959369D01*
X14082033Y3458960D01*
X14110812Y2929241D01*
X14258160Y2573511D01*
X14493772Y2511857D01*
X15248355Y3266440D01*
X15248355Y2907230D01*
X14673377Y2332252D01*
X14735031Y2096640D01*
X15235440Y1920513D01*
X15765159Y1949292D01*
X16120889Y2096640D01*
X16182543Y2332252D01*
X16182543Y635000D01*
X9153887Y635000D01*
X9153887Y3073920D01*
X9125108Y3603639D01*
X8977760Y3959369D01*
X8742148Y4021023D01*
X8562543Y3841418D01*
X8562543Y4200628D01*
X8500889Y4436240D01*
X8000480Y4612367D01*
X7470761Y4583588D01*
X7115031Y4436240D01*
X7053377Y4200628D01*
X7807960Y3446045D01*
X8562543Y4200628D01*
X8562543Y3841418D01*
X7987565Y3266440D01*
X8742148Y2511857D01*
X8977760Y2573511D01*
X9153887Y3073920D01*
X9153887Y635000D01*
X8562543Y635000D01*
X8562543Y2332252D01*
X7807960Y3086835D01*
X7628355Y2907230D01*
X7628355Y3266440D01*
X6873772Y4021023D01*
X6638160Y3959369D01*
X6462033Y3458960D01*
X6490812Y2929241D01*
X6638160Y2573511D01*
X6873772Y2511857D01*
X7628355Y3266440D01*
X7628355Y2907230D01*
X7053377Y2332252D01*
X7115031Y2096640D01*
X7615440Y1920513D01*
X8145159Y1949292D01*
X8500889Y2096640D01*
X8562543Y2332252D01*
X8562543Y635000D01*
X5483860Y635000D01*
X5483860Y5174671D01*
X5483860Y5332730D01*
X5325110Y5491480D01*
X4404360Y5491480D01*
X4404360Y4824730D01*
X4563110Y4665980D01*
X4722551Y4665980D01*
X4975170Y4665980D01*
X5208559Y4762653D01*
X5387187Y4941282D01*
X5483860Y5174671D01*
X5483860Y635000D01*
X4150360Y635000D01*
X4150360Y4824730D01*
X4150360Y5491480D01*
X3229610Y5491480D01*
X3070860Y5332730D01*
X3070860Y5174671D01*
X3167533Y4941282D01*
X3346161Y4762653D01*
X3579550Y4665980D01*
X3832169Y4665980D01*
X3991610Y4665980D01*
X4150360Y4824730D01*
X4150360Y635000D01*
X1142579Y635000D01*
X1108115Y11008516D01*
X1119231Y10952634D01*
X1311942Y10664222D01*
X1600354Y10471511D01*
X1600355Y10471511D01*
X1940560Y10403840D01*
X2280765Y10471511D01*
X2280766Y10471511D01*
X2569178Y10664222D01*
X2628836Y10723880D01*
X2902271Y10723880D01*
X3109927Y10413102D01*
X3515360Y10142201D01*
X3515360Y8068392D01*
X3346162Y7998307D01*
X3167533Y7819679D01*
X3070860Y7586290D01*
X3070860Y7333671D01*
X3070860Y6698671D01*
X3167533Y6465282D01*
X3252334Y6380480D01*
X3167533Y6295678D01*
X3070860Y6062289D01*
X3070860Y5904230D01*
X3229610Y5745480D01*
X4150360Y5745480D01*
X4150360Y5765480D01*
X4404360Y5765480D01*
X4404360Y5745480D01*
X5325110Y5745480D01*
X5483860Y5904230D01*
X5483860Y6062289D01*
X5387187Y6295678D01*
X5302385Y6380480D01*
X5387187Y6465281D01*
X5483860Y6698670D01*
X5483860Y6951289D01*
X5483860Y7586289D01*
X5387187Y7819678D01*
X5208559Y7998307D01*
X5039360Y8068392D01*
X5039360Y10142201D01*
X5444793Y10413102D01*
X5652448Y10723880D01*
X5976684Y10723880D01*
X6793262Y9907302D01*
X6934725Y9812779D01*
X7075520Y9717167D01*
X7078848Y9716479D01*
X7081674Y9714591D01*
X7248561Y9681396D01*
X7415209Y9646945D01*
X7462600Y9646590D01*
X7053580Y9477586D01*
X6678133Y9102793D01*
X6474692Y8612853D01*
X6474229Y8082354D01*
X6676814Y7592060D01*
X7051607Y7216613D01*
X7541547Y7013172D01*
X8072046Y7012709D01*
X8562340Y7215294D01*
X8937787Y7590087D01*
X9141228Y8080027D01*
X9141691Y8610526D01*
X8939106Y9100820D01*
X8564313Y9476267D01*
X8166859Y9641305D01*
X12194507Y9611078D01*
X12224874Y9580658D01*
X12621492Y9415967D01*
X13050944Y9415593D01*
X13447849Y9579591D01*
X13751782Y9882994D01*
X13916473Y10279612D01*
X13916847Y10709064D01*
X13790761Y11014214D01*
X13948698Y11079633D01*
X14127327Y11258261D01*
X14224000Y11491650D01*
X14224000Y11744269D01*
X14224000Y13776269D01*
X14127327Y14009658D01*
X13948699Y14188287D01*
X13715310Y14284960D01*
X13462691Y14284960D01*
X9805091Y14284960D01*
X9571702Y14188287D01*
X9393073Y14009659D01*
X9296400Y13776270D01*
X9296400Y13523651D01*
X9296400Y11491651D01*
X9329961Y11410626D01*
X7792875Y11422161D01*
X6973538Y12241498D01*
X6685126Y12434209D01*
X6344920Y12501880D01*
X5652448Y12501880D01*
X5601988Y12577399D01*
X5653059Y12598553D01*
X5831687Y12777182D01*
X5928360Y13010571D01*
X5928360Y13867130D01*
X5928360Y14438630D01*
X5928360Y15295189D01*
X5831687Y15528578D01*
X5653059Y15707207D01*
X5419670Y15803880D01*
X5167051Y15803880D01*
X4563110Y15803880D01*
X4404360Y15645130D01*
X4404360Y14279880D01*
X5769610Y14279880D01*
X5928360Y14438630D01*
X5928360Y13867130D01*
X5769610Y14025880D01*
X4404360Y14025880D01*
X4404360Y14005880D01*
X4150360Y14005880D01*
X4150360Y14025880D01*
X4130360Y14025880D01*
X4130360Y14279880D01*
X4150360Y14279880D01*
X4150360Y15645130D01*
X3991610Y15803880D01*
X3387669Y15803880D01*
X3135050Y15803880D01*
X2901661Y15707207D01*
X2829560Y15635106D01*
X2829560Y18239804D01*
X2938716Y18348960D01*
X8331200Y18348960D01*
X8331200Y18095651D01*
X8427873Y17862262D01*
X8606501Y17683633D01*
X8839890Y17586960D01*
X9092509Y17586960D01*
X10108509Y17586960D01*
X10341898Y17683633D01*
X10520527Y17862261D01*
X10617200Y18095650D01*
X10713873Y17862262D01*
X10892501Y17683633D01*
X11125890Y17586960D01*
X11378509Y17586960D01*
X12394509Y17586960D01*
X12627898Y17683633D01*
X12806527Y17862261D01*
X12903200Y18095650D01*
X12999873Y17862261D01*
X13178502Y17683633D01*
X13411891Y17586960D01*
X13760450Y17586960D01*
X13919200Y17745710D01*
X13919200Y19110960D01*
X13061950Y19110960D01*
X12903200Y18952210D01*
X12903200Y19523710D01*
X13061950Y19364960D01*
X13919200Y19364960D01*
X13919200Y20730210D01*
X13760450Y20888960D01*
X13411891Y20888960D01*
X13178502Y20792287D01*
X12999873Y20613659D01*
X12903200Y20380270D01*
X12903200Y20380269D01*
X12806527Y20613658D01*
X12627899Y20792287D01*
X12522200Y20836070D01*
X12522200Y21435060D01*
X12615489Y21435060D01*
X12848878Y21531733D01*
X12933680Y21616535D01*
X13018482Y21531733D01*
X13251871Y21435060D01*
X13409930Y21435060D01*
X13568680Y21593810D01*
X13568680Y22514560D01*
X13548680Y22514560D01*
X13548680Y22768560D01*
X13568680Y22768560D01*
X13568680Y23689310D01*
X13409930Y23848060D01*
X13251871Y23848060D01*
X13018482Y23751387D01*
X12933680Y23666586D01*
X12848879Y23751387D01*
X12615490Y23848060D01*
X12362871Y23848060D01*
X12209141Y23848060D01*
X12482649Y23961071D01*
X12786582Y24264474D01*
X12951273Y24661092D01*
X12951384Y24788751D01*
X14616734Y26454100D01*
X15976600Y26454100D01*
X15976600Y26208411D01*
X15976600Y25548011D01*
X16050533Y25369521D01*
X15976600Y25191030D01*
X15976600Y24938411D01*
X15976600Y24278011D01*
X16050533Y24099520D01*
X15976600Y23921029D01*
X15976600Y23750270D01*
X16135350Y23591520D01*
X17500600Y23591520D01*
X17500600Y23611520D01*
X17754600Y23611520D01*
X17754600Y23591520D01*
X17774600Y23591520D01*
X17774600Y23337520D01*
X17754600Y23337520D01*
X17754600Y22658070D01*
X17913350Y22499320D01*
X18421046Y22499320D01*
X17500600Y21578874D01*
X17500600Y22658070D01*
X17500600Y23337520D01*
X16135350Y23337520D01*
X15976600Y23178770D01*
X15976600Y23008011D01*
X16073273Y22774622D01*
X16251901Y22595993D01*
X16485290Y22499320D01*
X16737909Y22499320D01*
X17341850Y22499320D01*
X17500600Y22658070D01*
X17500600Y21578874D01*
X16444443Y20522717D01*
X16265497Y20254906D01*
X16202660Y19939000D01*
X16202660Y9770414D01*
X15989434Y9557188D01*
X15694373Y9679708D01*
X15189200Y9680149D01*
X15189200Y18095650D01*
X15189200Y18348269D01*
X15189200Y18952210D01*
X15189200Y19523710D01*
X15189200Y20127651D01*
X15189200Y20380270D01*
X15092527Y20613659D01*
X14913898Y20792287D01*
X14680509Y20888960D01*
X14648180Y20888960D01*
X14648180Y21943750D01*
X14648180Y22196369D01*
X14648180Y22355810D01*
X14648180Y22927310D01*
X14648180Y23086751D01*
X14648180Y23339370D01*
X14551507Y23572759D01*
X14372878Y23751387D01*
X14139489Y23848060D01*
X13981430Y23848060D01*
X13822680Y23689310D01*
X13822680Y22768560D01*
X14489430Y22768560D01*
X14648180Y22927310D01*
X14648180Y22355810D01*
X14489430Y22514560D01*
X13822680Y22514560D01*
X13822680Y21593810D01*
X13981430Y21435060D01*
X14139489Y21435060D01*
X14372878Y21531733D01*
X14551507Y21710361D01*
X14648180Y21943750D01*
X14648180Y20888960D01*
X14331950Y20888960D01*
X14173200Y20730210D01*
X14173200Y19364960D01*
X15030450Y19364960D01*
X15189200Y19523710D01*
X15189200Y18952210D01*
X15030450Y19110960D01*
X14173200Y19110960D01*
X14173200Y17745710D01*
X14331950Y17586960D01*
X14680509Y17586960D01*
X14913898Y17683633D01*
X15092527Y17862261D01*
X15189200Y18095650D01*
X15189200Y9680149D01*
X15163874Y9680171D01*
X14673580Y9477586D01*
X14298133Y9102793D01*
X14094692Y8612853D01*
X14094229Y8082354D01*
X14296814Y7592060D01*
X14671607Y7216613D01*
X15161547Y7013172D01*
X15692046Y7012709D01*
X16182340Y7215294D01*
X16557787Y7590087D01*
X16700221Y7933109D01*
X17611873Y8844761D01*
X17611877Y8844763D01*
X17611877Y8844764D01*
X17790823Y9112575D01*
X17853660Y9428480D01*
X17853661Y9428480D01*
X17853660Y9428486D01*
X17853660Y19597066D01*
X19707860Y21451266D01*
X19707860Y21202071D01*
X19707860Y20567071D01*
X19804533Y20333682D01*
X19889334Y20248881D01*
X19804533Y20164079D01*
X19707860Y19930690D01*
X19707860Y19678071D01*
X19707860Y19447814D01*
X18324043Y18063997D01*
X18145097Y17796186D01*
X18082260Y17480280D01*
X18082260Y14701520D01*
X18084800Y14688751D01*
X18084800Y13848771D01*
X18181473Y13615382D01*
X18253574Y13543281D01*
X18181473Y13471179D01*
X18084800Y13237790D01*
X18084800Y12985171D01*
X18084800Y12070771D01*
X18181473Y11837382D01*
X18351500Y11667355D01*
X18351500Y10673080D01*
X18414337Y10357174D01*
X18593283Y10089363D01*
X19075880Y9606767D01*
X19075883Y9606763D01*
X19343694Y9427818D01*
X19343695Y9427817D01*
X19659600Y9364980D01*
X21281114Y9364980D01*
X21221932Y9222453D01*
X21221469Y8691954D01*
X21424054Y8201660D01*
X21798847Y7826213D01*
X22288787Y7622772D01*
X22819286Y7622309D01*
X23309580Y7824894D01*
X23685027Y8199687D01*
X23888468Y8689627D01*
X23888931Y9220126D01*
X23724433Y9618240D01*
X24268734Y10162540D01*
X29603190Y10162540D01*
X29420820Y10087186D01*
X29045373Y9712393D01*
X28841932Y9222453D01*
X28841469Y8691954D01*
X29044054Y8201660D01*
X29418847Y7826213D01*
X29908787Y7622772D01*
X30439286Y7622309D01*
X30929580Y7824894D01*
X31305027Y8199687D01*
X31508468Y8689627D01*
X31508931Y9220126D01*
X31306346Y9710420D01*
X30931553Y10085867D01*
X30459086Y10282053D01*
X30642077Y10404323D01*
X31790153Y11552401D01*
X31790156Y11552403D01*
X31790157Y11552403D01*
X31897426Y11712945D01*
X31969103Y11820214D01*
X31969103Y11820215D01*
X32031940Y12136120D01*
X32031940Y16267358D01*
X32266110Y16423825D01*
X32280939Y16446020D01*
X32344513Y16292541D01*
X32523142Y16113913D01*
X32756531Y16017240D01*
X33460690Y16017240D01*
X33619440Y16175990D01*
X33619440Y17541240D01*
X33599440Y17541240D01*
X33599440Y17795240D01*
X33619440Y17795240D01*
X33619440Y19160490D01*
X33460690Y19319240D01*
X32756531Y19319240D01*
X32523142Y19222567D01*
X32344513Y19043939D01*
X32280939Y18890461D01*
X32266110Y18912655D01*
X31779929Y19237511D01*
X31206440Y19351585D01*
X30632951Y19237511D01*
X30146770Y18912655D01*
X29936440Y18597875D01*
X29726110Y18912655D01*
X29239929Y19237511D01*
X28666440Y19351585D01*
X28092951Y19237511D01*
X27606770Y18912655D01*
X27281914Y18426474D01*
X27167840Y17852985D01*
X27167840Y17483495D01*
X27281914Y16910006D01*
X27606770Y16423825D01*
X28092951Y16098969D01*
X28666440Y15984895D01*
X29239929Y16098969D01*
X29726110Y16423825D01*
X29936440Y16738606D01*
X30146770Y16423825D01*
X30380940Y16267358D01*
X30380940Y12478054D01*
X29716426Y11813540D01*
X23926800Y11813540D01*
X23610894Y11750703D01*
X23343083Y11571757D01*
X23118832Y11347507D01*
X22973049Y11700329D01*
X22946360Y11727065D01*
X22946360Y12654280D01*
X23886160Y12654280D01*
X24226365Y12721951D01*
X24226366Y12721951D01*
X24514778Y12914662D01*
X24895778Y13295662D01*
X25088489Y13584074D01*
X25156160Y13924280D01*
X25156160Y20045680D01*
X30924287Y20045680D01*
X31077590Y19982180D01*
X31330209Y19982180D01*
X32473209Y19982180D01*
X32706598Y20078853D01*
X32885227Y20257481D01*
X32981900Y20490870D01*
X32981900Y20743489D01*
X32981900Y21378489D01*
X32885227Y21611878D01*
X32800425Y21696680D01*
X32885227Y21781481D01*
X32981900Y22014870D01*
X32981900Y22267489D01*
X32981900Y22902489D01*
X32885227Y23135878D01*
X32706599Y23314507D01*
X32600900Y23358290D01*
X32600900Y23540272D01*
X32706598Y23584053D01*
X32885227Y23762681D01*
X32981900Y23996070D01*
X32981900Y24248689D01*
X32981900Y24883689D01*
X32885227Y25117078D01*
X32800425Y25201880D01*
X32885227Y25286682D01*
X32981900Y25520071D01*
X32981900Y25678130D01*
X32823150Y25836880D01*
X31902400Y25836880D01*
X31902400Y25816880D01*
X31648400Y25816880D01*
X31648400Y25836880D01*
X31648400Y26090880D01*
X31648400Y26757630D01*
X31489650Y26916380D01*
X31330209Y26916380D01*
X31077590Y26916380D01*
X30844201Y26819707D01*
X30665573Y26641078D01*
X30568900Y26407689D01*
X30568900Y26249630D01*
X30727650Y26090880D01*
X31648400Y26090880D01*
X31648400Y25836880D01*
X30727650Y25836880D01*
X30568900Y25678130D01*
X30568900Y25520071D01*
X30665573Y25286682D01*
X30686874Y25265380D01*
X30364734Y25265380D01*
X30311877Y25318237D01*
X30044066Y25497183D01*
X29728160Y25560020D01*
X29337000Y25560020D01*
X29337000Y25800629D01*
X29337000Y26461029D01*
X29263066Y26639520D01*
X29337000Y26818010D01*
X29337000Y27070629D01*
X29337000Y27731029D01*
X29315671Y27782520D01*
X29326741Y27782520D01*
X29371271Y27674751D01*
X29674674Y27370818D01*
X30071292Y27206127D01*
X30500744Y27205753D01*
X30897649Y27369751D01*
X31201582Y27673154D01*
X31366273Y28069772D01*
X31366647Y28499224D01*
X31202649Y28896129D01*
X30899246Y29200062D01*
X30502628Y29364753D01*
X30073176Y29365127D01*
X29931336Y29306520D01*
X29315672Y29306520D01*
X29337000Y29358010D01*
X29337000Y29610629D01*
X29337000Y30271029D01*
X29263066Y30449520D01*
X29337000Y30628010D01*
X29337000Y30880629D01*
X29337000Y31541029D01*
X29263066Y31719520D01*
X29337000Y31898010D01*
X29337000Y32150629D01*
X29337000Y32811029D01*
X29315671Y32862520D01*
X30723169Y32862520D01*
X32095104Y31490585D01*
X32095105Y31490585D01*
X32279561Y31367335D01*
X32279562Y31367335D01*
X32564850Y30940371D01*
X32835692Y30759400D01*
X32564850Y30578429D01*
X32239994Y30092248D01*
X32125920Y29518759D01*
X32125920Y29460041D01*
X32239994Y28886552D01*
X32564850Y28400371D01*
X32799020Y28243904D01*
X32799020Y26727286D01*
X32706599Y26819707D01*
X32473210Y26916380D01*
X32220591Y26916380D01*
X32061150Y26916380D01*
X31902400Y26757630D01*
X31902400Y26090880D01*
X32823150Y26090880D01*
X32913121Y26180852D01*
X33040803Y25989763D01*
X33452280Y25578287D01*
X33452283Y25578283D01*
X33452284Y25578283D01*
X33720095Y25399337D01*
X34036000Y25336499D01*
X34036000Y25336500D01*
X34036005Y25336500D01*
X34772392Y25336500D01*
X34734500Y25146000D01*
X34734500Y25081810D01*
X34734500Y24829191D01*
X34734500Y24194191D01*
X34734500Y22997609D01*
X34606809Y23050500D01*
X34448750Y23050500D01*
X34290000Y22891750D01*
X34290000Y21971000D01*
X34310000Y21971000D01*
X34310000Y21717000D01*
X34290000Y21717000D01*
X34290000Y20796250D01*
X34448750Y20637500D01*
X34606809Y20637500D01*
X34840198Y20734173D01*
X34924999Y20818975D01*
X35009801Y20734173D01*
X35243190Y20637500D01*
X35495809Y20637500D01*
X36130809Y20637500D01*
X36364198Y20734173D01*
X36542827Y20912801D01*
X36639500Y21146190D01*
X36639500Y21398809D01*
X36639500Y22541809D01*
X36542827Y22775198D01*
X36385500Y22932526D01*
X36385500Y23685500D01*
X36638809Y23685500D01*
X36872198Y23782173D01*
X36902525Y23812500D01*
X37017747Y23812500D01*
X37106714Y23723378D01*
X37503332Y23558687D01*
X37932784Y23558313D01*
X38329689Y23722311D01*
X38633622Y24025714D01*
X38798313Y24422332D01*
X38798687Y24851784D01*
X38634689Y25248689D01*
X38331286Y25552622D01*
X37934668Y25717313D01*
X37619488Y25717588D01*
X37619488Y29130373D01*
X37498989Y29362400D01*
X36291520Y29362400D01*
X36291520Y28155583D01*
X36523546Y28034442D01*
X36939467Y28206712D01*
X37371341Y28600910D01*
X37619488Y29130373D01*
X37619488Y25717588D01*
X37505216Y25717687D01*
X37108311Y25553689D01*
X37058951Y25504416D01*
X37147500Y25718190D01*
X37147500Y25970809D01*
X37147500Y26605809D01*
X37050827Y26839198D01*
X36872199Y27017827D01*
X36638810Y27114500D01*
X36386191Y27114500D01*
X35243191Y27114500D01*
X35009802Y27017827D01*
X34979474Y26987500D01*
X34450020Y26987500D01*
X34450020Y28243904D01*
X34684190Y28400371D01*
X34900183Y28723629D01*
X34957699Y28600910D01*
X35389573Y28206712D01*
X35805494Y28034442D01*
X36037520Y28155583D01*
X36037520Y29362400D01*
X36017520Y29362400D01*
X36017520Y29616400D01*
X36037520Y29616400D01*
X36037520Y29636400D01*
X36291520Y29636400D01*
X36291520Y29616400D01*
X37498989Y29616400D01*
X37619488Y29848427D01*
X37371341Y30377890D01*
X36953359Y30759408D01*
X37224190Y30940371D01*
X37549046Y31426552D01*
X37663120Y32000041D01*
X37663120Y32058759D01*
X37613047Y32310494D01*
X38989000Y33686446D01*
X38989000Y635000D01*
M02*
