%FSLAX46Y46*%
G04 Gerber Fmt 4.6, Leading zero omitted, Abs format (unit mm)*
G04 Created by KiCad (PCBNEW (2014-07-24 BZR 5026)-product) date 7/26/2014 10:42:35 PM*
%MOMM*%
G01*
G04 APERTURE LIST*
%ADD10C,0.100000*%
%ADD11R,1.198880X1.198880*%
%ADD12R,1.727200X2.032000*%
%ADD13O,1.727200X2.032000*%
%ADD14R,2.032000X2.032000*%
%ADD15O,2.032000X2.032000*%
%ADD16R,2.032000X1.727200*%
%ADD17O,2.032000X1.727200*%
%ADD18R,1.727200X1.727200*%
%ADD19O,1.727200X1.727200*%
%ADD20C,1.397000*%
%ADD21C,0.889000*%
%ADD22C,0.508000*%
%ADD23C,0.381000*%
%ADD24C,0.254000*%
G04 APERTURE END LIST*
D10*
X73624440Y-30480000D02*
X73624440Y-79319120D01*
X118074440Y-30480000D02*
X73624440Y-30480000D01*
X118074440Y-79319120D02*
X118074440Y-30480000D01*
X73624440Y-79319120D02*
X118074440Y-79319120D01*
D11*
X94996000Y-69502020D03*
X94996000Y-71600060D03*
D12*
X109783880Y-58983880D03*
D13*
X107243880Y-58983880D03*
X104703880Y-58983880D03*
D14*
X80314800Y-62499240D03*
D15*
X80314800Y-65039240D03*
D16*
X81026000Y-42611040D03*
D17*
X81026000Y-45151040D03*
X81026000Y-47691040D03*
X81026000Y-50231040D03*
X81026000Y-52771040D03*
D18*
X109661960Y-42082720D03*
D19*
X112201960Y-42082720D03*
X109661960Y-44622720D03*
X112201960Y-44622720D03*
X109661960Y-47162720D03*
X112201960Y-47162720D03*
D20*
X98592640Y-67696080D03*
X98592640Y-72776080D03*
X106212640Y-67696080D03*
X106212640Y-72776080D03*
X83845400Y-68305680D03*
X83845400Y-73385680D03*
X91465400Y-68305680D03*
X91465400Y-73385680D03*
D21*
X98094800Y-65562480D03*
X88874600Y-66156840D03*
X106756200Y-41798240D03*
X78353920Y-56134000D03*
X113756440Y-52014120D03*
X87909400Y-51775360D03*
X95224600Y-74488040D03*
X88839040Y-41356280D03*
X106324400Y-48366680D03*
X98983800Y-56809640D03*
D22*
X97505520Y-66075560D02*
X98094800Y-65562480D01*
X88910160Y-66192400D02*
X97505520Y-66075560D01*
X88874600Y-66156840D02*
X88910160Y-66192400D01*
D23*
X112293400Y-39486840D02*
X112201960Y-39578280D01*
X107238800Y-39486840D02*
X112293400Y-39486840D01*
X106476800Y-40248840D02*
X107238800Y-39486840D01*
X106476800Y-41518840D02*
X106476800Y-40248840D01*
X106756200Y-41798240D02*
X106476800Y-41518840D01*
X112201960Y-39578280D02*
X112201960Y-42082720D01*
X78130400Y-55910480D02*
X78353920Y-56134000D01*
X78130400Y-40822880D02*
X78130400Y-55910480D01*
X79176880Y-39395400D02*
X78130400Y-40822880D01*
X105049320Y-39395400D02*
X79176880Y-39395400D01*
X106756200Y-41229280D02*
X105049320Y-39395400D01*
X106756200Y-41798240D02*
X106756200Y-41229280D01*
X112684560Y-41600120D02*
X112201960Y-42082720D01*
X113731040Y-42082720D02*
X113883440Y-42235120D01*
X113883440Y-42235120D02*
X113883440Y-51887120D01*
X113883440Y-51887120D02*
X113756440Y-52014120D01*
X112201960Y-42082720D02*
X113731040Y-42082720D01*
X93454220Y-69502020D02*
X93182440Y-69773800D01*
X93182440Y-69773800D02*
X93182440Y-74650600D01*
X93182440Y-74650600D02*
X92207080Y-75346560D01*
X92207080Y-75346560D02*
X82265520Y-75346560D01*
X82265520Y-75346560D02*
X82341720Y-75270360D01*
X82341720Y-75270360D02*
X82285840Y-66344800D01*
X82285840Y-66344800D02*
X83073240Y-65557400D01*
X83073240Y-65557400D02*
X83073240Y-56611520D01*
X83073240Y-56611520D02*
X87909400Y-51775360D01*
X94996000Y-69502020D02*
X93454220Y-69502020D01*
X94996000Y-74259440D02*
X95224600Y-74488040D01*
X94996000Y-71600060D02*
X94996000Y-74259440D01*
X107030520Y-47162720D02*
X109661960Y-47162720D01*
X106898440Y-47030640D02*
X107030520Y-47162720D01*
X106898440Y-43489880D02*
X106898440Y-47030640D01*
X103774240Y-40365680D02*
X106898440Y-43489880D01*
X89829640Y-40365680D02*
X103774240Y-40365680D01*
X88839040Y-41356280D02*
X89829640Y-40365680D01*
D24*
X106324400Y-48366680D02*
X106095800Y-48138080D01*
X106095800Y-48138080D02*
X106095800Y-57591960D01*
X106095800Y-57591960D02*
X104703880Y-58983880D01*
D23*
X106212640Y-65740280D02*
X106212640Y-67696080D01*
X105643680Y-64749680D02*
X106212640Y-65740280D01*
X100345240Y-64749680D02*
X105643680Y-64749680D01*
X99202240Y-64028320D02*
X100345240Y-64749680D01*
X99202240Y-57028080D02*
X99202240Y-64028320D01*
X98983800Y-56809640D02*
X99202240Y-57028080D01*
D24*
G36*
X115026440Y-76017120D02*
X114836127Y-76017120D01*
X114836127Y-51800336D01*
X114708940Y-51492520D01*
X114708940Y-42235120D01*
X114646103Y-41919215D01*
X114646103Y-41919214D01*
X114467157Y-41651403D01*
X114314757Y-41499003D01*
X114046946Y-41320057D01*
X113731040Y-41257220D01*
X113437714Y-41257220D01*
X113261630Y-40993691D01*
X113027460Y-40837223D01*
X113027460Y-39845552D01*
X113056063Y-39802745D01*
X113118900Y-39486840D01*
X113118901Y-39486840D01*
X113056063Y-39170935D01*
X113056063Y-39170934D01*
X112877117Y-38903123D01*
X112609306Y-38724177D01*
X112293400Y-38661339D01*
X112293394Y-38661340D01*
X107238805Y-38661340D01*
X107238800Y-38661339D01*
X106922895Y-38724177D01*
X106655083Y-38903123D01*
X106655080Y-38903126D01*
X106170186Y-39388020D01*
X105653585Y-38832982D01*
X105641391Y-38824186D01*
X105633037Y-38811683D01*
X105511193Y-38730270D01*
X105392360Y-38644551D01*
X105377727Y-38641090D01*
X105365225Y-38632737D01*
X105221512Y-38604151D01*
X105078910Y-38570430D01*
X105064065Y-38572833D01*
X105049320Y-38569900D01*
X79176880Y-38569900D01*
X79114636Y-38582280D01*
X79051231Y-38579518D01*
X78958139Y-38613409D01*
X78860975Y-38632737D01*
X78808205Y-38667996D01*
X78748570Y-38689708D01*
X78675535Y-38756643D01*
X78593163Y-38811683D01*
X78557903Y-38864452D01*
X78511117Y-38907332D01*
X77464637Y-40334812D01*
X77422776Y-40424601D01*
X77367737Y-40506975D01*
X77355355Y-40569220D01*
X77328540Y-40626740D01*
X77324227Y-40725715D01*
X77304900Y-40822880D01*
X77304900Y-55845378D01*
X77274607Y-55918332D01*
X77274233Y-56347784D01*
X77438231Y-56744689D01*
X77741634Y-57048622D01*
X78138252Y-57213313D01*
X78567704Y-57213687D01*
X78964609Y-57049689D01*
X79268542Y-56746286D01*
X79433233Y-56349668D01*
X79433607Y-55920216D01*
X79269609Y-55523311D01*
X78966206Y-55219378D01*
X78955900Y-55215098D01*
X78955900Y-41093054D01*
X79595272Y-40220900D01*
X88806985Y-40220900D01*
X88751183Y-40276702D01*
X88625256Y-40276593D01*
X88228351Y-40440591D01*
X87924418Y-40743994D01*
X87759727Y-41140612D01*
X87759353Y-41570064D01*
X87923351Y-41966969D01*
X88226754Y-42270902D01*
X88623372Y-42435593D01*
X89052824Y-42435967D01*
X89449729Y-42271969D01*
X89753662Y-41968566D01*
X89918353Y-41571948D01*
X89918464Y-41444289D01*
X90171574Y-41191180D01*
X103432306Y-41191180D01*
X106072940Y-43831814D01*
X106072940Y-47030640D01*
X106123933Y-47287004D01*
X106110616Y-47286993D01*
X105713711Y-47450991D01*
X105581763Y-47582708D01*
X105556985Y-47599265D01*
X105540573Y-47623826D01*
X105409778Y-47754394D01*
X105245087Y-48151012D01*
X105244713Y-48580464D01*
X105333800Y-48796070D01*
X105333800Y-57276330D01*
X105209100Y-57401029D01*
X104703880Y-57300535D01*
X104130391Y-57414609D01*
X103644210Y-57739465D01*
X103319354Y-58225646D01*
X103205280Y-58799135D01*
X103205280Y-59168625D01*
X103319354Y-59742114D01*
X103644210Y-60228295D01*
X104130391Y-60553151D01*
X104703880Y-60667225D01*
X105277369Y-60553151D01*
X105763550Y-60228295D01*
X105973880Y-59913514D01*
X106184210Y-60228295D01*
X106670391Y-60553151D01*
X107243880Y-60667225D01*
X107817369Y-60553151D01*
X108303550Y-60228295D01*
X108318379Y-60206100D01*
X108381953Y-60359579D01*
X108560582Y-60538207D01*
X108793971Y-60634880D01*
X109498130Y-60634880D01*
X109656880Y-60476130D01*
X109656880Y-59110880D01*
X109636880Y-59110880D01*
X109636880Y-58856880D01*
X109656880Y-58856880D01*
X109656880Y-57491630D01*
X109498130Y-57332880D01*
X108793971Y-57332880D01*
X108560582Y-57429553D01*
X108381953Y-57608181D01*
X108318379Y-57761659D01*
X108303550Y-57739465D01*
X107817369Y-57414609D01*
X107243880Y-57300535D01*
X106857800Y-57377331D01*
X106857800Y-49314304D01*
X106935089Y-49282369D01*
X107239022Y-48978966D01*
X107403713Y-48582348D01*
X107404087Y-48152896D01*
X107336044Y-47988220D01*
X108426205Y-47988220D01*
X108602290Y-48251749D01*
X109088471Y-48576605D01*
X109661960Y-48690679D01*
X110235449Y-48576605D01*
X110721630Y-48251749D01*
X110937623Y-47928491D01*
X110995139Y-48051210D01*
X111427013Y-48445408D01*
X111842934Y-48617678D01*
X112074960Y-48496537D01*
X112074960Y-47289720D01*
X112054960Y-47289720D01*
X112054960Y-47035720D01*
X112074960Y-47035720D01*
X112074960Y-47015720D01*
X112328960Y-47015720D01*
X112328960Y-47035720D01*
X112348960Y-47035720D01*
X112348960Y-47289720D01*
X112328960Y-47289720D01*
X112328960Y-48496537D01*
X112560986Y-48617678D01*
X112976907Y-48445408D01*
X113057940Y-48371444D01*
X113057940Y-51186088D01*
X112841818Y-51401834D01*
X112677127Y-51798452D01*
X112676753Y-52227904D01*
X112840751Y-52624809D01*
X113144154Y-52928742D01*
X113540772Y-53093433D01*
X113970224Y-53093807D01*
X114367129Y-52929809D01*
X114671062Y-52626406D01*
X114835753Y-52229788D01*
X114836127Y-51800336D01*
X114836127Y-76017120D01*
X111282480Y-76017120D01*
X111282480Y-60126190D01*
X111282480Y-59873571D01*
X111282480Y-59269630D01*
X111282480Y-58698130D01*
X111282480Y-58094189D01*
X111282480Y-57841570D01*
X111185807Y-57608181D01*
X111007178Y-57429553D01*
X110773789Y-57332880D01*
X110069630Y-57332880D01*
X109910880Y-57491630D01*
X109910880Y-58856880D01*
X111123730Y-58856880D01*
X111282480Y-58698130D01*
X111282480Y-59269630D01*
X111123730Y-59110880D01*
X109910880Y-59110880D01*
X109910880Y-60476130D01*
X110069630Y-60634880D01*
X110773789Y-60634880D01*
X111007178Y-60538207D01*
X111185807Y-60359579D01*
X111282480Y-60126190D01*
X111282480Y-76017120D01*
X107558567Y-76017120D01*
X107558567Y-72968600D01*
X107546371Y-72744115D01*
X107546371Y-67431994D01*
X107343786Y-66941700D01*
X107038140Y-66635520D01*
X107038140Y-65740280D01*
X107027696Y-65687778D01*
X107031318Y-65634369D01*
X106996546Y-65531174D01*
X106975303Y-65424375D01*
X106945563Y-65379866D01*
X106928470Y-65329137D01*
X106359509Y-64338537D01*
X106287896Y-64256507D01*
X106227397Y-64165963D01*
X106182887Y-64136222D01*
X106147683Y-64095897D01*
X106050126Y-64047514D01*
X105959585Y-63987017D01*
X105907082Y-63976573D01*
X105859126Y-63952790D01*
X105750480Y-63945423D01*
X105643680Y-63924180D01*
X100583950Y-63924180D01*
X100027740Y-63573149D01*
X100027740Y-57110495D01*
X100063113Y-57025308D01*
X100063487Y-56595856D01*
X99899489Y-56198951D01*
X99596086Y-55895018D01*
X99199468Y-55730327D01*
X98770016Y-55729953D01*
X98373111Y-55893951D01*
X98069178Y-56197354D01*
X97904487Y-56593972D01*
X97904113Y-57023424D01*
X98068111Y-57420329D01*
X98371514Y-57724262D01*
X98376740Y-57726432D01*
X98376740Y-64028320D01*
X98394677Y-64118498D01*
X98397074Y-64210415D01*
X98425796Y-64274947D01*
X98439577Y-64344225D01*
X98490658Y-64420674D01*
X98528048Y-64504678D01*
X98579281Y-64553307D01*
X98617641Y-64610717D01*
X98310468Y-64483167D01*
X97881016Y-64482793D01*
X97484111Y-64646791D01*
X97180178Y-64950194D01*
X97079660Y-65192266D01*
X89539341Y-65294765D01*
X89486886Y-65242218D01*
X89090268Y-65077527D01*
X88660816Y-65077153D01*
X88263911Y-65241151D01*
X87959978Y-65544554D01*
X87795287Y-65941172D01*
X87794913Y-66370624D01*
X87958911Y-66767529D01*
X88262314Y-67071462D01*
X88658932Y-67236153D01*
X89088384Y-67236527D01*
X89482447Y-67073702D01*
X91005144Y-67053004D01*
X90711020Y-67174534D01*
X90335573Y-67549327D01*
X90132132Y-68039267D01*
X90131669Y-68569766D01*
X90334254Y-69060060D01*
X90709047Y-69435507D01*
X91198987Y-69638948D01*
X91729486Y-69639411D01*
X92219780Y-69436826D01*
X92595227Y-69062033D01*
X92798668Y-68572093D01*
X92799131Y-68041594D01*
X92596546Y-67551300D01*
X92221753Y-67175853D01*
X91896713Y-67040884D01*
X97452166Y-66965367D01*
X97259372Y-67429667D01*
X97258909Y-67960166D01*
X97461494Y-68450460D01*
X97836287Y-68825907D01*
X98326227Y-69029348D01*
X98856726Y-69029811D01*
X99347020Y-68827226D01*
X99722467Y-68452433D01*
X99925908Y-67962493D01*
X99926371Y-67431994D01*
X99723786Y-66941700D01*
X99348993Y-66566253D01*
X98859053Y-66362812D01*
X98821080Y-66362778D01*
X99009422Y-66174766D01*
X99174113Y-65778148D01*
X99174487Y-65348696D01*
X99010489Y-64951791D01*
X98826117Y-64767097D01*
X99904662Y-65447778D01*
X99970601Y-65473098D01*
X100029335Y-65512343D01*
X100119515Y-65530280D01*
X100205350Y-65563241D01*
X100275962Y-65561399D01*
X100345240Y-65575180D01*
X105165840Y-65575180D01*
X105387140Y-65960477D01*
X105387140Y-66635930D01*
X105082813Y-66939727D01*
X104879372Y-67429667D01*
X104878909Y-67960166D01*
X105081494Y-68450460D01*
X105456287Y-68825907D01*
X105946227Y-69029348D01*
X106476726Y-69029811D01*
X106967020Y-68827226D01*
X107342467Y-68452433D01*
X107545908Y-67962493D01*
X107546371Y-67431994D01*
X107546371Y-72744115D01*
X107529788Y-72438881D01*
X107382440Y-72083151D01*
X107146828Y-72021497D01*
X106967223Y-72201102D01*
X106967223Y-71841892D01*
X106905569Y-71606280D01*
X106405160Y-71430153D01*
X105875441Y-71458932D01*
X105519711Y-71606280D01*
X105458057Y-71841892D01*
X106212640Y-72596475D01*
X106967223Y-71841892D01*
X106967223Y-72201102D01*
X106392245Y-72776080D01*
X107146828Y-73530663D01*
X107382440Y-73469009D01*
X107558567Y-72968600D01*
X107558567Y-76017120D01*
X106967223Y-76017120D01*
X106967223Y-73710268D01*
X106212640Y-72955685D01*
X106033035Y-73135290D01*
X106033035Y-72776080D01*
X105278452Y-72021497D01*
X105042840Y-72083151D01*
X104866713Y-72583560D01*
X104895492Y-73113279D01*
X105042840Y-73469009D01*
X105278452Y-73530663D01*
X106033035Y-72776080D01*
X106033035Y-73135290D01*
X105458057Y-73710268D01*
X105519711Y-73945880D01*
X106020120Y-74122007D01*
X106549839Y-74093228D01*
X106905569Y-73945880D01*
X106967223Y-73710268D01*
X106967223Y-76017120D01*
X99938567Y-76017120D01*
X99938567Y-72968600D01*
X99909788Y-72438881D01*
X99762440Y-72083151D01*
X99526828Y-72021497D01*
X99347223Y-72201102D01*
X99347223Y-71841892D01*
X99285569Y-71606280D01*
X98785160Y-71430153D01*
X98255441Y-71458932D01*
X97899711Y-71606280D01*
X97838057Y-71841892D01*
X98592640Y-72596475D01*
X99347223Y-71841892D01*
X99347223Y-72201102D01*
X98772245Y-72776080D01*
X99526828Y-73530663D01*
X99762440Y-73469009D01*
X99938567Y-72968600D01*
X99938567Y-76017120D01*
X99347223Y-76017120D01*
X99347223Y-73710268D01*
X98592640Y-72955685D01*
X98413035Y-73135290D01*
X98413035Y-72776080D01*
X97658452Y-72021497D01*
X97422840Y-72083151D01*
X97246713Y-72583560D01*
X97275492Y-73113279D01*
X97422840Y-73469009D01*
X97658452Y-73530663D01*
X98413035Y-72776080D01*
X98413035Y-73135290D01*
X97838057Y-73710268D01*
X97899711Y-73945880D01*
X98400120Y-74122007D01*
X98929839Y-74093228D01*
X99285569Y-73945880D01*
X99347223Y-73710268D01*
X99347223Y-76017120D01*
X92688541Y-76017120D01*
X93661921Y-75322573D01*
X93709005Y-75272504D01*
X93766157Y-75234317D01*
X93818292Y-75156291D01*
X93882576Y-75087933D01*
X93906916Y-75023654D01*
X93945103Y-74966505D01*
X93963409Y-74874472D01*
X93996642Y-74786713D01*
X93994531Y-74718009D01*
X94007940Y-74650600D01*
X94007940Y-72708905D01*
X94036861Y-72737827D01*
X94170500Y-72793182D01*
X94170500Y-74211652D01*
X94145287Y-74272372D01*
X94144913Y-74701824D01*
X94308911Y-75098729D01*
X94612314Y-75402662D01*
X95008932Y-75567353D01*
X95438384Y-75567727D01*
X95835289Y-75403729D01*
X96139222Y-75100326D01*
X96303913Y-74703708D01*
X96304287Y-74274256D01*
X96140289Y-73877351D01*
X95836886Y-73573418D01*
X95821500Y-73567029D01*
X95821500Y-72793181D01*
X95955138Y-72737827D01*
X96133767Y-72559199D01*
X96230440Y-72325810D01*
X96230440Y-72073191D01*
X96230440Y-70874311D01*
X96133767Y-70640922D01*
X96043885Y-70551039D01*
X96133767Y-70461159D01*
X96230440Y-70227770D01*
X96230440Y-69975151D01*
X96230440Y-68776271D01*
X96133767Y-68542882D01*
X95955139Y-68364253D01*
X95721750Y-68267580D01*
X95469131Y-68267580D01*
X94270251Y-68267580D01*
X94036862Y-68364253D01*
X93858233Y-68542881D01*
X93802877Y-68676520D01*
X93454225Y-68676520D01*
X93454220Y-68676519D01*
X93138314Y-68739357D01*
X92870503Y-68918303D01*
X92598723Y-69190083D01*
X92419777Y-69457894D01*
X92356940Y-69773800D01*
X92356940Y-72357938D01*
X92335237Y-72336235D01*
X92219982Y-72451489D01*
X92158329Y-72215880D01*
X91657920Y-72039753D01*
X91128201Y-72068532D01*
X90772471Y-72215880D01*
X90710817Y-72451492D01*
X91465400Y-73206075D01*
X91479542Y-73191932D01*
X91659147Y-73371537D01*
X91645005Y-73385680D01*
X91659147Y-73399822D01*
X91479542Y-73579427D01*
X91465400Y-73565285D01*
X91285795Y-73744890D01*
X91285795Y-73385680D01*
X90531212Y-72631097D01*
X90295600Y-72692751D01*
X90119473Y-73193160D01*
X90148252Y-73722879D01*
X90295600Y-74078609D01*
X90531212Y-74140263D01*
X91285795Y-73385680D01*
X91285795Y-73744890D01*
X90710817Y-74319868D01*
X90763464Y-74521060D01*
X85191327Y-74521060D01*
X85191327Y-73578200D01*
X85162548Y-73048481D01*
X85015200Y-72692751D01*
X84779588Y-72631097D01*
X84025005Y-73385680D01*
X84779588Y-74140263D01*
X85015200Y-74078609D01*
X85191327Y-73578200D01*
X85191327Y-74521060D01*
X84547335Y-74521060D01*
X84599983Y-74319868D01*
X83845400Y-73565285D01*
X83831257Y-73579427D01*
X83651652Y-73399822D01*
X83665795Y-73385680D01*
X83651652Y-73371537D01*
X83831257Y-73191932D01*
X83845400Y-73206075D01*
X84599983Y-72451492D01*
X84538329Y-72215880D01*
X84037920Y-72039753D01*
X83508201Y-72068532D01*
X83152471Y-72215880D01*
X83148215Y-72232144D01*
X83130814Y-69452850D01*
X83578987Y-69638948D01*
X84109486Y-69639411D01*
X84599780Y-69436826D01*
X84975227Y-69062033D01*
X85178668Y-68572093D01*
X85179131Y-68041594D01*
X84976546Y-67551300D01*
X84601753Y-67175853D01*
X84111813Y-66972412D01*
X83581314Y-66971949D01*
X83116485Y-67164012D01*
X83113483Y-66684590D01*
X83656953Y-66141119D01*
X83656957Y-66141117D01*
X83656957Y-66141116D01*
X83835903Y-65873305D01*
X83898740Y-65557400D01*
X83898741Y-65557400D01*
X83898740Y-65557394D01*
X83898740Y-56953454D01*
X87997256Y-52854937D01*
X88123184Y-52855047D01*
X88520089Y-52691049D01*
X88824022Y-52387646D01*
X88988713Y-51991028D01*
X88989087Y-51561576D01*
X88825089Y-51164671D01*
X88521686Y-50860738D01*
X88125068Y-50696047D01*
X87695616Y-50695673D01*
X87298711Y-50859671D01*
X86994778Y-51163074D01*
X86830087Y-51559692D01*
X86829975Y-51687350D01*
X82709345Y-55807980D01*
X82709345Y-52771040D01*
X82595271Y-52197551D01*
X82270415Y-51711370D01*
X81955634Y-51501040D01*
X82270415Y-51290710D01*
X82595271Y-50804529D01*
X82709345Y-50231040D01*
X82595271Y-49657551D01*
X82270415Y-49171370D01*
X81955634Y-48961040D01*
X82270415Y-48750710D01*
X82595271Y-48264529D01*
X82709345Y-47691040D01*
X82595271Y-47117551D01*
X82270415Y-46631370D01*
X81955634Y-46421040D01*
X82270415Y-46210710D01*
X82595271Y-45724529D01*
X82709345Y-45151040D01*
X82595271Y-44577551D01*
X82270415Y-44091370D01*
X82248220Y-44076540D01*
X82401699Y-44012967D01*
X82580327Y-43834338D01*
X82677000Y-43600949D01*
X82677000Y-42896790D01*
X82677000Y-42325290D01*
X82677000Y-41621131D01*
X82580327Y-41387742D01*
X82401699Y-41209113D01*
X82168310Y-41112440D01*
X81915691Y-41112440D01*
X81311750Y-41112440D01*
X81153000Y-41271190D01*
X81153000Y-42484040D01*
X82518250Y-42484040D01*
X82677000Y-42325290D01*
X82677000Y-42896790D01*
X82518250Y-42738040D01*
X81153000Y-42738040D01*
X81153000Y-42758040D01*
X80899000Y-42758040D01*
X80899000Y-42738040D01*
X80899000Y-42484040D01*
X80899000Y-41271190D01*
X80740250Y-41112440D01*
X80136309Y-41112440D01*
X79883690Y-41112440D01*
X79650301Y-41209113D01*
X79471673Y-41387742D01*
X79375000Y-41621131D01*
X79375000Y-42325290D01*
X79533750Y-42484040D01*
X80899000Y-42484040D01*
X80899000Y-42738040D01*
X79533750Y-42738040D01*
X79375000Y-42896790D01*
X79375000Y-43600949D01*
X79471673Y-43834338D01*
X79650301Y-44012967D01*
X79803779Y-44076540D01*
X79781585Y-44091370D01*
X79456729Y-44577551D01*
X79342655Y-45151040D01*
X79456729Y-45724529D01*
X79781585Y-46210710D01*
X80096365Y-46421040D01*
X79781585Y-46631370D01*
X79456729Y-47117551D01*
X79342655Y-47691040D01*
X79456729Y-48264529D01*
X79781585Y-48750710D01*
X80096365Y-48961040D01*
X79781585Y-49171370D01*
X79456729Y-49657551D01*
X79342655Y-50231040D01*
X79456729Y-50804529D01*
X79781585Y-51290710D01*
X80096365Y-51501040D01*
X79781585Y-51711370D01*
X79456729Y-52197551D01*
X79342655Y-52771040D01*
X79456729Y-53344529D01*
X79781585Y-53830710D01*
X80267766Y-54155566D01*
X80841255Y-54269640D01*
X81210745Y-54269640D01*
X81784234Y-54155566D01*
X82270415Y-53830710D01*
X82595271Y-53344529D01*
X82709345Y-52771040D01*
X82709345Y-55807980D01*
X82489523Y-56027803D01*
X82310577Y-56295614D01*
X82247740Y-56611520D01*
X82247740Y-65215466D01*
X81860067Y-65603139D01*
X81965800Y-65071585D01*
X81965800Y-65006895D01*
X81840125Y-64375085D01*
X81639428Y-64074721D01*
X81690499Y-64053567D01*
X81869127Y-63874938D01*
X81965800Y-63641549D01*
X81965800Y-62784990D01*
X81965800Y-62213490D01*
X81965800Y-61356931D01*
X81869127Y-61123542D01*
X81690499Y-60944913D01*
X81457110Y-60848240D01*
X81204491Y-60848240D01*
X80600550Y-60848240D01*
X80441800Y-61006990D01*
X80441800Y-62372240D01*
X81807050Y-62372240D01*
X81965800Y-62213490D01*
X81965800Y-62784990D01*
X81807050Y-62626240D01*
X80441800Y-62626240D01*
X80441800Y-62646240D01*
X80187800Y-62646240D01*
X80187800Y-62626240D01*
X80187800Y-62372240D01*
X80187800Y-61006990D01*
X80029050Y-60848240D01*
X79425109Y-60848240D01*
X79172490Y-60848240D01*
X78939101Y-60944913D01*
X78760473Y-61123542D01*
X78663800Y-61356931D01*
X78663800Y-62213490D01*
X78822550Y-62372240D01*
X80187800Y-62372240D01*
X80187800Y-62626240D01*
X78822550Y-62626240D01*
X78663800Y-62784990D01*
X78663800Y-63641549D01*
X78760473Y-63874938D01*
X78939101Y-64053567D01*
X78990171Y-64074721D01*
X78789475Y-64375085D01*
X78663800Y-65006895D01*
X78663800Y-65071585D01*
X78789475Y-65703395D01*
X79147367Y-66239018D01*
X79682990Y-66596910D01*
X80314800Y-66722585D01*
X80946610Y-66596910D01*
X81481250Y-66239674D01*
X81460340Y-66344800D01*
X81460853Y-66347381D01*
X81460356Y-66349968D01*
X81514592Y-75013089D01*
X81514592Y-75013090D01*
X81502857Y-75030654D01*
X81440020Y-75346560D01*
X81502857Y-75662466D01*
X81681803Y-75930277D01*
X81811772Y-76017120D01*
X77180019Y-76017120D01*
X77053447Y-37919025D01*
X77176277Y-34234120D01*
X115026440Y-34234120D01*
X115026440Y-76017120D01*
X115026440Y-76017120D01*
G37*
X115026440Y-76017120D02*
X114836127Y-76017120D01*
X114836127Y-51800336D01*
X114708940Y-51492520D01*
X114708940Y-42235120D01*
X114646103Y-41919215D01*
X114646103Y-41919214D01*
X114467157Y-41651403D01*
X114314757Y-41499003D01*
X114046946Y-41320057D01*
X113731040Y-41257220D01*
X113437714Y-41257220D01*
X113261630Y-40993691D01*
X113027460Y-40837223D01*
X113027460Y-39845552D01*
X113056063Y-39802745D01*
X113118900Y-39486840D01*
X113118901Y-39486840D01*
X113056063Y-39170935D01*
X113056063Y-39170934D01*
X112877117Y-38903123D01*
X112609306Y-38724177D01*
X112293400Y-38661339D01*
X112293394Y-38661340D01*
X107238805Y-38661340D01*
X107238800Y-38661339D01*
X106922895Y-38724177D01*
X106655083Y-38903123D01*
X106655080Y-38903126D01*
X106170186Y-39388020D01*
X105653585Y-38832982D01*
X105641391Y-38824186D01*
X105633037Y-38811683D01*
X105511193Y-38730270D01*
X105392360Y-38644551D01*
X105377727Y-38641090D01*
X105365225Y-38632737D01*
X105221512Y-38604151D01*
X105078910Y-38570430D01*
X105064065Y-38572833D01*
X105049320Y-38569900D01*
X79176880Y-38569900D01*
X79114636Y-38582280D01*
X79051231Y-38579518D01*
X78958139Y-38613409D01*
X78860975Y-38632737D01*
X78808205Y-38667996D01*
X78748570Y-38689708D01*
X78675535Y-38756643D01*
X78593163Y-38811683D01*
X78557903Y-38864452D01*
X78511117Y-38907332D01*
X77464637Y-40334812D01*
X77422776Y-40424601D01*
X77367737Y-40506975D01*
X77355355Y-40569220D01*
X77328540Y-40626740D01*
X77324227Y-40725715D01*
X77304900Y-40822880D01*
X77304900Y-55845378D01*
X77274607Y-55918332D01*
X77274233Y-56347784D01*
X77438231Y-56744689D01*
X77741634Y-57048622D01*
X78138252Y-57213313D01*
X78567704Y-57213687D01*
X78964609Y-57049689D01*
X79268542Y-56746286D01*
X79433233Y-56349668D01*
X79433607Y-55920216D01*
X79269609Y-55523311D01*
X78966206Y-55219378D01*
X78955900Y-55215098D01*
X78955900Y-41093054D01*
X79595272Y-40220900D01*
X88806985Y-40220900D01*
X88751183Y-40276702D01*
X88625256Y-40276593D01*
X88228351Y-40440591D01*
X87924418Y-40743994D01*
X87759727Y-41140612D01*
X87759353Y-41570064D01*
X87923351Y-41966969D01*
X88226754Y-42270902D01*
X88623372Y-42435593D01*
X89052824Y-42435967D01*
X89449729Y-42271969D01*
X89753662Y-41968566D01*
X89918353Y-41571948D01*
X89918464Y-41444289D01*
X90171574Y-41191180D01*
X103432306Y-41191180D01*
X106072940Y-43831814D01*
X106072940Y-47030640D01*
X106123933Y-47287004D01*
X106110616Y-47286993D01*
X105713711Y-47450991D01*
X105581763Y-47582708D01*
X105556985Y-47599265D01*
X105540573Y-47623826D01*
X105409778Y-47754394D01*
X105245087Y-48151012D01*
X105244713Y-48580464D01*
X105333800Y-48796070D01*
X105333800Y-57276330D01*
X105209100Y-57401029D01*
X104703880Y-57300535D01*
X104130391Y-57414609D01*
X103644210Y-57739465D01*
X103319354Y-58225646D01*
X103205280Y-58799135D01*
X103205280Y-59168625D01*
X103319354Y-59742114D01*
X103644210Y-60228295D01*
X104130391Y-60553151D01*
X104703880Y-60667225D01*
X105277369Y-60553151D01*
X105763550Y-60228295D01*
X105973880Y-59913514D01*
X106184210Y-60228295D01*
X106670391Y-60553151D01*
X107243880Y-60667225D01*
X107817369Y-60553151D01*
X108303550Y-60228295D01*
X108318379Y-60206100D01*
X108381953Y-60359579D01*
X108560582Y-60538207D01*
X108793971Y-60634880D01*
X109498130Y-60634880D01*
X109656880Y-60476130D01*
X109656880Y-59110880D01*
X109636880Y-59110880D01*
X109636880Y-58856880D01*
X109656880Y-58856880D01*
X109656880Y-57491630D01*
X109498130Y-57332880D01*
X108793971Y-57332880D01*
X108560582Y-57429553D01*
X108381953Y-57608181D01*
X108318379Y-57761659D01*
X108303550Y-57739465D01*
X107817369Y-57414609D01*
X107243880Y-57300535D01*
X106857800Y-57377331D01*
X106857800Y-49314304D01*
X106935089Y-49282369D01*
X107239022Y-48978966D01*
X107403713Y-48582348D01*
X107404087Y-48152896D01*
X107336044Y-47988220D01*
X108426205Y-47988220D01*
X108602290Y-48251749D01*
X109088471Y-48576605D01*
X109661960Y-48690679D01*
X110235449Y-48576605D01*
X110721630Y-48251749D01*
X110937623Y-47928491D01*
X110995139Y-48051210D01*
X111427013Y-48445408D01*
X111842934Y-48617678D01*
X112074960Y-48496537D01*
X112074960Y-47289720D01*
X112054960Y-47289720D01*
X112054960Y-47035720D01*
X112074960Y-47035720D01*
X112074960Y-47015720D01*
X112328960Y-47015720D01*
X112328960Y-47035720D01*
X112348960Y-47035720D01*
X112348960Y-47289720D01*
X112328960Y-47289720D01*
X112328960Y-48496537D01*
X112560986Y-48617678D01*
X112976907Y-48445408D01*
X113057940Y-48371444D01*
X113057940Y-51186088D01*
X112841818Y-51401834D01*
X112677127Y-51798452D01*
X112676753Y-52227904D01*
X112840751Y-52624809D01*
X113144154Y-52928742D01*
X113540772Y-53093433D01*
X113970224Y-53093807D01*
X114367129Y-52929809D01*
X114671062Y-52626406D01*
X114835753Y-52229788D01*
X114836127Y-51800336D01*
X114836127Y-76017120D01*
X111282480Y-76017120D01*
X111282480Y-60126190D01*
X111282480Y-59873571D01*
X111282480Y-59269630D01*
X111282480Y-58698130D01*
X111282480Y-58094189D01*
X111282480Y-57841570D01*
X111185807Y-57608181D01*
X111007178Y-57429553D01*
X110773789Y-57332880D01*
X110069630Y-57332880D01*
X109910880Y-57491630D01*
X109910880Y-58856880D01*
X111123730Y-58856880D01*
X111282480Y-58698130D01*
X111282480Y-59269630D01*
X111123730Y-59110880D01*
X109910880Y-59110880D01*
X109910880Y-60476130D01*
X110069630Y-60634880D01*
X110773789Y-60634880D01*
X111007178Y-60538207D01*
X111185807Y-60359579D01*
X111282480Y-60126190D01*
X111282480Y-76017120D01*
X107558567Y-76017120D01*
X107558567Y-72968600D01*
X107546371Y-72744115D01*
X107546371Y-67431994D01*
X107343786Y-66941700D01*
X107038140Y-66635520D01*
X107038140Y-65740280D01*
X107027696Y-65687778D01*
X107031318Y-65634369D01*
X106996546Y-65531174D01*
X106975303Y-65424375D01*
X106945563Y-65379866D01*
X106928470Y-65329137D01*
X106359509Y-64338537D01*
X106287896Y-64256507D01*
X106227397Y-64165963D01*
X106182887Y-64136222D01*
X106147683Y-64095897D01*
X106050126Y-64047514D01*
X105959585Y-63987017D01*
X105907082Y-63976573D01*
X105859126Y-63952790D01*
X105750480Y-63945423D01*
X105643680Y-63924180D01*
X100583950Y-63924180D01*
X100027740Y-63573149D01*
X100027740Y-57110495D01*
X100063113Y-57025308D01*
X100063487Y-56595856D01*
X99899489Y-56198951D01*
X99596086Y-55895018D01*
X99199468Y-55730327D01*
X98770016Y-55729953D01*
X98373111Y-55893951D01*
X98069178Y-56197354D01*
X97904487Y-56593972D01*
X97904113Y-57023424D01*
X98068111Y-57420329D01*
X98371514Y-57724262D01*
X98376740Y-57726432D01*
X98376740Y-64028320D01*
X98394677Y-64118498D01*
X98397074Y-64210415D01*
X98425796Y-64274947D01*
X98439577Y-64344225D01*
X98490658Y-64420674D01*
X98528048Y-64504678D01*
X98579281Y-64553307D01*
X98617641Y-64610717D01*
X98310468Y-64483167D01*
X97881016Y-64482793D01*
X97484111Y-64646791D01*
X97180178Y-64950194D01*
X97079660Y-65192266D01*
X89539341Y-65294765D01*
X89486886Y-65242218D01*
X89090268Y-65077527D01*
X88660816Y-65077153D01*
X88263911Y-65241151D01*
X87959978Y-65544554D01*
X87795287Y-65941172D01*
X87794913Y-66370624D01*
X87958911Y-66767529D01*
X88262314Y-67071462D01*
X88658932Y-67236153D01*
X89088384Y-67236527D01*
X89482447Y-67073702D01*
X91005144Y-67053004D01*
X90711020Y-67174534D01*
X90335573Y-67549327D01*
X90132132Y-68039267D01*
X90131669Y-68569766D01*
X90334254Y-69060060D01*
X90709047Y-69435507D01*
X91198987Y-69638948D01*
X91729486Y-69639411D01*
X92219780Y-69436826D01*
X92595227Y-69062033D01*
X92798668Y-68572093D01*
X92799131Y-68041594D01*
X92596546Y-67551300D01*
X92221753Y-67175853D01*
X91896713Y-67040884D01*
X97452166Y-66965367D01*
X97259372Y-67429667D01*
X97258909Y-67960166D01*
X97461494Y-68450460D01*
X97836287Y-68825907D01*
X98326227Y-69029348D01*
X98856726Y-69029811D01*
X99347020Y-68827226D01*
X99722467Y-68452433D01*
X99925908Y-67962493D01*
X99926371Y-67431994D01*
X99723786Y-66941700D01*
X99348993Y-66566253D01*
X98859053Y-66362812D01*
X98821080Y-66362778D01*
X99009422Y-66174766D01*
X99174113Y-65778148D01*
X99174487Y-65348696D01*
X99010489Y-64951791D01*
X98826117Y-64767097D01*
X99904662Y-65447778D01*
X99970601Y-65473098D01*
X100029335Y-65512343D01*
X100119515Y-65530280D01*
X100205350Y-65563241D01*
X100275962Y-65561399D01*
X100345240Y-65575180D01*
X105165840Y-65575180D01*
X105387140Y-65960477D01*
X105387140Y-66635930D01*
X105082813Y-66939727D01*
X104879372Y-67429667D01*
X104878909Y-67960166D01*
X105081494Y-68450460D01*
X105456287Y-68825907D01*
X105946227Y-69029348D01*
X106476726Y-69029811D01*
X106967020Y-68827226D01*
X107342467Y-68452433D01*
X107545908Y-67962493D01*
X107546371Y-67431994D01*
X107546371Y-72744115D01*
X107529788Y-72438881D01*
X107382440Y-72083151D01*
X107146828Y-72021497D01*
X106967223Y-72201102D01*
X106967223Y-71841892D01*
X106905569Y-71606280D01*
X106405160Y-71430153D01*
X105875441Y-71458932D01*
X105519711Y-71606280D01*
X105458057Y-71841892D01*
X106212640Y-72596475D01*
X106967223Y-71841892D01*
X106967223Y-72201102D01*
X106392245Y-72776080D01*
X107146828Y-73530663D01*
X107382440Y-73469009D01*
X107558567Y-72968600D01*
X107558567Y-76017120D01*
X106967223Y-76017120D01*
X106967223Y-73710268D01*
X106212640Y-72955685D01*
X106033035Y-73135290D01*
X106033035Y-72776080D01*
X105278452Y-72021497D01*
X105042840Y-72083151D01*
X104866713Y-72583560D01*
X104895492Y-73113279D01*
X105042840Y-73469009D01*
X105278452Y-73530663D01*
X106033035Y-72776080D01*
X106033035Y-73135290D01*
X105458057Y-73710268D01*
X105519711Y-73945880D01*
X106020120Y-74122007D01*
X106549839Y-74093228D01*
X106905569Y-73945880D01*
X106967223Y-73710268D01*
X106967223Y-76017120D01*
X99938567Y-76017120D01*
X99938567Y-72968600D01*
X99909788Y-72438881D01*
X99762440Y-72083151D01*
X99526828Y-72021497D01*
X99347223Y-72201102D01*
X99347223Y-71841892D01*
X99285569Y-71606280D01*
X98785160Y-71430153D01*
X98255441Y-71458932D01*
X97899711Y-71606280D01*
X97838057Y-71841892D01*
X98592640Y-72596475D01*
X99347223Y-71841892D01*
X99347223Y-72201102D01*
X98772245Y-72776080D01*
X99526828Y-73530663D01*
X99762440Y-73469009D01*
X99938567Y-72968600D01*
X99938567Y-76017120D01*
X99347223Y-76017120D01*
X99347223Y-73710268D01*
X98592640Y-72955685D01*
X98413035Y-73135290D01*
X98413035Y-72776080D01*
X97658452Y-72021497D01*
X97422840Y-72083151D01*
X97246713Y-72583560D01*
X97275492Y-73113279D01*
X97422840Y-73469009D01*
X97658452Y-73530663D01*
X98413035Y-72776080D01*
X98413035Y-73135290D01*
X97838057Y-73710268D01*
X97899711Y-73945880D01*
X98400120Y-74122007D01*
X98929839Y-74093228D01*
X99285569Y-73945880D01*
X99347223Y-73710268D01*
X99347223Y-76017120D01*
X92688541Y-76017120D01*
X93661921Y-75322573D01*
X93709005Y-75272504D01*
X93766157Y-75234317D01*
X93818292Y-75156291D01*
X93882576Y-75087933D01*
X93906916Y-75023654D01*
X93945103Y-74966505D01*
X93963409Y-74874472D01*
X93996642Y-74786713D01*
X93994531Y-74718009D01*
X94007940Y-74650600D01*
X94007940Y-72708905D01*
X94036861Y-72737827D01*
X94170500Y-72793182D01*
X94170500Y-74211652D01*
X94145287Y-74272372D01*
X94144913Y-74701824D01*
X94308911Y-75098729D01*
X94612314Y-75402662D01*
X95008932Y-75567353D01*
X95438384Y-75567727D01*
X95835289Y-75403729D01*
X96139222Y-75100326D01*
X96303913Y-74703708D01*
X96304287Y-74274256D01*
X96140289Y-73877351D01*
X95836886Y-73573418D01*
X95821500Y-73567029D01*
X95821500Y-72793181D01*
X95955138Y-72737827D01*
X96133767Y-72559199D01*
X96230440Y-72325810D01*
X96230440Y-72073191D01*
X96230440Y-70874311D01*
X96133767Y-70640922D01*
X96043885Y-70551039D01*
X96133767Y-70461159D01*
X96230440Y-70227770D01*
X96230440Y-69975151D01*
X96230440Y-68776271D01*
X96133767Y-68542882D01*
X95955139Y-68364253D01*
X95721750Y-68267580D01*
X95469131Y-68267580D01*
X94270251Y-68267580D01*
X94036862Y-68364253D01*
X93858233Y-68542881D01*
X93802877Y-68676520D01*
X93454225Y-68676520D01*
X93454220Y-68676519D01*
X93138314Y-68739357D01*
X92870503Y-68918303D01*
X92598723Y-69190083D01*
X92419777Y-69457894D01*
X92356940Y-69773800D01*
X92356940Y-72357938D01*
X92335237Y-72336235D01*
X92219982Y-72451489D01*
X92158329Y-72215880D01*
X91657920Y-72039753D01*
X91128201Y-72068532D01*
X90772471Y-72215880D01*
X90710817Y-72451492D01*
X91465400Y-73206075D01*
X91479542Y-73191932D01*
X91659147Y-73371537D01*
X91645005Y-73385680D01*
X91659147Y-73399822D01*
X91479542Y-73579427D01*
X91465400Y-73565285D01*
X91285795Y-73744890D01*
X91285795Y-73385680D01*
X90531212Y-72631097D01*
X90295600Y-72692751D01*
X90119473Y-73193160D01*
X90148252Y-73722879D01*
X90295600Y-74078609D01*
X90531212Y-74140263D01*
X91285795Y-73385680D01*
X91285795Y-73744890D01*
X90710817Y-74319868D01*
X90763464Y-74521060D01*
X85191327Y-74521060D01*
X85191327Y-73578200D01*
X85162548Y-73048481D01*
X85015200Y-72692751D01*
X84779588Y-72631097D01*
X84025005Y-73385680D01*
X84779588Y-74140263D01*
X85015200Y-74078609D01*
X85191327Y-73578200D01*
X85191327Y-74521060D01*
X84547335Y-74521060D01*
X84599983Y-74319868D01*
X83845400Y-73565285D01*
X83831257Y-73579427D01*
X83651652Y-73399822D01*
X83665795Y-73385680D01*
X83651652Y-73371537D01*
X83831257Y-73191932D01*
X83845400Y-73206075D01*
X84599983Y-72451492D01*
X84538329Y-72215880D01*
X84037920Y-72039753D01*
X83508201Y-72068532D01*
X83152471Y-72215880D01*
X83148215Y-72232144D01*
X83130814Y-69452850D01*
X83578987Y-69638948D01*
X84109486Y-69639411D01*
X84599780Y-69436826D01*
X84975227Y-69062033D01*
X85178668Y-68572093D01*
X85179131Y-68041594D01*
X84976546Y-67551300D01*
X84601753Y-67175853D01*
X84111813Y-66972412D01*
X83581314Y-66971949D01*
X83116485Y-67164012D01*
X83113483Y-66684590D01*
X83656953Y-66141119D01*
X83656957Y-66141117D01*
X83656957Y-66141116D01*
X83835903Y-65873305D01*
X83898740Y-65557400D01*
X83898741Y-65557400D01*
X83898740Y-65557394D01*
X83898740Y-56953454D01*
X87997256Y-52854937D01*
X88123184Y-52855047D01*
X88520089Y-52691049D01*
X88824022Y-52387646D01*
X88988713Y-51991028D01*
X88989087Y-51561576D01*
X88825089Y-51164671D01*
X88521686Y-50860738D01*
X88125068Y-50696047D01*
X87695616Y-50695673D01*
X87298711Y-50859671D01*
X86994778Y-51163074D01*
X86830087Y-51559692D01*
X86829975Y-51687350D01*
X82709345Y-55807980D01*
X82709345Y-52771040D01*
X82595271Y-52197551D01*
X82270415Y-51711370D01*
X81955634Y-51501040D01*
X82270415Y-51290710D01*
X82595271Y-50804529D01*
X82709345Y-50231040D01*
X82595271Y-49657551D01*
X82270415Y-49171370D01*
X81955634Y-48961040D01*
X82270415Y-48750710D01*
X82595271Y-48264529D01*
X82709345Y-47691040D01*
X82595271Y-47117551D01*
X82270415Y-46631370D01*
X81955634Y-46421040D01*
X82270415Y-46210710D01*
X82595271Y-45724529D01*
X82709345Y-45151040D01*
X82595271Y-44577551D01*
X82270415Y-44091370D01*
X82248220Y-44076540D01*
X82401699Y-44012967D01*
X82580327Y-43834338D01*
X82677000Y-43600949D01*
X82677000Y-42896790D01*
X82677000Y-42325290D01*
X82677000Y-41621131D01*
X82580327Y-41387742D01*
X82401699Y-41209113D01*
X82168310Y-41112440D01*
X81915691Y-41112440D01*
X81311750Y-41112440D01*
X81153000Y-41271190D01*
X81153000Y-42484040D01*
X82518250Y-42484040D01*
X82677000Y-42325290D01*
X82677000Y-42896790D01*
X82518250Y-42738040D01*
X81153000Y-42738040D01*
X81153000Y-42758040D01*
X80899000Y-42758040D01*
X80899000Y-42738040D01*
X80899000Y-42484040D01*
X80899000Y-41271190D01*
X80740250Y-41112440D01*
X80136309Y-41112440D01*
X79883690Y-41112440D01*
X79650301Y-41209113D01*
X79471673Y-41387742D01*
X79375000Y-41621131D01*
X79375000Y-42325290D01*
X79533750Y-42484040D01*
X80899000Y-42484040D01*
X80899000Y-42738040D01*
X79533750Y-42738040D01*
X79375000Y-42896790D01*
X79375000Y-43600949D01*
X79471673Y-43834338D01*
X79650301Y-44012967D01*
X79803779Y-44076540D01*
X79781585Y-44091370D01*
X79456729Y-44577551D01*
X79342655Y-45151040D01*
X79456729Y-45724529D01*
X79781585Y-46210710D01*
X80096365Y-46421040D01*
X79781585Y-46631370D01*
X79456729Y-47117551D01*
X79342655Y-47691040D01*
X79456729Y-48264529D01*
X79781585Y-48750710D01*
X80096365Y-48961040D01*
X79781585Y-49171370D01*
X79456729Y-49657551D01*
X79342655Y-50231040D01*
X79456729Y-50804529D01*
X79781585Y-51290710D01*
X80096365Y-51501040D01*
X79781585Y-51711370D01*
X79456729Y-52197551D01*
X79342655Y-52771040D01*
X79456729Y-53344529D01*
X79781585Y-53830710D01*
X80267766Y-54155566D01*
X80841255Y-54269640D01*
X81210745Y-54269640D01*
X81784234Y-54155566D01*
X82270415Y-53830710D01*
X82595271Y-53344529D01*
X82709345Y-52771040D01*
X82709345Y-55807980D01*
X82489523Y-56027803D01*
X82310577Y-56295614D01*
X82247740Y-56611520D01*
X82247740Y-65215466D01*
X81860067Y-65603139D01*
X81965800Y-65071585D01*
X81965800Y-65006895D01*
X81840125Y-64375085D01*
X81639428Y-64074721D01*
X81690499Y-64053567D01*
X81869127Y-63874938D01*
X81965800Y-63641549D01*
X81965800Y-62784990D01*
X81965800Y-62213490D01*
X81965800Y-61356931D01*
X81869127Y-61123542D01*
X81690499Y-60944913D01*
X81457110Y-60848240D01*
X81204491Y-60848240D01*
X80600550Y-60848240D01*
X80441800Y-61006990D01*
X80441800Y-62372240D01*
X81807050Y-62372240D01*
X81965800Y-62213490D01*
X81965800Y-62784990D01*
X81807050Y-62626240D01*
X80441800Y-62626240D01*
X80441800Y-62646240D01*
X80187800Y-62646240D01*
X80187800Y-62626240D01*
X80187800Y-62372240D01*
X80187800Y-61006990D01*
X80029050Y-60848240D01*
X79425109Y-60848240D01*
X79172490Y-60848240D01*
X78939101Y-60944913D01*
X78760473Y-61123542D01*
X78663800Y-61356931D01*
X78663800Y-62213490D01*
X78822550Y-62372240D01*
X80187800Y-62372240D01*
X80187800Y-62626240D01*
X78822550Y-62626240D01*
X78663800Y-62784990D01*
X78663800Y-63641549D01*
X78760473Y-63874938D01*
X78939101Y-64053567D01*
X78990171Y-64074721D01*
X78789475Y-64375085D01*
X78663800Y-65006895D01*
X78663800Y-65071585D01*
X78789475Y-65703395D01*
X79147367Y-66239018D01*
X79682990Y-66596910D01*
X80314800Y-66722585D01*
X80946610Y-66596910D01*
X81481250Y-66239674D01*
X81460340Y-66344800D01*
X81460853Y-66347381D01*
X81460356Y-66349968D01*
X81514592Y-75013089D01*
X81514592Y-75013090D01*
X81502857Y-75030654D01*
X81440020Y-75346560D01*
X81502857Y-75662466D01*
X81681803Y-75930277D01*
X81811772Y-76017120D01*
X77180019Y-76017120D01*
X77053447Y-37919025D01*
X77176277Y-34234120D01*
X115026440Y-34234120D01*
X115026440Y-76017120D01*
M02*
