M48
;DRILL file {kicad (2014-07-24 BZR 5026)-product} date 7/26/2014 7:15:17 PM
;FORMAT={-:-/ absolute / inch / decimal}
FMAT,2
INCH,TZ
T1C0.025
T2C0.032
T3C0.040
%
G90
G05
M72
T1
X0.0912Y0.8078
X0.4674Y0.9794
X0.504Y1.3896
X0.5054Y0.4132
X0.7554Y0.0852
X0.8684Y0.4366
X0.9034Y0.7812
X1.1924Y1.1136
X1.2094Y1.3722
X1.485Y0.97
T2
X0.3074Y0.3286
X0.3074Y0.1286
X0.6074Y0.3286
X0.6074Y0.1286
X0.888Y0.3526
X0.888Y0.1526
X1.188Y0.3526
X1.188Y0.1526
T3
X0.1684Y0.5572
X0.1684Y0.4572
X0.1964Y1.3402
X0.1964Y1.2402
X0.1964Y1.1402
X0.1964Y1.0402
X0.1964Y0.9402
X1.1286Y0.6956
X1.2286Y0.6956
X1.3238Y1.361
X1.3238Y1.261
X1.3238Y1.161
X1.3286Y0.6956
X1.4238Y1.361
X1.4238Y1.261
X1.4238Y1.161
T0
M30
