solid arm with horn
facet normal 0.0 0.0 -1.0
  outer loop
    vertex 34.0 15.0 0.0
    vertex 0.0 0.0 0.0
    vertex 0.0 15.0 0.0
  endloop
endfacet
facet normal 0.0 0.0 -1.0
  outer loop
    vertex 0.0 0.0 0.0
    vertex 34.0 15.0 0.0
    vertex 34.0 0.0 0.0
  endloop
endfacet
facet normal 0.0 0.0 1.0
  outer loop
    vertex 0.0 0.0 1.9999999999999998
    vertex 2.0681483474218627 6.982361909794959 1.9999999999999998
    vertex 0.0 15.0 1.9999999999999998
  endloop
endfacet
facet normal 0.0 0.0 1.0
  outer loop
    vertex 2.0681483474218627 6.982361909794959 1.9999999999999998
    vertex 0.0 0.0 1.9999999999999998
    vertex 2.267949192431123 6.500000000000001 1.9999999999999998
  endloop
endfacet
facet normal 0.0 0.0 1.0
  outer loop
    vertex 2.267949192431123 6.500000000000001 1.9999999999999998
    vertex 0.0 0.0 1.9999999999999998
    vertex 2.585786437626908 6.085786437626906 1.9999999999999998
  endloop
endfacet
facet normal 0.0 0.0 1.0
  outer loop
    vertex 2.585786437626908 6.085786437626906 1.9999999999999998
    vertex 0.0 0.0 1.9999999999999998
    vertex 3.000000000000003 5.767949192431122 1.9999999999999998
  endloop
endfacet
facet normal 0.0 0.0 1.0
  outer loop
    vertex 3.000000000000003 5.767949192431122 1.9999999999999998
    vertex 0.0 0.0 1.9999999999999998
    vertex 3.48236190979496 5.568148347421864 1.9999999999999998
  endloop
endfacet
facet normal 0.0 0.0 1.0
  outer loop
    vertex 3.48236190979496 5.568148347421864 1.9999999999999998
    vertex 0.0 0.0 1.9999999999999998
    vertex 34.0 0.0 1.9999999999999998
  endloop
endfacet
facet normal 0.0 0.0 1.0
  outer loop
    vertex 0.0 15.0 1.9999999999999998
    vertex 2.0681483474218627 6.982361909794959 1.9999999999999998
    vertex 1.9999999999999991 7.5 1.9999999999999998
  endloop
endfacet
facet normal 0.0 0.0 1.0
  outer loop
    vertex 3.48236190979496 5.568148347421864 1.9999999999999998
    vertex 34.0 0.0 1.9999999999999998
    vertex 3.9999999999999996 5.500000000000001 1.9999999999999998
  endloop
endfacet
facet normal 0.0 0.0 1.0
  outer loop
    vertex 3.9999999999999996 5.500000000000001 1.9999999999999998
    vertex 34.0 0.0 1.9999999999999998
    vertex 16.02942858086555 3.877778151415994 1.9999999999999998
  endloop
endfacet
facet normal 0.0 0.0 1.0
  outer loop
    vertex 3.9999999999999996 5.500000000000001 1.9999999999999998
    vertex 16.02942858086555 3.877778151415994 1.9999999999999998
    vertex 15.125 4.252404735808355 1.9999999999999998
  endloop
endfacet
facet normal 0.0 0.0 1.0
  outer loop
    vertex 3.9999999999999996 5.500000000000001 1.9999999999999998
    vertex 15.125 4.252404735808355 1.9999999999999998
    vertex 14.541682494941883 4.6999999999999975 1.9999999999999998
  endloop
endfacet
facet normal 0.0 0.0 1.0
  outer loop
    vertex 16.02942858086555 3.877778151415994 1.9999999999999998
    vertex 34.0 0.0 1.9999999999999998
    vertex 17.0 3.75 1.9999999999999998
  endloop
endfacet
facet normal 0.0 0.0 1.0
  outer loop
    vertex 17.0 3.75 1.9999999999999998
    vertex 34.0 0.0 1.9999999999999998
    vertex 17.970571419134455 3.877778151415995 1.9999999999999998
  endloop
endfacet
facet normal 0.0 0.0 1.0
  outer loop
    vertex 17.970571419134455 3.877778151415995 1.9999999999999998
    vertex 34.0 0.0 1.9999999999999998
    vertex 18.875000000000004 4.252404735808356 1.9999999999999998
  endloop
endfacet
facet normal 0.0 0.0 1.0
  outer loop
    vertex 18.875000000000004 4.252404735808356 1.9999999999999998
    vertex 34.0 0.0 1.9999999999999998
    vertex 19.458317505058112 4.699999999999999 1.9999999999999998
  endloop
endfacet
facet normal 0.0 0.0 1.0
  outer loop
    vertex 19.458317505058112 4.699999999999999 1.9999999999999998
    vertex 34.0 0.0 1.9999999999999998
    vertex 29.999999999999996 5.500000000000001 1.9999999999999998
  endloop
endfacet
facet normal 0.0 0.0 1.0
  outer loop
    vertex 29.999999999999996 5.500000000000001 1.9999999999999998
    vertex 34.0 0.0 1.9999999999999998
    vertex 30.517638090205036 5.5681483474218645 1.9999999999999998
  endloop
endfacet
facet normal 0.0 0.0 1.0
  outer loop
    vertex 30.517638090205036 5.5681483474218645 1.9999999999999998
    vertex 34.0 0.0 1.9999999999999998
    vertex 30.999999999999993 5.767949192431123 1.9999999999999998
  endloop
endfacet
facet normal 0.0 0.0 1.0
  outer loop
    vertex 30.999999999999993 5.767949192431123 1.9999999999999998
    vertex 34.0 0.0 1.9999999999999998
    vertex 31.41421356237309 6.085786437626906 1.9999999999999998
  endloop
endfacet
facet normal 0.0 0.0 1.0
  outer loop
    vertex 31.41421356237309 6.085786437626906 1.9999999999999998
    vertex 34.0 0.0 1.9999999999999998
    vertex 31.732050807568875 6.500000000000001 1.9999999999999998
  endloop
endfacet
facet normal 0.0 0.0 1.0
  outer loop
    vertex 31.732050807568875 6.500000000000001 1.9999999999999998
    vertex 34.0 0.0 1.9999999999999998
    vertex 31.931851652578136 6.982361909794959 1.9999999999999998
  endloop
endfacet
facet normal 0.0 0.0 1.0
  outer loop
    vertex 31.931851652578136 6.982361909794959 1.9999999999999998
    vertex 34.0 0.0 1.9999999999999998
    vertex 31.999999999999996 7.5 1.9999999999999998
  endloop
endfacet
facet normal 0.0 0.0 1.0
  outer loop
    vertex 0.0 15.0 1.9999999999999998
    vertex 3.482361909794961 9.431851652578136 1.9999999999999998
    vertex 34.0 15.0 1.9999999999999998
  endloop
endfacet
facet normal 0.0 0.0 1.0
  outer loop
    vertex 3.482361909794961 9.431851652578136 1.9999999999999998
    vertex 0.0 15.0 1.9999999999999998
    vertex 3.000000000000003 9.232050807568877 1.9999999999999998
  endloop
endfacet
facet normal 0.0 0.0 1.0
  outer loop
    vertex 3.000000000000003 9.232050807568877 1.9999999999999998
    vertex 0.0 15.0 1.9999999999999998
    vertex 2.585786437626908 8.914213562373094 1.9999999999999998
  endloop
endfacet
facet normal 0.0 0.0 1.0
  outer loop
    vertex 2.585786437626908 8.914213562373094 1.9999999999999998
    vertex 0.0 15.0 1.9999999999999998
    vertex 2.267949192431123 8.5 1.9999999999999998
  endloop
endfacet
facet normal 0.0 0.0 1.0
  outer loop
    vertex 2.267949192431123 8.5 1.9999999999999998
    vertex 0.0 15.0 1.9999999999999998
    vertex 2.0681483474218627 8.017638090205041 1.9999999999999998
  endloop
endfacet
facet normal 0.0 0.0 1.0
  outer loop
    vertex 2.0681483474218627 8.017638090205041 1.9999999999999998
    vertex 0.0 15.0 1.9999999999999998
    vertex 1.9999999999999991 7.5 1.9999999999999998
  endloop
endfacet
facet normal 0.0 0.0 1.0
  outer loop
    vertex 34.0 15.0 1.9999999999999998
    vertex 3.482361909794961 9.431851652578136 1.9999999999999998
    vertex 4.000000000000001 9.5 1.9999999999999998
  endloop
endfacet
facet normal 0.0 0.0 1.0
  outer loop
    vertex 34.0 15.0 1.9999999999999998
    vertex 4.000000000000001 9.5 1.9999999999999998
    vertex 16.029428580865545 11.122221848584006 1.9999999999999998
  endloop
endfacet
facet normal 0.0 0.0 1.0
  outer loop
    vertex 16.029428580865545 11.122221848584006 1.9999999999999998
    vertex 4.000000000000001 9.5 1.9999999999999998
    vertex 15.124999999999998 10.747595264191645 1.9999999999999998
  endloop
endfacet
facet normal 0.0 0.0 1.0
  outer loop
    vertex 15.124999999999998 10.747595264191645 1.9999999999999998
    vertex 4.000000000000001 9.5 1.9999999999999998
    vertex 14.541682494941883 10.299999999999999 1.9999999999999998
  endloop
endfacet
facet normal 0.0 0.0 1.0
  outer loop
    vertex 34.0 15.0 1.9999999999999998
    vertex 16.029428580865545 11.122221848584006 1.9999999999999998
    vertex 17.0 11.25 1.9999999999999998
  endloop
endfacet
facet normal 0.0 0.0 1.0
  outer loop
    vertex 34.0 15.0 1.9999999999999998
    vertex 17.0 11.25 1.9999999999999998
    vertex 17.97057141913445 11.122221848584006 1.9999999999999998
  endloop
endfacet
facet normal 0.0 0.0 1.0
  outer loop
    vertex 34.0 15.0 1.9999999999999998
    vertex 17.97057141913445 11.122221848584006 1.9999999999999998
    vertex 18.875 10.747595264191645 1.9999999999999998
  endloop
endfacet
facet normal 0.0 0.0 1.0
  outer loop
    vertex 34.0 15.0 1.9999999999999998
    vertex 18.875 10.747595264191645 1.9999999999999998
    vertex 19.458317505058112 10.3 1.9999999999999998
  endloop
endfacet
facet normal 0.0 0.0 1.0
  outer loop
    vertex 34.0 15.0 1.9999999999999998
    vertex 19.458317505058112 10.3 1.9999999999999998
    vertex 29.999999999999996 9.5 1.9999999999999998
  endloop
endfacet
facet normal 0.0 0.0 1.0
  outer loop
    vertex 34.0 15.0 1.9999999999999998
    vertex 29.999999999999996 9.5 1.9999999999999998
    vertex 30.517638090205036 9.431851652578136 1.9999999999999998
  endloop
endfacet
facet normal 0.0 0.0 1.0
  outer loop
    vertex 34.0 15.0 1.9999999999999998
    vertex 30.517638090205036 9.431851652578136 1.9999999999999998
    vertex 30.999999999999993 9.232050807568877 1.9999999999999998
  endloop
endfacet
facet normal 0.0 0.0 1.0
  outer loop
    vertex 34.0 15.0 1.9999999999999998
    vertex 30.999999999999993 9.232050807568877 1.9999999999999998
    vertex 31.41421356237309 8.914213562373094 1.9999999999999998
  endloop
endfacet
facet normal 0.0 0.0 1.0
  outer loop
    vertex 34.0 15.0 1.9999999999999998
    vertex 31.41421356237309 8.914213562373094 1.9999999999999998
    vertex 31.732050807568875 8.5 1.9999999999999998
  endloop
endfacet
facet normal 0.0 0.0 1.0
  outer loop
    vertex 34.0 15.0 1.9999999999999998
    vertex 31.732050807568875 8.5 1.9999999999999998
    vertex 31.931851652578136 8.017638090205041 1.9999999999999998
  endloop
endfacet
facet normal 0.0 0.0 1.0
  outer loop
    vertex 34.0 15.0 1.9999999999999998
    vertex 31.931851652578136 8.017638090205041 1.9999999999999998
    vertex 31.999999999999996 7.5 1.9999999999999998
  endloop
endfacet
facet normal 0.0 0.0 1.0
  outer loop
    vertex 34.0 15.0 1.9999999999999998
    vertex 31.999999999999996 7.5 1.9999999999999998
    vertex 34.0 0.0 1.9999999999999998
  endloop
endfacet
facet normal -1.0 0.0 0.0
  outer loop
    vertex 0.0 15.0 1.9999999999999998
    vertex 0.0 0.0 0.0
    vertex 0.0 0.0 1.9999999999999998
  endloop
endfacet
facet normal -1.0 0.0 0.0
  outer loop
    vertex 0.0 0.0 0.0
    vertex 0.0 15.0 1.9999999999999998
    vertex 0.0 15.0 0.0
  endloop
endfacet
facet normal 0.0 1.0 0.0
  outer loop
    vertex 0.0 15.0 1.9999999999999998
    vertex 34.0 15.0 0.0
    vertex 0.0 15.0 0.0
  endloop
endfacet
facet normal 0.0 1.0 0.0
  outer loop
    vertex 34.0 15.0 0.0
    vertex 0.0 15.0 1.9999999999999998
    vertex 34.0 15.0 1.9999999999999998
  endloop
endfacet
facet normal 1.0 0.0 0.0
  outer loop
    vertex 34.0 15.0 0.0
    vertex 34.0 0.0 1.9999999999999998
    vertex 34.0 0.0 0.0
  endloop
endfacet
facet normal 1.0 0.0 0.0
  outer loop
    vertex 34.0 0.0 1.9999999999999998
    vertex 34.0 15.0 0.0
    vertex 34.0 15.0 1.9999999999999998
  endloop
endfacet
facet normal -0.13052619222005346 0.9914448613738102 0.0
  outer loop
    vertex 29.999999999999996 5.500000000000001 1.9999999999999998
    vertex 30.517638090205036 5.5681483474218645 0.7999999999999999
    vertex 29.999999999999996 5.500000000000001 0.7999999999999999
  endloop
endfacet
facet normal -0.25881904510252124 0.9659258262890682 0.0
  outer loop
    vertex 30.517638090205036 5.5681483474218645 0.7999999999999999
    vertex 29.999999999999996 5.500000000000001 1.9999999999999998
    vertex 30.517638090205036 5.5681483474218645 1.9999999999999998
  endloop
endfacet
facet normal -0.0 -1.0 -0.0
  outer loop
    vertex 34.0 0.0 1.9999999999999998
    vertex 0.0 0.0 0.0
    vertex 34.0 0.0 0.0
  endloop
endfacet
facet normal -0.0 -1.0 -0.0
  outer loop
    vertex 0.0 0.0 0.0
    vertex 34.0 0.0 1.9999999999999998
    vertex 0.0 0.0 1.9999999999999998
  endloop
endfacet
facet normal 0.0 0.0 1.0
  outer loop
    vertex 2.0681483474218627 6.982361909794959 0.7999999999999999
    vertex 2.0681483474218627 8.017638090205041 0.7999999999999999
    vertex 1.9999999999999991 7.5 0.7999999999999999
  endloop
endfacet
facet normal 0.0 0.0 1.0
  outer loop
    vertex 2.0681483474218627 8.017638090205041 0.7999999999999999
    vertex 2.0681483474218627 6.982361909794959 0.7999999999999999
    vertex 2.267949192431123 6.500000000000001 0.7999999999999999
  endloop
endfacet
facet normal 0.0 0.0 1.0
  outer loop
    vertex 2.0681483474218627 8.017638090205041 0.7999999999999999
    vertex 2.267949192431123 6.500000000000001 0.7999999999999999
    vertex 2.267949192431123 8.5 0.7999999999999999
  endloop
endfacet
facet normal 0.0 0.0 1.0
  outer loop
    vertex 2.267949192431123 8.5 0.7999999999999999
    vertex 2.267949192431123 6.500000000000001 0.7999999999999999
    vertex 2.585786437626908 6.085786437626906 0.7999999999999999
  endloop
endfacet
facet normal 0.0 0.0 1.0
  outer loop
    vertex 2.267949192431123 8.5 0.7999999999999999
    vertex 2.585786437626908 6.085786437626906 0.7999999999999999
    vertex 2.585786437626908 8.914213562373094 0.7999999999999999
  endloop
endfacet
facet normal 0.0 0.0 1.0
  outer loop
    vertex 2.585786437626908 8.914213562373094 0.7999999999999999
    vertex 2.585786437626908 6.085786437626906 0.7999999999999999
    vertex 3.000000000000003 5.767949192431122 0.7999999999999999
  endloop
endfacet
facet normal 0.0 0.0 1.0
  outer loop
    vertex 2.585786437626908 8.914213562373094 0.7999999999999999
    vertex 3.000000000000003 5.767949192431122 0.7999999999999999
    vertex 3.000000000000003 9.232050807568877 0.7999999999999999
  endloop
endfacet
facet normal 0.0 0.0 1.0
  outer loop
    vertex 3.000000000000003 9.232050807568877 0.7999999999999999
    vertex 3.000000000000003 5.767949192431122 0.7999999999999999
    vertex 3.48236190979496 5.568148347421864 0.7999999999999999
  endloop
endfacet
facet normal 0.0 0.0 1.0
  outer loop
    vertex 3.000000000000003 9.232050807568877 0.7999999999999999
    vertex 3.48236190979496 5.568148347421864 0.7999999999999999
    vertex 3.482361909794961 9.431851652578136 0.7999999999999999
  endloop
endfacet
facet normal 0.0 0.0 1.0
  outer loop
    vertex 3.482361909794961 9.431851652578136 0.7999999999999999
    vertex 3.48236190979496 5.568148347421864 0.7999999999999999
    vertex 3.9999999999999996 5.500000000000001 0.7999999999999999
  endloop
endfacet
facet normal 0.0 0.0 1.0
  outer loop
    vertex 3.482361909794961 9.431851652578136 0.7999999999999999
    vertex 3.9999999999999996 5.500000000000001 0.7999999999999999
    vertex 4.000000000000001 9.5 0.7999999999999999
  endloop
endfacet
facet normal 0.0 0.0 1.0
  outer loop
    vertex 4.000000000000001 9.5 0.7999999999999999
    vertex 3.9999999999999996 5.500000000000001 0.7999999999999999
    vertex 14.541682494941883 4.6999999999999975 0.7999999999999999
  endloop
endfacet
facet normal 0.0 0.0 1.0
  outer loop
    vertex 4.000000000000001 9.5 0.7999999999999999
    vertex 14.541682494941883 4.6999999999999975 0.7999999999999999
    vertex 14.541682494941883 10.299999999999999 0.7999999999999999
  endloop
endfacet
facet normal 0.0 0.0 1.0
  outer loop
    vertex 14.541682494941883 10.299999999999999 0.7999999999999999
    vertex 14.541682494941883 4.6999999999999975 0.7999999999999999
    vertex 15.125 4.252404735808355 0.7999999999999999
  endloop
endfacet
facet normal 0.0 0.0 1.0
  outer loop
    vertex 14.541682494941883 10.299999999999999 0.7999999999999999
    vertex 15.125 4.252404735808355 0.7999999999999999
    vertex 15.124999999999998 10.747595264191645 0.7999999999999999
  endloop
endfacet
facet normal 0.0 0.0 1.0
  outer loop
    vertex 15.124999999999998 10.747595264191645 0.7999999999999999
    vertex 15.125 4.252404735808355 0.7999999999999999
    vertex 16.029428580865545 11.122221848584006 0.7999999999999999
  endloop
endfacet
facet normal 0.0 0.0 1.0
  outer loop
    vertex 16.029428580865545 11.122221848584006 0.7999999999999999
    vertex 15.125 4.252404735808355 0.7999999999999999
    vertex 16.02942858086555 3.877778151415994 0.7999999999999999
  endloop
endfacet
facet normal 0.0 0.0 1.0
  outer loop
    vertex 16.029428580865545 11.122221848584006 0.7999999999999999
    vertex 16.02942858086555 3.877778151415994 0.7999999999999999
    vertex 17.0 11.25 0.7999999999999999
  endloop
endfacet
facet normal 0.0 0.0 1.0
  outer loop
    vertex 17.0 11.25 0.7999999999999999
    vertex 16.02942858086555 3.877778151415994 0.7999999999999999
    vertex 17.0 3.75 0.7999999999999999
  endloop
endfacet
facet normal 0.0 0.0 1.0
  outer loop
    vertex 17.0 11.25 0.7999999999999999
    vertex 17.0 3.75 0.7999999999999999
    vertex 17.970571419134455 3.877778151415995 0.7999999999999999
  endloop
endfacet
facet normal 0.0 0.0 1.0
  outer loop
    vertex 17.0 11.25 0.7999999999999999
    vertex 17.970571419134455 3.877778151415995 0.7999999999999999
    vertex 17.97057141913445 11.122221848584006 0.7999999999999999
  endloop
endfacet
facet normal 0.0 0.0 1.0
  outer loop
    vertex 17.97057141913445 11.122221848584006 0.7999999999999999
    vertex 17.970571419134455 3.877778151415995 0.7999999999999999
    vertex 18.875 10.747595264191645 0.7999999999999999
  endloop
endfacet
facet normal 0.0 0.0 1.0
  outer loop
    vertex 18.875 10.747595264191645 0.7999999999999999
    vertex 17.970571419134455 3.877778151415995 0.7999999999999999
    vertex 18.875000000000004 4.252404735808356 0.7999999999999999
  endloop
endfacet
facet normal 0.0 0.0 1.0
  outer loop
    vertex 18.875 10.747595264191645 0.7999999999999999
    vertex 18.875000000000004 4.252404735808356 0.7999999999999999
    vertex 19.458317505058112 10.3 0.7999999999999999
  endloop
endfacet
facet normal 0.0 0.0 1.0
  outer loop
    vertex 19.458317505058112 10.3 0.7999999999999999
    vertex 18.875000000000004 4.252404735808356 0.7999999999999999
    vertex 19.458317505058112 4.699999999999999 0.7999999999999999
  endloop
endfacet
facet normal 0.0 0.0 1.0
  outer loop
    vertex 19.458317505058112 10.3 0.7999999999999999
    vertex 19.458317505058112 4.699999999999999 0.7999999999999999
    vertex 29.999999999999996 5.500000000000001 0.7999999999999999
  endloop
endfacet
facet normal 0.0 0.0 1.0
  outer loop
    vertex 19.458317505058112 10.3 0.7999999999999999
    vertex 29.999999999999996 5.500000000000001 0.7999999999999999
    vertex 29.999999999999996 9.5 0.7999999999999999
  endloop
endfacet
facet normal 0.0 0.0 1.0
  outer loop
    vertex 29.999999999999996 9.5 0.7999999999999999
    vertex 29.999999999999996 5.500000000000001 0.7999999999999999
    vertex 30.517638090205036 5.5681483474218645 0.7999999999999999
  endloop
endfacet
facet normal 0.0 0.0 1.0
  outer loop
    vertex 29.999999999999996 9.5 0.7999999999999999
    vertex 30.517638090205036 5.5681483474218645 0.7999999999999999
    vertex 30.517638090205036 9.431851652578136 0.7999999999999999
  endloop
endfacet
facet normal 0.0 0.0 1.0
  outer loop
    vertex 30.517638090205036 9.431851652578136 0.7999999999999999
    vertex 30.517638090205036 5.5681483474218645 0.7999999999999999
    vertex 30.999999999999993 5.767949192431123 0.7999999999999999
  endloop
endfacet
facet normal 0.0 0.0 1.0
  outer loop
    vertex 30.517638090205036 9.431851652578136 0.7999999999999999
    vertex 30.999999999999993 5.767949192431123 0.7999999999999999
    vertex 30.999999999999993 9.232050807568877 0.7999999999999999
  endloop
endfacet
facet normal 0.0 0.0 1.0
  outer loop
    vertex 30.999999999999993 9.232050807568877 0.7999999999999999
    vertex 30.999999999999993 5.767949192431123 0.7999999999999999
    vertex 31.41421356237309 6.085786437626906 0.7999999999999999
  endloop
endfacet
facet normal 0.0 0.0 1.0
  outer loop
    vertex 30.999999999999993 9.232050807568877 0.7999999999999999
    vertex 31.41421356237309 6.085786437626906 0.7999999999999999
    vertex 31.41421356237309 8.914213562373094 0.7999999999999999
  endloop
endfacet
facet normal 0.0 0.0 1.0
  outer loop
    vertex 31.41421356237309 8.914213562373094 0.7999999999999999
    vertex 31.41421356237309 6.085786437626906 0.7999999999999999
    vertex 31.732050807568875 6.500000000000001 0.7999999999999999
  endloop
endfacet
facet normal 0.0 0.0 1.0
  outer loop
    vertex 31.41421356237309 8.914213562373094 0.7999999999999999
    vertex 31.732050807568875 6.500000000000001 0.7999999999999999
    vertex 31.732050807568875 8.5 0.7999999999999999
  endloop
endfacet
facet normal 0.0 0.0 1.0
  outer loop
    vertex 31.732050807568875 8.5 0.7999999999999999
    vertex 31.732050807568875 6.500000000000001 0.7999999999999999
    vertex 31.931851652578136 6.982361909794959 0.7999999999999999
  endloop
endfacet
facet normal 0.0 0.0 1.0
  outer loop
    vertex 31.732050807568875 8.5 0.7999999999999999
    vertex 31.931851652578136 6.982361909794959 0.7999999999999999
    vertex 31.931851652578136 8.017638090205041 0.7999999999999999
  endloop
endfacet
facet normal 0.0 0.0 1.0
  outer loop
    vertex 31.931851652578136 8.017638090205041 0.7999999999999999
    vertex 31.931851652578136 6.982361909794959 0.7999999999999999
    vertex 31.999999999999996 7.5 0.7999999999999999
  endloop
endfacet
facet normal -0.9659258262890681 0.25881904510252174 0.0
  outer loop
    vertex 31.931851652578136 6.982361909794959 1.9999999999999998
    vertex 31.732050807568875 6.500000000000001 0.7999999999999999
    vertex 31.732050807568875 6.500000000000001 1.9999999999999998
  endloop
endfacet
facet normal -0.8660254037844369 0.500000000000003 0.0
  outer loop
    vertex 31.732050807568875 6.500000000000001 0.7999999999999999
    vertex 31.931851652578136 6.982361909794959 1.9999999999999998
    vertex 31.931851652578136 6.982361909794959 0.7999999999999999
  endloop
endfacet
facet normal -0.07567162397091957 0.9971327922225826 0.0
  outer loop
    vertex 19.458317505058112 4.699999999999999 1.9999999999999998
    vertex 29.999999999999996 5.500000000000001 0.7999999999999999
    vertex 19.458317505058112 4.699999999999999 0.7999999999999999
  endloop
endfacet
facet normal -0.07567162397091957 0.9971327922225826 0.0
  outer loop
    vertex 29.999999999999996 5.500000000000001 0.7999999999999999
    vertex 19.458317505058112 4.699999999999999 1.9999999999999998
    vertex 29.999999999999996 5.500000000000001 1.9999999999999998
  endloop
endfacet
facet normal -0.25881904510252124 0.9659258262890682 0.0
  outer loop
    vertex 30.517638090205036 5.5681483474218645 1.9999999999999998
    vertex 30.999999999999993 5.767949192431123 0.7999999999999999
    vertex 30.517638090205036 5.5681483474218645 0.7999999999999999
  endloop
endfacet
facet normal -0.5 0.8660254037844387 0.0
  outer loop
    vertex 30.999999999999993 5.767949192431123 0.7999999999999999
    vertex 30.517638090205036 5.5681483474218645 1.9999999999999998
    vertex 30.999999999999993 5.767949192431123 1.9999999999999998
  endloop
endfacet
facet normal -0.5 0.8660254037844387 0.0
  outer loop
    vertex 30.999999999999993 5.767949192431123 1.9999999999999998
    vertex 31.41421356237309 6.085786437626906 0.7999999999999999
    vertex 30.999999999999993 5.767949192431123 0.7999999999999999
  endloop
endfacet
facet normal -0.7071067811865461 0.707106781186549 0.0
  outer loop
    vertex 31.41421356237309 6.085786437626906 0.7999999999999999
    vertex 30.999999999999993 5.767949192431123 1.9999999999999998
    vertex 31.41421356237309 6.085786437626906 1.9999999999999998
  endloop
endfacet
facet normal -0.5000000000000001 0.8660254037844386 0.0
  outer loop
    vertex 18.875000000000004 4.252404735808356 1.9999999999999998
    vertex 19.458317505058112 4.699999999999999 0.7999999999999999
    vertex 18.875000000000004 4.252404735808356 0.7999999999999999
  endloop
endfacet
facet normal -0.6087614290087209 0.7933533402912349 0.0
  outer loop
    vertex 19.458317505058112 4.699999999999999 0.7999999999999999
    vertex 18.875000000000004 4.252404735808356 1.9999999999999998
    vertex 19.458317505058112 4.699999999999999 1.9999999999999998
  endloop
endfacet
facet normal -0.8660254037844369 0.500000000000003 0.0
  outer loop
    vertex 31.732050807568875 6.500000000000001 1.9999999999999998
    vertex 31.41421356237309 6.085786437626906 0.7999999999999999
    vertex 31.41421356237309 6.085786437626906 1.9999999999999998
  endloop
endfacet
facet normal -0.7071067811865461 0.707106781186549 0.0
  outer loop
    vertex 31.41421356237309 6.085786437626906 0.7999999999999999
    vertex 31.732050807568875 6.500000000000001 1.9999999999999998
    vertex 31.732050807568875 6.500000000000001 0.7999999999999999
  endloop
endfacet
facet normal -1.0 0.0 0.0
  outer loop
    vertex 31.999999999999996 7.5 1.9999999999999998
    vertex 31.931851652578136 6.982361909794959 0.7999999999999999
    vertex 31.931851652578136 6.982361909794959 1.9999999999999998
  endloop
endfacet
facet normal -0.9659258262890681 0.25881904510252174 0.0
  outer loop
    vertex 31.931851652578136 6.982361909794959 0.7999999999999999
    vertex 31.999999999999996 7.5 1.9999999999999998
    vertex 31.999999999999996 7.5 0.7999999999999999
  endloop
endfacet
facet normal -0.9659258262890681 -0.25881904510252174 0.0
  outer loop
    vertex 31.931851652578136 8.017638090205041 1.9999999999999998
    vertex 31.999999999999996 7.5 0.7999999999999999
    vertex 31.999999999999996 7.5 1.9999999999999998
  endloop
endfacet
facet normal -1.0 0.0 0.0
  outer loop
    vertex 31.999999999999996 7.5 0.7999999999999999
    vertex 31.931851652578136 8.017638090205041 1.9999999999999998
    vertex 31.931851652578136 8.017638090205041 0.7999999999999999
  endloop
endfacet
facet normal -0.8660254037844369 -0.500000000000003 0.0
  outer loop
    vertex 31.732050807568875 8.5 1.9999999999999998
    vertex 31.931851652578136 8.017638090205041 0.7999999999999999
    vertex 31.931851652578136 8.017638090205041 1.9999999999999998
  endloop
endfacet
facet normal -0.9659258262890681 -0.25881904510252174 0.0
  outer loop
    vertex 31.931851652578136 8.017638090205041 0.7999999999999999
    vertex 31.732050807568875 8.5 1.9999999999999998
    vertex 31.732050807568875 8.5 0.7999999999999999
  endloop
endfacet
facet normal -0.7071067811865461 -0.707106781186549 0.0
  outer loop
    vertex 31.41421356237309 8.914213562373094 1.9999999999999998
    vertex 31.732050807568875 8.5 0.7999999999999999
    vertex 31.732050807568875 8.5 1.9999999999999998
  endloop
endfacet
facet normal -0.8660254037844369 -0.500000000000003 0.0
  outer loop
    vertex 31.732050807568875 8.5 0.7999999999999999
    vertex 31.41421356237309 8.914213562373094 1.9999999999999998
    vertex 31.41421356237309 8.914213562373094 0.7999999999999999
  endloop
endfacet
facet normal -0.7071067811865461 -0.707106781186549 0.0
  outer loop
    vertex 31.41421356237309 8.914213562373094 1.9999999999999998
    vertex 30.999999999999993 9.232050807568877 0.7999999999999999
    vertex 31.41421356237309 8.914213562373094 0.7999999999999999
  endloop
endfacet
facet normal -0.5 -0.8660254037844387 0.0
  outer loop
    vertex 30.999999999999993 9.232050807568877 0.7999999999999999
    vertex 31.41421356237309 8.914213562373094 1.9999999999999998
    vertex 30.999999999999993 9.232050807568877 1.9999999999999998
  endloop
endfacet
facet normal -0.5 -0.8660254037844387 0.0
  outer loop
    vertex 30.999999999999993 9.232050807568877 1.9999999999999998
    vertex 30.517638090205036 9.431851652578136 0.7999999999999999
    vertex 30.999999999999993 9.232050807568877 0.7999999999999999
  endloop
endfacet
facet normal -0.25881904510252063 -0.9659258262890684 0.0
  outer loop
    vertex 30.517638090205036 9.431851652578136 0.7999999999999999
    vertex 30.999999999999993 9.232050807568877 1.9999999999999998
    vertex 30.517638090205036 9.431851652578136 1.9999999999999998
  endloop
endfacet
facet normal -0.6087614290087209 -0.793353340291235 -0.0
  outer loop
    vertex 19.458317505058112 10.3 1.9999999999999998
    vertex 18.875 10.747595264191645 0.7999999999999999
    vertex 19.458317505058112 10.3 0.7999999999999999
  endloop
endfacet
facet normal -0.49999999999999994 -0.8660254037844388 0.0
  outer loop
    vertex 18.875 10.747595264191645 0.7999999999999999
    vertex 19.458317505058112 10.3 1.9999999999999998
    vertex 18.875 10.747595264191645 1.9999999999999998
  endloop
endfacet
facet normal -0.25881904510252063 -0.9659258262890684 0.0
  outer loop
    vertex 30.517638090205036 9.431851652578136 1.9999999999999998
    vertex 29.999999999999996 9.5 0.7999999999999999
    vertex 30.517638090205036 9.431851652578136 0.7999999999999999
  endloop
endfacet
facet normal -0.13052619222005216 -0.9914448613738104 -0.0
  outer loop
    vertex 29.999999999999996 9.5 0.7999999999999999
    vertex 30.517638090205036 9.431851652578136 1.9999999999999998
    vertex 29.999999999999996 9.5 1.9999999999999998
  endloop
endfacet
facet normal -0.07567162397091957 -0.9971327922225826 -0.0
  outer loop
    vertex 29.999999999999996 9.5 1.9999999999999998
    vertex 19.458317505058112 10.3 0.7999999999999999
    vertex 29.999999999999996 9.5 0.7999999999999999
  endloop
endfacet
facet normal -0.07567162397091957 -0.9971327922225826 -0.0
  outer loop
    vertex 19.458317505058112 10.3 0.7999999999999999
    vertex 29.999999999999996 9.5 1.9999999999999998
    vertex 19.458317505058112 10.3 1.9999999999999998
  endloop
endfacet
facet normal -0.49999999999999994 -0.8660254037844388 0.0
  outer loop
    vertex 18.875 10.747595264191645 1.9999999999999998
    vertex 17.97057141913445 11.122221848584006 0.7999999999999999
    vertex 18.875 10.747595264191645 0.7999999999999999
  endloop
endfacet
facet normal -0.25881904510252063 -0.9659258262890683 0.0
  outer loop
    vertex 17.97057141913445 11.122221848584006 0.7999999999999999
    vertex 18.875 10.747595264191645 1.9999999999999998
    vertex 17.97057141913445 11.122221848584006 1.9999999999999998
  endloop
endfacet
facet normal -0.25881904510252063 -0.9659258262890683 0.0
  outer loop
    vertex 17.97057141913445 11.122221848584006 1.9999999999999998
    vertex 17.0 11.25 0.7999999999999999
    vertex 17.97057141913445 11.122221848584006 0.7999999999999999
  endloop
endfacet
facet normal -1.9604441770423192e-16 -1.0 0.0
  outer loop
    vertex 17.0 11.25 0.7999999999999999
    vertex 17.97057141913445 11.122221848584006 1.9999999999999998
    vertex 17.0 11.25 1.9999999999999998
  endloop
endfacet
facet normal -1.9604441770423192e-16 -1.0 0.0
  outer loop
    vertex 17.0 11.25 1.9999999999999998
    vertex 16.029428580865545 11.122221848584006 0.7999999999999999
    vertex 17.0 11.25 0.7999999999999999
  endloop
endfacet
facet normal 0.25881904510252046 -0.9659258262890685 0.0
  outer loop
    vertex 16.029428580865545 11.122221848584006 0.7999999999999999
    vertex 17.0 11.25 1.9999999999999998
    vertex 16.029428580865545 11.122221848584006 1.9999999999999998
  endloop
endfacet
facet normal 0.25881904510252046 -0.9659258262890685 0.0
  outer loop
    vertex 16.029428580865545 11.122221848584006 1.9999999999999998
    vertex 15.124999999999998 10.747595264191645 0.7999999999999999
    vertex 16.029428580865545 11.122221848584006 0.7999999999999999
  endloop
endfacet
facet normal 0.5000000000000006 -0.8660254037844384 0.0
  outer loop
    vertex 15.124999999999998 10.747595264191645 0.7999999999999999
    vertex 16.029428580865545 11.122221848584006 1.9999999999999998
    vertex 15.124999999999998 10.747595264191645 1.9999999999999998
  endloop
endfacet
facet normal 0.5000000000000006 -0.8660254037844384 0.0
  outer loop
    vertex 15.124999999999998 10.747595264191645 1.9999999999999998
    vertex 14.541682494941883 10.299999999999999 0.7999999999999999
    vertex 15.124999999999998 10.747595264191645 0.7999999999999999
  endloop
endfacet
facet normal 0.608761429008722 -0.793353340291234 0.0
  outer loop
    vertex 14.541682494941883 10.299999999999999 0.7999999999999999
    vertex 15.124999999999998 10.747595264191645 1.9999999999999998
    vertex 14.541682494941883 10.299999999999999 1.9999999999999998
  endloop
endfacet
facet normal 0.07567162397091944 -0.9971327922225826 0.0
  outer loop
    vertex 14.541682494941883 10.299999999999999 1.9999999999999998
    vertex 4.000000000000001 9.5 0.7999999999999999
    vertex 14.541682494941883 10.299999999999999 0.7999999999999999
  endloop
endfacet
facet normal 0.07567162397091944 -0.9971327922225826 0.0
  outer loop
    vertex 4.000000000000001 9.5 0.7999999999999999
    vertex 14.541682494941883 10.299999999999999 1.9999999999999998
    vertex 4.000000000000001 9.5 1.9999999999999998
  endloop
endfacet
facet normal 0.13052619222005216 -0.9914448613738104 0.0
  outer loop
    vertex 4.000000000000001 9.5 1.9999999999999998
    vertex 3.482361909794961 9.431851652578136 0.7999999999999999
    vertex 4.000000000000001 9.5 0.7999999999999999
  endloop
endfacet
facet normal 0.13052619222005216 -0.9914448613738104 0.0
  outer loop
    vertex 3.482361909794961 9.431851652578136 0.7999999999999999
    vertex 4.000000000000001 9.5 1.9999999999999998
    vertex 3.482361909794961 9.431851652578136 1.9999999999999998
  endloop
endfacet
facet normal 0.38268343236508895 -0.9238795325112871 0.0
  outer loop
    vertex 3.482361909794961 9.431851652578136 1.9999999999999998
    vertex 3.000000000000003 9.232050807568877 0.7999999999999999
    vertex 3.482361909794961 9.431851652578136 0.7999999999999999
  endloop
endfacet
facet normal 0.38268343236508895 -0.9238795325112871 0.0
  outer loop
    vertex 3.000000000000003 9.232050807568877 0.7999999999999999
    vertex 3.482361909794961 9.431851652578136 1.9999999999999998
    vertex 3.000000000000003 9.232050807568877 1.9999999999999998
  endloop
endfacet
facet normal 0.6087614290087213 -0.7933533402912347 0.0
  outer loop
    vertex 3.000000000000003 9.232050807568877 1.9999999999999998
    vertex 2.585786437626908 8.914213562373094 0.7999999999999999
    vertex 3.000000000000003 9.232050807568877 0.7999999999999999
  endloop
endfacet
facet normal 0.6087614290087213 -0.7933533402912347 0.0
  outer loop
    vertex 2.585786437626908 8.914213562373094 0.7999999999999999
    vertex 3.000000000000003 9.232050807568877 1.9999999999999998
    vertex 2.585786437626908 8.914213562373094 1.9999999999999998
  endloop
endfacet
facet normal 0.7933533402912322 -0.6087614290087248 0.0
  outer loop
    vertex 2.585786437626908 8.914213562373094 0.7999999999999999
    vertex 2.267949192431123 8.5 1.9999999999999998
    vertex 2.267949192431123 8.5 0.7999999999999999
  endloop
endfacet
facet normal 0.7933533402912322 -0.6087614290087248 0.0
  outer loop
    vertex 2.267949192431123 8.5 1.9999999999999998
    vertex 2.585786437626908 8.914213562373094 0.7999999999999999
    vertex 2.585786437626908 8.914213562373094 1.9999999999999998
  endloop
endfacet
facet normal 0.9238795325112861 -0.3826834323650913 0.0
  outer loop
    vertex 2.267949192431123 8.5 0.7999999999999999
    vertex 2.0681483474218627 8.017638090205041 1.9999999999999998
    vertex 2.0681483474218627 8.017638090205041 0.7999999999999999
  endloop
endfacet
facet normal 0.9238795325112861 -0.3826834323650913 0.0
  outer loop
    vertex 2.0681483474218627 8.017638090205041 1.9999999999999998
    vertex 2.267949192431123 8.5 0.7999999999999999
    vertex 2.267949192431123 8.5 1.9999999999999998
  endloop
endfacet
facet normal 0.9914448613738104 -0.1305261922200518 0.0
  outer loop
    vertex 2.0681483474218627 8.017638090205041 0.7999999999999999
    vertex 1.9999999999999991 7.5 1.9999999999999998
    vertex 1.9999999999999991 7.5 0.7999999999999999
  endloop
endfacet
facet normal 0.9914448613738104 -0.1305261922200518 0.0
  outer loop
    vertex 1.9999999999999991 7.5 1.9999999999999998
    vertex 2.0681483474218627 8.017638090205041 0.7999999999999999
    vertex 2.0681483474218627 8.017638090205041 1.9999999999999998
  endloop
endfacet
facet normal 0.9914448613738104 0.1305261922200518 0.0
  outer loop
    vertex 1.9999999999999991 7.5 0.7999999999999999
    vertex 2.0681483474218627 6.982361909794959 1.9999999999999998
    vertex 2.0681483474218627 6.982361909794959 0.7999999999999999
  endloop
endfacet
facet normal 0.9914448613738104 0.1305261922200518 0.0
  outer loop
    vertex 2.0681483474218627 6.982361909794959 1.9999999999999998
    vertex 1.9999999999999991 7.5 0.7999999999999999
    vertex 1.9999999999999991 7.5 1.9999999999999998
  endloop
endfacet
facet normal 0.9238795325112861 0.3826834323650913 0.0
  outer loop
    vertex 2.0681483474218627 6.982361909794959 0.7999999999999999
    vertex 2.267949192431123 6.500000000000001 1.9999999999999998
    vertex 2.267949192431123 6.500000000000001 0.7999999999999999
  endloop
endfacet
facet normal 0.9238795325112861 0.3826834323650913 0.0
  outer loop
    vertex 2.267949192431123 6.500000000000001 1.9999999999999998
    vertex 2.0681483474218627 6.982361909794959 0.7999999999999999
    vertex 2.0681483474218627 6.982361909794959 1.9999999999999998
  endloop
endfacet
facet normal 0.7933533402912322 0.6087614290087248 0.0
  outer loop
    vertex 2.267949192431123 6.500000000000001 0.7999999999999999
    vertex 2.585786437626908 6.085786437626906 1.9999999999999998
    vertex 2.585786437626908 6.085786437626906 0.7999999999999999
  endloop
endfacet
facet normal 0.7933533402912322 0.6087614290087248 0.0
  outer loop
    vertex 2.585786437626908 6.085786437626906 1.9999999999999998
    vertex 2.267949192431123 6.500000000000001 0.7999999999999999
    vertex 2.267949192431123 6.500000000000001 1.9999999999999998
  endloop
endfacet
facet normal 0.6087614290087221 0.7933533402912339 0.0
  outer loop
    vertex 2.585786437626908 6.085786437626906 1.9999999999999998
    vertex 3.000000000000003 5.767949192431122 0.7999999999999999
    vertex 2.585786437626908 6.085786437626906 0.7999999999999999
  endloop
endfacet
facet normal 0.6087614290087221 0.7933533402912339 0.0
  outer loop
    vertex 3.000000000000003 5.767949192431122 0.7999999999999999
    vertex 2.585786437626908 6.085786437626906 1.9999999999999998
    vertex 3.000000000000003 5.767949192431122 1.9999999999999998
  endloop
endfacet
facet normal 0.38268343236508995 0.9238795325112867 0.0
  outer loop
    vertex 3.000000000000003 5.767949192431122 1.9999999999999998
    vertex 3.48236190979496 5.568148347421864 0.7999999999999999
    vertex 3.000000000000003 5.767949192431122 0.7999999999999999
  endloop
endfacet
facet normal 0.38268343236508995 0.9238795325112867 0.0
  outer loop
    vertex 3.48236190979496 5.568148347421864 0.7999999999999999
    vertex 3.000000000000003 5.767949192431122 1.9999999999999998
    vertex 3.48236190979496 5.568148347421864 1.9999999999999998
  endloop
endfacet
facet normal 0.13052619222005216 0.9914448613738104 0.0
  outer loop
    vertex 3.48236190979496 5.568148347421864 1.9999999999999998
    vertex 3.9999999999999996 5.500000000000001 0.7999999999999999
    vertex 3.48236190979496 5.568148347421864 0.7999999999999999
  endloop
endfacet
facet normal 0.13052619222005216 0.9914448613738104 0.0
  outer loop
    vertex 3.9999999999999996 5.500000000000001 0.7999999999999999
    vertex 3.48236190979496 5.568148347421864 1.9999999999999998
    vertex 3.9999999999999996 5.500000000000001 1.9999999999999998
  endloop
endfacet
facet normal 0.07567162397091969 0.9971327922225824 0.0
  outer loop
    vertex 3.9999999999999996 5.500000000000001 1.9999999999999998
    vertex 14.541682494941883 4.6999999999999975 0.7999999999999999
    vertex 3.9999999999999996 5.500000000000001 0.7999999999999999
  endloop
endfacet
facet normal 0.07567162397091969 0.9971327922225824 0.0
  outer loop
    vertex 14.541682494941883 4.6999999999999975 0.7999999999999999
    vertex 3.9999999999999996 5.500000000000001 1.9999999999999998
    vertex 14.541682494941883 4.6999999999999975 1.9999999999999998
  endloop
endfacet
facet normal 0.6087614290087172 0.7933533402912379 0.0
  outer loop
    vertex 14.541682494941883 4.6999999999999975 1.9999999999999998
    vertex 15.125 4.252404735808355 0.7999999999999999
    vertex 14.541682494941883 4.6999999999999975 0.7999999999999999
  endloop
endfacet
facet normal 0.49999999999999784 0.8660254037844399 0.0
  outer loop
    vertex 15.125 4.252404735808355 0.7999999999999999
    vertex 14.541682494941883 4.6999999999999975 1.9999999999999998
    vertex 15.125 4.252404735808355 1.9999999999999998
  endloop
endfacet
facet normal 0.49999999999999784 0.8660254037844399 0.0
  outer loop
    vertex 15.125 4.252404735808355 1.9999999999999998
    vertex 16.02942858086555 3.877778151415994 0.7999999999999999
    vertex 15.125 4.252404735808355 0.7999999999999999
  endloop
endfacet
facet normal 0.25881904510252063 0.9659258262890683 0.0
  outer loop
    vertex 16.02942858086555 3.877778151415994 0.7999999999999999
    vertex 15.125 4.252404735808355 1.9999999999999998
    vertex 16.02942858086555 3.877778151415994 1.9999999999999998
  endloop
endfacet
facet normal 0.25881904510252063 0.9659258262890683 0.0
  outer loop
    vertex 16.02942858086555 3.877778151415994 1.9999999999999998
    vertex 17.0 3.75 0.7999999999999999
    vertex 16.02942858086555 3.877778151415994 0.7999999999999999
  endloop
endfacet
facet normal -1.514888682259974e-16 1.0 0.0
  outer loop
    vertex 17.0 3.75 0.7999999999999999
    vertex 16.02942858086555 3.877778151415994 1.9999999999999998
    vertex 17.0 3.75 1.9999999999999998
  endloop
endfacet
facet normal -1.514888682259974e-16 1.0 0.0
  outer loop
    vertex 17.0 3.75 1.9999999999999998
    vertex 17.970571419134455 3.877778151415995 0.7999999999999999
    vertex 17.0 3.75 0.7999999999999999
  endloop
endfacet
facet normal -0.2588190451025211 0.9659258262890682 0.0
  outer loop
    vertex 17.970571419134455 3.877778151415995 0.7999999999999999
    vertex 17.0 3.75 1.9999999999999998
    vertex 17.970571419134455 3.877778151415995 1.9999999999999998
  endloop
endfacet
facet normal -0.2588190451025211 0.9659258262890682 0.0
  outer loop
    vertex 17.970571419134455 3.877778151415995 1.9999999999999998
    vertex 18.875000000000004 4.252404735808356 0.7999999999999999
    vertex 17.970571419134455 3.877778151415995 0.7999999999999999
  endloop
endfacet
facet normal -0.5000000000000001 0.8660254037844386 0.0
  outer loop
    vertex 18.875000000000004 4.252404735808356 0.7999999999999999
    vertex 17.970571419134455 3.877778151415995 1.9999999999999998
    vertex 18.875000000000004 4.252404735808356 1.9999999999999998
  endloop
endfacet
endsolid arm with horn
