solid frame-all-components
facet normal 0.21586847205670576 0.0 -0.9764224509769854
  outer loop
    vertex 24.43173694411341 30.5 30.047155098046026
    vertex 23.911592411725213 28.499999999999993 30.0019549308548
    vertex 23.911592411725213 30.5 30.0019549308548
  endloop
endfacet
facet normal -0.044203794137394184 0.0 -0.9990225345725986
  outer loop
    vertex 23.911592411725213 28.499999999999993 30.0019549308548
    vertex 24.43173694411341 30.5 30.047155098046026
    vertex 24.43173694411341 28.499999999999993 30.047155098046026
  endloop
endfacet
facet normal 2.4585158133067696e-16 1.0 7.815149605213559e-16
  outer loop
    vertex 0.0 27.500000000000007 37.6
    vertex 36.0 27.499999999999996 40.0
    vertex 36.0 27.499999999999996 36.599999999999994
  endloop
endfacet
facet normal 2.4585158133067696e-16 1.0 7.815149605213559e-16
  outer loop
    vertex 36.0 27.499999999999996 40.0
    vertex 0.0 27.500000000000007 37.6
    vertex 0.0 27.499999999999996 40.0
  endloop
endfacet
facet normal -0.044203794137394184 0.0 -0.9990225345725986
  outer loop
    vertex 23.911592411725213 30.5 30.0019549308548
    vertex 23.397472710377492 28.499999999999993 30.092918233200223
    vertex 23.397472710377492 30.5 30.092918233200223
  endloop
endfacet
facet normal -0.3012636448112561 0.0 -0.9535408833998873
  outer loop
    vertex 23.397472710377492 28.499999999999993 30.092918233200223
    vertex 23.911592411725213 30.5 30.0019549308548
    vertex 23.911592411725213 28.499999999999993 30.0019549308548
  endloop
endfacet
facet normal 0.0 -1.0 0.0
  outer loop
    vertex 36.0 -22.0 40.0
    vertex 0.0 -22.0 1.9999999999999996
    vertex 36.0 -22.0 1.9999999999999996
  endloop
endfacet
facet normal 0.0 -1.0 0.0
  outer loop
    vertex 0.0 -22.0 1.9999999999999996
    vertex 36.0 -22.0 40.0
    vertex 0.0 -22.0 40.0
  endloop
endfacet
facet normal -0.3012636448112561 0.0 -0.9535408833998873
  outer loop
    vertex 23.397472710377492 30.5 30.092918233200223
    vertex 22.92441424809412 28.499999999999993 30.31384600635142
    vertex 22.92441424809412 30.5 30.31384600635142
  endloop
endfacet
facet normal -0.5377928759529409 0.0 -0.8430769968242906
  outer loop
    vertex 22.92441424809412 28.499999999999993 30.31384600635142
    vertex 23.397472710377492 30.5 30.092918233200223
    vertex 23.397472710377492 28.499999999999993 30.092918233200223
  endloop
endfacet
facet normal -0.5377928759529409 0.0 -0.8430769968242906
  outer loop
    vertex 22.92441424809412 30.5 30.31384600635142
    vertex 22.524655177313637 28.499999999999993 30.649682387668538
    vertex 22.524655177313637 30.5 30.649682387668538
  endloop
endfacet
facet normal -0.7376724113431828 0.0 -0.6751588061657303
  outer loop
    vertex 22.524655177313637 28.499999999999993 30.649682387668538
    vertex 22.92441424809412 30.5 30.31384600635142
    vertex 22.92441424809412 28.499999999999993 30.31384600635142
  endloop
endfacet
facet normal -0.887280790961686 0.0 -0.4612296586196566
  outer loop
    vertex 22.22543841807663 30.5 31.077540682760684
    vertex 22.524655177313637 28.499999999999993 30.649682387668538
    vertex 22.22543841807663 28.499999999999993 31.077540682760684
  endloop
endfacet
facet normal -0.7376724113431828 0.0 -0.6751588061657303
  outer loop
    vertex 22.524655177313637 28.499999999999993 30.649682387668538
    vertex 22.22543841807663 30.5 31.077540682760684
    vertex 22.524655177313637 30.5 30.649682387668538
  endloop
endfacet
facet normal -0.9764224509769854 0.0 -0.21586847205670598
  outer loop
    vertex 22.04715509804603 30.5 31.56826305588659
    vertex 22.22543841807663 28.499999999999993 31.077540682760684
    vertex 22.04715509804603 28.499999999999993 31.56826305588659
  endloop
endfacet
facet normal -0.887280790961686 0.0 -0.4612296586196566
  outer loop
    vertex 22.22543841807663 28.499999999999993 31.077540682760684
    vertex 22.04715509804603 30.5 31.56826305588659
    vertex 22.22543841807663 30.5 31.077540682760684
  endloop
endfacet
facet normal -0.9990225345725986 0.0 0.044203794137393955
  outer loop
    vertex 22.001954930854804 30.5 32.08840758827479
    vertex 22.04715509804603 28.499999999999993 31.56826305588659
    vertex 22.001954930854804 28.499999999999993 32.08840758827479
  endloop
endfacet
facet normal -0.9764224509769854 0.0 -0.21586847205670598
  outer loop
    vertex 22.04715509804603 28.499999999999993 31.56826305588659
    vertex 22.001954930854804 30.5 32.08840758827479
    vertex 22.04715509804603 30.5 31.56826305588659
  endloop
endfacet
facet normal 0.0 0.0 -1.0
  outer loop
    vertex 36.0 0.0 1.9999999999999996
    vertex 0.0 -22.0 1.9999999999999996
    vertex 0.0 0.0 1.9999999999999996
  endloop
endfacet
facet normal 0.0 0.0 -1.0
  outer loop
    vertex 0.0 -22.0 1.9999999999999996
    vertex 36.0 0.0 1.9999999999999996
    vertex 36.0 -22.0 1.9999999999999996
  endloop
endfacet
facet normal 0.0 0.0 -1.0
  outer loop
    vertex 36.0 -22.0 40.0
    vertex 0.0 -25.0 40.0
    vertex 0.0 -22.0 40.0
  endloop
endfacet
facet normal 0.0 0.0 -1.0
  outer loop
    vertex 0.0 -25.0 40.0
    vertex 36.0 -22.0 40.0
    vertex 36.0 -25.0 40.0
  endloop
endfacet
facet normal -0.9535408833998879 0.0 0.3012636448112548
  outer loop
    vertex 22.092918233200226 30.5 32.60252728962251
    vertex 22.001954930854804 28.499999999999993 32.08840758827479
    vertex 22.092918233200226 28.499999999999993 32.60252728962251
  endloop
endfacet
facet normal -0.9990225345725986 0.0 0.044203794137393955
  outer loop
    vertex 22.001954930854804 28.499999999999993 32.08840758827479
    vertex 22.092918233200226 30.5 32.60252728962251
    vertex 22.001954930854804 30.5 32.08840758827479
  endloop
endfacet
facet normal -0.843076996824292 0.0 0.5377928759529387
  outer loop
    vertex 22.31384600635142 30.5 33.07558575190588
    vertex 22.092918233200226 28.499999999999993 32.60252728962251
    vertex 22.31384600635142 28.499999999999993 33.07558575190588
  endloop
endfacet
facet normal -0.9535408833998879 0.0 0.3012636448112548
  outer loop
    vertex 22.092918233200226 28.499999999999993 32.60252728962251
    vertex 22.31384600635142 30.5 33.07558575190588
    vertex 22.092918233200226 30.5 32.60252728962251
  endloop
endfacet
facet normal -0.6751588061657308 0.0 0.7376724113431824
  outer loop
    vertex 22.64968238766854 30.5 33.47534482268637
    vertex 22.31384600635142 28.499999999999993 33.07558575190588
    vertex 22.64968238766854 28.499999999999993 33.47534482268637
  endloop
endfacet
facet normal -0.843076996824292 0.0 0.5377928759529387
  outer loop
    vertex 22.31384600635142 28.499999999999993 33.07558575190588
    vertex 22.64968238766854 30.5 33.47534482268637
    vertex 22.31384600635142 30.5 33.07558575190588
  endloop
endfacet
facet normal -0.4612296586196559 0.0 0.8872807909616864
  outer loop
    vertex 23.077540682760684 28.499999999999993 33.774561581923365
    vertex 22.64968238766854 30.5 33.47534482268637
    vertex 22.64968238766854 28.499999999999993 33.47534482268637
  endloop
endfacet
facet normal -0.6751588061657308 0.0 0.7376724113431824
  outer loop
    vertex 22.64968238766854 30.5 33.47534482268637
    vertex 23.077540682760684 28.499999999999993 33.774561581923365
    vertex 23.077540682760684 30.5 33.774561581923365
  endloop
endfacet
facet normal -0.21586847205670576 0.0 0.9764224509769854
  outer loop
    vertex 23.56826305588659 28.499999999999993 33.952844901953966
    vertex 23.077540682760684 30.5 33.774561581923365
    vertex 23.077540682760684 28.499999999999993 33.774561581923365
  endloop
endfacet
facet normal -0.4612296586196559 0.0 0.8872807909616864
  outer loop
    vertex 23.077540682760684 30.5 33.774561581923365
    vertex 23.56826305588659 28.499999999999993 33.952844901953966
    vertex 23.56826305588659 30.5 33.952844901953966
  endloop
endfacet
facet normal 0.044203794137394184 0.0 0.9990225345725986
  outer loop
    vertex 24.08840758827479 28.499999999999993 33.99804506914519
    vertex 23.56826305588659 30.5 33.952844901953966
    vertex 23.56826305588659 28.499999999999993 33.952844901953966
  endloop
endfacet
facet normal -0.21586847205670576 0.0 0.9764224509769854
  outer loop
    vertex 23.56826305588659 30.5 33.952844901953966
    vertex 24.08840758827479 28.499999999999993 33.99804506914519
    vertex 24.08840758827479 30.5 33.99804506914519
  endloop
endfacet
facet normal 0.3012636448112561 0.0 0.9535408833998873
  outer loop
    vertex 24.60252728962251 28.499999999999993 33.90708176679977
    vertex 24.08840758827479 30.5 33.99804506914519
    vertex 24.08840758827479 28.499999999999993 33.99804506914519
  endloop
endfacet
facet normal 0.044203794137394184 0.0 0.9990225345725986
  outer loop
    vertex 24.08840758827479 30.5 33.99804506914519
    vertex 24.60252728962251 28.499999999999993 33.90708176679977
    vertex 24.60252728962251 30.5 33.90708176679977
  endloop
endfacet
facet normal 0.5377928759529425 0.0 0.8430769968242897
  outer loop
    vertex 25.07558575190588 28.499999999999993 33.686153993648574
    vertex 24.60252728962251 30.5 33.90708176679977
    vertex 24.60252728962251 28.499999999999993 33.90708176679977
  endloop
endfacet
facet normal 0.3012636448112561 0.0 0.9535408833998873
  outer loop
    vertex 24.60252728962251 30.5 33.90708176679977
    vertex 25.07558575190588 28.499999999999993 33.686153993648574
    vertex 25.07558575190588 30.5 33.686153993648574
  endloop
endfacet
facet normal 0.7376724113431804 0.0 0.675158806165733
  outer loop
    vertex 25.475344822686363 28.499999999999993 33.35031761233146
    vertex 25.07558575190588 30.5 33.686153993648574
    vertex 25.07558575190588 28.499999999999993 33.686153993648574
  endloop
endfacet
facet normal 0.5377928759529425 0.0 0.8430769968242897
  outer loop
    vertex 25.07558575190588 30.5 33.686153993648574
    vertex 25.475344822686363 28.499999999999993 33.35031761233146
    vertex 25.475344822686363 30.5 33.35031761233146
  endloop
endfacet
facet normal 0.8872807909616837 0.0 0.4612296586196614
  outer loop
    vertex 25.774561581923372 30.5 32.922459317239316
    vertex 25.475344822686363 28.499999999999993 33.35031761233146
    vertex 25.774561581923372 28.499999999999993 32.922459317239316
  endloop
endfacet
facet normal 0.7376724113431804 0.0 0.675158806165733
  outer loop
    vertex 25.475344822686363 28.499999999999993 33.35031761233146
    vertex 25.774561581923372 30.5 32.922459317239316
    vertex 25.475344822686363 30.5 33.35031761233146
  endloop
endfacet
facet normal 0.9764224509769854 0.0 0.21586847205670553
  outer loop
    vertex 25.95284490195397 30.5 32.43173694411341
    vertex 25.774561581923372 28.499999999999993 32.922459317239316
    vertex 25.95284490195397 28.499999999999993 32.43173694411341
  endloop
endfacet
facet normal 0.8872807909616837 0.0 0.4612296586196614
  outer loop
    vertex 25.774561581923372 28.499999999999993 32.922459317239316
    vertex 25.95284490195397 30.5 32.43173694411341
    vertex 25.774561581923372 30.5 32.922459317239316
  endloop
endfacet
facet normal 0.9990225345725986 0.0 -0.04420379413739442
  outer loop
    vertex 25.9980450691452 30.5 31.91159241172521
    vertex 25.95284490195397 28.499999999999993 32.43173694411341
    vertex 25.9980450691452 28.499999999999993 31.91159241172521
  endloop
endfacet
facet normal 0.9764224509769854 0.0 0.21586847205670553
  outer loop
    vertex 25.95284490195397 28.499999999999993 32.43173694411341
    vertex 25.9980450691452 30.5 31.91159241172521
    vertex 25.95284490195397 30.5 32.43173694411341
  endloop
endfacet
facet normal 0.953540883399887 0.0 -0.30126364481125717
  outer loop
    vertex 25.907081766799777 30.5 31.39747271037749
    vertex 25.9980450691452 28.499999999999993 31.91159241172521
    vertex 25.907081766799777 28.499999999999993 31.39747271037749
  endloop
endfacet
facet normal 0.9990225345725986 0.0 -0.04420379413739442
  outer loop
    vertex 25.9980450691452 28.499999999999993 31.91159241172521
    vertex 25.907081766799777 30.5 31.39747271037749
    vertex 25.9980450691452 30.5 31.91159241172521
  endloop
endfacet
facet normal 0.8430769968242899 0.0 -0.5377928759529419
  outer loop
    vertex 25.68615399364858 30.5 30.92441424809412
    vertex 25.907081766799777 28.499999999999993 31.39747271037749
    vertex 25.68615399364858 28.499999999999993 30.92441424809412
  endloop
endfacet
facet normal 0.953540883399887 0.0 -0.30126364481125717
  outer loop
    vertex 25.907081766799777 28.499999999999993 31.39747271037749
    vertex 25.68615399364858 30.5 30.92441424809412
    vertex 25.907081766799777 30.5 31.39747271037749
  endloop
endfacet
facet normal 0.675158806165733 0.0 -0.7376724113431803
  outer loop
    vertex 25.350317612331462 30.5 30.524655177313637
    vertex 25.68615399364858 28.499999999999993 30.92441424809412
    vertex 25.350317612331462 28.499999999999993 30.524655177313637
  endloop
endfacet
facet normal 0.8430769968242899 0.0 -0.5377928759529419
  outer loop
    vertex 25.68615399364858 28.499999999999993 30.92441424809412
    vertex 25.350317612331462 30.5 30.524655177313637
    vertex 25.68615399364858 30.5 30.92441424809412
  endloop
endfacet
facet normal 0.675158806165733 0.0 -0.7376724113431803
  outer loop
    vertex 25.350317612331462 30.5 30.524655177313637
    vertex 24.922459317239316 28.499999999999993 30.225438418076628
    vertex 24.922459317239316 30.5 30.225438418076628
  endloop
endfacet
facet normal 0.4612296586196599 0.0 -0.8872807909616842
  outer loop
    vertex 24.922459317239316 28.499999999999993 30.225438418076628
    vertex 25.350317612331462 30.5 30.524655177313637
    vertex 25.350317612331462 28.499999999999993 30.524655177313637
  endloop
endfacet
facet normal 0.4612296586196599 0.0 -0.8872807909616842
  outer loop
    vertex 24.922459317239316 30.5 30.225438418076628
    vertex 24.43173694411341 28.499999999999993 30.047155098046026
    vertex 24.43173694411341 30.5 30.047155098046026
  endloop
endfacet
facet normal 0.21586847205670576 0.0 -0.9764224509769854
  outer loop
    vertex 24.43173694411341 28.499999999999993 30.047155098046026
    vertex 24.922459317239316 30.5 30.225438418076628
    vertex 24.922459317239316 28.499999999999993 30.225438418076628
  endloop
endfacet
facet normal -0.8352978521808719 0.0 -0.5497976883745715
  outer loop
    vertex 19.197037349959995 6.499999999999999 28.838663291846196
    vertex 20.17890848167649 0.0 27.703285021252146
    vertex 19.197037349959995 0.0 28.838663291846196
  endloop
endfacet
facet normal -0.6645376553606098 0.0 -0.74725477891267
  outer loop
    vertex 20.17890848167649 0.0 27.703285021252146
    vertex 19.197037349959995 6.499999999999999 28.838663291846196
    vertex 20.17890848167649 6.499999999999999 27.703285021252146
  endloop
endfacet
facet normal -0.4484903155279253 0.0 -0.8937876911647766
  outer loop
    vertex 21.42118068571443 6.499999999999999 26.860720775802534
    vertex 20.17890848167649 0.0 27.703285021252146
    vertex 20.17890848167649 6.499999999999999 27.703285021252146
  endloop
endfacet
facet normal -0.6645376553606098 0.0 -0.74725477891267
  outer loop
    vertex 20.17890848167649 0.0 27.703285021252146
    vertex 21.42118068571443 6.499999999999999 26.860720775802534
    vertex 21.42118068571443 0.0 26.860720775802534
  endloop
endfacet
facet normal -0.20187910185730223 0.0 -0.9794104493180014
  outer loop
    vertex 22.83919516432051 6.499999999999999 26.368389916421492
    vertex 21.42118068571443 0.0 26.860720775802534
    vertex 21.42118068571443 6.499999999999999 26.860720775802534
  endloop
endfacet
facet normal -0.4484903155279253 0.0 -0.8937876911647766
  outer loop
    vertex 21.42118068571443 0.0 26.860720775802534
    vertex 22.83919516432051 6.499999999999999 26.368389916421492
    vertex 22.83919516432051 0.0 26.368389916421492
  endloop
endfacet
facet normal 0.05848983898390597 0.0 -0.9982880039024995
  outer loop
    vertex 24.33631657415746 6.499999999999999 26.259843977560628
    vertex 22.83919516432051 0.0 26.368389916421492
    vertex 22.83919516432051 6.499999999999999 26.368389916421492
  endloop
endfacet
facet normal -0.20187910185730223 0.0 -0.9794104493180014
  outer loop
    vertex 22.83919516432051 0.0 26.368389916421492
    vertex 24.33631657415746 6.499999999999999 26.259843977560628
    vertex 24.33631657415746 0.0 26.259843977560628
  endloop
endfacet
facet normal 0.3148727939573895 0.0 -0.9491338807699721
  outer loop
    vertex 25.810518565255 6.499999999999999 26.54248018557266
    vertex 24.33631657415746 0.0 26.259843977560628
    vertex 24.33631657415746 6.499999999999999 26.259843977560628
  endloop
endfacet
facet normal 0.05848983898390597 0.0 -0.9982880039024995
  outer loop
    vertex 24.33631657415746 0.0 26.259843977560628
    vertex 25.810518565255 6.499999999999999 26.54248018557266
    vertex 25.810518565255 0.0 26.54248018557266
  endloop
endfacet
facet normal 0.0 0.0 1.0
  outer loop
    vertex 36.0 -25.0 0.0
    vertex 0.0 0.0 0.0
    vertex 0.0 -25.0 0.0
  endloop
endfacet
facet normal 0.0 0.0 1.0
  outer loop
    vertex 0.0 0.0 0.0
    vertex 36.0 -25.0 0.0
    vertex 36.0 0.0 0.0
  endloop
endfacet
facet normal 0.5497976883745738 0.0 -0.8352978521808703
  outer loop
    vertex 27.1613367081538 6.499999999999999 27.19703734995999
    vertex 25.810518565255 0.0 26.54248018557266
    vertex 25.810518565255 6.499999999999999 26.54248018557266
  endloop
endfacet
facet normal 0.3148727939573895 0.0 -0.9491338807699721
  outer loop
    vertex 25.810518565255 0.0 26.54248018557266
    vertex 27.1613367081538 6.499999999999999 27.19703734995999
    vertex 27.1613367081538 0.0 27.19703734995999
  endloop
endfacet
facet normal 0.7472547789126703 0.0 -0.6645376553606095
  outer loop
    vertex 28.296714978747854 6.499999999999999 28.178908481676487
    vertex 27.1613367081538 0.0 27.19703734995999
    vertex 27.1613367081538 6.499999999999999 27.19703734995999
  endloop
endfacet
facet normal 0.5497976883745738 0.0 -0.8352978521808703
  outer loop
    vertex 27.1613367081538 0.0 27.19703734995999
    vertex 28.296714978747854 6.499999999999999 28.178908481676487
    vertex 28.296714978747854 0.0 28.178908481676487
  endloop
endfacet
facet normal 0.7472547789126703 0.0 -0.6645376553606095
  outer loop
    vertex 28.296714978747854 6.499999999999999 28.178908481676487
    vertex 29.139279224197466 0.0 29.42118068571443
    vertex 28.296714978747854 0.0 28.178908481676487
  endloop
endfacet
facet normal 0.893787691164777 0.0 -0.44849031552792457
  outer loop
    vertex 29.139279224197466 0.0 29.42118068571443
    vertex 28.296714978747854 6.499999999999999 28.178908481676487
    vertex 29.139279224197466 6.499999999999999 29.42118068571443
  endloop
endfacet
facet normal 0.893787691164777 0.0 -0.44849031552792457
  outer loop
    vertex 29.139279224197466 6.499999999999999 29.42118068571443
    vertex 29.631610083578508 0.0 30.83919516432051
    vertex 29.139279224197466 0.0 29.42118068571443
  endloop
endfacet
facet normal 0.9794104493180014 0.0 -0.201879101857302
  outer loop
    vertex 29.631610083578508 0.0 30.83919516432051
    vertex 29.139279224197466 6.499999999999999 29.42118068571443
    vertex 29.631610083578508 6.499999999999999 30.83919516432051
  endloop
endfacet
facet normal 0.9794104493180014 0.0 -0.201879101857302
  outer loop
    vertex 29.631610083578508 6.499999999999999 30.83919516432051
    vertex 29.740156022439372 0.0 32.336316574157465
    vertex 29.631610083578508 0.0 30.83919516432051
  endloop
endfacet
facet normal 0.9982880039024995 0.0 0.05848983898390608
  outer loop
    vertex 29.740156022439372 0.0 32.336316574157465
    vertex 29.631610083578508 6.499999999999999 30.83919516432051
    vertex 29.740156022439372 6.499999999999999 32.336316574157465
  endloop
endfacet
facet normal 0.9982880039024995 0.0 0.05848983898390608
  outer loop
    vertex 29.740156022439372 6.499999999999999 32.336316574157465
    vertex 29.45751981442734 0.0 33.810518565254995
    vertex 29.740156022439372 0.0 32.336316574157465
  endloop
endfacet
facet normal 0.9491338807699721 0.0 0.3148727939573897
  outer loop
    vertex 29.45751981442734 0.0 33.810518565254995
    vertex 29.740156022439372 6.499999999999999 32.336316574157465
    vertex 29.45751981442734 6.499999999999999 33.810518565254995
  endloop
endfacet
facet normal 0.9491338807699721 0.0 0.3148727939573897
  outer loop
    vertex 29.45751981442734 6.499999999999999 33.810518565254995
    vertex 28.80296265004001 0.0 35.1613367081538
    vertex 29.45751981442734 0.0 33.810518565254995
  endloop
endfacet
facet normal 0.8352978521808703 0.0 0.5497976883745738
  outer loop
    vertex 28.80296265004001 0.0 35.1613367081538
    vertex 29.45751981442734 6.499999999999999 33.810518565254995
    vertex 28.80296265004001 6.499999999999999 35.1613367081538
  endloop
endfacet
facet normal 0.8352978521808703 0.0 0.5497976883745738
  outer loop
    vertex 28.80296265004001 6.499999999999999 35.1613367081538
    vertex 27.82109151832351 0.0 36.29671497874785
    vertex 28.80296265004001 0.0 35.1613367081538
  endloop
endfacet
facet normal 0.6645376553606095 0.0 0.7472547789126703
  outer loop
    vertex 27.82109151832351 0.0 36.29671497874785
    vertex 28.80296265004001 6.499999999999999 35.1613367081538
    vertex 27.82109151832351 6.499999999999999 36.29671497874785
  endloop
endfacet
facet normal 0.6645376553606095 0.0 0.7472547789126703
  outer loop
    vertex 27.82109151832351 0.0 36.29671497874785
    vertex 26.57881931428557 6.499999999999999 37.13927922419746
    vertex 26.57881931428557 0.0 37.13927922419746
  endloop
endfacet
facet normal 0.44849031552792457 0.0 0.893787691164777
  outer loop
    vertex 26.57881931428557 6.499999999999999 37.13927922419746
    vertex 27.82109151832351 0.0 36.29671497874785
    vertex 27.82109151832351 6.499999999999999 36.29671497874785
  endloop
endfacet
facet normal 0.44849031552792457 0.0 0.893787691164777
  outer loop
    vertex 26.57881931428557 0.0 37.13927922419746
    vertex 25.160804835679485 6.499999999999999 37.6316100835785
    vertex 25.160804835679485 0.0 37.6316100835785
  endloop
endfacet
facet normal 0.201879101857302 0.0 0.9794104493180014
  outer loop
    vertex 25.160804835679485 6.499999999999999 37.6316100835785
    vertex 26.57881931428557 0.0 37.13927922419746
    vertex 26.57881931428557 6.499999999999999 37.13927922419746
  endloop
endfacet
facet normal 0.201879101857302 0.0 0.9794104493180014
  outer loop
    vertex 25.160804835679485 0.0 37.6316100835785
    vertex 23.66368342584254 6.499999999999999 37.74015602243937
    vertex 23.66368342584254 0.0 37.74015602243937
  endloop
endfacet
facet normal -0.05848983898390608 0.0 0.9982880039024995
  outer loop
    vertex 23.66368342584254 6.499999999999999 37.74015602243937
    vertex 25.160804835679485 0.0 37.6316100835785
    vertex 25.160804835679485 6.499999999999999 37.6316100835785
  endloop
endfacet
facet normal -0.05848983898390608 0.0 0.9982880039024995
  outer loop
    vertex 23.66368342584254 0.0 37.74015602243937
    vertex 22.189481434745005 6.499999999999999 37.457519814427336
    vertex 22.189481434745005 0.0 37.457519814427336
  endloop
endfacet
facet normal -0.3148727939573897 0.0 0.9491338807699721
  outer loop
    vertex 22.189481434745005 6.499999999999999 37.457519814427336
    vertex 23.66368342584254 0.0 37.74015602243937
    vertex 23.66368342584254 6.499999999999999 37.74015602243937
  endloop
endfacet
facet normal -0.3148727939573897 0.0 0.9491338807699721
  outer loop
    vertex 22.189481434745005 0.0 37.457519814427336
    vertex 20.8386632918462 6.499999999999999 36.80296265004
    vertex 20.8386632918462 0.0 36.80296265004
  endloop
endfacet
facet normal -0.5497976883745738 0.0 0.8352978521808703
  outer loop
    vertex 20.8386632918462 6.499999999999999 36.80296265004
    vertex 22.189481434745005 0.0 37.457519814427336
    vertex 22.189481434745005 6.499999999999999 37.457519814427336
  endloop
endfacet
facet normal -0.5497976883745738 0.0 0.8352978521808703
  outer loop
    vertex 20.8386632918462 0.0 36.80296265004
    vertex 19.70328502125215 6.499999999999999 35.821091518323506
    vertex 19.70328502125215 0.0 35.821091518323506
  endloop
endfacet
facet normal -0.7472547789126707 0.0 0.6645376553606092
  outer loop
    vertex 19.70328502125215 6.499999999999999 35.821091518323506
    vertex 20.8386632918462 0.0 36.80296265004
    vertex 20.8386632918462 6.499999999999999 36.80296265004
  endloop
endfacet
facet normal -0.7472547789126707 0.0 0.6645376553606092
  outer loop
    vertex 19.70328502125215 6.499999999999999 35.821091518323506
    vertex 19.13074080125118 0.0 34.97693539143938
    vertex 19.70328502125215 0.0 35.821091518323506
  endloop
endfacet
facet normal -0.8276014804310518 0.0 0.5613161226869682
  outer loop
    vertex 19.13074080125118 0.0 34.97693539143938
    vertex 19.70328502125215 6.499999999999999 35.821091518323506
    vertex 19.13074080125118 6.499999999999999 34.97693539143938
  endloop
endfacet
facet normal 0.008373695462414597 0.0 0.9999649399975497
  outer loop
    vertex 19.13074080125118 0.0 34.97693539143938
    vertex 18.328524188055237 6.499999999999999 34.983653144577616
    vertex 18.328524188055237 0.0 34.983653144577616
  endloop
endfacet
facet normal 0.008373695462414597 0.0 0.9999649399975497
  outer loop
    vertex 18.328524188055237 6.499999999999999 34.983653144577616
    vertex 19.13074080125118 0.0 34.97693539143938
    vertex 19.13074080125118 6.499999999999999 34.97693539143938
  endloop
endfacet
facet normal -0.026456121037566747 0.0 0.9996499755712726
  outer loop
    vertex 18.328524188055237 0.0 34.983653144577616
    vertex 18.074692503849008 6.499999999999999 34.97693539143938
    vertex 18.074692503849008 0.0 34.97693539143938
  endloop
endfacet
facet normal -0.026456121037566747 0.0 0.9996499755712726
  outer loop
    vertex 18.074692503849008 6.499999999999999 34.97693539143938
    vertex 18.328524188055237 0.0 34.983653144577616
    vertex 18.328524188055237 6.499999999999999 34.983653144577616
  endloop
endfacet
facet normal -0.02645612103757109 0.0 0.9996499755712724
  outer loop
    vertex 18.074692503849008 0.0 34.97693539143938
    vertex 17.545641158870122 6.499999999999999 34.962933844137936
    vertex 17.545641158870122 0.0 34.962933844137936
  endloop
endfacet
facet normal -0.15671029011877347 0.0 0.9876446147126455
  outer loop
    vertex 17.545641158870122 6.499999999999999 34.962933844137936
    vertex 18.074692503849008 0.0 34.97693539143938
    vertex 18.074692503849008 6.499999999999999 34.97693539143938
  endloop
endfacet
facet normal -0.15671029011877347 0.0 0.9876446147126455
  outer loop
    vertex 17.545641158870122 0.0 34.962933844137936
    vertex 16.794796771571793 6.499999999999999 34.740295498699936
    vertex 16.794796771571793 0.0 34.740295498699936
  endloop
endfacet
facet normal -0.40699175255155084 0.0 0.9134318328999801
  outer loop
    vertex 16.794796771571793 6.499999999999999 34.740295498699936
    vertex 17.545641158870122 0.0 34.962933844137936
    vertex 17.545641158870122 6.499999999999999 34.962933844137936
  endloop
endfacet
facet normal -0.40699175255155084 0.0 0.9134318328999801
  outer loop
    vertex 16.794796771571793 0.0 34.740295498699936
    vertex 16.127159830325613 6.499999999999999 34.33091054357797
    vertex 16.127159830325613 0.0 34.33091054357797
  endloop
endfacet
facet normal -0.6295373996336102 0.0 0.7769701811926584
  outer loop
    vertex 16.127159830325613 6.499999999999999 34.33091054357797
    vertex 16.794796771571793 0.0 34.740295498699936
    vertex 16.794796771571793 6.499999999999999 34.740295498699936
  endloop
endfacet
facet normal -0.6295373996336102 0.0 0.7769701811926584
  outer loop
    vertex 16.127159830325613 6.499999999999999 34.33091054357797
    vertex 15.588228689355297 0.0 33.762677886922965
    vertex 16.127159830325613 0.0 34.33091054357797
  endloop
endfacet
facet normal -0.8091811132903836 0.0 0.5875592956409893
  outer loop
    vertex 15.588228689355297 0.0 33.762677886922965
    vertex 16.127159830325613 6.499999999999999 34.33091054357797
    vertex 15.588228689355297 6.499999999999999 33.762677886922965
  endloop
endfacet
facet normal -0.8091811132903836 0.0 0.5875592956409893
  outer loop
    vertex 15.588228689355297 6.499999999999999 33.762677886922965
    vertex 15.21473061529215 0.0 33.0743216452371
    vertex 15.588228689355297 0.0 33.762677886922965
  endloop
endfacet
facet normal -0.9336804713114321 0.0 0.3581072150790348
  outer loop
    vertex 15.21473061529215 0.0 33.0743216452371
    vertex 15.588228689355297 6.499999999999999 33.762677886922965
    vertex 15.21473061529215 6.499999999999999 33.0743216452371
  endloop
endfacet
facet normal -0.9336804713114321 0.0 0.3581072150790348
  outer loop
    vertex 15.21473061529215 6.499999999999999 33.0743216452371
    vertex 15.032118884648824 0.0 32.312752158828786
    vertex 15.21473061529215 0.0 33.0743216452371
  endloop
endfacet
facet normal -0.9945510481925407 0.0 0.10425071960959717
  outer loop
    vertex 15.032118884648824 0.0 32.312752158828786
    vertex 15.21473061529215 6.499999999999999 33.0743216452371
    vertex 15.032118884648824 6.499999999999999 32.312752158828786
  endloop
endfacet
facet normal -0.9945510481925407 0.0 0.10425071960959717
  outer loop
    vertex 15.032118884648824 6.499999999999999 32.312752158828786
    vertex 15.052838185088511 0.0 31.52986912964368
    vertex 15.032118884648824 0.0 32.312752158828786
  endloop
endfacet
facet normal -0.9876446147126454 0.0 -0.15671029011877416
  outer loop
    vertex 15.052838185088511 0.0 31.52986912964368
    vertex 15.032118884648824 6.499999999999999 32.312752158828786
    vertex 15.052838185088511 6.499999999999999 31.52986912964368
  endloop
endfacet
facet normal -0.9876446147126454 0.0 -0.15671029011877416
  outer loop
    vertex 15.052838185088511 6.499999999999999 31.52986912964368
    vertex 15.275476530526506 0.0 30.779024742345346
    vertex 15.052838185088511 0.0 31.52986912964368
  endloop
endfacet
facet normal -0.9134318328999804 0.0 -0.4069917525515506
  outer loop
    vertex 15.275476530526506 0.0 30.779024742345346
    vertex 15.052838185088511 6.499999999999999 31.52986912964368
    vertex 15.275476530526506 6.499999999999999 30.779024742345346
  endloop
endfacet
facet normal -0.9134318328999804 0.0 -0.4069917525515506
  outer loop
    vertex 15.275476530526506 6.499999999999999 30.779024742345346
    vertex 15.68486148564847 0.0 30.11138780109917
    vertex 15.275476530526506 0.0 30.779024742345346
  endloop
endfacet
facet normal -0.7769701811926589 0.0 -0.6295373996336096
  outer loop
    vertex 15.68486148564847 0.0 30.11138780109917
    vertex 15.275476530526506 6.499999999999999 30.779024742345346
    vertex 15.68486148564847 6.499999999999999 30.11138780109917
  endloop
endfacet
facet normal -0.5875592956409903 0.0 -0.8091811132903829
  outer loop
    vertex 16.253094142303475 6.499999999999999 29.57245666012885
    vertex 15.68486148564847 0.0 30.11138780109917
    vertex 15.68486148564847 6.499999999999999 30.11138780109917
  endloop
endfacet
facet normal -0.7769701811926589 0.0 -0.6295373996336096
  outer loop
    vertex 15.68486148564847 0.0 30.11138780109917
    vertex 16.253094142303475 6.499999999999999 29.57245666012885
    vertex 16.253094142303475 0.0 29.57245666012885
  endloop
endfacet
facet normal -0.3581072150790321 0.0 -0.9336804713114332
  outer loop
    vertex 16.94145038398934 6.499999999999999 29.198958586065704
    vertex 16.253094142303475 0.0 29.57245666012885
    vertex 16.253094142303475 6.499999999999999 29.57245666012885
  endloop
endfacet
facet normal -0.5875592956409903 0.0 -0.8091811132903829
  outer loop
    vertex 16.253094142303475 0.0 29.57245666012885
    vertex 16.94145038398934 6.499999999999999 29.198958586065704
    vertex 16.94145038398934 0.0 29.198958586065704
  endloop
endfacet
facet normal -0.10425071960960376 0.0 -0.9945510481925399
  outer loop
    vertex 17.703019870397654 6.499999999999999 29.01634685542238
    vertex 16.94145038398934 0.0 29.198958586065704
    vertex 16.94145038398934 6.499999999999999 29.198958586065704
  endloop
endfacet
facet normal -0.3581072150790321 0.0 -0.9336804713114332
  outer loop
    vertex 16.94145038398934 0.0 29.198958586065704
    vertex 17.703019870397654 6.499999999999999 29.01634685542238
    vertex 17.703019870397654 0.0 29.01634685542238
  endloop
endfacet
facet normal 0.026456121037561037 0.0 -0.9996499755712727
  outer loop
    vertex 17.901510994775265 6.499999999999999 29.021599999362504
    vertex 17.703019870397654 0.0 29.01634685542238
    vertex 17.703019870397654 6.499999999999999 29.01634685542238
  endloop
endfacet
facet normal -0.10425071960960376 0.0 -0.9945510481925399
  outer loop
    vertex 17.703019870397654 0.0 29.01634685542238
    vertex 17.901510994775265 6.499999999999999 29.021599999362504
    vertex 17.901510994775265 0.0 29.021599999362504
  endloop
endfacet
facet normal -0.01961748515041536 -0.0 -0.9998075586213446
  outer loop
    vertex 19.11997777280902 6.499999999999999 28.997692144577616
    vertex 17.901510994775265 0.0 29.021599999362504
    vertex 17.901510994775265 6.499999999999999 29.021599999362504
  endloop
endfacet
facet normal -0.01961748515041536 -0.0 -0.9998075586213446
  outer loop
    vertex 17.901510994775265 0.0 29.021599999362504
    vertex 19.11997777280902 6.499999999999999 28.997692144577616
    vertex 19.11997777280902 0.0 28.997692144577616
  endloop
endfacet
facet normal -0.8999147620162271 -0.0 -0.436065844919408
  outer loop
    vertex 19.11997777280902 6.499999999999999 28.997692144577616
    vertex 19.197037349959995 0.0 28.838663291846196
    vertex 19.11997777280902 0.0 28.997692144577616
  endloop
endfacet
facet normal -0.8352978521808719 0.0 -0.5497976883745715
  outer loop
    vertex 19.197037349959995 0.0 28.838663291846196
    vertex 19.11997777280902 6.499999999999999 28.997692144577616
    vertex 19.197037349959995 6.499999999999999 28.838663291846196
  endloop
endfacet
facet normal 0.0 1.0 0.0
  outer loop
    vertex 0.0 -25.0 40.0
    vertex 36.0 -25.0 0.0
    vertex 0.0 -25.0 0.0
  endloop
endfacet
facet normal 0.0 1.0 0.0
  outer loop
    vertex 36.0 -25.0 0.0
    vertex 0.0 -25.0 40.0
    vertex 36.0 -25.0 40.0
  endloop
endfacet
facet normal 0.0 1.0 0.0
  outer loop
    vertex 17.901510994775265 0.0 29.021599999362504
    vertex 19.11997777280902 0.0 28.997692144577616
    vertex 17.703019870397654 0.0 29.01634685542238
  endloop
endfacet
facet normal 0.0 1.0 0.0
  outer loop
    vertex 0.0 0.0 40.0
    vertex 36.0 0.0 1.9999999999999996
    vertex 0.0 0.0 1.9999999999999996
  endloop
endfacet
facet normal 0.0 1.0 0.0
  outer loop
    vertex 36.0 0.0 1.9999999999999996
    vertex 0.0 0.0 40.0
    vertex 16.253094142303475 0.0 29.57245666012885
  endloop
endfacet
facet normal 0.0 1.0 0.0
  outer loop
    vertex 36.0 0.0 1.9999999999999996
    vertex 16.253094142303475 0.0 29.57245666012885
    vertex 16.94145038398934 0.0 29.198958586065704
  endloop
endfacet
facet normal 0.0 1.0 0.0
  outer loop
    vertex 36.0 0.0 1.9999999999999996
    vertex 16.94145038398934 0.0 29.198958586065704
    vertex 21.42118068571443 0.0 26.860720775802534
  endloop
endfacet
facet normal 0.0 1.0 0.0
  outer loop
    vertex 36.0 0.0 1.9999999999999996
    vertex 21.42118068571443 0.0 26.860720775802534
    vertex 22.83919516432051 0.0 26.368389916421492
  endloop
endfacet
facet normal 0.0 1.0 0.0
  outer loop
    vertex 36.0 0.0 1.9999999999999996
    vertex 22.83919516432051 0.0 26.368389916421492
    vertex 24.33631657415746 0.0 26.259843977560628
  endloop
endfacet
facet normal 0.0 1.0 0.0
  outer loop
    vertex 21.42118068571443 0.0 26.860720775802534
    vertex 16.94145038398934 0.0 29.198958586065704
    vertex 20.17890848167649 0.0 27.703285021252146
  endloop
endfacet
facet normal 0.0 1.0 0.0
  outer loop
    vertex 20.17890848167649 0.0 27.703285021252146
    vertex 16.94145038398934 0.0 29.198958586065704
    vertex 17.703019870397654 0.0 29.01634685542238
  endloop
endfacet
facet normal 0.0 1.0 0.0
  outer loop
    vertex 20.17890848167649 0.0 27.703285021252146
    vertex 17.703019870397654 0.0 29.01634685542238
    vertex 19.197037349959995 0.0 28.838663291846196
  endloop
endfacet
facet normal 0.0 1.0 0.0
  outer loop
    vertex 19.197037349959995 0.0 28.838663291846196
    vertex 17.703019870397654 0.0 29.01634685542238
    vertex 19.11997777280902 0.0 28.997692144577616
  endloop
endfacet
facet normal 0.0 1.0 0.0
  outer loop
    vertex 16.253094142303475 0.0 29.57245666012885
    vertex 0.0 0.0 40.0
    vertex 15.68486148564847 0.0 30.11138780109917
  endloop
endfacet
facet normal 0.0 1.0 0.0
  outer loop
    vertex 15.68486148564847 0.0 30.11138780109917
    vertex 0.0 0.0 40.0
    vertex 15.275476530526506 0.0 30.779024742345346
  endloop
endfacet
facet normal 0.0 1.0 0.0
  outer loop
    vertex 15.275476530526506 0.0 30.779024742345346
    vertex 0.0 0.0 40.0
    vertex 15.052838185088511 0.0 31.52986912964368
  endloop
endfacet
facet normal 0.0 1.0 0.0
  outer loop
    vertex 15.052838185088511 0.0 31.52986912964368
    vertex 0.0 0.0 40.0
    vertex 15.032118884648824 0.0 32.312752158828786
  endloop
endfacet
facet normal 0.0 1.0 0.0
  outer loop
    vertex 15.032118884648824 0.0 32.312752158828786
    vertex 0.0 0.0 40.0
    vertex 15.21473061529215 0.0 33.0743216452371
  endloop
endfacet
facet normal 0.0 1.0 0.0
  outer loop
    vertex 15.21473061529215 0.0 33.0743216452371
    vertex 0.0 0.0 40.0
    vertex 15.588228689355297 0.0 33.762677886922965
  endloop
endfacet
facet normal 0.0 1.0 0.0
  outer loop
    vertex 15.588228689355297 0.0 33.762677886922965
    vertex 0.0 0.0 40.0
    vertex 16.127159830325613 0.0 34.33091054357797
  endloop
endfacet
facet normal 0.0 1.0 0.0
  outer loop
    vertex 16.127159830325613 0.0 34.33091054357797
    vertex 0.0 0.0 40.0
    vertex 16.794796771571793 0.0 34.740295498699936
  endloop
endfacet
facet normal 0.0 1.0 0.0
  outer loop
    vertex 16.794796771571793 0.0 34.740295498699936
    vertex 0.0 0.0 40.0
    vertex 17.545641158870122 0.0 34.962933844137936
  endloop
endfacet
facet normal 0.0 1.0 0.0
  outer loop
    vertex 17.545641158870122 0.0 34.962933844137936
    vertex 0.0 0.0 40.0
    vertex 18.074692503849008 0.0 34.97693539143938
  endloop
endfacet
facet normal 0.0 1.0 0.0
  outer loop
    vertex 18.074692503849008 0.0 34.97693539143938
    vertex 0.0 0.0 40.0
    vertex 18.328524188055237 0.0 34.983653144577616
  endloop
endfacet
facet normal 0.0 1.0 0.0
  outer loop
    vertex 18.328524188055237 0.0 34.983653144577616
    vertex 0.0 0.0 40.0
    vertex 19.70328502125215 0.0 35.821091518323506
  endloop
endfacet
facet normal 0.0 1.0 0.0
  outer loop
    vertex 19.70328502125215 0.0 35.821091518323506
    vertex 0.0 0.0 40.0
    vertex 20.8386632918462 0.0 36.80296265004
  endloop
endfacet
facet normal 0.0 1.0 0.0
  outer loop
    vertex 20.8386632918462 0.0 36.80296265004
    vertex 0.0 0.0 40.0
    vertex 22.189481434745005 0.0 37.457519814427336
  endloop
endfacet
facet normal 0.0 1.0 0.0
  outer loop
    vertex 22.189481434745005 0.0 37.457519814427336
    vertex 0.0 0.0 40.0
    vertex 23.66368342584254 0.0 37.74015602243937
  endloop
endfacet
facet normal 0.0 1.0 0.0
  outer loop
    vertex 36.0 0.0 1.9999999999999996
    vertex 29.139279224197466 0.0 29.42118068571443
    vertex 36.0 0.0 40.0
  endloop
endfacet
facet normal 0.0 1.0 0.0
  outer loop
    vertex 29.139279224197466 0.0 29.42118068571443
    vertex 36.0 0.0 1.9999999999999996
    vertex 28.296714978747854 0.0 28.178908481676487
  endloop
endfacet
facet normal 0.0 1.0 0.0
  outer loop
    vertex 28.296714978747854 0.0 28.178908481676487
    vertex 36.0 0.0 1.9999999999999996
    vertex 27.1613367081538 0.0 27.19703734995999
  endloop
endfacet
facet normal 0.0 1.0 0.0
  outer loop
    vertex 27.1613367081538 0.0 27.19703734995999
    vertex 36.0 0.0 1.9999999999999996
    vertex 25.810518565255 0.0 26.54248018557266
  endloop
endfacet
facet normal 0.0 1.0 0.0
  outer loop
    vertex 25.810518565255 0.0 26.54248018557266
    vertex 36.0 0.0 1.9999999999999996
    vertex 24.33631657415746 0.0 26.259843977560628
  endloop
endfacet
facet normal 0.0 1.0 0.0
  outer loop
    vertex 36.0 0.0 40.0
    vertex 29.139279224197466 0.0 29.42118068571443
    vertex 29.631610083578508 0.0 30.83919516432051
  endloop
endfacet
facet normal 0.0 1.0 0.0
  outer loop
    vertex 36.0 0.0 40.0
    vertex 29.631610083578508 0.0 30.83919516432051
    vertex 29.740156022439372 0.0 32.336316574157465
  endloop
endfacet
facet normal 0.0 1.0 0.0
  outer loop
    vertex 36.0 0.0 40.0
    vertex 29.740156022439372 0.0 32.336316574157465
    vertex 29.45751981442734 0.0 33.810518565254995
  endloop
endfacet
facet normal 0.0 1.0 0.0
  outer loop
    vertex 36.0 0.0 40.0
    vertex 29.45751981442734 0.0 33.810518565254995
    vertex 28.80296265004001 0.0 35.1613367081538
  endloop
endfacet
facet normal 0.0 1.0 0.0
  outer loop
    vertex 36.0 0.0 40.0
    vertex 28.80296265004001 0.0 35.1613367081538
    vertex 27.82109151832351 0.0 36.29671497874785
  endloop
endfacet
facet normal 0.0 1.0 0.0
  outer loop
    vertex 36.0 0.0 40.0
    vertex 27.82109151832351 0.0 36.29671497874785
    vertex 26.57881931428557 0.0 37.13927922419746
  endloop
endfacet
facet normal 0.0 1.0 0.0
  outer loop
    vertex 36.0 0.0 40.0
    vertex 26.57881931428557 0.0 37.13927922419746
    vertex 25.160804835679485 0.0 37.6316100835785
  endloop
endfacet
facet normal 0.0 1.0 0.0
  outer loop
    vertex 36.0 0.0 40.0
    vertex 25.160804835679485 0.0 37.6316100835785
    vertex 23.66368342584254 0.0 37.74015602243937
  endloop
endfacet
facet normal 0.0 1.0 0.0
  outer loop
    vertex 36.0 0.0 40.0
    vertex 23.66368342584254 0.0 37.74015602243937
    vertex 0.0 0.0 40.0
  endloop
endfacet
facet normal 0.0 1.0 0.0
  outer loop
    vertex 19.70328502125215 0.0 35.821091518323506
    vertex 19.13074080125118 0.0 34.97693539143938
    vertex 18.328524188055237 0.0 34.983653144577616
  endloop
endfacet
facet normal 0.0 -1.0 0.0
  outer loop
    vertex 36.0 30.5 40.0
    vertex 0.0 30.5 0.0
    vertex 36.0 30.5 0.0
  endloop
endfacet
facet normal 0.0 -1.0 0.0
  outer loop
    vertex 0.0 30.5 0.0
    vertex 36.0 30.5 40.0
    vertex 25.350317612331462 30.5 30.524655177313637
  endloop
endfacet
facet normal 0.0 -1.0 0.0
  outer loop
    vertex 0.0 30.5 0.0
    vertex 25.350317612331462 30.5 30.524655177313637
    vertex 24.922459317239316 30.5 30.225438418076628
  endloop
endfacet
facet normal 0.0 -1.0 0.0
  outer loop
    vertex 0.0 30.5 0.0
    vertex 24.922459317239316 30.5 30.225438418076628
    vertex 24.43173694411341 30.5 30.047155098046026
  endloop
endfacet
facet normal 0.0 -1.0 0.0
  outer loop
    vertex 0.0 30.5 0.0
    vertex 24.43173694411341 30.5 30.047155098046026
    vertex 23.911592411725213 30.5 30.0019549308548
  endloop
endfacet
facet normal 0.0 -1.0 0.0
  outer loop
    vertex 25.350317612331462 30.5 30.524655177313637
    vertex 36.0 30.5 40.0
    vertex 25.68615399364858 30.5 30.92441424809412
  endloop
endfacet
facet normal 0.0 -1.0 0.0
  outer loop
    vertex 25.68615399364858 30.5 30.92441424809412
    vertex 36.0 30.5 40.0
    vertex 25.907081766799777 30.5 31.39747271037749
  endloop
endfacet
facet normal 0.0 -1.0 0.0
  outer loop
    vertex 25.907081766799777 30.5 31.39747271037749
    vertex 36.0 30.5 40.0
    vertex 25.9980450691452 30.5 31.91159241172521
  endloop
endfacet
facet normal 0.0 -1.0 0.0
  outer loop
    vertex 25.9980450691452 30.5 31.91159241172521
    vertex 36.0 30.5 40.0
    vertex 25.95284490195397 30.5 32.43173694411341
  endloop
endfacet
facet normal 0.0 -1.0 0.0
  outer loop
    vertex 25.95284490195397 30.5 32.43173694411341
    vertex 36.0 30.5 40.0
    vertex 25.774561581923372 30.5 32.922459317239316
  endloop
endfacet
facet normal 0.0 -1.0 0.0
  outer loop
    vertex 25.774561581923372 30.5 32.922459317239316
    vertex 36.0 30.5 40.0
    vertex 25.475344822686363 30.5 33.35031761233146
  endloop
endfacet
facet normal 0.0 -1.0 0.0
  outer loop
    vertex 25.475344822686363 30.5 33.35031761233146
    vertex 36.0 30.5 40.0
    vertex 25.07558575190588 30.5 33.686153993648574
  endloop
endfacet
facet normal 0.0 -1.0 0.0
  outer loop
    vertex 25.07558575190588 30.5 33.686153993648574
    vertex 36.0 30.5 40.0
    vertex 24.60252728962251 30.5 33.90708176679977
  endloop
endfacet
facet normal 0.0 -1.0 0.0
  outer loop
    vertex 24.60252728962251 30.5 33.90708176679977
    vertex 36.0 30.5 40.0
    vertex 24.08840758827479 30.5 33.99804506914519
  endloop
endfacet
facet normal 0.0 -1.0 0.0
  outer loop
    vertex 0.0 30.5 0.0
    vertex 23.397472710377492 30.5 30.092918233200223
    vertex 0.0 30.5 40.0
  endloop
endfacet
facet normal 0.0 -1.0 0.0
  outer loop
    vertex 23.397472710377492 30.5 30.092918233200223
    vertex 0.0 30.5 0.0
    vertex 23.911592411725213 30.5 30.0019549308548
  endloop
endfacet
facet normal 0.0 -1.0 0.0
  outer loop
    vertex 0.0 30.5 40.0
    vertex 23.397472710377492 30.5 30.092918233200223
    vertex 22.92441424809412 30.5 30.31384600635142
  endloop
endfacet
facet normal 0.0 -1.0 0.0
  outer loop
    vertex 0.0 30.5 40.0
    vertex 22.92441424809412 30.5 30.31384600635142
    vertex 22.524655177313637 30.5 30.649682387668538
  endloop
endfacet
facet normal 0.0 -1.0 0.0
  outer loop
    vertex 0.0 30.5 40.0
    vertex 22.524655177313637 30.5 30.649682387668538
    vertex 22.22543841807663 30.5 31.077540682760684
  endloop
endfacet
facet normal 0.0 -1.0 0.0
  outer loop
    vertex 0.0 30.5 40.0
    vertex 22.22543841807663 30.5 31.077540682760684
    vertex 22.04715509804603 30.5 31.56826305588659
  endloop
endfacet
facet normal 0.0 -1.0 0.0
  outer loop
    vertex 0.0 30.5 40.0
    vertex 22.04715509804603 30.5 31.56826305588659
    vertex 22.001954930854804 30.5 32.08840758827479
  endloop
endfacet
facet normal 0.0 -1.0 0.0
  outer loop
    vertex 0.0 30.5 40.0
    vertex 22.001954930854804 30.5 32.08840758827479
    vertex 22.092918233200226 30.5 32.60252728962251
  endloop
endfacet
facet normal 0.0 -1.0 0.0
  outer loop
    vertex 0.0 30.5 40.0
    vertex 22.092918233200226 30.5 32.60252728962251
    vertex 22.31384600635142 30.5 33.07558575190588
  endloop
endfacet
facet normal 0.0 -1.0 0.0
  outer loop
    vertex 0.0 30.5 40.0
    vertex 22.31384600635142 30.5 33.07558575190588
    vertex 22.64968238766854 30.5 33.47534482268637
  endloop
endfacet
facet normal 0.0 -1.0 0.0
  outer loop
    vertex 0.0 30.5 40.0
    vertex 22.64968238766854 30.5 33.47534482268637
    vertex 23.077540682760684 30.5 33.774561581923365
  endloop
endfacet
facet normal 0.0 -1.0 0.0
  outer loop
    vertex 0.0 30.5 40.0
    vertex 23.077540682760684 30.5 33.774561581923365
    vertex 23.56826305588659 30.5 33.952844901953966
  endloop
endfacet
facet normal 0.0 -1.0 0.0
  outer loop
    vertex 0.0 30.5 40.0
    vertex 23.56826305588659 30.5 33.952844901953966
    vertex 24.08840758827479 30.5 33.99804506914519
  endloop
endfacet
facet normal 0.0 -1.0 0.0
  outer loop
    vertex 0.0 30.5 40.0
    vertex 24.08840758827479 30.5 33.99804506914519
    vertex 36.0 30.5 40.0
  endloop
endfacet
facet normal 0.02776706724035339 -8.700244326272257e-18 -0.9996144206527183
  outer loop
    vertex 3.1332960917198864e-16 28.500000000000004 26.399999999999995
    vertex 36.0 27.499999999999996 27.400000000000002
    vertex 0.0 27.500000000000007 26.399999999999995
  endloop
endfacet
facet normal 0.02776706724035339 -8.700244326272257e-18 -0.9996144206527183
  outer loop
    vertex 36.0 27.499999999999996 27.400000000000002
    vertex 3.1332960917198864e-16 28.500000000000004 26.399999999999995
    vertex 36.0 28.499999999999993 27.400000000000002
  endloop
endfacet
facet normal -1.0 -0.0 -0.0
  outer loop
    vertex 36.0 27.499999999999996 1.9999999999999998
    vertex 36.0 6.499999999999999 0.0
    vertex 36.0 6.499999999999999 1.9999999999999998
  endloop
endfacet
facet normal -1.0 -0.0 -0.0
  outer loop
    vertex 36.0 6.499999999999999 0.0
    vertex 36.0 27.499999999999996 1.9999999999999998
    vertex 36.0 27.499999999999996 0.0
  endloop
endfacet
facet normal -1.0 -0.0 -0.0
  outer loop
    vertex 36.0 6.499999999999999 40.0
    vertex 36.0 0.0 1.9999999999999996
    vertex 36.0 0.0 40.0
  endloop
endfacet
facet normal -1.0 -0.0 -0.0
  outer loop
    vertex 36.0 0.0 1.9999999999999996
    vertex 36.0 6.499999999999999 40.0
    vertex 36.0 0.0 0.0
  endloop
endfacet
facet normal -1.0 -0.0 -0.0
  outer loop
    vertex 36.0 0.0 0.0
    vertex 36.0 6.499999999999999 40.0
    vertex 36.0 6.499999999999999 0.0
  endloop
endfacet
facet normal -1.0 -0.0 -0.0
  outer loop
    vertex 36.0 6.499999999999999 0.0
    vertex 36.0 6.499999999999999 40.0
    vertex 36.0 6.499999999999999 1.9999999999999998
  endloop
endfacet
facet normal -1.0 -0.0 -0.0
  outer loop
    vertex 36.0 -22.0 40.0
    vertex 36.0 -25.0 0.0
    vertex 36.0 -25.0 40.0
  endloop
endfacet
facet normal -1.0 -0.0 -0.0
  outer loop
    vertex 36.0 -25.0 0.0
    vertex 36.0 -22.0 40.0
    vertex 36.0 -22.0 1.9999999999999996
  endloop
endfacet
facet normal -1.0 -0.0 -0.0
  outer loop
    vertex 36.0 -25.0 0.0
    vertex 36.0 -22.0 1.9999999999999996
    vertex 36.0 0.0 0.0
  endloop
endfacet
facet normal -1.0 -0.0 -0.0
  outer loop
    vertex 36.0 0.0 0.0
    vertex 36.0 -22.0 1.9999999999999996
    vertex 36.0 0.0 1.9999999999999996
  endloop
endfacet
facet normal -3.9166201146498574e-17 -1.0 -0.0
  outer loop
    vertex 17.901510994775265 6.499999999999999 29.021599999362504
    vertex 17.703019870397654 6.499999999999999 29.01634685542238
    vertex 19.11997777280902 6.499999999999999 28.997692144577616
  endloop
endfacet
facet normal -3.9166201146498574e-17 -1.0 -0.0
  outer loop
    vertex 19.70328502125215 6.499999999999999 35.821091518323506
    vertex 18.328524188055237 6.499999999999999 34.983653144577616
    vertex 19.13074080125118 6.499999999999999 34.97693539143938
  endloop
endfacet
facet normal -3.9166201146498574e-17 -1.0 -0.0
  outer loop
    vertex 36.0 6.499999999999999 1.9999999999999998
    vertex 28.296714978747854 6.499999999999999 28.178908481676487
    vertex 0.0 6.499999999999999 1.9999999999999998
  endloop
endfacet
facet normal -3.9166201146498574e-17 -1.0 -0.0
  outer loop
    vertex 28.296714978747854 6.499999999999999 28.178908481676487
    vertex 36.0 6.499999999999999 1.9999999999999998
    vertex 29.139279224197466 6.499999999999999 29.42118068571443
  endloop
endfacet
facet normal -3.9166201146498574e-17 -1.0 -0.0
  outer loop
    vertex 29.139279224197466 6.499999999999999 29.42118068571443
    vertex 36.0 6.499999999999999 1.9999999999999998
    vertex 36.0 6.499999999999999 40.0
  endloop
endfacet
facet normal -3.9166201146498574e-17 -1.0 -0.0
  outer loop
    vertex 0.0 6.499999999999999 1.9999999999999998
    vertex 28.296714978747854 6.499999999999999 28.178908481676487
    vertex 27.1613367081538 6.499999999999999 27.19703734995999
  endloop
endfacet
facet normal -3.9166201146498574e-17 -1.0 -0.0
  outer loop
    vertex 0.0 6.499999999999999 1.9999999999999998
    vertex 27.1613367081538 6.499999999999999 27.19703734995999
    vertex 25.810518565255 6.499999999999999 26.54248018557266
  endloop
endfacet
facet normal -3.9166201146498574e-17 -1.0 -0.0
  outer loop
    vertex 0.0 6.499999999999999 1.9999999999999998
    vertex 25.810518565255 6.499999999999999 26.54248018557266
    vertex 24.33631657415746 6.499999999999999 26.259843977560628
  endloop
endfacet
facet normal -3.9166201146498574e-17 -1.0 -0.0
  outer loop
    vertex 29.139279224197466 6.499999999999999 29.42118068571443
    vertex 36.0 6.499999999999999 40.0
    vertex 29.631610083578508 6.499999999999999 30.83919516432051
  endloop
endfacet
facet normal -3.9166201146498574e-17 -1.0 -0.0
  outer loop
    vertex 29.631610083578508 6.499999999999999 30.83919516432051
    vertex 36.0 6.499999999999999 40.0
    vertex 29.740156022439372 6.499999999999999 32.336316574157465
  endloop
endfacet
facet normal -3.9166201146498574e-17 -1.0 -0.0
  outer loop
    vertex 29.740156022439372 6.499999999999999 32.336316574157465
    vertex 36.0 6.499999999999999 40.0
    vertex 29.45751981442734 6.499999999999999 33.810518565254995
  endloop
endfacet
facet normal -3.9166201146498574e-17 -1.0 -0.0
  outer loop
    vertex 29.45751981442734 6.499999999999999 33.810518565254995
    vertex 36.0 6.499999999999999 40.0
    vertex 28.80296265004001 6.499999999999999 35.1613367081538
  endloop
endfacet
facet normal -3.9166201146498574e-17 -1.0 -0.0
  outer loop
    vertex 28.80296265004001 6.499999999999999 35.1613367081538
    vertex 36.0 6.499999999999999 40.0
    vertex 27.82109151832351 6.499999999999999 36.29671497874785
  endloop
endfacet
facet normal -3.9166201146498574e-17 -1.0 -0.0
  outer loop
    vertex 27.82109151832351 6.499999999999999 36.29671497874785
    vertex 36.0 6.499999999999999 40.0
    vertex 26.57881931428557 6.499999999999999 37.13927922419746
  endloop
endfacet
facet normal -3.9166201146498574e-17 -1.0 -0.0
  outer loop
    vertex 26.57881931428557 6.499999999999999 37.13927922419746
    vertex 36.0 6.499999999999999 40.0
    vertex 25.160804835679485 6.499999999999999 37.6316100835785
  endloop
endfacet
facet normal -3.9166201146498574e-17 -1.0 -0.0
  outer loop
    vertex 25.160804835679485 6.499999999999999 37.6316100835785
    vertex 36.0 6.499999999999999 40.0
    vertex 23.66368342584254 6.499999999999999 37.74015602243937
  endloop
endfacet
facet normal -3.9166201146498574e-17 -1.0 -0.0
  outer loop
    vertex 0.0 6.499999999999999 1.9999999999999998
    vertex 16.253094142303475 6.499999999999999 29.57245666012885
    vertex 0.0 6.499999999999999 40.0
  endloop
endfacet
facet normal -3.9166201146498574e-17 -1.0 -0.0
  outer loop
    vertex 16.253094142303475 6.499999999999999 29.57245666012885
    vertex 0.0 6.499999999999999 1.9999999999999998
    vertex 16.94145038398934 6.499999999999999 29.198958586065704
  endloop
endfacet
facet normal -3.9166201146498574e-17 -1.0 -0.0
  outer loop
    vertex 16.94145038398934 6.499999999999999 29.198958586065704
    vertex 0.0 6.499999999999999 1.9999999999999998
    vertex 21.42118068571443 6.499999999999999 26.860720775802534
  endloop
endfacet
facet normal -3.9166201146498574e-17 -1.0 -0.0
  outer loop
    vertex 21.42118068571443 6.499999999999999 26.860720775802534
    vertex 0.0 6.499999999999999 1.9999999999999998
    vertex 22.83919516432051 6.499999999999999 26.368389916421492
  endloop
endfacet
facet normal -3.9166201146498574e-17 -1.0 -0.0
  outer loop
    vertex 22.83919516432051 6.499999999999999 26.368389916421492
    vertex 0.0 6.499999999999999 1.9999999999999998
    vertex 24.33631657415746 6.499999999999999 26.259843977560628
  endloop
endfacet
facet normal -3.9166201146498574e-17 -1.0 -0.0
  outer loop
    vertex 16.94145038398934 6.499999999999999 29.198958586065704
    vertex 21.42118068571443 6.499999999999999 26.860720775802534
    vertex 20.17890848167649 6.499999999999999 27.703285021252146
  endloop
endfacet
facet normal -3.9166201146498574e-17 -1.0 -0.0
  outer loop
    vertex 16.94145038398934 6.499999999999999 29.198958586065704
    vertex 20.17890848167649 6.499999999999999 27.703285021252146
    vertex 17.703019870397654 6.499999999999999 29.01634685542238
  endloop
endfacet
facet normal -3.9166201146498574e-17 -1.0 -0.0
  outer loop
    vertex 17.703019870397654 6.499999999999999 29.01634685542238
    vertex 20.17890848167649 6.499999999999999 27.703285021252146
    vertex 19.197037349959995 6.499999999999999 28.838663291846196
  endloop
endfacet
facet normal -3.9166201146498574e-17 -1.0 -0.0
  outer loop
    vertex 17.703019870397654 6.499999999999999 29.01634685542238
    vertex 19.197037349959995 6.499999999999999 28.838663291846196
    vertex 19.11997777280902 6.499999999999999 28.997692144577616
  endloop
endfacet
facet normal -3.9166201146498574e-17 -1.0 -0.0
  outer loop
    vertex 0.0 6.499999999999999 40.0
    vertex 16.253094142303475 6.499999999999999 29.57245666012885
    vertex 15.68486148564847 6.499999999999999 30.11138780109917
  endloop
endfacet
facet normal -3.9166201146498574e-17 -1.0 -0.0
  outer loop
    vertex 0.0 6.499999999999999 40.0
    vertex 15.68486148564847 6.499999999999999 30.11138780109917
    vertex 15.275476530526506 6.499999999999999 30.779024742345346
  endloop
endfacet
facet normal -3.9166201146498574e-17 -1.0 -0.0
  outer loop
    vertex 0.0 6.499999999999999 40.0
    vertex 15.275476530526506 6.499999999999999 30.779024742345346
    vertex 15.052838185088511 6.499999999999999 31.52986912964368
  endloop
endfacet
facet normal -3.9166201146498574e-17 -1.0 -0.0
  outer loop
    vertex 0.0 6.499999999999999 40.0
    vertex 15.052838185088511 6.499999999999999 31.52986912964368
    vertex 15.032118884648824 6.499999999999999 32.312752158828786
  endloop
endfacet
facet normal -3.9166201146498574e-17 -1.0 -0.0
  outer loop
    vertex 0.0 6.499999999999999 40.0
    vertex 15.032118884648824 6.499999999999999 32.312752158828786
    vertex 15.21473061529215 6.499999999999999 33.0743216452371
  endloop
endfacet
facet normal -3.9166201146498574e-17 -1.0 -0.0
  outer loop
    vertex 0.0 6.499999999999999 40.0
    vertex 15.21473061529215 6.499999999999999 33.0743216452371
    vertex 15.588228689355297 6.499999999999999 33.762677886922965
  endloop
endfacet
facet normal -3.9166201146498574e-17 -1.0 -0.0
  outer loop
    vertex 0.0 6.499999999999999 40.0
    vertex 15.588228689355297 6.499999999999999 33.762677886922965
    vertex 16.127159830325613 6.499999999999999 34.33091054357797
  endloop
endfacet
facet normal -3.9166201146498574e-17 -1.0 -0.0
  outer loop
    vertex 0.0 6.499999999999999 40.0
    vertex 16.127159830325613 6.499999999999999 34.33091054357797
    vertex 16.794796771571793 6.499999999999999 34.740295498699936
  endloop
endfacet
facet normal -3.9166201146498574e-17 -1.0 -0.0
  outer loop
    vertex 0.0 6.499999999999999 40.0
    vertex 16.794796771571793 6.499999999999999 34.740295498699936
    vertex 17.545641158870122 6.499999999999999 34.962933844137936
  endloop
endfacet
facet normal -3.9166201146498574e-17 -1.0 -0.0
  outer loop
    vertex 0.0 6.499999999999999 40.0
    vertex 17.545641158870122 6.499999999999999 34.962933844137936
    vertex 18.074692503849008 6.499999999999999 34.97693539143938
  endloop
endfacet
facet normal -3.9166201146498574e-17 -1.0 -0.0
  outer loop
    vertex 0.0 6.499999999999999 40.0
    vertex 18.074692503849008 6.499999999999999 34.97693539143938
    vertex 18.328524188055237 6.499999999999999 34.983653144577616
  endloop
endfacet
facet normal -3.9166201146498574e-17 -1.0 -0.0
  outer loop
    vertex 0.0 6.499999999999999 40.0
    vertex 18.328524188055237 6.499999999999999 34.983653144577616
    vertex 19.70328502125215 6.499999999999999 35.821091518323506
  endloop
endfacet
facet normal -3.9166201146498574e-17 -1.0 -0.0
  outer loop
    vertex 0.0 6.499999999999999 40.0
    vertex 19.70328502125215 6.499999999999999 35.821091518323506
    vertex 20.8386632918462 6.499999999999999 36.80296265004
  endloop
endfacet
facet normal -3.9166201146498574e-17 -1.0 -0.0
  outer loop
    vertex 0.0 6.499999999999999 40.0
    vertex 20.8386632918462 6.499999999999999 36.80296265004
    vertex 22.189481434745005 6.499999999999999 37.457519814427336
  endloop
endfacet
facet normal -3.9166201146498574e-17 -1.0 -0.0
  outer loop
    vertex 0.0 6.499999999999999 40.0
    vertex 22.189481434745005 6.499999999999999 37.457519814427336
    vertex 23.66368342584254 6.499999999999999 37.74015602243937
  endloop
endfacet
facet normal -3.9166201146498574e-17 -1.0 -0.0
  outer loop
    vertex 0.0 6.499999999999999 40.0
    vertex 23.66368342584254 6.499999999999999 37.74015602243937
    vertex 36.0 6.499999999999999 40.0
  endloop
endfacet
facet normal 0.02776706724035339 -8.700244326272257e-18 0.9996144206527183
  outer loop
    vertex 36.0 27.499999999999996 36.599999999999994
    vertex 3.1332960917198864e-16 28.500000000000004 37.6
    vertex 0.0 27.500000000000007 37.6
  endloop
endfacet
facet normal 0.02776706724035339 -8.700244326272257e-18 0.9996144206527183
  outer loop
    vertex 3.1332960917198864e-16 28.500000000000004 37.6
    vertex 36.0 27.499999999999996 36.599999999999994
    vertex 36.0 28.499999999999993 36.599999999999994
  endloop
endfacet
facet normal 1.0 0.0 0.0
  outer loop
    vertex 0.0 -25.0 0.0
    vertex 0.0 -22.0 1.9999999999999996
    vertex 0.0 -25.0 40.0
  endloop
endfacet
facet normal 1.0 0.0 0.0
  outer loop
    vertex 0.0 -22.0 1.9999999999999996
    vertex 0.0 -25.0 0.0
    vertex 0.0 0.0 0.0
  endloop
endfacet
facet normal 1.0 0.0 0.0
  outer loop
    vertex 0.0 -22.0 1.9999999999999996
    vertex 0.0 0.0 0.0
    vertex 0.0 0.0 1.9999999999999996
  endloop
endfacet
facet normal 1.0 0.0 0.0
  outer loop
    vertex 0.0 0.0 1.9999999999999996
    vertex 0.0 0.0 0.0
    vertex 0.0 6.499999999999999 0.0
  endloop
endfacet
facet normal 1.0 0.0 0.0
  outer loop
    vertex 0.0 0.0 1.9999999999999996
    vertex 0.0 6.499999999999999 0.0
    vertex 0.0 0.0 40.0
  endloop
endfacet
facet normal 1.0 0.0 0.0
  outer loop
    vertex 0.0 0.0 40.0
    vertex 0.0 6.499999999999999 0.0
    vertex 0.0 6.499999999999999 40.0
  endloop
endfacet
facet normal 1.0 0.0 0.0
  outer loop
    vertex 0.0 6.499999999999999 40.0
    vertex 0.0 6.499999999999999 0.0
    vertex 0.0 6.499999999999999 1.9999999999999998
  endloop
endfacet
facet normal 1.0 0.0 0.0
  outer loop
    vertex 0.0 -22.0 40.0
    vertex 0.0 -25.0 40.0
    vertex 0.0 -22.0 1.9999999999999996
  endloop
endfacet
facet normal 1.0 0.0 0.0
  outer loop
    vertex 0.0 30.5 0.0
    vertex 0.0 27.499999999999996 1.9999999999999998
    vertex 0.0 27.499999999999996 0.0
  endloop
endfacet
facet normal 1.0 0.0 0.0
  outer loop
    vertex 0.0 27.499999999999996 1.9999999999999998
    vertex 0.0 30.5 0.0
    vertex 0.0 27.500000000000007 26.399999999999995
  endloop
endfacet
facet normal 1.0 0.0 0.0
  outer loop
    vertex 0.0 27.500000000000007 26.399999999999995
    vertex 0.0 30.5 0.0
    vertex 3.1332960917198864e-16 28.500000000000004 26.399999999999995
  endloop
endfacet
facet normal 1.0 0.0 0.0
  outer loop
    vertex 3.1332960917198864e-16 28.500000000000004 26.399999999999995
    vertex 0.0 30.5 0.0
    vertex 3.1332960917198864e-16 28.500000000000004 37.6
  endloop
endfacet
facet normal 1.0 0.0 0.0
  outer loop
    vertex 0.0 27.500000000000007 37.6
    vertex 0.0 30.5 40.0
    vertex 0.0 27.499999999999996 40.0
  endloop
endfacet
facet normal 1.0 0.0 0.0
  outer loop
    vertex 0.0 30.5 40.0
    vertex 0.0 27.500000000000007 37.6
    vertex 3.1332960917198864e-16 28.500000000000004 37.6
  endloop
endfacet
facet normal 1.0 0.0 0.0
  outer loop
    vertex 0.0 30.5 40.0
    vertex 3.1332960917198864e-16 28.500000000000004 37.6
    vertex 0.0 30.5 0.0
  endloop
endfacet
facet normal 0.0 0.0 -1.0
  outer loop
    vertex 36.0 6.499999999999999 40.0
    vertex 0.0 0.0 40.0
    vertex 0.0 6.499999999999999 40.0
  endloop
endfacet
facet normal 0.0 0.0 -1.0
  outer loop
    vertex 0.0 0.0 40.0
    vertex 36.0 6.499999999999999 40.0
    vertex 36.0 0.0 40.0
  endloop
endfacet
facet normal 1.0 0.0 0.0
  outer loop
    vertex 0.0 27.499999999999996 0.0
    vertex 0.0 6.499999999999999 1.9999999999999998
    vertex 0.0 6.499999999999999 0.0
  endloop
endfacet
facet normal 1.0 0.0 0.0
  outer loop
    vertex 0.0 6.499999999999999 1.9999999999999998
    vertex 0.0 27.499999999999996 0.0
    vertex 0.0 27.499999999999996 1.9999999999999998
  endloop
endfacet
facet normal 2.3653794029396997e-16 1.0 -1.109328058784521e-16
  outer loop
    vertex 0.0 27.500000000000007 26.399999999999995
    vertex 36.0 27.499999999999996 1.9999999999999998
    vertex 0.0 27.499999999999996 1.9999999999999998
  endloop
endfacet
facet normal 2.3653794029396997e-16 1.0 -1.109328058784521e-16
  outer loop
    vertex 36.0 27.499999999999996 1.9999999999999998
    vertex 0.0 27.500000000000007 26.399999999999995
    vertex 36.0 27.499999999999996 27.400000000000002
  endloop
endfacet
facet normal -1.0 -0.0 -0.0
  outer loop
    vertex 36.0 30.5 40.0
    vertex 36.0 27.499999999999996 36.599999999999994
    vertex 36.0 27.499999999999996 40.0
  endloop
endfacet
facet normal -1.0 -0.0 -0.0
  outer loop
    vertex 36.0 27.499999999999996 36.599999999999994
    vertex 36.0 30.5 40.0
    vertex 36.0 28.499999999999993 36.599999999999994
  endloop
endfacet
facet normal -1.0 -0.0 -0.0
  outer loop
    vertex 36.0 28.499999999999993 36.599999999999994
    vertex 36.0 30.5 40.0
    vertex 36.0 28.499999999999993 27.400000000000002
  endloop
endfacet
facet normal -1.0 -0.0 -0.0
  outer loop
    vertex 36.0 28.499999999999993 27.400000000000002
    vertex 36.0 27.499999999999996 1.9999999999999998
    vertex 36.0 27.499999999999996 27.400000000000002
  endloop
endfacet
facet normal -1.0 -0.0 -0.0
  outer loop
    vertex 36.0 27.499999999999996 1.9999999999999998
    vertex 36.0 28.499999999999993 27.400000000000002
    vertex 36.0 27.499999999999996 0.0
  endloop
endfacet
facet normal -1.0 -0.0 -0.0
  outer loop
    vertex 36.0 27.499999999999996 0.0
    vertex 36.0 28.499999999999993 27.400000000000002
    vertex 36.0 30.5 0.0
  endloop
endfacet
facet normal -1.0 -0.0 -0.0
  outer loop
    vertex 36.0 30.5 0.0
    vertex 36.0 28.499999999999993 27.400000000000002
    vertex 36.0 30.5 40.0
  endloop
endfacet
facet normal 0.0 0.0 -1.0
  outer loop
    vertex 36.0 30.5 40.0
    vertex 0.0 27.499999999999996 40.0
    vertex 0.0 30.5 40.0
  endloop
endfacet
facet normal 0.0 0.0 -1.0
  outer loop
    vertex 0.0 27.499999999999996 40.0
    vertex 36.0 30.5 40.0
    vertex 36.0 27.499999999999996 40.0
  endloop
endfacet
facet normal 0.0 0.0 -1.0
  outer loop
    vertex 36.0 27.499999999999996 1.9999999999999998
    vertex 0.0 6.499999999999999 1.9999999999999998
    vertex 0.0 27.499999999999996 1.9999999999999998
  endloop
endfacet
facet normal 0.0 0.0 -1.0
  outer loop
    vertex 0.0 6.499999999999999 1.9999999999999998
    vertex 36.0 27.499999999999996 1.9999999999999998
    vertex 36.0 6.499999999999999 1.9999999999999998
  endloop
endfacet
facet normal 3.1332960917198864e-16 1.0 0.0
  outer loop
    vertex 3.1332960917198864e-16 28.500000000000004 26.399999999999995
    vertex 23.397472710377492 28.499999999999993 30.092918233200223
    vertex 36.0 28.499999999999993 27.400000000000002
  endloop
endfacet
facet normal 3.1332960917198864e-16 1.0 0.0
  outer loop
    vertex 23.397472710377492 28.499999999999993 30.092918233200223
    vertex 3.1332960917198864e-16 28.500000000000004 26.399999999999995
    vertex 3.1332960917198864e-16 28.500000000000004 37.6
  endloop
endfacet
facet normal 3.1332960917198864e-16 1.0 0.0
  outer loop
    vertex 36.0 28.499999999999993 27.400000000000002
    vertex 23.397472710377492 28.499999999999993 30.092918233200223
    vertex 23.911592411725213 28.499999999999993 30.0019549308548
  endloop
endfacet
facet normal 3.1332960917198864e-16 1.0 0.0
  outer loop
    vertex 23.397472710377492 28.499999999999993 30.092918233200223
    vertex 3.1332960917198864e-16 28.500000000000004 37.6
    vertex 22.92441424809412 28.499999999999993 30.31384600635142
  endloop
endfacet
facet normal 3.1332960917198864e-16 1.0 0.0
  outer loop
    vertex 22.92441424809412 28.499999999999993 30.31384600635142
    vertex 3.1332960917198864e-16 28.500000000000004 37.6
    vertex 22.524655177313637 28.499999999999993 30.649682387668538
  endloop
endfacet
facet normal 3.1332960917198864e-16 1.0 0.0
  outer loop
    vertex 22.524655177313637 28.499999999999993 30.649682387668538
    vertex 3.1332960917198864e-16 28.500000000000004 37.6
    vertex 22.22543841807663 28.499999999999993 31.077540682760684
  endloop
endfacet
facet normal 3.1332960917198864e-16 1.0 0.0
  outer loop
    vertex 22.22543841807663 28.499999999999993 31.077540682760684
    vertex 3.1332960917198864e-16 28.500000000000004 37.6
    vertex 22.04715509804603 28.499999999999993 31.56826305588659
  endloop
endfacet
facet normal 3.1332960917198864e-16 1.0 0.0
  outer loop
    vertex 22.04715509804603 28.499999999999993 31.56826305588659
    vertex 3.1332960917198864e-16 28.500000000000004 37.6
    vertex 22.001954930854804 28.499999999999993 32.08840758827479
  endloop
endfacet
facet normal 3.1332960917198864e-16 1.0 0.0
  outer loop
    vertex 22.001954930854804 28.499999999999993 32.08840758827479
    vertex 3.1332960917198864e-16 28.500000000000004 37.6
    vertex 22.092918233200226 28.499999999999993 32.60252728962251
  endloop
endfacet
facet normal 3.1332960917198864e-16 1.0 0.0
  outer loop
    vertex 22.092918233200226 28.499999999999993 32.60252728962251
    vertex 3.1332960917198864e-16 28.500000000000004 37.6
    vertex 22.31384600635142 28.499999999999993 33.07558575190588
  endloop
endfacet
facet normal 3.1332960917198864e-16 1.0 0.0
  outer loop
    vertex 22.31384600635142 28.499999999999993 33.07558575190588
    vertex 3.1332960917198864e-16 28.500000000000004 37.6
    vertex 22.64968238766854 28.499999999999993 33.47534482268637
  endloop
endfacet
facet normal 3.1332960917198864e-16 1.0 0.0
  outer loop
    vertex 22.64968238766854 28.499999999999993 33.47534482268637
    vertex 3.1332960917198864e-16 28.500000000000004 37.6
    vertex 23.077540682760684 28.499999999999993 33.774561581923365
  endloop
endfacet
facet normal 3.1332960917198864e-16 1.0 0.0
  outer loop
    vertex 23.077540682760684 28.499999999999993 33.774561581923365
    vertex 3.1332960917198864e-16 28.500000000000004 37.6
    vertex 23.56826305588659 28.499999999999993 33.952844901953966
  endloop
endfacet
facet normal 3.1332960917198864e-16 1.0 0.0
  outer loop
    vertex 23.56826305588659 28.499999999999993 33.952844901953966
    vertex 3.1332960917198864e-16 28.500000000000004 37.6
    vertex 24.08840758827479 28.499999999999993 33.99804506914519
  endloop
endfacet
facet normal 3.1332960917198864e-16 1.0 0.0
  outer loop
    vertex 24.08840758827479 28.499999999999993 33.99804506914519
    vertex 3.1332960917198864e-16 28.500000000000004 37.6
    vertex 36.0 28.499999999999993 36.599999999999994
  endloop
endfacet
facet normal 3.1332960917198864e-16 1.0 0.0
  outer loop
    vertex 36.0 28.499999999999993 27.400000000000002
    vertex 24.922459317239316 28.499999999999993 30.225438418076628
    vertex 36.0 28.499999999999993 36.599999999999994
  endloop
endfacet
facet normal 3.1332960917198864e-16 1.0 0.0
  outer loop
    vertex 24.922459317239316 28.499999999999993 30.225438418076628
    vertex 36.0 28.499999999999993 27.400000000000002
    vertex 24.43173694411341 28.499999999999993 30.047155098046026
  endloop
endfacet
facet normal 3.1332960917198864e-16 1.0 0.0
  outer loop
    vertex 24.43173694411341 28.499999999999993 30.047155098046026
    vertex 36.0 28.499999999999993 27.400000000000002
    vertex 23.911592411725213 28.499999999999993 30.0019549308548
  endloop
endfacet
facet normal 3.1332960917198864e-16 1.0 0.0
  outer loop
    vertex 36.0 28.499999999999993 36.599999999999994
    vertex 24.922459317239316 28.499999999999993 30.225438418076628
    vertex 25.350317612331462 28.499999999999993 30.524655177313637
  endloop
endfacet
facet normal 3.1332960917198864e-16 1.0 0.0
  outer loop
    vertex 36.0 28.499999999999993 36.599999999999994
    vertex 25.350317612331462 28.499999999999993 30.524655177313637
    vertex 25.68615399364858 28.499999999999993 30.92441424809412
  endloop
endfacet
facet normal 3.1332960917198864e-16 1.0 0.0
  outer loop
    vertex 36.0 28.499999999999993 36.599999999999994
    vertex 25.68615399364858 28.499999999999993 30.92441424809412
    vertex 25.907081766799777 28.499999999999993 31.39747271037749
  endloop
endfacet
facet normal 3.1332960917198864e-16 1.0 0.0
  outer loop
    vertex 36.0 28.499999999999993 36.599999999999994
    vertex 25.907081766799777 28.499999999999993 31.39747271037749
    vertex 25.9980450691452 28.499999999999993 31.91159241172521
  endloop
endfacet
facet normal 3.1332960917198864e-16 1.0 0.0
  outer loop
    vertex 36.0 28.499999999999993 36.599999999999994
    vertex 25.9980450691452 28.499999999999993 31.91159241172521
    vertex 25.95284490195397 28.499999999999993 32.43173694411341
  endloop
endfacet
facet normal 3.1332960917198864e-16 1.0 0.0
  outer loop
    vertex 36.0 28.499999999999993 36.599999999999994
    vertex 25.95284490195397 28.499999999999993 32.43173694411341
    vertex 25.774561581923372 28.499999999999993 32.922459317239316
  endloop
endfacet
facet normal 3.1332960917198864e-16 1.0 0.0
  outer loop
    vertex 36.0 28.499999999999993 36.599999999999994
    vertex 25.774561581923372 28.499999999999993 32.922459317239316
    vertex 25.475344822686363 28.499999999999993 33.35031761233146
  endloop
endfacet
facet normal 3.1332960917198864e-16 1.0 0.0
  outer loop
    vertex 36.0 28.499999999999993 36.599999999999994
    vertex 25.475344822686363 28.499999999999993 33.35031761233146
    vertex 25.07558575190588 28.499999999999993 33.686153993648574
  endloop
endfacet
facet normal 3.1332960917198864e-16 1.0 0.0
  outer loop
    vertex 36.0 28.499999999999993 36.599999999999994
    vertex 25.07558575190588 28.499999999999993 33.686153993648574
    vertex 24.60252728962251 28.499999999999993 33.90708176679977
  endloop
endfacet
facet normal 3.1332960917198864e-16 1.0 0.0
  outer loop
    vertex 36.0 28.499999999999993 36.599999999999994
    vertex 24.60252728962251 28.499999999999993 33.90708176679977
    vertex 24.08840758827479 28.499999999999993 33.99804506914519
  endloop
endfacet
endsolid frame-all-components
